<?xml version="1.0" encoding="UTF-8"?><svg id="a" xmlns="http://www.w3.org/2000/svg" xmlns:xlink="http://www.w3.org/1999/xlink" viewBox="0 0 102.074 103.406"><defs><clipPath id="c"><path d="M51.537,103.406c28.83,0,50.537-22.039,50.537-50.869S80.701,0,51.871,0,0,23.373,0,52.203s22.706,51.203,51.537,51.203" fill="none"/></clipPath></defs><g id="b"><path d="M51.537,103.406c28.83,0,50.537-22.039,50.537-50.869S80.701,0,51.871,0,0,23.372,0,52.203s22.706,51.203,51.537,51.203" fill="#6c4023"/><g clip-path="url(#c)"><path d="M51.036,113.929c34.366,0,62.227-27.859,62.227-62.224S85.402-10.522,51.036-10.522-11.188,17.337-11.188,51.705s27.859,62.224,62.224,62.224" fill="#6c4023"/></g><path d="M15.818,35.099h-.336l-.712-2.639c-.092-.343-.137-.644-.137-.906,0-.283,.099-.523,.299-.723,.197-.199,.437-.298,.714-.298,.321,0,.571,.105,.749,.312,.177,.207,.267,.434,.267,.676,0,.205-.055,.523-.164,.953l-.68,2.625m3.313,0h-.344l-.691-2.633c-.112-.402-.166-.713-.166-.931,0-.266,.101-.498,.306-.7,.203-.201,.446-.302,.729-.302,.324,0,.572,.107,.744,.322,.172,.215,.258,.435,.258,.658,0,.16-.061,.479-.178,.953l-.658,2.633Z" fill="#fff"/><path d="M26.363,39.788v.254h-4.861v-.254h.309c.269,0,.486-.048,.652-.144,.117-.064,.209-.174,.273-.328,.051-.111,.076-.399,.076-.865v-6.116c0-.474-.025-.771-.076-.89-.05-.119-.152-.223-.304-.313-.155-.088-.362-.133-.621-.133h-.309v-.253h4.861v.253h-.308c-.27,0-.487,.049-.653,.145-.119,.062-.211,.174-.281,.328-.049,.109-.074,.399-.074,.863v6.116c0,.476,.025,.773,.078,.892,.053,.117,.156,.223,.309,.311,.154,.09,.359,.134,.621,.134h.308" fill="#fff"/><path d="M30.094,40.234l-2.16-4.971c-.26-.598-.465-.978-.61-1.139-.105-.117-.262-.197-.467-.238v-.254h3.407v.254c-.215,0-.36,.039-.438,.115-.109,.102-.164,.221-.164,.358,0,.168,.1,.486,.301,.953l1.057,2.406,.841-2.078c.243-.594,.364-1.014,.364-1.262,0-.14-.051-.256-.155-.345-.101-.09-.283-.139-.545-.147v-.254h2.098v.254c-.201,.027-.365,.102-.492,.225-.129,.125-.32,.488-.576,1.092l-2.139,5.031h-.322" fill="#fff"/><path d="M37.119,40.302l-2.07-4.75c-.311-.719-.541-1.16-.69-1.324-.148-.164-.328-.279-.539-.342v-.254h3.409v.254c-.225,.008-.383,.053-.473,.129-.092,.078-.137,.172-.137,.281,0,.174,.113,.518,.342,1.03l1.098,2.507,.746-1.939c.269-.689,.404-1.17,.404-1.439,0-.17-.055-.305-.168-.405-.111-.101-.309-.156-.592-.164v-.254h2.145v.254c-.209,.022-.381,.104-.514,.242-.133,.141-.353,.614-.664,1.424l-1.832,4.75c-.461,1.188-.803,1.92-1.027,2.194-.317,.384-.711,.576-1.186,.576-.381,0-.687-.11-.922-.326-.236-.217-.353-.479-.353-.786,0-.263,.08-.484,.242-.658,.162-.172,.363-.26,.601-.26,.229,0,.413,.073,.551,.219,.139,.147,.211,.373,.217,.68,.004,.174,.025,.285,.061,.336l.158,.074c.109,0,.226-.064,.349-.197,.184-.194,.399-.631,.645-1.317l.199-.535" fill="#fff"/><path d="M53.127,36.779l-.35,3.263h-8.254v-.254h.309c.27,0,.486-.048,.651-.144,.119-.064,.21-.174,.274-.328,.051-.111,.076-.399,.076-.865v-6.116c0-.474-.025-.771-.076-.89-.05-.119-.152-.223-.305-.313-.153-.088-.36-.133-.62-.133h-.309v-.253h4.956v.253h-.404c-.269,0-.486,.049-.651,.145-.119,.062-.212,.174-.281,.328-.05,.109-.076,.399-.076,.863v5.924c0,.475,.028,.778,.082,.908,.055,.131,.163,.229,.323,.291,.114,.041,.39,.063,.83,.063h.774c.493,0,.905-.088,1.235-.262,.329-.172,.613-.447,.853-.822,.239-.375,.467-.928,.682-1.658h.281" fill="#fff"/><path d="M59.529,36.607h-3.516c.041,.849,.267,1.521,.678,2.015,.316,.379,.695,.569,1.138,.569,.275,0,.524-.076,.747-.229,.225-.154,.464-.429,.721-.826l.232,.151c-.346,.709-.731,1.21-1.151,1.505-.421,.293-.907,.442-1.46,.442-.951,0-1.671-.365-2.16-1.098-.393-.59-.589-1.32-.589-2.193,0-1.069,.289-1.92,.867-2.553s1.255-.951,2.032-.951c.65,0,1.212,.267,1.69,.799,.477,.533,.735,1.322,.771,2.369m-1.686-.459c0-.736-.04-1.24-.12-1.516-.079-.273-.204-.482-.373-.623-.096-.082-.224-.123-.384-.123-.238,0-.433,.115-.583,.35-.27,.406-.404,.963-.404,1.672v.24h1.864Z" fill="#fff"/><path d="M63.729,39.095c-.783,.692-1.484,1.035-2.105,1.035-.366,0-.67-.119-.912-.359s-.363-.541-.363-.902c0-.489,.21-.928,.63-1.319,.42-.39,1.337-.91,2.75-1.56v-.645c0-.484-.027-.789-.08-.914-.052-.127-.152-.236-.297-.33-.147-.094-.312-.141-.495-.141-.296,0-.541,.067-.733,.2-.119,.082-.178,.177-.178,.287,0,.097,.064,.215,.192,.357,.174,.197,.26,.387,.26,.568,0,.225-.084,.416-.25,.573-.167,.158-.385,.236-.655,.236-.288,0-.529-.086-.723-.26-.194-.174-.291-.377-.291-.609,0-.33,.13-.645,.39-.943,.261-.299,.624-.53,1.091-.69,.466-.16,.95-.24,1.453-.24,.607,0,1.089,.131,1.442,.389,.355,.257,.584,.537,.69,.839,.063,.192,.096,.633,.096,1.323v2.488c0,.293,.011,.477,.034,.553l.103,.168,.158,.054c.119,0,.24-.084,.363-.254l.206,.164c-.229,.34-.465,.584-.71,.739-.244,.152-.522,.228-.833,.228-.365,0-.651-.086-.857-.256-.206-.171-.332-.431-.376-.779m0-.5v-2.146c-.554,.326-.965,.672-1.235,1.043-.178,.246-.267,.496-.267,.746,0,.211,.076,.396,.226,.556,.114,.123,.275,.186,.48,.186,.228,0,.494-.129,.796-.385Z" fill="#fff"/><path d="M71.268,33.706h2.16v.754h-1.228c.224,.225,.38,.428,.466,.612,.11,.246,.165,.504,.165,.775,0,.457-.127,.854-.381,1.188-.253,.336-.598,.599-1.035,.789-.436,.189-.823,.285-1.162,.285-.027,0-.301-.012-.822-.035-.206,0-.378,.068-.518,.203-.14,.135-.209,.295-.209,.482,0,.164,.063,.301,.189,.404,.126,.106,.33,.159,.613,.159l1.186-.014c.96,0,1.62,.105,1.981,.316,.516,.291,.775,.743,.775,1.35,0,.389-.119,.742-.356,1.059-.238,.318-.551,.552-.94,.703-.59,.224-1.268,.336-2.036,.336-.576,0-1.101-.057-1.577-.168-.475-.112-.815-.268-1.021-.467-.206-.197-.308-.406-.308-.627,0-.209,.078-.398,.236-.564,.158-.168,.451-.309,.881-.422-.595-.293-.891-.7-.891-1.221,0-.315,.121-.621,.363-.918s.626-.557,1.152-.775c-.613-.225-1.056-.52-1.33-.885s-.411-.787-.411-1.268c0-.627,.256-1.17,.768-1.629,.511-.459,1.169-.689,1.974-.689,.425,0,.863,.09,1.316,.267m-1.59,7.282c-.467,0-.776,.039-.926,.117-.261,.141-.391,.332-.391,.576,0,.232,.135,.443,.405,.633,.269,.189,.777,.285,1.522,.285,.635,0,1.134-.084,1.497-.254,.363-.17,.545-.406,.545-.713,0-.115-.034-.211-.102-.287-.124-.139-.31-.232-.559-.281-.249-.051-.913-.076-1.991-.076Zm.404-7.123c-.266,0-.489,.134-.672,.4-.182,.268-.274,.822-.274,1.664,0,.68,.091,1.149,.27,1.401,.181,.253,.395,.38,.642,.38,.274,0,.503-.125,.685-.377,.183-.25,.275-.74,.275-1.466,0-.819-.104-1.375-.309-1.672-.146-.221-.352-.33-.617-.33Z" fill="#fff"/><path d="M80.393,33.632v5.018c0,.49,.045,.795,.137,.916,.091,.121,.277,.197,.555,.228v.248h-2.611v-.857c-.307,.365-.613,.631-.919,.799-.306,.166-.649,.25-1.029,.25-.361,0-.681-.112-.963-.332-.281-.223-.469-.483-.565-.78-.097-.296-.144-.814-.144-1.554v-2.545c0-.485-.044-.785-.134-.904-.089-.12-.276-.198-.559-.233v-.254h2.612v4.381c0,.457,.022,.752,.066,.883,.043,.133,.111,.234,.205,.303,.094,.068,.202,.103,.326,.103,.164,0,.313-.045,.445-.131,.183-.119,.403-.359,.659-.72v-3.428c0-.485-.045-.785-.134-.904-.089-.12-.276-.198-.559-.233v-.254h2.612" fill="#fff"/><path d="M87.44,36.607h-3.516c.041,.849,.267,1.521,.679,2.015,.315,.379,.694,.569,1.137,.569,.275,0,.524-.076,.747-.229,.225-.154,.464-.429,.721-.826l.232,.151c-.346,.709-.731,1.21-1.151,1.505-.421,.293-.907,.442-1.46,.442-.951,0-1.671-.365-2.16-1.098-.393-.59-.589-1.32-.589-2.193,0-1.069,.289-1.92,.867-2.553s1.255-.951,2.032-.951c.65,0,1.212,.267,1.69,.799,.477,.533,.735,1.322,.771,2.369m-1.686-.459c0-.736-.04-1.24-.12-1.516-.079-.273-.204-.482-.373-.623-.096-.082-.224-.123-.384-.123-.238,0-.433,.115-.583,.35-.27,.406-.404,.963-.404,1.672v.24h1.864Z" fill="#fff"/><path d="M24.08,54.468l.213,.166c-.303,.567-.678,.988-1.129,1.264-.449,.277-.928,.416-1.435,.416-.854,0-1.538-.322-2.049-.967-.512-.644-.768-1.42-.768-2.324,0-.873,.233-1.641,.699-2.305,.561-.799,1.336-1.199,2.323-1.199,.664,0,1.189,.168,1.58,.5,.392,.334,.588,.707,.588,1.119,0,.26-.081,.467-.237,.623-.158,.156-.365,.233-.621,.233-.269,0-.492-.088-.668-.268-.176-.178-.285-.494-.326-.951-.027-.289-.094-.49-.199-.604-.106-.115-.229-.172-.369-.172-.221,0-.409,.118-.563,.35-.238,.352-.357,.891-.357,1.617,0,.604,.095,1.182,.289,1.733,.191,.55,.453,.961,.787,1.23,.252,.195,.549,.295,.892,.295,.223,0,.436-.053,.637-.158,.201-.106,.44-.305,.713-.598" fill="#fff"/><path d="M27.699,46.826v3.709c.352-.372,.674-.633,.967-.786,.293-.154,.598-.23,.912-.23,.402,0,.746,.115,1.031,.344,.286,.228,.477,.496,.571,.804,.093,.309,.14,.829,.14,1.561v2.502c0,.488,.045,.793,.137,.914s.275,.199,.555,.23v.247h-3.25v-.247c.228-.031,.4-.123,.515-.273,.082-.119,.123-.41,.123-.871v-2.859c0-.53-.021-.862-.062-.999-.041-.134-.111-.238-.209-.314-.098-.076-.209-.113-.332-.113-.184,0-.361,.062-.535,.189-.174,.125-.362,.346-.563,.66v3.436c0,.457,.035,.742,.104,.857,.086,.155,.265,.25,.535,.287v.247h-3.25v-.247c.269-.027,.461-.113,.576-.259,.078-.102,.115-.397,.115-.885v-6.514c0-.484-.043-.785-.133-.904-.089-.119-.275-.197-.558-.232v-.254h2.611" fill="#fff"/><path d="M36.428,55.175c-.783,.69-1.485,1.035-2.106,1.035-.365,0-.67-.119-.912-.359s-.363-.541-.363-.902c0-.489,.211-.928,.631-1.321,.42-.39,1.338-.91,2.75-1.558v-.645c0-.484-.028-.789-.08-.916-.053-.125-.153-.234-.297-.328-.147-.094-.313-.141-.494-.141-.297,0-.541,.067-.735,.2-.119,.082-.177,.177-.177,.287,0,.095,.064,.215,.191,.357,.174,.196,.262,.387,.262,.569,0,.224-.084,.414-.25,.572-.168,.158-.387,.236-.657,.236-.287,0-.529-.086-.722-.26-.194-.173-.291-.377-.291-.611,0-.328,.131-.643,.39-.941,.26-.299,.623-.53,1.09-.69,.467-.16,.951-.24,1.453-.24,.608,0,1.09,.129,1.444,.389,.353,.257,.584,.537,.689,.839,.063,.192,.096,.633,.096,1.323v2.488c0,.293,.012,.477,.033,.553l.104,.168,.158,.054c.119,0,.24-.086,.363-.253l.205,.164c-.228,.337-.465,.584-.709,.736-.244,.154-.521,.23-.834,.23-.365,0-.65-.086-.855-.257-.207-.17-.332-.43-.377-.778m0-.5v-2.146c-.555,.324-.965,.672-1.235,1.043-.177,.246-.267,.496-.267,.746,0,.211,.076,.396,.226,.556,.114,.123,.274,.184,.479,.184,.228,0,.494-.127,.797-.383Z" fill="#fff"/><path d="M42.598,49.712v.842c.351-.383,.677-.652,.976-.805,.299-.154,.627-.23,.984-.23,.411,0,.755,.096,1.035,.289,.278,.191,.493,.484,.644,.877,.366-.412,.716-.709,1.052-.891,.336-.183,.687-.275,1.053-.275,.443,0,.796,.102,1.058,.305,.264,.205,.447,.463,.549,.775,.103,.313,.155,.813,.155,1.498v2.625c0,.494,.044,.801,.133,.92,.089,.119,.276,.195,.559,.232v.247h-3.312v-.247c.261-.023,.453-.123,.577-.3,.082-.125,.123-.409,.123-.852v-2.756c0-.57-.023-.933-.069-1.09-.046-.154-.117-.269-.216-.345-.098-.076-.213-.114-.345-.114-.198,0-.396,.073-.597,.217-.201,.143-.404,.36-.61,.647v3.441c0,.463,.039,.752,.116,.871,.105,.17,.307,.264,.603,.281v.247h-3.316v-.247c.178-.009,.317-.052,.42-.132s.172-.176,.206-.289c.034-.112,.051-.356,.051-.731v-2.756c0-.58-.023-.943-.069-1.09-.046-.146-.122-.259-.229-.341-.108-.082-.223-.123-.346-.123-.183,0-.349,.046-.5,.142-.215,.143-.443,.385-.685,.727v3.441c0,.453,.045,.752,.132,.895,.09,.144,.276,.23,.559,.257v.247h-3.303v-.247c.27-.027,.461-.113,.575-.259,.078-.102,.117-.399,.117-.893v-3.619c0-.484-.045-.785-.133-.904-.09-.119-.275-.198-.559-.235v-.252h2.612" fill="#fff"/><path d="M53.946,55.47v2.385c0,.33,.026,.555,.078,.672,.053,.119,.134,.207,.245,.261,.109,.055,.324,.083,.643,.083v.253h-3.653v-.253c.283-.01,.493-.09,.631-.241,.09-.105,.136-.377,.136-.816v-6.766c0-.453-.052-.742-.157-.867s-.308-.197-.61-.217v-.252h2.687v.842c.224-.328,.452-.566,.686-.713,.333-.215,.696-.322,1.09-.322,.47,0,.899,.148,1.285,.445,.386,.299,.68,.709,.881,1.231,.201,.523,.301,1.088,.301,1.691,0,.649-.104,1.242-.311,1.777-.208,.538-.51,.948-.905,1.229-.396,.281-.835,.422-1.32,.422-.352,0-.681-.078-.987-.234-.229-.12-.469-.323-.72-.61m0-.693c.393,.558,.814,.838,1.261,.838,.247,0,.45-.131,.61-.391,.238-.385,.357-1.115,.357-2.195,0-1.106-.13-1.862-.391-2.268-.174-.269-.407-.406-.699-.406-.462,0-.841,.334-1.138,1.002v3.42Z" fill="#fff"/><path d="M61.775,49.712v5.078c0,.454,.052,.743,.158,.868,.105,.127,.31,.199,.617,.216v.247h-3.462v-.247c.283-.009,.493-.091,.631-.246,.091-.105,.136-.384,.136-.838v-3.742c0-.453-.052-.742-.157-.867-.105-.125-.308-.197-.61-.217v-.252h2.687m-.96-3.107c.297,0,.548,.105,.754,.312,.206,.209,.309,.459,.309,.752,0,.291-.105,.541-.312,.746-.208,.206-.459,.309-.751,.309-.293,0-.542-.103-.747-.309-.206-.205-.308-.455-.308-.746,0-.293,.102-.543,.308-.752,.205-.207,.454-.312,.747-.312Z" fill="#fff"/><path d="M66.238,49.519c.558,0,1.076,.144,1.557,.432,.479,.289,.844,.697,1.093,1.228,.249,.529,.374,1.109,.374,1.74,0,.911-.231,1.67-.693,2.284-.557,.74-1.328,1.111-2.31,1.111-.964,0-1.707-.338-2.228-1.016-.521-.676-.782-1.459-.782-2.351,0-.918,.267-1.719,.799-2.403,.532-.683,1.263-1.025,2.19-1.025m.028,.486c-.233,0-.433,.09-.6,.266s-.276,.523-.329,1.041c-.053,.519-.079,1.24-.079,2.164,0,.488,.032,.945,.096,1.371,.05,.324,.158,.57,.323,.74,.164,.168,.351,.252,.561,.252,.206,0,.377-.056,.515-.17,.178-.156,.297-.373,.356-.652,.091-.434,.137-1.311,.137-2.633,0-.775-.043-1.31-.13-1.599-.087-.291-.215-.502-.384-.635-.119-.096-.274-.145-.466-.145Z" fill="#fff"/><path d="M72.882,49.712v.828c.329-.355,.644-.615,.946-.777,.302-.162,.626-.244,.974-.244,.415,0,.76,.115,1.035,.346,.273,.232,.457,.519,.548,.861,.073,.26,.11,.762,.11,1.502v2.494c0,.494,.044,.801,.133,.922,.09,.121,.275,.199,.559,.23v.247h-3.243v-.247c.243-.031,.416-.132,.522-.3,.072-.116,.109-.399,.109-.852v-2.851c0-.526-.02-.858-.061-.995-.041-.136-.112-.242-.209-.318-.099-.076-.207-.113-.326-.113-.393,0-.759,.281-1.097,.843v3.434c0,.481,.045,.785,.134,.912,.088,.129,.254,.209,.497,.24v.247h-3.243v-.247c.269-.027,.461-.113,.576-.259,.078-.102,.116-.399,.116-.893v-3.619c0-.484-.044-.785-.133-.904-.09-.119-.275-.198-.559-.235v-.252h2.612" fill="#fff"/><path d="M81.997,49.533l.103,2.187h-.233c-.279-.648-.568-1.092-.867-1.33-.3-.238-.598-.357-.895-.357-.187,0-.347,.064-.48,.189s-.198,.272-.198,.436c0,.123,.045,.242,.136,.355,.147,.188,.556,.51,1.228,.965,.672,.453,1.113,.84,1.326,1.158,.213,.317,.319,.672,.319,1.067,0,.355-.089,.705-.267,1.048-.179,.342-.43,.606-.755,.787-.324,.184-.683,.276-1.076,.276-.306,0-.715-.096-1.227-.289-.137-.049-.231-.074-.281-.074-.15,0-.276,.113-.377,.341h-.226l-.11-2.302h.234c.205,.603,.487,1.054,.846,1.357,.359,.301,.698,.451,1.018,.451,.22,0,.398-.066,.538-.201,.14-.135,.209-.299,.209-.49,0-.219-.068-.408-.205-.569-.138-.16-.444-.402-.919-.726-.699-.484-1.151-.856-1.358-1.111-.301-.375-.452-.789-.452-1.241,0-.494,.17-.941,.511-1.341,.34-.399,.833-.6,1.477-.6,.347,0,.683,.086,1.007,.254,.124,.068,.225,.103,.302,.103l.199-.052c.05-.034,.13-.131,.241-.291h.232" fill="#fff"/><path d="M32.553,66.08c.558,0,1.076,.144,1.556,.431,.481,.289,.844,.697,1.094,1.229,.248,.529,.373,1.109,.373,1.74,0,.91-.23,1.67-.691,2.283-.559,.74-1.328,1.111-2.311,1.111-.965,0-1.707-.337-2.228-1.015-.522-.676-.782-1.459-.782-2.352,0-.918,.266-1.719,.799-2.402,.532-.684,1.262-1.025,2.19-1.025m.027,.486c-.232,0-.432,.09-.6,.265-.166,.176-.275,.524-.328,1.041-.052,.52-.08,1.241-.08,2.165,0,.488,.033,.945,.098,1.371,.049,.324,.156,.57,.322,.74,.164,.168,.352,.252,.561,.252,.207,0,.377-.057,.515-.17,.178-.156,.297-.373,.356-.652,.092-.434,.137-1.311,.137-2.633,0-.776-.043-1.311-.129-1.6-.088-.291-.215-.502-.385-.635-.119-.095-.274-.144-.467-.144Z" fill="#fff"/><path d="M39.404,66.945v4.447c0,.43,.045,.701,.137,.811,.146,.168,.416,.246,.809,.232v.246h-3.778v-.246c.287-.004,.492-.037,.614-.1,.121-.06,.205-.146,.25-.257,.046-.11,.068-.338,.068-.686v-4.447h-.932v-.672h.932v-.475l-.006-.322c0-.658,.24-1.205,.723-1.645,.482-.439,1.134-.658,1.957-.658,.562,0,.978,.106,1.252,.315,.271,.211,.408,.443,.408,.699,0,.207-.086,.385-.254,.535-.17,.15-.395,.227-.672,.227-.238,0-.426-.061-.566-.186-.139-.123-.209-.26-.209-.41,0-.041,.013-.127,.041-.254l.027-.219c0-.097-.027-.168-.082-.213-.072-.068-.162-.103-.268-.103-.132,0-.242,.055-.332,.164-.089,.109-.132,.287-.132,.529l.013,1.199v.817h.946v.672h-.946" fill="#fff"/><path d="M47.588,66.945v4.447c0,.43,.045,.701,.137,.811,.146,.168,.416,.246,.808,.232v.246h-3.777v-.246c.288-.004,.493-.037,.614-.1,.121-.06,.204-.146,.25-.257,.046-.11,.068-.338,.068-.686v-4.447h-.932v-.672h.932v-.475l-.006-.322c0-.658,.241-1.205,.723-1.645,.482-.439,1.134-.658,1.957-.658,.562,0,.979,.106,1.251,.315,.272,.211,.408,.443,.408,.699,0,.207-.084,.385-.253,.535s-.394,.227-.672,.227c-.238,0-.426-.061-.566-.186-.139-.123-.209-.26-.209-.41,0-.041,.014-.127,.041-.254l.028-.219c0-.097-.028-.168-.082-.213-.074-.068-.163-.103-.268-.103-.133,0-.243,.055-.333,.164-.089,.109-.133,.287-.133,.529l.014,1.199v.817h.945v.672h-.945" fill="#fff"/><path d="M55.643,66.273v5.017c0,.489,.045,.793,.137,.915,.091,.121,.277,.199,.555,.23v.246h-2.611v-.855c-.307,.365-.613,.63-.919,.798-.306,.166-.649,.25-1.029,.25-.361,0-.681-.111-.963-.334-.281-.22-.469-.48-.565-.777-.097-.297-.144-.816-.144-1.557v-2.543c0-.484-.044-.785-.134-.904-.089-.119-.276-.197-.559-.234v-.252h2.612v4.379c0,.457,.022,.752,.066,.885,.043,.132,.111,.234,.205,.302,.094,.069,.202,.102,.326,.102,.164,0,.313-.043,.445-.129,.183-.119,.403-.359,.659-.721v-3.428c0-.484-.045-.785-.134-.904-.089-.119-.276-.197-.559-.234v-.252h2.612" fill="#fff"/><path d="M59.88,66.273v.828c.329-.355,.644-.615,.946-.777,.302-.162,.626-.244,.974-.244,.415,0,.761,.115,1.035,.345,.273,.233,.457,.52,.548,.862,.073,.259,.11,.761,.11,1.501v2.495c0,.494,.044,.8,.133,.922,.09,.121,.275,.199,.56,.23v.246h-3.244v-.246c.243-.031,.416-.133,.522-.301,.072-.115,.109-.398,.109-.851v-2.852c0-.525-.02-.857-.061-.994-.041-.137-.112-.242-.209-.318-.099-.077-.207-.114-.326-.114-.393,0-.759,.282-1.097,.844v3.434c0,.48,.045,.785,.134,.912,.089,.129,.255,.209,.497,.24v.246h-3.243v-.246c.269-.027,.461-.113,.576-.26,.078-.101,.116-.398,.116-.892v-3.62c0-.484-.044-.785-.133-.904-.09-.119-.275-.197-.559-.234v-.252h2.612" fill="#fff"/><path d="M66.989,67.74h-.336l-.713-2.641c-.091-.342-.136-.644-.136-.904,0-.283,.098-.526,.298-.723,.198-.199,.437-.299,.715-.299,.321,0,.57,.104,.748,.313,.178,.207,.267,.431,.267,.674,0,.207-.055,.523-.164,.953l-.679,2.627m3.312,0h-.343l-.692-2.633c-.111-.402-.165-.713-.165-.934,0-.263,.101-.498,.305-.699,.203-.199,.447-.301,.73-.301,.324,0,.572,.108,.744,.323,.171,.214,.257,.433,.257,.658,0,.16-.06,.476-.178,.953l-.658,2.633Z" fill="#fff"/></g></svg>