<?xml version="1.0" encoding="UTF-8"?><svg id="a" xmlns="http://www.w3.org/2000/svg" viewBox="0 0 102.573 103.906"><g id="b"><path d="M36.737,30.663v.253c-.305,.041-.541,.131-.705,.268-.229,.192-.59,.715-1.084,1.57l-2.016,3.366v2.248c0,.48,.026,.778,.076,.895,.051,.117,.149,.219,.299,.308,.149,.089,.346,.134,.592,.134h.522v.254h-5.217v-.254h.486c.274,0,.492-.048,.65-.144,.12-.064,.213-.173,.282-.329,.051-.11,.076-.3979,.076-.864v-1.864l-2.188-3.984c-.433-.786-.74-1.249-.918-1.387-.177-.14-.416-.212-.712-.217v-.253h4.455v.253h-.198c-.269,0-.459,.039-.566,.117-.107,.077-.16,.16-.16,.246,0,.165,.181,.579,.547,1.241l1.679,3.078,1.674-2.803c.416-.686,.623-1.141,.623-1.364,0-.124-.058-.227-.178-.309-.156-.114-.441-.183-.857-.206v-.253h2.838" fill="#fcb525"/><path d="M40.335,33.356c.558,0,1.076,.144,1.556,.432,.481,.288,.844,.697,1.094,1.227,.248,.53,.373,1.111,.373,1.741,0,.91-.23,1.671-.691,2.283-.559,.741-1.328,1.111-2.311,1.111-.965,0-1.707-.338-2.228-1.015-.522-.676-.782-1.46-.782-2.352,0-.918,.266-1.718,.799-2.402,.531-.684,1.262-1.025,2.19-1.025m.027,.487c-.232,0-.432,.088-.6,.264-.166,.175-.275,.523-.328,1.0421-.053,.5179-.08,1.24-.08,2.163,0,.489,.033,.946,.098,1.371,.049,.324,.156,.571,.322,.74,.164,.169,.352,.254,.561,.254,.207,0,.377-.058,.515-.172,.178-.155,.297-.372,.356-.65,.092-.435,.136-1.313,.136-2.633,0-.777-.043-1.311-.128-1.601-.088-.29-.215-.502-.385-.634-.119-.096-.274-.144-.467-.144Z" fill="#fcb525"/><path d="M50.565,33.548v5.019c0,.489,.045,.793,.137,.915,.092,.121,.277,.197,.554,.229v.2469h-2.611v-.857c-.306,.366-.611,.632-.918,.799-.306,.167-.648,.25-1.029,.25-.361,0-.682-.111-.963-.332-.281-.222-.469-.482-.564-.779-.098-.2971-.145-.815-.145-1.5551v-2.5439c0-.485-.045-.786-.135-.906-.088-.118-.275-.196-.558-.232v-.254h2.613v4.381c0,.457,.021,.752,.064,.884,.043,.132,.112,.233,.205,.301,.094,.069,.204,.104,.327,.104,.164,0,.312-.044,.445-.131,.184-.118,.402-.358,.658-.72v-3.4269c0-.485-.045-.786-.133-.906-.089-.118-.275-.196-.558-.232v-.254h2.611" fill="#fcb525"/><path d="M60.924,38.306l.211,.164c-.3,.568-.677,.988-1.127,1.266-.451,.276-.929,.414-1.435,.414-.856,0-1.539-.323-2.051-.967-.512-.644-.767-1.419-.767-2.323,0-.873,.232-1.641,.699-2.304,.562-.8,1.336-1.2,2.324-1.2,.662,0,1.189,.167,1.58,.501,.391,.334,.586,.706,.586,1.117,0,.261-.078,.469-.236,.624-.159,.155-.366,.233-.621,.233-.27,0-.493-.0891-.668-.267-.176-.179-.286-.496-.327-.953-.027-.288-.093-.49-.197-.604-.105-.114-.228-.171-.371-.171-.219,0-.406,.116-.562,.35-.237,.352-.356,.891-.356,1.618,0,.603,.096,1.18,.287,1.731,.192,.55,.455,.961,.789,1.23,.25,.197,.549,.295,.891,.295,.225,0,.437-.053,.639-.157,.199-.106,.437-.305,.712-.597" fill="#fcb525"/><path d="M65.462,39.012c-.782,.69-1.483,1.035-2.104,1.035-.367,0-.67-.12-.912-.36-.242-.239-.363-.54-.363-.902,0-.488,.209-.928,.631-1.319,.419-.391,1.335-.91,2.748-1.559v-.645c0-.484-.026-.789-.079-.915-.052-.126-.152-.235-.298-.329-.147-.094-.311-.141-.495-.141-.296,0-.541,.067-.732,.199-.119,.0829-.178,.178-.178,.288,0,.096,.063,.214,.192,.356,.174,.197,.259,.387,.259,.569,0,.224-.083,.415-.25,.573-.166,.158-.384,.236-.654,.236-.289,0-.529-.086-.722-.26-.196-.174-.293-.377-.293-.61,0-.329,.13-.644,.39-.943,.262-.299,.625-.529,1.092-.689,.465-.16,.949-.24,1.453-.24,.608,0,1.088,.13,1.442,.387,.355,.259,.584,.539,.689,.84,.064,.193,.096,.633,.096,1.324v2.488c0,.293,.011,.476,.035,.552l.103,.168,.157,.054c.119,0,.24-.084,.363-.253l.207,.164c-.229,.339-.465,.584-.711,.738-.244,.153-.522,.2289-.832,.2289-.365,0-.652-.086-.857-.257-.206-.172-.333-.43-.377-.778m0-.5v-2.146c-.553,.325-.965,.672-1.235,1.042-.178,.247-.267,.496-.267,.747,0,.211,.076,.395,.226,.555,.115,.123,.276,.186,.481,.186,.228,0,.494-.128,.795-.384Z" fill="#fcb525"/><path d="M71.563,33.548v.829c.328-.356,.645-.615,.945-.777,.303-.162,.627-.244,.975-.244,.414,0,.76,.116,1.035,.346,.274,.231,.457,.518,.547,.861,.074,.26,.111,.76,.111,1.501v2.496c0,.493,.043,.8,.133,.922,.09,.121,.276,.197,.559,.229v.2469h-3.242v-.2469c.242-.032,.416-.133,.521-.302,.072-.114,.109-.397,.109-.849v-2.853c0-.525-.021-.856-.062-.994-.041-.137-.111-.243-.209-.318-.098-.076-.207-.114-.326-.114-.393,0-.758,.282-1.096,.8441v3.435c0,.479,.045,.783,.133,.9109,.09,.1281,.256,.208,.498,.2401v.2469h-3.244v-.2469c.269-.027,.463-.114,.576-.261,.078-.1,.117-.397,.117-.89v-3.62c0-.485-.045-.786-.133-.906-.089-.118-.275-.196-.56-.232v-.254h2.613" fill="#fcb525"/><path d="M15.897,46.742v3.709c.352-.37,.674-.631,.967-.785,.293-.153,.598-.23,.912-.23,.402,0,.746,.1151,1.031,.343,.285,.229,.477,.497,.571,.806,.093,.308,.14,.829,.14,1.559v2.502c0,.49,.045,.795,.137,.916,.092,.121,.275,.198,.555,.23v.247h-3.25v-.247c.228-.032,.4-.124,.515-.275,.082-.119,.123-.409,.123-.871v-2.858c0-.53-.021-.862-.062-.997-.041-.135-.112-.24-.209-.316-.098-.075-.209-.113-.332-.113-.184,0-.362,.064-.535,.189-.174,.126-.362,.345-.563,.662v3.433c0,.457,.035,.743,.104,.858,.086,.155,.265,.252,.535,.288v.247h-3.25v-.247c.269-.029,.461-.115,.576-.261,.078-.101,.115-.395,.115-.885v-6.511c0-.485-.043-.788-.133-.906-.089-.119-.275-.196-.558-.233v-.254h2.611" fill="#fcb525"/><path d="M24.626,55.091c-.784,.691-1.485,1.036-2.106,1.036-.365,0-.67-.12-.912-.36-.242-.241-.363-.54-.363-.902,0-.489,.211-.928,.631-1.319s1.338-.91,2.75-1.561v-.643c0-.4839-.028-.79-.08-.915-.053-.126-.153-.236-.297-.33-.147-.093-.313-.14-.494-.14-.297,0-.541,.066-.735,.198-.119,.082-.178,.179-.178,.288,0,.097,.065,.215,.192,.357,.174,.197,.262,.387,.262,.569,0,.224-.084,.415-.25,.573-.168,.157-.387,.236-.657,.236-.287,0-.529-.087-.722-.261-.194-.174-.291-.377-.291-.609,0-.33,.13-.644,.39-.944,.26-.298,.623-.528,1.09-.688,.467-.16,.951-.2401,1.453-.2401,.608,0,1.09,.13,1.444,.387,.353,.258,.584,.539,.689,.84,.063,.192,.096,.633,.096,1.322v2.49c0,.2921,.011,.476,.033,.551l.103,.168,.159,.055c.119,0,.24-.084,.363-.254l.205,.165c-.228,.3391-.465,.584-.709,.738-.244,.152-.521,.229-.834,.229-.365,0-.65-.086-.855-.257-.207-.172-.332-.431-.377-.779m0-.5v-2.146c-.555,.326-.965,.672-1.235,1.043-.177,.246-.267,.496-.267,.746,0,.21,.076,.396,.226,.556,.114,.123,.274,.186,.479,.186,.228,0,.494-.129,.797-.385Z" fill="#fcb525"/><path d="M31.028,56.23l-2.158-4.971c-.262-.597-.465-.977-.612-1.137-.105-.119-.259-.199-.466-.2401v-.254h3.408v.254c-.215,0-.361,.039-.44,.117-.109,.1-.164,.219-.164,.356,0,.169,.1,.486,.301,.953l1.057,2.406,.844-2.078c.242-.594,.363-1.013,.363-1.26,0-.142-.053-.257-.155-.347-.103-.089-.285-.138-.544-.147v-.254h2.097v.254c-.201,.028-.365,.103-.494,.226-.127,.124-.32,.487-.576,1.091l-2.139,5.031h-.322" fill="#fcb525"/><path d="M40.528,52.603h-3.516c.041,.851,.268,1.522,.678,2.016,.316,.379,.695,.569,1.139,.569,.273,0,.523-.077,.746-.229,.224-.154,.465-.429,.721-.827l.232,.151c-.346,.709-.73,1.211-1.15,1.506-.422,.293-.909,.441-1.461,.441-.952,0-1.67-.365-2.161-1.097-.392-.59-.587-1.321-.587-2.194,0-1.068,.289-1.92,.867-2.553s1.254-.95,2.031-.95c.65,0,1.213,.267,1.689,.799,.479,.532,.737,1.322,.772,2.368m-1.686-.459c0-.736-.041-1.24-.121-1.516-.078-.273-.203-.481-.373-.623-.095-.082-.222-.123-.383-.123-.238,0-.433,.116-.584,.35-.269,.406-.404,.964-.404,1.672v.24h1.865Z" fill="#fcb525"/><path d="M48.159,51.829v2.577c0,.504,.031,.8199,.092,.95,.062,.13,.172,.234,.33,.312,.156,.078,.445,.117,.867,.117v.254h-4.725v-.254c.43,0,.721-.04,.875-.12,.153-.08,.26-.185,.323-.312,.06-.129,.091-.443,.091-.947v-6.032c0-.503-.031-.82-.091-.95-.063-.129-.17-.2339-.327-.311-.156-.078-.445-.117-.871-.117v-.254h4.053c1.334,0,2.291,.238,2.871,.713,.582,.476,.871,1.07,.871,1.783,0,.603-.187,1.119-.562,1.549s-.891,.722-1.549,.877c-.443,.11-1.193,.165-2.248,.165m0-4.552v4.018c.15,.008,.264,.013,.342,.013,.558,0,.988-.166,1.289-.498,.302-.33,.453-.843,.453-1.538,0-.69-.151-1.195-.453-1.515-.301-.32-.752-.48-1.35-.48h-.281Z" fill="#fcb525"/><path d="M58.776,52.603h-3.518c.041,.851,.268,1.522,.68,2.016,.315,.379,.693,.569,1.137,.569,.275,0,.523-.077,.748-.229,.225-.154,.463-.429,.721-.827l.232,.151c-.348,.709-.732,1.211-1.152,1.506-.42,.293-.907,.441-1.459,.441-.951,0-1.672-.365-2.16-1.097-.393-.59-.59-1.321-.59-2.194,0-1.068,.289-1.92,.867-2.553,.578-.633,1.256-.95,2.033-.95,.649,0,1.211,.267,1.69,.799,.476,.532,.734,1.322,.771,2.368m-1.687-.459c0-.736-.04-1.24-.12-1.516-.08-.273-.205-.481-.373-.623-.095-.082-.224-.123-.384-.123-.239,0-.432,.116-.582,.35-.27,.406-.405,.964-.405,1.672v.24h1.864Z" fill="#fcb525"/><path d="M62.239,49.628v1.453c.424-.662,.797-1.102,1.117-1.32,.32-.217,.629-.325,.926-.325,.256,0,.461,.079,.613,.237,.153,.157,.231,.38,.231,.668,0,.307-.077,.544-.225,.713-.148,.1689-.326,.254-.537,.254-.242,0-.453-.078-.631-.234-.178-.155-.283-.242-.314-.26l-.159-.041c-.132,0-.257,.05-.377,.15-.187,.156-.33,.377-.425,.666-.147,.443-.219,.932-.219,1.467v1.473l.006,.384c0,.261,.017,.428,.049,.5,.054,.124,.134,.215,.244,.272,.105,.056,.287,.091,.545,.106v.2469h-3.463v-.2469c.279-.022,.467-.099,.566-.229,.098-.131,.147-.475,.147-1.033v-3.544c0-.365-.018-.599-.055-.699-.045-.128-.111-.221-.199-.281-.086-.06-.24-.101-.459-.123v-.254h2.619" fill="#fcb525"/><path d="M68.415,46.742v6.115l1.488-1.46c.307-.2971,.496-.512,.572-.644,.076-.132,.114-.261,.114-.384s-.051-.227-.151-.309c-.101-.082-.297-.141-.59-.177v-.254h2.873v.254c-.275,.013-.515,.078-.72,.195-.205,.116-.608,.467-1.207,1.052l-.7,.685,1.508,2.208c.61,.896,.969,1.399,1.084,1.508,.154,.155,.352,.242,.59,.261v.247h-3.312v-.247c.146,0,.253-.029,.32-.083l.099-.178c0-.105-.097-.299-.289-.582l-1.267-1.858-.412,.404v1.151c0,.49,.047,.795,.136,.916,.092,.121,.28,.198,.563,.23v.247h-3.311v-.247c.27-.029,.461-.115,.577-.261,.078-.101,.115-.395,.115-.885v-6.511c0-.485-.043-.788-.133-.906-.09-.119-.275-.196-.559-.233v-.254h2.612" fill="#fcb525"/><path d="M75.881,49.628v5.081c0,.452,.053,.741,.159,.867,.105,.125,.31,.197,.617,.216v.247h-3.463v-.247c.283-.009,.494-.092,.631-.248,.092-.105,.137-.383,.137-.835v-3.745c0-.451-.053-.74-.157-.867-.105-.125-.308-.197-.611-.215v-.254h2.687m-.958-3.105c.296,0,.546,.104,.753,.312,.205,.208,.309,.458,.309,.75,0,.293-.105,.542-.312,.748-.208,.206-.459,.308-.75,.308-.293,0-.543-.102-.749-.308-.205-.206-.308-.455-.308-.748,0-.292,.103-.542,.308-.75,.206-.208,.456-.312,.749-.312Z" fill="#fcb525"/><path d="M79.942,49.628v.829c.328-.356,.645-.616,.945-.778,.303-.162,.627-.243,.975-.243,.414,0,.76,.116,1.035,.346,.274,.231,.457,.518,.547,.861,.074,.26,.111,.76,.111,1.501v2.496c0,.493,.043,.8,.133,.922,.09,.121,.276,.197,.559,.229v.2469h-3.242v-.2469c.242-.032,.416-.133,.521-.302,.072-.114,.109-.398,.109-.849v-2.853c0-.525-.021-.856-.062-.994-.041-.137-.111-.243-.209-.318s-.207-.114-.326-.114c-.393,0-.758,.282-1.096,.843v3.436c0,.479,.045,.783,.133,.9109,.09,.1281,.256,.208,.498,.2401v.2469h-3.244v-.2469c.269-.028,.463-.114,.576-.261,.078-.1,.117-.397,.117-.89v-3.62c0-.485-.045-.787-.133-.906-.09-.119-.275-.196-.56-.232v-.254h2.613" fill="#fcb525"/><path d="M89.182,49.451l.102,2.186h-.233c-.279-.649-.568-1.092-.867-1.33-.299-.237-.597-.356-.894-.356-.188,0-.348,.062-.481,.188-.133,.126-.197,.271-.197,.435,0,.124,.045,.242,.137,.357,.146,.188,.554,.508,1.226,.963s1.114,.841,1.326,1.159c.213,.318,.319,.673,.319,1.066,0,.357-.088,.706-.266,1.049-.18,.343-.43,.605-.756,.789-.324,.181-.681,.273-1.076,.273-.305,0-.715-.095-1.226-.288-.137-.05-.231-.075-.282-.075-.15,0-.275,.114-.377,.343h-.226l-.11-2.304h.235c.205,.604,.486,1.057,.845,1.357,.36,.302,.698,.454,1.018,.454,.221,0,.399-.069,.539-.204,.139-.134,.209-.297,.209-.49,0-.218-.068-.408-.205-.568-.139-.16-.443-.402-.92-.7271-.699-.4839-1.15-.855-1.357-1.111-.301-.374-.451-.788-.451-1.24,0-.494,.169-.941,.509-1.34,.34-.4,.834-.601,1.477-.601,.348,0,.683,.085,1.008,.254,.125,.069,.224,.103,.302,.103l.2-.051c.048-.035,.129-.132,.24-.291h.232" fill="#fcb525"/><path d="M38.35,63.422v3.531c.539-.557,1.129-.836,1.77-.836,.437,0,.851,.129,1.24,.386,.389,.259,.691,.625,.912,1.101,.219,.476,.328,1.024,.328,1.646,0,.699-.138,1.334-.418,1.906-.279,.57-.65,1.006-1.117,1.305-.467,.299-.998,.449-1.598,.449-.347,0-.656-.055-.925-.164-.27-.11-.534-.288-.795-.535l-1.063,.693h-.232v-8.152c0-.3701-.016-.598-.049-.685-.045-.1281-.117-.224-.215-.2841-.099-.063-.264-.098-.498-.108v-.253h2.66m0,4.141v2.853c0,.58,.014,.95,.041,1.1089,.045,.269,.157,.488,.33,.655,.174,.167,.395,.25,.664,.25,.233,0,.434-.065,.6-.198,.168-.133,.307-.396,.418-.789,.113-.393,.168-1.102,.168-2.125,0-.982-.123-1.656-.369-2.023-.18-.264-.418-.397-.721-.397-.392,0-.769,.222-1.131,.665Z" fill="#fcb525"/><path d="M47.215,71.772c-.783,.69-1.484,1.036-2.105,1.036-.365,0-.67-.121-.912-.361-.242-.239-.363-.539-.363-.901,0-.489,.211-.929,.63-1.32,.42-.39,1.338-.91,2.75-1.559v-.644c0-.4839-.027-.79-.08-.916-.052-.125-.152-.235-.296-.329-.147-.093-.313-.14-.495-.14-.296,0-.541,.066-.734,.198-.119,.082-.178,.179-.178,.289,0,.095,.065,.214,.192,.355,.174,.197,.261,.387,.261,.57,0,.223-.084,.414-.25,.573-.168,.157-.386,.236-.656,.236-.287,0-.529-.087-.723-.261-.193-.174-.291-.377-.291-.61,0-.329,.131-.643,.391-.943,.26-.299,.623-.528,1.09-.688,.467-.16,.951-.2401,1.453-.2401,.607,0,1.09,.129,1.443,.386,.354,.259,.584,.54,.69,.84,.062,.193,.096,.633,.096,1.324v2.489c0,.2921,.011,.476,.033,.551l.103,.168,.159,.054c.119,0,.24-.084,.363-.253l.205,.165c-.229,.338-.465,.584-.709,.7371-.244,.153-.522,.23-.834,.23-.365,0-.65-.086-.856-.258-.207-.172-.332-.43-.377-.778m0-.5v-2.145c-.554,.324-.964,.671-1.234,1.041-.178,.248-.267,.496-.267,.748,0,.21,.076,.394,.226,.554,.113,.123,.274,.186,.479,.186,.228,0,.494-.128,.796-.384Z" fill="#fcb525"/><path d="M55.956,71.066l.213,.164c-.303,.567-.678,.988-1.129,1.266-.45,.276-.928,.414-1.436,.414-.853,0-1.537-.323-2.049-.967-.511-.644-.767-1.418-.767-2.323,0-.873,.232-1.641,.699-2.304,.561-.799,1.336-1.199,2.322-1.199,.664,0,1.19,.166,1.58,.5,.393,.334,.588,.707,.588,1.117,0,.261-.08,.469-.236,.625-.158,.154-.365,.232-.621,.232-.27,0-.492-.0891-.668-.267s-.285-.496-.326-.953c-.028-.287-.094-.489-.2-.604-.105-.113-.228-.171-.369-.171-.22,0-.408,.116-.562,.35-.239,.352-.358,.891-.358,1.618,0,.604,.096,1.18,.289,1.73,.192,.551,.454,.961,.788,1.231,.251,.197,.548,.295,.892,.295,.223,0,.436-.053,.637-.157,.201-.105,.439-.304,.713-.597" fill="#fcb525"/><path d="M59.561,63.422v6.115l1.488-1.46c.307-.2971,.497-.511,.573-.644,.076-.133,.113-.261,.113-.385,0-.123-.051-.226-.15-.309-.102-.082-.297-.14-.59-.177v-.254h2.873v.254c-.276,.013-.516,.079-.721,.195-.205,.117-.607,.467-1.207,1.053l-.699,.686,1.508,2.207c.609,.896,.968,1.398,1.084,1.508,.154,.156,.351,.242,.59,.261v.246h-3.313v-.246c.146,0,.254-.028,.32-.083l.1-.178c0-.105-.098-.299-.289-.583l-1.268-1.857-.412,.404v1.152c0,.489,.047,.7939,.137,.915,.092,.121,.279,.197,.562,.23v.246h-3.31v-.246c.269-.028,.461-.115,.576-.261,.078-.1,.115-.395,.115-.884v-6.513c0-.485-.043-.787-.133-.905-.089-.119-.275-.197-.558-.234v-.253h2.611" fill="#fcb525"/><path d="M65.809,70.607c.321,0,.59,.111,.813,.336,.22,.224,.332,.494,.332,.809s-.112,.584-.336,.805c-.225,.222-.494,.333-.809,.333-.316,0-.584-.111-.806-.333-.221-.221-.332-.49-.332-.805s.111-.585,.332-.809c.222-.225,.49-.336,.806-.336" fill="#fcb525"/><path d="M51.786,103.656v.25c14.479,0,27.18-5.537,36.257-14.698,9.078-9.16,14.53-21.943,14.53-36.421s-5.367-27.674-14.358-37.251C79.224,5.958,66.604,0,52.12,0S24.604,5.872,15.196,15.364C5.787,24.856,0,37.97,0,52.453c-.001,14.481,5.704,27.348,15.03,36.59,9.327,9.243,22.276,14.863,36.756,14.863v-.5c-28.698-.003-51.284-22.258-51.286-50.953C.5,23.758,23.428,.501,52.12,.5c28.684,.001,49.948,23.578,49.953,52.287-.006,28.7-21.59,50.614-50.287,50.619v.25" fill="#231f20"/></g></svg>