<?xml version="1.0" encoding="UTF-8"?><svg id="a" xmlns="http://www.w3.org/2000/svg" xmlns:xlink="http://www.w3.org/1999/xlink" viewBox="0 0 102.073 103.405"><defs><clipPath id="c"><path d="M51.536,103.405c28.83,0,50.537-22.039,50.537-50.869S80.7,0,51.87,0,0,23.372,0,52.202s22.706,51.203,51.536,51.203" fill="none"/></clipPath></defs><g id="b"><path d="M51.536,103.405c28.83,0,50.537-22.039,50.537-50.869S80.7,0,51.87,0,0,23.372,0,52.202s22.706,51.203,51.536,51.203" fill="#42b4e4"/><g clip-path="url(#c)"><path d="M51.035,113.927c34.367,0,62.227-27.859,62.227-62.224S85.402-10.523,51.035-10.523-11.189,17.3371-11.189,51.703s27.86,62.224,62.224,62.224" fill="#42b4e4"/><path d="M51.035,113.927v.25c34.505,0,62.477-27.971,62.477-62.474S85.54-10.773,51.035-10.773-11.439,17.198-11.439,51.703s27.972,62.474,62.474,62.474v-.5c-17.114,0-32.606-6.936-43.822-18.152S-10.939,68.817-10.939,51.703-4.003,19.096,7.213,7.879C18.429-3.336,33.921-10.273,51.035-10.273S83.643-3.336,94.859,7.879c11.216,11.217,18.153,26.709,18.153,43.824s-6.937,32.606-18.153,43.822-26.709,18.152-43.824,18.152v.25" fill="#231f20"/></g><path d="M41.554,47.053v.254c-.174,.014-.32,.063-.44,.145-.118,.082-.223,.207-.315,.377-.027,.054-.171,.408-.432,1.062l-2.913,7.672h-.267l-2.304-5.992-2.536,5.992h-.254l-3.058-7.59c-.31-.763-.527-1.224-.651-1.384-.123-.161-.331-.254-.624-.282v-.254h4.031v.254c-.324,.0099-.54,.059-.647,.149-.108,.088-.161,.199-.161,.332,0,.174,.111,.541,.336,1.103l1.823,4.512,1.46-3.525-.384-.987c-.21-.539-.372-.898-.486-1.08-.115-.18-.247-.308-.395-.387-.148-.0779-.366-.1169-.654-.1169v-.254h4.504v.254c-.316,.006-.542,.03-.679,.076-.096,.032-.172,.086-.227,.161-.054,.076-.082,.162-.082,.257,0,.106,.103,.428,.309,.967l1.693,4.401,1.515-3.983c.16-.412,.259-.693,.295-.844,.037-.15,.055-.289,.055-.418,0-.187-.064-.334-.192-.441-.128-.107-.373-.166-.733-.176v-.254h2.413" fill="#fff"/><path d="M44.769,47.053v3.709c.351-.369,.674-.631,.966-.785,.292-.152,.597-.228,.913-.228,.401,0,.745,.113,1.031,.341,.285,.229,.475,.499,.569,.807,.094,.309,.141,.828,.141,1.559v2.502c0,.49,.045,.795,.137,.916,.091,.121,.276,.197,.555,.23v.246h-3.25v-.246c.229-.033,.401-.125,.515-.275,.082-.119,.123-.408,.123-.871v-2.858c0-.531-.021-.863-.062-.998-.041-.135-.111-.24-.209-.314-.098-.076-.209-.114-.333-.114-.182,0-.361,.063-.534,.188-.174,.127-.361,.346-.562,.662v3.434c0,.457,.034,.744,.102,.857,.087,.156,.266,.252,.535,.289v.246h-3.25v-.246c.27-.0291,.462-.1151,.577-.262,.078-.099,.116-.394,.116-.884v-6.512c0-.484-.044-.787-.133-.904-.09-.119-.275-.198-.56-.235v-.254h2.613" fill="#fff"/><path d="M55.388,52.915h-3.517c.041,.851,.268,1.523,.679,2.015,.315,.381,.694,.571,1.138,.571,.274,0,.523-.078,.747-.231,.224-.152,.464-.428,.72-.826l.233,.15c-.347,.709-.732,1.211-1.152,1.506-.42,.295-.907,.442-1.459,.442-.952,0-1.671-.366-2.161-1.096-.392-.59-.589-1.322-.589-2.195,0-1.069,.29-1.92,.868-2.553s1.255-.949,2.032-.949c.649,0,1.212,.265,1.689,.799,.478,.531,.736,1.322,.772,2.367m-1.687-.459c0-.737-.04-1.241-.12-1.516-.079-.273-.204-.48-.373-.623-.096-.082-.223-.123-.384-.123-.238,0-.432,.117-.583,.35-.269,.406-.404,.964-.404,1.671v.241h1.864Z" fill="#fff"/><path d="M58.85,49.94v1.453c.425-.662,.798-1.101,1.117-1.32,.32-.217,.629-.324,.926-.324,.256,0,.461,.078,.613,.236,.153,.158,.23,.381,.23,.668,0,.307-.075,.545-.223,.713-.149,.17-.327,.254-.538,.254-.242,0-.452-.078-.631-.233-.178-.156-.283-.242-.315-.261l-.158-.041c-.133,0-.258,.05-.377,.15-.187,.156-.329,.377-.425,.666-.146,.443-.219,.932-.219,1.467v1.474l.007,.383c0,.262,.016,.428,.047,.5,.055,.125,.136,.215,.245,.272,.106,.056,.288,.092,.545,.107v.246h-3.463v-.246c.279-.023,.467-.099,.566-.23,.098-.131,.147-.475,.147-1.032v-3.544c0-.366-.018-.6-.055-.7-.045-.127-.112-.22-.198-.281-.087-.059-.241-.1-.46-.123v-.254h2.619" fill="#fff"/><path d="M67.851,52.915h-3.517c.041,.851,.268,1.523,.679,2.015,.315,.381,.694,.571,1.138,.571,.274,0,.523-.078,.747-.231,.224-.152,.463-.428,.72-.826l.233,.15c-.347,.709-.732,1.211-1.152,1.506-.421,.295-.907,.442-1.46,.442-.951,0-1.67-.366-2.16-1.096-.392-.59-.589-1.322-.589-2.195,0-1.069,.289-1.92,.868-2.553,.578-.633,1.254-.949,2.032-.949,.649,0,1.212,.265,1.689,.799,.478,.531,.736,1.322,.772,2.367m-1.687-.459c0-.737-.04-1.241-.12-1.516-.079-.273-.204-.48-.373-.623-.096-.082-.224-.123-.384-.123-.238,0-.432,.117-.583,.35-.269,.406-.404,.964-.404,1.671v.241h1.864Z" fill="#fff"/><path d="M71.414,53.319h-.281c-.01-.506,.015-.885,.072-1.137,.057-.252,.205-.597,.446-1.039,.24-.441,.397-.795,.472-1.062,.076-.268,.113-.598,.113-.991,0-.607-.119-1.056-.356-1.343-.237-.289-.519-.432-.843-.432-.247,0-.455,.066-.624,.197-.128,.1021-.192,.207-.192,.317,0,.072,.044,.187,.131,.342,.196,.353,.294,.652,.294,.898,0,.225-.077,.412-.23,.562-.153,.151-.344,.227-.572,.227-.256,0-.471-.09-.645-.271-.173-.18-.259-.418-.259-.717,0-.539,.232-1.012,.699-1.418,.466-.406,1.117-.61,1.953-.61,.887,0,1.562,.211,2.026,.633,.464,.424,.696,.934,.696,1.533,0,.434-.12,.834-.357,1.204-.237,.367-.697,.775-1.378,1.222-.457,.303-.758,.571-.901,.807-.144,.234-.233,.594-.264,1.078m-.076,1.002c.307,0,.567,.107,.782,.322,.215,.215,.323,.475,.323,.781,0,.3069-.108,.569-.323,.7859-.215,.216-.475,.326-.782,.326-.306,0-.566-.11-.781-.326-.215-.217-.322-.479-.322-.7859,0-.306,.107-.566,.322-.781,.215-.215,.475-.322,.781-.322Z" fill="#fff"/></g></svg>