<?xml version="1.0" encoding="UTF-8"?><svg id="a" xmlns="http://www.w3.org/2000/svg" xmlns:xlink="http://www.w3.org/1999/xlink" viewBox="0 0 102.074 103.407"><defs><clipPath id="c"><path d="M51.537,103.407c28.83,0,50.537-22.039,50.537-50.869S80.701,0,51.871,0,0,23.373,0,52.203s22.706,51.204,51.537,51.204" fill="none"/></clipPath></defs><g id="b"><g clip-path="url(#c)"><path d="M51.036,113.928c34.367,0,62.227-27.859,62.227-62.224S85.403-10.522,51.036-10.522-11.188,17.3381-11.188,51.704s27.859,62.224,62.224,62.224" fill="#e12726"/><path d="M51.036,113.928v.25c34.505,0,62.477-27.971,62.477-62.474S85.541-10.771,51.036-10.772c-34.503,.001-62.474,27.972-62.474,62.476s27.971,62.474,62.474,62.474v-.5c-17.114,0-32.606-6.936-43.822-18.152S-10.938,68.818-10.938,51.704-4.002,19.097,7.214,7.881,33.922-10.271,51.036-10.272c17.115,.001,32.608,6.937,43.824,18.153s18.153,26.708,18.153,43.823-6.937,32.606-18.153,43.822-26.709,18.152-43.824,18.152v.25" fill="#231f20"/></g><path d="M11.349,50.455c.881,.207,1.502,.456,1.857,.748,.512,.416,.768,.955,.768,1.618,0,.699-.281,1.277-.844,1.734-.689,.554-1.693,.829-3.008,.829H5.398v-.253c.429,0,.72-.04,.875-.12,.152-.08,.259-.183,.322-.312,.06-.127,.092-.444,.092-.946v-6.033c0-.502-.032-.818-.092-.949-.063-.131-.172-.234-.326-.313-.157-.077-.446-.116-.871-.116v-.253h4.457c1.064,0,1.818,.094,2.261,.283,.444,.191,.793,.474,1.049,.851,.256,.378,.385,.778,.385,1.203,0,.448-.164,.847-.488,1.196-.325,.35-.895,.627-1.713,.833m-2.496,.35v2.983l-.006,.342c0,.246,.062,.434,.187,.559,.127,.125,.313,.188,.559,.188,.365,0,.703-.081,1.012-.243,.308-.162,.545-.3979,.709-.707,.166-.307,.248-.651,.248-1.031,0-.434-.102-.824-.303-1.168-.201-.3459-.477-.587-.828-.725-.354-.136-.879-.203-1.578-.198Zm0-.534c.648,0,1.129-.073,1.437-.22,.309-.1461,.545-.3521,.709-.617,.164-.265,.246-.603,.246-1.015,0-.411-.08-.748-.242-1.011-.162-.262-.394-.462-.697-.6-.301-.137-.785-.203-1.453-.198v3.661Z" fill="#fff"/><path d="M17.443,48.975v5.079c0,.453,.052,.742,.158,.867,.105,.127,.31,.199,.617,.217v.246h-3.463v-.246c.283-.01,.494-.092,.631-.247,.092-.1039,.137-.384,.137-.837v-3.742c0-.453-.053-.742-.157-.867-.105-.126-.308-.198-.611-.217v-.253h2.688m-.959-3.106c.296,0,.546,.104,.753,.312,.206,.208,.309,.459,.309,.751s-.105,.542-.312,.747-.459,.309-.75,.309c-.293,0-.543-.104-.748-.309-.206-.205-.309-.455-.309-.747s.103-.543,.309-.751c.205-.208,.455-.312,.748-.312Z" fill="#fff"/><path d="M22.997,49.05h2.16v.754h-1.228c.224,.225,.381,.428,.467,.61,.109,.248,.164,.505,.164,.775,0,.457-.127,.853-.381,1.189-.252,.336-.598,.6-1.035,.789-.436,.19-.823,.285-1.162,.285-.028,0-.301-.012-.823-.035-.205,0-.377,.068-.517,.203-.139,.134-.209,.295-.209,.483,0,.164,.062,.299,.189,.404,.125,.106,.33,.158,.614,.158l1.185-.013c.961,0,1.621,.104,1.981,.314,.517,.293,.775,.742,.775,1.351,0,.388-.119,.741-.356,1.059-.238,.318-.55,.5519-.939,.704-.59,.222-1.27,.335-2.037,.335-.576,0-1.102-.056-1.576-.168-.475-.113-.817-.267-1.022-.466-.205-.2-.308-.409-.308-.627,0-.211,.078-.399,.236-.567,.158-.166,.451-.306,.881-.421-.594-.293-.891-.7-.891-1.22,0-.316,.121-.621,.363-.919,.243-.297,.625-.555,1.153-.774-.613-.224-1.057-.519-1.33-.884-.276-.366-.412-.789-.412-1.269,0-.626,.255-1.169,.767-1.6281,.512-.459,1.17-.689,1.975-.689,.426,0,.863,.089,1.316,.267m-1.59,7.281c-.466,0-.775,.039-.925,.116-.262,.142-.391,.334-.391,.576,0,.233,.135,.445,.404,.635,.27,.189,.778,.284,1.522,.284,.635,0,1.135-.085,1.498-.254s.545-.407,.545-.713c0-.114-.035-.21-.104-.288-.123-.137-.308-.231-.558-.281-.248-.05-.912-.075-1.991-.075Zm.405-7.123c-.266,0-.491,.133-.672,.401-.184,.267-.276,.822-.276,1.662,0,.682,.092,1.148,.272,1.402,.18,.254,.394,.381,.641,.381,.275,0,.503-.126,.685-.377,.184-.252,.275-.74,.275-1.467,0-.818-.103-1.377-.308-1.673-.147-.219-.354-.329-.617-.329Z" fill="#fff"/><path d="M32.698,51.148v2.605c0,.502,.03,.819,.092,.95,.063,.13,.17,.234,.326,.312,.155,.077,.446,.116,.871,.116v.253h-4.757v-.253c.429,0,.72-.04,.873-.12,.154-.08,.261-.183,.322-.312,.062-.127,.094-.444,.094-.946v-6.033c0-.502-.032-.818-.094-.949-.061-.131-.17-.234-.326-.313-.155-.077-.446-.116-.869-.116v-.253h4.318c1.125,0,1.947,.077,2.469,.233,.519,.155,.945,.442,1.273,.86,.33,.419,.494,.908,.494,1.471,0,.685-.246,1.252-.74,1.7-.314,.283-.756,.496-1.322,.637l2.234,3.147c.293,.407,.5,.66,.623,.761,.188,.141,.405,.219,.653,.233v.253h-2.928l-2.996-4.236h-.61m0-4.559v4.073h.391c.635,0,1.109-.059,1.426-.176,.314-.115,.562-.326,.744-.6299,.18-.304,.269-.7,.269-1.19,0-.708-.166-1.231-.496-1.569-.332-.339-.865-.508-1.601-.508h-.733Z" fill="#fff"/><path d="M44.927,51.951h-3.518c.041,.849,.268,1.521,.68,2.015,.314,.379,.693,.569,1.137,.569,.275,0,.523-.077,.748-.23,.224-.153,.463-.429,.72-.826l.233,.151c-.348,.708-.733,1.209-1.152,1.504-.42,.295-.907,.443-1.459,.443-.952,0-1.672-.367-2.161-1.097-.392-.59-.589-1.32-.589-2.193,0-1.071,.289-1.921,.867-2.555,.578-.6331,1.256-.949,2.033-.949,.648,0,1.211,.266,1.689,.798,.477,.534,.735,1.323,.772,2.37m-1.688-.46c0-.736-.039-1.242-.119-1.515-.08-.274-.205-.482-.373-.624-.095-.083-.224-.124-.385-.124-.238,0-.431,.117-.582,.35-.269,.407-.404,.9641-.404,1.673v.24h1.863Z" fill="#fff"/><path d="M51.96,46.089v7.376c0,.498,.014,.793,.041,.884,.037,.151,.106,.264,.209,.336,.104,.074,.283,.119,.539,.138v.225l-2.709,.5291v-1.015c-.324,.393-.613,.66-.867,.803-.254,.14-.541,.212-.859,.212-.819,0-1.465-.367-1.942-1.097-.383-.594-.574-1.323-.574-2.188,0-.689,.117-1.307,.355-1.853,.239-.5471,.563-.959,.977-1.238s.859-.418,1.334-.418c.307,0,.578,.059,.816,.178,.237,.119,.491,.327,.76,.624v-1.933c0-.489-.019-.783-.06-.885-.055-.133-.139-.23-.248-.295-.11-.063-.315-.096-.618-.096v-.287h2.846m-1.92,4.346c-.338-.648-.752-.974-1.24-.974-.17,0-.309,.046-.418,.138-.17,.141-.309,.391-.416,.747-.107,.357-.16,.902-.16,1.638,0,.809,.058,1.408,.178,1.797,.119,.388,.281,.67,.486,.843,.105,.086,.25,.129,.433,.129,.401,0,.782-.314,1.137-.945v-3.373Z" fill="#fff"/><path d="M70.491,46.089v.253c-.173,.014-.32,.062-.439,.144-.119,.083-.225,.209-.316,.377-.028,.055-.17,.41-.432,1.062l-2.912,7.672h-.268l-2.305-5.992-2.535,5.992h-.254l-3.058-7.589c-.311-.762-.528-1.224-.651-1.385-.123-.16-.332-.253-.625-.281v-.253h4.032v.253c-.325,.009-.539,.059-.647,.148-.107,.09-.162,.2-.162,.332,0,.174,.111,.5421,.336,1.103l1.824,4.512,1.459-3.524-.383-.988c-.211-.539-.373-.898-.486-1.079-.115-.181-.246-.309-.394-.388-.149-.077-.368-.116-.655-.116v-.253h4.504v.253c-.316,.005-.543,.03-.68,.075-.095,.033-.171,.086-.226,.163-.055,.074-.082,.16-.082,.2549,0,.106,.103,.428,.308,.967l1.694,4.402,1.515-3.984c.161-.41,.258-.691,.295-.843,.038-.151,.055-.29,.055-.418,0-.187-.064-.335-.191-.442-.129-.107-.373-.166-.735-.175v-.253h2.414" fill="#fff"/><path d="M73.552,46.089v3.708c.351-.37,.674-.632,.967-.784,.291-.154,.595-.23,.912-.23,.4,0,.744,.1151,1.0309,.342,.285,.23,.475,.497,.5681,.806,.094,.309,.141,.828,.141,1.56v2.5031c0,.488,.045,.793,.137,.9139,.092,.121,.277,.1981,.556,.23v.246h-3.25v-.246c.229-.032,.401-.123,.514-.274,.082-.118,.123-.409,.123-.87v-2.86c0-.529-.019-.862-.06-.998-.041-.135-.112-.239-.209-.314-.1-.076-.209-.114-.334-.114-.182,0-.362,.063-.534,.189-.173,.126-.361,.347-.562,.661v3.436c0,.457,.033,.7419,.101,.856,.088,.155,.266,.251,.536,.288v.246h-3.25v-.246c.269-.027,.463-.114,.576-.261,.078-.1,.117-.395,.117-.883v-6.514c0-.484-.045-.785-.133-.904-.09-.12-.275-.198-.56-.234v-.253h2.613" fill="#fff"/><path d="M82.278,54.439c-.783,.689-1.484,1.035-2.105,1.035-.365,0-.67-.12-.912-.36-.2419-.24-.363-.54-.363-.902,0-.488,.211-.928,.63-1.32,.42-.391,1.338-.91,2.75-1.559v-.644c0-.484-.027-.789-.08-.916-.052-.125-.152-.235-.296-.328-.147-.094-.313-.141-.495-.141-.296,0-.541,.067-.734,.199-.119,.082-.178,.178-.178,.287,0,.096,.065,.215,.192,.357,.174,.196,.261,.387,.261,.569,0,.224-.084,.414-.25,.572-.168,.159-.386,.237-.656,.237-.287,0-.529-.086-.723-.26-.193-.174-.291-.377-.291-.611,0-.328,.131-.643,.391-.942s.623-.529,1.09-.689c.467-.16,.951-.24,1.453-.24,.607,0,1.09,.129,1.443,.387,.354,.259,.584,.538,.69,.84,.062,.193,.096,.633,.096,1.323v2.489c0,.293,.011,.476,.033,.551l.103,.168,.159,.055c.119,0,.24-.085,.363-.253l.205,.164c-.229,.338-.465,.584-.709,.737-.244,.154-.522,.23-.834,.23-.365,0-.65-.086-.856-.258-.207-.171-.332-.429-.377-.777m0-.5v-2.147c-.554,.325-.964,.672-1.234,1.042-.178,.247-.267,.496-.267,.747,0,.211,.076,.396,.226,.556,.113,.123,.274,.185,.479,.185,.228,0,.494-.127,.796-.383Z" fill="#fff"/><path d="M88.333,46.63v2.345h1.522v.679h-1.522v3.955c0,.371,.016,.609,.051,.717,.035,.107,.0959,.194,.1819,.259l.2401,.1c.297,0,.578-.226,.844-.678l.205,.151c-.371,.877-.9709,1.316-1.803,1.316-.408,0-.752-.113-1.033-.34-.28-.226-.459-.478-.537-.7581-.045-.154-.069-.575-.069-1.2599v-3.462h-.836v-.241c.575-.406,1.065-.833,1.471-1.281,.404-.449,.756-.949,1.059-1.502h.226" fill="#fff"/><path d="M93.21,52.355h-.281c-.01-.508,.015-.887,.072-1.139,.057-.251,.205-.597,.445-1.038,.241-.441,.399-.796,.473-1.063,.076-.267,.113-.597,.113-.991,0-.607-.119-1.055-.355-1.343-.238-.287-.52-.432-.8441-.432-.246,0-.455,.066-.623,.199-.129,.1-.193,.205-.193,.315,0,.074,.045,.187,.131,.343,.197,.352,.295,.651,.295,.899,0,.223-.077,.41-.231,.561-.152,.152-.344,.226-.572,.226-.256,0-.471-.09-.645-.27-.174-.181-.259-.419-.259-.716,0-.539,.232-1.013,.699-1.42,.467-.406,1.117-.61,1.953-.61,.887,0,1.562,.211,2.027,.634,.463,.423,.696,.934,.696,1.532,0,.435-.12,.836-.358,1.204-.236,.368-.697,.775-1.377,1.223-.457,.302-.758,.57-.902,.806-.143,.235-.233,.596-.264,1.08m-.076,1c.307,0,.568,.107,.783,.322s.322,.477,.322,.782c0,.306-.107,.568-.322,.785-.215,.217-.476,.326-.783,.326-.305,0-.566-.109-.781-.326-.215-.217-.323-.479-.323-.785,0-.305,.108-.567,.323-.782s.476-.322,.781-.322Z" fill="#fff"/></g></svg>