<?xml version="1.0" encoding="UTF-8"?><svg id="a" xmlns="http://www.w3.org/2000/svg" xmlns:xlink="http://www.w3.org/1999/xlink" viewBox="0 0 102.074 103.406"><defs><clipPath id="c"><path d="M51.537,103.406c28.83,0,50.537-22.039,50.537-50.87S80.701,0,51.871,0,0,23.372,0,52.202s22.707,51.204,51.537,51.204" fill="none"/></clipPath></defs><g id="b"><path d="M51.537,103.406c28.83,0,50.537-22.039,50.537-50.87S80.701,0,51.871,0,0,23.372,0,52.202s22.707,51.204,51.537,51.204" fill="#00994c"/><g clip-path="url(#c)"><path d="M51.037,113.928c34.365,0,62.226-27.859,62.226-62.225S85.402-10.522,51.037-10.522-11.188,17.337-11.188,51.703s27.86,62.225,62.225,62.225" fill="#00994c"/></g><path d="M27.062,35.361l-.349,3.263h-8.254v-.254h.308c.27,0,.487-.047,.651-.143,.119-.065,.211-.174,.273-.329,.051-.11,.076-.398,.076-.864v-6.115c0-.475-.025-.772-.076-.891-.049-.119-.15-.223-.305-.312-.152-.09-.359-.134-.619-.134h-.308v-.254h4.955v.254h-.405c-.269,0-.486,.048-.65,.144-.119,.064-.213,.174-.281,.329-.051,.109-.076,.397-.076,.864v5.923c0,.476,.027,.778,.082,.908,.054,.13,.162,.228,.322,.291,.115,.041,.391,.062,.83,.062h.775c.493,0,.905-.086,1.235-.26,.328-.174,.613-.448,.853-.823,.239-.374,.467-.928,.682-1.659h.281" fill="#fff"/><path d="M30.537,32.214v5.08c0,.452,.053,.741,.158,.867,.105,.126,.311,.199,.617,.216v.247h-3.463v-.247c.284-.009,.494-.091,.631-.246,.092-.105,.137-.385,.137-.837v-3.743c0-.452-.053-.741-.156-.867-.106-.125-.309-.197-.612-.216v-.254h2.688m-.959-3.105c.297,0,.547,.104,.754,.312,.205,.208,.308,.458,.308,.75,0,.293-.105,.542-.312,.748-.207,.205-.459,.308-.75,.308-.293,0-.543-.103-.748-.308-.205-.206-.309-.455-.309-.748,0-.292,.104-.542,.309-.75,.205-.208,.455-.312,.748-.312Z" fill="#fff"/><path d="M34.789,32.886v4.449c0,.43,.045,.7,.136,.81,.147,.169,.417,.246,.809,.232v.247h-3.777v-.247c.289-.004,.494-.037,.615-.099s.203-.147,.25-.257c.045-.11,.068-.338,.068-.686v-4.449h-.933v-.672h.933v-.472l-.007-.323c0-.658,.242-1.207,.724-1.645,.481-.439,1.133-.658,1.957-.658,.561,0,.979,.105,1.25,.315,.272,.21,.408,.443,.408,.699,0,.206-.084,.384-.254,.535-.168,.151-.392,.226-.671,.226-.237,0-.426-.062-.565-.185-.14-.123-.209-.26-.209-.411,0-.041,.014-.126,.041-.254l.028-.219c0-.096-.028-.166-.083-.212-.074-.07-.162-.104-.267-.104-.133,0-.244,.056-.334,.165-.088,.11-.133,.285-.133,.528l.014,1.2v.815h.945v.672h-.945" fill="#fff"/><path d="M42.082,35.19h-3.516c.041,.849,.268,1.521,.678,2.015,.316,.379,.695,.57,1.139,.57,.273,0,.523-.077,.746-.231,.224-.152,.464-.427,.72-.826l.233,.151c-.346,.708-.731,1.21-1.151,1.505-.422,.295-.908,.443-1.461,.443-.951,0-1.67-.366-2.16-1.098-.392-.589-.588-1.32-.588-2.193,0-1.07,.289-1.921,.868-2.554,.578-.633,1.253-.949,2.031-.949,.65,0,1.213,.265,1.689,.799,.479,.532,.737,1.321,.772,2.368m-1.686-.459c0-.737-.041-1.241-.121-1.516-.078-.274-.203-.481-.373-.624-.096-.082-.223-.123-.383-.123-.238,0-.433,.116-.584,.35-.269,.407-.404,.965-.404,1.673v.24h1.865Z" fill="#fff"/><path d="M44.459,33.675h-.328l-.721-2.619c-.09-.324-.137-.624-.137-.898,0-.297,.098-.545,.291-.744,.195-.199,.434-.298,.717-.298,.324,0,.574,.105,.75,.315,.178,.21,.266,.438,.266,.686,0,.206-.053,.516-.159,.932l-.679,2.626" fill="#fff"/><path d="M50.781,32.036l.102,2.187h-.233c-.279-.648-.568-1.092-.867-1.33-.299-.237-.598-.357-.895-.357-.187,0-.347,.064-.48,.189-.133,.126-.197,.271-.197,.435,0,.124,.045,.243,.136,.357,.147,.187,.555,.509,1.227,.963,.672,.455,1.113,.842,1.326,1.159,.213,.317,.318,.673,.318,1.065,0,.357-.087,.706-.265,1.049-.18,.343-.43,.607-.756,.789-.324,.183-.682,.275-1.076,.275-.305,0-.715-.097-1.227-.288-.136-.051-.23-.077-.281-.077-.15,0-.275,.116-.377,.344h-.227l-.109-2.303h.234c.206,.603,.487,1.055,.846,1.357,.36,.302,.697,.452,1.018,.452,.22,0,.398-.067,.539-.202,.138-.135,.209-.298,.209-.49,0-.22-.069-.409-.205-.57-.139-.159-.444-.401-.92-.726-.699-.485-1.151-.855-1.358-1.111-.3-.375-.451-.788-.451-1.241,0-.493,.17-.939,.51-1.34,.34-.399,.834-.599,1.477-.599,.347,0,.683,.084,1.007,.253,.125,.069,.225,.103,.303,.103l.199-.052c.049-.034,.129-.13,.241-.291h.232" fill="#fff"/><path d="M58.4,29.328v3.709c.352-.37,.674-.631,.967-.785,.291-.153,.596-.229,.912-.229,.4,0,.744,.114,1.031,.343,.285,.228,.475,.497,.569,.805,.093,.308,.14,.828,.14,1.56v2.502c0,.489,.045,.794,.137,.915,.092,.121,.277,.198,.557,.229v.247h-3.25v-.247c.228-.031,.4-.123,.513-.274,.082-.118,.123-.408,.123-.87v-2.859c0-.53-.019-.863-.06-.998-.041-.134-.112-.24-.209-.315-.1-.075-.209-.113-.334-.113-.182,0-.362,.063-.533,.188-.174,.126-.362,.347-.563,.662v3.435c0,.457,.033,.743,.102,.856,.088,.156,.265,.252,.535,.288v.247h-3.25v-.247c.269-.027,.463-.114,.576-.259,.078-.101,.117-.396,.117-.885v-6.513c0-.484-.045-.786-.133-.905-.089-.118-.275-.197-.56-.233v-.254h2.613" fill="#fff"/><path d="M67,37.678c-.782,.69-1.483,1.035-2.104,1.035-.367,0-.67-.12-.912-.359-.242-.24-.363-.541-.363-.902,0-.489,.209-.929,.631-1.32,.42-.39,1.336-.91,2.748-1.559v-.645c0-.484-.026-.789-.078-.915-.053-.126-.153-.235-.299-.329-.147-.094-.311-.141-.494-.141-.297,0-.541,.067-.733,.2-.119,.082-.178,.177-.178,.288,0,.095,.063,.214,.192,.356,.174,.196,.26,.386,.26,.568,0,.225-.084,.415-.25,.574-.166,.157-.385,.236-.655,.236-.289,0-.529-.087-.722-.261-.196-.174-.293-.377-.293-.61,0-.329,.131-.643,.39-.943,.262-.299,.625-.529,1.092-.689,.465-.159,.949-.239,1.453-.239,.608,0,1.088,.129,1.442,.387,.355,.258,.584,.538,.689,.839,.065,.193,.096,.634,.096,1.324v2.488c0,.293,.012,.476,.035,.553l.103,.168,.157,.054c.119,0,.24-.085,.363-.254l.207,.164c-.228,.339-.465,.584-.711,.738-.244,.153-.521,.229-.832,.229-.365,0-.652-.085-.857-.257-.205-.171-.332-.43-.377-.778m0-.5v-2.145c-.553,.324-.965,.67-1.235,1.042-.177,.246-.267,.495-.267,.747,0,.21,.076,.395,.226,.554,.116,.124,.276,.186,.481,.186,.228,0,.494-.128,.795-.384Z" fill="#fff"/><path d="M73.185,32.214v1.454c.424-.663,.797-1.102,1.117-1.32,.321-.217,.629-.325,.926-.325,.256,0,.461,.078,.614,.236,.152,.157,.23,.381,.23,.668,0,.307-.076,.544-.225,.713-.148,.17-.326,.254-.537,.254-.242,0-.453-.077-.631-.233-.177-.156-.283-.242-.314-.26l-.158-.041c-.133,0-.258,.05-.377,.15-.188,.155-.33,.377-.426,.665-.146,.443-.219,.933-.219,1.467v1.475l.006,.383c0,.26,.018,.427,.049,.5,.055,.124,.135,.214,.244,.271,.106,.057,.287,.093,.545,.106v.247h-3.463v-.247c.279-.022,.467-.099,.567-.229,.097-.13,.146-.474,.146-1.031v-3.545c0-.366-.018-.599-.055-.7-.045-.128-.111-.221-.199-.281-.086-.058-.2401-.099-.459-.123v-.254h2.619" fill="#fff"/><path d="M82.988,29.328v7.376c0,.499,.014,.793,.041,.885,.037,.151,.105,.263,.209,.336s.283,.119,.539,.137v.226l-2.709,.529v-1.015c-.324,.393-.613,.66-.867,.802-.254,.141-.541,.213-.859,.213-.819,0-1.465-.366-1.942-1.098-.383-.594-.574-1.323-.574-2.186,0-.691,.117-1.309,.355-1.855,.239-.546,.563-.959,.9771-1.237,.414-.279,.8589-.418,1.334-.418,.307,0,.578,.059,.816,.178,.237,.119,.491,.327,.76,.624v-1.934c0-.488-.019-.783-.06-.884-.055-.133-.139-.23-.249-.295-.109-.063-.314-.095-.617-.095v-.289h2.846m-1.92,4.347c-.338-.649-.752-.974-1.24-.974-.17,0-.309,.046-.418,.137-.17,.142-.309,.391-.416,.747-.108,.357-.16,.904-.16,1.639,0,.809,.058,1.408,.177,1.796,.12,.389,.282,.67,.487,.844,.105,.087,.25,.129,.433,.129,.401,0,.782-.315,1.137-.946v-3.372Z" fill="#fff"/><path d="M26.226,54.897l-1.756-4.703-1.72,4.703h-.356l-1.707-4.649c-.256-.708-.474-1.17-.652-1.384-.113-.147-.287-.251-.522-.316v-.254h3.237v.254c-.219,0-.369,.032-.453,.096l-.123,.22c0,.078,.074,.31,.22,.699l.938,2.502,.906-2.502-.068-.164c-.137-.343-.258-.562-.362-.656-.101-.093-.261-.158-.476-.195v-.254h3.285v.254c-.256,.014-.418,.049-.486,.107-.071,.056-.104,.137-.104,.243,0,.1,.066,.322,.199,.665l.905,2.502,.822-2.303c.119-.329,.178-.554,.178-.672,0-.179-.043-.308-.129-.391-.088-.082-.256-.132-.508-.151v-.254h1.898v.254c-.209,.028-.377,.102-.5,.223-.123,.121-.283,.465-.48,1.032l-1.795,5.094h-.391" fill="#fff"/><path d="M32.656,45.409v3.709c.352-.371,.674-.632,.967-.786,.293-.153,.597-.229,.912-.229,.402,0,.746,.114,1.031,.343,.285,.228,.477,.497,.57,.805,.094,.308,.141,.828,.141,1.56v2.502c0,.489,.045,.794,.137,.915s.275,.198,.554,.229v.247h-3.25v-.247c.229-.031,.401-.123,.516-.274,.082-.118,.123-.408,.123-.87v-2.859c0-.53-.021-.863-.062-.998-.041-.134-.112-.24-.209-.315-.098-.075-.209-.113-.332-.113-.184,0-.362,.063-.536,.188-.173,.126-.361,.347-.562,.662v3.435c0,.457,.035,.743,.103,.856,.086,.157,.266,.252,.536,.288v.247h-3.25v-.247c.269-.027,.461-.114,.576-.259,.078-.101,.115-.396,.115-.885v-6.513c0-.484-.043-.786-.133-.905-.09-.118-.275-.196-.558-.233v-.253h2.611" fill="#fff"/><path d="M43.275,51.27h-3.516c.041,.849,.268,1.521,.678,2.015,.317,.379,.696,.57,1.139,.57,.273,0,.523-.077,.746-.231,.225-.152,.465-.427,.721-.826l.232,.152c-.346,.708-.73,1.21-1.15,1.504-.422,.295-.908,.443-1.461,.443-.951,0-1.67-.366-2.16-1.098-.393-.589-.588-1.32-.588-2.193,0-1.07,.289-1.921,.867-2.554s1.254-.949,2.031-.949c.651,0,1.213,.265,1.69,.799,.478,.532,.736,1.321,.771,2.368m-1.685-.459c0-.736-.041-1.241-.122-1.516-.078-.274-.203-.481-.373-.624-.095-.082-.222-.123-.382-.123-.239,0-.434,.116-.584,.35-.27,.407-.405,.965-.405,1.673v.24h1.866Z" fill="#fff"/><path d="M46.697,48.294v.83c.328-.356,.645-.616,.945-.778,.303-.162,.627-.243,.975-.243,.414,0,.76,.115,1.035,.346,.273,.231,.457,.517,.547,.86,.074,.261,.111,.761,.111,1.502v2.495c0,.493,.043,.801,.133,.922s.275,.198,.559,.229v.247h-3.243v-.247c.243-.031,.416-.131,.522-.301,.072-.115,.109-.398,.109-.85v-2.852c0-.526-.021-.857-.062-.994-.041-.137-.111-.244-.209-.319-.098-.075-.207-.113-.326-.113-.393,0-.758,.281-1.096,.843v3.435c0,.479,.045,.784,.133,.912,.09,.128,.256,.208,.498,.239v.247h-3.244v-.247c.269-.027,.463-.114,.576-.259,.078-.101,.117-.399,.117-.892v-3.62c0-.485-.045-.786-.133-.904-.09-.12-.275-.197-.56-.234v-.254h2.613" fill="#fff"/><path d="M58.183,54.965l-2.07-4.751c-.311-.718-.541-1.158-.689-1.323-.149-.164-.329-.278-.54-.343v-.254h3.409v.254c-.225,.009-.383,.053-.473,.13-.092,.078-.137,.172-.137,.281,0,.174,.114,.517,.342,1.029l1.098,2.509,.746-1.94c.269-.69,.404-1.17,.404-1.439,0-.169-.055-.304-.168-.405-.111-.1-.308-.156-.592-.165v-.254h2.145v.254c-.209,.024-.381,.105-.514,.243-.133,.14-.353,.615-.664,1.423l-1.832,4.751c-.461,1.189-.803,1.919-1.027,2.194-.317,.383-.711,.576-1.186,.576-.381,0-.687-.109-.922-.326-.236-.217-.353-.479-.353-.785,0-.265,.08-.485,.242-.658,.162-.174,.363-.261,.602-.261,.228,0,.412,.074,.55,.22,.139,.146,.211,.372,.217,.679,.004,.173,.026,.285,.061,.336l.158,.075c.109,0,.227-.066,.35-.199,.183-.192,.398-.631,.644-1.317l.199-.534" fill="#fff"/><path d="M65.328,48.103c.556,0,1.076,.143,1.556,.432,.479,.288,.844,.697,1.092,1.227,.25,.53,.375,1.11,.375,1.741,0,.909-.23,1.67-.693,2.282-.557,.741-1.328,1.112-2.311,1.112-.963,0-1.707-.339-2.226-1.015-.522-.677-.783-1.461-.783-2.351,0-.919,.267-1.72,.798-2.404,.534-.682,1.264-1.024,2.192-1.024m.027,.486c-.232,0-.433,.088-.599,.264-.168,.177-.278,.523-.331,1.042-.052,.519-.078,1.24-.078,2.163,0,.489,.032,.946,.096,1.371,.051,.325,.158,.571,.322,.74,.164,.17,.352,.254,.563,.254,.205,0,.377-.056,.514-.171,.177-.155,.296-.373,.357-.651,.09-.435,.137-1.312,.137-2.633,0-.776-.043-1.31-.131-1.6-.086-.291-.215-.502-.383-.634-.119-.097-.275-.145-.467-.145Z" fill="#fff"/><path d="M75.543,48.294v5.019c0,.489,.045,.794,.136,.915,.092,.121,.278,.198,.555,.229v.247h-2.611v-.857c-.307,.366-.612,.633-.918,.799-.307,.167-.649,.251-1.03,.251-.361,0-.681-.112-.962-.333-.282-.222-.469-.481-.565-.779-.098-.296-.144-.815-.144-1.555v-2.544c0-.485-.045-.786-.135-.904-.088-.12-.276-.197-.559-.234v-.254h2.614v4.381c0,.457,.021,.752,.064,.885,.043,.132,.111,.232,.205,.302,.094,.068,.203,.102,.326,.102,.164,0,.313-.044,.446-.131,.183-.118,.402-.358,.658-.719v-3.428c0-.485-.045-.786-.133-.904-.09-.12-.275-.197-.559-.234v-.254h2.612" fill="#fff"/><path d="M79.693,48.294v1.454c.426-.663,.799-1.102,1.117-1.32,.321-.217,.629-.325,.926-.325,.256,0,.461,.078,.613,.236,.155,.157,.231,.381,.231,.668,0,.307-.074,.544-.223,.713-.148,.17-.328,.254-.539,.254-.242,0-.451-.077-.631-.232-.178-.157-.283-.243-.314-.261l-.158-.041c-.133,0-.258,.05-.377,.15-.188,.155-.329,.377-.424,.665-.147,.444-.221,.933-.221,1.467v1.475l.008,.383c0,.26,.016,.427,.047,.5,.054,.124,.136,.214,.244,.271,.107,.058,.289,.093,.545,.106v.247h-3.463v-.247c.279-.022,.469-.099,.566-.229,.098-.13,.149-.474,.149-1.031v-3.545c0-.366-.02-.599-.057-.7-.045-.127-.111-.221-.197-.281-.088-.058-.24-.099-.461-.123v-.254h2.619" fill="#fff"/><path d="M19.5,61.998v7.966c0,.452,.052,.741,.158,.867,.105,.126,.31,.199,.617,.216v.247h-3.463v-.247c.283-.009,.494-.091,.631-.246,.092-.105,.137-.385,.137-.837v-6.636c0-.448-.053-.734-.156-.86-.106-.126-.309-.198-.612-.216v-.254h2.688" fill="#fff"/><path d="M23.437,64.884v5.08c0,.452,.051,.741,.156,.867,.106,.126,.311,.199,.618,.216v.247h-3.461v-.247c.283-.009,.492-.091,.631-.246,.089-.105,.136-.385,.136-.837v-3.743c0-.452-.052-.741-.158-.867-.105-.125-.309-.197-.609-.216v-.254h2.687m-.961-3.105c.297,0,.549,.104,.754,.312,.207,.208,.309,.458,.309,.75,0,.293-.104,.542-.311,.748-.209,.205-.459,.308-.752,.308s-.541-.103-.746-.308c-.207-.206-.308-.455-.308-.748,0-.292,.101-.542,.308-.75,.205-.208,.453-.312,.746-.312Z" fill="#fff"/><path d="M29.181,70.622c-.279,.293-.539,.498-.781,.618-.32,.164-.654,.247-1,.247-.805,0-1.439-.36-1.906-1.077-.371-.572-.555-1.254-.555-2.05,0-.662,.139-1.285,.42-1.868,.281-.582,.668-1.029,1.16-1.336,.49-.309,1.01-.463,1.559-.463,.365,0,.691,.061,.976,.184,.286,.124,.532,.312,.739,.563l1.076-.747h.232v8.301c0,.42,.037,.684,.11,.789,.119,.168,.359,.255,.72,.26v.254h-3.703v-.254c.283,0,.49-.032,.617-.095,.129-.065,.217-.149,.264-.254,.049-.106,.072-.321,.072-.645v-2.427m0-.624v-2.638c0-.737-.039-1.223-.119-1.461-.08-.238-.228-.444-.443-.617-.11-.086-.248-.13-.418-.13-.348,0-.617,.153-.809,.459-.3,.47-.453,1.346-.453,2.626,0,.982,.131,1.673,.393,2.07,.177,.269,.408,.404,.691,.404,.164,0,.352-.056,.559-.171,.209-.114,.408-.295,.599-.542Z" fill="#fff"/><path d="M38.875,64.884v5.019c0,.489,.047,.794,.138,.915,.09,.121,.276,.198,.555,.229v.247h-2.611v-.857c-.307,.366-.614,.633-.92,.799-.305,.167-.649,.251-1.028,.251-.361,0-.681-.112-.962-.333-.282-.222-.471-.481-.567-.779-.096-.297-.144-.815-.144-1.555v-2.544c0-.485-.043-.786-.133-.905s-.276-.196-.559-.233v-.254h2.612v4.381c0,.457,.021,.752,.066,.885,.043,.132,.111,.232,.205,.301s.201,.103,.326,.103c.164,0,.313-.044,.446-.131,.181-.118,.402-.358,.658-.72v-3.427c0-.485-.045-.786-.135-.905-.088-.119-.275-.196-.559-.233v-.254h2.612" fill="#fff"/><path d="M43.39,64.693c.557,0,1.077,.143,1.557,.431,.478,.288,.844,.698,1.092,1.228,.25,.53,.375,1.11,.375,1.741,0,.909-.231,1.67-.694,2.282-.556,.741-1.328,1.112-2.31,1.112-.963,0-1.707-.339-2.227-1.015-.521-.677-.783-1.461-.783-2.352,0-.919,.268-1.719,.799-2.403,.533-.682,1.264-1.024,2.191-1.024m.028,.486c-.233,0-.434,.088-.6,.264-.168,.176-.277,.523-.33,1.042-.053,.519-.078,1.24-.078,2.163,0,.489,.031,.946,.096,1.371,.05,.325,.158,.571,.322,.74,.164,.17,.351,.254,.562,.254,.205,0,.377-.057,.514-.171,.178-.155,.297-.373,.357-.651,.09-.435,.137-1.312,.137-2.633,0-.776-.043-1.311-.131-1.601-.086-.29-.215-.502-.383-.633-.119-.097-.275-.145-.466-.145Z" fill="#fff"/><path d="M50.074,64.884v1.454c.426-.663,.799-1.102,1.117-1.32,.32-.217,.629-.325,.926-.325,.256,0,.461,.078,.613,.236,.154,.157,.231,.381,.231,.668,0,.307-.075,.544-.223,.713-.148,.17-.328,.254-.539,.254-.242,0-.451-.077-.631-.233-.178-.156-.283-.242-.314-.26l-.159-.041c-.132,0-.257,.049-.377,.15-.187,.155-.328,.377-.423,.665-.147,.443-.221,.933-.221,1.467v1.474l.008,.384c0,.26,.015,.427,.047,.5,.054,.124,.136,.214,.244,.271,.107,.057,.289,.093,.545,.106v.247h-3.463v-.247c.279-.022,.469-.099,.566-.229,.098-.13,.149-.474,.149-1.032v-3.544c0-.366-.02-.599-.057-.7-.045-.128-.111-.221-.197-.281-.088-.059-.241-.1-.461-.123v-.254h2.619" fill="#fff"/><path d="M59.603,64.884v5.08c0,.452,.051,.741,.156,.867,.106,.126,.311,.199,.618,.216v.247h-3.461v-.247c.283-.009,.492-.091,.631-.246,.089-.105,.136-.385,.136-.837v-3.743c0-.452-.052-.741-.158-.867-.105-.125-.308-.197-.609-.216v-.254h2.687m-.961-3.105c.297,0,.549,.104,.754,.312,.207,.208,.309,.458,.309,.75,0,.293-.104,.542-.311,.748-.209,.205-.459,.308-.752,.308s-.541-.103-.746-.308c-.207-.206-.308-.455-.308-.748,0-.292,.101-.542,.308-.75,.205-.208,.453-.312,.746-.312Z" fill="#fff"/><path d="M65.095,64.706l.102,2.187h-.232c-.28-.649-.569-1.092-.868-1.33-.298-.237-.597-.357-.894-.357-.188,0-.348,.064-.481,.189-.132,.126-.197,.271-.197,.435,0,.123,.045,.243,.137,.357,.146,.187,.555,.509,1.226,.963,.672,.455,1.114,.842,1.327,1.159,.212,.317,.318,.673,.318,1.065,0,.357-.088,.706-.266,1.049-.179,.343-.429,.607-.756,.789-.324,.183-.681,.275-1.076,.275-.304,0-.715-.097-1.226-.288-.137-.051-.231-.077-.282-.077-.15,0-.275,.116-.377,.344h-.226l-.109-2.304h.234c.205,.604,.486,1.056,.846,1.358,.359,.302,.697,.452,1.017,.452,.221,0,.399-.067,.539-.202,.139-.135,.209-.298,.209-.49,0-.22-.068-.41-.205-.57-.138-.159-.443-.401-.92-.726-.699-.485-1.15-.855-1.357-1.111-.301-.375-.451-.788-.451-1.241,0-.493,.17-.939,.509-1.34,.34-.399,.834-.599,1.477-.599,.348,0,.684,.084,1.008,.253,.125,.069,.224,.103,.303,.103l.199-.052c.049-.034,.129-.13,.24-.291h.232" fill="#fff"/><path d="M69.154,64.884v.83c.328-.356,.645-.616,.945-.778,.303-.162,.627-.243,.975-.243,.414,0,.76,.115,1.035,.345,.274,.232,.457,.518,.547,.861,.074,.261,.111,.761,.111,1.502v2.495c0,.493,.043,.801,.133,.922,.09,.121,.275,.198,.559,.229v.247h-3.242v-.247c.242-.031,.416-.132,.521-.302,.072-.114,.109-.397,.109-.849v-2.852c0-.526-.021-.857-.062-.994-.041-.138-.111-.244-.209-.319-.098-.075-.207-.113-.326-.113-.393,0-.758,.281-1.096,.843v3.435c0,.479,.045,.784,.133,.912,.09,.128,.256,.208,.498,.239v.247h-3.244v-.247c.269-.027,.463-.114,.576-.26,.078-.1,.117-.398,.117-.891v-3.62c0-.485-.045-.786-.133-.905-.09-.119-.275-.196-.56-.233v-.254h2.613" fill="#fff"/><path d="M75.89,66.345h-.33l-.718-2.619c-.092-.324-.137-.624-.137-.899,0-.296,.095-.544,.291-.743,.193-.199,.433-.299,.717-.299,.324,0,.574,.106,.75,.316,.175,.21,.263,.438,.263,.685,0,.207-.052,.517-.158,.933l-.678,2.626" fill="#fff"/><path d="M80.703,62.539v2.345h1.521v.679h-1.521v3.956c0,.37,.017,.609,.051,.716,.035,.107,.095,.194,.181,.26l.24,.1c.297,0,.579-.227,.844-.679l.205,.151c-.369,.878-.97,1.316-1.802,1.316-.407,0-.75-.113-1.032-.339-.281-.226-.461-.478-.539-.758-.045-.155-.068-.576-.068-1.261v-3.462h-.836v-.239c.576-.408,1.066-.834,1.471-1.283,.404-.448,.757-.948,1.058-1.502h.227" fill="#fff"/><path d="M84.117,69.183c.32,0,.592,.112,.812,.336,.223,.224,.332,.493,.332,.808,0,.316-.111,.584-.336,.806-.222,.222-.492,.333-.808,.333-.315,0-.584-.111-.805-.333-.222-.222-.332-.49-.332-.806,0-.315,.11-.584,.332-.808,.221-.224,.49-.336,.805-.336" fill="#fff"/></g></svg>