<?xml version="1.0" encoding="UTF-8"?><svg id="a" xmlns="http://www.w3.org/2000/svg" xmlns:xlink="http://www.w3.org/1999/xlink" viewBox="0 0 102.075 103.406"><defs><clipPath id="c"><path d="M51.537,103.406c28.83,0,50.538-22.039,50.538-50.869S80.701,0,51.871,0,0,23.373,0,52.203s22.706,51.203,51.537,51.203" fill="none"/></clipPath></defs><g id="b"><g clip-path="url(#c)"><path d="M51.036,113.929c34.367,0,62.227-27.859,62.227-62.225S85.403-10.521,51.036-10.521-11.188,17.338-11.188,51.704s27.859,62.225,62.224,62.225" fill="#231f20"/></g><path d="M24.406,31.582v.254h-4.861v-.254h.309c.269,0,.486-.048,.651-.143,.118-.064,.21-.174,.274-.329,.05-.11,.076-.399,.076-.864v-6.115c0-.476-.026-.773-.076-.892-.05-.118-.152-.222-.305-.311-.153-.09-.36-.135-.62-.135h-.309v-.253h4.861v.253h-.309c-.27,0-.486,.049-.651,.145-.12,.064-.212,.174-.282,.329-.049,.11-.075,.397-.075,.864v6.115c0,.475,.026,.772,.079,.891,.053,.119,.156,.223,.309,.312,.153,.088,.359,.133,.62,.133h.309" fill="#fff"/><path d="M34.94,32.028l-1.755-4.703-1.721,4.703h-.356l-1.707-4.648c-.256-.708-.474-1.17-.652-1.385-.114-.146-.288-.251-.521-.315v-.254h3.236v.254c-.22,0-.37,.032-.453,.096l-.123,.219c0,.077,.073,.312,.22,.7l.938,2.502,.905-2.502-.068-.166c-.137-.341-.257-.56-.36-.654-.103-.094-.262-.158-.477-.195v-.254h3.284v.254c-.256,.014-.418,.049-.486,.106-.069,.058-.104,.138-.104,.243,0,.101,.067,.323,.2,.666l.905,2.502,.822-2.304c.119-.328,.178-.553,.178-.672,0-.178-.043-.309-.13-.391s-.256-.132-.507-.15v-.254h1.899v.254c-.21,.027-.377,.101-.5,.223-.124,.121-.284,.464-.481,1.031l-1.796,5.094h-.39" fill="#fff"/><path d="M44.307,28.402h-3.517c.041,.85,.268,1.522,.679,2.015,.315,.38,.694,.57,1.138,.57,.274,0,.523-.078,.747-.231,.224-.152,.464-.428,.72-.826l.233,.151c-.347,.708-.732,1.21-1.151,1.505-.421,.295-.908,.442-1.46,.442-.952,0-1.671-.366-2.161-1.096-.392-.59-.588-1.321-.588-2.195,0-1.069,.289-1.92,.867-2.553s1.255-.949,2.032-.949c.649,0,1.212,.265,1.689,.798,.478,.533,.736,1.323,.772,2.369m-1.687-.46c0-.736-.04-1.241-.12-1.515-.079-.274-.204-.482-.373-.624-.095-.082-.223-.123-.384-.123-.238,0-.432,.117-.583,.349-.269,.407-.404,.965-.404,1.673v.24h1.864Z" fill="#fff"/><path d="M47.729,25.426v.83c.329-.357,.644-.616,.946-.778,.302-.162,.626-.243,.974-.243,.415,0,.76,.115,1.035,.345,.273,.231,.457,.518,.548,.862,.073,.259,.11,.759,.11,1.5v2.496c0,.494,.044,.8,.133,.922,.09,.121,.275,.197,.559,.23v.246h-3.243v-.246c.242-.033,.416-.133,.522-.303,.072-.113,.109-.397,.109-.849v-2.852c0-.525-.02-.857-.061-.994-.041-.137-.112-.244-.209-.318-.099-.077-.207-.114-.327-.114-.392,0-.758,.282-1.096,.843v3.435c0,.48,.045,.783,.134,.912,.088,.127,.254,.207,.497,.24v.246h-3.244v-.246c.27-.028,.462-.115,.577-.262,.078-.099,.116-.396,.116-.89v-3.619c0-.485-.044-.788-.133-.907-.09-.118-.275-.195-.56-.232v-.254h2.613" fill="#fff"/><path d="M55.335,23.082v2.344h1.522v.68h-1.522v3.955c0,.37,.017,.609,.051,.717,.035,.107,.096,.193,.182,.259l.24,.1c.297,0,.578-.227,.844-.679l.205,.152c-.37,.877-.971,1.316-1.803,1.316-.407,0-.751-.113-1.032-.34-.281-.226-.46-.478-.538-.758-.045-.155-.069-.576-.069-1.261v-3.461h-.836v-.241c.576-.407,1.066-.834,1.471-1.282,.404-.448,.757-.948,1.059-1.501h.226" fill="#fff"/><path d="M63.521,23.082v2.344h1.521v.68h-1.521v3.955c0,.37,.016,.609,.051,.717,.035,.107,.095,.193,.181,.259l.24,.1c.297,0,.579-.227,.844-.679l.205,.152c-.37,.877-.97,1.316-1.802,1.316-.408,0-.751-.113-1.033-.34-.28-.226-.46-.478-.538-.758-.045-.155-.068-.576-.068-1.261v-3.461h-.836v-.241c.575-.407,1.065-.834,1.471-1.282,.404-.448,.756-.948,1.058-1.501h.227" fill="#fff"/><path d="M68.676,25.235c.558,0,1.076,.143,1.557,.431,.479,.288,.843,.697,1.092,1.227,.249,.531,.374,1.111,.374,1.742,0,.909-.23,1.67-.692,2.283-.558,.74-1.328,1.11-2.31,1.11-.964,0-1.707-.338-2.228-1.014-.521-.677-.782-1.461-.782-2.352,0-.919,.266-1.719,.799-2.403,.532-.683,1.262-1.024,2.19-1.024m.027,.486c-.232,0-.432,.088-.599,.264-.167,.175-.277,.523-.329,1.043-.053,.517-.079,1.239-.079,2.162,0,.489,.032,.946,.096,1.371,.05,.324,.157,.572,.323,.74,.164,.17,.351,.254,.561,.254,.206,0,.377-.057,.515-.172,.177-.154,.297-.371,.356-.65,.091-.435,.137-1.313,.137-2.633,0-.778-.043-1.311-.13-1.601-.087-.29-.215-.501-.384-.634-.119-.095-.274-.144-.467-.144Z" fill="#fff"/><path d="M79.622,30.89c-.782,.69-1.483,1.036-2.104,1.036-.366,0-.67-.121-.912-.361-.242-.24-.364-.539-.364-.901,0-.489,.21-.929,.631-1.32,.42-.391,1.337-.91,2.749-1.56v-.643c0-.485-.026-.79-.079-.916-.053-.125-.152-.236-.298-.329-.146-.093-.311-.14-.494-.14-.297,0-.541,.065-.733,.198-.119,.082-.178,.179-.178,.288,0,.096,.064,.215,.192,.356,.173,.197,.26,.387,.26,.57,0,.223-.084,.414-.25,.572-.167,.158-.385,.237-.655,.237-.288,0-.529-.087-.723-.261-.194-.174-.292-.377-.292-.61,0-.329,.131-.643,.391-.943,.261-.3,.624-.528,1.091-.688,.466-.16,.95-.24,1.453-.24,.607,0,1.089,.128,1.442,.386,.355,.259,.584,.539,.69,.84,.063,.193,.095,.633,.095,1.323v2.49c0,.292,.012,.476,.035,.55l.103,.168,.157,.055c.12,0,.241-.084,.364-.253l.206,.165c-.229,.338-.465,.584-.71,.736-.244,.154-.522,.231-.833,.231-.366,0-.652-.086-.857-.258-.206-.172-.332-.431-.377-.778m0-.5v-2.146c-.553,.325-.965,.672-1.234,1.041-.178,.248-.268,.496-.268,.748,0,.21,.077,.395,.227,.555,.114,.123,.274,.186,.479,.186,.229,0,.495-.128,.796-.384Z" fill="#fff"/><path d="M21.948,42.299v4.448c0,.43,.044,.7,.136,.81,.147,.169,.416,.246,.809,.232v.247h-3.778v-.247c.289-.004,.494-.037,.615-.099,.121-.061,.204-.147,.25-.257,.046-.11,.068-.338,.068-.686v-4.448h-.933v-.672h.933v-.473l-.007-.323c0-.658,.241-1.206,.724-1.645,.481-.439,1.134-.658,1.957-.658,.561,0,.978,.105,1.251,.315,.271,.21,.408,.443,.408,.699,0,.206-.085,.384-.254,.535-.169,.151-.393,.226-.672,.226-.237,0-.425-.061-.565-.185-.14-.124-.209-.26-.209-.411,0-.041,.014-.126,.041-.254l.027-.218c0-.097-.027-.168-.082-.213-.073-.069-.162-.104-.267-.104-.133,0-.243,.055-.333,.165-.089,.11-.133,.286-.133,.529l.014,1.199v.816h.945v.672h-.945" fill="#fff"/><path d="M26.315,41.627v5.079c0,.452,.051,.741,.157,.867,.105,.126,.31,.199,.617,.216v.247h-3.462v-.247c.283-.009,.493-.092,.631-.246,.091-.105,.137-.385,.137-.837v-3.743c0-.452-.053-.741-.157-.867-.106-.125-.309-.197-.611-.216v-.253h2.688m-.96-3.106c.297,0,.548,.104,.754,.311,.206,.209,.308,.459,.308,.752,0,.292-.104,.541-.311,.746-.208,.206-.459,.309-.751,.309-.293,0-.542-.103-.747-.309-.206-.205-.309-.454-.309-.746,0-.293,.103-.543,.309-.752,.205-.207,.454-.311,.747-.311Z" fill="#fff"/><path d="M31.867,41.701h2.161v.754h-1.228c.224,.225,.38,.428,.466,.612,.11,.246,.165,.503,.165,.774,0,.457-.127,.854-.381,1.188-.253,.336-.599,.6-1.035,.79-.437,.189-.823,.285-1.162,.285-.028,0-.301-.012-.822-.035-.207,0-.378,.068-.518,.203-.14,.134-.209,.295-.209,.482,0,.164,.062,.3,.188,.404,.126,.106,.331,.159,.614,.159l1.186-.014c.96,0,1.62,.105,1.981,.315,.516,.292,.775,.743,.775,1.351,0,.389-.119,.741-.356,1.059-.239,.318-.551,.552-.94,.703-.59,.223-1.268,.336-2.036,.336-.576,0-1.101-.057-1.577-.168-.475-.113-.815-.268-1.022-.467-.205-.198-.307-.407-.307-.627,0-.21,.078-.399,.236-.566,.157-.167,.451-.307,.881-.42-.595-.293-.892-.701-.892-1.221,0-.316,.122-.621,.364-.919,.242-.297,.626-.556,1.152-.775-.613-.224-1.056-.519-1.33-.884-.274-.366-.411-.788-.411-1.268,0-.627,.256-1.17,.767-1.629,.512-.459,1.17-.689,1.975-.689,.425,0,.863,.09,1.315,.267m-1.589,7.282c-.467,0-.776,.039-.926,.116-.261,.141-.391,.333-.391,.576,0,.233,.135,.444,.404,.634,.27,.189,.778,.285,1.523,.285,.635,0,1.134-.085,1.497-.254,.363-.17,.545-.407,.545-.713,0-.115-.034-.211-.103-.288-.123-.138-.309-.231-.558-.281s-.913-.075-1.991-.075Zm.404-7.123c-.266,0-.489,.133-.672,.4-.183,.268-.274,.822-.274,1.663,0,.681,.09,1.148,.27,1.401,.181,.254,.395,.381,.642,.381,.274,0,.503-.125,.685-.377,.183-.251,.275-.74,.275-1.466,0-.819-.104-1.376-.309-1.673-.146-.22-.352-.329-.617-.329Z" fill="#fff"/><path d="M37.351,38.74v3.709c.351-.371,.674-.631,.967-.785,.292-.153,.596-.23,.912-.23,.401,0,.745,.115,1.031,.344,.285,.228,.476,.496,.569,.804,.094,.309,.141,.829,.141,1.561v2.502c0,.489,.045,.794,.137,.915,.091,.121,.276,.198,.555,.229v.247h-3.25v-.247c.229-.031,.401-.123,.515-.273,.082-.119,.123-.41,.123-.871v-2.86c0-.529-.02-.861-.061-.997-.041-.134-.112-.239-.209-.315-.099-.075-.209-.113-.333-.113-.183,0-.362,.063-.535,.189-.173,.125-.361,.346-.562,.661v3.435c0,.457,.034,.742,.102,.857,.087,.154,.266,.251,.536,.287v.247h-3.25v-.247c.269-.027,.461-.113,.576-.26,.078-.101,.116-.395,.116-.884v-6.513c0-.484-.044-.786-.133-.905-.09-.119-.275-.197-.559-.233v-.254h2.612" fill="#fff"/><path d="M45.084,39.281v2.346h1.522v.678h-1.522v3.956c0,.37,.017,.608,.051,.716,.035,.107,.096,.195,.182,.26l.24,.1c.297,0,.578-.225,.844-.679l.205,.151c-.37,.878-.971,1.316-1.803,1.316-.407,0-.751-.113-1.032-.339-.281-.226-.46-.479-.538-.757-.045-.156-.069-.576-.069-1.261v-3.463h-.836v-.24c.576-.407,1.066-.834,1.471-1.282,.404-.448,.757-.948,1.059-1.502h.226" fill="#fff"/><path d="M54.264,47.09c-.782,.69-1.483,1.035-2.105,1.035-.366,0-.669-.119-.912-.359-.242-.24-.363-.541-.363-.903,0-.488,.21-.927,.631-1.319,.42-.39,1.337-.91,2.749-1.559v-.645c0-.484-.026-.789-.079-.915-.053-.126-.153-.235-.298-.329-.147-.094-.312-.141-.494-.141-.297,0-.541,.067-.734,.199-.119,.083-.177,.178-.177,.288,0,.096,.063,.214,.191,.357,.174,.196,.261,.387,.261,.568,0,.225-.084,.415-.25,.573-.167,.158-.386,.236-.655,.236-.289,0-.53-.086-.723-.26-.194-.174-.292-.377-.292-.61,0-.329,.131-.644,.391-.943,.26-.298,.624-.529,1.09-.689,.466-.16,.951-.24,1.454-.24,.607,0,1.088,.13,1.442,.388,.354,.258,.584,.538,.689,.84,.064,.192,.096,.633,.096,1.323v2.488c0,.293,.012,.476,.034,.553l.104,.168,.157,.054c.119,0,.24-.085,.363-.254l.206,.164c-.228,.339-.465,.584-.71,.738-.244,.153-.521,.229-.833,.229-.365,0-.651-.086-.856-.257-.206-.171-.332-.43-.377-.778m0-.5v-2.146c-.554,.325-.965,.671-1.234,1.043-.178,.246-.268,.496-.268,.746,0,.211,.076,.396,.227,.556,.114,.123,.274,.185,.479,.185,.229,0,.494-.128,.796-.384Z" fill="#fff"/><path d="M60.365,41.627v.828c.33-.355,.645-.615,.947-.777,.302-.162,.626-.244,.973-.244,.415,0,.761,.116,1.036,.346,.273,.232,.457,.519,.547,.861,.074,.261,.111,.762,.111,1.502v2.495c0,.493,.044,.801,.133,.922,.089,.121,.275,.198,.559,.229v.247h-3.243v-.247c.242-.031,.416-.133,.521-.301,.073-.115,.11-.398,.11-.85v-2.853c0-.525-.021-.856-.062-.994-.041-.137-.111-.242-.209-.318-.098-.075-.207-.113-.326-.113-.392,0-.759,.281-1.097,.843v3.435c0,.479,.045,.784,.134,.911,.089,.129,.255,.209,.497,.24v.247h-3.243v-.247c.27-.027,.462-.113,.576-.26,.078-.101,.117-.398,.117-.891v-3.62c0-.485-.044-.785-.133-.905-.09-.119-.276-.197-.56-.233v-.253h2.612" fill="#fff"/><path d="M71.786,38.74v7.377c0,.498,.014,.793,.041,.884,.037,.152,.106,.263,.209,.336,.103,.073,.283,.118,.538,.138v.225l-2.708,.529v-1.016c-.324,.394-.613,.661-.867,.803-.254,.141-.541,.213-.86,.213-.818,0-1.465-.367-1.94-1.098-.384-.594-.576-1.322-.576-2.186,0-.691,.118-1.308,.357-1.855,.237-.546,.562-.959,.976-1.237,.413-.279,.859-.419,1.333-.419,.307,0,.578,.06,.817,.179,.237,.119,.491,.327,.76,.624v-1.934c0-.488-.02-.783-.061-.884-.055-.133-.138-.231-.247-.295-.109-.063-.316-.096-.617-.096v-.288h2.845m-1.92,4.346c-.337-.648-.751-.973-1.241-.973-.169,0-.308,.045-.418,.137-.169,.142-.307,.391-.415,.748-.107,.356-.161,.903-.161,1.638,0,.809,.06,1.407,.179,1.796,.119,.388,.281,.67,.486,.844,.106,.086,.249,.129,.433,.129,.401,0,.781-.315,1.137-.946v-3.373Z" fill="#fff"/><path d="M80.271,47.09c-.782,.69-1.484,1.035-2.105,1.035-.366,0-.67-.119-.912-.359s-.363-.541-.363-.903c0-.488,.21-.927,.631-1.319,.42-.39,1.337-.91,2.749-1.559v-.645c0-.484-.027-.789-.079-.915-.053-.126-.153-.235-.298-.329-.147-.094-.312-.141-.494-.141-.297,0-.541,.067-.734,.199-.119,.083-.177,.178-.177,.288,0,.096,.063,.214,.191,.357,.174,.196,.261,.387,.261,.568,0,.225-.084,.415-.25,.573-.167,.158-.386,.236-.656,.236-.288,0-.529-.086-.722-.26-.195-.174-.292-.377-.292-.61,0-.329,.131-.644,.39-.943,.261-.298,.624-.529,1.091-.689,.466-.16,.95-.24,1.453-.24,.608,0,1.089,.13,1.443,.388,.354,.258,.584,.538,.689,.84,.064,.192,.096,.633,.096,1.323v2.488c0,.293,.012,.476,.034,.553l.104,.168,.157,.054c.119,0,.24-.085,.363-.254l.206,.164c-.228,.339-.465,.584-.71,.738-.244,.153-.521,.229-.833,.229-.365,0-.651-.086-.856-.257-.206-.171-.332-.43-.377-.778m0-.5v-2.146c-.554,.325-.965,.671-1.235,1.043-.177,.246-.267,.496-.267,.746,0,.211,.076,.396,.226,.556,.115,.123,.275,.185,.48,.185,.228,0,.494-.128,.796-.384Z" fill="#fff"/><path d="M15.396,54.82v3.709c.351-.371,.674-.632,.967-.785,.292-.154,.596-.23,.912-.23,.401,0,.745,.115,1.031,.343,.285,.229,.476,.497,.569,.805,.094,.309,.141,.828,.141,1.56v2.502c0,.488,.045,.793,.137,.914,.091,.121,.276,.199,.555,.23v.246h-3.25v-.246c.229-.031,.401-.123,.515-.273,.082-.119,.123-.41,.123-.871v-2.859c0-.529-.021-.862-.062-.998-.041-.134-.111-.239-.209-.314-.098-.076-.209-.113-.333-.113-.182,0-.361,.062-.534,.188-.174,.126-.361,.347-.562,.661v3.435c0,.457,.034,.742,.102,.857,.087,.155,.266,.25,.535,.287v.246h-3.25v-.246c.27-.027,.462-.113,.577-.259,.078-.102,.116-.397,.116-.885v-6.513c0-.484-.044-.785-.133-.904-.09-.119-.275-.197-.56-.234v-.253h2.613" fill="#fff"/><path d="M23.609,57.514c.557,0,1.076,.144,1.556,.431,.48,.29,.844,.698,1.093,1.228,.249,.53,.374,1.11,.374,1.741,0,.91-.23,1.669-.692,2.282-.558,.741-1.328,1.112-2.311,1.112-.964,0-1.707-.338-2.227-1.016-.522-.676-.783-1.459-.783-2.35,0-.918,.267-1.719,.799-2.403,.532-.683,1.263-1.025,2.191-1.025m.027,.486c-.232,0-.433,.089-.6,.265-.167,.176-.276,.523-.329,1.042-.052,.518-.079,1.24-.079,2.163,0,.488,.032,.945,.097,1.371,.05,.324,.157,.57,.322,.74,.164,.168,.352,.252,.562,.252,.206,0,.377-.056,.514-.17,.178-.156,.297-.373,.357-.652,.091-.434,.136-1.311,.136-2.632,0-.776-.042-1.31-.129-1.6-.087-.291-.215-.501-.384-.634-.119-.096-.275-.145-.467-.145Z" fill="#fff"/><path d="M32.865,62.462l.211,.166c-.301,.567-.677,.988-1.127,1.264-.451,.277-.929,.416-1.436,.416-.855,0-1.538-.322-2.05-.967s-.767-1.42-.767-2.323c0-.873,.232-1.641,.699-2.305,.561-.799,1.336-1.199,2.323-1.199,.663,0,1.189,.167,1.58,.5,.392,.334,.587,.707,.587,1.118,0,.261-.079,.468-.236,.624-.159,.155-.366,.232-.621,.232-.27,0-.493-.088-.668-.267-.176-.178-.286-.495-.327-.952-.027-.288-.093-.49-.198-.604-.105-.114-.228-.171-.37-.171-.22,0-.407,.117-.562,.35-.238,.351-.357,.891-.357,1.617,0,.604,.096,1.181,.288,1.732,.192,.55,.454,.961,.788,1.23,.251,.195,.549,.295,.892,.295,.224,0,.436-.053,.638-.158,.2-.106,.438-.305,.713-.598" fill="#fff"/><path d="M36.47,54.82v6.115l1.487-1.46c.307-.297,.497-.512,.573-.645s.113-.26,.113-.384-.05-.225-.151-.308c-.1-.082-.296-.142-.589-.179v-.253h2.873v.253c-.275,.014-.515,.08-.721,.195-.205,.118-.607,.468-1.206,1.053l-.699,.686,1.507,2.206c.609,.896,.969,1.398,1.083,1.51,.156,.154,.353,.242,.59,.259v.246h-3.311v-.246c.146,0,.253-.027,.319-.082l.1-.177c0-.106-.097-.301-.288-.584l-1.269-1.857-.411,.404v1.152c0,.488,.046,.793,.137,.914,.092,.121,.279,.199,.562,.23v.246h-3.311v-.246c.269-.027,.462-.113,.576-.259,.078-.102,.116-.397,.116-.885v-6.513c0-.484-.044-.785-.134-.904-.089-.119-.275-.197-.558-.234v-.253h2.612" fill="#fff"/><path d="M46.865,60.682h-3.517c.041,.849,.267,1.52,.679,2.014,.315,.379,.694,.569,1.137,.569,.275,0,.524-.076,.747-.229,.225-.154,.464-.429,.721-.826l.233,.151c-.347,.709-.732,1.209-1.152,1.503-.421,.295-.907,.444-1.46,.444-.951,0-1.671-.367-2.16-1.098-.393-.59-.589-1.32-.589-2.192,0-1.071,.289-1.921,.867-2.555,.578-.633,1.255-.949,2.033-.949,.649,0,1.211,.266,1.689,.799s.735,1.322,.772,2.369m-1.687-.46c0-.735-.04-1.241-.12-1.515-.079-.274-.204-.482-.373-.624-.096-.083-.224-.124-.384-.124-.238,0-.433,.117-.583,.35-.269,.407-.404,.965-.404,1.674v.239h1.864Z" fill="#fff"/><path d="M50.608,64.376l-2.071-4.751c-.31-.717-.541-1.158-.689-1.322-.149-.165-.327-.279-.538-.344v-.253h3.407v.253c-.224,.01-.382,.053-.473,.131-.091,.078-.136,.172-.136,.281,0,.174,.113,.516,.341,1.028l1.098,2.508,.747-1.938c.27-.69,.405-1.17,.405-1.44,0-.169-.056-.304-.168-.405-.113-.1-.31-.155-.593-.165v-.253h2.145v.253c-.21,.024-.382,.105-.513,.244-.133,.139-.355,.614-.665,1.422l-1.831,4.751c-.461,1.188-.804,1.92-1.029,2.194-.315,.384-.71,.576-1.185,.576-.38,0-.687-.11-.922-.326-.236-.217-.354-.479-.354-.786,0-.265,.081-.484,.243-.658,.163-.174,.363-.26,.601-.26,.229,0,.412,.073,.552,.219,.138,.147,.211,.373,.216,.68,.003,.174,.025,.285,.061,.336l.157,.074c.111,0,.227-.066,.35-.199,.184-.192,.398-.629,.644-1.315l.2-.535" fill="#fff"/><path d="M62.352,57.781h2.16v.754h-1.228c.224,.225,.38,.428,.466,.611,.111,.247,.165,.505,.165,.774,0,.457-.127,.854-.381,1.19-.252,.335-.598,.599-1.035,.788-.436,.189-.823,.285-1.162,.285-.027,0-.301-.012-.822-.035-.206,0-.378,.068-.518,.203-.139,.135-.209,.295-.209,.482,0,.164,.063,.299,.189,.404,.126,.106,.33,.159,.613,.159l1.187-.014c.96,0,1.62,.105,1.98,.314,.517,.293,.775,.743,.775,1.352,0,.389-.119,.74-.356,1.059-.238,.318-.551,.552-.939,.703-.59,.222-1.269,.336-2.037,.336-.576,0-1.101-.057-1.577-.168-.474-.114-.815-.268-1.021-.467-.205-.199-.308-.408-.308-.627,0-.211,.078-.398,.237-.566,.157-.166,.451-.307,.88-.42-.594-.293-.891-.702-.891-1.221,0-.316,.121-.621,.363-.92,.242-.297,.626-.555,1.152-.773-.613-.224-1.055-.519-1.33-.884-.274-.365-.411-.789-.411-1.269,0-.626,.256-1.169,.768-1.628,.512-.459,1.17-.689,1.974-.689,.425,0,.864,.09,1.316,.267m-1.59,7.281c-.467,0-.775,.039-.926,.115-.261,.143-.39,.334-.39,.576,0,.234,.134,.445,.404,.635,.269,.189,.777,.285,1.522,.285,.635,0,1.134-.086,1.497-.254,.364-.17,.545-.408,.545-.713,0-.115-.034-.211-.102-.289-.123-.137-.31-.23-.559-.281-.249-.049-.913-.074-1.991-.074Zm.404-7.122c-.265,0-.489,.132-.672,.4-.182,.268-.274,.822-.274,1.662,0,.682,.091,1.149,.27,1.402,.181,.254,.395,.381,.642,.381,.275,0,.503-.126,.686-.377,.182-.252,.274-.74,.274-1.466,0-.819-.103-1.377-.309-1.674-.146-.219-.352-.328-.617-.328Z" fill="#fff"/><path d="M68.796,63.169c-.782,.69-1.483,1.035-2.104,1.035-.367,0-.67-.119-.912-.359-.243-.24-.364-.541-.364-.902,0-.489,.21-.928,.631-1.32,.42-.39,1.337-.91,2.749-1.558v-.645c0-.484-.026-.789-.079-.916-.053-.125-.152-.234-.298-.328-.146-.094-.311-.141-.494-.141-.297,0-.541,.067-.733,.2-.119,.082-.178,.177-.178,.287,0,.095,.063,.215,.191,.356,.174,.196,.261,.387,.261,.569,0,.224-.084,.415-.25,.573-.167,.158-.386,.236-.655,.236-.288,0-.529-.086-.723-.26-.194-.174-.292-.377-.292-.611,0-.328,.131-.643,.391-.941,.261-.3,.624-.53,1.091-.69,.465-.16,.95-.24,1.453-.24,.607,0,1.089,.129,1.442,.388,.355,.258,.584,.538,.69,.839,.063,.193,.095,.633,.095,1.324v2.487c0,.293,.012,.477,.034,.553l.104,.168,.157,.054c.119,0,.24-.086,.363-.254l.207,.164c-.229,.338-.465,.584-.71,.737-.245,.154-.522,.23-.833,.23-.366,0-.652-.086-.857-.258-.206-.169-.332-.429-.377-.777m0-.5v-2.145c-.554,.324-.965,.671-1.234,1.042-.178,.247-.268,.496-.268,.746,0,.211,.076,.396,.227,.556,.114,.123,.274,.184,.479,.184,.229,0,.494-.127,.796-.383Z" fill="#fff"/><path d="M74.994,57.706v.843c.352-.384,.678-.652,.977-.805,.3-.154,.628-.23,.984-.23,.411,0,.756,.096,1.035,.288,.279,.192,.494,.484,.645,.878,.365-.412,.716-.709,1.052-.892,.336-.182,.686-.274,1.053-.274,.443,0,.795,.101,1.058,.305,.264,.204,.446,.462,.549,.775,.102,.312,.154,.812,.154,1.498v2.624c0,.494,.045,.801,.134,.92,.089,.119,.275,.195,.559,.232v.246h-3.312v-.246c.261-.023,.453-.123,.576-.3,.082-.125,.123-.409,.123-.852v-2.755c0-.57-.022-.933-.068-1.09-.046-.155-.117-.27-.216-.345-.098-.077-.214-.114-.346-.114-.197,0-.395,.073-.596,.216-.201,.144-.405,.36-.611,.648v3.44c0,.463,.039,.752,.117,.871,.105,.17,.306,.264,.603,.281v.246h-3.317v-.246c.177-.009,.318-.052,.421-.132,.103-.081,.172-.176,.206-.29,.034-.111,.05-.355,.05-.73v-2.755c0-.58-.022-.943-.068-1.09-.046-.146-.122-.259-.229-.342-.108-.083-.223-.124-.346-.124-.184,0-.35,.048-.501,.144-.215,.143-.443,.385-.686,.727v3.44c0,.453,.045,.752,.134,.895,.089,.144,.276,.23,.559,.257v.246h-3.304v-.246c.27-.027,.461-.113,.575-.259,.078-.102,.117-.399,.117-.893v-3.618c0-.485-.044-.786-.133-.905-.09-.119-.276-.197-.559-.234v-.253h2.611" fill="#fff"/><path d="M89.291,60.682h-3.516c.041,.849,.267,1.52,.678,2.014,.316,.379,.695,.569,1.138,.569,.274,0,.524-.076,.747-.229,.225-.154,.464-.429,.721-.826l.232,.151c-.346,.709-.731,1.209-1.151,1.503-.421,.295-.907,.444-1.46,.444-.951,0-1.671-.367-2.16-1.098-.393-.59-.589-1.32-.589-2.192,0-1.071,.289-1.921,.867-2.555,.578-.633,1.255-.949,2.032-.949,.65,0,1.212,.266,1.69,.799,.477,.533,.735,1.322,.771,2.369m-1.686-.46c0-.735-.04-1.241-.12-1.515-.079-.274-.204-.482-.373-.624-.096-.083-.224-.124-.384-.124-.238,0-.433,.117-.583,.35-.27,.407-.405,.965-.405,1.674v.239h1.865Z" fill="#fff"/><path d="M23.179,71.38v3.529c.539-.556,1.129-.836,1.769-.836,.438,0,.852,.129,1.24,.387,.388,.26,.692,.625,.912,1.102,.22,.474,.329,1.023,.329,1.644,0,.699-.14,1.334-.418,1.906-.279,.571-.651,1.006-1.117,1.307-.467,.299-.999,.447-1.598,.447-.347,0-.656-.054-.926-.164-.269-.109-.534-.287-.795-.535l-1.062,.694h-.233v-8.151c0-.371-.016-.599-.048-.685-.046-.129-.118-.225-.216-.286-.099-.062-.264-.097-.497-.107v-.252h2.66m0,4.141v2.851c0,.58,.014,.951,.041,1.11,.045,.269,.155,.488,.329,.656,.174,.166,.395,.25,.665,.25,.233,0,.433-.067,.6-.199,.167-.133,.305-.395,.418-.789,.112-.393,.168-1.102,.168-2.125,0-.983-.123-1.657-.37-2.022-.179-.266-.418-.398-.72-.398-.394,0-.771,.222-1.131,.666Z" fill="#fff"/><path d="M31.165,74.265v1.453c.425-.662,.798-1.102,1.117-1.318,.321-.217,.629-.327,.926-.327,.256,0,.461,.079,.614,.237,.153,.158,.23,.381,.23,.668,0,.306-.075,.545-.224,.713-.148,.17-.327,.254-.538,.254-.242,0-.452-.079-.631-.233-.177-.156-.283-.242-.314-.26l-.158-.043c-.133,0-.258,.051-.377,.153-.188,.154-.329,.377-.425,.664-.146,.443-.22,.931-.22,1.467v1.474l.007,.383c0,.262,.017,.428,.048,.502,.055,.123,.136,.213,.244,.269,.107,.059,.288,.094,.545,.108v.246h-3.463v-.246c.279-.024,.468-.1,.567-.231,.097-.13,.147-.474,.147-1.031v-3.545c0-.365-.019-.597-.056-.699-.045-.127-.111-.221-.198-.281-.087-.059-.24-.1-.46-.123v-.254h2.619" fill="#fff"/><path d="M37.76,74.073c.558,0,1.076,.145,1.557,.432,.479,.289,.843,.697,1.092,1.227,.249,.531,.374,1.111,.374,1.742,0,.91-.23,1.67-.692,2.283-.558,.74-1.328,1.109-2.31,1.109-.964,0-1.707-.337-2.228-1.013s-.782-1.461-.782-2.352c0-.918,.266-1.719,.799-2.402,.532-.684,1.262-1.026,2.19-1.026m.027,.487c-.232,0-.432,.088-.599,.263-.167,.176-.277,.524-.329,1.043-.053,.518-.079,1.241-.079,2.163,0,.49,.032,.947,.096,1.371,.05,.324,.157,.572,.323,.74,.164,.17,.351,.254,.561,.254,.206,0,.377-.057,.515-.172,.177-.154,.297-.371,.356-.651,.091-.433,.137-1.312,.137-2.632,0-.778-.043-1.311-.13-1.6-.087-.291-.215-.502-.384-.635-.119-.095-.274-.144-.467-.144Z" fill="#fff"/><path d="M44.39,71.38v6.113l1.487-1.459c.307-.297,.497-.511,.572-.644,.077-.133,.114-.26,.114-.385,0-.123-.05-.225-.151-.309-.1-.082-.297-.14-.589-.177v-.254h2.873v.254c-.275,.013-.515,.08-.721,.195-.205,.117-.608,.467-1.206,1.053l-.699,.685,1.507,2.207c.609,.897,.969,1.399,1.083,1.508,.156,.156,.353,.242,.59,.262v.246h-3.311v-.246c.146,0,.253-.027,.319-.082l.1-.18c0-.103-.097-.299-.288-.582l-1.269-1.857-.411,.404v1.152c0,.489,.046,.793,.137,.914,.091,.122,.279,.198,.562,.231v.246h-3.311v-.246c.269-.027,.462-.115,.576-.262,.078-.099,.116-.394,.116-.883v-6.513c0-.485-.044-.785-.134-.905-.089-.119-.275-.197-.558-.234v-.252h2.612" fill="#fff"/><path d="M54.77,77.241h-3.517c.041,.85,.268,1.522,.679,2.016,.315,.379,.694,.568,1.138,.568,.274,0,.523-.076,.747-.23,.224-.152,.464-.428,.72-.826l.233,.152c-.347,.707-.732,1.209-1.152,1.504-.42,.295-.907,.441-1.46,.441-.951,0-1.67-.365-2.16-1.095-.392-.59-.589-1.321-.589-2.194,0-1.07,.29-1.922,.868-2.554,.578-.633,1.255-.95,2.032-.95,.649,0,1.212,.266,1.689,.799,.478,.533,.736,1.323,.772,2.369m-1.687-.461c0-.734-.04-1.24-.12-1.513-.079-.276-.204-.483-.373-.625-.096-.082-.224-.123-.384-.123-.238,0-.432,.117-.583,.349-.269,.407-.404,.965-.404,1.674v.238h1.864Z" fill="#fff"/><path d="M62.106,74.073c.557,0,1.076,.145,1.556,.432,.48,.289,.844,.697,1.093,1.227,.249,.531,.374,1.111,.374,1.742,0,.91-.23,1.67-.692,2.283-.558,.74-1.328,1.109-2.311,1.109-.964,0-1.707-.337-2.227-1.013-.522-.676-.783-1.461-.783-2.352,0-.918,.267-1.719,.799-2.402,.533-.684,1.263-1.026,2.191-1.026m.027,.487c-.232,0-.433,.088-.6,.263-.167,.176-.276,.524-.329,1.043-.052,.518-.079,1.241-.079,2.163,0,.49,.032,.947,.097,1.371,.05,.324,.157,.572,.322,.74,.164,.17,.352,.254,.562,.254,.206,0,.377-.057,.514-.172,.178-.154,.297-.371,.357-.651,.091-.433,.137-1.312,.137-2.632,0-.778-.043-1.311-.13-1.6-.087-.291-.215-.502-.384-.635-.119-.095-.275-.144-.467-.144Z" fill="#fff"/><path d="M72.292,74.265v5.019c0,.489,.046,.793,.138,.914,.091,.122,.276,.198,.555,.231v.246h-2.612v-.857c-.306,.367-.612,.632-.919,.798-.305,.168-.648,.25-1.028,.25-.361,0-.682-.109-.963-.332-.281-.22-.47-.48-.565-.777-.097-.297-.145-.816-.145-1.557v-2.543c0-.484-.044-.787-.134-.906-.088-.117-.275-.195-.558-.232v-.254h2.612v4.381c0,.457,.022,.752,.066,.884,.043,.133,.111,.233,.205,.301,.093,.069,.202,.104,.326,.104,.164,0,.312-.043,.445-.131,.183-.117,.402-.358,.658-.719v-3.428c0-.484-.045-.787-.133-.906-.089-.117-.276-.195-.559-.232v-.254h2.611" fill="#fff"/><path d="M76.454,71.921v2.344h1.522v.68h-1.522v3.955c0,.371,.017,.609,.051,.716,.035,.108,.096,.194,.182,.26l.24,.1c.297,0,.578-.227,.844-.678l.205,.15c-.37,.877-.971,1.317-1.803,1.317-.407,0-.751-.113-1.032-.34-.28-.227-.46-.479-.538-.758-.045-.154-.069-.576-.069-1.262v-3.46h-.835v-.241c.575-.406,1.065-.834,1.47-1.281,.405-.449,.757-.949,1.059-1.502h.226" fill="#fff"/><path d="M79.867,78.564c.321,0,.591,.111,.813,.336,.222,.224,.332,.494,.332,.808,0,.317-.111,.584-.336,.807-.224,.221-.493,.332-.809,.332-.315,0-.584-.111-.805-.332-.222-.223-.332-.49-.332-.807,0-.314,.11-.584,.332-.808,.221-.225,.49-.336,.805-.336" fill="#fff"/></g></svg>