<?xml version="1.0" encoding="UTF-8"?><svg id="a" xmlns="http://www.w3.org/2000/svg" xmlns:xlink="http://www.w3.org/1999/xlink" viewBox="0 0 102.574 103.905"><defs><clipPath id="c"><path d="M51.5478,103.6696c28.83,0,50.538-22.039,50.538-50.869S80.7118,.2636,51.8818,.2636,.0108,23.6366,.0108,52.4666s22.706,51.203,51.537,51.203" fill="#fff"/></clipPath></defs><g id="b"><g><path d="M51.5478,103.6696c28.83,0,50.538-22.039,50.538-50.869S80.7118,.2636,51.8818,.2636,.0108,23.6366,.0108,52.4666s22.706,51.203,51.537,51.203" fill="#fff"/><g clip-path="url(#c)"><path d="M51.0468,114.1926c34.367,0,62.227-27.859,62.227-62.225S85.4138-10.2574,51.0468-10.2574-11.1772,17.6016-11.1772,51.9676s27.859,62.225,62.224,62.225" fill="#fff"/></g></g><path d="M51.787,103.655v.25c14.479,.001,27.181-5.536,36.257-14.697,9.078-9.16,14.53-21.944,14.53-36.422s-5.367-27.673-14.358-37.251C79.225,5.958,66.605-.001,52.121,0,37.637,0,24.604,5.872,15.196,15.364,5.787,24.856,0,37.97,0,52.452c-.001,14.482,5.704,27.349,15.031,36.591,9.326,9.243,22.275,14.863,36.756,14.862v-.5c-28.699-.003-51.285-22.258-51.287-50.953C.5,23.758,23.428,.5,52.121,.5c28.684,.001,49.948,23.578,49.953,52.286-.006,28.701-21.59,50.614-50.287,50.619v.25" fill="#231f20"/><path d="M34.408,30.638v.241c-.165,.013-.304,.059-.417,.137-.112,.077-.212,.197-.299,.357-.026,.052-.163,.389-.41,1.01l-2.768,7.288h-.254l-2.188-5.692-2.41,5.692h-.241l-2.905-7.21c-.295-.725-.501-1.164-.619-1.315-.116-.152-.314-.242-.593-.267v-.241h3.83v.241c-.308,.008-.513,.055-.615,.14-.102,.085-.153,.189-.153,.315,0,.165,.106,.516,.319,1.049l1.732,4.285,1.387-3.348-.364-.937c-.2-.513-.354-.854-.463-1.026-.108-.171-.233-.293-.374-.368-.141-.074-.348-.11-.622-.11v-.241h4.279v.241c-.3,.004-.515,.027-.645,.071-.091,.031-.163,.082-.215,.154-.052,.071-.078,.153-.078,.244,0,.099,.097,.406,.293,.918l1.609,4.181,1.439-3.784c.152-.39,.245-.658,.28-.801s.052-.276,.052-.398c0-.177-.061-.317-.182-.419-.121-.103-.354-.158-.697-.166v-.241h2.292" fill="#532d6d"/><path d="M40.133,36.206h-3.341c.039,.807,.254,1.445,.645,1.915,.3,.36,.659,.54,1.081,.54,.26,0,.497-.073,.709-.219,.214-.144,.441-.406,.685-.784l.221,.144c-.33,.673-.695,1.149-1.094,1.43-.4,.28-.862,.419-1.387,.419-.904,0-1.587-.347-2.052-1.043-.373-.559-.56-1.253-.56-2.083,0-1.016,.275-1.825,.825-2.426,.548-.601,1.191-.902,1.93-.902,.617,0,1.151,.252,1.605,.759,.454,.506,.698,1.255,.733,2.25m-1.602-.436c0-.7-.039-1.179-.115-1.44-.074-.261-.194-.457-.354-.593-.091-.078-.212-.117-.364-.117-.227,0-.412,.111-.554,.332-.257,.387-.384,.917-.384,1.59v.228h1.771Z" fill="#532d6d"/><path d="M42.484,34.767h-.313l-.684-2.489c-.086-.307-.13-.592-.13-.853,0-.281,.092-.518,.277-.706,.185-.189,.412-.283,.681-.283,.308,0,.545,.099,.712,.299,.168,.2,.252,.416,.252,.652,0,.195-.05,.49-.15,.886l-.645,2.494" fill="#532d6d"/><path d="M47.169,33.379v1.382c.403-.63,.758-1.048,1.061-1.255,.305-.206,.598-.309,.879-.309,.244,0,.439,.075,.583,.225,.146,.149,.219,.361,.219,.6349,0,.291-.071,.516-.212,.676-.141,.162-.311,.242-.512,.242-.23,0-.429-.074-.599-.221-.168-.148-.269-.23-.299-.248l-.151-.039c-.125,0-.244,.048-.357,.143-.178,.148-.312,.358-.403,.632-.14,.421-.209,.886-.209,1.394v1.4l.007,.364c0,.248,.015,.407,.044,.476,.053,.118,.129,.203,.233,.257,.101,.055,.273,.088,.517,.101v.235h-3.291v-.235c.266-.021,.446-.094,.54-.218,.092-.123,.14-.45,.14-.98v-3.367c0-.348-.017-.569-.053-.665-.043-.121-.106-.21-.189-.267-.082-.055-.229-.094-.438-.1169v-.241h2.49" fill="#532d6d"/><path d="M55.626,36.206h-3.341c.039,.807,.254,1.445,.644,1.915,.301,.36,.661,.54,1.082,.54,.26,0,.497-.073,.709-.219,.213-.144,.442-.406,.685-.784l.221,.144c-.329,.673-.695,1.149-1.094,1.43-.399,.28-.862,.419-1.387,.419-.903,0-1.587-.347-2.051-1.043-.374-.559-.561-1.253-.561-2.083,0-1.016,.275-1.825,.824-2.426,.549-.601,1.193-.902,1.931-.902,.617,0,1.151,.252,1.604,.759,.455,.506,.7,1.255,.734,2.25m-1.603-.436c0-.7-.037-1.179-.113-1.44-.075-.261-.194-.457-.355-.593-.09-.078-.211-.117-.364-.117-.226,0-.412,.111-.555,.332-.255,.387-.383,.917-.383,1.59v.228h1.77Z" fill="#532d6d"/><path d="M63.084,38.569c-.742,.657-1.409,.984-1.999,.984-.348,0-.636-.113-.866-.341-.231-.229-.346-.515-.346-.856,0-.465,.199-.883,.599-1.254,.399-.371,1.27-.866,2.612-1.483v-.612c0-.46-.026-.749-.074-.869-.051-.119-.146-.2241-.284-.313-.139-.089-.297-.134-.469-.134-.283,0-.515,.064-.697,.19-.113,.078-.17,.169-.17,.273,0,.091,.061,.204,.182,.339,.166,.187,.248,.366,.248,.54,0,.213-.08,.395-.237,.545-.159,.15-.366,.225-.622,.225-.274,0-.503-.083-.688-.248-.183-.165-.277-.359-.277-.58,0-.313,.125-.611,.371-.896,.248-.284,.594-.503,1.037-.654,.442-.151,.902-.228,1.381-.228,.576,0,1.033,.122,1.369,.368,.338,.246,.555,.511,.656,.7971,.06,.183,.09,.603,.09,1.257v2.364c0,.279,.012,.454,.033,.526l.098,.159,.15,.052c.113,0,.228-.08,.344-.241l.196,.156c-.216,.322-.441,.555-.674,.7-.232,.146-.495,.218-.791,.218-.347,0-.62-.08-.814-.243-.196-.163-.315-.41-.358-.741m0-.474v-2.038c-.526,.307-.916,.636-1.172,.989-.17,.234-.255,.471-.255,.71,0,.199,.073,.376,.216,.527,.107,.117,.26,.176,.455,.176,.217,0,.469-.121,.756-.364Z" fill="#532d6d"/><path d="M68.709,30.638v7.567c0,.43,.049,.704,.149,.824,.101,.12,.295,.188,.587,.205v.235h-3.289v-.235c.269-.008,.469-.086,.6-.234,.086-.1,.129-.365,.129-.795v-6.304c0-.425-.05-.698-.149-.817-.1-.12-.293-.188-.58-.205v-.241h2.553" fill="#532d6d"/><path d="M73.92,33.21l.097,2.077h-.22c-.266-.616-.54-1.037-.825-1.263-.285-.225-.567-.338-.849-.338-.178,0-.33,.059-.457,.178-.125,.12-.188,.258-.188,.414,0,.117,.043,.23,.13,.338,.14,.179,.528,.484,1.166,.915,.638,.433,1.058,.8,1.26,1.102,.202,.302,.303,.639,.303,1.012,0,.338-.085,.67-.253,.997-.17,.325-.408,.575-.718,.749-.308,.174-.648,.2599-1.022,.2599-.291,0-.679-.091-1.166-.2729-.13-.049-.219-.072-.266-.072-.144,0-.264,.109-.36,.326h-.214l-.104-2.189h.222c.194,.574,.463,1.0031,.804,1.29s.663,.429,.966,.429c.209,0,.379-.063,.512-.191s.199-.283,.199-.466c0-.209-.065-.389-.195-.541-.131-.151-.422-.381-.873-.69-.664-.46-1.094-.812-1.289-1.0551-.287-.357-.43-.749-.43-1.179,0-.469,.161-.892,.485-1.273,.323-.379,.791-.57,1.402-.57,.331,0,.65,.08,.958,.241,.118,.065,.214,.098,.286,.098l.189-.05c.048-.032,.124-.124,.229-.276h.221" fill="#532d6d"/><path d="M78.08,33.1971c.529,0,1.022,.137,1.478,.41,.456,.274,.802,.663,1.039,1.167,.237,.503,.356,1.054,.356,1.654,0,.863-.22,1.586-.658,2.168-.53,.703-1.262,1.055-2.196,1.055-.916,0-1.621-.322-2.116-.963-.495-.643-.743-1.388-.743-2.235,0-.873,.254-1.634,.759-2.283,.506-.648,1.2-.973,2.081-.973m.025,.462c-.22,0-.41,.084-.568,.251-.159,.1671-.264,.497-.314,.989-.049,.495-.075,1.179-.075,2.055,0,.465,.031,.9,.092,1.303,.048,.309,.15,.543,.307,.703,.156,.162,.334,.241,.533,.241,.195,0,.358-.053,.488-.162,.17-.147,.283-.354,.34-.619,.086-.412,.129-1.245,.129-2.501,0-.737-.041-1.245-.123-1.52-.082-.276-.204-.477-.364-.602-.114-.092-.261-.138-.445-.138Z" fill="#532d6d"/><path d="M21.518,55.0411l-1.667-4.468-1.635,4.468h-.339l-1.621-4.416c-.244-.672-.45-1.111-.619-1.315-.108-.14-.274-.239-.496-.3v-.24h3.075v.24c-.209,0-.351,.031-.431,.092l-.116,.208c0,.074,.069,.296,.208,.665l.892,2.377,.86-2.377-.065-.157c-.13-.326-.244-.533-.343-.623-.097-.088-.248-.15-.452-.185v-.24h3.12v.24c-.243,.014-.397,.047-.462,.101-.066,.054-.099,.131-.099,.231,0,.0959,.064,.3069,.19,.633l.86,2.377,.781-2.189c.113-.312,.169-.526,.169-.638,0-.169-.041-.293-.124-.373-.082-.077-.243-.125-.481-.142v-.24h1.804v.24c-.2,.026-.359,.097-.475,.212-.118,.115-.27,.441-.457,.98l-1.706,4.839h-.371" fill="#532d6d"/><path d="M28.5,53.959c-.743,.656-1.409,.984-1.999,.984-.348,0-.637-.114-.867-.341-.23-.229-.345-.514-.345-.857,0-.465,.2-.883,.599-1.254,.399-.371,1.27-.864,2.612-1.481v-.613c0-.459-.025-.749-.075-.87-.05-.119-.145-.222-.283-.312-.139-.089-.296-.133-.469-.133-.283,0-.515,.063-.697,.19-.113,.077-.169,.168-.169,.2729,0,.09,.06,.203,.182,.338,.165,.187,.248,.367,.248,.54,0,.214-.08,.394-.238,.545-.159,.149-.366,.224-.623,.224-.273,0-.503-.083-.686-.248-.185-.165-.278-.358-.278-.579,0-.313,.125-.611,.371-.896,.248-.284,.593-.502,1.037-.654,.442-.152,.902-.228,1.38-.228,.577,0,1.035,.1219,1.371,.368,.336,.245,.554,.511,.654,.797,.061,.184,.092,.603,.092,1.258v2.363c0,.278,.01,.453,.032,.526l.098,.16,.149,.05c.114,0,.229-.08,.346-.24l.195,.155c-.217,.323-.441,.555-.674,.701-.232,.146-.495,.218-.791,.218-.348,0-.619-.081-.814-.244-.196-.162-.315-.409-.358-.7401m0-.475v-2.038c-.526,.308-.917,.638-1.173,.9901-.169,.2339-.254,.47-.254,.711,0,.199,.072,.375,.215,.526,.109,.118,.261,.177,.456,.177,.217,0,.469-.122,.756-.366Z" fill="#532d6d"/><path d="M34.146,48.77v4.826c0,.428,.049,.703,.15,.823,.1,.12,.295,.188,.586,.205v.234h-3.289v-.234c.269-.009,.468-.087,.599-.233,.087-.101,.13-.367,.13-.795v-3.557c0-.43-.05-.704-.149-.824-.1-.119-.293-.188-.58-.205v-.24h2.553m-.912-2.951c.282,0,.521,.099,.716,.297,.196,.198,.293,.435,.293,.712,0,.2791-.099,.515-.295,.711-.198,.194-.437,.2921-.714,.2921-.278,0-.515-.098-.709-.2921-.196-.196-.294-.4319-.294-.711,0-.277,.098-.514,.294-.712,.194-.198,.431-.297,.709-.297Z" fill="#532d6d"/><path d="M37.93,46.5411v2.229h1.446v.644h-1.446v3.758c0,.352,.016,.579,.049,.68,.033,.1021,.091,.185,.172,.248l.228,.094c.282,0,.549-.215,.802-.645l.195,.143c-.352,.834-.923,1.251-1.713,1.251-.387,0-.713-.107-.981-.322-.266-.215-.437-.455-.511-.72-.042-.147-.065-.547-.065-1.198v-3.289h-.794v-.227c.547-.388,1.012-.792,1.397-1.218,.385-.426,.719-.902,1.006-1.428h.215" fill="#532d6d"/><path d="M42.227,48.77v4.826c0,.428,.049,.703,.149,.823,.1,.12,.295,.188,.586,.205v.234h-3.288v-.234c.269-.009,.468-.087,.599-.233,.086-.101,.13-.367,.13-.795v-3.557c0-.43-.05-.704-.15-.824-.1-.119-.293-.188-.579-.205v-.24h2.553m-.912-2.951c.282,0,.52,.099,.716,.297s.293,.435,.293,.712c0,.2791-.099,.515-.296,.711-.198,.194-.436,.2921-.713,.2921-.279,0-.515-.098-.71-.2921-.196-.196-.293-.4319-.293-.711,0-.277,.097-.514,.293-.712,.195-.198,.431-.297,.71-.297Z" fill="#532d6d"/><path d="M46.084,48.7701v.788c.312-.3391,.611-.585,.898-.7401,.287-.154,.595-.231,.925-.231,.395,0,.724,.11,.983,.329,.26,.219,.435,.491,.521,.816,.069,.249,.104,.723,.104,1.428v2.37c0,.468,.043,.761,.127,.876,.085,.116,.262,.188,.532,.218v.234h-3.081v-.234c.229-.03,.395-.126,.495-.286,.068-.109,.104-.379,.104-.808v-2.709c0-.501-.019-.815-.058-.944-.04-.131-.107-.232-.199-.304-.093-.071-.197-.107-.31-.107-.373,0-.721,.266-1.041,.802v3.262c0,.455,.042,.745,.127,.867,.084,.121,.242,.197,.471,.227v.234h-3.081v-.234c.256-.026,.438-.108,.547-.247,.074-.096,.111-.379,.111-.847v-3.439c0-.46-.042-.747-.127-.859-.085-.113-.261-.187-.531-.222v-.24h2.483" fill="#532d6d"/><path d="M54.921,48.842h2.051v.716h-1.166c.213,.212,.362,.405,.444,.579,.104,.234,.156,.48,.156,.736,0,.434-.121,.811-.361,1.13-.241,.319-.569,.569-.985,.749-.414,.18-.781,.27-1.103,.27-.026,0-.285-.01-.781-.033-.196,0-.36,.064-.492,.193-.132,.127-.198,.281-.198,.459,0,.156,.059,.285,.179,.383,.12,.101,.313,.151,.583,.151l1.127-.013c.912,0,1.539,.1,1.881,.299,.491,.277,.736,.705,.736,1.283,0,.369-.113,.705-.338,1.006-.227,.303-.523,.524-.893,.668-.56,.213-1.205,.319-1.934,.319-.548,0-1.046-.053-1.498-.159-.451-.107-.775-.254-.971-.443-.194-.19-.292-.387-.292-.596,0-.199,.074-.379,.225-.537,.149-.159,.428-.293,.837-.401-.566-.278-.847-.664-.847-1.16,0-.298,.114-.589,.345-.873,.229-.281,.594-.527,1.094-.734-.583-.213-1.002-.493-1.263-.842-.261-.345-.391-.748-.391-1.205,0-.594,.243-1.109,.729-1.546,.486-.436,1.112-.654,1.877-.654,.403,0,.82,.085,1.249,.255m-1.511,6.916c-.443,0-.736,.036-.879,.11-.248,.134-.371,.318-.371,.548,0,.2209,.128,.422,.385,.602,.256,.179,.738,.269,1.445,.269,.604,0,1.078-.08,1.422-.24,.346-.16,.518-.387,.518-.678,0-.1071-.032-.199-.097-.273-.116-.131-.294-.219-.531-.267-.236-.048-.867-.071-1.892-.071Zm.385-6.768c-.252,0-.465,.127-.639,.382-.174,.253-.26,.78-.26,1.579,0,.647,.086,1.091,.256,1.332,.172,.241,.375,.362,.609,.362,.262,0,.479-.1201,.653-.359,.173-.239,.26-.704,.26-1.393,0-.778-.098-1.307-.293-1.59-.139-.208-.334-.313-.586-.313Z" fill="#532d6d"/><path d="M63.728,49.407v4.227c0,.408,.043,.665,.129,.768,.14,.162,.397,.235,.769,.222v.234h-3.589v-.234c.274-.004,.469-.0359,.584-.095,.115-.058,.193-.138,.238-.244,.043-.103,.065-.32,.065-.651v-4.227h-.887v-.637h.887v-.45l-.007-.306c0-.625,.229-1.147,.687-1.563,.458-.417,1.077-.626,1.86-.626,.533,0,.929,.101,1.188,.3,.258,.199,.388,.421,.388,.664,0,.195-.081,.365-.241,.508-.161,.143-.374,.215-.639,.215-.225,0-.404-.059-.537-.176-.133-.116-.198-.247-.198-.391,0-.039,.012-.119,.039-.2401l.026-.209c0-.091-.026-.158-.078-.201-.07-.066-.154-.099-.254-.099-.127,0-.231,.053-.316,.158-.085,.103-.127,.27-.127,.5l.013,1.14v.776h.898v.637h-.898" fill="#532d6d"/><path d="M68.238,48.5871c.529,0,1.022,.137,1.479,.41,.455,.275,.8,.663,1.038,1.166,.236,.504,.354,1.056,.354,1.654,0,.865-.219,1.587-.657,2.168-.53,.705-1.262,1.056-2.194,1.056-.916,0-1.622-.322-2.118-.963-.495-.643-.742-1.388-.742-2.234,0-.873,.253-1.635,.758-2.283,.506-.649,1.2-.974,2.082-.974m.025,.462c-.22,0-.41,.084-.569,.251-.159,.1671-.263,.497-.313,.989-.049,.494-.075,1.179-.075,2.055,0,.465,.031,.899,.092,1.303,.047,.309,.149,.543,.307,.703,.155,.162,.334,.242,.533,.242,.195,0,.357-.0551,.488-.162,.169-.149,.283-.356,.339-.619,.087-.413,.13-1.246,.13-2.502,0-.738-.041-1.244-.123-1.52-.083-.275-.205-.477-.365-.602-.113-.092-.26-.138-.444-.138Z" fill="#532d6d"/><path d="M74.588,48.7701v1.38c.404-.629,.757-1.046,1.061-1.253,.304-.207,.598-.31,.88-.31,.242,0,.438,.074,.582,.225,.147,.149,.219,.362,.219,.634,0,.291-.07,.517-.212,.677-.142,.162-.312,.2419-.511,.2419-.23,0-.43-.074-.599-.22-.169-.149-.27-.231-.299-.248l-.151-.04c-.126,0-.245,.047-.357,.143-.179,.148-.314,.357-.404,.632-.139,.421-.209,.886-.209,1.393v1.401l.006,.365c0,.246,.016,.405,.046,.475,.051,.118,.129,.203,.232,.2581,.1,.054,.273,.087,.517,.1v.234h-3.29v-.234c.266-.021,.446-.095,.539-.218,.092-.124,.14-.45,.14-.98v-3.367c0-.348-.017-.569-.054-.664-.042-.122-.105-.211-.187-.268-.082-.056-.229-.095-.438-.117v-.24h2.489" fill="#532d6d"/><path d="M84.556,53.959c-.743,.656-1.409,.984-1.999,.984-.348,0-.636-.114-.866-.341-.23-.229-.346-.514-.346-.857,0-.465,.2-.883,.6-1.254,.399-.371,1.27-.864,2.611-1.481v-.613c0-.459-.025-.749-.075-.87-.05-.119-.144-.222-.282-.312-.14-.089-.297-.133-.471-.133-.281,0-.513,.063-.696,.19-.112,.077-.169,.168-.169,.2729,0,.09,.061,.203,.182,.338,.166,.187,.248,.367,.248,.54,0,.214-.08,.394-.238,.545-.159,.149-.366,.224-.622,.224-.274,0-.504-.083-.687-.248-.184-.165-.277-.358-.277-.579,0-.313,.125-.611,.371-.896,.248-.284,.593-.502,1.037-.654,.441-.152,.902-.228,1.38-.228,.577,0,1.034,.1219,1.37,.368,.337,.245,.554,.511,.655,.797,.061,.184,.091,.603,.091,1.258v2.363c0,.278,.012,.453,.033,.526l.098,.16,.149,.05c.113,0,.228-.08,.345-.24l.196,.155c-.218,.323-.442,.555-.675,.701-.232,.146-.495,.218-.791,.218-.347,0-.619-.081-.814-.244-.195-.162-.315-.409-.358-.7401m0-.475v-2.038c-.525,.308-.916,.638-1.172,.9901-.169,.2339-.254,.47-.254,.711,0,.199,.072,.375,.215,.526,.108,.118,.26,.177,.456,.177,.216,0,.468-.122,.755-.366Z" fill="#532d6d"/><path d="M12.376,64.332l.097,2.078h-.22c-.266-.616-.54-1.037-.825-1.263-.284-.226-.567-.339-.849-.339-.178,0-.33,.059-.457,.178-.126,.121-.188,.258-.188,.414,0,.118,.043,.231,.13,.339,.139,.178,.528,.484,1.166,.915,.638,.432,1.058,.799,1.26,1.101s.302,.64,.302,1.013c0,.338-.084,.67-.253,.996-.17,.326-.408,.576-.717,.75-.308,.173-.648,.26-1.022,.26-.29,0-.68-.092-1.165-.274-.131-.048-.22-.072-.268-.072-.143,0-.262,.109-.358,.326h-.215l-.104-2.188h.222c.195,.573,.463,1.002,.804,1.29,.34,.287,.663,.429,.967,.429,.208,0,.378-.064,.511-.192,.132-.128,.198-.282,.198-.466,0-.209-.065-.389-.194-.541-.131-.15-.421-.381-.874-.689-.664-.461-1.093-.813-1.289-1.055-.287-.358-.429-.749-.429-1.18,0-.469,.161-.892,.485-1.273,.323-.379,.791-.569,1.402-.569,.331,0,.65,.079,.958,.241,.118,.065,.213,.097,.287,.097l.189-.049c.047-.033,.123-.125,.228-.277h.221" fill="#532d6d"/><path d="M18.903,67.328h-3.341c.039,.807,.254,1.446,.644,1.915,.3,.361,.66,.541,1.081,.541,.261,0,.497-.073,.71-.219,.213-.145,.441-.407,.685-.785l.221,.144c-.33,.673-.695,1.149-1.094,1.43-.4,.28-.862,.42-1.387,.42-.904,0-1.588-.348-2.053-1.043-.372-.559-.559-1.254-.559-2.083,0-1.017,.275-1.826,.824-2.427,.549-.601,1.192-.901,1.931-.901,.616,0,1.151,.252,1.605,.758,.453,.506,.698,1.256,.733,2.25m-1.602-.435c0-.7-.039-1.18-.115-1.441-.075-.261-.194-.457-.354-.593-.091-.078-.213-.117-.365-.117-.226,0-.411,.112-.554,.332-.256,.387-.384,.917-.384,1.59v.229h1.772Z" fill="#532d6d"/><path d="M24.634,69.022l.201,.156c-.286,.539-.643,.939-1.071,1.201-.428,.264-.882,.395-1.364,.395-.812,0-1.461-.306-1.947-.918-.486-.613-.73-1.348-.73-2.208,0-.83,.222-1.559,.665-2.189,.533-.76,1.269-1.139,2.207-1.139,.63,0,1.13,.159,1.501,.475,.372,.316,.558,.67,.558,1.061,0,.248-.076,.445-.225,.593-.15,.147-.347,.221-.59,.221-.256,0-.468-.084-.635-.254-.167-.168-.271-.471-.309-.905-.027-.273-.09-.464-.189-.572-.1-.109-.217-.164-.351-.164-.209,0-.387,.111-.535,.332-.225,.335-.338,.847-.338,1.538,0,.573,.091,1.121,.273,1.644,.182,.5229,.432,.912,.749,1.17,.238,.186,.521,.279,.847,.279,.212,0,.415-.049,.606-.15,.19-.1,.416-.288,.677-.566" fill="#532d6d"/><path d="M28.363,64.3201c.529,0,1.022,.136,1.479,.41,.455,.274,.801,.663,1.038,1.1671,.236,.502,.355,1.054,.355,1.653,0,.864-.219,1.587-.658,2.169-.529,.703-1.262,1.055-2.195,1.055-.915,0-1.621-.322-2.116-.963-.495-.644-.743-1.389-.743-2.235,0-.873,.253-1.634,.759-2.283,.505-.648,1.199-.973,2.081-.973m.025,.461c-.22,0-.41,.084-.569,.251-.159,.168-.263,.497-.313,.9901-.05,.494-.075,1.178-.075,2.055,0,.464,.031,.9,.092,1.302,.048,.31,.15,.543,.306,.703,.156,.162,.334,.242,.534,.242,.195,0,.358-.054,.488-.162,.169-.148,.283-.355,.339-.619,.087-.413,.13-1.246,.13-2.502,0-.736-.041-1.244-.123-1.519-.083-.276-.205-.478-.365-.603-.113-.092-.26-.138-.444-.138Z" fill="#532d6d"/><path d="M34.688,64.5021v.788c.313-.3391,.612-.585,.899-.739s.594-.231,.925-.231c.394,0,.723,.11,.983,.329,.26,.218,.434,.491,.521,.816,.069,.248,.104,.723,.104,1.428v2.37c0,.468,.042,.761,.127,.876,.085,.115,.262,.187,.531,.218v.235h-3.08v-.235c.229-.031,.395-.126,.495-.287,.068-.109,.104-.379,.104-.807v-2.709c0-.5-.02-.815-.059-.945s-.105-.232-.198-.303c-.094-.072-.197-.108-.31-.108-.373,0-.721,.267-1.042,.802v3.263c0,.456,.043,.745,.127,.866,.085,.121,.242,.197,.472,.228v.235h-3.081v-.235c.256-.027,.439-.109,.548-.248,.074-.095,.11-.378,.11-.846v-3.44c0-.46-.042-.747-.126-.858-.085-.113-.262-.188-.532-.223v-.24h2.482" fill="#532d6d"/><path d="M45.54,61.76v7.0081c0,.473,.012,.753,.038,.839,.035,.143,.101,.25,.199,.32,.098,.069,.268,.113,.512,.13v.215l-2.574,.502v-.963c-.308,.373-.583,.627-.824,.761-.241,.134-.514,.202-.818,.202-.777,0-1.391-.348-1.843-1.043-.365-.564-.546-1.256-.546-2.077,0-.656,.112-1.244,.338-1.761,.226-.52,.535-.912,.928-1.176,.393-.265,.815-.397,1.267-.397,.291,0,.549,.056,.775,.168,.226,.114,.467,.311,.723,.593v-1.837c0-.464-.02-.744-.058-.84-.053-.125-.131-.218-.235-.279-.104-.06-.3-.092-.587-.092v-.273h2.705m-1.825,4.129c-.321-.616-.715-.924-1.18-.924-.16,0-.293,.043-.397,.129-.16,.135-.292,.371-.394,.711-.102,.338-.153,.857-.153,1.556,0,.768,.057,1.338,.17,1.705,.113,.37,.267,.637,.462,.802,.1,.083,.237,.124,.411,.124,.381,0,.742-.301,1.081-.899v-3.204Z" fill="#532d6d"/><path d="M55.301,69.022l.202,.156c-.286,.539-.644,.939-1.072,1.201-.427,.264-.882,.395-1.364,.395-.811,0-1.461-.306-1.947-.918-.485-.613-.73-1.348-.73-2.208,0-.83,.221-1.559,.664-2.189,.535-.76,1.27-1.139,2.207-1.139,.631,0,1.131,.159,1.502,.475,.372,.316,.557,.67,.557,1.061,0,.248-.074,.445-.224,.593-.15,.147-.346,.221-.59,.221-.256,0-.467-.084-.634-.254-.167-.168-.271-.471-.31-.905-.026-.273-.09-.464-.189-.572-.1-.109-.217-.164-.352-.164-.208,0-.386,.111-.533,.332-.227,.335-.34,.847-.34,1.538,0,.573,.092,1.121,.275,1.644,.181,.5229,.43,.912,.749,1.17,.238,.186,.521,.279,.846,.279,.212,0,.415-.049,.606-.15,.19-.1,.417-.288,.677-.566" fill="#532d6d"/><path d="M59.03,64.3201c.529,0,1.022,.136,1.479,.41,.456,.274,.801,.663,1.038,1.1671,.236,.502,.355,1.054,.355,1.653,0,.864-.219,1.587-.658,2.169-.529,.703-1.262,1.055-2.195,1.055-.915,0-1.622-.322-2.116-.963-.496-.644-.743-1.389-.743-2.235,0-.873,.253-1.634,.759-2.283,.506-.648,1.199-.973,2.081-.973m.026,.461c-.22,0-.412,.084-.57,.251-.158,.168-.263,.497-.312,.9901-.051,.494-.076,1.178-.076,2.055,0,.464,.031,.9,.092,1.302,.048,.31,.15,.543,.306,.703,.156,.162,.334,.242,.534,.242,.195,0,.358-.054,.489-.162,.168-.148,.282-.355,.338-.619,.086-.413,.13-1.246,.13-2.502,0-.736-.04-1.244-.123-1.519-.083-.276-.204-.478-.364-.603-.114-.092-.262-.138-.444-.138Z" fill="#532d6d"/><path d="M65.381,64.5021v.801c.334-.364,.643-.619,.927-.7661,.285-.144,.596-.217,.935-.217,.391,0,.718,.09,.983,.274,.265,.181,.469,.459,.613,.832,.346-.391,.68-.672,.999-.846s.652-.26,1-.26c.422,0,.756,.096,1.006,.289,.25,.194,.423,.439,.521,.736,.098,.298,.146,.772,.146,1.423v2.495c0,.468,.043,.76,.127,.873,.085,.112,.262,.186,.532,.221v.235h-3.147v-.235c.248-.022,.431-.118,.548-.287,.077-.117,.116-.386,.116-.807v-2.618c0-.543-.021-.888-.064-1.036s-.112-.257-.205-.33c-.094-.07-.203-.107-.328-.107-.188,0-.376,.068-.567,.205-.191,.138-.385,.343-.58,.616v3.27c0,.438,.037,.714,.109,.827,.101,.16,.292,.25,.575,.267v.235h-3.153v-.235c.17-.009,.303-.052,.401-.127,.097-.076,.163-.1671,.195-.273,.033-.107,.049-.338,.049-.694v-2.618c0-.551-.022-.897-.065-1.036-.044-.138-.117-.248-.218-.326-.102-.078-.211-.117-.328-.117-.175,0-.332,.045-.477,.137-.203,.1349-.421,.365-.65,.69v3.27c0,.428,.042,.714,.127,.849,.084,.136,.261,.218,.53,.245v.235h-3.139v-.235c.257-.027,.439-.109,.547-.248,.074-.095,.111-.378,.111-.846v-3.44c0-.46-.043-.747-.128-.858-.085-.113-.261-.188-.53-.223v-.24h2.482" fill="#532d6d"/><path d="M76.181,64.502v4.826c0,.429,.049,.703,.151,.823,.099,.121,.295,.189,.586,.2061v.235h-3.289v-.235c.269-.009,.468-.087,.599-.234,.086-.1,.129-.366,.129-.795v-3.556c0-.43-.049-.705-.148-.825-.101-.118-.293-.187-.58-.205v-.24h2.552m-.912-2.951c.283,0,.522,.099,.717,.297,.195,.198,.293,.435,.293,.713s-.1,.515-.296,.711c-.198,.195-.436,.292-.714,.292-.277,0-.513-.097-.709-.292-.195-.196-.293-.433-.293-.711s.098-.515,.293-.713c.196-.198,.432-.297,.709-.297Z" fill="#532d6d"/><path d="M80.037,64.5021v.788c.312-.3391,.613-.585,.899-.739,.286-.154,.595-.231,.925-.231,.395,0,.723,.11,.984,.329,.26,.218,.434,.491,.52,.816,.07,.248,.105,.723,.105,1.428v2.37c0,.468,.041,.761,.126,.876,.085,.115,.261,.187,.532,.218v.235h-3.081v-.235c.23-.031,.395-.126,.496-.287,.068-.109,.103-.379,.103-.807v-2.709c0-.5-.019-.815-.058-.945s-.106-.232-.2-.303c-.092-.072-.195-.108-.308-.108-.373,0-.721,.267-1.043,.802v3.263c0,.456,.043,.745,.127,.866,.085,.121,.242,.197,.472,.228v.235h-3.08v-.235c.256-.027,.438-.109,.547-.248,.074-.095,.111-.378,.111-.846v-3.44c0-.46-.042-.747-.126-.858-.086-.113-.262-.188-.532-.223v-.24h2.481" fill="#532d6d"/><path d="M88.875,64.574h2.052v.716h-1.166c.212,.212,.361,.405,.442,.579,.105,.235,.157,.481,.157,.737,0,.433-.12,.81-.362,1.129-.24,.3199-.569,.5699-.983,.749-.415,.18-.782,.27-1.104,.27-.026,0-.286-.01-.78-.032-.197,0-.36,.063-.493,.192-.132,.128-.199,.281-.199,.459,0,.156,.061,.285,.18,.384,.119,.1,.313,.15,.582,.15l1.127-.012c.912,0,1.54,.099,1.883,.298,.49,.278,.736,.7061,.736,1.2841,0,.369-.113,.705-.339,1.0049-.226,.303-.523,.525-.892,.668-.561,.213-1.205,.32-1.935,.32-.547,0-1.047-.054-1.498-.159-.451-.108-.775-.254-.971-.444-.194-.188-.292-.386-.292-.595,0-.2,.074-.379,.225-.538,.149-.159,.429-.293,.837-.4-.565-.278-.848-.665-.848-1.16,0-.299,.115-.59,.346-.872,.23-.282,.595-.528,1.095-.736-.583-.212-1.003-.493-1.264-.841-.261-.346-.391-.748-.391-1.205,0-.594,.243-1.11,.73-1.546,.486-.437,1.111-.654,1.875-.654,.404,0,.82,.084,1.25,.254m-1.51,6.916c-.443,0-.736,.0359-.88,.111-.247,.133-.371,.317-.371,.548,0,.22,.128,.421,.384,.601,.256,.18,.738,.27,1.447,.27,.603,0,1.076-.08,1.422-.241,.345-.16,.518-.386,.518-.676,0-.109-.034-.201-.098-.275-.117-.131-.294-.219-.531-.266-.237-.048-.868-.072-1.891-.072Zm.384-6.767c-.253,0-.465,.127-.638,.382-.174,.252-.262,.78-.262,1.579,0,.646,.087,1.09,.258,1.332,.172,.24,.375,.361,.61,.361,.259,0,.477-.119,.65-.358,.174-.239,.262-.704,.262-1.394,0-.777-.099-1.307-.293-1.59-.14-.208-.336-.312-.587-.312Z" fill="#532d6d"/><path d="M92.881,68.586c.304,0,.561,.105,.772,.318,.21,.213,.316,.469,.316,.769s-.106,.5551-.32,.765c-.212,.211-.469,.316-.768,.316s-.555-.105-.766-.316c-.21-.21-.314-.465-.314-.765s.104-.556,.314-.769c.211-.213,.467-.318,.766-.318" fill="#532d6d"/></g></svg>