<?xml version="1.0" encoding="UTF-8"?><svg id="a" xmlns="http://www.w3.org/2000/svg" xmlns:xlink="http://www.w3.org/1999/xlink" viewBox="0 0 102.073 103.405"><defs><clipPath id="c"><path d="M51.036,113.9275c34.366,0,62.227-27.86,62.227-62.225S85.402-10.5225,51.036-10.5225-11.19,17.3365-11.19,51.7025s27.86,62.225,62.226,62.225" fill="none"/></clipPath><clipPath id="d"><path d="M51.536,103.4045c28.83,0,50.537-22.039,50.537-50.869S80.7-.0005,51.87-.0005,0,23.3715,0,52.2015s22.706,51.203,51.536,51.203" fill="none"/></clipPath></defs><g id="b"><path d="M51.536,103.4045c28.83,0,50.537-22.039,50.537-50.869S80.7-.0005,51.87-.0005,0,23.3715,0,52.2015s22.706,51.203,51.536,51.203" fill="#f2682a"/><g clip-path="url(#c)"><g clip-path="url(#d)"><path d="M18.065,36.4445c-.173-.535-.189-1.036-.445-1.256-.274-.235-.775-.206-1.241-.305,.09-.644,.701-.945,1.059-1.42,.142-.189,.408-.362,.422-.556,.039-.62,.104-1.279-.07-1.855-.136-.454-.559-.139-.788,.082-.656,.638-1.287,1.301-1.932,1.95-.306,.312-.664,.586-.92,.935-.73,.993-1.718,1.107-2.934,.884,.345-.406,.638-.798,.976-1.14,1.685-1.704,3.369-3.408,5.078-5.083,.802-.784,.649-1.744,.582-2.68-.027-.395-.468-.445-.819-.099-1.166,1.158-2.318,2.326-3.475,3.49-.613,.619-1.221,1.242-1.834,1.86-1.154,1.171-2.303,2.344-3.471,3.496-.139,.138-.391,.207-.596,.22-.53,.029-1.062,.01-1.77,.01,.436-.491,.744-.872,1.087-1.218,2.891-2.915,5.784-5.825,8.693-8.719,.157-.156,.458-.205,.7-.228,.265-.025,.54,.073,.805,.052,.447-.036,.76-.264,.71-.762-.044-.449,.177-.694,.486-.985,1.194-1.129,2.342-2.305,3.514-3.461,.633-.621,1.279-1.231,1.927-1.854,.445,.302,.639,1.542,.237,2.069-.315,.412-.676,.794-1.046,1.156-1.177,1.145-2.368,2.276-3.577,3.431,.999,.722,2.453,.519,3.164-.301,.402-.467,.747-1.015,1.483-1.09,.202,1.078-.209,2.199,.302,3.39,.435-.41,.844-.721,1.156-1.109,.276-.344,.559-.5,.998-.467,.508,.036,1.02,.008,1.529,.008l.078,.2c-.197,.255-.369,.534-.593,.759-.85,.855-1.703,1.703-2.578,2.529-.826,.783-.959,1.755-.826,2.803,.062,.49,.378,.6,.801,.226,.636-.565,1.21-1.2,1.817-1.801,1.551-1.541,3.098-3.085,4.669-4.607,.141-.137,.432-.144,.66-.166,.326-.03,.666,.025,.98-.043,.168-.037,.428-.273,.413-.394-.057-.567,.361-.801,.673-1.116,.785-.797,1.573-1.592,2.367-2.381,.123-.123,.289-.199,.576-.387,.058,.768,.131,1.395,.137,2.02,.002,.157-.19,.341-.33,.473-.554,.517-1.199,.955-1.504,1.822h3.301l.096,.159c-.315,.402-.563,.884-.951,1.189-1.101,.865-.665,1.959-.637,3.158,.305-.184,.52-.264,.668-.412,1.231-1.238,2.468-2.475,3.659-3.748,.332-.354,.619-.488,1.084-.354,.294,.084,.616,.069,1.074,.114-.211,.341-.348,.685-.588,.927-1.791,1.799-3.6,3.579-5.406,5.36-.604,.598-.793,2.188-.288,3.094,.336-.235,.708-.422,.989-.702,2.535-2.502,5.059-5.013,7.566-7.541,.253-.256,.342-.664,.566-.956,.115-.151,.387-.315,.541-.279,.567,.134,1.024,.015,1.426-.39,1.092-1.085,2.184-2.172,3.283-3.248,.228-.222,.493-.402,.763-.617,.45,.983,.268,2.123-.395,2.761-.388,.374-.802,.72-1.265,1.134,1.067,.854,2.22,.074,3.34,.595-.381,.401-.684,.779-1.049,1.082-.28,.233-.405,.454-.415,.83-.014,.494-.16,.983-.227,1.475-.03,.219-.006,.445-.006,.824,.301-.152,.543-.213,.696-.363,.978-.963,2.013-1.881,2.877-2.939,.854-1.043,1.855-1.297,3.234-1.01-.263,.367-.463,.741-.75,1.031-1.827,1.855-3.677,3.688-5.507,5.54-.147,.149-.254,.374-.299,.581-.101,.463-.163,.938-.22,1.409-.041,.345-.044,.696-.079,1.244,.414-.237,.734-.338,.946-.549,2.767-2.77,5.537-5.537,8.266-8.344,.79-.811,1.554-1.453,2.833-.854-.103,.188-.189,.468-.373,.653-2.797,2.799-5.611,5.578-8.406,8.377-.686,.686-1.376,1.253-2.44,.935-.211-.063-.463,.021-.684-.02-1.319-.262-2.251,.315-3.063,1.296-.593,.716-1.268,1.37-1.94,2.015-.27,.258-.632,.421-1.085,.714,0-.78-.061-1.384,.027-1.964,.041-.278,.36-.519,.567-.764,.12-.143,.306-.239,.395-.395,.116-.202,.236-.454,.205-.664-.014-.104-.356-.185-.56-.229-.177-.037-.368-.007-.618-.007v-1.876c-.341,.199-.586,.289-.76,.455-.418,.4-.794,.848-1.209,1.254-.104,.099-.287,.157-.437,.162-.518,.019-1.04,.008-1.697,.008,.154-.258,.231-.466,.371-.61,.961-.977,1.922-1.955,2.914-2.899,.651-.62,1.077-2.154,.767-2.997-.152-.408-.446-.272-.651-.11-.441,.346-.862,.725-1.256,1.122-1.535,1.559-3.079,3.111-4.572,4.709-.613,.657-1.287,.934-2.156,.788-.225-.037-.459-.04-.679-.098-1.085-.287-2.001-.146-2.653,.895-.161,.257-.503,.402-.879,.687-.105-.965-.238-1.818-1.525-1.449l-.014-.211c.248-.299,.45-.66,.756-.878,.316-.224,.424-.449,.41-.817-.027-.634-.009-1.269-.009-1.903l-.218-.077c-.429,.374-.871,.733-1.283,1.123-.816,.775-1.607,1.574-2.419,2.35-.389,.374-.817,.585-1.405,.413-.342-.098-.734-.017-1.287-.017,.299-.459,.462-.822,.725-1.088,1.725-1.744,3.458-3.481,5.221-5.185,.488-.469,.755-.944,.681-1.628-.049-.421-.01-.851-.01-1.278l-.201-.104c-.309,.215-.655,.392-.918,.652-2.474,2.446-4.952,4.888-7.377,7.383-.384,.396-.846,.917-.578,1.644,.05,.138-.12,.412-.258,.553-1.381,1.407-2.767,2.809-4.173,4.191-.516,.508-1.087,.963-1.633,1.443l-.246-.123c0-.461,.048-.928-.012-1.382-.072-.541,.223-.792,.575-1.119,.989-.917,1.925-1.892,2.874-2.852,.129-.131,.222-.299,.314-.459,.214-.376,.081-.623-.328-.649-.889-.059-1.799-.186-2.405,.748-.179,.273-.519,.439-.841,.699" fill="#231f20" fill-rule="evenodd"/><path d="M69.76,30.6325c-.21,.13-.454,.227-.624,.397-1.198,1.187-2.392,2.379-3.566,3.588-.312,.319-.604,.48-1.08,.382-.413-.084-.858-.018-1.47-.018,.246-.372,.372-.655,.576-.859,1.429-1.426,2.877-2.836,4.318-4.251,.298-.293,.556-.637,.889-.877,1.234-.889,1.265-2.129,1.037-3.586-.263,.14-.544,.213-.721,.391-1.319,1.323-2.607,2.676-3.923,4.002-1.435,1.446-2.944,2.824-4.312,4.328-.827,.909-1.755,.928-2.923,.789,.283-.345,.49-.65,.748-.903,2.95-2.942,5.913-5.87,8.86-8.816,.377-.379,.734-.499,1.272-.369,.839,.201,.992,.041,1.081-.801,.015-.146,.103-.312,.209-.418,2.66-2.64,5.324-5.275,7.994-7.906,.514-.506,1.062-.978,1.662-1.529,.012,.009,.183,.09,.214,.209,.199,.753,.358,1.503-.291,2.154-2.014,2.022-4.021,4.047-6.025,6.077-.64,.648-1.267,1.308-1.904,1.968,.535,.404,2.018,.427,2.498,.039,.436-.353,.85-.736,1.245-1.133,1.221-1.222,2.421-2.465,3.644-3.681,.196-.196,.474-.305,.712-.453,.46,.659,.325,1.892-.157,2.365-.847,.826-1.663,1.683-2.492,2.529-.309,.315-.191,.588,.186,.596,.719,.018,1.441-.068,2.162-.111,.195-.012,.455-.099,.567-.008,.107,.085,.105,.371,.071,.552-.124,.643-.299,1.276-.417,1.919-.04,.2,.035,.425,.076,.796,.467-.338,.846-.55,1.15-.844,.645-.621,1.26-1.272,1.866-1.931,.376-.407,.783-.573,1.336-.407,.311,.091,.653,.077,1.164,.126-.329,.455-.558,.868-.876,1.189-1.364,1.375-2.762,2.719-4.123,4.096-.164,.166-.18,.484-.243,.737-.091,.358-.171,.719-.234,1.081-.061,.341-.095,.689-.138,1.034l.198,.074c.202-.128,.435-.224,.6-.39,1.194-1.207,2.363-2.445,3.575-3.634,.451-.447,1.001-.793,1.503-1.189,.16-.125,.315-.264,.461-.407,.724-.718,1.444-1.44,2.164-2.162,.451-.45,.945-.724,1.612-.503,.172,.058,.371,.032,.739,.053-.26,.376-.428,.716-.681,.971-1.543,1.549-3.252,2.96-4.618,4.649-1.132,1.401-2.523,2.522-3.67,3.884-.213,.252-.549,.436-.866,.553-.445,.161-.751,.366-.644,.888,.189,.92-.394,1.477-.955,2.037-2.211,2.206-4.429,4.406-6.642,6.611-.603,.602-1.185,1.225-1.796,1.818-.197,.189-.453,.315-.758,.52-.212-1.294-.071-2.262,.87-3.157,2.34-2.22,4.591-4.539,6.867-6.827,.466-.468,.883-.986,1.349-1.511-.139-.13-.227-.257-.346-.313-.629-.294-1.96,.014-2.457,.517-1.808,1.835-3.62,3.665-5.441,5.484-.206,.206-.493,.334-.879,.59-.026-1.1-.286-2.031,.578-2.798,.795-.703,1.544-1.458,2.284-2.22,.382-.392,.702-.845,1.048-1.27-.687-.565-2.075-.48-2.603,.054-.343,.347-.7,.679-1.07,1.036-.147-.236-1.707-1.534-1.995-1.638,.467-.492,.86-.981,1.329-1.378,.311-.262,.405-.524,.392-.901-.023-.581-.006-1.161-.006-1.743l-.16-.141" fill="#231f20" fill-rule="evenodd"/><path d="M72.884,80.6655c.712,.039,1.426,.102,2.142,.102,.167,0,.358-.184,.499-.324,1.095-1.084,2.171-2.187,3.272-3.265,.329-.323,.717-.585,1.132-.917,.383,1.181,.361,2.129-.592,2.874-.488,.382-.959,.781-1.377,1.262,1.245,.685,2.448,.233,3.637,.416-.025,.713-.58,1.046-1.035,1.444-.412,.36-.943,2.341-.741,2.835,.046,.108,.151,.191,.296,.371,.725-.724,1.427-1.417,2.122-2.12,.848-.856,1.679-1.727,2.546-2.559,.123-.116,.425-.082,.638-.063,.403,.034,.805,.107,1.208,.165,.067,.096,.133,.196,.203,.294-.319,.216-.724,.367-.943,.657-1.121,1.491-2.441,2.787-3.774,4.073-.225,.218-.415,.474-.658,.665-.224,.177-.524,.26-.738,.444-.225,.191-.575,.478-.549,.681,.102,.797-.309,1.313-.802,1.802-2.035,2.031-4.081,4.049-6.117,6.078-.796,.794-1.57,1.609-2.366,2.401-.213,.211-.473,.377-.711,.563l-.187-.057c-.023-.5-.002-1.006-.08-1.496-.095-.612,.314-.871,.673-1.221,.931-.915,1.813-1.879,2.735-2.806,.51-.513,1.068-.976,1.583-1.483,1.197-1.173,2.389-2.356,3.569-3.55,.17-.175,.273-.422,.406-.637-.238-.096-.468-.239-.717-.281-1.023-.173-1.826,.195-2.547,.946-1.632,1.696-3.314,3.341-4.985,4.999-.16,.158-.381,.252-.626,.408-.223-1.239-.115-2.238,.815-3.05,1.018-.885,1.985-1.832,2.976-2.753-.035-.091-.068-.18-.101-.27-.223-.095-.439-.242-.672-.272-.347-.045-.709,.016-1.059-.014-.464-.041-.795,.1-1.045,.511-.111,.184-.315,.355-.516,.425-.124,.04-.452-.114-.459-.197-.042-.66-.44-.782-.988-.741-.074,.005-.151-.045-.419-.131,.312-.407,.515-.818,.844-1.066,.414-.315,.585-.647,.549-1.155-.038-.548-.007-1.101-.007-1.653l-.204-.08c-.415,.354-.853,.685-1.243,1.066-.82,.8-1.65,1.596-2.412,2.45-.768,.863-1.678,.536-2.771,.509,.284-.415,.436-.727,.669-.96,1.677-1.679,3.363-3.348,5.065-5,.152-.15,.438-.166,.664-.227,.117-.032,.271,.011,.356-.05,.471-.353,.965-.69,1.385-1.102,2.05-2.013,4.09-4.039,6.109-6.082,.55-.552,1.018-1.186,1.534-1.8-1.054-.566-2.307-.469-3.026,.234-1.25,1.223-2.465,2.478-3.694,3.719-.583,.589-1.159,1.183-1.757,1.761-.102,.099-.339,.195-.424,.144-.127-.077-.23-.279-.249-.44-.113-.87,.151-1.529,.886-2.116,.948-.758,1.775-1.673,2.614-2.557,.193-.202,.229-.555,.355-.884-.645-.4-1.39-.307-1.992-.157-.601,.149-1.099,.699-1.688,1.104-.111-.833-.573-1.217-1.558-1.16,.291-.423,.436-.778,.699-.982,.361-.28,.466-.587,.439-1.014-.031-.498-.006-.997-.006-1.598,.733,0,1.434-.031,2.131,.009,.526,.032,.922-.151,1.279-.507,1.566-1.552,3.144-3.096,4.701-4.66,.646-.646,1.251-1.332,1.863-1.991,.582,.487,.704,1.649,.291,2.186-.329,.425-.718,.808-1.097,1.194-.993,1.009-1.996,2.007-2.992,3.014-.141,.141-.257,.304-.398,.476,1.98,.844,3.305-.107,4.45-1.596l.165,.126v3.426l.201,.105c.257-.207,.518-.409,.768-.623,.169-.147,.347-.294,.471-.475,.713-1.023,1.72-.731,2.832-.612-.223,.349-.37,.688-.611,.938-.649,.674-1.337,1.309-2.011,1.959-.304,.293-.538,.646-1.052,.689-.188,.014-.497,.444-.48,.662,.056,.703-.254,1.199-.706,1.651-1.767,1.768-3.543,3.528-5.31,5.296-.453,.454-.89,.926-1.333,1.39l.053,.23" fill="#231f20" fill-rule="evenodd"/><path d="M.725,41.1105c0,.766,.03,1.31-.016,1.846-.019,.218-.167,.462-.328,.626-1.799,1.823-3.613,3.633-5.421,5.445-.721,.723-1.453,1.435-2.158,2.169-.224,.232-.381,.527-.669,.933,1.224-.065,2.293,.329,3.216-.734,1.271-1.458,2.687-2.79,4.062-4.157,.34-.337,.761-.592,1.238-.96,.074,.72,.151,1.247,.17,1.777,.005,.158-.115,.353-.233,.476-.923,.95-1.865,1.886-2.792,2.832-.173,.176-.311,.388-.41,.662,1.142,.059,2.279,.437,3.261-.489l.164,.11c0,.418,.012,.836-.002,1.256-.015,.561-.066,1.12-.07,1.68-.003,.393,.217,.544,.568,.333,.262-.158,.503-.361,.725-.574,.608-.595,1.186-1.228,1.809-1.808,.624-.583,1.364-.43,2.226-.28-.232,.334-.372,.612-.58,.823-1.275,1.284-2.572,2.549-3.848,3.835-.509,.512-1.068,1.013-.921,1.864,.015,.095-.067,.24-.147,.316-1.4,1.355-2.82,2.689-4.205,4.06-1.258,1.241-2.477,2.517-3.708,3.784-.155,.162-.273,.361-.438,.584,.15,.089,.26,.211,.38,.221,1.12,.093,2.198,.188,3.088-.803,1.209-1.348,2.516-2.608,3.803-3.88,.324-.32,.736-.551,1.135-.842,.316,1.266,.012,2.152-.903,2.894-.691,.562-1.28,1.252-1.898,1.897-.166,.172-.284,.39-.423,.585l.07,.224c.825-.061,1.65-.122,2.478-.185,.255-.02,.6-.15,.74-.034,.141,.118,.102,.479,.1,.734-.006,.561-.047,1.121-.061,1.681-.011,.517,.274,.642,.68,.412,.316-.181,.596-.437,.861-.693,.538-.52,1.064-1.055,1.583-1.594,.658-.683,1.386-.378,2.167-.234-.076,.195-.092,.336-.173,.413-.963,.948-1.93,1.891-2.911,2.82-.314,.298-.683,.347-1.144,.305-.971-.09-1.957-.06-2.936-.057-.146,0-.33,.085-.435,.189-1.159,1.166-2.298,2.356-3.463,3.513-1.295,1.288-2.614,2.55-4.031,3.928v-2.228c1.722-1.66,3.491-3.157,4.886-5.063-1.229-.641-2.338-.465-3.174,.401-.513,.535-1.044,1.056-1.696,1.713-.034-.373-.063-.546-.063-.717-.004-2.126,.009-4.251-.01-6.377-.004-.381,.15-.528,.443-.755,.655-.504,1.223-1.119,1.813-1.701,1.168-1.151,2.34-2.296,3.482-3.469,.63-.647,1.205-1.347,1.819-2.04-.881-.567-2.118-.552-2.744,.038-1.35,1.27-2.659,2.581-3.989,3.87-.221,.212-.468,.394-.813,.683,0-.776-.003-1.412,.001-2.045l.042-.241c.436-.406,.883-.803,1.333-1.198l.251-.177c.204-.35,.385-.712,.575-1.067-.344-.094-.68-.226-1.03-.27-.362-.047-.736-.01-1.175-.01v-1.855c0-1.833-.008-3.668,.012-5.501,.003-.218,.091-.492,.241-.643,1.273-1.285,2.567-2.55,3.86-3.818,1.022-1,2.055-1.99,3.072-2.996,.589-.584,1.145-1.203,1.74-1.781,.223-.219,.513-.37,.924-.656" fill="#231f20" fill-rule="evenodd"/><path d="M46.245,106.2715c-.684,.658-1.38,1.301-2.049,1.972-1.765,1.773-3.514,3.559-5.281,5.326-.158,.16-.412,.31-.622,.313-2.376,.021-4.75,.013-7.267,.013,.178-.245,.283-.429,.428-.577,.406-.418,.834-.814,1.246-1.227,.632-.632,.812-2.049,.316-2.963-.322,.276-.644,.523-.929,.808-1.237,1.238-2.458,2.49-3.696,3.728-.117,.115-.308,.214-.469,.221-.687,.023-1.374,.01-2.247,.01,.525-.523,.954-.945,1.379-1.369,1.251-1.246,2.5-2.5,3.755-3.744,.755-.748,1.528-1.474,2.271-2.232,.122-.125,.174-.361,.181-.549,.023-.579,.007-1.16,.007-1.826,.858,0,1.664,.027,2.467-.014,.281-.015,.551-.206,.83-.303,.172-.06,.489-.164,.504-.133,.137,.288,.401,.704,.294,.884-.452,.758-.167,1.538-.192,2.304l.497,.135c.408-.315,.784-.678,1.151-1.045,.428-.427,.815-.895,1.25-1.31,.679-.649,1.597-.758,2.619-.288-.394,.46-.743,.918-1.146,1.324-1.266,1.266-2.533,2.532-3.836,3.76-.793,.75-.58,1.672-.55,2.57,.005,.128,.172,.252,.315,.447,.877-.866,1.7-1.683,2.524-2.497,1.837-1.818,3.665-3.64,5.523-5.433,.224-.219,.626-.241,.912-.411,.504-.3,1.047-.574,1.459-.98,1.44-1.416,2.826-2.889,4.241-4.33,.145-.148,.345-.244,.55-.384,.236,1.239,.098,2.228-.911,3.024-.714,.563-1.307,1.279-1.945,1.939-.152,.16-.262,.365-.36,.639,.925-.07,1.894,.532,2.731-.332,.298-.306,.566-.169,.622,.189,.062,.379,.026,.78-.022,1.165-.082,.657-.22,1.307-.305,1.964-.017,.137,.099,.291,.153,.438,.161-.067,.361-.094,.476-.206,.816-.8,1.667-1.574,2.401-2.444,.604-.716,1.731-.833,2.763-.504-.163,.254-.279,.528-.476,.724-1.573,1.577-3.166,3.133-4.737,4.709-.157,.159-.273,.406-.314,.627-.135,.729-.226,1.463-.334,2.195l.193,.129c.248-.153,.522-.276,.734-.464,.373-.333,.708-.706,1.06-1.061,2.176-2.186,4.348-4.373,6.524-6.556,.545-.546,1.796-.681,2.602-.212-.672,.701-1.318,1.388-1.981,2.06-.655,.664-1.323,1.317-1.99,1.972-1.009,.986-2.03,1.96-3.027,2.955-.707,.707-1.378,1.445-2.077,2.156-.133,.136-.323,.301-.488,.302-2.455,.02-4.912,.015-7.437,.015v-2.497c-.381,.236-.665,.354-.875,.551-.603,.573-1.167,1.185-1.762,1.766-.102,.099-.277,.17-.42,.174-.645,.017-1.291,.007-2.108,.007,.406-.457,.71-.836,1.05-1.179,1.156-1.171,2.308-2.345,3.498-3.484,.457-.435,.687-.893,.623-1.53-.045-.439-.01-.889-.01-1.333-.095-.032-.19-.065-.286-.098" fill="#231f20" fill-rule="evenodd"/><path d="M79.886,97.3385c.421,.725,.361,1.854-.106,2.335-1.004,1.029-2.036,2.03-3.04,3.06-.372,.383-.696,.812-1.056,1.235,1.075,.519,2.588,.173,3.268-.662,.235-.291,.557-.512,.949-.865,.268,.915,.39,1.601,.028,2.364-.174,.364-.071,.86-.095,1.297l.24,.138c.438-.409,.895-.799,1.305-1.232,.793-.841,1.894-1.115,2.945-.627-.247,.324-.451,.661-.722,.931-.988,.984-1.993,1.954-3.006,2.914-.287,.27-.463,.528-.464,.957-.002,.382-.193,.762-.255,1.15-.055,.332-.043,.674-.062,1.014l.191,.098c.324-.266,.673-.506,.969-.799,1.474-1.469,2.935-2.95,4.4-4.428,.512-.519,1.035-1.028,1.531-1.56,.644-.688,1.407-.51,2.36-.38-.359,.476-.6,.88-.921,1.204-.942,.945-1.916,1.855-2.877,2.779l-.227,.212c-.968,1.719-2.642,2.787-3.909,4.23l-.042,.044c-.679,1.1-1.706,1.194-2.89,1.171-3.416-.063-6.836-.023-10.253-.023h-.803c.49-.522,.813-.999,1.254-1.303,1.319-.91,1.565-2.154,1.219-3.729-.371,.277-.762,.502-1.068,.809-1.251,1.255-2.485,2.525-3.702,3.812-.283,.297-.56,.442-.971,.42-.574-.031-1.151-.008-1.905-.008,.5-.535,.881-.958,1.278-1.367,1.438-1.476,2.874-2.953,4.328-4.413,.586-.588,1.234-1.117,1.822-1.703,.164-.168,.301-.444,.306-.676,.031-1.186-.004-2.375,.03-3.563,.008-.278,.129-.619,.319-.816,1.692-1.752,3.411-3.48,5.126-5.211,1.245-1.254,2.492-2.51,3.752-3.75,.22-.216,.508-.363,.838-.591,.069,.559,.132,.966,.167,1.379,.052,.582-.037,1.021-.542,1.51-2.785,2.688-5.493,5.456-8.219,8.202-.303,.306-.569,.645-.931,1.058,.282,.102,.441,.197,.606,.211,1.008,.089,1.906,.03,2.7-.833,1.69-1.837,3.49-3.575,5.258-5.341,.252-.253,.577-.432,.877-.654" fill="#231f20" fill-rule="evenodd"/><path d="M-9.124,113.8155v-5.451c0-1.689-.005-3.377,.009-5.064,.002-.208,.051-.479,.184-.612,1.537-1.513,3.111-2.989,4.641-4.509,1.396-1.392,2.746-2.832,4.127-4.241,.195-.199,.441-.347,.679-.529,.418,.88,.288,1.78-.295,2.361-2.357,2.351-4.716,4.7-7.071,7.056-.321,.321-.614,.674-.977,1.075,.199,.11,.324,.225,.464,.248,1.288,.214,2.395-.115,3.312-1.072,1.284-1.336,2.581-2.657,3.884-3.973,.226-.228,.508-.398,.825-.642,.171,1.182,.161,2.154-.822,2.937-.747,.591-1.367,1.337-2.034,2.026-.155,.161-.266,.361-.479,.661,1.002,.084,1.881,.242,2.764-.082,.199-.073,.408-.112,.613-.168,.052,.215,.168,.44,.141,.645-.07,.513-.233,1.012-.303,1.525-.049,.374-.01,.76-.01,1.14l.188,.089c.259-.179,.552-.324,.773-.543,.621-.616,1.201-1.273,1.818-1.894,.715-.722,1.625-.876,2.723-.432-.289,.374-.527,.756-.836,1.063-1.331,1.322-2.678,2.625-4.029,3.926-.279,.27-.449,.534-.453,.96-.006,.534-.174,1.062-.227,1.596-.014,.157,.12,.329,.185,.493,.166-.071,.372-.098,.489-.216,1.973-1.965,3.932-3.943,5.894-5.917,.528-.532,1.051-1.07,1.583-1.598,.683-.68,1.935-.788,2.847-.209-.136,.176-.25,.364-.4,.516-1.047,1.035-2.1,2.062-3.153,3.091-1.185,1.159-2.384,2.307-3.558,3.478-.662,.66-1.278,1.367-1.936,2.034-.14,.146-.367,.299-.553,.299-3.605,.014-7.212,.007-10.816,.002-.037,0-.075-.026-.191-.069" fill="#231f20" fill-rule="evenodd"/><path d="M-1.217,24.8125c1.093,.041,2.184,.083,3.274,.125l.094,.19c-.262,.299-.506,.618-.792,.894-.347,.333-.691,.606-.597,1.2,.051,.314-.227,.67-.25,1.011-.022,.331,.096,.668,.15,1.002,.302-.146,.67-.226,.899-.449,1.102-1.074,2.192-2.162,3.233-3.293,.775-.844,1.64-.838,2.705-.452-.197,.292-.339,.59-.558,.81-1.971,1.974-3.96,3.93-5.931,5.904-.146,.145-.257,.372-.289,.577-.136,.857-.236,1.72-.353,2.601l-.076,.031c-1.373-.294-2.219,.504-3.08,1.395-1.803,1.873-3.658,3.696-5.495,5.534-.22,.217-.461,.413-.783,.697v-2.152c1.7-1.764,3.517-3.219,4.895-5.136-.744-.47-2.181-.45-2.707,.004-.47,.408-.879,.888-1.326,1.32-.248,.237-.526,.441-.883,.737v-12.584c.483-.45,.855-.782,1.211-1.13,1.087-1.064,2.172-2.128,3.248-3.201,1.254-1.248,2.494-2.508,3.748-3.755,.468-.464,.955-.91,1.527-1.456,.078,.658,.18,1.16,.174,1.663,0,.207-.199,.443-.364,.611-1.801,1.822-3.616,3.627-5.418,5.447-.534,.541-1.035,1.116-1.573,1.699,.951,.444,2.287,.268,2.906-.343,1.168-1.157,2.313-2.334,3.484-3.487,.207-.207,.491-.332,.808-.541,.057,.736,.132,1.35,.137,1.961,.001,.163-.203,.344-.34,.488-.574,.6-1.157,1.188-1.739,1.78,.021,.099,.04,.197,.061,.298" fill="#231f20" fill-rule="evenodd"/><path d="M70.606,52.1095c.94-.025,1.924,.352,2.761-.5,1.549-1.57,3.113-3.123,4.672-4.683,.383-.384,.755-.779,1.155-1.141,.206-.185,.467-.308,.706-.463,.478,.85,.269,1.932-.324,2.515-1.246,1.226-2.454,2.492-3.671,3.748-.094,.097-.143,.238-.214,.36,.905,.481,2.476,.225,3.119-.464,.315-.335,.665-.635,1.098-1.048,.247,.868,.318,1.535,.1,2.24-.14,.446-.161,.932-.235,1.397l.258,.124c.377-.307,.788-.579,1.121-.925,1.215-1.267,1.266-1.298,3.215-1.056-.34,.45-.595,.864-.925,1.205-.999,1.028-2.042,2.018-3.033,3.056-.175,.184-.252,.53-.247,.799,.009,.589-.03,1.073-.787,1.12-.137,.006-.281,.161-.396,.275-2.11,2.101-4.219,4.204-6.325,6.311-.66,.662-1.301,1.341-1.973,1.991-.161,.156-.407,.222-.684,.368-.148-1.02-.178-1.848,.593-2.557,1.118-1.029,2.184-2.112,3.247-3.195,.435-.443,.801-.951,1.202-1.43,.075-.092,.15-.236,.246-.253,.67-.122,.818-.702,1.106-1.166-.795-.56-2.181-.501-2.822,.137-.796,.791-1.547,1.627-2.355,2.407-.327,.315-.748,.532-1.124,.793l-.166-.118c0-.572-.005-1.144,.006-1.716l.136-.242,.155-.099c.308-.421,.61-.848,.913-1.274-.372-.126-.743-.249-1.183-.399-.022-.365-.05-.827-.089-1.465-.397,.317-.722,.485-.914,.75-.537,.735-1.232,.992-2.112,.861-.222-.033-.454-.005-.826-.15,.302-.386,.574-.802,.911-1.153,.87-.896,1.784-1.748,2.64-2.656,.201-.213,.332-.571,.342-.869,.041-1.104,.006-2.209,.027-3.314,.003-.203,.074-.462,.21-.597,1.159-1.163,2.342-2.301,3.516-3.447,1.187-1.161,2.382-2.314,3.559-3.483,.707-.704,1.386-1.436,2.086-2.149,.165-.169,.362-.31,.551-.468,.506,.763,.421,1.952-.195,2.561-1.227,1.213-2.5,2.376-3.719,3.593-1.223,1.221-2.4,2.484-3.605,3.72-.405,.415-.845,.801-1.246,1.221-.217,.227-.389,.499-.582,.751l.101,.177" fill="#231f20" fill-rule="evenodd"/><path d="M17.772,108.7715c-.554,.508-1.05,.931-1.509,1.39-1.134,1.133-2.245,2.291-3.388,3.416-.169,.167-.451,.286-.689,.305-.593,.042-1.193,.013-1.968,.013,.513-.575,.902-1.053,1.335-1.488,1.911-1.916,3.833-3.82,5.754-5.724,.44-.435,.634-.926,.594-1.56-.051-.831,.031-1.67-.025-2.5-.049-.68,.167-1.182,.65-1.647,1.217-1.167,2.404-2.367,3.598-3.558,.308-.308,.584-.649,.907-.942,.29-.264,.62-.483,1.01-.781,.08,.628,.13,1.078,.194,1.527,.074,.508-.059,.896-.451,1.272-1.528,1.471-3.023,2.977-4.52,4.481-.283,.286-.523,.618-.791,.939,.725,.433,2.2,.36,2.711-.124,.605-.571,1.153-1.203,1.76-1.772,.304-.285,.686-.49,1.115-.788,.065,.65,.246,1.173,.127,1.619-.111,.42-.537,.756-.787,1.078,.397,.226,.69,.396,1.084,.621,.641-.638,1.557-.379,2.455-.309l.116,.194c-.512,.583-.935,1.291-1.553,1.722-1.342,.935-1.705,2.093-1.111,3.684,.279-.211,.595-.401,.845-.651,1.291-1.3,2.561-2.622,3.848-3.925,.263-.266,.553-.507,.847-.739,.666-.519,1.446-.571,2.313-.131-.195,.272-.352,.571-.578,.797-2.229,2.217-4.471,4.419-6.703,6.631-.557,.551-1.089,1.124-.685,2.045H15.419c.157-.215,.265-.395,.406-.549,.239-.26,.465-.551,.754-.746,1.336-.891,1.537-2.163,1.193-3.8" fill="#231f20" fill-rule="evenodd"/><path d="M-4.144,87.0525c-.969,.003-1.775-.308-2.478,.294-.504,.429-.946,.933-1.432,1.388-.275,.259-.581,.482-1.01,.832v-8.697c1.129,.005,1.93-.63,2.685-1.416,2.022-2.103,4.069-4.181,6.12-6.254,.246-.248,.58-.409,.936-.652,.046,.626,.127,1.106,.093,1.575-.017,.229-.214,.48-.392,.657-1.445,1.443-2.914,2.859-4.355,4.305-.445,.447-.821,.962-1.27,1.492,1.316,.372,2.649,.348,3.443-.554,.534-.607,1.127-1.167,1.716-1.72,.195-.185,.468-.287,.756-.459,.055,.699,.155,1.278,.118,1.849-.017,.26-.306,.503-.561,.892,.317,.112,.633,.302,.951,.315,.494,.019,.991-.103,1.489-.128,.218-.009,.437,.072,.876,.151-.597,.638-1.08,1.159-1.569,1.674-.186,.196-.373,.393-.579,.567-.816,.692-.711,1.626-.653,2.532,.032,.49,.44,.609,.866,.256,.414-.343,.797-.727,1.177-1.111,1.007-1.023,2.004-2.055,3.006-3.084,.087-.089,.189-.165,.268-.261,.678-.818,1.52-.976,2.61-.588-.235,.31-.42,.621-.668,.869-1.588,1.592-3.199,3.162-4.783,4.757-.329,.331-.655,.508-1.14,.488-.917-.042-1.835,.017-2.751-.025-.523-.022-.912,.135-1.273,.504-1.631,1.665-3.273,3.321-4.924,4.97-.674,.674-1.38,1.316-2.073,1.973l-.17-.061c0-.668-.003-1.337,.004-2.004l.106-.203c1.428-1.355,2.868-2.696,4.279-4.07,.223-.213,.319-.562,.582-1.053" fill="#231f20" fill-rule="evenodd"/><path d="M13.823,58.2535c.533-.573,1.028-1.119,1.538-1.648,.708-.736,1.456-1.434,2.125-2.203,.232-.266,.364-.693,.385-1.055,.054-.915,.044-1.834,.007-2.75-.02-.512,.121-.852,.518-1.217,1.101-1.01,2.124-2.106,3.189-3.16,.636-.629,1.28-1.25,1.934-1.864,.111-.1,.285-.131,.431-.195,.054,.142,.137,.279,.16,.426,.165,1.013-.145,1.82-.914,2.54-1.381,1.295-2.697,2.662-4.029,4.008-.244,.245-.438,.54-.675,.835,1.119,.307,2.491,.319,3.095-.536,.448-.637,1.068-1.161,1.64-1.703,.213-.202,.508-.317,.849-.521,.065,.551,.171,.978,.151,1.402-.014,.299-.155,.618-.321,.875-.261,.404-.227,.701,.251,.781,.414,.067,.855-.055,1.283-.073,.422-.013,.844-.003,1.449-.003-.234,.381-.331,.635-.505,.813-.557,.56-1.18,1.056-1.702,1.644-.734,.822-.656,1.811-.451,3.008,.496-.377,.915-.628,1.252-.963,1.24-1.233,2.475-2.475,3.67-3.756,.568-.609,1.188-.93,2.026-.801,.245,.036,.499,.005,.89,.005-.204,.356-.308,.683-.523,.898-1.711,1.706-3.45,3.385-5.159,5.093-.302,.304-.606,.372-1.001,.34-.727-.058-1.457-.046-2.184-.119-.648-.065-1.119,.205-1.543,.643-.782,.807-1.555,1.626-2.368,2.4-.372,.357-.833,.621-1.254,.927l-.147-.133c0-.62-.014-1.24,.01-1.858,.007-.139,.12-.359,.23-.395,.67-.212,.768-.805,1.053-1.435-.45-.072-.821-.134-1.27-.206v-1.59c-.504,.292-1,.412-1.186,.719-.697,1.151-1.687,1.136-2.904,.827" fill="#231f20" fill-rule="evenodd"/><path d="M58.137,52.1975c-.27,.378-.431,.689-.667,.922-1.427,1.429-2.892,2.819-4.291,4.273-.268,.279-.298,.792-.432,1.197-.049,.152-.022,.355-.114,.459-.46,.503-.945,.986-1.431,1.465-.74,.725-1.495,1.437-2.233,2.164-.503,.491-.975,1.017-1.492,1.492-.217,.202-.516,.318-.849,.516-.166-1.024-.391-1.905,.494-2.682,.936-.823,1.776-1.755,2.654-2.644,.201-.202,.385-.426,.614-.685-1.436-.6-2.626-.429-3.644,1.113-.197-1.228-.747-1.69-1.808-1.367l-.066-.234c.339-.387,.657-.798,1.023-1.158,.599-.582,.883-1.933,.527-2.688-.034-.07-.104-.12-.232-.261-.782,.748-1.552,1.474-2.306,2.211-.536,.524-1.089,1.036-1.574,1.605-.498,.585-1.076,.71-1.779,.535-.22-.055-.451-.066-.802-.114,.167-.288,.266-.582,.461-.78,1.694-1.72,3.379-3.447,5.13-5.107,.331-.316,.941-.324,1.409-.506,.241-.092,.496-.212,.678-.389,1.528-1.505,3.036-3.028,4.564-4.534,.148-.149,.365-.229,.548-.343,.08,.22,.171,.439,.239,.662,.32,1.075-.272,1.739-1.011,2.39-.654,.576-1.223,1.248-1.83,1.878l.107,.246c.965,.046,1.93,.09,2.815,.132v3.118c.394-.299,.68-.486,.93-.717,.352-.323,.679-.675,1.01-1.022,1.274-1.331,1.286-1.337,3.358-1.147" fill="#231f20" fill-rule="evenodd"/><path d="M52.757,86.5465c.371-.225,.645-.327,.832-.516,1.26-1.283,2.496-2.592,3.754-3.878,.452-.46,.91-.919,1.424-1.298,.212-.158,.579-.146,.873-.138,.391,.014,.778,.098,1.336,.174-.301,.388-.494,.695-.742,.946-1.627,1.643-3.259,3.276-4.905,4.897-.154,.151-.421,.259-.638,.263-1.124,.026-2.251,.037-3.375,0-.505-.016-.887,.154-1.224,.491-.912,.912-1.816,1.834-2.737,2.738-.2,.193-.468,.32-.759,.513-.171-1.131-.139-2.043,.738-2.741,.232-.187,.333-.535,.565-.93-.538-.036-.917-.062-1.358-.093v-1.536c-.274,.118-.485,.155-.618,.277-.368,.335-.698,.713-1.056,1.059-.107,.103-.26,.218-.396,.223-.579,.025-1.161,.011-1.983,.011,.373-.538,.595-.976,.921-1.312,.855-.88,1.752-1.718,2.64-2.566,.352-.336,.514-.71,.492-1.215-.041-.915-.038-1.834,.002-2.749,.013-.308,.154-.63,.305-.908,.136-.25,.353-.464,.559-.669,1.502-1.502,3.008-3,4.522-4.489,.195-.194,.441-.334,.768-.579,.079,.992,.218,1.795-.51,2.496-1.437,1.387-2.841,2.81-4.235,4.241-.303,.31-.51,.714-.762,1.076,.413,.067,.825,.152,1.24,.201,1.006,.12,1.707-.415,2.36-1.087,.573-.596,1.187-1.152,1.785-1.723l.239,.096c-.082,.809-.164,1.617-.247,2.428l-.144-.026c.172,.342,.343,.685,.496,.991,.436-.146,.851-.342,1.287-.413,.441-.07,.904-.016,1.554-.016-.278,.415-.438,.743-.678,.995-.603,.632-1.233,1.24-1.87,1.834-.327,.306-.498,.629-.465,1.092,.04,.538,.01,1.08,.01,1.84" fill="#231f20" fill-rule="evenodd"/><path d="M17.987,93.3705c-.303-1.338-.037-2.33,.904-3.165,.855-.758,1.634-1.603,2.443-2.417,.155-.156,.286-.337,.428-.508l-.041-.198c-.433-.025-.867-.041-1.299-.077-.678-.058-1.232,.076-1.679,.68-.377,.511-.715,.423-.903-.169-.122-.379-.318-.556-.722-.512-.224,.024-.452,.004-.924,.004,.368-.513,.565-.968,.909-1.23,.613-.465,.888-.993,.795-1.758-.053-.428-.01-.868-.01-1.501-.43,.312-.772,.497-1.037,.759-1.079,1.073-2.126,2.176-3.202,3.249-.543,.541-1.734,.675-2.561,.272,.208-.291,.37-.603,.609-.839,1.663-1.665,3.345-3.309,5.011-4.969,.22-.219,.388-.406,.742-.243,.147,.067,.404,.056,.535-.034,.472-.318,.94-.653,1.354-1.041,1.591-1.49,3.164-3.004,4.716-4.485,.293,.458,.301,1.546-.14,2.024-.805,.87-1.659,1.694-2.48,2.552-.221,.233-.393,.515-.68,.897,1.239,.233,2.295,.258,3.486-.509-.026,.494-.053,.798-.056,1.105-.006,.739-.002,1.481-.002,2.222l.187,.102c.283-.213,.592-.4,.843-.644,.597-.577,1.182-1.169,1.748-1.778,.408-.439,.848-.621,1.448-.433,.287,.089,.609,.072,1.086,.122-.262,.357-.429,.653-.658,.886-1.473,1.501-2.963,2.984-4.434,4.485-.146,.147-.323,.436-.27,.579,.215,.572-.17,.813-.492,1.132-1.545,1.548-3.072,3.112-4.622,4.655-.292,.289-.659,.505-1.032,.785" fill="#231f20" fill-rule="evenodd"/><path d="M45.359,80.8485c-.249,.366-.385,.653-.596,.864-1.632,1.634-3.286,3.248-4.917,4.883-.322,.324-.665,.435-1.111,.421-.958-.03-1.918,.02-2.875-.019-.516-.02-.857,.16-1.17,.554-.25,.314-.582,.565-.992,.953-.081-1.079-.565-1.6-1.588-1.638,.416-.598,.934-1.09,1.12-1.683,.185-.596,.04-1.293,.04-1.948l-.243-.092c-.708,.659-1.42,1.312-2.124,1.975-.226,.213-.43,.454-.648,.676-1.338,1.359-1.498,1.414-3.571,1.147,.188-.313,.305-.628,.52-.846,1.314-1.326,2.656-2.625,3.979-3.941,.311-.306,.612-.627,.894-.961,.286-.34,.522-.68,1.077-.442,.164,.068,.497-.082,.668-.23,.88-.76,1.732-1.553,2.591-2.333,.178-.164,.35-.33,.67-.629,.047,1.196,.423,2.248-.76,2.936,.426,.243,.749,.429,1.138,.651,.262-.088,.66-.282,1.079-.345,.446-.069,.91-.017,1.595-.017-.333,.462-.538,.824-.815,1.118-.597,.636-1.242,1.229-1.85,1.857-.467,.482-.506,2.013-.028,2.685,.583-.538,1.173-1.055,1.729-1.604,1.202-1.184,2.391-2.379,3.57-3.583,.452-.466,.916-.752,1.597-.512,.262,.093,.568,.062,1.021,.103" fill="#231f20" fill-rule="evenodd"/><path d="M53.089,70.6515c.441-.297,.776-.465,1.038-.712,.537-.508,1.054-1.042,1.545-1.597,.444-.508,.911-.828,1.629-.597,.267,.086,.577,.054,1.014,.086-.227,.368-.369,.709-.608,.959-.69,.722-1.42,1.402-2.129,2.104-.435,.43-.884,.634-1.556,.545-.943-.124-1.912-.06-2.87-.056-.146,.001-.324,.083-.431,.185-.962,.945-1.901,1.914-2.869,2.849-.353,.344-.774,.616-1.2,.952-.415-1.602-.157-2.831,1.29-3.671l-.178-.228c-.463-.047-.927-.093-1.431-.145-.043-.362-.088-.74-.154-1.304-.387,.33-.699,.527-.919,.796-.47,.575-1.01,.815-1.754,.605-.313-.089-.66-.056-1.164-.088,.255-.397,.419-.763,.68-1.041,.753-.802,1.526-1.594,2.338-2.335,.227-.207,.646-.187,.942-.339,.553-.293,1.161-.55,1.607-.97,1.453-1.373,2.842-2.813,4.256-4.226,.139-.14,.285-.273,.567-.541-.01,1.098,.274,2.022-.561,2.779-.709,.644-1.367,1.344-2.041,2.024-.17,.173-.32,.366-.521,.599,.183,.098,.307,.221,.421,.215,.784-.05,1.601,.271,2.351-.256,.303-.213,.749,.215,.741,.736-.01,.498-.111,.992-.129,1.489-.012,.342,.051,.682,.096,1.183" fill="#231f20" fill-rule="evenodd"/><path d="M37.044,46.5755c.082,.472,.156,.835,.199,1.201,.062,.512-.028,.948-.467,1.329-.708,.611-1.356,1.291-2.01,1.962-.252,.257-.447,.57-.789,1.02,.889,0,1.574,.006,2.26-.006,.227-.003,.452-.068,.68-.073,.433-.011,.472,.141,.381,.585-.161,.766-.151,1.569-.211,2.356l.263,.144c.314-.197,.668-.351,.934-.599,.562-.523,1.127-1.058,1.597-1.661,.545-.698,1.251-.739,2.008-.692,.161,.01,.407,.123,.445,.241,.04,.133-.067,.37-.184,.486-1.43,1.412-2.884,2.797-4.304,4.219-.39,.389-.781,.828-.615,1.484,.029,.11-.044,.292-.131,.38-.834,.841-1.666,1.686-2.533,2.493-.238,.222-.586,.328-.885,.487-.054-.313-.106-.626-.162-.938-.134-.741,.436-1.094,.826-1.561,.193-.23,.275-.55,.406-.828-.282-.082-.56-.178-.849-.235-.176-.035-.365-.007-.586-.007-.037-.503-.072-.965-.122-1.617-.403,.344-.717,.524-.911,.789-.512,.689-1.158,.965-2,.837-.225-.033-.457-.005-.85-.005,.287-.376,.479-.68,.725-.936,.781-.808,1.586-1.595,2.373-2.397,.496-.505,.77-1.061,.762-1.829-.014-1.033,.084-2.084,.287-3.096,.088-.437,.523-.828,.859-1.185,.655-.696,1.346-1.36,2.037-2.023,.145-.139,.355-.207,.567-.325" fill="#231f20" fill-rule="evenodd"/><path d="M17.89,77.7725c0-.705-.008-1.218,.006-1.734,.002-.11,.052-.25,.13-.325,.921-.896,1.854-1.78,2.778-2.673,.281-.271,.564-.543,.811-.845,.319-.386,.187-.762-.308-.801-.911-.069-1.84-.174-2.444,.796-.159,.257-.495,.402-.909,.722,.064-1.162-.323-1.741-1.599-1.468,.929-1.173,1.935-2.119,1.519-3.67,.718,0,1.343,.054,1.955-.017,.454-.051,.978-.153,1.312-.426,.772-.627,1.439-1.378,2.164-2.06,.192-.182,.442-.299,.736-.493,.21,1.065,.384,1.982-.419,2.822,1.008,.815,2.099-.162,3.176,.275-.106,.188-.18,.416-.331,.574-.628,.66-1.276,1.303-1.927,1.941-.281,.273-.479,.521-.34,.974,.061,.205-.094,.562-.267,.737-1.676,1.706-3.371,3.394-5.077,5.07-.233,.225-.563,.354-.966,.601" fill="#231f20" fill-rule="evenodd"/><path d="M33.27,67.7945c.73,0,1.375,.045,2.01-.015,.596-.057,1.182-.228,1.861-.365,.038,.063,.161,.265,.286,.474-.697,.819-.056,1.711-.055,2.678,.281-.206,.586-.381,.834-.621,.584-.56,1.149-1.138,1.701-1.729,.38-.409,.772-.651,1.367-.477,.326,.095,.693,.062,1.176,.095-.237,.368-.38,.695-.613,.933-.783,.803-1.601,1.572-2.4,2.357-.247,.242-.477,.367-.872,.291-.537-.1-1.084-.129-1.607,.254-.228,.166-.687,.074-1.025,.013-.674-.122-1.272-.123-1.712,.529-.094,.14-.344,.173-.523,.255-.064-.162-.098-.348-.197-.483-.156-.208-.322-.47-.543-.55-.299-.107-.653-.066-1.153-.098,.249-.365,.383-.745,.653-.924,.721-.48,.928-1.12,.817-1.926-.026-.203-.005-.411-.005-.691" fill="#231f20" fill-rule="evenodd"/><path d="M.656-.4445c.069,.673,.156,1.206,.163,1.742,.002,.217-.122,.485-.277,.647-1.113,1.179-2.246,2.339-3.381,3.499-1.689,1.724-3.376,3.448-5.08,5.157-.309,.307-.694,.539-1.043,.805l-.155-.11c0-.697-.023-1.397,.014-2.094,.01-.174,.174-.369,.315-.506C-6.542,6.4705-4.28,4.2595-2.036,2.0285-1.446,1.4445-.921,.7945-.327,.2125-.065-.0455,.295-.2095,.656-.4445" fill="#231f20" fill-rule="evenodd"/><path d="M69.996,5.1545c-.218-1.219-.075-2.17,.807-2.999,1.693-1.594,3.318-3.261,4.965-4.904,1.224-1.217,2.434-2.445,3.661-3.658,.114-.114,.305-.208,.458-.201,.076,.004,.19,.25,.202,.394,.04,.477,.051,.955,.045,1.433-.001,.122-.093,.266-.186,.36-1.883,1.877-3.773,3.742-5.654,5.621-1.189,1.186-2.355,2.391-3.55,3.569-.186,.179-.477,.252-.748,.385" fill="#231f20" fill-rule="evenodd"/><path d="M70.021,20.7765c-.363-1.454,.127-2.426,1.123-3.358,2.155-2.02,4.199-4.156,6.29-6.243,.662-.661,1.329-1.32,2-1.969,.092-.087,.282-.204,.344-.167,.145,.085,.336,.25,.34,.389,.03,.736,.087,1.455-.541,2.071-2.112,2.064-4.185,4.171-6.272,6.263-.879,.882-1.749,1.775-2.639,2.645-.163,.159-.409,.238-.645,.369" fill="#231f20" fill-rule="evenodd"/><path d="M70.012,10.4635c-.25-1.335-.04-2.302,.884-3.189,2.908-2.794,5.743-5.668,8.618-8.498,.127-.126,.382-.123,.558-.173,.034,.455,.039,.777,.089,1.091,.101,.664-.281,1.106-.693,1.522-1.052,1.066-2.121,2.115-3.176,3.176-1.715,1.727-3.418,3.466-5.143,5.184-.32,.32-.718,.564-1.137,.887" fill="#231f20" fill-rule="evenodd"/><path d="M69.92,15.4305c0-.619-.006-1.236,.004-1.854l.125-.255c1.564-1.513,3.152-3.004,4.696-4.537,1.578-1.566,3.114-3.174,4.676-4.758,.12-.119,.29-.191,.436-.285,.077,.156,.209,.307,.225,.469,.049,.453,.076,.916,.051,1.37-.009,.173-.159,.363-.294,.498-1.366,1.37-2.736,2.735-4.114,4.093-.994,.975-2.009,1.929-2.999,2.906-.616,.61-1.192,1.26-1.812,1.862-.245,.243-.561,.415-.842,.618l-.152-.127" fill="#231f20" fill-rule="evenodd"/><path d="M-9.089,99.9815c-.022-.205-.029-.247-.032-.287-.059-1.208,.028-2.171,1.151-3.144,2.43-2.107,4.585-4.534,6.852-6.829,.349-.354,.683-.725,1.052-1.057,.188-.169,.44-.268,.731-.441,.058,.674,.119,1.243,.142,1.811,.005,.118-.111,.263-.209,.362-2.933,2.957-5.87,5.908-8.812,8.857-.241,.241-.525,.441-.875,.728" fill="#231f20" fill-rule="evenodd"/><path d="M.673,35.8965c.048,.729,.113,1.285,.109,1.839-.002,.174-.153,.376-.289,.516-1.543,1.576-3.09,3.146-4.647,4.709-1.336,1.341-2.684,2.671-4.034,3.997-.249,.244-.537,.447-.931,.773,0-.826-.017-1.515,.011-2.206,.007-.135,.16-.281,.272-.395,2.805-2.816,5.607-5.632,8.425-8.435,.291-.29,.668-.497,1.084-.798" fill="#231f20" fill-rule="evenodd"/><path d="M.846-10.3095c-.039,.137-.128,.287-.103,.411,.197,.964-.396,1.523-1,2.123C-2.886-5.1605-5.491-2.5205-8.112,.1035c-.273,.272-.591,.5-1.006,.847,0-.81-.022-1.467,.013-2.121,.01-.175,.161-.371,.297-.506C-6.355-4.1435-3.89-6.6025-1.431-9.0625c.323-.323,.608-.7,.98-.955,.346-.235,.782-.338,1.18-.501l.117,.209" fill="#231f20" fill-rule="evenodd"/><path d="M70.123,.0035c-.477-1.133-.216-2.107,.546-2.841,1.498-1.438,2.95-2.923,4.411-4.397,.979-.986,1.942-1.985,2.913-2.975l.193-.145c.646-.012,1.292-.008,1.938-.008l.073,.213c-.145,.239-.248,.519-.44,.712-2.341,2.328-4.698,4.64-7.043,6.964-.618,.616-1.199,1.266-1.817,1.881-.223,.223-.501,.389-.774,.596" fill="#231f20" fill-rule="evenodd"/><path d="M.91,34.7825c.411-.464,.798-.954,1.238-1.392,2.57-2.551,5.198-5.046,7.698-7.663,.796-.831,1.547-1.089,2.677-.723-.148,.242-.261,.533-.464,.737-1.875,1.888-3.762,3.763-5.652,5.639-1.093,1.084-2.199,2.155-3.285,3.248-.326,.329-.633,.531-1.133,.378-.284-.089-.617-.016-.928-.016l-.151-.208" fill="#231f20" fill-rule="evenodd"/><path d="M84.097,34.8645c.228-.321,.362-.577,.557-.773,2.484-2.493,4.976-4.978,7.467-7.464,.559-.559,1.116-1.123,1.695-1.662,.13-.12,.362-.199,.54-.19,.412,.02,.821,.108,1.365,.186-.169,.283-.275,.575-.474,.774-1.453,1.447-2.935,2.867-4.388,4.311-1.474,1.467-2.965,2.919-4.374,4.444-.721,.78-1.466,.489-2.388,.374" fill="#231f20" fill-rule="evenodd"/><path d="M100.937,25.0375c-.099,.174-.178,.414-.339,.576-2.924,2.928-5.887,5.822-8.775,8.79-.777,.799-1.612,.479-2.525,.444,.402-.462,.783-.95,1.216-1.381,2.539-2.524,5.116-5.009,7.623-7.562,.785-.799,1.507-1.461,2.8-.867" fill="#231f20" fill-rule="evenodd"/><path d="M94.293,34.9785c.389-.428,.631-.712,.894-.975,2.575-2.575,5.155-5.146,7.73-7.722,.465-.465,.904-.959,1.385-1.408,.105-.1,.337-.102,.505-.09,.394,.03,.786,.099,1.287,.166-.15,.268-.247,.571-.443,.774-1.396,1.459-2.805,2.908-4.226,4.34-1.58,1.592-3.176,3.166-4.772,4.74-.093,.092-.247,.163-.375,.167-.595,.016-1.193,.008-1.985,.008" fill="#231f20" fill-rule="evenodd"/><path d="M99.749,34.9015c.147-.246,.239-.504,.415-.678,3.047-3.04,6.106-6.071,9.165-9.1,.317-.314,1.351-.451,1.655-.143,.118,.12,.073,.606-.071,.75-2.405,2.42-4.836,4.812-7.263,7.208-.385,.382-.831,.716-1.147,1.148-.698,.941-1.621,1.022-2.754,.815" fill="#231f20" fill-rule="evenodd"/><path d="M.647,4.9885c.076,.622,.147,1.033,.166,1.445,.008,.165-.051,.384-.162,.496-1.531,1.527-3.083,3.029-4.611,4.557-.809,.805-1.571,1.657-2.372,2.469-.857,.87-1.738,1.717-2.607,2.576l-.172-.062c0-.67-.004-1.338,.006-2.006l.137-.194c1.525-1.471,3.07-2.924,4.58-4.411C-3.002,8.4905-1.657,7.0825-.28,5.7035c.247-.247,.558-.434,.927-.715" fill="#231f20" fill-rule="evenodd"/><path d="M.665-5.4985c.044,.169,.051,.187,.053,.207,.159,1.095,.003,1.966-.969,2.777C-1.632-1.3665-2.78,.0525-4.064,1.3185c-1.593,1.578-3.224,3.12-4.841,4.676-.029,.027-.077,.032-.212,.089,0-.728-.003-1.42,.005-2.112l.107-.206C-7.415,2.2505-5.806,.7535-4.23-.7765-2.933-2.0385-1.681-3.3465-.394-4.6195c.303-.301,.655-.549,1.059-.879" fill="#231f20" fill-rule="evenodd"/><path d="M-9.116,21.7485c0-.81-.008-1.414,.007-2.017,.001-.125,.051-.286,.139-.368,1.045-.975,2.134-1.908,3.149-2.915,1.804-1.79,3.562-3.624,5.347-5.43,.332-.337,.707-.63,1.119-.995,.213,1.098,.194,1.93-.674,2.764-2.613,2.51-5.113,5.137-7.667,7.707-.403,.406-.86,.763-1.42,1.254" fill="#231f20" fill-rule="evenodd"/><path d="M63.489,52.1475c-.161,.355-.216,.663-.397,.843-1.656,1.667-3.349,3.295-4.998,4.968-.888,.905-1.839,.365-2.933,.303,.44-.483,.767-.869,1.122-1.227,1.566-1.575,3.142-3.143,4.717-4.709,.078-.079,.195-.168,.295-.17,.682-.015,1.364-.008,2.194-.008" fill="#231f20" fill-rule="evenodd"/><path d="M3.204,58.3045c.408-.493,.71-.916,1.071-1.283,1.472-1.491,2.97-2.958,4.438-4.452,.296-.302,.583-.46,1.012-.43,.553,.037,1.108,.008,1.662,.008l.098,.202c-.22,.307-.402,.65-.666,.915-1.551,1.565-3.096,3.138-4.699,4.651-.438,.41-1.016,.761-1.734,.515-.301-.106-.651-.075-1.182-.126" fill="#231f20" fill-rule="evenodd"/><path d="M46.671,7.7725c-.492-1.46-.091-2.507,.927-3.453,1.551-1.441,3.022-2.972,4.538-4.455,.117-.115,.311-.154,.468-.23,.052,.167,.121,.328,.152,.498,.22,1.269-.302,2.199-1.228,3.051-1.284,1.182-2.454,2.486-3.697,3.713-.337,.333-.762,.58-1.16,.876" fill="#231f20" fill-rule="evenodd"/><path d="M60.733,58.2455c.202-.294,.349-.595,.571-.818,1.691-1.692,3.364-3.402,5.109-5.032,.611-.569,1.437-.202,2.379-.195-.285,.422-.424,.72-.643,.936-1.515,1.511-3.069,2.989-4.57,4.515-.798,.811-1.683,1.025-2.846,.594" fill="#231f20" fill-rule="evenodd"/><path d="M52.757-5.6295c0,.505-.053,1.017,.013,1.512,.083,.605-.285,.87-.654,1.223-1.022,.969-1.996,1.992-2.988,2.992-.572,.574-1.132,1.157-1.724,1.708-.202,.187-.487,.286-.824,.475-.068-1.039-.238-1.957,.568-2.735,1.559-1.504,3.078-3.047,4.616-4.571,.229-.225,.467-.444,.699-.663,.098,.019,.196,.04,.294,.059" fill="#231f20" fill-rule="evenodd"/><path d="M94.748,52.1465c-.146,.304-.198,.56-.353,.714-1.778,1.769-3.579,3.518-5.356,5.286-.265,.264-.504,.334-.872,.283-.466-.066-.947-.018-1.423-.018l-.099-.157c.401-.453,.776-.929,1.202-1.358,1.525-1.527,3.064-3.041,4.603-4.553,.096-.092,.239-.185,.363-.188,.6-.02,1.198-.009,1.935-.009" fill="#231f20" fill-rule="evenodd"/><path d="M52.48,4.9775c.091,.19,.236,.375,.269,.579,.174,1.042-.19,1.857-.963,2.594-1.579,1.502-3.094,3.075-4.639,4.613-.094,.096-.235,.148-.354,.219-.497-.756-.325-2.062,.269-2.648,1.196-1.179,2.361-2.391,3.549-3.579,.567-.565,1.159-1.105,1.869-1.778" fill="#231f20" fill-rule="evenodd"/><path d="M105.055,52.3305c-.126,.236-.201,.515-.379,.691-1.758,1.742-3.531,3.467-5.304,5.196-.19,.183-1.792,.278-1.937,.076-.084-.115-.039-.437,.069-.555,.642-.708,1.313-1.388,1.987-2.065,1-.999,2.014-1.985,3.018-2.98,.597-.591,1.666-.761,2.546-.363" fill="#231f20" fill-rule="evenodd"/><path d="M24.036-3.0595c.075,.317,.164,.551,.185,.793,.059,.623,.056,1.194-.47,1.707-1.663,1.627-3.274,3.311-4.919,4.956-.217,.216-.534,.333-.863,.531-.202-1.206-.126-2.166,.76-3.002,1.647-1.553,3.219-3.184,4.833-4.772,.113-.111,.304-.139,.474-.213" fill="#231f20" fill-rule="evenodd"/><path d="M97.028,80.9735c-.168,.25-.295,.518-.493,.715-1.675,1.682-3.358,3.355-5.047,5.022-.367,.361-1.532,.432-2.349,.125,.186-.279,.319-.577,.533-.795,1.447-1.464,2.918-2.906,4.369-4.366,.96-.968,1.792-1.187,2.987-.701" fill="#231f20" fill-rule="evenodd"/><path d="M18.006,46.8365c-.356-1.385,0-2.358,.924-3.226,1.561-1.465,3.051-3.005,4.58-4.505,.12-.117,.297-.173,.479-.276,.377,1.062,.37,1.931-.479,2.717-1.175,1.089-2.287,2.246-3.417,3.379-.383,.382-.732,.797-1.125,1.167-.276,.259-.598,.467-.962,.744" fill="#231f20" fill-rule="evenodd"/><path d="M58.106,86.7365c.49-.517,.966-1.048,1.469-1.55,1.41-1.41,2.825-2.813,4.256-4.203,.139-.134,.382-.226,.577-.23,.512-.009,1.024,.042,1.68,.076-.217,.352-.337,.666-.555,.883-1.566,1.574-3.19,3.093-4.718,4.704-.795,.84-1.669,.562-2.553,.532l-.156-.212" fill="#231f20" fill-rule="evenodd"/><path d="M52.698,41.5825c.204,1.113,.058,2.08-.848,2.927-1.518,1.42-2.947,2.936-4.424,4.401-.185,.183-.43,.306-.651,.458-.452-.772-.304-2.014,.253-2.562,1.643-1.614,3.283-3.229,4.922-4.847,.21-.207,.291-.652,.748-.377" fill="#231f20" fill-rule="evenodd"/><path d="M52.686,15.3835c.156,1.209,.159,2.179-.733,2.992-1.225,1.12-2.381,2.316-3.561,3.486-.251,.248-.464,.534-.72,.776-.279,.262-.586,.492-.994,.832-.175-.884-.351-1.61,.095-2.28,.297-.447,.668-.851,1.05-1.231,1.428-1.419,2.873-2.821,4.318-4.224,.123-.119,.291-.19,.545-.351" fill="#231f20" fill-rule="evenodd"/><path d="M52.664,36.2085c.291,1.313,.015,2.286-.906,3.147-1.382,1.291-2.662,2.689-4.008,4.019-.31,.306-.711,.522-1.149,.833-.182-1.229-.111-2.188,.778-3.023,1.635-1.537,3.194-3.154,4.794-4.727,.116-.116,.302-.156,.491-.249" fill="#231f20" fill-rule="evenodd"/><path d="M52.66,10.0785c.227,1.332,.114,2.302-.802,3.152-1.429,1.331-2.749,2.778-4.135,4.156-.297,.296-.685,.501-1.136,.821-.093-1.121-.22-2.045,.61-2.836,1.551-1.475,3.049-3.008,4.573-4.51,.248-.245,.524-.463,.89-.783" fill="#231f20" fill-rule="evenodd"/><path d="M46.635,96.0445c-.113-1.03-.355-1.875,.348-2.587,1.519-1.535,3.042-3.064,4.572-4.589,.32-.317,.669-.602,1.134-1.016,.102,1.213,.229,2.157-.635,2.957-1.206,1.115-2.338,2.306-3.5,3.465-.322,.323-.623,.666-.955,.98-.25,.234-.532,.439-.964,.79" fill="#231f20" fill-rule="evenodd"/><path d="M17.968,20.6395c-.186-1.295-.123-2.258,.773-3.094,1.641-1.529,3.195-3.147,4.795-4.719,.116-.115,.298-.162,.447-.24,.526,1.296,.167,2.185-.832,3.057-1.389,1.211-2.618,2.605-3.928,3.908-.363,.361-.774,.674-1.255,1.088" fill="#231f20" fill-rule="evenodd"/><path d="M99.479,87.0085c.168-.329,.233-.591,.394-.751,1.752-1.738,3.511-3.465,5.284-5.178,.157-.154,.427-.231,.654-.263,.567-.075,1.138-.103,1.794-.012-.241,.287-.464,.592-.728,.855-1.533,1.529-3.101,3.021-4.606,4.577-.567,.585-1.155,.903-1.968,.777-.224-.034-.457-.005-.824-.005" fill="#231f20" fill-rule="evenodd"/><path d="M81.608,58.3205c.204-.336,.321-.649,.537-.866,1.474-1.499,3.038-2.916,4.427-4.486,.757-.856,1.565-.908,2.564-.775,.104,.717-.545,.979-.904,1.364-.961,1.035-2.012,1.983-2.997,2.997-.461,.476-.852,1.024-1.267,1.545-.261,.33-.564,.421-.988,.328-.397-.089-.821-.071-1.372-.107" fill="#231f20" fill-rule="evenodd"/><path d="M24.001,7.4835c.464,1.044,.291,1.837-.439,2.558-1.52,1.5-3.005,3.033-4.526,4.53-.264,.261-.637,.408-.96,.607-.062-.35-.114-.703-.189-1.053-.136-.643,.322-.938,.705-1.314,1.721-1.688,3.42-3.4,5.129-5.103,.083-.08,.18-.145,.28-.225" fill="#231f20" fill-rule="evenodd"/><path d="M99.687,52.3145c-.154,.245-.252,.485-.421,.654-1.728,1.744-3.43,3.516-5.224,5.192-.527,.492-1.348,.364-2.271,.283,.438-.526,.745-.956,1.11-1.324,1.232-1.242,2.482-2.463,3.727-3.691,.192-.192,.388-.379,.569-.579,.691-.76,1.378-.926,2.51-.535" fill="#231f20" fill-rule="evenodd"/><path d="M24.035,90.7995c.458,1.095,.126,1.937-.677,2.694-1.117,1.059-2.198,2.155-3.287,3.24-.353,.352-.684,.73-1.045,1.073-.277,.265-.587,.498-.988,.832-.178-.807-.402-1.52,.119-2.061,1.781-1.861,3.617-3.671,5.441-5.494,.123-.123,.298-.197,.437-.284" fill="#231f20" fill-rule="evenodd"/><path d="M13.811,80.8395c-.216,.345-.341,.655-.559,.873-1.555,1.559-3.146,3.086-4.691,4.655-.472,.483-.965,.738-1.641,.646-.284-.036-.578-.005-1.018-.005,.15-.229,.219-.382,.327-.493,1.75-1.75,3.508-3.489,5.25-5.248,.42-.424,.836-.709,1.467-.5,.226,.073,.483,.045,.865,.072" fill="#231f20" fill-rule="evenodd"/><path d="M8.686,58.2685c.228-.319,.401-.647,.651-.896,1.592-1.585,3.207-3.146,4.802-4.729,.541-.537,1.409-.688,2.259-.295-.17,.262-.293,.555-.501,.763-1.578,1.569-3.218,3.08-4.742,4.701-.734,.78-1.486,.731-2.469,.456" fill="#231f20" fill-rule="evenodd"/><path d="M102.232,80.8395c-.158,.29-.23,.539-.39,.699-1.76,1.756-3.53,3.496-5.311,5.23-.132,.129-.355,.216-.542,.228-.509,.031-1.02,.011-1.609-.137,.326-.349,.638-.71,.978-1.045,1.578-1.565,3.181-3.106,4.735-4.697,.331-.338,.594-.503,1.063-.369,.293,.083,.616,.056,1.076,.091" fill="#231f20" fill-rule="evenodd"/><path d="M52.753,93.1695c0,.619-.038,1.081,.009,1.532,.054,.522-.2,.803-.558,1.138-1.046,.974-2.035,2.01-3.044,3.022-.57,.574-1.119,1.167-1.712,1.715-.227,.211-.549,.319-.92,.527,0-.638-.031-1.137,.014-1.627,.018-.198,.164-.415,.31-.566,1.209-1.225,2.423-2.443,3.652-3.649,.675-.66,1.382-1.287,2.249-2.092" fill="#231f20" fill-rule="evenodd"/><path d="M17.973,67.2395c-.365-1.225,.137-2.093,.994-2.873,1.167-1.062,2.303-2.16,3.434-3.261,.264-.256,.425-.615,.68-.884,.194-.208,.447-.371,.701-.509,.061-.033,.268,.09,.328,.189,.207,.345,.039,1.498-.252,1.791-1.419,1.437-2.839,2.871-4.267,4.297-.409,.407-.842,.791-1.279,1.169-.079,.068-.226,.057-.339,.081" fill="#231f20" fill-rule="evenodd"/><path d="M18.079,10.1025c-.4-.889-.251-1.757,.35-2.359,1.621-1.619,3.236-3.242,4.859-4.857,.215-.211,.471-.379,.726-.582,.417,1.084,.215,1.92-.584,2.692-1.571,1.515-3.084,3.094-4.632,4.633-.198,.194-.471,.312-.719,.473" fill="#231f20" fill-rule="evenodd"/><path d="M84.203,86.9795c.574-.688,1.017-1.279,1.522-1.81,1.204-1.271,2.46-2.489,3.645-3.775,.42-.455,.839-.693,1.451-.614,.287,.036,.583,.005,1.032,.005-.212,.367-.329,.703-.552,.929-1.554,1.564-3.171,3.07-4.683,4.674-.674,.715-1.417,.634-2.415,.591" fill="#231f20" fill-rule="evenodd"/><path d="M33.581,20.8325c-.053-.658-.127-1.133-.115-1.605,.007-.274,.073-.617,.247-.803,.991-1.061,2.019-2.083,3.04-3.113l.221-.058c.525,1.216,.363,2.102-.515,2.976-.618,.612-1.211,1.25-1.842,1.851-.274,.26-.615,.45-1.036,.752" fill="#231f20" fill-rule="evenodd"/><path d="M33.637,15.3265c-.376-1.484,.044-2.512,1.073-3.36,.652-.538,1.222-1.175,1.838-1.759,.121-.113,.288-.177,.482-.291,.085,.36,.19,.63,.207,.906,.039,.637,.057,1.218-.584,1.707-.701,.534-1.232,1.282-1.871,1.905-.326,.319-.722,.568-1.145,.892" fill="#231f20" fill-rule="evenodd"/><path d="M33.614,77.6845c-.338-1.391,.055-2.395,1.021-3.229,.673-.583,1.292-1.229,1.942-1.839,.11-.104,.26-.169,.521-.335,.057,.685,.122,1.24,.137,1.799,.004,.163-.096,.364-.213,.488-.843,.88-1.693,1.757-2.568,2.608-.223,.216-.541,.331-.84,.508" fill="#231f20" fill-rule="evenodd"/><path d="M33.615,41.5915c-.29-1.354-.029-2.361,.923-3.182,.709-.613,1.358-1.292,2.045-1.93,.121-.114,.288-.177,.456-.276,.081,.319,.178,.553,.192,.791,.041,.66,.099,1.271-.562,1.783-.698,.542-1.233,1.288-1.875,1.911-.34,.328-.754,.582-1.179,.903" fill="#231f20" fill-rule="evenodd"/><path d="M32.062,67.8625c-.235,.358-.376,.663-.596,.889-.799,.814-1.635,1.592-2.436,2.403-.279,.285-.551,.359-.938,.279-.403-.082-.826-.065-1.369-.099,.187-.315,.299-.626,.508-.843,.85-.883,1.721-1.742,2.602-2.592,.131-.126,.355-.227,.531-.22,.514,.022,1.024,.104,1.698,.183" fill="#231f20" fill-rule="evenodd"/><path d="M84.116,71.3085c.208-.324,.339-.627,.555-.843,.899-.908,1.82-1.792,2.745-2.671,.088-.085,.259-.126,.384-.116,.511,.04,1.022,.106,1.673,.18-.239,.373-.399,.731-.654,.997-.792,.822-1.615,1.61-2.437,2.402-.109,.103-.276,.219-.411,.213-.576-.027-1.146-.095-1.855-.162" fill="#231f20" fill-rule="evenodd"/><path d="M58.092,71.2855c.308-.422,.491-.747,.743-.999,.842-.85,1.708-1.677,2.572-2.504,.076-.072,.221-.123,.327-.113,.534,.047,1.064,.115,1.729,.192-.249,.378-.418,.735-.671,1.007-.782,.831-1.594,1.632-2.4,2.442l-.243,.159c-.633-.044-1.263-.11-2.057-.184" fill="#231f20" fill-rule="evenodd"/><path d="M16.418,67.8615c-.252,.373-.424,.727-.683,.995-.734,.763-1.51,1.484-2.256,2.234-.279,.282-.536,.43-.974,.331-.41-.094-.86-.02-1.453-.02,.221-.386,.324-.685,.523-.891,.863-.894,1.749-1.765,2.641-2.631,.119-.114,.325-.218,.484-.208,.531,.029,1.061,.112,1.718,.19" fill="#231f20" fill-rule="evenodd"/><path d="M33.667,10.1805c-.191-.832-.399-1.619,.06-2.157,.951-1.115,2.055-2.1,3.102-3.133l.197-.03c.444,1.146,.264,2.1-.728,2.906-.577,.467-1.051,1.062-1.592,1.578-.292,.277-.629,.508-1.039,.836" fill="#231f20" fill-rule="evenodd"/><path d="M68.701,67.8595c-.232,.362-.376,.689-.606,.927-.751,.772-1.54,1.507-2.302,2.267-.31,.306-.605,.484-1.091,.358-.382-.101-.812-.02-1.37-.02,.224-.384,.331-.685,.533-.893,.862-.892,1.747-1.766,2.644-2.624,.13-.125,.366-.201,.549-.193,.495,.021,.984,.101,1.643,.178" fill="#231f20" fill-rule="evenodd"/><path d="M33.624,46.8365c-.306-1.363-.035-2.36,.922-3.174,.694-.591,1.32-1.262,1.983-1.89,.124-.117,.278-.202,.435-.315,.517,1.367,.391,1.918-.555,2.834-.581,.563-1.125,1.163-1.711,1.72-.305,.289-.666,.515-1.074,.825" fill="#231f20" fill-rule="evenodd"/><path d="M33.607,4.9095c-.271-1.318-.038-2.325,.932-3.14,.697-.588,1.318-1.266,1.98-1.897,.124-.119,.282-.204,.445-.319,.46,1.481,.439,1.87-.459,2.746-.641,.622-1.244,1.281-1.892,1.895-.286,.268-.645,.461-1.006,.715" fill="#231f20" fill-rule="evenodd"/><path d="M37.141,93.3355c.035,.555,.076,1.108,.096,1.664,.006,.111-.039,.257-.113,.332-.961,.975-1.929,1.942-2.906,2.9-.127,.124-.315,.183-.475,.271-.455-.817-.269-1.823,.357-2.406,.848-.787,1.664-1.61,2.489-2.425,.13-.126,.23-.281,.344-.425l.208,.089" fill="#231f20" fill-rule="evenodd"/><path d="M99.849,67.8955c-.365,.368-.589,.59-.808,.817-.838,.865-1.675,1.734-2.516,2.599l-.24,.166c-.597,.014-1.192,.007-1.788,.007l-.072-.183c.144-.185,.273-.385,.435-.554,.936-.976,1.876-1.946,2.823-2.911,.091-.091,.254-.171,.374-.16,.53,.044,1.055,.124,1.792,.219" fill="#231f20" fill-rule="evenodd"/><path d="M37.048,62.1145c.417,1.012,.291,1.754-.454,2.506-.671,.675-1.328,1.369-2.019,2.024-.271,.255-.621,.428-.989,.675-.171-1.048-.101-1.882,.648-2.563,.95-.861,1.872-1.756,2.814-2.642" fill="#231f20" fill-rule="evenodd"/><path d="M5.948,71.2805c.475-.498,.924-.982,1.383-1.454,.58-.596,1.198-1.158,1.738-1.787,.285-.332,.551-.454,.965-.355,.322,.075,.654,.098,1.131,.166-.231,.367-.383,.725-.635,.99-.686,.723-1.414,1.409-2.127,2.109-.574,.569-1.562,.725-2.455,.331" fill="#231f20" fill-rule="evenodd"/><path d="M37.05,98.6025c.28,.899,.353,1.73-.486,2.461-.702,.614-1.305,1.337-1.982,1.979-.272,.259-.622,.432-1.001,.686-.142-1.031-.109-1.838,.619-2.533,.914-.872,1.754-1.822,2.627-2.739l.223,.146" fill="#231f20" fill-rule="evenodd"/><path d="M89.354,71.3415c.238-.371,.38-.695,.611-.933,.794-.818,1.607-1.619,2.446-2.393,.168-.156,.473-.203,.721-.228,.39-.036,.785-.009,1.359-.009-.249,.405-.388,.745-.625,.993-.735,.759-1.519,1.473-2.262,2.226-.341,.346-.662,.584-1.189,.407-.281-.094-.611-.043-1.061-.063" fill="#231f20" fill-rule="evenodd"/><path d="M36.998,88.2675c.498,1.08,.214,1.875-.611,2.582-.58,.498-1.068,1.1-1.628,1.625-.332,.311-.721,.563-1.18,.913-.119-1.037-.149-1.848,.574-2.515,.869-.803,1.693-1.651,2.544-2.476,.065-.064,.178-.08,.301-.129" fill="#231f20" fill-rule="evenodd"/><path d="M99.764,71.2025c.275-.347,.524-.716,.829-1.033,.59-.614,1.252-1.162,1.805-1.808,.393-.463,.812-.657,1.401-.59,.302,.035,.614,.007,1.081,.007-.257,.409-.404,.758-.648,1.01-.722,.747-1.495,1.442-2.22,2.187-.36,.368-.702,.593-1.25,.421-.263-.083-.575-.014-.865-.014l-.133-.18" fill="#231f20" fill-rule="evenodd"/></g></g></g></svg>