<?xml version="1.0" encoding="UTF-8"?><svg id="a" xmlns="http://www.w3.org/2000/svg" xmlns:xlink="http://www.w3.org/1999/xlink" viewBox="0 0 102.575 103.907"><defs><clipPath id="c"><path d="M51.787,103.6565c28.83,0,50.538-22.039,50.538-50.869S80.951,.2505,52.121,.2505,.25,23.6235,.25,52.4535s22.706,51.203,51.537,51.203" fill="#fff"/></clipPath></defs><g id="b"><g><path d="M51.787,103.6565c28.83,0,50.538-22.039,50.538-50.869S80.951,.2505,52.121,.2505,.25,23.6235,.25,52.4535s22.706,51.203,51.537,51.203" fill="#fff"/><g clip-path="url(#c)"><path d="M51.286,114.1795c34.367,0,62.227-27.859,62.227-62.225S85.653-10.2705,51.286-10.2705-10.938,17.5885-10.938,51.9545s27.859,62.225,62.224,62.225" fill="#fff"/></g></g><path d="M51.787,103.657v.25c14.479,0,27.181-5.537,36.258-14.698,9.077-9.16,14.53-21.944,14.53-36.422s-5.367-27.673-14.359-37.251C79.226,5.958,66.606,0,52.121,0S24.604,5.872,15.196,15.365C5.788,24.857,0,37.971,0,52.453s5.704,27.349,15.031,36.591c9.326,9.243,22.275,14.863,36.756,14.863v-.5c-28.699-.004-51.284-22.258-51.287-50.954C.501,23.759,23.428,.501,52.121,.5c28.684,.001,49.949,23.579,49.953,52.287-.005,28.701-21.589,50.614-50.287,50.62v.25" fill="#231f20"/><path d="M41.391,38.029h4.799v.253h-.24c-.361,0-.609,.038-.744,.113-.135,.076-.231,.179-.288,.312s-.086,.465-.086,.994v4.553c0,.832,.063,1.382,.189,1.652,.126,.269,.333,.493,.62,.672,.288,.178,.651,.266,1.091,.266,.502,0,.93-.112,1.285-.338,.353-.227,.619-.54,.795-.936,.176-.398,.263-1.091,.263-2.078v-3.791c0-.416-.042-.713-.129-.891s-.197-.302-.329-.371c-.207-.1039-.497-.157-.872-.157v-.253h3.216v.253h-.192c-.26,0-.478,.053-.652,.157-.172,.106-.298,.264-.376,.474-.06,.1461-.089,.4091-.089,.788v3.531c0,1.092-.073,1.881-.216,2.365-.144,.485-.495,.93-1.053,1.336-.558,.408-1.318,.611-2.282,.611-.805,0-1.426-.108-1.865-.323-.599-.292-1.022-.667-1.268-1.124-.247-.457-.371-1.072-.371-1.843v-4.553c0-.535-.029-.867-.089-.997-.059-.13-.162-.235-.308-.312-.147-.078-.416-.115-.809-.11v-.253" fill="#42b4e4"/><path d="M54.874,43.088v2.605c0,.502,.031,.818,.093,.949,.062,.131,.17,.235,.325,.313,.156,.077,.446,.116,.871,.116v.253h-4.757v-.253c.429,0,.72-.04,.874-.12,.153-.08,.26-.184,.322-.313,.061-.127,.093-.443,.093-.945v-6.033c0-.502-.032-.819-.093-.949-.062-.131-.171-.235-.326-.313-.156-.077-.446-.116-.87-.116v-.253h4.318c1.125,0,1.947,.077,2.469,.232,.52,.156,.945,.443,1.274,.861,.329,.419,.494,.908,.494,1.47,0,.686-.247,1.252-.74,1.701-.315,.283-.757,.496-1.323,.636l2.234,3.1479c.293,.407,.501,.66,.624,.761,.188,.141,.404,.218,.652,.233v.253h-2.928l-2.995-4.236h-.611m0-4.559v4.072h.391c.635,0,1.11-.058,1.426-.176,.315-.115,.563-.326,.744-.629,.181-.304,.27-.7,.27-1.19,0-.708-.166-1.231-.497-1.569-.331-.339-.865-.508-1.6-.508h-.734Z" fill="#42b4e4"/><path d="M13.129,59.554v2.578c0,.503,.031,.819,.093,.949,.062,.131,.171,.234,.329,.313,.157,.078,.446,.117,.867,.117v.253h-4.723v-.253c.429,0,.72-.041,.874-.121,.153-.08,.26-.184,.322-.312,.061-.128,.093-.443,.093-.946v-6.033c0-.502-.032-.819-.093-.95-.062-.129-.17-.234-.325-.311-.157-.077-.447-.116-.871-.116v-.254h4.051c1.334,0,2.292,.238,2.872,.713,.582,.475,.872,1.069,.872,1.782,0,.603-.188,1.12-.563,1.55-.375,.429-.891,.721-1.549,.877-.443,.1089-1.193,.164-2.249,.164m0-4.551v4.017c.151,.008,.265,.013,.343,.013,.558,0,.987-.165,1.289-.497,.302-.331,.452-.844,.452-1.539,0-.689-.15-1.195-.452-1.515-.302-.319-.752-.479-1.351-.479h-.281Z" fill="#42b4e4"/><path d="M24.535,57.355v5.018c0,.489,.046,.794,.138,.915,.091,.121,.277,.198,.555,.229v.247h-2.611v-.856c-.307,.3651-.613,.631-.919,.799-.306,.166-.649,.25-1.029,.25-.361,0-.681-.112-.963-.333-.281-.222-.469-.482-.565-.779-.097-.297-.145-.815-.145-1.555v-2.544c0-.485-.044-.786-.133-.905-.089-.119-.276-.197-.559-.233v-.253h2.612v4.38c0,.457,.022,.752,.066,.884,.043,.132,.111,.234,.205,.302,.094,.069,.202,.103,.326,.103,.164,0,.312-.044,.445-.13,.183-.119,.403-.359,.659-.721v-3.427c0-.485-.045-.786-.134-.905-.089-.119-.276-.197-.559-.233v-.253h2.611" fill="#42b4e4"/><path d="M28.814,57.355v.843c.351-.384,.678-.653,.976-.806,.3-.153,.628-.23,.985-.23,.411,0,.756,.096,1.035,.289,.278,.191,.493,.484,.644,.877,.366-.411,.716-.708,1.052-.8911,.336-.184,.687-.275,1.053-.275,.443,0,.796,.102,1.058,.305,.264,.204,.447,.462,.549,.775,.103,.313,.155,.812,.155,1.498v2.626c0,.493,.045,.8,.133,.919,.089,.119,.276,.196,.559,.232v.247h-3.312v-.247c.261-.022,.454-.123,.577-.301,.082-.124,.123-.407,.123-.85v-2.756c0-.571-.023-.935-.069-1.091-.046-.154-.117-.269-.215-.346-.099-.075-.214-.113-.346-.113-.197,0-.396,.072-.597,.217-.201,.143-.404,.359-.61,.647v3.442c0,.462,.039,.752,.116,.87,.105,.17,.307,.264,.604,.281v.247h-3.318v-.247c.178-.009,.318-.053,.421-.133,.104-.08,.172-.175,.206-.289,.034-.111,.051-.355,.051-.729v-2.756c0-.581-.023-.944-.069-1.091-.045-.145-.122-.26-.229-.342-.107-.082-.223-.123-.346-.123-.183,0-.349,.047-.501,.144-.215,.141-.443,.384-.685,.726v3.442c0,.452,.045,.751,.134,.894,.088,.144,.275,.23,.558,.257v.247h-3.304v-.247c.27-.027,.461-.113,.576-.26,.078-.101,.117-.3979,.117-.891v-3.62c0-.485-.045-.786-.134-.905-.09-.119-.275-.197-.559-.233v-.253h2.612" fill="#42b4e4"/><path d="M40.149,63.112v2.386c0,.329,.025,.554,.078,.672s.134,.206,.244,.261c.109,.054,.324,.082,.644,.082v.254h-3.654v-.254c.283-.01,.493-.089,.631-.24,.091-.106,.137-.377,.137-.816v-6.766c0-.453-.053-.742-.157-.868-.106-.125-.309-.197-.611-.216v-.252h2.688v.842c.223-.329,.452-.567,.685-.714,.333-.213,.697-.322,1.09-.322,.471,0,.9,.15,1.285,.446,.386,.298,.68,.709,.881,1.231,.201,.524,.302,1.087,.302,1.6899,0,.649-.105,1.243-.312,1.7791-.208,.537-.509,.946-.905,1.227-.395,.282-.835,.422-1.319,.422-.353,0-.682-.078-.988-.233-.228-.119-.468-.323-.719-.611m0-.692c.392,.558,.813,.837,1.26,.837,.248,0,.451-.131,.611-.391,.237-.384,.356-1.115,.356-2.194,0-1.106-.13-1.862-.39-2.269-.174-.269-.408-.405-.7-.405-.461,0-.84,.334-1.137,1.001v3.421Z" fill="#42b4e4"/><path d="M50.905,60.329h-3.517c.041,.85,.268,1.521,.679,2.016,.315,.379,.694,.5681,1.137,.5681,.275,0,.524-.076,.747-.229,.225-.1541,.464-.429,.721-.826l.233,.151c-.347,.709-.732,1.21-1.152,1.505-.421,.293-.907,.442-1.46,.442-.951,0-1.671-.366-2.16-1.098-.392-.59-.589-1.3199-.589-2.193,0-1.069,.289-1.92,.867-2.554,.579-.6331,1.255-.95,2.033-.95,.649,0,1.212,.268,1.689,.799,.478,.533,.735,1.322,.772,2.369m-1.687-.459c0-.736-.04-1.241-.12-1.516-.079-.273-.204-.482-.373-.623-.096-.083-.224-.124-.384-.124-.238,0-.432,.117-.583,.35-.269,.407-.404,.9641-.404,1.673v.24h1.864Z" fill="#42b4e4"/><path d="M54.367,57.355v1.453c.424-.663,.797-1.103,1.117-1.32s.629-.326,.925-.326c.256,0,.461,.08,.614,.237,.153,.157,.23,.38,.23,.669,0,.306-.075,.543-.223,.713-.149,.168-.328,.253-.538,.253-.243,0-.453-.077-.631-.234-.178-.154-.284-.242-.315-.259l-.158-.041c-.133,0-.258,.049-.377,.15-.187,.155-.329,.377-.425,.665-.146,.443-.219,.933-.219,1.468v1.472l.006,.3849c0,.26,.017,.428,.048,.5,.055,.123,.136,.2141,.244,.272,.107,.056,.288,.091,.545,.105v.247h-3.463v-.247c.28-.022,.468-.1,.567-.229,.097-.13,.147-.474,.147-1.033v-3.543c0-.366-.018-.599-.055-.7-.045-.128-.112-.221-.199-.28-.087-.061-.24-.102-.46-.124v-.253h2.62" fill="#42b4e4"/><path d="M60.557,57.355v.828c.329-.355,.644-.615,.946-.777,.302-.162,.626-.244,.974-.244,.415,0,.761,.116,1.035,.346,.273,.232,.457,.519,.548,.861,.073,.26,.11,.761,.11,1.502v2.495c0,.493,.044,.801,.133,.922,.09,.121,.275,.198,.56,.229v.247h-3.244v-.247c.243-.031,.416-.133,.522-.301,.072-.1151,.109-.398,.109-.85v-2.853c0-.525-.02-.856-.061-.994-.041-.137-.112-.242-.209-.318-.099-.075-.207-.114-.326-.114-.393,0-.759,.282-1.097,.844v3.435c0,.479,.045,.784,.134,.911,.089,.129,.255,.209,.497,.24v.247h-3.243v-.247c.269-.027,.462-.113,.576-.26,.078-.101,.116-.3979,.116-.891v-3.62c0-.485-.044-.786-.133-.905-.09-.119-.275-.197-.559-.233v-.253h2.612" fill="#42b4e4"/><path d="M68.249,57.354v5.079c0,.453,.052,.742,.158,.868,.105,.126,.31,.198,.617,.215v.248h-3.462v-.248c.283-.008,.493-.091,.631-.246,.091-.105,.136-.384,.136-.837v-3.743c0-.452-.052-.741-.157-.867-.105-.125-.308-.197-.61-.216v-.253h2.687m-.96-3.106c.297,0,.548,.104,.754,.311,.206,.209,.309,.459,.309,.752,0,.292-.105,.541-.312,.747-.208,.206-.459,.308-.751,.308-.293,0-.542-.102-.747-.308-.206-.206-.308-.455-.308-.747,0-.293,.102-.543,.308-.752,.205-.207,.454-.311,.747-.311Z" fill="#42b4e4"/><path d="M74.92,62.112l.212,.165c-.302,.566-.678,.988-1.128,1.265-.45,.276-.929,.415-1.435,.415-.855,0-1.538-.323-2.05-.967-.512-.645-.768-1.42-.768-2.324,0-.873,.233-1.641,.699-2.304,.562-.8,1.336-1.2,2.324-1.2,.663,0,1.189,.168,1.58,.501,.391,.334,.587,.706,.587,1.118,0,.26-.079,.468-.237,.623-.158,.156-.365,.233-.621,.233-.269,0-.492-.0891-.668-.267-.175-.179-.285-.495-.326-.952-.027-.289-.094-.491-.198-.604-.106-.1151-.229-.172-.37-.172-.22,0-.407,.1169-.563,.35-.237,.351-.356,.891-.356,1.618,0,.603,.096,1.181,.288,1.731,.191,.551,.454,.961,.788,1.231,.251,.196,.549,.295,.892,.295,.223,0,.436-.053,.637-.158,.201-.106,.439-.305,.713-.597" fill="#42b4e4"/><path d="M78.638,54.468v6.115l1.487-1.461c.307-.297,.497-.511,.573-.644,.076-.132,.113-.26,.113-.383,0-.124-.05-.227-.151-.309-.1-.082-.296-.142-.589-.178v-.253h2.873v.253c-.275,.013-.515,.079-.721,.195-.205,.116-.607,.468-1.206,1.052l-.699,.685,1.507,2.208c.609,.896,.969,1.399,1.084,1.509,.155,.154,.352,.242,.589,.26v.247h-3.311v-.247c.146,0,.253-.028,.319-.082l.1-.178c0-.105-.097-.3-.288-.583l-1.269-1.858-.411,.404v1.152c0,.49,.046,.794,.137,.915,.092,.121,.279,.199,.562,.23v.247h-3.311v-.247c.269-.028,.462-.113,.576-.26,.078-.102,.116-.395,.116-.885v-6.512c0-.485-.044-.787-.134-.906-.089-.119-.275-.196-.558-.232v-.254h2.612" fill="#42b4e4"/><path d="M89.018,60.329h-3.517c.041,.85,.268,1.521,.679,2.016,.315,.379,.694,.5681,1.138,.5681,.274,0,.523-.076,.747-.229,.224-.1541,.464-.429,.72-.826l.233,.151c-.347,.709-.732,1.21-1.151,1.505-.421,.293-.908,.442-1.46,.442-.952,0-1.671-.366-2.161-1.098-.392-.59-.588-1.3199-.588-2.193,0-1.069,.289-1.92,.8669-2.554,.578-.6331,1.255-.95,2.032-.95,.649,0,1.212,.268,1.689,.799,.478,.533,.736,1.322,.772,2.369m-1.687-.459c0-.736-.04-1.241-.12-1.516-.079-.273-.204-.482-.373-.623-.096-.083-.223-.124-.384-.124-.238,0-.432,.117-.583,.35-.269,.407-.404,.9641-.404,1.673v.24h1.864Z" fill="#42b4e4"/><path d="M92.33,54.468v7.966c0,.452,.052,.741,.158,.867,.105,.126,.31,.198,.617,.216v.247h-3.462v-.247c.283-.009,.493-.092,.631-.246,.091-.106,.136-.3849,.136-.837v-6.636c0-.448-.052-.734-.157-.86-.105-.126-.308-.199-.61-.2159v-.254h2.687" fill="#42b4e4"/></g></svg>