<?xml version="1.0" encoding="UTF-8"?><svg xmlns="http://www.w3.org/2000/svg" viewBox="0 0 162 162"><defs><style>.cls-1,.cls-2{fill:none;}.cls-3{fill:#fad2e3;}.cls-4{fill:#fff;}.cls-5,.cls-6{fill:#ed1c24;}.cls-7{fill:#fef095;}.cls-8{fill:#e4287e;}.cls-6{stroke-width:.25px;}.cls-6,.cls-2{stroke:#ed1c24;stroke-miterlimit:10;}</style></defs><g id="Layer_1"><circle class="cls-3" cx="81" cy="81" r="81"/></g><g id="Layer_2"><circle class="cls-4" cx="50.24" cy="89.96" r="33.19"/><path class="cls-5" d="m77.59,16.62c3.31-.12,6.5-.9,9.72-.53.68.08.91-.53,1.52-.56,1.6-.07,2.23.29,2.75,1.94.79,2.51.8,2.62,3.36,2.48,2.1-.12,4.02.57,5.98,1.04,1.19.28,1.32,1.17.4,1.94-.14.11-.56.04-.23.41.05.05.14.09.21.08,1.2-.19,2,.25,2.31,1.45.93-.13.81,1.06,1.65,1.28.52.13,1.75.86.61,2-.31.3.22.72.52.97,1.83,1.53,1.94,1.81,1.93,3.59,0,.74-.21,1.33-.91,1.49-1.08.25-1.2.98-1.07,1.82.22,1.38-.33,2.65-.54,3.97-.09.56-.51,1.52-.77,1.52-.94,0-.56.86-.97,1.17-.32.24-.71,1-.61,1.11.41.46.7,1.15,1.42,1.23.98.1,1.68.67,2.45,1.22,1.81,1.3,3.97,2.08,5.6,3.67,1.94.37,3.51,1.55,5.03,2.65,1.51,1.1,3.34,1.69,4.65,3.07.1.1.27.19.41.19,1.99.04,2.59,1.67,3.47,2.99.89,1.32.39,2.78.43,4.19-.99.81.11,2.26-.93,3.05.25,1.14-.38,2.17-.59,3.21-.36,1.78-.73,3.59-1.22,5.36-.29,1.03-.3,2.13-.63,3.18-.15.48.21,1.22-.78,1.13-.06,0-.24.27-.21.37.33,1.31-.72,2.43-.51,3.73.07.43,0,.78-.59.79-.46,0-.53.54-.36.7.41.38.34.86.5,1.28.27.71.53,1.32,1.65,1.55,1.5.31,2.83,1.42,4.26,2.13,1.57.78,3.25,1.27,4.95,1.69,1.46.36,2.56-.45,3.73-1.09.87-.48,1.49-.18,1.6.74.26,2.04-.65,3.83-1.56,5.48-.63,1.13-1.4,2.31-2.53,3.15-.39.29-.68.67-1.25.57-.47-.08-1.01.03-1.4-.18-.21-.11-.02-.82-.22-1.09-.67-.87-.53-2.07-1.35-2.9-.95-.96-1.33-1.02-2,.07-.11.17-.04.44-.24.64-.85.86-1.76,1.58-3.08,1.49-.49-.03-.98-.01-1.47,0-.65.01-1.43-.17-1.9.13-.56.36-.18,1.21-.19,1.83,0,.88-.68,1.57-.54,2.5.12.8.1,1.64,0,2.45-.09.75.42.79.87,1.1,1.15.8,2.64.79,3.73,1.69.41.34.68-.17,1.01-.29,1.06-.36,1.63-.06,2.15,1.02.41.85.73,1.71.62,2.69-.08.73.27,1.69-.08,2.16-.6.78.24,1.22.1,1.86-.16.7-.07,1.47-.03,2.2.12,2.22.08,2.19-1.74,3.27-1.28.76-2.59,1.3-4.08,1.44-.64.06-1.15-.13-1.44-.65-.36-.65-.07-1.2.47-1.68.46-.41,1.07-.78.9-1.59-.09-.45.35-.37.59-.54.59-.4.57-1.14-.04-1.41-.3-.14-.53-.31-.78-.5-.45-.35-1.14-.27-1.2.18-.22,1.74-1.42,3.02-1.99,4.58-.34.92-.57.73-1.15.28-.35-.27-.87-.29-1.18-.71-.2-.27-.57-.77-.66.09-.05.47-.52.59-.72.93-.36.61-.63.21-1.08.05-1.42-.5-1.48-.48-2.51.6-.82.86-1.59,1.19-2.72.51-.43-.26-1.09-.15-1.65-.16-2.62-.01-5.24,0-7.87-.01-1.38-.01-1.92-.69-1.66-1.96.11-.52.49-.98.93-.94,1.63.15,2.88-1.2,4.51-1.04.48.05.85-.42.94-.92.09-.49-.38-.79-.67-.91-.79-.33-1.57-.61-2.19-1.24-.33-.34-.42-.48-.17-1.08.49-1.14.12-1.65-1.26-2.29-1.5-.71-2.85-1.65-4.62-1.96-1.6-.28-3.1-1.3-3.84-3.05-1.37-3.2-2.94-6.31-3.96-9.65-1.04-.7-1.43-1.78-1.75-2.92-.05-.18-.36-.44-.5-.41-.2.05-.43.28-.52.49-.34.77-.46,1.65-.59,2.43-.22,1.31-.6,2.52-1.04,3.76-1.19,3.35-2.74,6.72-4.48,8.94-.5.64-1.41,1-1.83,1.67-.69,1.1-1.56,2.01-2.48,2.89-.56.54-1.02,1.15-1.85,1.45-.69.25-1.09,1.07-.48,1.78.6.7.13,1.03-.3,1.37-1.08.87-2.53,1.08-3.58,2.06-.27.25-.97.28-1.29-.22-.6-.92-1.27-.59-1.98-.19-1.27.72-2.59,1.28-4.06,1.49-1.37.2-2.62.81-4,1.07-1.51.29-2.99.33-4.49.4-.38.02-.76-.08-1.15.19-.78.53-1.68.5-2.46.02-.4-.25-.76-.22-1.14-.21-2.3.04-4.52-.32-6.73-.95-.56-.16-1.39-.35-1.63.78-.11.51-.63.82-1.52.34-1.3-.71-2.74-1.28-4.22-1.66-.62-.16-1.38-.57-.83-1.3.5-.67.31-.99-.18-1.39-.36-.29-.78-.53-1.13-.78-1.8-1.26-3.53-2.65-5.19-4.1-1.1-.95-2.2-1.91-3.13-3.06-2.01-2.46-3.72-5.06-4.84-8.07-.53-1.41-1.23-2.77-1.58-4.25-.03-.14-.33-.25-.32-.35.27-1.69-.19-2.6-2.14-2.26-.32.06-.83-.46-.83-1.02,0-2.04,0-4.09,0-6.13,0-.25.08-.43.23-.65q1.71-2.47,1.74-4.63c0-.61-.19-1.33.82-1.36.06,0,.14-.26.16-.4.59-3.25,1.87-6.23,3.41-9.15,1.14-2.15,2.55-4.08,4.12-5.87.75-.85,1.82-1.49,2.72-2.28.59-.51.29-.85.08-1.3-.56-1.22-.53-1.18.66-2.03,1-.72,2.02-1.41,3.07-2.06.76-.47,1.28-.61,1.88.07.67.76,1.25.65,2.05.05,1.66-1.25,3.69-1.8,5.62-2.4,1.68-.52,3.42-.98,5.23-1.07,1.33-.06,2.62-.72,3.97-.44,1.4.29,2.63-.47,3.97-.6,1.31-.13,2.59-.83,3.95-1.09.15-.03.69-.31.43-.65-.83-1.12.13-1.16.77-1.64,1.61-1.2,3.53-1.82,5.24-2.83,1.56-.92,2.72-2.16,4.01-3.32.56-.5.67-1.01.2-1.69-.43-.62-.73-1.33-1.06-2.01-.34-.7-.56-1.27-1.58-1.47-1.5-.3-2.5-2.35-1.84-3.72.36-.73.2-1.01-.25-1.38-.54-.45-.46-.77-.11-1.4.32-.57.77-.99,1.08-1.51.31-.52-.16-1.21.34-1.83.58-.71-.59-1.32-.38-2.15.07-.25-.54-.16-.85-.2-1.35-.18-1.67-.58-1.54-1.85.04-.36.2-.45.51-.63,1.74-1.05,3.7-1.45,5.61-1.86.89-.19,1.73-.8,2.73-.57.47.11.49-.28.49-.62,0-.98.05-1.97-.02-2.94-.04-.67.2-1.2.48-1.78.15-.32.21-.54.6-.55,1.91-.04,3.75-.88,5.6-.41Zm5.14,9.74c.46.01.86.09.96-.26.12-.44-.31-.22-.45-.21-.33.02-.77-.22-.94.28,0,.02.37.16,1.7-.75-.09.08-.23.14-.28.24-.1.21,0,.31.21.21.1-.05.16-.18.22-.29,0-.02-.09-.1-1.42.78Zm15.73-1.96c.46.01.86.09.96-.26.12-.44-.31-.22-.45-.21-.33.02-.77-.22-.94.28,0,.02.37.16,1.7-.75-.09.08-.23.14-.28.24-.1.21,0,.31.21.21.1-.05.16-.18.22-.29,0-.02-.09-.1-1.42.78Zm-9.36,29.91c-.11-.11.19-.63-.21-.42-.48.25-.89.71-1.17,1.18-.09.15.48.49.44.96-.02.22.44.27.43.03-.03-.66.76-1.04.81-2.66-.09.08-.23.14-.28.24-.1.21,0,.31.21.21.1-.05.16-.18.22-.29,0-.02-.09-.1-.45.75Zm22.59,26.83c-.08-.09-.14-.23-.24-.28-.21-.1-.31,0-.21.21.05.1.18.16.29.22.02,0,.1-.09-.52-.43.22.07.17-.07.25-.23.16-.33.88-2.13.76-2.18-.7-.25-1.09.43-1.63.63-.32.12-.77.16-1,.46-.11.14-.06.61-.04.62.61.09.98.77,2.35.98Zm-38.8-32.19c.4,0,.74,0,1.1.33,2.2,2,4.81,3.04,7.79,3.1,1.47.03,2.95.03,4.42,0,.46-.01.91.06,1.4-.16,2.63-1.17,5.45-1.78,8.07-3.07,1.99-.98,3.84-2.03,5.38-3.56,1.66-1.65,3.08-3.5,3.31-5.98.01-.14.12-.39.19-.39,1.11.02.77-.79.78-1.37.02-.82.03-1.64,0-2.45-.03-.78.22-1.25.98-1.69,1.75-1.01,1.73-1.14.79-2.85-.11-.2-.2-.42-.31-.6-.57-.97-1.9-1.12-2.72-.4-.65.57-1.19,1.2-2.02,1.63-.7.37-1.14.33-1.36-.21-.45-1.08-1.1-1.91-2.08-2.54-.45-.29.15-1.18-.36-1.27-1.57-.28-1.24-1.41-1.27-2.41,0-.15-.03-.32-.08-.45-.09-.22-.25-.22-.34.02-.64,1.67-2.1,1.27-3.36,1.27-1.17,0-2.12.31-2.99,1.11-1.29,1.19-2.85,1.24-4.49.14-.39-.26-.87-.4-1.11-.23-1.03.77-2.25.14-3.24.51-1.17.44-2.33.5-3.5.41-.94-.07-1.72.3-2.41.72-.49.3-1.09.46-1.33.25-1.38-1.22-2.46.41-3.71.32-.22-.02-.59.34-.18.87.21.27.63.7.44,1.33-.26.88-.76,1.02-1.55.97-1.03-.06-.42.3-.24.74.16.38.2.57.66.77.61.27.54,1.09-.06,1.41-1.03.54-1.82,1.58-3.37.59-1.15-.74-2.03.19-2.12,1.63-.07,1.08.6,1.36,1.31,1.94.55.44,1.6-.37,1.71.88.06.62.95,1.26.87,1.79-.17,1.12,1.22,1.32,1.08,2.29,1.52.2,1.47,1.96,2.58,2.57.44.25.35.68.35,1.08-.8-.3-1.27-.99-1.78-1.58-.38-.43-1.39-.19-1.21-1.16-.83-.03-1.04.78-1.55,1.17-.45.34-.77.86-1.23,1.19-1.51,1.07-3.01,2.17-4.61,3.1-.84.48-1.85.64-2.71,1.17-.35.21-.71.2-.67.73.03.32-.03.66.01.98.09.67-.23.78-.83.81-1.08.06-2.08.43-3.04.94-.18.09-.53.06-.49.31.05.28.4.23.63.2,1.37-.2,2.69.17,3.96.53,1.53.43,3.14.62,4.57,1.42.65.37,1.39.63,2.13.78.76.15,1.31-.5,1.95-.78,2.12-.94,2.79-.49,4.25.65,1.43,1.12,2.46,2.51,2.11,4.51-.12.7.12,1.21.67,1.7,1.03.93,2.02,1.92,2.95,2.95.41.45.43,1.32,1.07,1.47.73.18.88.67,1.25,1.19,1.56,2.2,2.65,4.6,3.59,7.11,1.39,3.74,2.31,7.55,2.28,11.56-.01,1.23,0,2.45,0,3.68,0,.15.04.36.13.42.28.18.35-.17.51-.28.26-.17.52-.56.74-.54,1.27.14,1.32-.94,1.51-1.62.21-.76.34-1.79-.02-2.4-.64-1.1-.35-2.18-.41-3.27-.06-1.06-.01-2.12-.01-3.19,0-.31.07-.81-.28-.81-.8.01-.69-.46-.7-.95-.05-1.98.07-3.95-.43-5.94-.38-1.5-.07-3.11-.48-4.7-.41-1.57-.06-3.27-.49-4.95-.4-1.57-.25-3.28-.46-4.94-.22-1.79-.5-3.61-.6-5.42-.02-.35-.06-.66-.52-.61-1.2.12-2.33-.23-3.49-.47-2.84-.59-5.53-1.41-7.31-3.95Zm9.82,40.62c-.17-1.81.43-3.69-.48-5.43,0-2.92-1.33-5.48-2.2-8.17-.19-.57-.56-1.08-.73-1.66-.23-.78-1.2-.58-1.51-1.3-.77-1.83-1.93-3.43-3.48-4.67-.46-.37-.16-1.25-.91-1.22-1.09.04-.06,1.37-.93,1.69-.15.05-.05.75-.08,1.15-.11,1.26-.87,2.01-2.11,2.05-1.58.05-3.03-.56-4.53-.86-1.79-.36-2.35-1.86-3.56-2.72-.13-.1-.11-.44-.12-.67-.11-2.3-.05-4.56,1.27-6.58.35-.53.22-.66-.37-.99-1.24-.69-2.62-.83-3.92-1.21-1.77-.51-3.58-.99-5.41-1.15-2.28-.2-4.6-.2-6.87,0-1.84.17-3.72.54-5.47,1.02-3.36.92-6.46,2.57-9.5,4.32-2.97,1.7-4.8,4.66-7.54,6.58-1.41,2.52-3.28,4.75-4.23,7.58-.9,2.69-1.9,5.41-2.11,8.16-.29,3.86-.34,7.76.79,11.63.81,2.78,2.61,7.05,4.21,9.81.64,1.11,1.59,1.78,2.37,2.61,1.8,1.93,3.58,3.91,5.77,5.49,1.84,1.33,3.95,1.99,5.87,3.08.77.44,1.6.81,2.5,1.08,1.5.45,2.91,1.11,4.53.92.64.67,1.51.61,2.25.45.97-.21,1.64.6,2.51.52,1.49-.14,3.01.38,4.49-.43.57-.31,1.48-.19,2.18-.02.9.22,1.46-.48,2.25-.59,1.5-.2,3.03-.57,4.4-1.19,2.28-1.04,4.66-1.99,6.58-3.64.75-.65,1.72-.47,2.46-1.3,2.34-2.6,4.83-5.02,6.81-7.98,1.07-1.6,2.2-3.2,2.8-4.95,1.24-3.68,2.42-7.43,2.02-11.43Zm43.28-27.64c0-.45-.04-.7,0-.94.25-1.27-.37-2.37-1.05-3.22-.54-.68-1.3-1.53-2.45-1.45-.43.03-.7-.36-1-.53-1.39-.84-2.62-1.95-4.02-2.76-1.38-.8-2.77-1.59-4.21-2.26-2.51-1.17-4.56-3.09-7.04-4.32-.8-.4-1.79-.69-2.39-1.29-.72-.73-.98-.38-1.44.12-1.46,1.57-3.09,2.96-4.98,3.97-1.53.82-3.24,1.25-4.76,2.14-.86.51-1.45.95-1.02,1.5.8,1.03-.05,2.42.93,3.31-.2,1.29.86,2.41.49,3.72,1.01.58-.03,1.95.98,2.54-.34,1,.49,1.78.52,2.73.03,1,.9,1.93.86,2.78-.06,1.13.8,1.49,1.07,2.26.33.93.52,1.91.82,2.85.7,2.16,1.4,4.32,2.16,6.46.2.56.59,1.08.96,1.56.35.45.9.38,1.3.15.3-.17.72-.43.66-.93-.08-.65-.6-.33-.94-.43-.72-.22-1.26-.76-1.48-1.42-.18-.52.5-.76.8-1.11.3-.36.53-.72.73-1.17.42-.92.95-.94,1.65-.18.46.51,1.02.91,1.33,1.65.19.46,1.54.32,2.02.8,1.39,1.38,2.6.54,3.89-.03.53-.23.68-.92,1.31-.99.86-.1.37-.45.1-.66-.53-.39-.55-.91-.57-1.49-.02-.69.21-1.38-.41-2.06-.29-.31-.45-1.02-.15-1.78.31-.77,0-1.78-.3-2.74-.32-1.05-.9-1.93-1.25-2.93-.46-1.32-.47-1.59.33-2.53.69-.81,1.48-1.07,2.53-1.07.97,0,1.75.75,2.75.55.46-.09.45.33.45.66,0,2.7,0,5.39,0,8.09q0,1.92-1.48,4.74c.29,1.28-1.01,2.02-1.04,3.27-.02,1.04-.16,1.32.62,1.37,2.33.16,4.4,1.35,6.7,1.65,1.05.14,1.65.04,1.55-.81-.15-1.25.47-2.31.65-3.46.15-.99-.17-2.54,1.36-3.04-.16-1.05.42-2.02.42-2.98,0-1.15.82-2.09.57-3.23,1.07-.78-.1-2.26.95-3.04-.11-1.43.95-2.72.52-3.99Zm-6.39,39.37c0-1.15,0-2.29,0-3.44,0-.31.08-.67-.32-.81-1.67-.58-3.06-1.77-4.66-2.38-1.69-.64-3.13-1.58-4.6-2.54-1.56-1.01-3.07-2.08-4.61-3.11-2.26-1.52-4.39-3.1-4.53-6.2-.02-.5-.14-1.17-1.22-.6-1.12.59-2.57.56-3.92.65-2.12.13-4.1-.67-6.19-.56-1,.05-.95.02-.93,1.23.04,2.29-.06,4.58.04,6.87.05,1.27-.36,2.11-1.47,2.72-.76.42-.74.81.01,1.43.17.14.4.17.45.44.32,1.58,1.25,2.94,1.64,4.47.42,1.64,1.45,2.98,1.89,4.64.37,1.42,1.36,2.78,2.39,3.87.51.54,1.59.9,2.56.86.12,0,.25.18.39.24,3.41,1.65,6.76,3.42,10.26,4.89,3.07,1.3,5.91,3.1,8.96,4.48.83.37.92.21,1.54-.6.35-.45.65-1.01.76-1.41.87-2.99,1.85-5.93,3.01-8.82.12-.3.09-.61-.32-.76-2.08-.77-3.88-2.09-5.89-3-1.81-.82-3.55-1.73-5.25-2.76-1.14-.69-2.13-1.55-3.21-2.31-.64-.45-.93-1.21-1.04-2.01-.09-.69.44-1.68-.85-1.83-.06,0-.14-.28-.12-.42.19-1.83-.78-3.26-1.61-4.74-.09-.16-.57-.23-.18-.5.15-.1.51-.1.64.01.91.75.9,2.23,2.13,2.75-.26,1.07.41,1.98.58,2.97.21,1.22-.02,2.77,1.28,3.61,2.12,1.37,4.2,2.87,6.48,3.94,1.7.8,3.37,1.73,5.17,2.35.38.13.75.9.76-.2,0-1.15,0-2.29,0-3.44Zm-69.59,20.3c-1.88-.06-4.19.37-6.3-.54-1.17-.51-2.55.03-3.55-.93-3-.49-5.37-2.44-8.15-3.45-.28-.1-.49-.38-.75-.56-2.03-1.35-3.67-3.13-5.33-4.88-.62-.65-1.59-.82-2.06-1.55-1.06-1.68-2.31-3.24-3.16-5.07-1.29-2.77-2.51-5.51-2.98-8.6-.24-1.57-.58-3.18-.86-4.76-.46-2.64.49-5.24.46-7.89,0-.14.08-.29.13-.43.61-1.87,1.12-3.79,1.85-5.61,1.36-3.4,2.75-6.81,5.92-9.05.38-.27.76-.66.91-1.08.29-.83.92-1.42,1.56-1.77.95-.51,1.61-1.28,2.38-1.96.35-.3.85-.56,1.1-.82,1.31-1.35,3.19-1.48,4.7-2.37,4.23-2.5,9.02-2.96,13.79-3.48,2.18-.24,4.25.85,6.43.5.14-.02.29.07.43.12,2.26.9,4.77,1.04,6.91,2.31.18.11.48.02.73,0,.07,0,.14-.06.2-.1.17-.11.14-.22-.06-.35-.26-.16-.43-.41-.75-.56-1.26-.58-2.61-.85-3.94-1.17-2.34-.56-4.64-1.33-7.1-1.26-1.06.03-2.14.11-3.19-.02-2.03-.25-3.98.29-5.93.6-.91.15-1.96.08-2.72.48-1.04.54-2.2.63-3.22,1.15-1.01.52-1.98,1.16-3.05,1.53-1.11.38-2.07.92-3.08,1.5-.83.48-1.41,1.2-2.23,1.68-2,1.17-3.19,3.36-5.27,4.48-1.8,2.92-3.9,5.62-5.13,8.92-1.05,2.82-2.07,5.68-2.26,8.59-.22,3.33-.43,6.71.3,10.11.61,2.86,1.33,5.65,2.56,8.28,1.15,2.43,2.61,4.69,4.25,6.84.51.67,1.49.65,1.8,1.66.21.69,1.15,1.13,1.65,1.77.56.72,1.48.88,2.08,1.54,1.87,2.06,4.51,2.98,6.89,4.11,2.15,1.02,4.42,2.23,7,2.07.97.85,2.24.16,3.21.55,1.1.44,2.16.39,3.26.44,3.03.14,5.99-.37,8.92-1.01,2.37-.52,4.71-1.23,6.86-2.41,1.14-.62,2.27-1.25,3.38-1.91,1.13-.67,2.21-1.44,3.3-2.16,2.14-1.41,3.47-3.46,5.13-5.26-.07-1.24,1.25-1.36,1.81-2.13.96-1.33,1.66-2.77,2.35-4.21,1.8-3.79,3.03-7.77,2.96-12.01-.04-2.71.29-5.44-.41-8.15-.28-1.1-.42-2.3-.78-3.37-.85-2.58-1.65-5.18-3.15-7.54-.61-.95-1.4-1.67-2.07-2.51-1.25-1.55-2.37-3.22-3.91-4.53-.16-.14-.26-.24-.35-.1-.08.13-.1.29-.13.43-.01.07,0,.16.04.22,1.37,2.1,3.52,3.61,4.51,5.98,1.11.03,1.32,1.01,1.68,1.72.72,1.41,1.34,2.88,1.93,4.35,1.2,3.02,1.67,6.22,2.14,9.41.4,2.73-.51,5.41-.48,8.13,0,.08.03.19,0,.24-.91,1.13-.68,2.62-1.26,3.9-.59,1.29-1.15,2.63-1.64,3.98-.97,2.73-3.14,4.62-4.91,6.73-1.87,2.24-3.98,4.3-6.62,5.84-2.96,1.73-4.85,2.66-8.93,3.98-2.96.96-5.89,1.6-9,1.4-.16-.01-.33,0-.85,0Zm22.93-58.56c-.21-1.95-1.29-3.44-2.72-4.72-.78.27-1.35-.74-1.97-.49-2.15.87-3.84,2.31-4.69,4.54-.36.95-.98,2.14-.42,2.92.81,1.13-.46,1.9-.08,2.83.03.07-.02.2.02.23.11.1.25.21.39.23.14.02.41-.03.42-.1.18-.74.8-1.31.74-2.16-.02-.25.41-.2.63-.16.11.02.26.24.25.35-.03.22-.19.41-.24.63-.17.9-.83,1.68-.7,2.63.03.26.38.64.64.68.49.08.24-.41.32-.65.32-.93.68-1.84.97-2.78.14-.44.46-.48.74-.36.33.14.36.5.16.81-.46.72-.98,1.4-.89,2.33.03.31-.07.69.36.76.32.05.66,0,.63-.48-.03-.49.67-.68.5-1.27-.18-.6.43-.8.71-1.17.45.48.44,1,0,1.45-.35.36-.22.75-.22,1.13,0,1.01.88,1.67,1.76,1.24.87-.43,1.59-1.06,1.69-2.18.07-.77-.09-1.49.28-2.33.52-1.16.51-2.57.73-3.91Zm7.43-43.49c-2.81-.26-5.14.81-7.56.45-.79-.12-.99.26-.91.96.05.4,0,.82,0,1.23.03,1.42.29,1.6,1.63,1.76,1.47.18,2.8-.44,4.22-.53,1.33-.08,2.74.39,3.98-.48,2.26.35,4.43-.62,6.68-.5.94.05,1.85-.24,2.76-.39,1.07-.18,1.04-.77.83-1.28-.18-.43-.4-.79-.46-1.29-.08-.57-.47-1-1.16-.97-.94.04-1.93-.2-2.75.49-2.58-.25-5.11.36-7.27.53Zm23.6,61.81c-.41,0-.86-.11-1.22.03-.34.13-.83.52-.81.78.04.93-.19,1.83.3,2.81.58,1.14,1.4,2.06,2.35,2.67,2.52,1.63,5.04,3.27,7.5,4.99,1.31.92,3.07,1.12,4.28,2.05,1.77,1.36,3.73,2.08,5.78,2.71,1.43.44,4.2-.42,4.8-1.62.81-1.62.9-3.41-.11-4.91-1.02-1.5-2.66-2.36-4.38-2.99-.47-.17-.47.28-.69.42-.39.24.01.4.14.5.42.34.63.91,1.34.93,1.21.02,1.91.95,2.75,1.67.7.6.7,1.45.42,1.98-.45.84-.86,1.76-1.92,2.27-1.92.93-3.76.56-5.37-.37-1.52-.88-3.01-1.9-4.51-2.8-1.56-.94-3.22-1.73-4.74-2.75-.9-.6-1.77-1.42-2.7-1.75-1.25-.43-1.39-1.79-2.49-2.21-.59-.23-.28-.81-.27-1.26.92.05,1.14-1.09,1.97-1.17.63-.05,1.19.05,1.79.43.46.28,1.01.87,1.73.55.07-.03.14-.06.21-.1.19-.11.17-.33-.05-.33-.56,0-.79-.5-1.2-.69-1.57-.75-2.95-2.05-4.89-1.83Zm-15.79-57.03c1.69.56,3.16-.6,4.76-.4,1.61.2,3.08-.85,4.7-.5.71-.77,1.66-.36,2.49-.52.27-.05.59-.38.67-.65.05-.17-.32-.64-.51-.65-.95-.04-1.68-.77-2.69-.66-1.13.11-2.29.05-3.43.02-.79-.02-1.39.13-1.63,1.03-.18.68-.68.94-1.43.97-2.06.07-4.08.75-6.17.47-.16-.02-.4-.07-.48,0-.96.99-2.17.41-3.24.44-1.2.03-2.22.72-3.48.59-1.05-.11-2.24-.45-3.24.41-.17.15-.71.1-.92-.06-.7-.54-1.63-.44-2.33-.91-.39-.26-.72-.64-1.07,0-1.95-.34-3.56,1.1-5.46,1.03-.56.72-1.75.27-2.2,1.21-.09.19-.4.38-.37.52.07.29.4.18.63.19,2.57.17,5.06-.83,7.64-.49.08.01.2.04.24,0,.87-.98,2.02-.51,2.98-.43,1.1.09,1.94-.59,2.99-.58,1.41.01,2.88.37,4.21-.46,2.49.22,4.93-.28,7.34-.58Zm32.86,62.73c.38-1-.48-1.66-.58-2.54-.11-.91-1-1.69-2.12-1.68-.98.01-1.84-.39-2.63-.78-.94-.47-2.06.21-2.86-.61.09.92-1.07,1.12-1.16,1.98-.03.26-.36.51-.59.73-.25.23-.56.68-.35.79.78.42.13,1.38.66,1.7,1.42.85,3.12,1.1,4.52,2.02.59-.79,1.03-.38,1.54.13.85.85.88.82,2.04.21.83-.43,1.87-.7,1.5-1.96Zm-25.55-7.67c.74,0,1.47.01,2.21,0,.61-.01,1.07-.6.72-1.09-.93-1.35-1.02-3.02-1.83-4.38-.27-.46.41-1.29-.77-1.47-.83-.12-.24-1.22-.5-1.89-1.27-3.26-1.87-6.73-2.75-10.11-.61-2.37-1.32-4.74-1.52-7.21,0-.12-.17-.22-.26-.33-.12.12-.26.21-.34.35-.85,1.32-.94,2.79-.86,4.29,1,.58.31,1.73.88,2.6.46.69.4,2.01.74,2.85,1.57,3.8,1.99,7.94,3.7,11.68.31.68.21,1.48.48,2.24.23.67-.97,1.14-1.41,1.79-.23.35-.94-.06-.84.5.06.36.57.15.87.17.49.03.98,0,1.47,0Zm-7.86-5.42c0,.82-.17,1.69.05,2.44.2.67.51,1.3.44,2.02-.03.3.17.52.41.46,1.01-.26,1.77.68,2.75.51.23-.04.63-.06.65-.15.1-.57-.41-.21-.6-.35-2.47-1.82-2.21-2.08-2.24-4.19-.03-1.98.39-4.01-.47-5.93.14-2.97-.11-5.93-.48-8.88-.1-.81-.06-1.64,0-2.45.07-1.09-1.27-.83-1.45-1.56-.12-.46-.39-.79-.7-.92-.49-.21,0-1-.68-.99-.04.88-.39,1.9-.07,2.62.89,1.95-.13,4.13.92,6-.33,2.66.78,5.23.51,7.89-.04.35-.23.93.32,1.01.53.08.69.24.66.75-.03.57,0,1.14,0,1.72Zm39.83,39.34c0-1.42,0-2.64,0-3.86,0-.58-.43-.98-.82-1.05-.5-.09-1.49-.32-1.54.18-.09.91-1.17,1.06-1.14,2.02.02.67-.36,1.28-1.1,1.76-.5.32-1.02,1.19-.8,2.03.18.67.84.19,1.23.39.21.11.42.3.51.51.28.62.78,1.15.26,1.98-.29.46-.26,1.16-.45,1.75-.2.65-.26,1.07-.97,1.3-.31.1-.79.5-.57.94.39.79.6-.24,1.05-.18,1.55.22,2.76-.76,4.03-1.44.73-.38,1.08-1.14.76-1.82-.73-1.54-.32-3.14-.46-4.51Zm-17.7,8.29c.25,0,.49-.02.74,0,.69.05,1.09-.38,1.2-.93.11-.53-.41-.82-.83-1.03-1.15-.57-2.33-1.1-3.49-1.66-.65-.31-.61-.13-1.93.12-1.16.22-2.2.66-3.25,1.08-1.08.43-2.3.26-3.3.94-.16.11-.57.26-.3.33.56.16.46,1.66,1.58.73.34-.28,1.1-.07,1.67-.07,1.31,0,2.65.16,3.92-.04,1.42-.22,2.62.66,3.98.53Zm5.86-2.3c-.36-.1-.42-.68-.92-.64-.84.06-1.39-.59-2.1-.82-1.11-.37-1.98-1.12-2.97-1.66-1.99-1.09-4.03-2.04-6.11-2.93-.99-.42-1.1-.38-1.5.61-.35.88.28,1.08.86,1.36,3.13,1.47,6.27,2.94,9.4,4.42.68.32,1.35.68,2.04.97.29.12,1.38-.93,1.31-1.3Zm-28.6-101.27h1.23c.49,0,1.01.1,1.46-.03.43-.12.88-.45.86-1.01-.03-.65-.57-.41-.92-.43-.9-.03-1.82.12-2.69-.04-.96-.19-1.56.65-2.5.56-3.95-.38-7.85.81-11.81.45-.48-.04-.72.07-.76.63-.08,1.39.17,1.68,1.42,1.09.58-.28,1.08-.19,1.62-.24,1.65-.16,3.37.37,4.95-.5,2.42.37,4.75-.63,7.16-.49Zm24.68,44.69c-.76.39-1.58.76-2.26,1.48-.78.82.43,1.04.43,1.69,0,.47.6,1.18.86,1.79.57,1.36,1.65,2.68.53,4.27-.11.16-.12.56,0,.71.83,1.04,1.09,2.21.98,3.51,0,.08.23.27.34.26.22-.02.61-.17.6-.23-.14-.97.6-1.74.55-2.73-.11-2.35-.11-4.72,0-7.07.04-.77-.72-1.96.77-2.31.24-.06.24-.24,0-.33-.91-.35-1.83-.68-2.8-1.03Zm10.6,32.36c.7-.09,1.45.23,2.13-.17.2-.12.46-.32.5-.52.05-.25-.23-.3-.47-.3-.82,0-1.63.01-2.45,0-.31,0-.59.05-.9-.19-3.04-2.32-6.68-3.57-9.96-5.49-1.61-.94-3.26-1.77-4.58-3.13-.15-.15-.29-.75-.65-.3-.16.2-.15.65-.05.93.1.28.36.54.62.71,2.04,1.36,4.11,2.68,6.15,4.04.96.64,2.02,1.02,3.06,1.49,1.11.51,2.04,1.35,3.08,1.99,1.13.71,2.24,1.06,3.54.93Zm1.6,13.63c.03-.06.07-.11.07-.17,0-.09-2.12-1.22-2.18-1.15-.1.11-.19.25-.23.39-.38,1.46-1.05,2.85-1.41,4.28-.56,2.3-1.64,4.38-2.31,6.61-.15.5.07,1.32.41,1.34.46.03.72-.39.81-.66.51-1.58,1.42-3.02,1.89-4.57.33-1.08,1.28-1.95,1.15-3.22-.02-.22.37-1.13.6-1.12,1.39.04.36-1.46,1.18-1.72Zm13.43-17.55c-.11-.4-.29-.46-.55-.51-.81-.15-1.28.4-1.57.92-1.09,1.9-2.73,3.55-2.81,5.93-.01.44-.25.47-.6.54-.73.17-.48.9-.34,1.19.23.47.83.34,1.27.16.21-.09.35-.34.53-.5,1.68-1.57,2.53-3.67,3.49-5.66.29-.6.22-1.5.59-2.07Zm-3.5,1.24c-.13-.08-.28-.16-.42-.26-1.13-.8-2.55-.41-3.78-.91-.44-.18-.84-.96-1.45-.51-.81.6.35.9.28,1.41-.02.16.02.33,0,.49-.15.88.16,1.53.84,2.11.53.45,1.1.88,1.26,1.67.06.29.6.28.78-.04.17-.3.18-.57.59-.83,1.03-.67,1.04-2.09,1.91-3.12Zm-39.6-10.56c1.53,0,2.68-.05,3.82.02.57.03.91-.22,1.24-.59.26-.29.28-.6-.03-.82-.21-.16-.24-.51-.69-.45-4.61.56-6.59.53-9.69-.13-.2-.04-.48-.45-.51-.43-.44.37-.18.89-.24,1.35-.05.4.15.56.55.57,1.98.02,3.9.94,5.53.49Zm31.27,10.76c.06-.35.05-.83-.44-1.13-.71-.43-1.39-1.07-2.16-1.22-.83-.17-1.38-.86-2.21-.9-.04.88-.13,1.76-.09,2.63.03.69.42,1.15,1.21,1.16.93.01,1.84-.05,2.74.45.64.36.97-.02.94-.98Zm-14.26-10.33c-.06-.12-.1-.32-.21-.38-1.78-.98-3.55-1.99-5.38-2.89-.52-.26-1.24-.29-1.79.17-.23.19-.53.37-.49.77.04.47.38.5.68.42.87-.23,1.48.38,2.16.68,1.38.6,2.72,1.29,4.02,2.05.46.27.51-.06.7-.21.19-.14.37-.31.3-.61Zm8.86,9.07c0-.24.08-.53-.02-.72-.26-.48-.39-1.33-1.27-.47-.2.2-.95.24-1.27-.3-.39-.67-1.01-.7-1.67-.64-.23.02-.55-.07-.61.21-.03.13.22.39.39.5,1.22.75,2.68,1.06,3.7,2.2.31.35.75-.09.75-.76Zm-81.12,30.52c-.19-.19-.35-.44-.59-.58-1.09-.66-2.46-.71-3.49-1.53-.29-.23-.72-.21-.79.11-.09.4-.34,1.13.28,1.2,1.28.15,2.23.89,3.29,1.45.59.31.82-.28,1.3-.66Zm-7.03-61.99c-.01-.21-.67-.49-.86-.35-1.14.9-2.28,1.77-3.7,2.24-.32.11-.37.57-.1.79.23.18.26.8.85.42,1.29-.85,2.61-1.66,3.73-2.75.16-.16.22-.23.08-.35Zm70.4,16.57c-.09.02-.24.03-.24.04,0,.89-1.02,1.15-1.2,1.93-.02.08-.03.17,0,.24.13.26,1.6.76,1.83.63.84-.47,1.09-1.24.62-1.99-.24-.39-.48-.83-1.02-.85Zm-12.24-2.38c-.02.37-.1.82.25.89,1.34.26,2.15,1.38,3.33,1.89.33.14.65.17.81-.15.15-.3,0-.63-.3-.81-1.22-.74-2.44-1.49-3.68-2.19-.54-.31-.32.24-.4.38Zm20.64,12.71c-.28-.88-.77-1.67-1.67-1.88-.71-.16-1.37-.24-1.81-.88-.13-.19-.27-.24-.33-.06-.07.2-.15.51-.05.64.89,1.22,2.23,1.86,3.52,2.54.3.16.34-.14.34-.36Zm-39.34,30.23c-.1-.09-.25-.27-.29-.25-1.12.6-2.26,1.18-3.32,1.87-.26.17-1.01.44-.55.95.19.21.92.25,1.27-.25.65-.94,2.13-.57,2.7-1.68.11-.22.19-.41.19-.64Zm18.6-45.53c-.29.18-.33.24-.22.53.4,1.04,1.32,1.3,2.19,1.65.62.25,1.07.86,1.82.8.12-.96-.78-1.25-1.29-1.66-.73-.59-1.69-.91-2.5-1.32Zm.25,4.07c-.05.14-.15.28-.16.41-.02,1.08,1.64,2.63,2.65,2.43.27-.05.5-.39.68-.64.04-.06-.17-.39-.32-.49-.89-.56-1.99-.81-2.68-1.7-.02-.03-.11,0-.17-.01Zm-2.64-49.16c.48,0,.97.04,1.44-.01.61-.07,1.15-.5.99-1.07-.29-.96-.54.23-.97.15-.85-.17-1.76-.06-2.64-.04-.26,0-.72-.14-.67.3.03.25.39.57.66.65.37.11.79.03,1.2.03ZM14.38,91.45v2.37c0,.24.01.49,0,.73-.02.43.23.56.59.52.26-.03.35-.19.41-.47.21-1.06-.61-1.9-.55-2.96.05-.94.43-1.97-.28-2.86-.37.93-.04,1.9-.16,2.67Zm75.69-21.99c-.23.19-.4.27-.44.39-.05.13-.06.37.02.46.78.9,1.96,1.13,2.95,1.69.08.04.31-.08.39-.19.08-.11.12-.34.06-.45-.7-1.16-2.09-1.15-2.97-1.91Zm-14.81-43.1c-.24,0-.48.03-.72,0-.6-.08-.78.46-1.14.72.33.3.51.78,1.09.76.62-.02,1.25.08,1.69-.56.16-.23.16-.44.13-.66-.01-.1-.21-.23-.35-.25-.23-.04-.48-.01-.72-.01Zm25.73.98c-.36.31-1.36-.49-1.48.38-.16,1.14.92.39,1.4.6.14.06.27.11.42.15.17.05.27.57.49.15.17-.33.35-.68.47-1,.14-.37-.4-.26-.66-.28-.16-.02-.32,0-.64,0Zm-10.95,40.16c-.2.19-.36.27-.41.4-.05.14-.04.41.04.45.6.32,1.26.54,1.83.9.37.24.73.53.98.07.1-.18-.29-.77-.45-.93-.52-.54-1.44-.37-1.99-.89Zm-2.38-14.64c-.32,0-.64.02-.95,0-.28-.02-.49.1-.51.34-.02.2.07.46.21.61.36.42.75.89,1.32.22.2-.24.45-.44.67-.68.08-.09.11-.22.16-.33-.14-.05-.27-.13-.41-.15-.15-.03-.32,0-.48,0Zm-20.22-17.65c.2-.08.41-.1.47-.2.37-.67-.27-1.87-.98-1.75-.33.05-.6.47-.89.72.51.38.79,1.03,1.4,1.24Zm22.18,30.5c.02.62,1.21,1.56,1.72,1.36.32-.13.33-.49.17-.8-.28-.52-.92-.52-1.3-.85-.66-.56-.51.02-.58.28Zm1.3-.65c.06-.14.2-.31.16-.41-.27-.69-.77-1.18-1.45-1.47-.27-.12-.49.11-.5.36-.01.57,1.2,1.57,1.78,1.52Zm-23.98-33.12c-.33-.33-.67-.67-1-1-.27-.27-.58-.28-.8,0-.21.26-.12.54.12.81.33.38.69.6,1.22.51.23-.04.42-.05.47-.31Zm3.98-4.6c.63-.12,1.29.21,1.89-.17-.52-.72-1.26-.26-1.89-.3-.61-.04-1.28-.25-1.88.13.52.72,1.27.13,1.88.34Zm-1.94,3.1c0-.12-.3-.18-.64-.16-.35.03-.85-.18-.87.48-.02.46.28.51.62.49.36-.02.85.16.89-.82Zm21.55,31.91c-.59-.18-.22-.93-.68-1.13-.16-.07-.52.01-.62.15-.3.4.02.68.29.98.23.26.48.41.81.32.09-.03.13-.2.2-.31Zm-23.54-32.81c-.02-.18-1.62-.77-1.8-.66-.06.04-.11.11-.17.17.22.22.41.56.68.64.34.11.74.03,1.12,0,.06,0,.11-.1.17-.16Zm13.21-3.37c-.02-.28-.21-.35-.44-.31-.35.05-.85-.23-.94.37-.03.19.1.48.25.59.22.15,1.09-.38,1.14-.65Zm-15.16,8.1c-.01-.55-.48-.94-.69-.94-.57.01-.25.57-.3.89-.06.46.29.5.61.46.24-.03.42-.19.38-.41Zm33.93-7.93c.26-.13.86.29.85-.32,0-.34-.55-.13-.85-.17-.24-.03-.49-.03-.72,0-.08.01-.15.19-.19.31-.01.03.1.15.16.16.24.02.48,0,.76,0Zm2.19-1.47c.32,0,.65.02.96-.01.07,0,.2-.24.17-.31-.12-.25-1.63-.25-1.77,0-.03.06.07.28.16.31.14.05.32.01.48.01Zm-6.89,0c.23-.03.6.11.64-.17.07-.51-.38-.3-.63-.32-.22-.02-.59-.12-.63.15-.07.51.39.26.62.33Zm9.37,3.47c.22-.24.5-.43.62-.7.11-.25-.16-.31-.39-.32-.45-.02-.51.27-.48.6.01.13.15.25.25.42Zm-35.13-.02c-.48-.02-.81-.08-1.03.23.21.08.41.21.62.23.3.04.64.08.86-.23-.2-.1-.39-.2-.45-.23Zm20.58,31.23c.05.15.1.53.2.54.51.05.3-.38.32-.62.02-.22.12-.59-.15-.63-.51-.07-.26.39-.36.71Zm25.53,29.43c-.06-.1-.12-.29-.19-.29-.22-.02-.5-.12-.63.16-.03.07.1.3.17.3.22.01.48.12.65-.17Zm-48.67-61.7c-.18.12-.31.2-.43.28.2.08.4.21.61.23.11.01.25-.15.37-.23-.19-.1-.39-.2-.55-.28Zm35.96,2.98c.13-.06.37-.09.39-.17.05-.29-.17-.36-.4-.31-.14.02-.37.09-.39.16-.05.29.16.34.4.32Zm11.13,57.99c-.1.06-.21.12-.32.17.05.05.12.16.16.15.12-.03.22-.1.33-.15-.05-.05-.11-.11-.17-.17Z"/><path class="cls-8" d="m126,61.91c.43,1.27-.63,2.56-.52,3.99-1.05.78.12,2.26-.95,3.04.26,1.14-.56,2.08-.57,3.23,0,.96-.58,1.94-.42,2.98-1.54.5-1.21,2.05-1.36,3.04-.18,1.15-.8,2.21-.65,3.46.1.85-.5.95-1.55.81-2.3-.3-4.36-1.49-6.7-1.65-.78-.05-.64-.33-.62-1.37.02-1.25,1.33-1.99,1.04-3.27q1.48-2.82,1.48-4.74c0-2.7,0-5.39,0-8.09,0-.33.01-.75-.45-.66-1,.2-1.77-.54-2.75-.55-1.05,0-1.84.25-2.53,1.07-.8.95-.8,1.21-.33,2.53.35,1,.94,1.88,1.25,2.93.29.95.6,1.97.3,2.74-.3.76-.13,1.47.15,1.78.62.68.39,1.37.41,2.06.02.59.04,1.1.57,1.49.27.2.76.56-.1.66-.62.07-.78.76-1.31.99-1.3.57-2.5,1.41-3.89.03-.48-.48-1.83-.34-2.02-.8-.31-.74-.86-1.14-1.33-1.65-.7-.77-1.23-.74-1.65.18-.2.45-.43.81-.73,1.17-.3.36-.97.59-.8,1.11.23.66.76,1.2,1.48,1.42.34.1.86-.21.94.43.06.5-.36.76-.66.93-.4.23-.96.3-1.3-.15-.37-.48-.76-.99-.96-1.56-.76-2.14-1.47-4.3-2.16-6.46-.3-.94-.49-1.92-.82-2.85-.27-.77-1.13-1.13-1.07-2.26.05-.85-.82-1.78-.86-2.78-.03-.95-.86-1.73-.52-2.73-1-.59.03-1.95-.98-2.54.37-1.31-.69-2.43-.49-3.72-.99-.89-.13-2.28-.93-3.31-.43-.55.16-.99,1.02-1.5,1.52-.9,3.23-1.32,4.76-2.14,1.89-1.01,3.52-2.4,4.98-3.97.47-.5.72-.85,1.44-.12.6.61,1.58.9,2.39,1.29,2.49,1.23,4.53,3.14,7.04,4.32,1.44.67,2.84,1.46,4.21,2.26,1.4.81,2.64,1.92,4.02,2.76.29.18.57.56,1,.53,1.14-.08,1.9.77,2.45,1.45.68.86,1.3,1.95,1.05,3.22-.05.24,0,.49,0,.94Z"/><path class="cls-4" d="m119.6,101.28c0,1.15,0,2.29,0,3.44,0,1.1-.37.33-.76.2-1.8-.62-3.46-1.55-5.17-2.35-2.28-1.07-4.36-2.56-6.48-3.94-1.3-.84-1.07-2.39-1.28-3.61-.17-.99-.84-1.91-.58-2.97-1.23-.52-1.22-1.99-2.13-2.75-.13-.11-.5-.11-.64-.01-.38.27.1.34.18.5.83,1.48,1.8,2.91,1.61,4.74-.01.14.06.41.12.42,1.29.15.76,1.14.85,1.83.11.8.4,1.55,1.04,2.01,1.07.76,2.07,1.62,3.21,2.31,1.7,1.04,3.44,1.94,5.25,2.76,2,.91,3.8,2.23,5.89,3,.41.15.44.47.32.76-1.16,2.89-2.14,5.83-3.01,8.82-.12.39-.41.96-.76,1.41-.63.8-.72.97-1.54.6-3.05-1.38-5.89-3.18-8.96-4.48-3.5-1.48-6.85-3.25-10.26-4.89-.14-.07-.26-.25-.39-.24-.97.04-2.05-.32-2.56-.86-1.03-1.09-2.02-2.45-2.39-3.87-.44-1.66-1.47-3-1.89-4.64-.39-1.53-1.32-2.89-1.64-4.47-.05-.27-.28-.3-.45-.44-.76-.62-.77-1.01-.01-1.43,1.11-.61,1.52-1.45,1.47-2.72-.09-2.29,0-4.58-.04-6.87-.02-1.22-.06-1.18.93-1.23,2.09-.11,4.07.69,6.19.56,1.35-.09,2.8-.06,3.92-.65,1.08-.57,1.2.09,1.22.6.13,3.1,2.26,4.68,4.53,6.2,1.54,1.03,3.05,2.11,4.61,3.11,1.47.95,2.91,1.89,4.6,2.54,1.6.61,2.99,1.8,4.66,2.38.4.14.32.49.32.81,0,1.15,0,2.29,0,3.44Z"/><path class="cls-4" d="m71.91,47.96c0-.4.1-.83-.35-1.08-1.1-.62-1.05-2.38-2.58-2.57.13-.97-1.25-1.17-1.08-2.29.08-.54-.81-1.17-.87-1.79-.11-1.25-1.17-.44-1.71-.88-.71-.58-1.37-.85-1.31-1.94.09-1.44.97-2.37,2.12-1.63,1.54.99,2.33-.05,3.37-.59.6-.31.66-1.14.06-1.41-.46-.2-.49-.39-.66-.77-.19-.44-.79-.8.24-.74.79.05,1.3-.09,1.55-.97.18-.63-.23-1.06-.44-1.33-.41-.53-.04-.89.18-.87,1.25.09,2.33-1.54,3.71-.32.24.21.84.05,1.33-.25.69-.42,1.47-.79,2.41-.72,1.17.09,2.33.03,3.5-.41.99-.37,2.21.25,3.24-.51.23-.17.71-.04,1.11.23,1.63,1.1,3.2,1.05,4.49-.14.87-.8,1.82-1.12,2.99-1.11,1.25,0,2.71.41,3.36-1.27.09-.23.24-.24.34-.02.06.14.08.3.08.45.03,1.01-.3,2.14,1.27,2.41.51.09-.09.98.36,1.27.98.63,1.63,1.46,2.08,2.54.23.55.66.58,1.36.21.82-.43,1.37-1.06,2.02-1.63.82-.72,2.15-.56,2.72.4.11.18.2.4.31.6.93,1.72.96,1.84-.79,2.85-.75.43-1,.9-.98,1.69.03.82.02,1.64,0,2.45-.02.58.33,1.39-.78,1.37-.06,0-.17.25-.19.39-.22,2.48-1.65,4.33-3.31,5.98-1.54,1.53-3.4,2.59-5.38,3.56-2.62,1.29-5.44,1.9-8.07,3.07-.5.22-.94.15-1.4.16-1.47.03-2.95.04-4.42,0-2.98-.06-5.59-1.1-7.79-3.1-.36-.33-.7-.34-1.1-.33.01-.34-.15-.5-.49-.49.01-.34-.15-.5-.49-.49Zm8.36-10.8c.49-.33.98-.65,5.9.97,0-.43-.01-.68,0-.92.02-.42-.2-.57-.58-.54-.27.02-.42.16-.41.46.01.65.04,1.3,0,1.95-.04.53-.73,1.13-1.1,1.02-.48-.14-1.32-1.23-1.34-1.81-.03-.65.01-1.3-.02-1.95-.01-.21.17-.76-.36-.48-.19.1-.56.15-.62.55-.24,1.7.79,3.53,2.36,4.36.34.18.41.12.72-.01,1.34-.56,1.38-1.66-3.07-4.59.06-.3-.07-.59.15-.92.46-.69.87-1.42,1.21-2.17.36-.81.1-1.8-.45-2.15-.56-.35-1.57-.19-2.15.36-.53.5-.97,1.14-1.57,1.52-1.67,1.06-2.18,2.61-2.1,4.46.03.64,1.27,1.64,1.72,1.29.58-.45,1.59-.42,1.72-1.41Zm2.2,10.41c-1.14.37-2.84-.22-4.33-.71-1.46-.47-2.94-1.16-4.36-1.87-1.41-.7-1.54-1.33-.97-3.08.02-.07.07-.14.08-.21.03-.25-.02-.52-.27-.59-.21-.06-.48-.09-.65.17-.64.97-.74,2.12-.03,2.98.43.52.99.94,1.63,1.32,1.86,1.09,3.81,1.9,5.9,2.35.68.15,1.16.72,2,.57,1.54-.28,3.2.37,4.7-.53,2.71.05,4.93-1.54,7.41-2.23,1.04-.29,1.64-1.47,2.86-1.38,1.81-1.32,2.23-3.16,2.06-5.28-.05-.67-.44-1.37-.76-1.32-.49.07-.19.83-.25,1.28-.02.16,0,.33,0,.49.07,1.94.08,3.84-2.47,4.28-3.58,2.55-7.64,3.53-12.54,3.77Zm6.4-11.88c1.74.13,3.16-1.81,2.51-3.38-.85-2.06-3.75-3.12-5.83-2.13-1.53.73-1.57,1.15-1.04,2.68.75,2.19,2.67,2.32,4.36,2.84Z"/><path class="cls-8" d="m72.89,48.94c1.78,2.53,4.47,3.35,7.31,3.95,1.16.24,2.28.6,3.49.47.46-.05.5.26.52.61.1,1.82.38,3.63.6,5.42.21,1.66.05,3.37.46,4.94.43,1.68.08,3.38.49,4.95.41,1.59.11,3.21.48,4.7.5,1.99.38,3.96.43,5.94.01.49-.09.97.7.95.36,0,.28.5.28.81,0,1.06-.05,2.13.01,3.19.07,1.09-.23,2.17.41,3.27.36.61.23,1.64.02,2.4-.19.69-.24,1.76-1.51,1.62-.22-.02-.48.36-.74.54-.16.11-.23.46-.51.28-.1-.06-.13-.28-.13-.42-.01-1.23-.01-2.45,0-3.68.03-4.01-.88-7.82-2.28-11.56-.93-2.51-2.03-4.91-3.59-7.11-.37-.52-.52-1.01-1.25-1.19-.64-.16-.66-1.03-1.07-1.47-.94-1.03-1.92-2.02-2.95-2.95-.54-.49-.79-1-.67-1.7.36-2-.68-3.39-2.11-4.51-1.46-1.14-2.13-1.59-4.25-.65-.64.28-1.19.94-1.95.78-.73-.15-1.48-.41-2.13-.78-1.43-.81-3.04-1-4.57-1.42-1.28-.36-2.59-.73-3.96-.53-.23.03-.58.08-.63-.2-.04-.24.31-.21.49-.31.96-.51,1.96-.89,3.04-.94.6-.03.92-.14.83-.81-.04-.32.02-.66-.01-.98-.05-.53.31-.52.67-.73.87-.53,1.88-.68,2.71-1.17,1.6-.92,3.1-2.03,4.61-3.1.46-.33.78-.85,1.23-1.19.52-.39.73-1.2,1.55-1.17-.18.97.84.73,1.21,1.16.51.59.99,1.29,1.78,1.58-.01.34.15.5.49.49-.01.34.15.5.49.49Z"/><path class="cls-4" d="m50.01,121.58c.52,0,.68,0,.85,0,3.1.2,6.04-.44,9-1.4,4.08-1.32,5.97-2.25,8.93-3.98,2.63-1.54,4.75-3.6,6.62-5.84,1.77-2.12,3.93-4.01,4.91-6.73.48-1.35,1.05-2.69,1.64-3.98.58-1.28.36-2.77,1.26-3.9.04-.05,0-.16,0-.24-.03-2.72.88-5.4.48-8.13-.47-3.19-.94-6.39-2.14-9.41-.59-1.47-1.2-2.94-1.93-4.35-.36-.7-.57-1.69-1.68-1.72-1-2.38-3.15-3.89-4.51-5.98-.04-.06-.06-.15-.04-.22.03-.15.05-.31.13-.43.08-.14.18-.04.35.1,1.54,1.31,2.67,2.98,3.91,4.53.67.84,1.46,1.55,2.07,2.51,1.5,2.36,2.3,4.96,3.15,7.54.35,1.08.49,2.27.78,3.37.7,2.72.36,5.44.41,8.15.07,4.25-1.16,8.22-2.96,12.01-.68,1.44-1.38,2.88-2.35,4.21-.56.77-1.88.89-1.81,2.13-1.66,1.8-2.99,3.84-5.13,5.26-1.09.72-2.17,1.49-3.3,2.16-1.11.66-2.25,1.29-3.38,1.91-2.15,1.18-4.49,1.89-6.86,2.41-2.93.64-5.89,1.15-8.92,1.01-1.1-.05-2.16,0-3.26-.44-.98-.39-2.24.31-3.21-.55-2.58.16-4.85-1.04-7-2.07-2.39-1.14-5.02-2.06-6.89-4.11-.6-.66-1.52-.81-2.08-1.54-.5-.64-1.44-1.08-1.65-1.77-.31-1.01-1.3-.99-1.8-1.66-1.64-2.15-3.1-4.41-4.25-6.84-1.24-2.62-1.95-5.41-2.56-8.28-.73-3.39-.52-6.78-.3-10.11.19-2.91,1.21-5.77,2.26-8.59,1.23-3.3,3.34-6,5.13-8.92,2.08-1.12,3.27-3.31,5.27-4.48.82-.48,1.39-1.2,2.23-1.68,1.01-.58,1.97-1.12,3.08-1.5,1.07-.37,2.04-1.01,3.05-1.53,1.02-.52,2.17-.61,3.22-1.15.76-.39,1.81-.33,2.72-.48,1.94-.32,3.9-.86,5.93-.6,1.05.13,2.13.05,3.19.02,2.45-.07,4.76.71,7.1,1.26,1.33.32,2.67.59,3.94,1.17.32.15.49.39.75.56.2.13.23.24.06.35-.06.04-.13.1-.2.1-.25.01-.55.1-.73,0-2.14-1.27-4.65-1.4-6.91-2.31-.14-.06-.3-.15-.43-.12-2.19.35-4.25-.74-6.43-.5-4.76.51-9.56.98-13.79,3.48-1.52.9-3.39,1.02-4.7,2.37-.26.26-.76.52-1.1.82-.77.68-1.43,1.44-2.38,1.96-.64.35-1.27.94-1.56,1.77-.15.42-.53.82-.91,1.08-3.18,2.24-4.56,5.65-5.92,9.05-.73,1.83-1.24,3.74-1.85,5.61-.05.14-.13.29-.13.43.02,2.64-.92,5.25-.46,7.89.28,1.59.62,3.19.86,4.76.47,3.09,1.7,5.83,2.98,8.6.85,1.82,2.09,3.39,3.16,5.07.46.74,1.44.9,2.06,1.55,1.66,1.74,3.3,3.53,5.33,4.88.26.17.47.46.75.56,2.78,1.01,5.16,2.96,8.15,3.45,1,.96,2.38.43,3.55.93,2.11.91,4.42.48,6.3.54Z"/><path class="cls-4" d="m72.94,63.02c-.22,1.35-.21,2.75-.73,3.91-.38.83-.21,1.56-.28,2.33-.1,1.12-.82,1.75-1.69,2.18-.88.43-1.75-.23-1.76-1.24,0-.38-.13-.78.22-1.13.44-.45.45-.97,0-1.45-.28.37-.88.57-.71,1.17.17.58-.53.77-.5,1.27.03.48-.31.53-.63.48-.43-.07-.33-.45-.36-.76-.09-.93.43-1.61.89-2.33.2-.31.17-.67-.16-.81-.27-.12-.6-.07-.74.36-.29.94-.65,1.85-.97,2.78-.08.24.17.73-.32.65-.25-.04-.6-.42-.64-.68-.13-.95.53-1.73.7-2.63.04-.22.21-.41.24-.63.01-.11-.14-.33-.25-.35-.22-.04-.65-.09-.63.16.07.85-.56,1.42-.74,2.16-.02.07-.29.12-.42.1-.14-.02-.28-.13-.39-.23-.04-.04,0-.16-.02-.23-.39-.93.89-1.7.08-2.83-.56-.78.06-1.97.42-2.92.86-2.23,2.54-3.67,4.69-4.54.63-.25,1.2.76,1.97.49,1.43,1.28,2.51,2.77,2.72,4.72Z"/><path class="cls-4" d="m80.37,19.53c2.16-.17,4.69-.78,7.27-.53.82-.69,1.81-.45,2.75-.49.69-.03,1.08.39,1.16.97.07.5.28.86.46,1.29.21.51.24,1.1-.83,1.28-.91.15-1.82.44-2.76.39-2.25-.13-4.41.85-6.68.5-1.24.87-2.64.4-3.98.48-1.42.08-2.75.71-4.22.53-1.34-.16-1.61-.34-1.63-1.76,0-.41.04-.82,0-1.23-.08-.71.12-1.08.91-.96,2.42.36,4.75-.72,7.56-.45Z"/><path class="cls-7" d="m103.98,81.33c1.94-.22,3.32,1.08,4.89,1.83.4.19.63.69,1.2.69.22,0,.23.21.05.33-.06.04-.14.07-.21.1-.72.32-1.27-.26-1.73-.55-.6-.37-1.17-.48-1.79-.43-.83.07-1.05,1.21-1.97,1.17,0,.44-.32,1.03.27,1.26,1.1.42,1.24,1.78,2.49,2.21.93.32,1.8,1.15,2.7,1.75,1.53,1.02,3.19,1.81,4.74,2.75,1.5.91,3,1.92,4.51,2.8,1.6.93,3.44,1.29,5.37.37,1.06-.51,1.46-1.43,1.92-2.27.28-.53.28-1.38-.42-1.98-.84-.72-1.54-1.64-2.75-1.67-.71-.01-.92-.59-1.34-.93-.12-.1-.53-.26-.14-.5.23-.14.22-.59.69-.42,1.72.63,3.36,1.48,4.38,2.99,1.02,1.5.93,3.29.11,4.91-.6,1.2-3.37,2.06-4.8,1.62-2.05-.63-4.01-1.35-5.78-2.71-1.22-.94-2.97-1.13-4.28-2.05-2.46-1.72-4.98-3.36-7.5-4.99-.94-.61-1.77-1.53-2.35-2.67-.49-.97-.26-1.88-.3-2.81-.01-.26.48-.65.81-.78.36-.14.81-.03,1.22-.03Z"/><path class="cls-4" d="m88.19,24.31c-2.4.3-4.85.8-7.34.58-1.33.83-2.8.47-4.21.46-1.05-.01-1.89.67-2.99.58-.97-.08-2.12-.55-2.98.43-.04.04-.16.01-.24,0-2.58-.34-5.07.66-7.64.49-.23-.01-.56.1-.63-.19-.03-.13.27-.32.37-.52.45-.94,1.64-.49,2.2-1.21,1.9.07,3.51-1.38,5.46-1.03.35-.65.68-.27,1.07,0,.7.47,1.62.37,2.33.91.21.16.75.21.92.06,1-.87,2.2-.52,3.24-.41,1.26.13,2.28-.56,3.48-.59,1.07-.02,2.28.55,3.24-.44.08-.08.32-.03.48,0,2.09.28,4.11-.4,6.17-.47.76-.03,1.25-.28,1.43-.97.24-.89.84-1.05,1.63-1.03,1.14.03,2.3.1,3.43-.02,1.01-.1,1.74.63,2.69.66.19,0,.56.48.51.65-.08.27-.4.6-.67.65-.83.16-1.78-.25-2.49.52-1.62-.35-3.09.7-4.7.5-1.6-.2-3.07.96-4.76.4Z"/><path class="cls-4" d="m121.05,87.04c.37,1.25-.68,1.52-1.5,1.96-1.16.61-1.19.64-2.04-.21-.52-.52-.95-.92-1.54-.13-1.4-.92-3.11-1.17-4.52-2.02-.53-.31.12-1.28-.66-1.7-.21-.11.1-.56.35-.79.23-.22.56-.47.59-.73.09-.86,1.24-1.06,1.16-1.98.8.83,1.92.15,2.86.61.79.39,1.65.79,2.63.78,1.11-.01,2.01.77,2.12,1.68.11.88.96,1.53.58,2.54Z"/><path class="cls-4" d="m95.51,79.37c-.49,0-.98.02-1.47,0-.3-.02-.81.19-.87-.17-.1-.56.61-.15.84-.5.44-.65,1.64-1.12,1.41-1.79-.26-.76-.17-1.57-.48-2.24-1.71-3.74-2.12-7.89-3.7-11.68-.35-.84-.28-2.15-.74-2.85-.58-.86.12-2.01-.88-2.6-.08-1.5.02-2.97.86-4.29.09-.13.23-.23.34-.35.09.11.25.21.26.33.2,2.47.91,4.84,1.52,7.21.87,3.38,1.47,6.85,2.75,10.11.26.66-.33,1.76.5,1.89,1.18.17.49,1.01.77,1.47.81,1.36.9,3.04,1.83,4.38.34.49-.11,1.08-.72,1.09-.73.01-1.47,0-2.21,0Z"/><path class="cls-4" d="m87.64,73.95c0-.57-.03-1.15,0-1.72.03-.5-.13-.67-.66-.75-.55-.08-.35-.66-.32-1.01.27-2.66-.83-5.23-.51-7.89-1.06-1.87-.04-4.05-.92-6-.32-.72.03-1.74.07-2.62.68-.01.19.77.68.99.3.13.58.46.7.92.19.73,1.52.47,1.45,1.56-.05.81-.1,1.65,0,2.45.37,2.95.61,5.9.48,8.88.86,1.92.44,3.95.47,5.93.03,2.1-.23,2.36,2.24,4.19.19.14.7-.22.6.35-.01.08-.42.11-.65.15-.98.18-1.74-.77-2.75-.51-.24.06-.43-.15-.41-.46.07-.73-.24-1.35-.44-2.02-.23-.75-.05-1.62-.05-2.44Z"/><path class="cls-4" d="m127.47,113.29c.14,1.37-.27,2.96.46,4.51.32.68-.03,1.43-.76,1.82-1.28.67-2.48,1.65-4.03,1.44-.45-.06-.66.97-1.05.18-.21-.43.26-.83.57-.94.71-.23.77-.66.97-1.3.19-.59.16-1.29.45-1.75.52-.84.02-1.36-.26-1.98-.09-.21-.31-.41-.51-.51-.39-.2-1.05.28-1.23-.39-.22-.83.3-1.7.8-2.03.74-.47,1.12-1.09,1.1-1.76-.03-.96,1.05-1.11,1.14-2.02.05-.5,1.04-.27,1.54-.18.39.07.82.47.82,1.05-.01,1.22,0,2.44,0,3.86Z"/><path class="cls-4" d="m109.77,121.58c-1.36.13-2.55-.76-3.98-.53-1.28.2-2.61.04-3.92.04-.57,0-1.33-.21-1.67.07-1.13.93-1.02-.57-1.58-.73-.27-.07.14-.23.3-.33.99-.68,2.22-.51,3.3-.94,1.05-.42,2.1-.86,3.25-1.08,1.32-.25,1.28-.43,1.93-.12,1.16.56,2.34,1.08,3.49,1.66.42.21.95.5.83,1.03-.12.55-.52.98-1.2.93-.24-.02-.49,0-.74,0Z"/><path class="cls-4" d="m115.63,119.28c.07.37-1.02,1.43-1.31,1.3-.69-.29-1.36-.65-2.04-.97-3.13-1.47-6.26-2.95-9.4-4.42-.58-.27-1.21-.48-.86-1.36.4-.99.51-1.04,1.5-.61,2.08.89,4.12,1.84,6.11,2.93.99.54,1.87,1.29,2.97,1.66.71.24,1.26.89,2.1.82.5-.04.56.54.92.64Z"/><path class="cls-4" d="m87.03,18.02c-2.41-.14-4.73.86-7.16.49-1.58.87-3.3.34-4.95.5-.54.05-1.04-.04-1.62.24-1.24.59-1.49.3-1.42-1.09.03-.56.27-.67.76-.63,3.96.35,7.86-.83,11.81-.45.95.09,1.54-.75,2.5-.56.87.17,1.79.02,2.69.04.35.01.9-.22.92.43.02.56-.43.89-.86,1.01-.45.13-.97.03-1.46.03-.41,0-.82,0-1.23,0Z"/><path class="cls-7" d="m122.31,95.07c-1.3.13-2.41-.22-3.54-.93-1.04-.65-1.97-1.49-3.08-1.99-1.03-.47-2.1-.85-3.06-1.49-2.04-1.36-4.11-2.68-6.15-4.04-.26-.17-.52-.44-.62-.71-.1-.28-.11-.73.05-.93.37-.45.51.15.65.3,1.32,1.35,2.97,2.18,4.58,3.13,3.28,1.92,6.92,3.17,9.96,5.49.31.24.6.18.9.19.82.02,1.63.01,2.45,0,.24,0,.52.05.47.3-.04.2-.29.4-.5.52-.67.39-1.42.07-2.13.17Z"/><path class="cls-4" d="m123.9,108.7c-.81.26.22,1.75-1.18,1.72-.23,0-.62.91-.6,1.12.13,1.28-.83,2.14-1.15,3.22-.47,1.54-1.38,2.99-1.89,4.57-.09.28-.36.7-.81.66-.34-.03-.56-.85-.41-1.34.67-2.23,1.75-4.32,2.31-6.61.35-1.43,1.02-2.82,1.41-4.28.04-.14.13-.28.23-.39.05-.06,2.18,1.06,2.18,1.15,0,.06-.05.11-.07.17Z"/><path class="cls-7" d="m137.33,91.15c-.37.57-.3,1.47-.59,2.07-.96,1.99-1.81,4.09-3.49,5.66-.18.17-.32.42-.53.5-.44.18-1.05.32-1.27-.16-.13-.28-.39-1.02.34-1.19.35-.08.58-.11.6-.54.08-2.37,1.73-4.03,2.81-5.93.29-.51.76-1.07,1.57-.92.27.05.44.1.55.51Z"/><path class="cls-7" d="m133.83,92.39c-.87,1.03-.88,2.46-1.91,3.12-.41.27-.42.53-.59.83-.19.32-.72.34-.78.04-.16-.79-.73-1.23-1.26-1.67-.68-.58-1-1.23-.84-2.11.03-.16-.01-.33,0-.49.07-.51-1.09-.81-.28-1.41.61-.45,1.01.33,1.45.51,1.24.5,2.65.11,3.78.91.14.1.3.18.42.26Z"/><path class="cls-4" d="m94.23,81.82c-1.64.45-3.55-.47-5.53-.49-.4,0-.6-.17-.55-.57.06-.46-.21-.98.24-1.35.02-.02.31.39.51.43,3.1.66,5.08.69,9.69.13.45-.05.47.3.69.45.31.22.28.53.03.82-.33.37-.66.62-1.24.59-1.14-.06-2.29-.02-3.82-.02Z"/><path class="cls-7" d="m111.24,82.25c.07.3-.12.47-.3.61-.19.15-.24.48-.7.21-1.29-.76-2.64-1.45-4.02-2.05-.68-.3-1.29-.9-2.16-.68-.3.08-.64.04-.68-.42-.04-.4.26-.58.49-.77.54-.46,1.27-.42,1.79-.17,1.83.89,3.6,1.91,5.38,2.89.11.06.15.26.21.38Z"/><path class="cls-4" d="m120.1,91.32c0,.67-.44,1.11-.75.76-1.01-1.13-2.48-1.44-3.7-2.2-.18-.11-.42-.36-.39-.5.06-.27.38-.19.61-.21.66-.06,1.28-.02,1.67.64.32.55,1.07.5,1.27.3.87-.86,1.01-.01,1.27.47.1.19.02.47.02.72Z"/><path class="cls-4" d="m38.98,121.84c-.47.38-.7.97-1.3.66-1.06-.56-2.01-1.3-3.29-1.45-.62-.07-.37-.81-.28-1.2.07-.32.51-.33.79-.11,1.03.82,2.4.86,3.49,1.53.23.14.4.39.59.58Z"/><path class="cls-4" d="m31.95,59.85c.15.11.08.19-.08.35-1.12,1.09-2.43,1.9-3.73,2.75-.59.38-.62-.24-.85-.42-.27-.22-.22-.68.1-.79,1.41-.47,2.56-1.34,3.7-2.24.18-.14.85.14.86.35Z"/><path class="cls-7" d="m102.35,76.42c.54.02.77.46,1.02.85.47.75.22,1.52-.62,1.99-.23.13-1.7-.37-1.83-.63-.03-.06-.02-.16,0-.24.18-.77,1.2-1.04,1.2-1.93,0-.01.14-.03.24-.04Z"/><path class="cls-4" d="m90.11,74.04c.08-.14-.14-.69.4-.38,1.24.71,2.46,1.45,3.68,2.19.31.18.45.51.3.81-.16.32-.48.3-.81.15-1.17-.51-1.99-1.63-3.33-1.89-.35-.07-.26-.52-.25-.89Z"/><path class="cls-4" d="m110.75,86.75c0,.22-.04.52-.34.36-1.29-.68-2.63-1.32-3.52-2.54-.1-.13-.02-.44.05-.64.06-.18.2-.13.33.06.44.64,1.11.72,1.81.88.9.21,1.39,1,1.67,1.88Z"/><path class="cls-4" d="m71.42,116.99c0,.24-.08.42-.19.64-.57,1.11-2.04.74-2.7,1.68-.35.5-1.08.46-1.27.25-.46-.51.29-.78.55-.95,1.06-.69,2.2-1.27,3.32-1.87.04-.02.19.16.29.25Z"/><path class="cls-4" d="m90.02,71.46c.81.41,1.77.73,2.5,1.32.51.41,1.41.7,1.29,1.66-.75.06-1.21-.55-1.82-.8-.87-.35-1.79-.61-2.19-1.65-.11-.3-.07-.35.22-.53Z"/><path class="cls-4" d="m90.27,75.52c.06,0,.14-.02.17.01.69.89,1.78,1.14,2.68,1.7.16.1.37.42.32.49-.18.26-.41.59-.68.64-1,.2-2.67-1.35-2.65-2.43,0-.14.1-.28.16-.41Z"/><path class="cls-4" d="m87.63,26.36c-.4,0-.83.08-1.2-.03-.27-.08-.63-.4-.66-.65-.05-.44.41-.29.67-.3.88-.01,1.79-.13,2.64.04.43.09.68-1.1.97-.15.17.56-.38,1-.99,1.07-.48.05-.96.01-1.44.01Z"/><path class="cls-4" d="m111.02,80.85c-.69.07-1.06-.61-1.67-.7-.02,0-.07-.47.04-.62.23-.3.69-.34,1-.46.54-.21.93-.89,1.63-.63.13.05-.6,1.84-.76,2.18-.08.17-.03.31-.25.23Z"/><path class="cls-4" d="m14.38,91.45c.12-.76-.21-1.74.16-2.67.71.88.33,1.92.28,2.86-.06,1.07.76,1.9.55,2.96-.06.28-.15.44-.41.47-.37.04-.62-.09-.59-.52.01-.24,0-.49,0-.73v-2.37Z"/><path class="cls-4" d="m90.07,69.46c.88.76,2.28.75,2.97,1.91.06.11.02.33-.06.45-.07.11-.31.23-.39.19-.99-.55-2.17-.79-2.95-1.69-.08-.09-.08-.33-.02-.46.05-.12.21-.2.44-.39Z"/><path class="cls-4" d="m75.25,26.36c.24,0,.48-.03.72.01.13.02.33.15.35.25.03.21.03.42-.13.66-.44.64-1.07.54-1.69.56-.57.02-.76-.46-1.09-.76.36-.27.54-.81,1.14-.72.23.03.48,0,.72,0Z"/><path class="cls-4" d="m100.98,27.34c.32,0,.48-.01.64,0,.27.03.8-.08.66.28-.12.32-.3.67-.47,1-.22.41-.32-.11-.49-.15-.14-.04-.28-.1-.42-.15-.48-.21-1.56.54-1.4-.6.12-.87,1.11-.07,1.48-.38Z"/><path class="cls-4" d="m90.03,67.5c.56.51,1.47.35,1.99.89.16.17.55.75.45.93-.25.46-.61.17-.98-.07-.57-.37-1.23-.58-1.83-.9-.08-.04-.08-.32-.04-.45.04-.13.2-.21.41-.4Z"/><path class="cls-4" d="m87.65,52.87c.16,0,.32-.02.48,0,.14.02.28.1.41.15-.05.11-.08.24-.16.33-.21.24-.46.44-.67.68-.57.67-.96.2-1.32-.22-.13-.16-.23-.41-.21-.61.02-.23.23-.36.51-.34.32.03.63,0,.95,0Z"/><path class="cls-4" d="m67.43,35.22c-.61-.21-.9-.86-1.4-1.24.3-.25.57-.66.89-.72.71-.12,1.35,1.08.98,1.75-.06.1-.27.12-.47.2Z"/><path class="cls-4" d="m89.61,65.72c.07-.26-.08-.84.58-.28.39.33,1.02.33,1.3.85.17.3.15.67-.17.8-.51.2-1.69-.74-1.72-1.36Z"/><path class="cls-4" d="m90.91,65.06c-.58.05-1.79-.96-1.78-1.52,0-.25.22-.47.5-.36.67.29,1.18.78,1.45,1.47.04.1-.1.27-.16.41Z"/><path class="cls-4" d="m66.93,31.95c-.05.27-.24.28-.47.31-.53.09-.88-.13-1.22-.51-.24-.27-.33-.55-.12-.81.23-.28.53-.26.8,0,.33.33.67.67,1,1Z"/><path class="cls-4" d="m70.92,27.35c-.6-.21-1.35.38-1.88-.34.6-.38,1.27-.17,1.88-.13.62.04,1.37-.42,1.89.3-.6.38-1.26.04-1.89.17Z"/><path class="cls-4" d="m89.11,54.3c.24.72-.54,1.1-.51,1.76.01.24-.45.19-.43-.03.04-.47-.53-.81-.44-.96.28-.47.7-.93,1.17-1.18.4-.21.1.31.21.42Z"/><path class="cls-4" d="m68.98,30.45c-.04.97-.53.8-.89.82-.34.02-.63-.03-.62-.49.02-.66.51-.45.87-.48.34-.03.64.04.64.16Z"/><path class="cls-4" d="m90.53,62.36c-.07.11-.12.28-.2.31-.33.1-.58-.06-.81-.32-.27-.29-.59-.57-.29-.98.1-.14.46-.22.62-.15.46.2.1.95.68,1.13Z"/><path class="cls-4" d="m66.99,29.55c-.06.06-.11.16-.17.16-.38.02-.78.1-1.12,0-.27-.09-.46-.42-.68-.64.06-.06.1-.12.17-.17.17-.12,1.77.47,1.8.66Z"/><path class="cls-4" d="m80.2,26.18c-.05.27-.93.8-1.14.65-.15-.11-.27-.4-.25-.59.09-.6.6-.32.94-.37.24-.04.42.03.44.31Z"/><path class="cls-4" d="m65.04,34.29c.04.21-.13.38-.38.41-.32.04-.68,0-.61-.46.05-.32-.27-.87.3-.89.2,0,.67.39.69.94Z"/><path class="cls-4" d="m98.97,26.36c-.28,0-.52.01-.76,0-.06,0-.17-.12-.16-.16.04-.12.11-.29.19-.31.23-.04.48-.04.72,0,.3.04.84-.17.85.17.02.61-.58.19-.85.32Z"/><path class="cls-4" d="m101.16,24.89c-.16,0-.34.04-.48-.01-.09-.03-.19-.25-.16-.31.14-.25,1.65-.24,1.77,0,.03.06-.1.3-.17.31-.32.03-.64.01-.96.01Z"/><path class="cls-4" d="m98.46,24.39c-.06-.03-.43-.17-.43-.19.18-.5.61-.26.94-.28.14,0,.57-.23.45.21-.1.34-.5.27-.96.26Z"/><path class="cls-4" d="m94.27,24.89c-.23-.07-.69.18-.62-.33.04-.27.41-.17.63-.15.25.02.7-.19.63.32-.04.28-.41.13-.64.17Z"/><path class="cls-4" d="m82.73,26.35c-.06-.03-.43-.17-.43-.19.18-.5.61-.26.94-.28.14,0,.57-.23.45.21-.1.34-.5.27-.96.26Z"/><path class="cls-4" d="m103.64,28.36c-.11-.17-.24-.29-.25-.42-.03-.33.03-.62.48-.6.24,0,.5.07.39.32-.11.27-.4.47-.62.7Z"/><path class="cls-4" d="m68.51,28.34c.06.03.25.13.45.23-.22.32-.55.27-.86.23-.21-.03-.41-.15-.62-.23.22-.31.55-.25,1.03-.23Z"/><path class="cls-4" d="m89.09,59.57c.1-.32-.15-.78.36-.71.28.04.17.41.15.63-.02.25.2.67-.32.62-.09,0-.15-.39-.2-.54Z"/><path class="cls-4" d="m114.62,89c-.16.29-.43.18-.65.17-.07,0-.2-.23-.17-.3.13-.28.41-.17.63-.16.07,0,.13.19.19.29Z"/><path class="cls-4" d="m65.95,27.3c.16.08.36.18.55.28-.12.08-.26.24-.37.23-.21-.02-.41-.15-.61-.23.12-.08.25-.16.43-.28Z"/><path class="cls-4" d="m101.91,30.29c-.24.02-.45-.03-.4-.32.01-.08.25-.14.39-.16.23-.04.45.03.4.31-.01.08-.25.12-.39.17Z"/><path class="cls-4" d="m89.4,53.4c.06.06.16.14.15.16-.06.11-.12.24-.22.29-.21.1-.31,0-.21-.21.05-.1.18-.16.28-.24Z"/><path class="cls-4" d="m111.7,81.13c-.06.06-.14.16-.16.15-.11-.06-.24-.12-.29-.22-.1-.21,0-.31.21-.21.1.05.16.18.24.28Z"/><path class="cls-4" d="m84,25.42c.06.06.16.14.15.16-.06.11-.12.24-.22.29-.21.1-.31,0-.21-.21.05-.1.18-.16.28-.24Z"/><path class="cls-1" d="m113.04,88.28c.07.07.12.12.17.17-.11.05-.21.13-.33.15-.04,0-.11-.1-.16-.15.11-.06.21-.12.32-.17Z"/><path class="cls-4" d="m99.73,23.46c.06.06.16.14.15.16-.06.11-.12.24-.22.29-.21.1-.31,0-.21-.21.05-.1.18-.16.28-.24Z"/><path class="cls-5" d="m82.47,47.56c4.9-.24,8.96-1.23,12.54-3.77,2.54-.44,2.54-2.34,2.47-4.28,0-.16-.02-.33,0-.49.07-.46-.24-1.21.25-1.28.32-.05.71.65.76,1.32.16,2.12-.25,3.96-2.06,5.28-1.22-.09-1.82,1.09-2.86,1.38-2.48.7-4.7,2.29-7.41,2.23-1.49.9-3.15.25-4.7.53-.84.15-1.32-.42-2-.57-2.08-.45-4.03-1.26-5.9-2.35-.65-.38-1.2-.8-1.63-1.32-.71-.86-.61-2.01.03-2.98.17-.26.45-.23.65-.17.25.07.31.34.27.59,0,.07-.06.14-.08.21-.58,1.76-.45,2.38.97,3.08,1.42.7,2.91,1.4,4.36,1.87,1.5.48,3.2,1.07,4.33.71Z"/><path class="cls-5" d="m88.87,35.68c-1.69-.52-3.61-.65-4.36-2.84-.53-1.52-.49-1.95,1.04-2.68,2.08-.99,4.99.07,5.83,2.13.64,1.57-.77,3.51-2.51,3.38Zm-.53-.98c.25,0,.49,0,.74,0,1.21-.05,1.74-.69,1.51-1.86-.19-.96-1.04-1.44-1.69-1.97-.59-.48-.92.39-1.32.72-.31.26-.79.06-1.04.5-.26.47-1.14.77-.82,1.33.32.55.76,1.27,1.63,1.28.33,0,.65,0,.98,0Z"/><path class="cls-5" d="m81.74,36.18c-.49.33-.98.65-2.51,1.21-.36.74.2-.07.76-.32.51-.23.78-1.13,1.22-1.71.23-.3.17-.99-.02-1.39-.17-.36-.5-.82-1.11-.75-.39.05-.77-.04-.82.56-.02.26-.3.65-.54.71-1.22.34-.99,1.51-1.37,2.31-.22.45-.04.98,1.88.58.91.76-.1.73-.68,1.18-.45.35-1.69-.65-1.72-1.29-.08-1.85.43-3.4,2.1-4.46.6-.38,1.04-1.02,1.57-1.52.58-.55,1.59-.7,2.15-.36.56.34.81,1.34.45,2.15-.34.75-.75,1.49-1.21,2.17-.22.32-.09.62-.15.92Z"/><path class="cls-5" d="m86.17,38.13c.02.97-.02,2.08-1.36,2.64-.31.13-.37.19-.72.01-1.57-.83-2.6-2.66-2.36-4.36.05-.39.43-.45.62-.55.53-.28.35.27.36.48.03.65,0,1.3.02,1.95.02.58.85,1.67,1.34,1.81.37.11,1.07-.49,1.1-1.02.04-.65.02-1.3,0-1.95,0-.3.15-.44.41-.46.38-.04.6.12.58.54-.01.24,0,.49,0,.92Z"/><path class="cls-5" d="m72.4,48.45c-.34.01-.5-.15-.49-.49.34-.01.5.15.49.49Z"/><path class="cls-4" d="m88.34,34.7c-.33,0-.65,0-.98,0-.87,0-1.31-.72-1.63-1.28-.33-.56.55-.86.82-1.33.25-.44.72-.24,1.04-.5.4-.33.73-1.2,1.32-.72.65.53,1.5,1,1.69,1.97.23,1.16-.3,1.81-1.51,1.86-.25.01-.49,0-.74,0Z"/><path class="cls-4" d="m78.19,37.62c-.88.16-1.06-.36-.84-.82.38-.8.16-1.97,1.37-2.31.24-.07.51-.45.54-.71.05-.61.43-.52.82-.56.61-.07.94.39,1.11.75.19.4.25,1.09.02,1.39-.44.58-.72,1.48-1.22,1.71-.56.25-1.11,1.06-1.79.55Z"/></g><g id="Layer_3"><g><path class="cls-5" d="m44.2,75.61c-.1,0-1.21-.01-3.31-.04s-4.55-.04-7.33-.04v7.16c1.36.09,2.57.27,3.65.53s2,.59,2.79.97c1.24.61,2.16,1.4,2.76,2.38s.9,2.09.9,3.33-.37,2.43-1.12,3.56-1.78,2.02-3.08,2.67c-.98.48-2.13.86-3.45,1.14s-2.83.42-4.53.42h-1.33l-.34-2.53h1.01c1.37,0,2.68-.1,3.92-.29s2.27-.48,3.07-.86c.94-.46,1.62-1.02,2.06-1.69.43-.67.65-1.44.65-2.31s-.26-1.65-.79-2.33c-.53-.68-1.36-1.23-2.5-1.67-.58-.22-1.33-.39-2.23-.51s-1.95-.21-3.14-.25c-.17,0-.36,0-.57,0-.22,0-.37,0-.48,0,.01-.14.02-.96.02-2.47v-3.8c0-.91,0-2.12,0-3.62,0-1.5,0-2.3,0-2.42.1,0,.88,0,2.32,0,1.45,0,2.86,0,4.25,0,1.17,0,2.59,0,4.27,0,1.68,0,2.54,0,2.59,0v2.67Z"/><path class="cls-5" d="m67.85,82.35c0,1.51-.26,2.91-.77,4.2-.51,1.29-1.23,2.37-2.16,3.25-.91.88-1.97,1.55-3.17,2.02-1.2.47-2.5.7-3.89.7s-2.68-.23-3.88-.7c-1.2-.47-2.24-1.14-3.11-2.02-.95-.95-1.68-2.06-2.18-3.32-.5-1.26-.75-2.65-.75-4.16s.23-2.81.69-4.01c.46-1.2,1.13-2.26,1.99-3.19.84-.9,1.89-1.62,3.16-2.15s2.64-.8,4.11-.8,2.84.25,4.08.76,2.27,1.2,3.1,2.08c.9.94,1.59,2.02,2.07,3.23.48,1.21.71,2.59.71,4.12Zm-3.08.17c0-1.22-.19-2.35-.56-3.4-.37-1.05-.91-1.93-1.61-2.64-.58-.61-1.27-1.08-2.06-1.41s-1.66-.5-2.63-.5c-1.08,0-2,.18-2.76.54-.76.36-1.41.81-1.94,1.34-.67.66-1.21,1.52-1.6,2.57s-.59,2.14-.59,3.26c0,1.22.19,2.34.56,3.36.37,1.02.96,1.91,1.76,2.68.56.55,1.22.98,1.98,1.29s1.6.48,2.51.48,1.8-.16,2.58-.47c.78-.31,1.46-.75,2.03-1.3.75-.71,1.32-1.56,1.72-2.56.4-1,.6-2.08.6-3.25Z"/></g><line class="cls-2" x1="128.05" y1="112.7" x2="130.36" y2="112.7"/><path class="cls-2" d="m130.36,108.24v12.81c0,1.1-.65,2.1-1.67,2.53l-.06.03"/><line class="cls-2" x1="128.46" y1="118.25" x2="130.36" y2="118.25"/><line class="cls-2" x1="107.18" y1="121.71" x2="107.21" y2="124.02"/><line class="cls-2" x1="101.64" y1="122.2" x2="101.66" y2="124.09"/><path class="cls-2" d="m112.04,124.59l-12.81-.02c-1.1,0-2.09-.66-2.53-1.67l-.03-.06"/><g><path class="cls-5" d="m50.37,97.92c-.8,1.82-1.64,3.75-2.52,5.8-.88,2.05-1.35,3.13-1.41,3.27l-.85-.32,1.27-2.72c-.03-.08-.29-.7-.77-1.85-.48-1.15-1.06-2.53-1.75-4.13l.92-.41c.45,1.18.91,2.34,1.37,3.49.47,1.15.71,1.75.74,1.81h.01s.26-.6.7-1.69.92-2.28,1.45-3.59l.84.35Z"/><path class="cls-5" d="m56.63,100.64h-4.43c0,.45.1.86.28,1.23.18.37.46.68.83.93.24.16.51.27.81.35.3.08.67.12,1.09.12.23,0,.45,0,.64-.02s.31-.02.36-.03l-.11.84s-.14.01-.32.02c-.18.01-.4.02-.65.02-.65,0-1.22-.09-1.71-.26-.48-.18-.88-.42-1.19-.73-.27-.26-.49-.59-.68-.99-.19-.4-.28-.85-.28-1.34s.07-.92.21-1.31c.14-.39.35-.75.62-1.09.24-.29.54-.51.9-.67.36-.16.73-.23,1.11-.23s.72.06,1.01.18.55.3.77.54c.24.27.42.6.55,1,.13.4.19.87.2,1.43Zm-.95-.71c-.07-.52-.24-.94-.52-1.23-.28-.3-.65-.45-1.11-.45s-.84.15-1.15.45c-.31.3-.52.71-.64,1.23h3.41Z"/><path class="cls-5" d="m62.5,100.47c0,1.05,0,1.9,0,2.56s0,1.02,0,1.07c-.04,0-.23.02-.57.05-.34.03-.78.04-1.31.04-.33,0-.67-.03-1.01-.1-.34-.06-.63-.15-.88-.27-.33-.16-.59-.37-.79-.64-.2-.27-.3-.6-.3-.98,0-.4.12-.75.36-1.04.24-.29.57-.53,1-.71.27-.11.62-.22,1.06-.31.44-.09.95-.16,1.52-.21-.02-.33-.1-.6-.24-.81-.13-.21-.33-.37-.59-.48-.18-.08-.38-.13-.6-.16-.22-.03-.48-.05-.77-.05-.18,0-.34,0-.47.01s-.3.02-.52.03l.1-.84c.06,0,.18-.01.36-.02.18-.01.43-.02.75-.02.48,0,.91.05,1.29.16.38.1.69.27.94.5.23.22.41.49.53.82.12.32.18.79.18,1.41Zm-.94,1.53v-.55c0-.22,0-.47,0-.76-.18,0-.49.05-.94.11-.45.07-.83.16-1.13.28-.23.09-.43.22-.61.4s-.27.4-.27.66c0,.29.08.52.23.7.15.18.36.31.62.4.2.07.42.12.67.16.24.03.5.05.77.05.08,0,.18,0,.3,0,.12,0,.24,0,.37-.01,0-.03,0-.17,0-.42,0-.25,0-.59,0-1.01Z"/><path class="cls-5" d="m68.28,98.41c-.23.06-.57.17-1.03.35s-1,.41-1.6.71c0,.05,0,.26,0,.64,0,.38,0,.73,0,1.06,0,.5,0,1.09.02,1.78.01.69.02,1.07.02,1.14h-.97c0-.07,0-.31.01-.71,0-.4.01-1.09.01-2.06,0-.39,0-.94,0-1.65s-.01-1.37-.02-2h.95v.96h0c.46-.26.92-.5,1.37-.7.45-.2.81-.33,1.08-.41l.18.89Z"/><path class="cls-5" d="m72.9,102.23c0,.31-.07.59-.22.84s-.34.44-.58.6c-.25.16-.55.28-.89.36-.34.08-.72.12-1.13.12-.2,0-.41,0-.62-.03-.22-.02-.34-.03-.37-.04l-.04-.83s.18.02.43.03c.25.02.49.03.74.03.14,0,.33-.01.55-.04.22-.03.41-.07.56-.14.2-.09.36-.21.45-.34.1-.14.15-.3.15-.49,0-.17-.04-.31-.13-.42-.09-.11-.2-.21-.36-.31-.16-.11-.39-.24-.67-.37-.28-.13-.52-.25-.71-.37-.27-.17-.48-.38-.63-.62-.15-.24-.22-.51-.22-.83s.08-.59.25-.84c.17-.25.39-.45.67-.6.24-.14.51-.23.8-.27.29-.04.58-.07.85-.07.25,0,.45,0,.61.01.16,0,.25.01.28.01l.07.84s-.16,0-.38-.03c-.22-.02-.47-.03-.73-.03-.19,0-.37.02-.54.05s-.31.08-.43.15c-.18.09-.3.21-.38.34-.08.13-.11.26-.11.38,0,.17.05.32.16.44s.23.23.38.31c.17.1.4.22.69.36s.5.25.63.34c.29.19.5.39.65.62.15.23.22.5.22.81Z"/></g><g><path class="cls-6" d="m34.85,133.35s-.19-.16-.45-.38c-.26-.23-.66-.56-1.2-1.01-.39.46-.69.8-.89,1.04-.2.24-.48.56-.82.97-.33.39-.67.8-1.01,1.21-.34.41-.57.68-.68.82l-.55-.47c.12-.13.35-.4.71-.81.35-.41.7-.82,1.03-1.21.33-.39.59-.7.78-.93.19-.23.49-.59.88-1.07-.48-.4-.86-.73-1.16-.98-.3-.25-.46-.38-.49-.41l.39-.46c.23.19.51.43.84.71s.68.58,1.05.89c.54.46,1,.84,1.36,1.14s.56.47.59.49l-.39.46Z"/><path class="cls-6" d="m35.21,140.15l-.56-.41c.05-.07.21-.28.48-.63.27-.35.44-.58.52-.7.09-.12.22-.3.4-.54.17-.24.3-.42.38-.53.19-.28.28-.51.27-.7,0-.19-.13-.37-.37-.55-.13-.1-.34-.19-.61-.26-.27-.07-.57-.13-.91-.16l-1.99,2.73-.56-.41c.07-.09.35-.46.83-1.11s.88-1.18,1.19-1.6c.2-.27.45-.62.76-1.04.31-.42.65-.9,1.04-1.44l.56.41-1.5,2h0c.48.07.85.14,1.12.22.27.08.48.18.63.3.3.22.47.5.52.82.04.32-.06.65-.3.98-.22.3-.41.55-.57.77-.16.21-.29.39-.39.52-.16.21-.34.46-.54.75s-.34.48-.41.58Z"/><path class="cls-6" d="m40.82,140.96l-2.68-1.71c-.17.26-.26.54-.29.83-.03.29.02.58.15.86.08.18.2.36.36.52s.36.33.61.49c.14.09.27.17.39.24.12.07.2.11.23.12l-.38.45s-.09-.05-.2-.11c-.11-.06-.25-.15-.4-.24-.4-.25-.71-.52-.93-.81-.23-.29-.38-.58-.45-.88-.06-.25-.08-.53-.04-.84.04-.31.15-.6.33-.89.18-.28.38-.51.61-.68.23-.17.49-.3.78-.39.25-.07.52-.09.79-.04s.53.14.76.29c.23.15.41.31.54.49s.22.39.26.61c.04.25.03.52-.04.8-.07.28-.21.58-.41.91Zm-.31-.78c.16-.33.21-.64.15-.92s-.22-.51-.5-.69c-.28-.18-.56-.24-.86-.18-.3.06-.58.21-.84.47l2.06,1.32Z"/><path class="cls-6" d="m50.19,143.72c-.78.69-1.52,1.38-2.23,2.07s-1.07,1.04-1.09,1.06l-.49-.24s.05-.39.14-1.09.19-1.53.29-2.51h0c-.6.56-1.2,1.12-1.77,1.66-.58.54-.87.82-.89.84l-.49-.24c.02-.08.08-.57.18-1.45.1-.88.2-1.9.3-3.05l.7.02-.49,3.77h0s2.67-2.52,2.67-2.52l.49.24-.45,3.61h0s2.69-2.67,2.69-2.67l.44.48Z"/><path class="cls-6" d="m53.95,147.33c-.12.32-.29.6-.52.85-.22.25-.48.43-.78.55-.25.1-.5.16-.75.16-.25,0-.52-.04-.8-.15-.26-.1-.49-.24-.69-.42-.2-.18-.35-.39-.46-.63-.13-.28-.2-.59-.2-.92s.06-.67.19-.99c.12-.31.28-.58.48-.81.2-.23.44-.41.73-.54.26-.12.53-.19.81-.2.28,0,.56.04.83.14.28.11.52.26.72.44s.35.4.45.66c.12.3.19.6.18.91,0,.31-.07.62-.19.95Zm-.67-.22c.1-.26.15-.52.16-.8,0-.28-.04-.53-.15-.76-.07-.15-.16-.27-.29-.39-.12-.11-.27-.2-.43-.26-.19-.07-.36-.11-.53-.1-.16,0-.33.05-.5.13-.2.09-.39.24-.56.43-.17.2-.3.42-.4.67-.11.28-.16.55-.17.82,0,.27.05.52.18.76.07.14.17.26.29.36.12.1.26.19.41.25.17.07.34.1.52.09.17,0,.34-.04.49-.11.22-.1.41-.24.58-.44.17-.19.3-.41.39-.66Z"/><path class="cls-6" d="m58.08,146.84c-.17-.01-.42,0-.78,0s-.77.06-1.24.12c0,.03-.06.17-.14.42-.08.25-.16.48-.22.7-.1.33-.22.72-.36,1.18-.14.46-.21.71-.23.76l-.66-.21s.07-.2.16-.47c.09-.26.23-.72.44-1.36.08-.26.19-.62.34-1.09.14-.47.28-.91.4-1.32l.65.2-.2.64h0c.37-.07.73-.13,1.08-.17.35-.03.62-.05.82-.04l-.06.63Z"/><path class="cls-6" d="m58.58,151.04l-.67-.18s.13-.45.34-1.24c.22-.79.4-1.45.54-1.97.09-.34.2-.76.34-1.28.14-.51.29-1.09.45-1.73l.67.18c-.12.43-.26.94-.42,1.51s-.29,1.06-.39,1.45c-.23.86-.43,1.61-.6,2.25-.17.64-.25.98-.26,1.01Z"/><path class="cls-6" d="m63.63,152.26s-.07-.01-.16-.03c-.09-.02-.17-.03-.22-.04-.54-.11-.96-.23-1.26-.34-.3-.11-.58-.27-.84-.47-.34-.26-.58-.57-.71-.91s-.16-.7-.08-1.08c.09-.44.28-.8.58-1.09s.67-.48,1.12-.59c.27-.06.57-.09.89-.08s.64.04.95.11l.41-1.98.68.14c-.01.06-.1.46-.26,1.2-.16.74-.33,1.5-.49,2.26-.13.6-.24,1.15-.34,1.64-.1.49-.19.91-.26,1.26Zm-.03-3.16c.02-.11.05-.24.08-.38.03-.14.06-.28.09-.42-.29-.06-.56-.09-.83-.1-.26,0-.5.01-.69.06-.31.07-.58.21-.79.42-.21.21-.35.48-.42.81-.06.29-.04.56.07.81s.26.45.46.62c.18.15.38.27.62.38s.49.19.76.25c.02,0,.04,0,.06.01.02,0,.04,0,.06.01,0-.03.05-.24.14-.64.09-.4.22-1.01.39-1.83Z"/><path class="cls-6" d="m67.44,146.73l-1.26,1.78-.45-.29,1.18-1.84.53.35Z"/><path class="cls-6" d="m69.87,151.8c-.03.21-.1.4-.23.56s-.28.28-.46.36c-.19.09-.41.15-.66.17s-.52.02-.82-.01c-.14-.02-.29-.04-.44-.07-.15-.03-.24-.05-.26-.06l.04-.57s.13.03.3.06.35.06.52.08c.1.01.23.02.4.02.16,0,.3-.01.41-.05.15-.05.27-.11.35-.2.08-.08.13-.19.15-.32.01-.12,0-.22-.06-.3-.05-.08-.13-.16-.23-.25-.11-.09-.26-.2-.45-.31-.19-.11-.35-.22-.48-.32-.18-.14-.31-.3-.4-.48-.08-.18-.11-.37-.09-.59.03-.22.11-.4.25-.56.14-.16.31-.28.52-.36.18-.07.38-.11.59-.12.21,0,.42,0,.61.03.18.02.32.04.44.06.11.02.18.03.2.03l-.02.59s-.11-.02-.27-.05c-.16-.03-.33-.06-.52-.08-.13-.02-.26-.02-.39-.01-.12,0-.23.03-.32.06-.13.05-.23.11-.3.2s-.1.17-.11.25c-.01.12.01.22.08.31.07.09.15.18.24.25.11.08.26.19.46.31.2.12.34.22.42.29.19.15.33.31.41.48s.12.36.09.58Z"/><path class="cls-6" d="m76.21,147.61s-.05,0-.1,0c-.05,0-.09,0-.12,0-.27-.01-.49,0-.65.04-.16.04-.31.12-.44.23-.1.09-.18.21-.24.36s-.09.33-.1.53v.2s1.48.07,1.48.07l-.02.51-1.49-.07c-.04.95-.08,1.83-.11,2.64-.03.81-.05,1.24-.05,1.29l-.69-.03s.02-.46.06-1.24c.04-.78.08-1.67.13-2.69l-.87-.04.02-.51.86.04v-.21c.02-.26.07-.49.14-.69.08-.2.2-.38.38-.56.15-.15.35-.26.6-.35.25-.08.55-.12.9-.1.04,0,.08,0,.13,0,.05,0,.09,0,.1,0l.06.57Z"/><path class="cls-6" d="m77.54,153.48h-.69c0-.05,0-.34.02-.87,0-.53.02-.97.02-1.31,0-.3,0-.63,0-1,0-.36,0-.79,0-1.27h.69c0,.43-.02.82-.03,1.19,0,.37-.01.7-.02.98,0,.68,0,1.23,0,1.64,0,.41,0,.63,0,.64Zm.09-5.3h-.77s0-.76,0-.76h.77s0,.76,0,.76Z"/><path class="cls-6" d="m81.71,149.46c-.16.04-.4.14-.73.27-.33.14-.7.32-1.13.54,0,.03,0,.18.01.44s.02.51.03.73c.02.35.04.76.06,1.23.03.47.04.74.05.79l-.69.03s0-.21-.01-.49c0-.28-.02-.75-.05-1.43-.01-.27-.03-.65-.05-1.14-.02-.49-.05-.95-.07-1.38l.68-.03.03.67h0c.32-.2.64-.37.96-.53.32-.15.57-.26.76-.31l.16.61Z"/><path class="cls-6" d="m85.16,151.9c.02.22-.02.41-.12.59s-.22.32-.38.44c-.17.12-.38.22-.62.3s-.51.12-.8.14c-.14,0-.29.01-.45.01-.15,0-.24,0-.26,0l-.07-.57s.13,0,.31,0c.18,0,.35,0,.53-.02.1,0,.23-.02.39-.05.16-.03.29-.07.39-.12.14-.07.24-.16.31-.26.06-.1.09-.21.08-.34,0-.12-.05-.21-.11-.29-.07-.07-.16-.14-.27-.2-.12-.07-.29-.14-.5-.22-.21-.08-.39-.15-.53-.22-.2-.11-.36-.24-.48-.39-.11-.16-.18-.34-.19-.56-.02-.22.03-.41.14-.6.11-.18.26-.33.45-.45.17-.11.35-.18.56-.23.21-.04.41-.07.61-.09.18-.01.33-.02.44-.02.11,0,.18,0,.2,0l.09.58s-.11,0-.27,0c-.16,0-.34,0-.53.02-.13,0-.26.03-.38.06-.12.03-.22.07-.3.12-.12.07-.21.16-.25.25-.05.09-.07.18-.06.27,0,.12.05.21.13.29s.18.15.28.2c.12.06.29.13.51.22.21.08.37.15.47.2.21.11.38.25.5.4s.18.33.2.55Z"/><path class="cls-6" d="m88.94,152.24l-.02.56s-.07.01-.15.03c-.08.01-.15.02-.21.03-.6.07-1.06,0-1.4-.22-.33-.21-.53-.58-.59-1.1-.04-.32-.07-.67-.11-1.04-.04-.37-.09-.83-.15-1.38l-.73.08-.06-.51.77-.09-.12-1.03.63-.07.12,1.03,1.56-.17.06.51-1.56.17c0,.06.02.24.05.55.03.3.05.53.07.67.01.12.03.27.05.45.02.18.04.39.07.63.04.38.17.64.4.78.22.14.55.19.97.15.05,0,.12-.01.19-.02.07,0,.12-.02.14-.02Z"/><path class="cls-6" d="m94.63,150.54c.04.21.02.41-.05.6-.07.19-.18.35-.33.48-.16.14-.35.26-.58.36-.23.1-.49.18-.78.23-.14.03-.29.05-.44.06-.15.02-.24.02-.26.02l-.13-.56s.13-.01.3-.03.35-.04.52-.08c.1-.02.23-.05.38-.1.16-.05.28-.1.38-.17.13-.09.22-.19.28-.29s.07-.22.04-.35c-.02-.12-.07-.21-.14-.27-.07-.06-.17-.12-.29-.17-.13-.06-.3-.11-.52-.16-.22-.05-.4-.1-.55-.16-.22-.08-.39-.19-.52-.34-.13-.14-.22-.32-.26-.53-.04-.21-.02-.42.07-.61.09-.19.22-.36.39-.5.15-.12.33-.22.53-.29.2-.07.4-.12.59-.16.18-.03.32-.06.43-.07.11-.01.18-.02.2-.03l.15.57s-.11.01-.27.03-.33.04-.52.08c-.13.02-.26.06-.37.1-.12.05-.21.1-.29.16-.11.09-.19.18-.22.28-.04.1-.05.19-.03.27.02.12.08.21.17.28.09.07.19.12.3.16.13.05.31.1.53.16.22.06.39.11.49.15.23.09.41.2.54.34.13.14.22.31.26.52Z"/><path class="cls-6" d="m96.9,151.36l-.67.16c0-.05-.1-.44-.27-1.16-.17-.72-.34-1.45-.52-2.21-.08-.32-.18-.73-.3-1.22-.12-.49-.26-1.05-.42-1.68l.68-.16c.11.51.25,1.09.41,1.76.16.67.25,1.06.28,1.19.07.29.22.91.45,1.84s.35,1.43.36,1.47Zm3.04-.82l-.32.47c-.78-.49-1.48-.91-2.09-1.27-.61-.36-.94-.55-1.01-.59h0c.05-.09.28-.46.68-1.13s.72-1.22.97-1.65l.52.33c-.26.41-.53.84-.82,1.29s-.46.74-.53.85h0c1.05.68,1.91,1.24,2.6,1.7Z"/><path class="cls-6" d="m103.14,147.04c.21.69.38,1.26.52,1.7.13.44.2.67.21.71-.03.01-.15.06-.38.15-.23.09-.52.19-.89.3-.23.07-.47.12-.71.15-.25.03-.46.03-.66,0-.26-.04-.48-.12-.67-.26s-.33-.33-.41-.58c-.08-.27-.07-.52.03-.77.1-.24.28-.47.54-.68.16-.13.38-.27.67-.43s.62-.31,1-.46c-.08-.21-.19-.38-.33-.49s-.3-.18-.51-.19c-.14-.01-.29,0-.44.02-.16.03-.34.07-.54.13-.13.04-.23.07-.32.11-.09.03-.2.08-.35.13l-.1-.58s.12-.05.25-.09c.12-.04.29-.1.51-.17.33-.1.64-.16.92-.17.28-.01.53.03.75.14.2.1.38.24.53.43.15.19.28.49.41.89Zm-.33,1.21c-.03-.1-.07-.22-.11-.36-.04-.15-.1-.31-.16-.5-.12.04-.33.13-.62.27s-.53.28-.72.42c-.14.11-.25.24-.34.39-.09.15-.1.32-.05.49.06.19.16.33.3.41.14.08.31.13.51.14.15,0,.31,0,.49-.04.17-.03.35-.07.54-.13.06-.02.12-.04.2-.07s.17-.06.25-.09c0-.02-.03-.11-.08-.28-.05-.17-.12-.39-.2-.67Z"/><path class="cls-6" d="m107.56,147.54l.12.55s-.06.03-.14.06-.14.06-.19.08c-.56.21-1.03.24-1.41.11-.38-.13-.65-.44-.83-.93-.11-.31-.23-.63-.35-.98s-.28-.79-.47-1.3l-.69.25-.18-.48.73-.27-.36-.98.6-.22.36.98,1.48-.54.18.48-1.48.54c.02.06.08.23.18.52.1.29.18.5.23.64.04.12.09.26.16.43.06.17.13.37.22.6.13.36.32.58.57.67.25.09.58.06.98-.09.05-.02.11-.04.18-.07.07-.03.11-.04.13-.05Z"/><path class="cls-6" d="m107.59,142.39l-.72.29-.29-.7.72-.29.29.7Zm1.97,4.92l-.64.26s-.12-.31-.32-.81-.36-.9-.49-1.22c-.11-.28-.24-.59-.38-.92-.14-.33-.3-.72-.5-1.17l.64-.26c.15.39.3.76.44,1.1s.26.65.37.91c.26.63.47,1.14.63,1.52.16.38.25.57.25.59Z"/><path class="cls-6" d="m114.51,145.08l-.63.29c-.03-.08-.14-.32-.34-.74s-.31-.68-.36-.77c-.06-.14-.16-.34-.29-.61-.13-.27-.22-.46-.28-.59-.15-.3-.31-.49-.48-.57s-.39-.06-.66.07c-.16.08-.34.22-.53.43s-.38.44-.55.71c.01.03.09.19.22.48s.25.55.36.79c.14.31.32.68.53,1.11.21.43.32.66.33.68l-.63.29s-.08-.18-.22-.49c-.14-.31-.35-.77-.63-1.37-.13-.28-.28-.6-.46-.98s-.37-.77-.57-1.19l.62-.29.21.46h0c.27-.38.51-.67.72-.87.21-.2.4-.34.56-.42.34-.16.66-.18.97-.06.31.12.55.36.72.73.16.33.29.62.4.87.11.24.2.44.27.59.11.24.26.54.43.9.18.36.27.55.28.57Z"/><path class="cls-6" d="m116.84,138.72c.03.06.17.31.42.77s.48.88.71,1.29c.15.28.31.56.47.84.16.29.31.55.44.79.24.44.36.82.34,1.16s-.12.65-.31.95c-.16.23-.37.47-.65.71s-.64.48-1.08.73l-.33-.45c.3-.17.56-.34.78-.49s.41-.33.57-.51c.24-.28.36-.54.38-.79.02-.25-.05-.51-.19-.78-.03.02-.06.03-.09.05s-.06.03-.09.05c-.31.17-.64.31-1,.41-.36.11-.7.14-1.02.11-.31-.03-.6-.12-.88-.29-.28-.17-.51-.43-.71-.79-.2-.36-.27-.73-.23-1.11.05-.38.19-.75.43-1.09.17-.25.38-.47.64-.67s.58-.41.97-.62c.07-.04.14-.08.21-.12.07-.04.15-.08.23-.13Zm.54,2.37c-.1-.18-.23-.41-.38-.69-.15-.28-.32-.56-.49-.86-.02,0-.03.02-.05.03-.02.01-.03.02-.05.03-.24.13-.44.26-.6.39-.16.13-.32.29-.47.48-.2.26-.31.53-.33.83-.02.29.05.58.2.85.16.28.36.48.6.61.25.12.52.18.81.16.2-.01.41-.05.64-.12s.46-.17.69-.29c.03-.02.05-.03.08-.04.02-.01.04-.02.07-.04-.02-.03-.09-.17-.23-.43-.14-.26-.3-.56-.5-.91Z"/><path class="cls-6" d="m124.37,136.51c.27.4.4.81.4,1.22,0,.42-.12.81-.36,1.18-.15.24-.35.47-.6.7-.25.23-.57.48-.95.74-.05.04-.11.07-.16.11-.06.04-.11.07-.16.11-.12-.19-.36-.54-.7-1.05-.34-.51-.75-1.12-1.23-1.83-.3-.44-.58-.86-.86-1.27-.28-.41-.57-.82-.86-1.25l.57-.39,1.13,1.68c.5-.33.93-.56,1.29-.68.36-.12.68-.17.98-.17.31,0,.59.09.85.23.26.15.49.36.68.65Zm-.57.41c-.2-.29-.45-.48-.75-.57s-.61-.08-.94,0c-.17.05-.34.11-.51.19s-.35.18-.51.29c-.03.02-.06.04-.1.07-.03.02-.06.04-.08.06.04.05.17.25.39.58s.41.61.56.82c.27.4.47.69.58.85s.23.33.35.51c.27-.18.5-.37.69-.56.19-.19.34-.38.44-.57.15-.28.21-.56.19-.84-.02-.28-.13-.56-.32-.83Z"/><path class="cls-6" d="m127.6,133.75c.44.58.8,1.05,1.08,1.41.28.36.42.56.45.59-.02.02-.12.11-.3.27-.18.16-.42.36-.73.59-.19.15-.4.28-.62.39-.22.11-.42.19-.61.23-.25.06-.49.05-.72,0-.23-.06-.42-.2-.58-.41-.17-.22-.25-.46-.24-.73.01-.27.1-.54.27-.83.1-.18.26-.39.48-.63.21-.24.47-.5.78-.77-.15-.17-.31-.29-.48-.34-.17-.06-.35-.06-.54,0-.13.04-.27.09-.41.17-.14.08-.29.18-.46.31-.1.08-.19.15-.26.21-.07.06-.17.14-.29.25l-.3-.51s.1-.09.2-.17c.1-.08.24-.2.42-.33.27-.21.54-.37.8-.48s.51-.15.75-.13c.23.02.44.09.64.22.2.13.44.36.69.7Zm.11,1.25c-.06-.08-.14-.18-.23-.3s-.2-.26-.32-.42c-.1.08-.26.24-.49.47-.23.23-.4.45-.53.65-.09.15-.15.31-.18.49s.02.33.13.48c.12.16.26.25.42.28.16.03.33.01.52-.05.14-.05.29-.12.44-.2s.3-.19.46-.31c.05-.04.1-.08.17-.13.07-.05.13-.11.21-.17-.01-.02-.07-.09-.17-.23-.1-.14-.25-.32-.42-.56Z"/><path class="cls-6" d="m133.23,132.27l-.53.45c-.05-.06-.23-.27-.52-.62-.3-.35-.48-.57-.55-.65-.1-.12-.25-.29-.44-.51s-.34-.39-.43-.49c-.23-.25-.43-.39-.62-.42-.19-.03-.39.05-.62.24-.14.12-.27.3-.4.55-.13.25-.24.53-.34.83.02.02.13.16.34.4.2.24.39.46.56.66.22.26.49.57.81.92.32.36.49.55.5.56l-.53.45s-.13-.15-.35-.41c-.22-.26-.54-.64-.98-1.15-.2-.23-.44-.51-.71-.82-.27-.31-.56-.64-.87-.99l.52-.45.33.39h0c.16-.44.31-.79.46-1.04.15-.25.29-.43.43-.55.28-.25.59-.35.92-.32.33.03.62.2.89.51.24.28.45.52.62.73.17.21.31.37.42.5.17.2.39.45.66.75s.41.46.42.47Z"/><path class="cls-6" d="m136.97,128.8s-.05.05-.12.12-.12.12-.16.16c-.4.39-.73.67-.98.85-.26.18-.54.33-.86.43-.41.14-.8.16-1.16.08-.36-.08-.67-.26-.94-.53-.31-.32-.5-.68-.58-1.08-.08-.4-.03-.82.14-1.26.1-.26.24-.52.43-.79.19-.27.4-.51.62-.73l-1.42-1.45.5-.48s.32.34.85.89c.53.55,1.06,1.11,1.6,1.67.43.44.82.84,1.17,1.2s.65.66.9.92Zm-2.64-1.74c-.08-.08-.17-.18-.27-.28-.1-.1-.2-.2-.3-.31-.21.2-.39.41-.54.63-.15.22-.26.42-.34.61-.12.3-.15.6-.09.89.06.29.21.56.44.8.21.22.45.35.71.4s.52.03.77-.04c.22-.06.44-.16.66-.3.22-.14.43-.3.63-.5.02-.01.03-.03.04-.04.01-.01.03-.03.04-.04-.02-.02-.17-.18-.45-.47-.28-.3-.72-.75-1.3-1.35Z"/></g></g><g id="Layer_4"><path class="cls-5" d="m42.54,30.83s-3.98-2.82-7.03-1.11-1.26,6.37.86,7.61,10.43,3.49,10.43,3.49l4.05-9.14c1.21-2.28-.68-5.38-1.9-6.33-.89-.69-1.87-.83-2.91-.55-1.96.53-2.55,1.86-3,3.86l-.49,2.17Z"/><path class="cls-5" d="m141.56,62.01s.44-4.22-2.04-5.55-5.15,2.25-5.2,4.37,1.69,9.14,1.69,9.14l8.31-1.63c2.15-.26,3.64-3.14,3.84-4.48.14-.98-.15-1.74-.78-2.34-1.18-1.13-2.39-.9-4.03-.23l-1.78.72Z"/><path class="cls-5" d="m105.17,13.74s-.71-1.6-1.66-1.46-1.01,2.07-.61,2.83,2.27,2.82,2.27,2.82l2.02-2.63c.55-.62.41-2.01.2-2.53-.15-.38-.39-.58-.68-.64-.55-.11-.85.27-1.18.92l-.36.7Z"/><path class="cls-5" d="m111.39,21.86s1.21-1.2,1.87-.73-.12,2.23-.75,2.78-2.91,1.75-2.91,1.75l-.4-3.1c-.15-.76.55-1.97.93-2.36.28-.29.54-.39.78-.34.46.1.52.55.5,1.25l-.03.76Z"/><path class="cls-5" d="m113.72,14.21s-.93-1.13-1.71-.81-.43,1.88.07,2.4,2.51,1.77,2.51,1.77l1.17-2.55c.34-.62-.07-1.7-.35-2.08-.21-.27-.45-.38-.71-.36-.49.03-.67.4-.81.99l-.16.64Z"/><path class="cls-5" d="m14.74,66.01s-1.26-1.18-2.01-.68.03,2.27.69,2.8,3.08,1.68,3.08,1.68l.58-3.17c.2-.78-.51-1.98-.9-2.38-.29-.29-.57-.38-.84-.31-.51.12-.59.58-.6,1.29v.77Z"/><path class="cls-5" d="m21.68,56.79s-.1-1.73-.98-1.88-1.55,1.66-1.44,2.5,1.07,3.34,1.07,3.34l2.61-1.89c.69-.43,1-1.78.99-2.34,0-.41-.15-.66-.39-.8-.45-.27-.83,0-1.32.52l-.54.55Z"/></g></svg>