<svg xmlns="http://www.w3.org/2000/svg" viewBox="0 0 900 900"><circle cx="450" cy="450" r="450" fill="#643c17"/><g fill="#fff"><path d="M361.8 175.03v2.39a8.2 8.2 0 0 0-4.13 1.35 9.94 9.94 0 0 0-2.96 3.54c-.26.52-1.61 3.85-4.06 10l-27.4 72.12h-2.5l-21.67-56.34-23.84 56.34h-2.39l-28.74-71.35c-2.93-7.18-4.97-11.52-6.13-13.02-1.16-1.5-3.11-2.39-5.86-2.64v-2.39h37.9v2.39c-3.06.08-5.09.54-6.1 1.38a3.9 3.9 0 0 0-1.5 3.13c0 1.63 1.04 5.09 3.15 10.37l17.14 42.41 13.73-33.12-3.6-9.29c-1.98-5.07-3.51-8.45-4.58-10.15a9.98 9.98 0 0 0-3.71-3.64c-1.4-.73-3.45-1.1-6.16-1.1v-2.38h42.35v2.39c-2.96.04-5.1.27-6.38.7-.9.3-1.61.81-2.13 1.52s-.77 1.51-.77 2.42c0 .98.97 4.01 2.9 9.08l15.92 41.38 14.24-37.44a77.54 77.54 0 0 0 2.78-7.93c.34-1.42.51-2.73.51-3.93 0-1.77-.6-3.15-1.8-4.16-1.2-1.01-3.5-1.56-6.9-1.64v-2.39h22.69Zm45.67 55.11h-33.06c.38 7.99 2.51 14.3 6.38 18.95 2.96 3.56 6.53 5.35 10.7 5.35 2.58 0 4.92-.72 7.02-2.16 2.1-1.44 4.36-4.03 6.77-7.77l2.2 1.42c-3.27 6.66-6.88 11.37-10.84 14.15a23.32 23.32 0 0 1-13.72 4.15c-8.94 0-15.71-3.43-20.3-10.3-3.7-5.55-5.55-12.43-5.55-20.63 0-10.06 2.72-18.06 8.15-24.01 5.44-5.95 11.8-8.93 19.11-8.93 6.1 0 11.4 2.5 15.9 7.5 4.48 5.02 6.9 12.44 7.24 22.28Zm-15.85-4.32c0-6.92-.38-11.67-1.13-14.24-.75-2.58-1.92-4.54-3.51-5.87a5.36 5.36 0 0 0-3.61-1.16c-2.24 0-4.06 1.1-5.48 3.29-2.54 3.82-3.8 9.06-3.8 15.72v2.26h17.53Zm72.91-45.7v22.05h14.31v6.38h-14.3v37.19c0 3.48.15 5.72.48 6.73a4.86 4.86 0 0 0 1.7 2.45c.82.62 1.57.93 2.26.93 2.8 0 5.44-2.12 7.93-6.38l1.93 1.42c-3.48 8.25-9.13 12.38-16.95 12.38-3.82 0-7.06-1.07-9.7-3.2s-4.33-4.5-5.06-7.12c-.43-1.46-.64-5.41-.64-11.86v-32.54h-7.87v-2.26a83.12 83.12 0 0 0 13.83-12.05 73.37 73.37 0 0 0 9.96-14.12h2.12Zm49.61 73.41c-7.35 6.5-13.94 9.74-19.79 9.74-3.44 0-6.3-1.13-8.57-3.39a11.44 11.44 0 0 1-3.42-8.47c0-4.6 1.98-8.74 5.93-12.41 3.96-3.67 12.57-8.56 25.85-14.66v-6.06c0-4.56-.25-7.42-.74-8.6a6.94 6.94 0 0 0-2.8-3.1 8.43 8.43 0 0 0-4.65-1.32c-2.79 0-5.09.62-6.9 1.87-1.11.77-1.67 1.67-1.67 2.7 0 .9.6 2.02 1.8 3.36 1.64 1.84 2.46 3.63 2.46 5.35 0 2.1-.79 3.9-2.36 5.38-1.57 1.48-3.62 2.22-6.15 2.22a9.8 9.8 0 0 1-6.8-2.45 7.48 7.48 0 0 1-2.74-5.73c0-3.1 1.22-6.05 3.67-8.87 2.45-2.81 5.87-4.97 10.25-6.47a41.82 41.82 0 0 1 13.67-2.26c5.71 0 10.23 1.21 13.56 3.64s5.5 5.06 6.48 7.9c.6 1.8.9 5.95.9 12.44v23.4c0 2.74.1 4.47.32 5.18s.54 1.24.97 1.58c.43.35.92.52 1.48.52 1.12 0 2.26-.8 3.42-2.39l1.93 1.55c-2.15 3.18-4.37 5.49-6.67 6.93a14.45 14.45 0 0 1-7.83 2.16c-3.44 0-6.12-.8-8.06-2.42s-3.11-4.05-3.54-7.32Zm0-4.7v-20.17c-5.2 3.05-9.07 6.31-11.6 9.8-1.68 2.31-2.52 4.65-2.52 7.02a7.4 7.4 0 0 0 2.13 5.22c1.08 1.16 2.58 1.74 4.51 1.74 2.15 0 4.64-1.2 7.48-3.61Zm53.54-73.8v57.5l13.99-13.74c2.87-2.79 4.67-4.8 5.38-6.05.7-1.25 1.06-2.45 1.06-3.61s-.47-2.13-1.42-2.9c-.94-.78-2.8-1.34-5.54-1.68v-2.39h27v2.39c-2.57.13-4.83.74-6.76 1.84s-5.72 4.4-11.35 9.89l-6.57 6.45 14.18 20.75c5.71 8.42 9.1 13.15 10.18 14.18a8.48 8.48 0 0 0 5.55 2.45v2.32h-31.13v-2.32c1.37 0 2.37-.26 3-.77.61-.52.93-1.08.93-1.68 0-.99-.9-2.81-2.71-5.48l-11.92-17.47-3.87 3.8v10.83c0 4.6.43 7.47 1.29 8.6.86 1.15 2.62 1.87 5.28 2.17v2.32h-31.13v-2.32c2.54-.26 4.34-1.08 5.42-2.45.73-.95 1.1-3.72 1.1-8.32v-61.23c0-4.55-.43-7.39-1.26-8.5-.84-1.12-2.6-1.85-5.26-2.2v-2.38h24.56Zm96.27 55.11h-33.06c.38 7.99 2.5 14.3 6.38 18.95 2.96 3.56 6.53 5.35 10.7 5.35 2.57 0 4.91-.72 7.02-2.16 2.1-1.44 4.36-4.03 6.77-7.77l2.19 1.42c-3.27 6.66-6.88 11.37-10.83 14.15a23.32 23.32 0 0 1-13.73 4.15c-8.93 0-15.7-3.43-20.3-10.3-3.7-5.55-5.54-12.43-5.54-20.63 0-10.06 2.71-18.06 8.15-24.01 5.44-5.95 11.8-8.93 19.11-8.93 6.1 0 11.4 2.5 15.89 7.5 4.49 5.02 6.9 12.44 7.25 22.28Zm-15.86-4.32c0-6.92-.37-11.67-1.12-14.24-.76-2.58-1.93-4.54-3.52-5.87a5.36 5.36 0 0 0-3.6-1.16c-2.24 0-4.07 1.1-5.48 3.29-2.54 3.82-3.8 9.06-3.8 15.72v2.26h17.52ZM221.27 358.17v7.92c3.3-3.6 6.37-6.13 9.18-7.57a20.02 20.02 0 0 1 9.25-2.16c3.87 0 7.11.9 9.73 2.7 2.63 1.81 4.65 4.56 6.06 8.26 3.44-3.87 6.74-6.66 9.9-8.38a20.42 20.42 0 0 1 9.89-2.58c4.17 0 7.49.96 9.96 2.87a14.9 14.9 0 0 1 5.15 7.28c.97 2.95 1.45 7.64 1.45 14.08v24.69c0 4.64.42 7.52 1.26 8.64.84 1.11 2.59 1.85 5.25 2.19v2.32h-31.13v-2.32c2.45-.22 4.26-1.16 5.42-2.84.77-1.16 1.16-3.82 1.16-7.99v-25.91c0-5.37-.22-8.79-.65-10.25a6.13 6.13 0 0 0-2.03-3.25 5.2 5.2 0 0 0-3.25-1.07 9.6 9.6 0 0 0-5.6 2.03 25.97 25.97 0 0 0-5.75 6.1v32.35c0 4.34.37 7.07 1.1 8.19.99 1.59 2.88 2.47 5.67 2.64v2.32h-31.2v-2.32c1.68-.09 3-.5 3.97-1.26a5.4 5.4 0 0 0 1.93-2.7c.33-1.06.49-3.35.49-6.87v-25.91c0-5.46-.22-8.87-.65-10.25a6.3 6.3 0 0 0-2.16-3.22 5.25 5.25 0 0 0-3.25-1.16c-1.72 0-3.29.45-4.7 1.35-2.03 1.34-4.17 3.61-6.45 6.83v32.36c0 4.25.42 7.06 1.26 8.41s2.58 2.16 5.25 2.42v2.32H196.7v-2.32c2.54-.26 4.34-1.08 5.42-2.45.73-.95 1.1-3.74 1.1-8.38v-34.03c0-4.56-.43-7.4-1.26-8.5-.84-1.13-2.6-1.86-5.26-2.2v-2.39h24.56Zm114.51 51.36c-7.35 6.5-13.94 9.74-19.79 9.74-3.44 0-6.3-1.13-8.57-3.39a11.44 11.44 0 0 1-3.42-8.47c0-4.6 1.98-8.74 5.93-12.41 3.96-3.67 12.57-8.56 25.85-14.66v-6.06c0-4.56-.25-7.42-.74-8.6a6.94 6.94 0 0 0-2.8-3.1 8.43 8.43 0 0 0-4.65-1.32c-2.79 0-5.09.62-6.9 1.87-1.11.77-1.67 1.67-1.67 2.7 0 .9.6 2.02 1.8 3.36 1.64 1.84 2.46 3.63 2.46 5.35 0 2.1-.79 3.9-2.36 5.38-1.57 1.48-3.62 2.22-6.15 2.22a9.8 9.8 0 0 1-6.8-2.45 7.48 7.48 0 0 1-2.74-5.73c0-3.1 1.22-6.05 3.67-8.87 2.45-2.81 5.87-4.97 10.25-6.47a41.82 41.82 0 0 1 13.66-2.26c5.72 0 10.24 1.21 13.57 3.64s5.5 5.06 6.48 7.9c.6 1.8.9 5.95.9 12.44v23.4c0 2.74.1 4.47.32 5.18s.54 1.24.97 1.58c.43.35.92.52 1.48.52 1.12 0 2.26-.8 3.42-2.39l1.93 1.55c-2.15 3.18-4.37 5.49-6.67 6.93a14.45 14.45 0 0 1-7.83 2.16c-3.44 0-6.12-.8-8.06-2.42s-3.11-4.05-3.54-7.32Zm0-4.7v-20.17c-5.2 3.05-9.07 6.31-11.6 9.8-1.68 2.31-2.52 4.65-2.52 7.02a7.4 7.4 0 0 0 2.13 5.22c1.08 1.16 2.58 1.74 4.51 1.74 2.15 0 4.64-1.2 7.48-3.61Zm54.05-46.66v13.66c4-6.23 7.5-10.37 10.5-12.4 3.02-2.05 5.92-3.07 8.71-3.07 2.4 0 4.33.74 5.77 2.22 1.44 1.49 2.16 3.58 2.16 6.29 0 2.88-.7 5.11-2.1 6.7a6.5 6.5 0 0 1-5.06 2.39 8.73 8.73 0 0 1-5.93-2.2 36.5 36.5 0 0 0-2.96-2.44 2.83 2.83 0 0 0-1.48-.4c-1.25 0-2.43.48-3.55 1.43a13.34 13.34 0 0 0-4 6.25 43.82 43.82 0 0 0-2.06 13.8v13.85l.07 3.6c0 2.46.15 4.03.45 4.71a5.12 5.12 0 0 0 2.29 2.55c1 .54 2.71.87 5.12 1v2.32h-32.55v-2.32c2.62-.22 4.4-.94 5.32-2.16.92-1.23 1.39-4.46 1.39-9.7v-33.32c0-3.44-.18-5.63-.52-6.58a5.2 5.2 0 0 0-1.87-2.64c-.82-.56-2.25-.94-4.32-1.16v-2.38h24.62Zm76.68 44.73 2 1.54c-2.84 5.33-6.37 9.3-10.6 11.9a25.38 25.38 0 0 1-13.5 3.9c-8.04 0-14.47-3.04-19.28-9.1-4.81-6.05-7.22-13.34-7.22-21.84 0-8.21 2.2-15.43 6.58-21.66 5.28-7.52 12.57-11.28 21.85-11.28 6.23 0 11.18 1.57 14.85 4.7 3.68 3.14 5.51 6.64 5.51 10.51 0 2.45-.74 4.4-2.22 5.87a7.95 7.95 0 0 1-5.83 2.19 8.46 8.46 0 0 1-6.29-2.52c-1.65-1.67-2.67-4.66-3.06-8.95-.26-2.71-.88-4.6-1.87-5.68a4.6 4.6 0 0 0-3.48-1.6c-2.06 0-3.82 1.09-5.28 3.28-2.24 3.3-3.35 8.38-3.35 15.21 0 5.67.9 11.1 2.7 16.27 1.8 5.18 4.28 9.04 7.41 11.57a13.2 13.2 0 0 0 8.38 2.78c2.1 0 4.1-.5 6-1.49 1.89-.98 4.12-2.85 6.7-5.6Zm30.34-71.87v34.87c3.3-3.48 6.33-5.94 9.08-7.38a18.26 18.26 0 0 1 8.58-2.16c3.78 0 7.01 1.07 9.7 3.22a15.37 15.37 0 0 1 5.35 7.58c.88 2.9 1.32 7.78 1.32 14.66v23.52c0 4.6.43 7.47 1.29 8.6.85 1.15 2.6 1.87 5.22 2.17v2.32h-30.55v-2.32c2.14-.3 3.76-1.16 4.83-2.58.77-1.12 1.16-3.84 1.16-8.19v-26.87c0-4.99-.2-8.11-.58-9.38a5.72 5.72 0 0 0-1.97-2.96 5 5 0 0 0-3.12-1.07c-1.72 0-3.4.6-5.03 1.77-1.63 1.19-3.4 3.26-5.28 6.22v32.3c0 4.3.32 6.98.96 8.05.82 1.46 2.5 2.37 5.03 2.7v2.33h-30.55v-2.32c2.53-.26 4.34-1.08 5.41-2.45.73-.95 1.1-3.72 1.1-8.32v-61.23c0-4.55-.42-7.39-1.26-8.5-.84-1.12-2.59-1.85-5.25-2.2v-2.38h24.56Zm68.62 27.14v47.75c0 4.26.49 6.98 1.48 8.16.99 1.18 2.92 1.86 5.8 2.03v2.32H540.2v-2.32c2.66-.09 4.64-.86 5.93-2.32.86-.99 1.29-3.61 1.29-7.87v-35.19c0-4.25-.5-6.97-1.48-8.15-1-1.18-2.9-1.86-5.74-2.03v-2.38h25.27Zm-9.03-29.2c2.8 0 5.16.98 7.1 2.93 1.93 1.96 2.9 4.3 2.9 7.06s-.98 5.09-2.94 7.02c-1.96 1.94-4.3 2.9-7.06 2.9s-5.09-.96-7.02-2.9-2.9-4.27-2.9-7.02.96-5.1 2.9-7.06a9.52 9.52 0 0 1 7.02-2.93Zm43.1 29.2v7.8c3.1-3.36 6.06-5.8 8.9-7.32a19.03 19.03 0 0 1 9.15-2.29c3.9 0 7.15 1.09 9.73 3.26a15.6 15.6 0 0 1 5.16 8.08c.68 2.45 1.03 7.16 1.03 14.12v23.46c0 4.64.42 7.53 1.25 8.67.84 1.14 2.6 1.86 5.26 2.16v2.32h-30.49v-2.32c2.28-.3 3.91-1.25 4.9-2.84.69-1.07 1.03-3.74 1.03-7.99v-26.81c0-4.94-.2-8.06-.58-9.35s-1.04-2.29-1.97-3a4.91 4.91 0 0 0-3.06-1.06c-3.7 0-7.13 2.64-10.31 7.93v32.29c0 4.51.42 7.37 1.26 8.57.83 1.2 2.4 1.96 4.67 2.26v2.32h-30.49v-2.32c2.54-.26 4.34-1.08 5.42-2.45.73-.95 1.1-3.74 1.1-8.38v-34.03c0-4.56-.43-7.4-1.26-8.5-.84-1.13-2.6-1.86-5.26-2.2v-2.38h24.56Zm83.76.7h20.3v7.1h-11.53c2.1 2.1 3.57 4.01 4.38 5.73a17.74 17.74 0 0 1 1.55 7.28c0 4.3-1.2 8.03-3.58 11.19s-5.62 5.63-9.73 7.4c-4.1 1.8-7.74 2.68-10.92 2.68-.26 0-2.84-.1-7.74-.32a6.7 6.7 0 0 0-4.86 1.9 6.1 6.1 0 0 0-1.97 4.55c0 1.54.6 2.81 1.77 3.8 1.18.99 3.1 1.48 5.77 1.48l11.15-.13c9.03 0 15.23 1 18.63 2.97 4.85 2.75 7.28 6.98 7.28 12.7 0 3.65-1.11 6.97-3.35 9.95a19.66 19.66 0 0 1-8.83 6.6c-5.54 2.11-11.92 3.17-19.14 3.17a64.7 64.7 0 0 1-14.83-1.58c-4.46-1.06-7.67-2.52-9.6-4.39s-2.9-3.83-2.9-5.9c0-1.97.74-3.74 2.22-5.31 1.49-1.57 4.25-2.89 8.29-3.96-5.59-2.75-8.38-6.58-8.38-11.48 0-2.96 1.14-5.84 3.41-8.63 2.28-2.8 5.89-5.22 10.83-7.29-5.76-2.1-9.92-4.87-12.5-8.31a19.33 19.33 0 0 1-3.87-11.92c0-5.9 2.4-11 7.22-15.31 4.81-4.32 11-6.48 18.56-6.48 4 0 8.12.84 12.38 2.51Zm-14.95 68.45c-4.38 0-7.28.37-8.7 1.1-2.45 1.33-3.67 3.14-3.67 5.41 0 2.2 1.27 4.18 3.8 5.96 2.54 1.79 7.3 2.68 14.31 2.68 5.97 0 10.67-.8 14.08-2.39 3.42-1.59 5.13-3.82 5.13-6.7 0-1.07-.33-1.98-.97-2.7-1.16-1.3-2.91-2.18-5.25-2.65-2.35-.47-8.59-.7-18.73-.7Zm3.8-66.96c-2.49 0-4.6 1.25-6.31 3.77-1.72 2.51-2.58 7.72-2.58 15.63 0 6.4.85 10.8 2.55 13.18 1.7 2.38 3.7 3.57 6.02 3.57 2.58 0 4.73-1.18 6.45-3.54 1.72-2.36 2.58-6.96 2.58-13.8 0-7.68-.97-12.93-2.9-15.72a6.58 6.58 0 0 0-5.8-3.1ZM339.2 487.03v33.2c5.08-5.25 10.62-7.87 16.63-7.87 4.13 0 8.02 1.22 11.67 3.64a24.28 24.28 0 0 1 8.57 10.35c2.07 4.47 3.1 9.62 3.1 15.47 0 6.57-1.31 12.54-3.94 17.91-2.62 5.38-6.12 9.47-10.5 12.28s-9.39 4.22-15.02 4.22c-3.26 0-6.17-.51-8.7-1.54a24.34 24.34 0 0 1-7.48-5.03l-9.99 6.5h-2.19v-76.63c0-3.48-.15-5.62-.45-6.44a5.02 5.02 0 0 0-2.03-2.68c-.92-.58-2.48-.9-4.67-1v-2.38h25Zm0 38.93v26.81c0 5.46.13 8.94.4 10.44a10.74 10.74 0 0 0 3.09 6.16 8.65 8.65 0 0 0 6.25 2.35c2.19 0 4.07-.62 5.64-1.87 1.57-1.24 2.88-3.71 3.93-7.4 1.05-3.7 1.58-10.36 1.58-19.99 0-9.24-1.16-15.58-3.48-19.01-1.68-2.5-3.93-3.74-6.77-3.74-3.7 0-7.24 2.08-10.63 6.25Zm79.65 39.57c-7.35 6.5-13.95 9.74-19.79 9.74-3.44 0-6.3-1.13-8.57-3.39a11.44 11.44 0 0 1-3.42-8.47c0-4.6 1.98-8.74 5.93-12.41 3.95-3.67 12.57-8.56 25.85-14.66v-6.06c0-4.56-.25-7.42-.74-8.6a6.94 6.94 0 0 0-2.8-3.1 8.43 8.43 0 0 0-4.65-1.32c-2.8 0-5.09.62-6.9 1.87-1.11.77-1.67 1.67-1.67 2.7 0 .9.6 2.03 1.8 3.36 1.64 1.84 2.45 3.63 2.45 5.35 0 2.1-.78 3.9-2.35 5.38s-3.62 2.22-6.15 2.22a9.78 9.78 0 0 1-6.8-2.45 7.48 7.48 0 0 1-2.74-5.73c0-3.1 1.22-6.05 3.67-8.87 2.45-2.81 5.87-4.97 10.25-6.47a41.8 41.8 0 0 1 13.66-2.26c5.72 0 10.24 1.22 13.57 3.64 3.33 2.43 5.49 5.06 6.48 7.9.6 1.8.9 5.95.9 12.44v23.4c0 2.74.1 4.47.32 5.18s.54 1.24.97 1.58c.43.35.92.52 1.48.52 1.12 0 2.26-.8 3.42-2.39l1.93 1.55c-2.15 3.18-4.37 5.49-6.67 6.93a14.45 14.45 0 0 1-7.83 2.16c-3.44 0-6.12-.8-8.06-2.42s-3.11-4.05-3.54-7.32Zm0-4.7v-20.17c-5.2 3.05-9.07 6.31-11.6 9.8-1.68 2.31-2.52 4.66-2.52 7.02a7.4 7.4 0 0 0 2.13 5.22c1.07 1.16 2.58 1.74 4.51 1.74 2.15 0 4.64-1.2 7.48-3.61Zm53.66-46.67v7.8c3.1-3.35 6.06-5.79 8.9-7.31a19.03 19.03 0 0 1 9.15-2.29c3.91 0 7.16 1.09 9.73 3.26a15.6 15.6 0 0 1 5.16 8.08c.69 2.45 1.03 7.16 1.03 14.12v23.46c0 4.64.42 7.53 1.26 8.67.84 1.14 2.59 1.86 5.25 2.16v2.32H482.5v-2.32c2.28-.3 3.91-1.25 4.9-2.84.69-1.07 1.03-3.74 1.03-7.99v-26.81c0-4.94-.19-8.06-.58-9.35s-1.04-2.29-1.96-3a4.91 4.91 0 0 0-3.06-1.06c-3.7 0-7.14 2.64-10.32 7.93v32.29c0 4.51.42 7.37 1.26 8.57.84 1.2 2.4 1.96 4.67 2.26v2.32h-30.48v-2.32c2.53-.26 4.34-1.07 5.41-2.45.73-.95 1.1-3.74 1.1-8.38v-34.03c0-4.55-.42-7.4-1.26-8.5-.84-1.13-2.59-1.86-5.25-2.2v-2.39h24.55Zm103.69-27.13v69.35c0 4.69.13 7.46.38 8.32a5.2 5.2 0 0 0 1.97 3.15c.97.7 2.65 1.12 5.06 1.3v2.12l-25.46 4.96v-9.54c-3.05 3.7-5.77 6.21-8.15 7.55s-5.08 2-8.1 2c-7.68 0-13.76-3.44-18.23-10.32-3.61-5.58-5.42-12.44-5.42-20.56 0-6.49 1.12-12.3 3.36-17.43 2.23-5.14 5.3-9.02 9.18-11.64a22.02 22.02 0 0 1 12.54-3.93c2.88 0 5.43.56 7.67 1.68 2.23 1.11 4.62 3.07 7.15 5.86v-18.17c0-4.6-.2-7.37-.58-8.32a5.53 5.53 0 0 0-2.32-2.77c-1.03-.6-2.96-.9-5.8-.9v-2.71h26.75Zm-18.05 40.86c-3.18-6.1-7.07-9.15-11.67-9.15-1.59 0-2.9.43-3.93 1.29-1.59 1.33-2.89 3.67-3.9 7.03-1 3.35-1.51 8.48-1.51 15.4 0 7.6.56 13.24 1.68 16.89 1.11 3.65 2.64 6.3 4.57 7.92a6.19 6.19 0 0 0 4.06 1.23c3.78 0 7.35-2.97 10.7-8.9v-31.7ZM366.18 641.03l.7 29.14h-2.63c-1.25-7.31-4.31-13.19-9.19-17.63-4.88-4.45-10.15-6.67-15.82-6.67-4.39 0-7.86 1.17-10.41 3.5-2.56 2.35-3.84 5.05-3.84 8.1 0 1.93.45 3.65 1.36 5.15 1.24 2.02 3.24 4.02 6 6 2.01 1.42 6.67 3.93 13.98 7.54 10.22 5.03 17.12 9.77 20.69 14.24a24.1 24.1 0 0 1 5.28 15.34c0 7.3-2.85 13.6-8.54 18.86-5.7 5.26-12.92 7.9-21.69 7.9-2.75 0-5.35-.29-7.8-.85a58.88 58.88 0 0 1-9.21-3.16c-2.06-.85-3.76-1.28-5.1-1.28-1.11 0-2.3.43-3.54 1.28a9.01 9.01 0 0 0-3.03 3.94h-2.38v-33h2.38c1.9 9.28 5.53 16.36 10.93 21.23 5.39 4.88 11.2 7.32 17.43 7.32 4.81 0 8.65-1.31 11.5-3.93 2.86-2.62 4.3-5.67 4.3-9.15 0-2.07-.56-4.07-1.65-6s-2.76-3.77-5-5.5c-2.23-1.75-6.18-4.02-11.86-6.8-7.95-3.92-13.66-7.25-17.14-10a30.64 30.64 0 0 1-8.02-9.22 22.86 22.86 0 0 1-2.8-11.21c0-6.96 2.55-12.9 7.66-17.79 5.11-4.9 11.56-7.35 19.34-7.35 2.83 0 5.58.35 8.25 1.03a42.1 42.1 0 0 1 7.38 2.87c2.9 1.4 4.93 2.1 6.09 2.1 1.12 0 2-.35 2.64-1.03.65-.7 1.25-2.35 1.8-4.97h1.94Zm44.77 0-28.68 91.4h-8.25l28.81-91.4h8.12Z"/><path d="m439.74 643.03 43.12 54.2v-37.57c0-5.24-.75-8.79-2.26-10.64-2.06-2.49-5.52-3.7-10.37-3.6v-2.39h28.87v2.38c-3.7.48-6.18 1.1-7.44 1.84a7.39 7.39 0 0 0-2.97 3.68c-.7 1.7-1.06 4.6-1.06 8.73v72.77h-2.2l-59.1-72.77v55.56c0 5.02 1.15 8.42 3.45 10.18a12.62 12.62 0 0 0 7.9 2.64h2.06v2.39h-31v-2.39c4.81-.04 8.16-1.03 10.05-2.96 1.9-1.93 2.84-5.22 2.84-9.86v-61.68l-1.87-2.32c-1.85-2.32-3.48-3.85-4.9-4.58-1.42-.73-3.46-1.14-6.12-1.22v-2.39h31Zm146.86-2v30.3h-2.5c-1.9-7.91-5.42-13.97-10.58-18.18a26.97 26.97 0 0 0-17.53-6.32 25.92 25.92 0 0 0-15.02 4.7 27.44 27.44 0 0 0-9.99 12.32c-2.7 6.49-4.06 13.7-4.06 21.65 0 7.83 1 14.95 2.97 21.37 1.97 6.42 5.07 11.28 9.28 14.57 4.21 3.28 9.67 4.93 16.37 4.93 5.5 0 10.54-1.2 15.11-3.61 4.58-2.4 9.4-6.55 14.47-12.44v7.54c-4.9 5.11-10 8.82-15.3 11.12-5.31 2.3-11.5 3.45-18.6 3.45-9.32 0-17.6-1.87-24.84-5.61a39.63 39.63 0 0 1-16.76-16.11 45 45 0 0 1-5.9-22.37c0-8.34 2.18-16.24 6.54-23.72 4.36-7.47 10.25-13.28 17.66-17.4s15.29-6.19 23.62-6.19c6.15 0 12.64 1.33 19.47 4 3.95 1.55 6.47 2.32 7.54 2.32a4.9 4.9 0 0 0 3.58-1.52c1-1 1.66-2.6 1.96-4.8h2.52Z"/></g></svg>
