<svg xmlns="http://www.w3.org/2000/svg" viewBox="0 0 900 900"><circle cx="450" cy="450" r="450" fill="#284e13"/><path d="M235.41 260.13v35.9h2.52c3.86 0 7.02-.58 9.47-1.74s4.52-3.11 6.22-5.86c1.7-2.75 2.8-6.47 3.32-11.15h2.26v43.9h-2.26c-.82-8.3-3.04-13.77-6.67-16.41a20.45 20.45 0 0 0-12.34-3.97h-2.52v26.75c0 4.47.25 7.26.74 8.38a6.64 6.64 0 0 0 2.9 2.93c1.44.84 3.39 1.26 5.84 1.26h2.9v2.38h-45.7v-2.38h2.9c2.53 0 4.58-.45 6.12-1.35a5.87 5.87 0 0 0 2.58-3.1c.47-1.03.71-3.74.71-8.12v-57.5c0-4.46-.24-7.25-.7-8.37a6.45 6.45 0 0 0-2.88-2.93c-1.44-.84-3.38-1.26-5.83-1.26h-2.9v-2.38h73.73v25.07h-2.64c-.6-5.89-2.14-10.25-4.6-13.09-2.48-2.83-6.06-4.83-10.74-5.99-2.58-.64-7.35-.97-14.3-.97h-8.13Zm78.35 42.54v24.5c0 4.72.3 7.7.87 8.92s1.6 2.2 3.06 2.93c1.46.74 4.2 1.1 8.19 1.1v2.39h-44.73v-2.39c4.04 0 6.78-.38 8.22-1.13a6.58 6.58 0 0 0 3.03-2.93c.58-1.2.87-4.17.87-8.9v-56.71c0-4.73-.3-7.7-.87-8.93s-1.6-2.2-3.07-2.93c-1.46-.73-4.19-1.1-8.18-1.1v-2.38h40.6c10.57 0 18.3.73 23.2 2.19 4.9 1.46 8.9 4.16 12 8.09s4.64 8.54 4.64 13.82c0 6.45-2.32 11.78-6.96 15.99-2.97 2.66-7.12 4.66-12.44 6l21 29.57c2.76 3.83 4.71 6.21 5.87 7.16a10.91 10.91 0 0 0 6.13 2.19v2.39h-27.53l-28.16-39.84h-5.74Zm0-42.86v38.29h3.68c5.97 0 10.44-.55 13.4-1.65s5.3-3.07 7-5.93c1.7-2.85 2.54-6.58 2.54-11.18 0-6.66-1.56-11.58-4.67-14.76-3.12-3.18-8.13-4.77-15.05-4.77h-6.9Zm127.12.32v35.58h1.74c5.54 0 9.56-1.74 12.05-5.22 2.5-3.48 4.08-8.61 4.77-15.4h2.45v45.76h-2.45c-.51-4.99-1.6-9.07-3.25-12.25-1.66-3.18-3.58-5.31-5.77-6.41s-5.37-1.64-9.54-1.64v24.62c0 4.81.2 7.75.61 8.83a5.3 5.3 0 0 0 2.29 2.64c1.12.69 2.92 1.03 5.41 1.03h5.22c8.17 0 14.7-1.89 19.63-5.67 4.92-3.78 8.45-9.54 10.6-17.27h2.39l-3.93 27.77h-75.54v-2.38h2.9c2.53 0 4.57-.45 6.12-1.35a5.87 5.87 0 0 0 2.58-3.1c.47-1.03.7-3.74.7-8.12v-57.5c0-3.94-.1-6.37-.32-7.27a6.17 6.17 0 0 0-2.38-3.48c-1.63-1.2-3.87-1.8-6.7-1.8h-2.9v-2.4h73.15v25.85h-2.45c-1.25-6.31-3-10.85-5.25-13.6-2.26-2.75-5.45-4.77-9.57-6.06-2.4-.77-6.92-1.16-13.54-1.16h-9.02Zm144.97-7.03.7 29.14h-2.63c-1.25-7.3-4.31-13.18-9.19-17.63-4.88-4.44-10.15-6.67-15.82-6.67-4.39 0-7.86 1.17-10.41 3.52-2.56 2.34-3.84 5.03-3.84 8.08 0 1.94.45 3.66 1.36 5.16 1.24 2.02 3.24 4.02 6 6 2.01 1.41 6.67 3.93 13.98 7.54 10.22 5.02 17.12 9.77 20.69 14.24a24.1 24.1 0 0 1 5.28 15.34c0 7.3-2.84 13.59-8.54 18.85-5.7 5.27-12.92 7.9-21.69 7.9-2.75 0-5.35-.28-7.8-.84a58.93 58.93 0 0 1-9.21-3.16c-2.06-.86-3.76-1.29-5.1-1.29-1.11 0-2.3.43-3.54 1.3a9.01 9.01 0 0 0-3.03 3.92h-2.38v-33h2.38c1.9 9.28 5.53 16.36 10.93 21.24 5.39 4.88 11.2 7.32 17.43 7.32 4.81 0 8.65-1.31 11.5-3.94 2.86-2.62 4.3-5.67 4.3-9.15 0-2.06-.56-4.06-1.65-6s-2.76-3.76-5-5.5-6.18-4.01-11.86-6.8c-7.95-3.91-13.66-7.24-17.14-10a30.64 30.64 0 0 1-8.02-9.21 22.86 22.86 0 0 1-2.8-11.21c0-6.97 2.55-12.9 7.66-17.8s11.56-7.34 19.34-7.34c2.83 0 5.58.34 8.25 1.03 2.02.52 4.48 1.47 7.38 2.87 2.9 1.4 4.93 2.1 6.09 2.1 1.11 0 2-.35 2.64-1.04.64-.69 1.25-2.34 1.8-4.96h1.94Zm46.45 47.38v27.07c0 4.47.24 7.26.74 8.38a6.64 6.64 0 0 0 2.9 2.93c1.44.84 3.38 1.26 5.83 1.26h2.9v2.38h-45.7v-2.38h2.9c2.54 0 4.58-.45 6.13-1.35a5.87 5.87 0 0 0 2.57-3.1c.48-1.03.71-3.74.71-8.12v-57.5c0-4.46-.23-7.25-.7-8.37a6.45 6.45 0 0 0-2.87-2.93c-1.44-.84-3.39-1.26-5.84-1.26h-2.9v-2.38h45.7v2.38h-2.9c-2.54 0-4.58.45-6.12 1.35a6.2 6.2 0 0 0-2.65 3.1c-.47 1.03-.7 3.74-.7 8.12v24.75h30.87v-24.75c0-4.47-.24-7.26-.71-8.38a6.44 6.44 0 0 0-2.9-2.93c-1.46-.84-3.42-1.26-5.87-1.26h-2.83v-2.38h45.63v2.38h-2.84c-2.57 0-4.61.45-6.12 1.35-1.12.6-2 1.64-2.64 3.1-.47 1.03-.71 3.74-.71 8.12v57.5c0 4.46.24 7.25.7 8.37a6.43 6.43 0 0 0 2.9 2.93c1.47.84 3.43 1.26 5.87 1.26h2.84v2.38h-45.63v-2.38h2.83c2.58 0 4.62-.45 6.13-1.35 1.11-.6 2-1.64 2.64-3.1.47-1.03.7-3.74.7-8.12v-27.07H632.3ZM268.72 473.63h-30.87l-3.67 8.5c-1.2 2.84-1.8 5.18-1.8 7.03 0 2.45.98 4.25 2.96 5.41 1.16.7 4.01 1.2 8.57 1.55v2.38h-29.07v-2.38a13 13 0 0 0 7.73-3.9c2.02-2.13 4.52-6.52 7.48-13.18l31.26-69.74h1.22l31.52 71.67c3.01 6.8 5.48 11.07 7.41 12.83 1.46 1.33 3.53 2.1 6.2 2.32v2.38h-42.29v-2.38h1.74c3.4 0 5.78-.47 7.16-1.42a3.44 3.44 0 0 0 1.41-2.96 7.9 7.9 0 0 0-.38-2.39c-.09-.38-.73-2-1.94-4.83l-4.64-10.9Zm-2.19-4.77-13.02-30.1-13.4 30.1h26.42Zm157.8-57.76v2.4c-3.18.5-6.02 2.2-8.51 5.08-1.8 2.15-4.5 7.2-8.06 15.15l-30.1 66.77h-2.12l-29.97-69.48c-3.61-8.38-6.03-13.3-7.26-14.76-1.22-1.46-3.53-2.38-6.92-2.77v-2.38h41.89v2.38h-1.42c-3.78 0-6.36.47-7.73 1.42a3.17 3.17 0 0 0-1.48 2.83c0 .78.17 1.7.51 2.74.34 1.06 1.5 3.88 3.48 8.48l18.63 43.5 17.27-38.73c2.06-4.68 3.33-7.82 3.8-9.41.48-1.59.71-2.94.71-4.06 0-1.29-.34-2.43-1.03-3.42a6.36 6.36 0 0 0-3.03-2.25c-1.84-.73-4.3-1.1-7.34-1.1v-2.38h28.68Zm38.19 62.53h-30.87l-3.67 8.5c-1.2 2.84-1.8 5.18-1.8 7.03 0 2.45.98 4.25 2.96 5.41 1.16.7 4.01 1.2 8.57 1.55v2.38h-29.07v-2.38a13 13 0 0 0 7.73-3.9c2.02-2.13 4.52-6.52 7.48-13.18l31.26-69.74h1.23l31.51 71.67c3.01 6.8 5.48 11.07 7.42 12.83 1.46 1.33 3.52 2.1 6.18 2.32v2.38h-42.28v-2.38h1.74c3.4 0 5.78-.47 7.16-1.42a3.44 3.44 0 0 0 1.41-2.96 7.9 7.9 0 0 0-.38-2.39c-.09-.38-.73-2-1.94-4.83l-4.64-10.9Zm-2.19-4.77-13.02-30.1-13.4 30.1h26.42Zm129.66-59.76v30.3h-2.52c-1.89-7.9-5.41-13.96-10.57-18.17a26.97 26.97 0 0 0-17.53-6.32 25.91 25.91 0 0 0-15.02 4.7 27.44 27.44 0 0 0-9.99 12.31c-2.7 6.5-4.06 13.71-4.06 21.66 0 7.82 1 14.94 2.97 21.37 1.97 6.42 5.07 11.28 9.28 14.56 4.2 3.3 9.67 4.93 16.37 4.93a32 32 0 0 0 15.11-3.6c4.58-2.41 9.4-6.56 14.47-12.44v7.54c-4.9 5.11-10 8.82-15.3 11.11-5.31 2.3-11.5 3.45-18.6 3.45-9.32 0-17.6-1.87-24.85-5.6A39.63 39.63 0 0 1 513 478.78a45 45 0 0 1-5.9-22.36c0-8.34 2.18-16.25 6.54-23.72 4.36-7.48 10.25-13.28 17.66-17.4s15.29-6.2 23.62-6.2c6.15 0 12.64 1.34 19.47 4 3.95 1.55 6.47 2.32 7.54 2.32a4.9 4.9 0 0 0 3.58-1.51c1-1 1.66-2.61 1.96-4.8H590Zm61.07 64.53H620.2l-3.67 8.5c-1.2 2.84-1.8 5.18-1.8 7.03 0 2.45.98 4.25 2.96 5.41 1.16.7 4.01 1.2 8.57 1.55v2.38h-29.07v-2.38a13 13 0 0 0 7.74-3.9c2.01-2.13 4.5-6.52 7.47-13.18l31.26-69.74h1.23l31.51 71.67c3.01 6.8 5.48 11.07 7.42 12.83 1.46 1.33 3.52 2.1 6.18 2.32v2.38h-42.28v-2.38h1.74c3.4 0 5.78-.47 7.16-1.42a3.44 3.44 0 0 0 1.41-2.96 7.9 7.9 0 0 0-.38-2.39c-.09-.38-.73-2-1.94-4.83l-4.64-10.9Zm-2.19-4.77-13.02-30.1-13.4 30.1h26.42ZM352.27 654.5v-2.38h2.9c2.53 0 4.48-.4 5.83-1.2a7.3 7.3 0 0 0 3-3.25c.39-.9.58-3.6.58-8.12v-57.49c0-4.47-.24-7.26-.71-8.38a6.45 6.45 0 0 0-2.87-2.93c-1.44-.84-3.38-1.26-5.83-1.26h-2.9v-2.38h39.12c10.44 0 18.84 1.41 25.2 4.25 7.78 3.48 13.68 8.74 17.7 15.8 4.01 7.04 6.02 15 6.02 23.9a47.4 47.4 0 0 1-2.96 16.99c-1.98 5.18-4.54 9.45-7.67 12.82a37.55 37.55 0 0 1-10.86 8.12c-4.1 2.05-9.12 3.62-15.05 4.74-2.63.52-6.75.77-12.38.77h-39.12Zm33.32-82.43v68.2c0 3.6.17 5.81.52 6.63.34.82.92 1.44 1.74 1.87 1.16.64 2.83.97 5.02.97 7.18 0 12.66-2.45 16.44-7.35 5.16-6.62 7.73-16.89 7.73-30.81 0-11.22-1.76-20.17-5.28-26.88-2.8-5.24-6.38-8.8-10.77-10.7-3.09-1.33-8.22-1.97-15.4-1.93Zm110.19-6.19c13.92-.51 25.23 3.55 33.93 12.18s13.06 19.45 13.06 32.42c0 11.09-3.25 20.84-9.74 29.26-8.59 11.18-20.73 16.76-36.41 16.76-15.73 0-27.89-5.32-36.48-15.98-6.8-8.42-10.19-18.41-10.19-29.97 0-12.98 4.42-23.8 13.25-32.45 8.83-8.66 19.69-12.73 32.58-12.22Zm.77 4.13c-7.99 0-14.07 4.08-18.24 12.24-3.4 6.7-5.09 16.33-5.09 28.88 0 14.9 2.62 25.93 7.86 33.06 3.66 4.99 8.77 7.48 15.34 7.48 4.43 0 8.13-1.07 11.1-3.22 3.77-2.75 6.71-7.15 8.82-13.18 2.1-6.04 3.16-13.92 3.16-23.63 0-11.55-1.08-20.2-3.22-25.94-2.15-5.74-4.9-9.78-8.22-12.15a19.38 19.38 0 0 0-11.5-3.54Z" fill="#bf9006"/></svg>
