<svg xmlns="http://www.w3.org/2000/svg" viewBox="0 0 900 900"><circle cx="450" cy="450" r="450" fill="#3db4e5"/><path d="M303.6 150.6v26.16h-2.16c-1.64-6.82-4.68-12.06-9.13-15.7a23.3 23.3 0 0 0-15.14-5.45c-4.72 0-9.04 1.36-12.97 4.07a23.7 23.7 0 0 0-8.63 10.63 48.13 48.13 0 0 0-3.5 18.7c0 6.76.85 12.9 2.55 18.45 1.71 5.55 4.38 9.74 8.02 12.58s8.35 4.26 14.14 4.26c4.75 0 9.1-1.04 13.05-3.12 3.95-2.07 8.12-5.65 12.5-10.74v6.51c-4.23 4.42-8.64 7.62-13.22 9.6-4.59 2-9.94 2.98-16.06 2.98-8.05 0-15.2-1.61-21.46-4.84a34.22 34.22 0 0 1-14.47-13.91 38.85 38.85 0 0 1-5.1-19.32c0-7.2 1.89-14.03 5.65-20.48 3.77-6.46 8.85-11.47 15.26-15.03s13.2-5.35 20.4-5.35c5.3 0 10.9 1.15 16.8 3.45 3.42 1.34 5.6 2 6.52 2 1.19 0 2.22-.43 3.09-1.3.87-.87 1.44-2.26 1.7-4.15h2.17Zm34.74 23.6c4.53 0 8.74 1.17 12.64 3.51s6.86 5.66 8.88 9.96a32.83 32.83 0 0 1 3.03 14.14c0 7.39-1.87 13.57-5.62 18.54-4.53 6.01-10.78 9.02-18.76 9.02-7.83 0-13.86-2.75-18.09-8.24a30.41 30.41 0 0 1-6.34-19.1c0-7.45 2.16-13.96 6.48-19.5 4.32-5.55 10.25-8.33 17.78-8.33Zm.23 3.96c-1.9 0-3.52.71-4.87 2.14-1.36 1.43-2.25 4.25-2.68 8.46-.42 4.21-.64 10.07-.64 17.56 0 3.97.26 7.68.78 11.14.41 2.63 1.28 4.63 2.62 6a6.2 6.2 0 0 0 4.56 2.07 6.3 6.3 0 0 0 4.18-1.4 9.35 9.35 0 0 0 2.9-5.28c.74-3.53 1.1-10.65 1.1-21.38 0-6.3-.35-10.64-1.05-13-.7-2.35-1.75-4.07-3.12-5.14a5.84 5.84 0 0 0-3.78-1.17Zm53.6-2.4v6.74c2.68-2.9 5.24-5 7.69-6.32a16.43 16.43 0 0 1 7.9-1.98c3.38 0 6.18.94 8.4 2.82a13.48 13.48 0 0 1 4.46 6.98c.6 2.12.89 6.18.89 12.2v20.25c0 4.01.36 6.5 1.08 7.49.73.98 2.24 1.6 4.54 1.86v2H400.8v-2c1.97-.25 3.38-1.07 4.23-2.44.6-.93.9-3.23.9-6.9V193.3c0-4.27-.17-6.96-.5-8.07s-.9-1.98-1.7-2.6-1.69-.91-2.65-.91c-3.2 0-6.16 2.28-8.9 6.85v27.88c0 3.9.36 6.37 1.08 7.4.72 1.05 2.07 1.7 4.04 1.95v2h-26.33v-2c2.19-.22 3.74-.92 4.67-2.11.63-.82.95-3.23.95-7.24v-29.39c0-3.93-.36-6.38-1.09-7.35-.72-.96-2.23-1.59-4.53-1.89v-2.06h21.2Zm84.73 38.64 1.72 1.33c-2.45 4.6-5.5 8.02-9.15 10.27a21.92 21.92 0 0 1-11.67 3.37c-6.93 0-12.48-2.62-16.64-7.85s-6.23-11.52-6.23-18.87c0-7.09 1.89-13.32 5.67-18.7 4.57-6.5 10.86-9.75 18.87-9.75 5.39 0 9.66 1.36 12.84 4.07 3.17 2.7 4.75 5.73 4.75 9.07a6.8 6.8 0 0 1-1.92 5.07 6.87 6.87 0 0 1-5.03 1.89c-2.2 0-4-.72-5.43-2.17-1.43-1.45-2.31-4.03-2.64-7.74-.23-2.34-.77-3.97-1.62-4.9a3.96 3.96 0 0 0-3-1.39c-1.79 0-3.3.95-4.57 2.84-1.93 2.86-2.9 7.24-2.9 13.14 0 4.9.79 9.58 2.34 14.05 1.56 4.47 3.7 7.8 6.4 10a11.4 11.4 0 0 0 7.24 2.39c1.82 0 3.55-.43 5.18-1.28 1.63-.86 3.56-2.47 5.79-4.85Zm29.84-38.64v11.8c3.45-5.38 6.47-8.95 9.07-10.71 2.6-1.76 5.1-2.65 7.51-2.65 2.08 0 3.74.64 4.99 1.92 1.24 1.28 1.86 3.1 1.86 5.43 0 2.49-.6 4.42-1.8 5.8a5.62 5.62 0 0 1-4.38 2.05 7.54 7.54 0 0 1-5.12-1.9 31.48 31.48 0 0 0-2.56-2.1c-.37-.23-.8-.34-1.28-.34-1.08 0-2.1.4-3.06 1.22a11.55 11.55 0 0 0-3.45 5.4 37.85 37.85 0 0 0-1.78 11.91v11.97l.05 3.12c0 2.12.13 3.47.4 4.06a4.4 4.4 0 0 0 1.97 2.2c.87.47 2.34.75 4.42.86v2h-28.1v-2c2.26-.18 3.79-.8 4.59-1.86.8-1.06 1.2-3.85 1.2-8.38v-28.78c0-2.96-.16-4.86-.45-5.67a4.48 4.48 0 0 0-1.62-2.29c-.7-.48-1.95-.81-3.73-1v-2.06h21.27Zm71.14 24.16h-28.56c.34 6.9 2.17 12.36 5.51 16.37 2.56 3.08 5.64 4.62 9.24 4.62 2.23 0 4.25-.62 6.07-1.87 1.82-1.24 3.77-3.48 5.85-6.7l1.89 1.22c-2.82 5.75-5.94 9.82-9.35 12.22a20.14 20.14 0 0 1-11.86 3.59c-7.72 0-13.56-2.97-17.53-8.9-3.2-4.8-4.8-10.73-4.8-17.82 0-8.69 2.36-15.6 7.05-20.74 4.7-5.14 10.2-7.7 16.5-7.7 5.27 0 9.85 2.16 13.73 6.48 3.87 4.32 5.96 10.73 6.26 19.23Zm-13.7-3.73c0-5.97-.32-10.07-.97-12.3s-1.66-3.92-3.03-5.07c-.78-.66-1.82-1-3.12-1-1.93 0-3.5.95-4.73 2.84-2.2 3.3-3.29 7.83-3.29 13.58v1.95h15.14Zm40.98-39.46v19.03h12.35v5.51h-12.35v32.12c0 3 .13 4.95.41 5.82.28.87.77 1.58 1.48 2.11.7.54 1.35.81 1.95.81 2.4 0 4.69-1.84 6.84-5.51l1.67 1.22c-3 7.13-7.88 10.7-14.64 10.7-3.3 0-6.1-.93-8.37-2.76s-3.74-3.89-4.37-6.15c-.38-1.27-.56-4.68-.56-10.25v-28.1h-6.8v-1.95a71.78 71.78 0 0 0 11.95-10.41 63.36 63.36 0 0 0 8.6-12.2h1.84Zm61.51 43.19H638.1c.34 6.9 2.17 12.36 5.51 16.37 2.56 3.08 5.64 4.62 9.24 4.62 2.23 0 4.25-.62 6.07-1.87 1.82-1.24 3.77-3.48 5.84-6.7l1.9 1.22c-2.82 5.75-5.94 9.82-9.35 12.22s-7.37 3.59-11.86 3.59c-7.72 0-13.56-2.97-17.54-8.9-3.19-4.8-4.78-10.73-4.78-17.82 0-8.69 2.34-15.6 7.04-20.74 4.7-5.14 10.2-7.7 16.5-7.7 5.27 0 9.85 2.16 13.73 6.48 3.87 4.32 5.96 10.73 6.26 19.23Zm-13.7-3.73c0-5.97-.32-10.07-.97-12.3-.65-2.23-1.66-3.92-3.03-5.07-.78-.66-1.82-1-3.12-1-1.93 0-3.5.95-4.73 2.84-2.2 3.3-3.29 7.83-3.29 13.58v1.95h15.14ZM323.73 310.76v53.89c0 5.04-.31 8.77-.94 11.18a15.19 15.19 0 0 1-5.54 8.4c-2.77 2.12-6.41 3.18-10.94 3.18-4.56 0-7.93-.93-10.1-2.78a8.56 8.56 0 0 1-3.26-6.74 6 6 0 0 1 1.7-4.25 5.29 5.29 0 0 1 3.98-1.81c1.4 0 2.52.41 3.34 1.25s1.22 2.09 1.22 3.76a31.71 31.71 0 0 1-.16 3.17c0 1.3.3 2.26.89 2.9a3 3 0 0 0 2.28.94c.85 0 1.58-.37 2.2-1.11.61-.75.92-1.8.92-3.18 0-.74-.12-2.24-.34-4.5-.37-4.12-.57-6.61-.61-7.46l-.17-13.2v-32.17l.06-2.9c0-2.33-.4-3.94-1.2-4.81-.8-.87-2.48-1.44-5.04-1.7v-2.06h21.71Zm-7.8-25.16c2.38 0 4.4.83 6.05 2.48a8.16 8.16 0 0 1 2.48 5.98c0 2.38-.84 4.4-2.5 6.07s-3.68 2.5-6.02 2.5-4.34-.83-6.01-2.5-2.5-3.7-2.5-6.07c0-2.33.82-4.33 2.47-5.98a8.22 8.22 0 0 1 6.04-2.48Zm72.37 25.16v40.75c0 3.97.38 6.45 1.12 7.43.74.98 2.24 1.6 4.5 1.86v2h-21.2v-6.95c-2.49 2.97-4.97 5.13-7.46 6.49a17.18 17.18 0 0 1-8.35 2.03c-2.93 0-5.54-.9-7.82-2.7s-3.81-3.9-4.6-6.32c-.77-2.41-1.16-6.62-1.16-12.64v-20.65c0-3.93-.36-6.38-1.09-7.35-.72-.96-2.23-1.59-4.53-1.89v-2.06h21.2v35.57c0 3.71.18 6.1.53 7.18.36 1.08.91 1.9 1.67 2.45s1.65.84 2.65.84c1.33 0 2.54-.36 3.62-1.06 1.48-.97 3.26-2.91 5.34-5.85v-27.83c0-3.93-.36-6.38-1.09-7.35-.72-.96-2.23-1.59-4.53-1.89v-2.06h21.2Zm34.52 0v6.74c2.67-2.9 5.23-5 7.68-6.32a16.43 16.43 0 0 1 7.9-1.98c3.38 0 6.18.94 8.41 2.82a13.48 13.48 0 0 1 4.45 6.98c.6 2.12.9 6.18.9 12.2v20.25c0 4.01.36 6.5 1.08 7.49.72.98 2.24 1.6 4.54 1.86v2h-26.33v-2c1.96-.25 3.37-1.07 4.23-2.44.6-.93.89-3.23.89-6.9V328.3c0-4.27-.17-6.96-.5-8.07s-.9-1.98-1.7-2.6-1.68-.91-2.64-.91c-3.2 0-6.16 2.28-8.91 6.85v27.88c0 3.9.36 6.37 1.09 7.4.72 1.05 2.06 1.7 4.03 1.95v2h-26.33v-2c2.2-.22 3.75-.92 4.68-2.11.63-.82.94-3.23.94-7.24v-29.39c0-3.93-.36-6.38-1.08-7.35-.73-.96-2.24-1.59-4.54-1.89v-2.06h21.21Zm75.65.62H516v6.12h-9.96a18.9 18.9 0 0 1 3.79 4.95c.89 2 1.33 4.1 1.33 6.3 0 3.7-1.03 6.92-3.09 9.65s-4.86 4.86-8.4 6.4c-3.55 1.54-6.7 2.31-9.44 2.31l-6.68-.28a5.8 5.8 0 0 0-4.2 1.65 5.27 5.27 0 0 0-1.7 3.92c0 1.34.51 2.43 1.53 3.28 1.02.86 2.68 1.28 4.98 1.28l9.63-.1c7.8 0 13.16.85 16.1 2.55 4.18 2.38 6.28 6.03 6.28 10.97 0 3.15-.96 6.02-2.9 8.6a16.97 16.97 0 0 1-7.62 5.7c-4.79 1.82-10.3 2.73-16.53 2.73a55.9 55.9 0 0 1-12.8-1.36c-3.86-.91-6.63-2.17-8.3-3.79s-2.5-3.3-2.5-5.09c0-1.7.64-3.24 1.92-4.6 1.28-1.35 3.66-2.49 7.15-3.42-4.82-2.37-7.24-5.67-7.24-9.9 0-2.56.99-5.05 2.95-7.46 1.97-2.41 5.09-4.51 9.36-6.3-4.98-1.81-8.58-4.2-10.8-7.17a16.7 16.7 0 0 1-3.34-10.3c0-5.09 2.07-9.5 6.23-13.22s9.5-5.6 16.03-5.6c3.45 0 7.02.73 10.69 2.17Zm-12.91 59.11c-3.79 0-6.3.32-7.52.95-2.11 1.15-3.17 2.7-3.17 4.67 0 1.9 1.1 3.61 3.28 5.15 2.2 1.54 6.31 2.31 12.36 2.31 5.16 0 9.21-.69 12.16-2.06 2.95-1.37 4.43-3.3 4.43-5.79 0-.93-.28-1.7-.84-2.34-1-1.1-2.51-1.87-4.53-2.28-2.03-.4-7.42-.61-16.17-.61Zm3.28-57.83c-2.15 0-3.97 1.08-5.46 3.25s-2.22 6.67-2.22 13.5c0 5.53.73 9.32 2.2 11.38 1.46 2.06 3.2 3.1 5.2 3.1 2.23 0 4.08-1.03 5.57-3.07 1.48-2.04 2.22-6.01 2.22-11.91 0-6.64-.83-11.17-2.5-13.58a5.68 5.68 0 0 0-5.01-2.67Zm53.72-25.33V352c0 3.67.43 6.02 1.28 7.04.85 1.02 2.52 1.6 5 1.75v2h-28.1v-2c2.3-.07 4-.74 5.12-2 .74-.85 1.11-3.12 1.11-6.79v-53.88c0-3.64-.42-5.97-1.28-6.99-.85-1.02-2.5-1.6-4.95-1.75v-2.06h21.82Zm55.5 47.59H569.5c.34 6.9 2.17 12.36 5.51 16.37 2.56 3.08 5.64 4.62 9.24 4.62 2.23 0 4.25-.62 6.07-1.87 1.82-1.24 3.77-3.48 5.85-6.7l1.89 1.22c-2.82 5.75-5.94 9.82-9.35 12.22a20.14 20.14 0 0 1-11.86 3.59c-7.72 0-13.56-2.97-17.53-8.9-3.2-4.8-4.8-10.73-4.8-17.82 0-8.69 2.36-15.6 7.05-20.74 4.7-5.14 10.2-7.7 16.5-7.7 5.27 0 9.85 2.16 13.73 6.48 3.87 4.32 5.96 10.73 6.26 19.23Zm-13.7-3.73c0-5.97-.32-10.07-.97-12.3s-1.66-3.91-3.03-5.07c-.78-.66-1.82-1-3.12-1-1.93 0-3.5.95-4.73 2.84-2.2 3.3-3.29 7.83-3.29 13.58v1.95h15.15ZM355.9 499.37l-14.24-38.19-13.97 38.19h-2.9l-13.86-37.74c-2.08-5.75-3.84-9.5-5.29-11.25a7.78 7.78 0 0 0-4.23-2.56v-2.06h26.28v2.06c-1.78 0-3.01.26-3.68.78-.67.52-1 1.11-1 1.78 0 .63.6 2.53 1.78 5.68l7.63 20.32 7.35-20.32-.56-1.34c-1.11-2.78-2.09-4.55-2.92-5.31-.84-.76-2.13-1.29-3.87-1.59v-2.06h26.66v2.06c-2.08.11-3.4.4-3.95.87s-.84 1.12-.84 1.97c0 .82.54 2.62 1.62 5.4l7.35 20.32 6.68-18.7c.96-2.68 1.44-4.5 1.44-5.46 0-1.45-.35-2.5-1.05-3.17-.71-.67-2.08-1.08-4.12-1.23v-2.06h15.42v2.06a6.95 6.95 0 0 0-4.07 1.81c-1 .99-2.3 3.78-3.9 8.38l-14.58 41.36h-3.17Zm52.11-77.04v30.11c2.86-3 5.48-5.13 7.85-6.37a15.78 15.78 0 0 1 7.4-1.87 13 13 0 0 1 8.38 2.79 13.29 13.29 0 0 1 4.62 6.54c.76 2.5 1.14 6.72 1.14 12.66v20.32c0 3.97.37 6.45 1.12 7.43.74.98 2.24 1.6 4.5 1.86v2h-26.38v-2c1.86-.25 3.25-1 4.17-2.22.67-.97 1-3.32 1-7.07V463.3c0-4.3-.16-7-.5-8.1a4.95 4.95 0 0 0-1.7-2.56 4.32 4.32 0 0 0-2.7-.92c-1.48 0-2.92.51-4.33 1.53s-2.94 2.81-4.57 5.37v27.89c0 3.71.28 6.03.84 6.96.7 1.26 2.15 2.04 4.34 2.33v2H386.8v-2c2.2-.22 3.75-.92 4.68-2.11.63-.82.95-3.2.95-7.18v-52.88c0-3.93-.37-6.38-1.09-7.35-.72-.96-2.24-1.6-4.54-1.9v-2.05h21.21Zm86.34 47.59h-28.56c.34 6.9 2.17 12.36 5.51 16.37 2.57 3.08 5.65 4.62 9.24 4.62 2.23 0 4.25-.62 6.07-1.87 1.82-1.24 3.77-3.48 5.85-6.7l1.89 1.22c-2.82 5.75-5.94 9.82-9.35 12.22a20.14 20.14 0 0 1-11.86 3.59c-7.72 0-13.56-2.97-17.53-8.9-3.2-4.8-4.79-10.73-4.79-17.82 0-8.69 2.35-15.6 7.04-20.74 4.7-5.14 10.2-7.7 16.5-7.7 5.28 0 9.85 2.16 13.73 6.48 3.87 4.32 5.96 10.73 6.26 19.23Zm-13.7-3.73c0-5.97-.32-10.07-.97-12.3-.65-2.23-1.66-3.92-3.03-5.07-.78-.66-1.82-1-3.12-1-1.93 0-3.5.95-4.73 2.84-2.19 3.3-3.28 7.83-3.28 13.58v1.95h15.14Zm41.92-20.43v11.8c3.46-5.38 6.48-8.95 9.08-10.71 2.6-1.76 5.1-2.65 7.51-2.65 2.08 0 3.74.64 4.98 1.92 1.25 1.28 1.87 3.1 1.87 5.43 0 2.49-.6 4.42-1.81 5.8a5.62 5.62 0 0 1-4.37 2.05 7.54 7.54 0 0 1-5.12-1.9 31.67 31.67 0 0 0-2.56-2.1c-.37-.23-.8-.34-1.28-.34-1.08 0-2.1.4-3.06 1.22a11.54 11.54 0 0 0-3.45 5.4 37.82 37.82 0 0 0-1.79 11.91v11.97l.06 3.12c0 2.12.13 3.47.39 4.06a4.4 4.4 0 0 0 1.97 2.2c.88.47 2.35.75 4.43.86v2h-28.11v-2c2.26-.18 3.8-.8 4.6-1.86.79-1.06 1.19-3.85 1.19-8.38v-28.78c0-2.96-.15-4.86-.45-5.67a4.5 4.5 0 0 0-1.61-2.29c-.7-.48-1.95-.81-3.73-1v-2.06h21.26Zm71.15 24.16h-28.56c.33 6.9 2.17 12.36 5.51 16.37 2.56 3.08 5.64 4.62 9.24 4.62 2.23 0 4.25-.62 6.07-1.87 1.82-1.24 3.76-3.48 5.84-6.7l1.9 1.22c-2.83 5.75-5.94 9.82-9.36 12.22a20.15 20.15 0 0 1-11.85 3.59c-7.72 0-13.57-2.97-17.54-8.9-3.19-4.8-4.78-10.73-4.78-17.82 0-8.69 2.34-15.6 7.04-20.74s10.2-7.7 16.5-7.7c5.27 0 9.85 2.16 13.72 6.48s5.97 10.73 6.27 19.23Zm-13.7-3.73c0-5.97-.32-10.07-.97-12.3s-1.66-3.92-3.04-5.07c-.77-.66-1.81-1-3.11-1-1.93 0-3.5.95-4.73 2.84-2.2 3.3-3.29 7.83-3.29 13.58v1.95h15.14Zm-328.29 91.14v59.9c0 4.04.1 6.43.33 7.17.3 1.23.86 2.14 1.7 2.73.83.6 2.29.97 4.37 1.11v1.84l-21.99 4.29v-8.24c-2.63 3.2-4.98 5.36-7.04 6.51s-4.39 1.73-6.99 1.73c-6.64 0-11.89-2.97-15.75-8.9-3.12-4.83-4.67-10.75-4.67-17.77 0-5.6.96-10.62 2.89-15.05 1.93-4.44 4.57-7.79 7.93-10.05a19.02 19.02 0 0 1 10.83-3.4c2.48 0 4.7.49 6.62 1.45 1.93.97 4 2.65 6.18 5.07v-15.7c0-3.97-.17-6.36-.5-7.18a4.78 4.78 0 0 0-2-2.4c-.9-.51-2.56-.77-5.01-.77v-2.34h23.1Zm-15.59 35.29c-2.75-5.27-6.1-7.9-10.07-7.9a5.2 5.2 0 0 0-3.4 1.1c-1.37 1.16-2.5 3.18-3.37 6.08s-1.3 7.32-1.3 13.3c0 6.57.48 11.43 1.44 14.58.97 3.16 2.28 5.44 3.95 6.85a5.4 5.4 0 0 0 3.51 1.06c3.27 0 6.35-2.56 9.24-7.68v-27.4Zm50.1-11.86v11.8c3.45-5.38 6.48-8.95 9.07-10.71 2.6-1.76 5.1-2.65 7.52-2.65 2.08 0 3.74.64 4.98 1.92 1.24 1.28 1.87 3.1 1.87 5.43 0 2.49-.6 4.42-1.81 5.8a5.62 5.62 0 0 1-4.37 2.05 7.54 7.54 0 0 1-5.12-1.9 31.48 31.48 0 0 0-2.56-2.1 2.4 2.4 0 0 0-1.28-.34c-1.08 0-2.1.4-3.07 1.22a11.55 11.55 0 0 0-3.45 5.4 37.85 37.85 0 0 0-1.78 11.91v11.97l.06 3.12c0 2.12.13 3.47.39 4.06a4.4 4.4 0 0 0 1.97 2.2c.87.47 2.35.75 4.43.86v2h-28.11v-2c2.26-.18 3.8-.8 4.59-1.86.8-1.06 1.2-3.85 1.2-8.38v-28.78c0-2.96-.15-4.86-.45-5.67a4.48 4.48 0 0 0-1.61-2.29c-.7-.48-1.95-.81-3.73-1v-2.06h21.26Zm71.14 24.16h-28.55c.33 6.9 2.17 12.36 5.5 16.37 2.57 3.08 5.65 4.62 9.25 4.62 2.22 0 4.25-.62 6.07-1.87 1.81-1.24 3.76-3.48 5.84-6.7l1.9 1.22c-2.83 5.75-5.94 9.82-9.36 12.22a20.14 20.14 0 0 1-11.86 3.59c-7.71 0-13.56-2.97-17.53-8.9-3.2-4.8-4.79-10.73-4.79-17.82 0-8.69 2.35-15.6 7.05-20.74 4.69-5.14 10.2-7.7 16.5-7.7 5.27 0 9.84 2.16 13.72 6.48 3.88 4.32 5.97 10.73 6.26 19.23Zm-13.7-3.73c0-5.97-.32-10.07-.96-12.3a10.1 10.1 0 0 0-3.04-5.07c-.78-.66-1.82-1-3.12-1-1.93 0-3.5.95-4.73 2.84-2.19 3.3-3.28 7.83-3.28 13.58v1.95h15.14Zm49.05 23.94c-6.34 5.6-12.04 8.4-17.09 8.4-2.97 0-5.43-.97-7.4-2.92a9.87 9.87 0 0 1-2.95-7.32c0-3.97 1.7-7.54 5.12-10.72 3.41-3.17 10.86-7.39 22.32-12.66v-5.23c0-3.93-.21-6.41-.64-7.43s-1.23-1.91-2.42-2.67a7.28 7.28 0 0 0-4-1.15c-2.42 0-4.4.54-5.96 1.62-.97.67-1.45 1.45-1.45 2.34 0 .78.52 1.74 1.56 2.9 1.4 1.59 2.11 3.13 2.11 4.61 0 1.82-.67 3.37-2.03 4.65a7.42 7.42 0 0 1-5.31 1.92c-2.34 0-4.3-.7-5.88-2.12a6.46 6.46 0 0 1-2.36-4.95c0-2.67 1.06-5.22 3.17-7.65 2.12-2.43 5.07-4.3 8.85-5.6a36.1 36.1 0 0 1 11.8-1.95c4.94 0 8.84 1.05 11.72 3.15s4.74 4.37 5.6 6.82c.51 1.56.77 5.14.77 10.74v20.2c0 2.38.1 3.88.28 4.49.19.61.46 1.07.84 1.36.37.3.8.45 1.28.45.96 0 1.94-.69 2.95-2.06l1.67 1.33c-1.86 2.75-3.78 4.74-5.77 5.99a12.49 12.49 0 0 1-6.76 1.86c-2.97 0-5.29-.7-6.96-2.08-1.67-1.4-2.69-3.5-3.06-6.32Zm0-4.07v-17.42c-4.49 2.64-7.83 5.46-10.02 8.46a10.3 10.3 0 0 0-2.17 6.07c0 1.7.61 3.2 1.84 4.5a5.03 5.03 0 0 0 3.9 1.51c1.85 0 4-1.04 6.45-3.12Zm49.99-40.3v6.85c2.86-3.12 5.5-5.3 7.93-6.54a17.3 17.3 0 0 1 8-1.87c3.33 0 6.13.78 8.4 2.34 2.26 1.56 4 3.94 5.23 7.13 2.97-3.34 5.82-5.75 8.54-7.24a17.65 17.65 0 0 1 8.55-2.23c3.6 0 6.46.83 8.6 2.48s3.62 3.75 4.45 6.3c.84 2.53 1.25 6.59 1.25 12.15v21.32c0 4.01.36 6.5 1.09 7.46.72.97 2.23 1.6 4.54 1.9v2h-26.9v-2c2.12-.2 3.67-1 4.68-2.45.66-1 1-3.3 1-6.9v-22.38c0-4.64-.19-7.6-.56-8.85a5.3 5.3 0 0 0-1.75-2.82 4.5 4.5 0 0 0-2.81-.91 8.3 8.3 0 0 0-4.85 1.75 22.4 22.4 0 0 0-4.95 5.26v27.94c0 3.75.31 6.1.95 7.07.85 1.38 2.48 2.14 4.9 2.28v2h-26.95v-2a5.95 5.95 0 0 0 3.43-1.08 4.66 4.66 0 0 0 1.67-2.34c.27-.9.41-2.88.41-5.93v-22.37c0-4.72-.18-7.67-.55-8.85-.37-1.2-1-2.12-1.87-2.79s-1.8-1-2.8-1c-1.5 0-2.85.39-4.07 1.17-1.75 1.15-3.6 3.12-5.57 5.9v27.94c0 3.68.36 6.1 1.09 7.27.72 1.17 2.23 1.86 4.53 2.08v2H421.5v-2c2.2-.22 3.75-.92 4.68-2.11.63-.82.95-3.23.95-7.24v-29.39c0-3.93-.37-6.38-1.09-7.35-.72-.96-2.24-1.59-4.54-1.89v-2.06h21.21Zm106.38-1.44.83 17.75h-1.89c-2.26-5.27-4.61-8.87-7.04-10.8-2.43-1.93-4.85-2.9-7.27-2.9-1.52 0-2.82.52-3.9 1.54s-1.6 2.2-1.6 3.53c0 1 .36 1.97 1.1 2.9 1.2 1.52 4.52 4.13 9.97 7.82s9.05 6.83 10.77 9.4a15.22 15.22 0 0 1 2.59 8.66c0 2.9-.72 5.74-2.17 8.52s-3.49 4.92-6.12 6.4-5.55 2.23-8.74 2.23c-2.49 0-5.81-.78-9.97-2.34a8.3 8.3 0 0 0-2.28-.61c-1.22 0-2.24.92-3.06 2.78h-1.84l-.89-18.7h1.9c1.66 4.9 3.96 8.57 6.87 11.02 2.91 2.45 5.67 3.67 8.27 3.67 1.78 0 3.23-.54 4.37-1.64a5.34 5.34 0 0 0 1.7-3.98c0-1.78-.56-3.32-1.68-4.62-1.11-1.3-3.6-3.26-7.46-5.9-5.67-3.93-9.35-6.94-11.02-9.02a15.7 15.7 0 0 1-3.67-10.07c0-4.01 1.38-7.64 4.15-10.89 2.76-3.24 6.76-4.87 12-4.87 2.81 0 5.54.7 8.17 2.06 1 .56 1.82.84 2.45.84.67 0 1.2-.14 1.62-.42.4-.28 1.05-1.06 1.95-2.36h1.89Zm73.6 2.06h17.53v6.12h-9.97a18.95 18.95 0 0 1 3.79 4.95c.89 2 1.33 4.1 1.33 6.3 0 3.7-1.03 6.92-3.09 9.65a20.5 20.5 0 0 1-8.4 6.4c-3.55 1.54-6.7 2.31-9.44 2.31l-6.68-.28c-1.67 0-3.07.55-4.2 1.64a5.27 5.27 0 0 0-1.7 3.93c0 1.34.51 2.43 1.53 3.28 1.02.86 2.68 1.28 4.99 1.28l9.63-.1c7.79 0 13.15.85 16.08 2.55 4.2 2.38 6.3 6.03 6.3 10.97 0 3.15-.97 6.02-2.9 8.6a16.98 16.98 0 0 1-7.63 5.7c-4.79 1.82-10.3 2.73-16.53 2.73-4.68 0-8.94-.45-12.8-1.36-3.86-.91-6.63-2.17-8.3-3.79-1.67-1.61-2.5-3.3-2.5-5.09 0-1.7.64-3.24 1.92-4.6 1.28-1.35 3.66-2.49 7.15-3.42-4.82-2.37-7.23-5.67-7.23-9.9 0-2.56.98-5.05 2.95-7.46 1.96-2.42 5.08-4.51 9.35-6.3-4.98-1.81-8.58-4.2-10.8-7.17a16.7 16.7 0 0 1-3.34-10.3c0-5.09 2.08-9.5 6.23-13.22 4.16-3.73 9.5-5.6 16.03-5.6 3.46 0 7.02.73 10.7 2.17Zm-12.92 59.11c-3.79 0-6.3.31-7.52.95-2.11 1.15-3.17 2.7-3.17 4.67 0 1.9 1.1 3.61 3.28 5.15 2.2 1.54 6.31 2.31 12.36 2.31 5.16 0 9.21-.69 12.16-2.06 2.95-1.37 4.43-3.3 4.43-5.79 0-.93-.28-1.7-.84-2.34-1-1.1-2.51-1.87-4.53-2.28-2.03-.4-7.42-.61-16.17-.61Zm3.28-57.83c-2.15 0-3.97 1.08-5.45 3.25-1.49 2.17-2.23 6.67-2.23 13.5 0 5.53.73 9.32 2.2 11.38 1.46 2.06 3.2 3.1 5.2 3.1 2.23 0 4.08-1.03 5.57-3.07 1.48-2.04 2.23-6.01 2.23-11.91 0-6.64-.84-11.17-2.5-13.58a5.69 5.69 0 0 0-5.02-2.67Zm57.9-3.46c4.52 0 8.73 1.17 12.63 3.51s6.86 5.66 8.88 9.96a32.83 32.83 0 0 1 3.03 14.14c0 7.39-1.87 13.57-5.62 18.54-4.53 6.01-10.78 9.02-18.76 9.02-7.83 0-13.86-2.75-18.09-8.24a30.41 30.41 0 0 1-6.34-19.1c0-7.45 2.16-13.96 6.48-19.5 4.32-5.55 10.25-8.33 17.79-8.33Zm.22 3.96c-1.9 0-3.52.71-4.87 2.14-1.36 1.43-2.25 4.25-2.68 8.46-.42 4.21-.63 10.07-.63 17.56 0 3.97.25 7.68.77 11.14.41 2.63 1.28 4.63 2.62 6a6.2 6.2 0 0 0 4.57 2.07 6.3 6.3 0 0 0 4.17-1.4 9.35 9.35 0 0 0 2.9-5.28c.74-3.53 1.1-10.65 1.1-21.38 0-6.3-.35-10.64-1.05-13-.7-2.35-1.74-4.07-3.12-5.14a5.84 5.84 0 0 0-3.78-1.17ZM338.07 696.73v19.03h12.35v5.51h-12.35v32.12c0 3 .14 4.95.41 5.82s.77 1.58 1.48 2.11c.7.54 1.35.81 1.95.81 2.4 0 4.7-1.84 6.84-5.51l1.67 1.22c-3 7.13-7.88 10.7-14.64 10.7-3.3 0-6.1-.93-8.37-2.76-2.29-1.84-3.74-3.89-4.37-6.15-.37-1.26-.56-4.68-.56-10.25v-28.1h-6.79v-1.95a71.78 71.78 0 0 0 11.94-10.41 63.4 63.4 0 0 0 8.6-12.2h1.84Zm41.97 17.47c4.53 0 8.74 1.17 12.63 3.51s6.86 5.66 8.88 9.96a32.85 32.85 0 0 1 3.04 14.14c0 7.39-1.88 13.57-5.63 18.54-4.52 6.01-10.78 9.02-18.75 9.02-7.83 0-13.86-2.75-18.1-8.24a30.41 30.41 0 0 1-6.34-19.1c0-7.45 2.16-13.96 6.48-19.5 4.33-5.55 10.26-8.33 17.79-8.33Zm.22 3.96c-1.9 0-3.51.71-4.87 2.14-1.35 1.43-2.24 4.25-2.67 8.46-.43 4.21-.64 10.07-.64 17.56 0 3.97.26 7.68.78 11.14.4 2.63 1.28 4.63 2.61 6a6.21 6.21 0 0 0 4.57 2.07 6.3 6.3 0 0 0 4.17-1.4 9.35 9.35 0 0 0 2.9-5.28c.74-3.53 1.11-10.65 1.11-21.38 0-6.3-.35-10.64-1.06-13s-1.74-4.07-3.11-5.14a5.84 5.84 0 0 0-3.79-1.17Zm111.56-25.83v59.9c0 4.04.11 6.43.33 7.17.3 1.23.86 2.14 1.7 2.73.83.6 2.3.97 4.37 1.11v1.84l-21.99 4.29v-8.24c-2.63 3.2-4.98 5.36-7.04 6.51s-4.39 1.73-6.98 1.73c-6.65 0-11.9-2.97-15.76-8.9-3.12-4.83-4.67-10.75-4.67-17.77 0-5.6.96-10.62 2.9-15.05 1.92-4.44 4.56-7.79 7.92-10.05a19.02 19.02 0 0 1 10.83-3.4c2.48 0 4.7.49 6.62 1.45 1.93.97 4 2.65 6.18 5.07v-15.7c0-3.97-.16-6.36-.5-7.18a4.78 4.78 0 0 0-2-2.4c-.9-.51-2.56-.77-5.01-.77v-2.34h23.1Zm-15.59 35.29c-2.74-5.27-6.1-7.9-10.07-7.9a5.2 5.2 0 0 0-3.4 1.1c-1.37 1.16-2.5 3.18-3.37 6.08s-1.3 7.32-1.3 13.3c0 6.57.48 11.43 1.44 14.58.97 3.16 2.29 5.44 3.96 6.85.85.7 2.02 1.06 3.5 1.06 3.27 0 6.35-2.56 9.24-7.68v-27.4Zm48.82-11.86v41.25c0 3.67.43 6.02 1.28 7.04.86 1.02 2.53 1.6 5.01 1.75v2h-28.1v-2c2.3-.07 4-.74 5.11-2 .74-.85 1.12-3.12 1.12-6.79v-30.4c0-3.67-.43-6.01-1.28-7.03-.86-1.02-2.5-1.6-4.96-1.76v-2.06h21.82Zm-7.79-25.21c2.41 0 4.45.84 6.12 2.53s2.5 3.72 2.5 6.1-.84 4.4-2.53 6.06-3.72 2.5-6.09 2.5c-2.38 0-4.4-.83-6.07-2.5s-2.5-3.69-2.5-6.07.83-4.4 2.5-6.09 3.7-2.53 6.07-2.53Zm63.34 49.37h-28.55c.34 6.9 2.17 12.36 5.51 16.37 2.56 3.08 5.64 4.62 9.24 4.62 2.23 0 4.25-.62 6.07-1.87 1.82-1.24 3.77-3.48 5.84-6.7l1.9 1.22c-2.82 5.75-5.94 9.82-9.35 12.22a20.14 20.14 0 0 1-11.86 3.59c-7.72 0-13.56-2.97-17.53-8.9-3.2-4.8-4.8-10.73-4.8-17.82 0-8.69 2.35-15.6 7.05-20.74 4.7-5.14 10.2-7.7 16.5-7.7 5.27 0 9.85 2.16 13.73 6.48 3.87 4.32 5.96 10.73 6.26 19.23Zm-13.69-3.73c0-5.97-.32-10.07-.97-12.3-.65-2.23-1.66-3.92-3.03-5.07-.78-.66-1.82-1-3.12-1-1.93 0-3.5.95-4.73 2.84-2.2 3.3-3.29 7.83-3.29 13.58v1.95h15.14Z" fill="#fff"/></svg>
