<svg xmlns="http://www.w3.org/2000/svg" viewBox="0 0 900 900"><circle cx="450" cy="450" r="450" fill="#da262e"/><path d="M261.52 509.74v3.07h-58.85v-3.07h3.73c3.27 0 5.9-.58 7.89-1.75a7.56 7.56 0 0 0 3.32-3.98c.6-1.33.91-4.81.91-10.46v-74.04c0-5.76-.3-9.35-.91-10.8-.61-1.43-1.84-2.7-3.7-3.77-1.85-1.08-4.35-1.62-7.5-1.62h-3.74v-3.07h58.85v3.07h-3.74c-3.26 0-5.89.58-7.88 1.74a7.94 7.94 0 0 0-3.4 3.99c-.62 1.33-.92 4.81-.92 10.46v74.04c0 5.76.32 9.35.96 10.8.63 1.43 1.88 2.69 3.73 3.77s4.36 1.62 7.51 1.62h3.74Zm40.59-102.94v28.4h18.43v8.21h-18.43v47.9c0 4.48.21 7.37.63 8.67a6.25 6.25 0 0 0 2.2 3.16c1.05.8 2.01 1.2 2.9 1.2 3.6 0 7-2.74 10.21-8.22l2.5 1.83c-4.5 10.63-11.77 15.94-21.84 15.94-4.93 0-9.09-1.37-12.5-4.11-3.4-2.74-5.57-5.8-6.5-9.17-.56-1.88-.84-6.98-.84-15.28v-41.92h-10.13v-2.9a106.83 106.83 0 0 0 17.8-15.52 94.47 94.47 0 0 0 12.83-18.18h2.74Zm57.69-6.55v44.9c4.27-4.48 8.17-7.64 11.71-9.5a23.51 23.51 0 0 1 11.04-2.78c4.87 0 9.03 1.39 12.5 4.15 3.45 2.77 5.75 6.02 6.88 9.76 1.14 3.73 1.7 10.03 1.7 18.88v30.3c0 5.92.56 9.61 1.67 11.08 1.1 1.47 3.34 2.4 6.72 2.78v2.99h-39.35v-2.99c2.77-.39 4.85-1.5 6.23-3.32 1-1.44 1.5-4.95 1.5-10.54v-34.62c0-6.42-.26-10.44-.75-12.07a7.37 7.37 0 0 0-2.53-3.82 6.45 6.45 0 0 0-4.03-1.37c-2.22 0-4.37.76-6.48 2.28-2.1 1.52-4.37 4.2-6.8 8.01v41.59c0 5.53.41 9 1.24 10.37 1.05 1.89 3.21 3.05 6.48 3.49v2.99h-39.35v-2.99c3.27-.33 5.59-1.38 6.97-3.15.94-1.22 1.42-4.79 1.42-10.71V417.1c0-5.86-.54-9.52-1.62-10.96-1.08-1.43-3.34-2.38-6.77-2.82v-3.07h31.63Zm93.31 34.95v61.5c0 5.48.64 8.98 1.91 10.5 1.27 1.53 3.76 2.4 7.47 2.62v2.99h-41.92v-2.99c3.43-.11 5.98-1.1 7.64-2.99 1.1-1.27 1.66-4.65 1.66-10.12v-45.33c0-5.48-.64-8.98-1.9-10.5-1.28-1.52-3.74-2.4-7.4-2.61v-3.07h32.54Zm-11.62-37.6c3.6 0 6.64 1.25 9.13 3.77 2.5 2.52 3.74 5.55 3.74 9.09s-1.26 6.56-3.78 9.05c-2.52 2.49-5.55 3.73-9.09 3.73s-6.56-1.24-9.05-3.73-3.73-5.5-3.73-9.05 1.24-6.57 3.73-9.09a12.26 12.26 0 0 1 9.05-3.78Zm92.06 95.2 2.57 2c-3.65 6.86-8.2 11.96-13.65 15.31a32.68 32.68 0 0 1-17.4 5.02c-10.34 0-18.61-3.9-24.81-11.7-6.2-7.8-9.3-17.18-9.3-28.14 0-10.57 2.83-19.87 8.47-27.9 6.8-9.68 16.19-14.52 28.14-14.52 8.02 0 14.4 2.02 19.13 6.06 4.73 4.04 7.1 8.55 7.1 13.53 0 3.16-.95 5.67-2.86 7.56-1.91 1.88-4.42 2.82-7.52 2.82a10.9 10.9 0 0 1-8.09-3.24c-2.13-2.16-3.44-6-3.94-11.54-.33-3.48-1.14-5.92-2.41-7.3a5.91 5.91 0 0 0-4.48-2.08c-2.66 0-4.93 1.41-6.8 4.24-2.89 4.26-4.32 10.79-4.32 19.59 0 7.3 1.16 14.29 3.48 20.96 2.33 6.66 5.5 11.63 9.55 14.9a17 17 0 0 0 10.79 3.56c2.7 0 5.28-.63 7.72-1.9 2.43-1.28 5.31-3.68 8.63-7.23Zm75.62 0 2.58 2c-3.65 6.86-8.2 11.96-13.66 15.31a32.68 32.68 0 0 1-17.39 5.02c-10.35 0-18.62-3.9-24.82-11.7-6.2-7.8-9.3-17.18-9.3-28.14 0-10.57 2.83-19.87 8.47-27.9 6.81-9.68 16.19-14.52 28.14-14.52 8.03 0 14.4 2.02 19.14 6.06 4.73 4.04 7.1 8.55 7.1 13.53 0 3.16-.96 5.67-2.87 7.56-1.9 1.88-4.41 2.82-7.51 2.82a10.9 10.9 0 0 1-8.1-3.24c-2.13-2.16-3.44-6-3.94-11.54-.33-3.48-1.13-5.92-2.4-7.3a5.91 5.91 0 0 0-4.49-2.08c-2.65 0-4.92 1.41-6.8 4.24-2.88 4.26-4.32 10.79-4.32 19.59a63.1 63.1 0 0 0 3.49 20.96c2.32 6.66 5.5 11.63 9.54 14.9a17 17 0 0 0 10.8 3.56c2.7 0 5.28-.63 7.71-1.9 2.44-1.28 5.31-3.68 8.63-7.23Zm55.13 8.55c-9.47 8.36-17.96 12.54-25.49 12.54-4.43 0-8.1-1.45-11.04-4.36a14.73 14.73 0 0 1-4.4-10.92c0-5.92 2.55-11.24 7.64-15.97 5.1-4.74 16.19-11.03 33.29-18.89v-7.8c0-5.87-.32-9.56-.96-11.08a8.94 8.94 0 0 0-3.6-3.99 10.85 10.85 0 0 0-5.99-1.7c-3.6 0-6.55.8-8.88 2.4-1.44 1-2.16 2.17-2.16 3.5 0 1.16.78 2.6 2.33 4.31 2.1 2.38 3.15 4.68 3.15 6.89a9.19 9.19 0 0 1-3.03 6.93c-2.02 1.91-4.66 2.87-7.92 2.87-3.5 0-6.41-1.06-8.76-3.16-2.35-2.1-3.53-4.56-3.53-7.39 0-3.98 1.58-7.79 4.73-11.41 3.16-3.62 7.56-6.4 13.2-8.34a53.85 53.85 0 0 1 17.6-2.9c7.36 0 13.18 1.56 17.47 4.68 4.29 3.13 7.07 6.52 8.34 10.17.78 2.32 1.17 7.67 1.17 16.02v30.13c0 3.54.13 5.77.41 6.68a4 4 0 0 0 1.25 2.04c.55.44 1.18.66 1.9.66 1.44 0 2.91-1.02 4.4-3.07l2.5 2c-2.77 4.09-5.64 7.06-8.6 8.92a18.6 18.6 0 0 1-10.08 2.78c-4.43 0-7.89-1.04-10.38-3.12s-4.01-5.21-4.56-9.42Zm0-6.06v-25.98c-6.7 3.93-11.68 8.14-14.95 12.62-2.15 2.99-3.23 6-3.23 9.05a9.5 9.5 0 0 0 2.74 6.72c1.38 1.5 3.32 2.24 5.8 2.24 2.77 0 5.98-1.55 9.64-4.65Z" fill="#fff"/></svg>
