<svg xmlns="http://www.w3.org/2000/svg" viewBox="0 0 900 900"><circle cx="450" cy="450" r="450" fill="#00964e"/><g fill="#fff"><path d="M265.1 181.95v31h2.17c3.34 0 6.07-.5 8.19-1.5s3.9-2.7 5.37-5.07c1.46-2.37 2.42-5.58 2.86-9.63h1.95v37.91h-1.95c-.7-7.16-2.62-11.88-5.76-14.17a17.66 17.66 0 0 0-10.66-3.42h-2.17v23.1c0 3.86.22 6.27.64 7.24.43.96 1.26 1.8 2.5 2.53 1.25.72 2.93 1.09 5.05 1.09h2.5v2.05h-39.47v-2.05h2.51c2.19 0 3.95-.4 5.29-1.17a5.07 5.07 0 0 0 2.22-2.68c.41-.89.62-3.22.62-7v-49.66c0-3.86-.2-6.27-.62-7.24a5.58 5.58 0 0 0-2.47-2.53c-1.25-.72-2.93-1.09-5.04-1.09h-2.5v-2.06H300v21.66h-2.28c-.52-5.09-1.84-8.85-3.98-11.3-2.13-2.45-5.22-4.18-9.27-5.18-2.22-.56-6.34-.83-12.35-.83h-7.02Zm64.4 17.53c4.54 0 8.75 1.17 12.64 3.5s6.86 5.67 8.88 9.97a32.84 32.84 0 0 1 3.04 14.14c0 7.39-1.88 13.56-5.63 18.54-4.52 6-10.78 9.01-18.75 9.01-7.83 0-13.86-2.74-18.1-8.23a30.41 30.41 0 0 1-6.34-19.1c0-7.46 2.16-13.96 6.48-19.5 4.33-5.56 10.26-8.33 17.79-8.33Zm.23 3.95c-1.9 0-3.52.72-4.87 2.15-1.35 1.42-2.24 4.25-2.67 8.46a183.6 183.6 0 0 0-.64 17.56c0 3.97.26 7.68.78 11.13.4 2.64 1.28 4.64 2.61 6.01a6.2 6.2 0 0 0 4.57 2.06 6.3 6.3 0 0 0 4.17-1.39 9.35 9.35 0 0 0 2.9-5.29c.74-3.52 1.11-10.65 1.11-21.37 0-6.31-.35-10.64-1.06-13-.7-2.36-1.74-4.07-3.11-5.15a5.84 5.84 0 0 0-3.79-1.17Zm80.22-2.39v40.75c0 3.97.37 6.44 1.1 7.43.75.98 2.25 1.6 4.52 1.86v2h-21.21v-6.95c-2.49 2.97-4.97 5.13-7.46 6.48a17.17 17.17 0 0 1-8.35 2.03c-2.93 0-5.54-.9-7.82-2.7s-3.81-3.9-4.6-6.31c-.77-2.42-1.16-6.63-1.16-12.64v-20.65c0-3.93-.36-6.38-1.09-7.35-.72-.96-2.23-1.6-4.53-1.9v-2.05h21.2v35.57c0 3.71.18 6.1.53 7.18a4.36 4.36 0 0 0 4.31 3.28c1.34 0 2.55-.35 3.63-1.05 1.48-.97 3.26-2.92 5.34-5.85v-27.83c0-3.93-.36-6.38-1.09-7.35-.72-.96-2.23-1.6-4.53-1.9v-2.05h21.2Zm32.45 0v11.8c3.45-5.38 6.48-8.95 9.07-10.72 2.6-1.76 5.1-2.64 7.52-2.64 2.08 0 3.74.64 4.98 1.92 1.24 1.28 1.86 3.09 1.86 5.43 0 2.48-.6 4.41-1.8 5.79a5.61 5.61 0 0 1-4.37 2.06 7.54 7.54 0 0 1-5.13-1.9 31.57 31.57 0 0 0-2.56-2.11c-.37-.22-.8-.33-1.28-.33-1.07 0-2.1.4-3.06 1.22a11.55 11.55 0 0 0-3.45 5.4 37.84 37.84 0 0 0-1.78 11.91v11.97l.06 3.12c0 2.11.12 3.47.39 4.06a4.4 4.4 0 0 0 1.97 2.2c.87.46 2.35.75 4.43.86v2h-28.11v-2c2.26-.18 3.79-.8 4.59-1.86.8-1.06 1.2-3.85 1.2-8.38v-28.78c0-2.97-.15-4.86-.45-5.68a4.48 4.48 0 0 0-1.61-2.28c-.71-.48-1.95-.81-3.73-1v-2.06h21.26Zm71.25-23.44v64.69c0 3.67.43 6.02 1.28 7.04.86 1.02 2.53 1.6 5.01 1.75v2h-28.1v-2c2.3-.07 4-.74 5.12-2 .74-.86 1.1-3.12 1.1-6.8V188.4c0-3.63-.42-5.96-1.27-6.98-.86-1.02-2.5-1.6-4.96-1.76v-2.06h21.82Zm53.11 47.6H538.2c.34 6.9 2.17 12.35 5.51 16.36 2.57 3.08 5.64 4.62 9.25 4.62 2.22 0 4.24-.62 6.06-1.86 1.82-1.24 3.77-3.48 5.85-6.71l1.89 1.22c-2.82 5.76-5.94 9.83-9.35 12.22a20.14 20.14 0 0 1-11.86 3.6c-7.72 0-13.56-2.97-17.53-8.91-3.2-4.79-4.79-10.73-4.79-17.82 0-8.68 2.35-15.59 7.04-20.73 4.7-5.14 10.2-7.71 16.5-7.71 5.28 0 9.85 2.16 13.73 6.49 3.87 4.32 5.96 10.73 6.26 19.23Zm-13.7-3.73c0-5.98-.32-10.08-.97-12.3a10.08 10.08 0 0 0-3.03-5.07c-.78-.67-1.82-1-3.12-1-1.93 0-3.5.94-4.73 2.84-2.19 3.3-3.28 7.83-3.28 13.58v1.95h15.14Zm51.34-19.82h17.53v6.12h-9.97a18.93 18.93 0 0 1 3.79 4.96c.89 2 1.33 4.1 1.33 6.29 0 3.71-1.03 6.93-3.09 9.66s-4.86 4.86-8.4 6.4c-3.55 1.54-6.7 2.3-9.44 2.3-.22 0-2.45-.08-6.68-.27-1.67 0-3.07.55-4.2 1.64a5.27 5.27 0 0 0-1.7 3.93c0 1.33.51 2.43 1.53 3.28 1.02.85 2.68 1.28 4.99 1.28l9.63-.11c7.79 0 13.15.85 16.08 2.56 4.2 2.37 6.3 6.03 6.3 10.97 0 3.15-.97 6.02-2.9 8.6a16.98 16.98 0 0 1-7.63 5.7c-4.79 1.82-10.3 2.73-16.53 2.73a55.9 55.9 0 0 1-12.8-1.37c-3.86-.9-6.63-2.17-8.3-3.78s-2.5-3.31-2.5-5.1c0-1.7.64-3.23 1.92-4.59 1.28-1.35 3.66-2.5 7.15-3.42-4.82-2.37-7.24-5.68-7.24-9.9 0-2.57.99-5.05 2.96-7.47 1.96-2.4 5.08-4.5 9.35-6.29-4.98-1.81-8.58-4.2-10.8-7.18a16.7 16.7 0 0 1-3.34-10.3c0-5.08 2.08-9.49 6.23-13.22 4.16-3.72 9.5-5.59 16.03-5.59 3.45 0 7.02.72 10.7 2.17Zm-12.92 59.12c-3.79 0-6.3.31-7.52.94-2.11 1.15-3.17 2.71-3.17 4.68 0 1.9 1.1 3.6 3.28 5.15 2.2 1.54 6.31 2.3 12.36 2.3 5.16 0 9.21-.68 12.16-2.05 2.95-1.38 4.43-3.3 4.43-5.8 0-.92-.28-1.7-.84-2.33-1-1.11-2.51-1.87-4.53-2.28-2.03-.41-7.42-.61-16.17-.61Zm3.28-57.84c-2.15 0-3.97 1.09-5.45 3.26-1.49 2.17-2.23 6.67-2.23 13.5 0 5.53.73 9.32 2.2 11.38 1.46 2.06 3.2 3.09 5.2 3.09 2.23 0 4.08-1.02 5.57-3.06 1.48-2.04 2.23-6.01 2.23-11.91 0-6.65-.84-11.17-2.5-13.59a5.69 5.69 0 0 0-5.02-2.67Zm63.85-3.33.83 17.75h-1.89c-2.26-5.27-4.6-8.87-7.04-10.8-2.43-1.93-4.85-2.9-7.26-2.9-1.53 0-2.82.52-3.9 1.54a4.74 4.74 0 0 0-1.61 3.53c0 1 .37 1.97 1.1 2.9 1.2 1.52 4.52 4.12 9.97 7.82 5.46 3.69 9.05 6.82 10.77 9.4a15.22 15.22 0 0 1 2.6 8.66c0 2.9-.73 5.73-2.18 8.52s-3.49 4.91-6.12 6.4a17.5 17.5 0 0 1-8.74 2.22c-2.49 0-5.8-.78-9.96-2.33a8.32 8.32 0 0 0-2.29-.62c-1.22 0-2.24.93-3.06 2.79H628l-.89-18.7h1.9c1.67 4.9 3.96 8.57 6.87 11.02 2.91 2.44 5.67 3.67 8.27 3.67 1.78 0 3.23-.55 4.37-1.64a5.33 5.33 0 0 0 1.7-3.98c0-1.78-.56-3.32-1.68-4.62-1.1-1.3-3.6-3.27-7.45-5.9-5.68-3.94-9.36-6.94-11.03-9.02a15.7 15.7 0 0 1-3.67-10.08c0-4 1.38-7.63 4.15-10.88 2.76-3.25 6.76-4.87 12-4.87 2.81 0 5.54.69 8.18 2.06 1 .56 1.81.84 2.44.84.67 0 1.21-.14 1.62-.42.4-.28 1.06-1.07 1.95-2.37h1.89Zm-396.6 153.05h17.54v6.12h-9.97a18.93 18.93 0 0 1 3.79 4.96c.89 2 1.34 4.1 1.34 6.29 0 3.71-1.03 6.93-3.1 9.66s-4.86 4.86-8.4 6.4-6.69 2.3-9.43 2.3c-.23 0-2.45-.08-6.68-.27a5.8 5.8 0 0 0-4.2 1.64 5.27 5.27 0 0 0-1.7 3.93c0 1.33.5 2.43 1.53 3.28 1.02.85 2.68 1.28 4.98 1.28l9.63-.11c7.8 0 13.15.85 16.08 2.56 4.2 2.38 6.3 6.03 6.3 10.97 0 3.15-.97 6.02-2.9 8.6a16.98 16.98 0 0 1-7.63 5.7c-4.78 1.82-10.3 2.73-16.53 2.73a55.9 55.9 0 0 1-12.8-1.37c-3.86-.9-6.62-2.17-8.3-3.78s-2.5-3.31-2.5-5.1c0-1.7.64-3.23 1.92-4.59 1.28-1.35 3.67-2.5 7.15-3.42-4.82-2.37-7.23-5.68-7.23-9.9 0-2.57.98-5.05 2.95-7.47 1.96-2.4 5.08-4.5 9.35-6.29-4.97-1.81-8.57-4.2-10.8-7.18a16.7 16.7 0 0 1-3.34-10.3c0-5.08 2.08-9.49 6.23-13.22 4.16-3.72 9.5-5.59 16.04-5.59 3.45 0 7.01.72 10.68 2.17Zm-12.91 59.12c-3.79 0-6.29.31-7.52.94-2.11 1.15-3.17 2.71-3.17 4.68 0 1.9 1.1 3.6 3.29 5.15 2.19 1.54 6.3 2.3 12.35 2.3 5.16 0 9.22-.68 12.17-2.05 2.95-1.38 4.42-3.3 4.42-5.8 0-.92-.28-1.7-.83-2.33-1-1.11-2.52-1.87-4.54-2.28-2.02-.41-7.41-.61-16.17-.61Zm3.28-57.84c-2.15 0-3.97 1.09-5.45 3.26-1.49 2.17-2.23 6.67-2.23 13.5 0 5.53.73 9.32 2.2 11.38 1.47 2.06 3.2 3.09 5.2 3.09 2.23 0 4.09-1.02 5.57-3.06 1.49-2.04 2.23-6.01 2.23-11.91 0-6.65-.84-11.17-2.5-13.59a5.69 5.69 0 0 0-5.02-2.67Zm55.5-3.45c4.53 0 8.74 1.17 12.64 3.5s6.85 5.67 8.88 9.97a32.84 32.84 0 0 1 3.03 14.14c0 7.39-1.87 13.56-5.62 18.54-4.53 6-10.78 9.01-18.76 9.01-7.83 0-13.86-2.74-18.1-8.23a30.41 30.41 0 0 1-6.34-19.1c0-7.46 2.16-13.96 6.49-19.5 4.32-5.56 10.25-8.33 17.78-8.33Zm.23 3.95c-1.9 0-3.52.72-4.87 2.15-1.36 1.42-2.25 4.25-2.68 8.46-.42 4.2-.64 10.06-.64 17.56 0 3.97.26 7.68.78 11.13.41 2.64 1.28 4.64 2.62 6.01a6.2 6.2 0 0 0 4.56 2.06 6.3 6.3 0 0 0 4.18-1.39 9.35 9.35 0 0 0 2.9-5.29c.73-3.52 1.1-10.65 1.1-21.37 0-6.31-.35-10.64-1.05-13-.7-2.36-1.75-4.07-3.12-5.15a5.84 5.84 0 0 0-3.78-1.17Zm54.49-3.95c4.53 0 8.74 1.17 12.64 3.5s6.85 5.67 8.88 9.97a32.84 32.84 0 0 1 3.03 14.14c0 7.39-1.87 13.56-5.62 18.54-4.53 6-10.78 9.01-18.76 9.01-7.83 0-13.86-2.74-18.1-8.23a30.41 30.41 0 0 1-6.34-19.1c0-7.46 2.16-13.96 6.49-19.5 4.32-5.56 10.25-8.33 17.78-8.33Zm.23 3.95c-1.9 0-3.52.72-4.87 2.15-1.36 1.42-2.25 4.25-2.68 8.46-.42 4.2-.64 10.06-.64 17.56 0 3.97.26 7.68.78 11.13.41 2.64 1.28 4.64 2.62 6.01a6.2 6.2 0 0 0 4.56 2.06 6.3 6.3 0 0 0 4.18-1.39 9.35 9.35 0 0 0 2.9-5.29c.73-3.52 1.1-10.65 1.1-21.37 0-6.31-.35-10.64-1.05-13-.7-2.36-1.75-4.07-3.12-5.15a5.84 5.84 0 0 0-3.78-1.17Zm80.54-25.83v59.9c0 4.04.12 6.44.34 7.18.3 1.22.86 2.13 1.7 2.73.83.6 2.29.96 4.37 1.11v1.84l-22 4.28v-8.23c-2.63 3.19-4.97 5.36-7.03 6.5s-4.4 1.73-6.99 1.73c-6.64 0-11.9-2.96-15.75-8.9-3.12-4.83-4.68-10.75-4.68-17.76 0-5.6.97-10.62 2.9-15.06 1.93-4.43 4.57-7.78 7.93-10.04a19.01 19.01 0 0 1 10.83-3.4c2.48 0 4.69.48 6.62 1.45 1.93.96 3.99 2.65 6.18 5.06v-15.7c0-3.96-.17-6.36-.5-7.17a4.78 4.78 0 0 0-2-2.4c-.9-.52-2.57-.78-5.02-.78v-2.34h23.1Zm-15.58 35.3c-2.75-5.27-6.1-7.9-10.08-7.9-1.37 0-2.5.36-3.4 1.1-1.37 1.16-2.49 3.18-3.36 6.07-.87 2.9-1.3 7.33-1.3 13.3 0 6.57.47 11.44 1.44 14.59.96 3.15 2.28 5.44 3.95 6.85.85.7 2.02 1.05 3.5 1.05 3.27 0 6.35-2.56 9.25-7.68V363.9Zm27.94 60.17v-2.45c4.3-1.86 7.43-4.26 9.38-7.2s2.93-5.98 2.93-9.05a2.3 2.3 0 0 0-.4-1.45c-.25-.3-.51-.45-.77-.45-.23 0-.56.13-1 .4a7.82 7.82 0 0 1-4.01.94 7.6 7.6 0 0 1-5.7-2.56 8.46 8.46 0 0 1-2.43-6.01c0-2.45.93-4.6 2.78-6.46a9.17 9.17 0 0 1 6.74-2.78c3.19 0 5.92 1.23 8.18 3.7s3.4 5.85 3.4 10.16c0 5.3-1.6 10.02-4.82 14.14-3.2 4.11-7.97 7.14-14.28 9.07ZM526.99 333v19.04h12.36v5.51h-12.36v32.12c0 3 .14 4.94.42 5.81a4.1 4.1 0 0 0 1.47 2.12c.7.54 1.35.8 1.95.8 2.41 0 4.7-1.83 6.85-5.5l1.67 1.22c-3.01 7.13-7.9 10.69-14.64 10.69-3.3 0-6.1-.92-8.38-2.76s-3.74-3.88-4.37-6.15c-.37-1.26-.56-4.67-.56-10.24v-28.11h-6.79v-1.95a71.77 71.77 0 0 0 11.94-10.4 63.36 63.36 0 0 0 8.6-12.2H527Z"/><path d="m593.62 405.64-14.25-38.18-13.97 38.18h-2.9l-13.86-37.74c-2.08-5.75-3.84-9.5-5.28-11.24a7.78 7.78 0 0 0-4.24-2.56v-2.06h26.28v2.06c-1.78 0-3 .26-3.68.78-.66.52-1 1.11-1 1.78 0 .63.6 2.52 1.78 5.68l7.63 20.31 7.35-20.31-.56-1.34c-1.11-2.78-2.09-4.55-2.92-5.31-.84-.77-2.13-1.3-3.87-1.6v-2.05h26.66v2.06c-2.08.11-3.4.4-3.95.86a2.43 2.43 0 0 0-.83 1.98c0 .81.53 2.61 1.61 5.4l7.35 20.31 6.68-18.7c.96-2.67 1.44-4.49 1.44-5.45 0-1.45-.35-2.5-1.05-3.18-.7-.66-2.08-1.07-4.12-1.22v-2.06h15.42v2.06a6.91 6.91 0 0 0-4.07 1.8c-1 1-2.3 3.78-3.9 8.39l-14.58 41.35h-3.17Zm52.99-55.16c4.53 0 8.74 1.17 12.64 3.5s6.86 5.67 8.88 9.97a32.84 32.84 0 0 1 3.03 14.14c0 7.39-1.87 13.56-5.62 18.54-4.53 6-10.78 9.01-18.76 9.01-7.83 0-13.86-2.74-18.09-8.23a30.41 30.41 0 0 1-6.34-19.1c0-7.46 2.16-13.96 6.48-19.5 4.32-5.56 10.25-8.33 17.78-8.33Zm.23 3.95c-1.9 0-3.52.72-4.87 2.15-1.36 1.42-2.25 4.25-2.68 8.46-.42 4.2-.64 10.06-.64 17.56 0 3.97.26 7.68.78 11.13.41 2.64 1.28 4.64 2.62 6.01a6.2 6.2 0 0 0 4.56 2.06 6.3 6.3 0 0 0 4.18-1.39 9.35 9.35 0 0 0 2.9-5.29c.74-3.52 1.1-10.65 1.1-21.37 0-6.31-.35-10.64-1.05-13-.7-2.36-1.74-4.07-3.12-5.15a5.84 5.84 0 0 0-3.78-1.17ZM385.82 479.6v64.69c0 3.67.42 6.02 1.28 7.04.85 1.02 2.52 1.6 5 1.75v2H364v-2c2.3-.07 4-.74 5.12-2 .74-.86 1.11-3.12 1.11-6.8V490.4c0-3.63-.43-5.96-1.28-6.98-.85-1.02-2.5-1.6-4.95-1.76v-2.06h21.82Zm53.1 47.6h-28.55c.33 6.9 2.17 12.35 5.5 16.36 2.57 3.08 5.65 4.62 9.25 4.62 2.22 0 4.25-.62 6.06-1.86 1.82-1.24 3.77-3.48 5.85-6.71l1.9 1.23c-2.83 5.75-5.95 9.82-9.36 12.21a20.14 20.14 0 0 1-11.86 3.6c-7.72 0-13.56-2.98-17.53-8.91-3.2-4.79-4.79-10.73-4.79-17.82 0-8.68 2.35-15.59 7.04-20.73 4.7-5.14 10.2-7.71 16.5-7.71 5.28 0 9.85 2.16 13.73 6.49 3.88 4.32 5.96 10.73 6.26 19.23Zm-13.7-3.73c0-5.98-.32-10.08-.97-12.3a10.08 10.08 0 0 0-3.03-5.07c-.78-.67-1.82-1-3.12-1-1.93 0-3.5.94-4.73 2.84-2.19 3.3-3.28 7.83-3.28 13.58v1.95h15.14Zm51.33-19.82h17.54v6.12h-9.97a18.93 18.93 0 0 1 3.79 4.96c.89 2 1.33 4.1 1.33 6.29 0 3.7-1.03 6.93-3.09 9.66a20.5 20.5 0 0 1-8.4 6.4c-3.55 1.54-6.69 2.3-9.44 2.3-.22 0-2.44-.08-6.68-.27-1.67 0-3.07.55-4.2 1.64a5.27 5.27 0 0 0-1.7 3.93c0 1.33.51 2.43 1.53 3.28 1.02.85 2.69 1.28 4.99 1.28l9.63-.11c7.79 0 13.15.85 16.08 2.56 4.2 2.37 6.3 6.03 6.3 10.97 0 3.15-.97 6.02-2.9 8.6a16.98 16.98 0 0 1-7.63 5.7c-4.78 1.82-10.3 2.73-16.53 2.73-4.67 0-8.94-.46-12.8-1.36-3.86-.92-6.63-2.18-8.3-3.79-1.67-1.62-2.5-3.31-2.5-5.1 0-1.7.64-3.23 1.92-4.59 1.28-1.35 3.66-2.5 7.15-3.42-4.82-2.37-7.23-5.68-7.23-9.9 0-2.57.98-5.05 2.95-7.47 1.96-2.4 5.08-4.5 9.35-6.29-4.97-1.81-8.57-4.2-10.8-7.18a16.7 16.7 0 0 1-3.34-10.3c0-5.08 2.08-9.49 6.23-13.21 4.16-3.74 9.5-5.6 16.04-5.6 3.45 0 7 .72 10.68 2.17Zm-12.91 59.12c-3.79 0-6.3.31-7.52.94-2.11 1.15-3.17 2.71-3.17 4.68 0 1.9 1.1 3.6 3.29 5.15 2.18 1.54 6.3 2.3 12.35 2.3 5.16 0 9.22-.68 12.17-2.05 2.95-1.37 4.42-3.3 4.42-5.8 0-.92-.28-1.7-.83-2.33-1-1.11-2.52-1.87-4.54-2.28-2.02-.41-7.41-.61-16.17-.61Zm3.28-57.84c-2.15 0-3.97 1.09-5.45 3.26-1.49 2.17-2.23 6.67-2.23 13.5 0 5.53.73 9.32 2.2 11.38 1.47 2.06 3.2 3.09 5.2 3.09 2.23 0 4.09-1.02 5.57-3.06 1.48-2.04 2.23-6.01 2.23-11.91 0-6.65-.84-11.17-2.5-13.59a5.69 5.69 0 0 0-5.02-2.67Zm63.85-3.33.84 17.75h-1.9c-2.26-5.27-4.6-8.87-7.04-10.8-2.43-1.93-4.85-2.9-7.26-2.9-1.52 0-2.82.52-3.9 1.54a4.74 4.74 0 0 0-1.61 3.53c0 1 .37 1.97 1.11 2.9 1.19 1.52 4.51 4.12 9.97 7.82s9.04 6.82 10.77 9.4a15.22 15.22 0 0 1 2.58 8.66c0 2.9-.72 5.73-2.17 8.52s-3.49 4.91-6.12 6.4a17.5 17.5 0 0 1-8.74 2.22c-2.49 0-5.8-.78-9.96-2.33a8.3 8.3 0 0 0-2.28-.62c-1.23 0-2.25.93-3.07 2.79h-1.83l-.9-18.7h1.9c1.67 4.9 3.96 8.57 6.87 11.01 2.92 2.45 5.67 3.68 8.27 3.68 1.78 0 3.24-.55 4.37-1.64a5.33 5.33 0 0 0 1.7-3.98c0-1.78-.56-3.32-1.67-4.62-1.12-1.3-3.6-3.27-7.46-5.9-5.68-3.94-9.35-6.94-11.02-9.02a15.7 15.7 0 0 1-3.68-10.08c0-4 1.38-7.63 4.15-10.88 2.76-3.25 6.76-4.87 12-4.87 2.82 0 5.54.69 8.18 2.06 1 .56 1.82.83 2.45.83.67 0 1.2-.13 1.61-.41a10.6 10.6 0 0 0 1.95-2.37h1.9Zm-267.81 129v28.67c4.38-4.53 9.17-6.79 14.36-6.79a17.9 17.9 0 0 1 10.08 3.15 20.96 20.96 0 0 1 7.4 8.93c1.78 3.86 2.67 8.31 2.67 13.36a34.7 34.7 0 0 1-3.4 15.47c-2.26 4.64-5.28 8.18-9.07 10.6a23.48 23.48 0 0 1-12.97 3.65 19.8 19.8 0 0 1-7.51-1.33 21.02 21.02 0 0 1-6.46-4.34l-8.63 5.62h-1.89V641.4c0-3-.13-4.86-.39-5.56a4.34 4.34 0 0 0-1.75-2.31c-.8-.5-2.14-.8-4.04-.87v-2.06h21.6Zm0 33.63v23.15c0 4.71.11 7.72.33 9.02a9.28 9.28 0 0 0 2.68 5.32 7.47 7.47 0 0 0 5.4 2.03c1.89 0 3.51-.54 4.87-1.62 1.35-1.07 2.48-3.2 3.4-6.4.9-3.19 1.36-8.94 1.36-17.25 0-7.98-1-13.46-3.01-16.43a6.72 6.72 0 0 0-5.85-3.22c-3.19 0-6.25 1.8-9.18 5.4Zm69.69 34.17c-6.34 5.6-12.04 8.4-17.09 8.4-2.96 0-5.43-.96-7.4-2.91a9.88 9.88 0 0 1-2.95-7.32c0-3.97 1.7-7.55 5.12-10.72 3.42-3.17 10.86-7.4 22.32-12.66v-5.23c0-3.94-.21-6.42-.64-7.44a6 6 0 0 0-2.42-2.67 7.27 7.27 0 0 0-4-1.14c-2.42 0-4.4.54-5.96 1.62-.97.66-1.45 1.44-1.45 2.33 0 .78.52 1.75 1.56 2.9 1.4 1.6 2.11 3.13 2.11 4.62 0 1.82-.67 3.37-2.03 4.65a7.42 7.42 0 0 1-5.31 1.92c-2.34 0-4.3-.7-5.88-2.12a6.46 6.46 0 0 1-2.36-4.95c0-2.68 1.06-5.23 3.17-7.66 2.12-2.43 5.07-4.3 8.85-5.6a36.1 36.1 0 0 1 11.8-1.94c4.94 0 8.84 1.05 11.72 3.15 2.88 2.1 4.74 4.37 5.6 6.81.51 1.56.77 5.14.77 10.75v20.2c0 2.38.1 3.87.28 4.48.19.62.47 1.07.84 1.37.37.3.8.44 1.28.44.96 0 1.95-.68 2.95-2.06l1.67 1.34c-1.86 2.75-3.78 4.74-5.76 5.98a12.49 12.49 0 0 1-6.77 1.87c-2.97 0-5.28-.7-6.95-2.09-1.67-1.4-2.7-3.5-3.07-6.32Zm0-4.06v-17.42c-4.49 2.63-7.83 5.45-10.02 8.46a10.3 10.3 0 0 0-2.17 6.07c0 1.7.62 3.2 1.84 4.5.93 1 2.23 1.5 3.9 1.5 1.85 0 4-1.03 6.45-3.11Zm54.72 4.06c-6.34 5.6-12.04 8.4-17.09 8.4-2.96 0-5.43-.96-7.4-2.91a9.88 9.88 0 0 1-2.95-7.32c0-3.97 1.7-7.55 5.12-10.72 3.42-3.17 10.86-7.4 22.32-12.66v-5.23c0-3.94-.21-6.42-.64-7.44a6 6 0 0 0-2.42-2.67 7.27 7.27 0 0 0-4-1.14c-2.42 0-4.4.54-5.96 1.62-.97.66-1.45 1.44-1.45 2.33 0 .78.52 1.75 1.56 2.9 1.4 1.6 2.11 3.13 2.11 4.62 0 1.82-.67 3.37-2.03 4.65a7.42 7.42 0 0 1-5.31 1.92c-2.34 0-4.3-.7-5.88-2.12a6.46 6.46 0 0 1-2.36-4.95c0-2.68 1.06-5.23 3.17-7.66 2.12-2.43 5.07-4.3 8.85-5.6a36.1 36.1 0 0 1 11.8-1.94c4.94 0 8.84 1.05 11.72 3.15 2.88 2.1 4.74 4.37 5.6 6.81.51 1.56.77 5.14.77 10.75v20.2c0 2.38.1 3.87.28 4.48.19.62.47 1.07.84 1.37.37.3.8.44 1.28.44.96 0 1.95-.68 2.95-2.06l1.67 1.34c-1.86 2.75-3.78 4.74-5.76 5.98a12.49 12.49 0 0 1-6.77 1.87c-2.97 0-5.28-.7-6.95-2.09-1.67-1.4-2.7-3.5-3.07-6.32Zm0-4.06v-17.42c-4.49 2.63-7.83 5.45-10.02 8.46a10.3 10.3 0 0 0-2.17 6.07c0 1.7.62 3.2 1.84 4.5.93 1 2.23 1.5 3.9 1.5 1.85 0 4-1.03 6.45-3.11Zm54.73 4.06c-6.35 5.6-12.05 8.4-17.1 8.4-2.96 0-5.43-.96-7.4-2.91a9.88 9.88 0 0 1-2.95-7.32c0-3.97 1.7-7.55 5.12-10.72 3.42-3.17 10.86-7.4 22.32-12.66v-5.23c0-3.94-.21-6.42-.64-7.44a6 6 0 0 0-2.42-2.67 7.27 7.27 0 0 0-4-1.14c-2.42 0-4.4.54-5.96 1.62-.97.66-1.45 1.44-1.45 2.33 0 .78.52 1.75 1.56 2.9 1.4 1.6 2.11 3.13 2.11 4.62 0 1.82-.67 3.37-2.03 4.65a7.42 7.42 0 0 1-5.31 1.92c-2.34 0-4.3-.7-5.88-2.12a6.46 6.46 0 0 1-2.36-4.95c0-2.68 1.06-5.23 3.17-7.66 2.12-2.43 5.07-4.3 8.85-5.6a36.1 36.1 0 0 1 11.8-1.94c4.94 0 8.84 1.05 11.72 3.15 2.88 2.1 4.74 4.37 5.6 6.81.51 1.56.77 5.14.77 10.75v20.2c0 2.38.1 3.87.28 4.48.19.62.47 1.07.84 1.37.37.3.8.44 1.28.44.96 0 1.95-.68 2.95-2.06l1.67 1.34c-1.86 2.75-3.78 4.74-5.76 5.98a12.49 12.49 0 0 1-6.77 1.87c-2.97 0-5.28-.7-6.95-2.09-1.67-1.4-2.7-3.5-3.07-6.32Zm0-4.06v-17.42c-4.5 2.63-7.84 5.45-10.03 8.46a10.3 10.3 0 0 0-2.17 6.07c0 1.7.62 3.2 1.84 4.5.93 1 2.23 1.5 3.9 1.5 1.85 0 4-1.03 6.45-3.11Zm54.71 4.06c-6.34 5.6-12.04 8.4-17.09 8.4-2.96 0-5.43-.96-7.4-2.91a9.88 9.88 0 0 1-2.95-7.32c0-3.97 1.7-7.55 5.12-10.72 3.42-3.17 10.86-7.4 22.32-12.66v-5.23c0-3.94-.21-6.42-.64-7.44a6 6 0 0 0-2.42-2.67 7.27 7.27 0 0 0-4-1.14c-2.42 0-4.4.54-5.96 1.62-.97.66-1.45 1.44-1.45 2.33 0 .78.52 1.75 1.56 2.9 1.4 1.6 2.11 3.13 2.11 4.62 0 1.82-.67 3.37-2.03 4.65a7.42 7.42 0 0 1-5.31 1.92c-2.34 0-4.3-.7-5.88-2.12a6.46 6.46 0 0 1-2.36-4.95c0-2.68 1.06-5.23 3.17-7.66 2.12-2.43 5.07-4.3 8.85-5.6a36.1 36.1 0 0 1 11.8-1.94c4.94 0 8.84 1.05 11.72 3.15 2.88 2.1 4.74 4.37 5.6 6.81.51 1.56.77 5.14.77 10.75v20.2c0 2.38.1 3.87.28 4.48.19.62.47 1.07.84 1.37.37.3.8.44 1.28.44.96 0 1.95-.68 2.95-2.06l1.67 1.34c-1.86 2.75-3.78 4.74-5.76 5.98a12.49 12.49 0 0 1-6.77 1.87c-2.97 0-5.28-.7-6.95-2.09-1.67-1.4-2.7-3.5-3.07-6.32Zm0-4.06v-17.42c-4.49 2.63-7.83 5.45-10.02 8.46a10.3 10.3 0 0 0-2.17 6.07c0 1.7.62 3.2 1.84 4.5.93 1 2.23 1.5 3.9 1.5 1.85 0 4-1.03 6.45-3.11Zm76.6-63.74v59.9c0 4.04.11 6.44.33 7.18.3 1.22.87 2.13 1.7 2.73.84.6 2.3.96 4.37 1.11v1.84l-21.99 4.28v-8.23c-2.63 3.19-4.98 5.36-7.04 6.5s-4.39 1.73-6.98 1.73c-6.65 0-11.9-2.97-15.76-8.9-3.11-4.83-4.67-10.75-4.67-17.76 0-5.6.96-10.62 2.9-15.06 1.92-4.43 4.57-7.78 7.92-10.04a19.01 19.01 0 0 1 10.83-3.4c2.49 0 4.7.48 6.63 1.45 1.92.96 3.98 2.65 6.17 5.06v-15.7c0-3.96-.16-6.36-.5-7.17a4.78 4.78 0 0 0-2-2.4c-.9-.52-2.56-.78-5.01-.78v-2.34h23.1Zm-15.59 35.3c-2.74-5.27-6.1-7.9-10.07-7.9-1.37 0-2.5.36-3.4 1.1-1.37 1.15-2.5 3.18-3.36 6.07-.88 2.9-1.31 7.33-1.31 13.3 0 6.57.48 11.44 1.44 14.59.97 3.15 2.29 5.44 3.96 6.85.85.7 2.02 1.05 3.5 1.05 3.27 0 6.35-2.56 9.24-7.68V665.9Zm36.52 23.04c2.6 0 4.8.91 6.6 2.73 1.8 1.82 2.7 4 2.7 6.57s-.91 4.74-2.73 6.54c-1.82 1.8-4 2.7-6.57 2.7s-4.74-.9-6.54-2.7c-1.8-1.8-2.7-3.98-2.7-6.54s.9-4.75 2.7-6.57a8.86 8.86 0 0 1 6.54-2.73Zm26.22 0c2.6 0 4.8.91 6.6 2.73 1.8 1.82 2.7 4 2.7 6.57s-.91 4.74-2.73 6.54c-1.82 1.8-4 2.7-6.57 2.7s-4.74-.9-6.54-2.7c-1.8-1.8-2.7-3.98-2.7-6.54s.9-4.75 2.7-6.57a8.86 8.86 0 0 1 6.54-2.73Zm26.22 0c2.6 0 4.8.91 6.6 2.73 1.8 1.82 2.7 4 2.7 6.57s-.91 4.74-2.73 6.54c-1.82 1.8-4 2.7-6.57 2.7s-4.74-.9-6.54-2.7c-1.8-1.8-2.7-3.98-2.7-6.54s.9-4.75 2.7-6.57a8.86 8.86 0 0 1 6.54-2.73Z"/></g></svg>
