<svg xmlns="http://www.w3.org/2000/svg" viewBox="0 0 900 900"><circle cx="450" cy="450" r="450" fill="#a61d31" stroke="#231f20" stroke-miterlimit="10"/><path d="M300.95 357.22h35.55v1.87h-1.78c-2.68 0-4.51.28-5.5.84a4.76 4.76 0 0 0-2.14 2.31c-.43.99-.64 3.44-.64 7.37v33.72c0 6.16.47 10.24 1.4 12.23.93 2 2.46 3.66 4.6 4.98s4.82 1.98 8.07 1.98c3.72 0 6.9-.84 9.52-2.51a15.44 15.44 0 0 0 5.9-6.93c1.3-2.95 1.95-8.08 1.95-15.4v-28.07c0-3.08-.33-5.28-.97-6.6a5.79 5.79 0 0 0-2.44-2.75c-1.52-.78-3.67-1.17-6.44-1.17v-1.87h23.81v1.87h-1.42c-1.93 0-3.54.4-4.82 1.17a6.61 6.61 0 0 0-2.8 3.5c-.44 1.1-.66 3.04-.66 5.85v26.15c0 8.1-.53 13.93-1.6 17.52-1.06 3.59-3.66 6.89-7.8 9.9-4.12 3.01-9.76 4.52-16.9 4.52-5.96 0-10.56-.8-13.81-2.39-4.44-2.16-7.57-4.94-9.4-8.32-1.83-3.39-2.74-7.94-2.74-13.66V369.6c0-3.96-.22-6.43-.66-7.4a4.96 4.96 0 0 0-2.29-2.3c-1.08-.58-3.08-.85-5.99-.82v-1.87Zm120.88 45.39 18.69-45.4h28.03v1.88h-2.24c-2.03 0-3.65.36-4.87 1.07a4.96 4.96 0 0 0-2.03 2.39c-.37.81-.56 2.93-.56 6.35v45.4c0 3.52.19 5.72.56 6.6a5.05 5.05 0 0 0 2.28 2.3c1.15.67 2.7 1 4.62 1h2.24v1.88H432.6v-1.88h2.23c2.03 0 3.66-.36 4.88-1.07a4.95 4.95 0 0 0 2.03-2.44c.37-.81.55-2.94.55-6.4v-51.03l-26.4 62.82h-1.22l-26.81-62.36v48.5c0 3.38.08 5.46.25 6.24.44 1.7 1.4 3.07 2.87 4.14s3.78 1.6 6.93 1.6v1.88h-23.56v-1.88h.71a10.8 10.8 0 0 0 4.27-.74 6.86 6.86 0 0 0 3-2.1 9.72 9.72 0 0 0 1.57-3.71c.06-.38.1-2.1.1-5.18V368.9c0-3.5-.19-5.67-.56-6.53a5.1 5.1 0 0 0-2.29-2.28 9.27 9.27 0 0 0-4.62-1h-2.18v-1.87h28.13l19.35 45.4Zm76.95 16.46c-5.79 5.11-10.99 7.67-15.59 7.67-2.7 0-4.96-.9-6.75-2.67s-2.7-4-2.7-6.68c0-3.62 1.56-6.88 4.68-9.77s9.9-6.75 20.36-11.56v-4.77c0-3.59-.2-5.85-.58-6.78a5.46 5.46 0 0 0-2.21-2.44 6.64 6.64 0 0 0-3.66-1.04c-2.2 0-4.01.5-5.43 1.48-.88.6-1.32 1.32-1.32 2.13 0 .7.47 1.59 1.42 2.64 1.29 1.45 1.93 2.86 1.93 4.21 0 1.66-.62 3.08-1.85 4.24s-2.86 1.76-4.85 1.76a7.74 7.74 0 0 1-5.36-1.93 5.89 5.89 0 0 1-2.16-4.52c0-2.44.97-4.77 2.9-6.99 1.93-2.21 4.62-3.91 8.07-5.1a32.94 32.94 0 0 1 10.77-1.78c4.5 0 8.06.96 10.68 2.87 2.63 1.92 4.33 3.99 5.1 6.22.48 1.42.72 4.7.72 9.8v18.44c0 2.16.08 3.53.25 4.09s.43.97.76 1.24c.34.27.73.4 1.17.4.88 0 1.78-.62 2.7-1.87l1.52 1.22c-1.7 2.5-3.45 4.32-5.26 5.45s-3.87 1.7-6.17 1.7c-2.7 0-4.82-.63-6.35-1.9s-2.45-3.19-2.79-5.76Zm0-3.71v-15.9c-4.1 2.41-7.14 4.98-9.14 7.72a9.4 9.4 0 0 0-1.98 5.54c0 1.56.56 2.93 1.68 4.11a4.6 4.6 0 0 0 3.55 1.37c1.7 0 3.66-.94 5.9-2.84Zm54.46-38.09.76 16.2h-1.73c-2.06-4.8-4.2-8.09-6.42-9.85-2.22-1.76-4.43-2.64-6.63-2.64-1.39 0-2.57.47-3.55 1.4-.98.93-1.47 2-1.47 3.22 0 .92.33 1.8 1.01 2.64 1.08 1.4 4.11 3.77 9.1 7.14 4.97 3.37 8.24 6.23 9.82 8.58a13.89 13.89 0 0 1 2.36 7.9c0 2.64-.66 5.23-1.98 7.77s-3.18 4.48-5.59 5.84-5.06 2.03-7.97 2.03c-2.27 0-5.3-.71-9.1-2.14a7.57 7.57 0 0 0-2.07-.55c-1.12 0-2.05.84-2.8 2.53h-1.67l-.81-17.06h1.72c1.53 4.47 3.62 7.82 6.27 10.06s5.18 3.35 7.54 3.35a5.5 5.5 0 0 0 4-1.5c1.02-1 1.54-2.2 1.54-3.63 0-1.63-.5-3.03-1.52-4.22-1.02-1.18-3.29-2.97-6.8-5.38-5.19-3.59-8.54-6.33-10.06-8.22a14.32 14.32 0 0 1-3.35-9.2c0-3.65 1.26-6.96 3.78-9.92 2.52-2.97 6.17-4.45 10.94-4.45 2.57 0 5.06.63 7.47 1.88.91.51 1.66.76 2.23.76.61 0 1.1-.12 1.47-.38s.97-.97 1.78-2.16h1.73Zm39.12 0 .76 16.2h-1.73c-2.06-4.8-4.2-8.09-6.42-9.85-2.22-1.76-4.43-2.64-6.63-2.64-1.38 0-2.57.47-3.55 1.4-.98.93-1.47 2-1.47 3.22 0 .92.33 1.8 1.01 2.64 1.08 1.4 4.12 3.77 9.1 7.14 4.97 3.37 8.24 6.23 9.82 8.58a13.89 13.89 0 0 1 2.36 7.9c0 2.64-.66 5.23-1.98 7.77s-3.18 4.48-5.59 5.84a15.97 15.97 0 0 1-7.97 2.03c-2.27 0-5.3-.71-9.09-2.14a7.59 7.59 0 0 0-2.08-.55c-1.12 0-2.05.84-2.8 2.53h-1.67l-.81-17.06h1.72c1.53 4.47 3.62 7.82 6.28 10.06 2.65 2.23 5.16 3.35 7.54 3.35a5.5 5.5 0 0 0 3.98-1.5c1.03-1 1.55-2.2 1.55-3.63 0-1.63-.5-3.03-1.52-4.22-1.02-1.18-3.29-2.97-6.8-5.38-5.19-3.59-8.54-6.33-10.06-8.22a14.32 14.32 0 0 1-3.35-9.2c0-3.65 1.26-6.96 3.78-9.92 2.52-2.97 6.17-4.45 10.94-4.45a16 16 0 0 1 7.47 1.88c.91.51 1.66.76 2.23.76.61 0 1.1-.12 1.48-.38.37-.25.96-.97 1.77-2.16h1.73ZM272.42 477.64v23.87h-1.98c-1.49-6.23-4.26-11-8.32-14.32a21.25 21.25 0 0 0-13.82-4.98c-4.3 0-8.24 1.24-11.83 3.7a21.62 21.62 0 0 0-7.87 9.7 43.9 43.9 0 0 0-3.2 17.07c0 6.16.78 11.77 2.34 16.83 1.55 5.07 3.99 8.9 7.3 11.48s7.63 3.89 12.9 3.89c4.34 0 8.31-.95 11.92-2.85 3.6-1.9 7.4-5.16 11.4-9.8v5.94c-3.86 4.03-7.88 6.95-12.06 8.76s-9.07 2.72-14.66 2.72c-7.34 0-13.87-1.47-19.57-4.42s-10.1-7.18-13.2-12.7a35.44 35.44 0 0 1-4.65-17.61c0-6.57 1.72-12.8 5.15-18.7s8.08-10.45 13.92-13.7 12.04-4.88 18.6-4.88c4.85 0 9.96 1.05 15.34 3.15 3.12 1.22 5.1 1.83 5.95 1.83 1.08 0 2.02-.4 2.81-1.2.8-.79 1.32-2.05 1.55-3.78h1.98Zm34.05 63.43c-5.8 5.11-10.99 7.67-15.6 7.67-2.7 0-4.95-.9-6.75-2.67s-2.69-4-2.69-6.68c0-3.62 1.56-6.88 4.67-9.77s9.9-6.75 20.37-11.56v-4.77c0-3.59-.2-5.85-.59-6.78a5.46 5.46 0 0 0-2.2-2.44 6.64 6.64 0 0 0-3.66-1.04c-2.2 0-4.01.5-5.44 1.48-.88.6-1.32 1.32-1.32 2.13 0 .7.48 1.59 1.43 2.64 1.28 1.45 1.93 2.86 1.93 4.21 0 1.66-.62 3.08-1.86 4.24s-2.85 1.76-4.85 1.76a7.74 7.74 0 0 1-5.36-1.93 5.89 5.89 0 0 1-2.15-4.52c0-2.44.96-4.77 2.9-6.99 1.92-2.21 4.61-3.91 8.07-5.1a32.94 32.94 0 0 1 10.76-1.78c4.5 0 8.07.96 10.69 2.87 2.62 1.92 4.32 3.99 5.1 6.22.48 1.42.71 4.7.71 9.8v18.44c0 2.16.09 3.53.26 4.09s.42.97.76 1.24.73.4 1.17.4c.88 0 1.78-.62 2.69-1.87l1.52 1.22c-1.69 2.5-3.44 4.32-5.25 5.45s-3.87 1.7-6.17 1.7c-2.71 0-4.83-.63-6.35-1.9s-2.46-3.19-2.8-5.76Zm0-3.71v-15.9c-4.1 2.41-7.15 4.98-9.14 7.72a9.4 9.4 0 0 0-1.98 5.54c0 1.56.55 2.93 1.67 4.11a4.6 4.6 0 0 0 3.56 1.37c1.69 0 3.65-.94 5.89-2.84Zm44.15-36.76v6.24c2.6-2.84 5.01-4.83 7.23-5.97a15.77 15.77 0 0 1 7.29-1.7c3.05 0 5.6.71 7.67 2.14 2.06 1.42 3.65 3.58 4.77 6.5 2.7-3.05 5.3-5.25 7.8-6.6a16.1 16.1 0 0 1 7.79-2.04c3.28 0 5.9.76 7.85 2.26 1.94 1.5 3.3 3.42 4.06 5.74.76 2.32 1.14 6.02 1.14 11.1v19.45c0 3.65.33 5.92 1 6.8.65.88 2.03 1.46 4.13 1.73v1.83h-24.53v-1.83c1.93-.17 3.35-.92 4.27-2.24.6-.91.91-3.01.91-6.3v-20.4c0-4.24-.17-6.93-.5-8.08-.35-1.15-.88-2-1.6-2.57a4.1 4.1 0 0 0-2.57-.83c-1.46 0-2.93.53-4.42 1.6-1.49 1.06-3 2.66-4.52 4.8v25.49c0 3.42.29 5.56.87 6.44.77 1.26 2.26 1.95 4.46 2.09v1.82h-24.57v-1.82a5.43 5.43 0 0 0 3.12-1 4.22 4.22 0 0 0 1.52-2.13c.26-.83.38-2.63.38-5.4V517.3c0-4.3-.17-6.99-.5-8.07a4.97 4.97 0 0 0-1.7-2.54 4.17 4.17 0 0 0-2.57-.92c-1.36 0-2.59.36-3.7 1.07-1.6 1.05-3.3 2.84-5.08 5.38v25.5c0 3.35.33 5.56.99 6.62s2.03 1.7 4.13 1.9v1.83h-24.47v-1.82c2-.2 3.42-.85 4.26-1.93.58-.75.87-2.95.87-6.6V510.9c0-3.58-.33-5.82-1-6.7-.65-.88-2.03-1.46-4.13-1.73v-1.88h19.35Zm83.96-21.38v26.15c3.99-4.13 8.36-6.2 13.1-6.2 3.25 0 6.31.96 9.19 2.87a19.13 19.13 0 0 1 6.75 8.15 28.8 28.8 0 0 1 2.44 12.19 31.7 31.7 0 0 1-3.1 14.12c-2.06 4.23-4.82 7.45-8.27 9.67s-7.4 3.33-11.84 3.33c-2.57 0-4.86-.4-6.85-1.22-2-.81-3.96-2.13-5.9-3.96l-7.86 5.13h-1.73v-60.38c0-2.74-.12-4.44-.36-5.08a3.97 3.97 0 0 0-1.6-2.1c-.72-.47-1.95-.73-3.68-.8v-1.87h19.7Zm0 30.67V531c0 4.3.1 7.04.3 8.23.34 2 1.15 3.61 2.44 4.85a6.81 6.81 0 0 0 4.92 1.85c1.73 0 3.21-.49 4.45-1.47 1.23-.98 2.27-2.93 3.1-5.84.82-2.91 1.24-8.16 1.24-15.74 0-7.28-.91-12.27-2.74-14.98a6.13 6.13 0 0 0-5.33-2.95c-2.92 0-5.71 1.64-8.38 4.93Zm57.8-9.29v10.76c3.15-4.9 5.91-8.17 8.28-9.78 2.37-1.6 4.65-2.4 6.86-2.4 1.9 0 3.4.58 4.54 1.74s1.7 2.82 1.7 4.96c0 2.26-.55 4.03-1.65 5.28a5.12 5.12 0 0 1-3.98 1.88 6.9 6.9 0 0 1-4.68-1.73 28.86 28.86 0 0 0-2.33-1.93c-.34-.2-.73-.3-1.17-.3-.98 0-1.91.37-2.8 1.11a10.53 10.53 0 0 0-3.14 4.93 34.51 34.51 0 0 0-1.63 10.87v10.91l.05 2.85c0 1.93.12 3.16.36 3.7.4.92 1 1.59 1.8 2.01.8.42 2.14.69 4.04.79v1.83h-25.65v-1.83c2.07-.17 3.47-.74 4.2-1.7s1.09-3.52 1.09-7.65v-26.25c0-2.7-.14-4.44-.41-5.18a4.09 4.09 0 0 0-1.47-2.08c-.65-.44-1.78-.75-3.4-.92v-1.88h19.4Zm43.64 0v37.62c0 3.36.4 5.5 1.17 6.43.78.93 2.3 1.46 4.57 1.6v1.83h-25.64v-1.83c2.1-.07 3.65-.68 4.67-1.83.68-.78 1.01-2.84 1.01-6.2V510.5c0-3.35-.38-5.5-1.16-6.43-.78-.93-2.29-1.46-4.52-1.6v-1.88h19.9Zm-7.1-23c2.2 0 4.06.76 5.58 2.3 1.52 1.54 2.29 3.4 2.29 5.56s-.77 4.01-2.32 5.54-3.39 2.28-5.56 2.28-4-.76-5.53-2.28-2.29-3.37-2.29-5.54.77-4.02 2.29-5.56a7.5 7.5 0 0 1 5.53-2.3Zm62.28 1.62v54.64c0 3.69.1 5.87.3 6.55a4.09 4.09 0 0 0 1.54 2.49c.77.54 2.1.88 4 1.01v1.68l-20.07 3.9V542c-2.4 2.9-4.54 4.88-6.42 5.93s-4 1.58-6.37 1.58c-6.06 0-10.86-2.71-14.38-8.13-2.84-4.4-4.26-9.8-4.26-16.2 0-5.1.88-9.69 2.64-13.73 1.76-4.05 4.17-7.1 7.24-9.17a17.34 17.34 0 0 1 9.87-3.1c2.27 0 4.28.44 6.05 1.32 1.76.88 3.63 2.42 5.63 4.62V490.8c0-3.62-.15-5.8-.45-6.55a4.36 4.36 0 0 0-1.83-2.18c-.81-.47-2.34-.71-4.57-.71v-2.13h21.07Zm-14.23 32.2c-2.5-4.82-5.57-7.22-9.19-7.22-1.25 0-2.28.34-3.1 1.02-1.25 1.05-2.27 2.89-3.07 5.53-.8 2.64-1.2 6.69-1.2 12.14 0 5.99.45 10.43 1.33 13.3.88 2.88 2.08 4.96 3.6 6.25a4.9 4.9 0 0 0 3.2.96c2.98 0 5.8-2.33 8.43-7v-25Zm55.02-10.27h16v5.59h-9.1a17.3 17.3 0 0 1 3.46 4.52 13.98 13.98 0 0 1 1.22 5.74c0 3.38-.94 6.32-2.82 8.8s-4.44 4.44-7.67 5.85c-3.23 1.4-6.1 2.1-8.6 2.1-.21 0-2.24-.08-6.1-.25-1.52 0-2.8.5-3.84 1.5a4.8 4.8 0 0 0-1.54 3.58c0 1.22.46 2.22 1.4 3 .92.77 2.44 1.16 4.54 1.16l8.78-.1c7.11 0 12 .78 14.68 2.34 3.82 2.16 5.74 5.5 5.74 10 0 2.88-.88 5.5-2.64 7.85a15.5 15.5 0 0 1-6.96 5.2c-4.37 1.66-9.4 2.49-15.08 2.49-4.27 0-8.16-.41-11.68-1.24-3.52-.83-6.05-1.98-7.57-3.46s-2.28-3.02-2.28-4.64c0-1.56.58-2.96 1.75-4.2 1.17-1.23 3.34-2.27 6.52-3.12-4.4-2.16-6.6-5.18-6.6-9.03 0-2.34.9-4.6 2.7-6.81 1.79-2.2 4.63-4.11 8.52-5.74-4.53-1.66-7.82-3.84-9.85-6.55a15.23 15.23 0 0 1-3.04-9.4c0-4.63 1.89-8.65 5.68-12.05 3.8-3.4 8.67-5.1 14.63-5.1 3.15 0 6.4.65 9.75 1.97Zm-11.78 53.93c-3.46 0-5.74.29-6.86.87-1.93 1.05-2.9 2.47-2.9 4.26 0 1.73 1 3.3 3 4.7 2 1.4 5.76 2.1 11.28 2.1 4.7 0 8.4-.62 11.1-1.87 2.68-1.26 4.03-3.02 4.03-5.28a3.1 3.1 0 0 0-.76-2.14c-.92-1.01-2.3-1.7-4.14-2.08-1.85-.37-6.76-.56-14.75-.56Zm3-52.76c-1.97 0-3.63 1-4.98 2.97-1.36 1.98-2.03 6.09-2.03 12.32 0 5.04.66 8.5 2 10.38 1.34 1.88 2.92 2.82 4.75 2.82 2.03 0 3.72-.93 5.08-2.8 1.35-1.85 2.03-5.48 2.03-10.86 0-6.06-.76-10.19-2.29-12.4a5.19 5.19 0 0 0-4.57-2.43Zm69.17 20.31h-26.05c.3 6.3 1.98 11.28 5.03 14.93 2.34 2.81 5.15 4.22 8.43 4.22 2.03 0 3.88-.57 5.54-1.7 1.65-1.14 3.43-3.18 5.33-6.12l1.72 1.12c-2.57 5.24-5.41 8.96-8.53 11.14s-6.72 3.28-10.81 3.28c-7.04 0-12.38-2.71-16-8.13-2.91-4.37-4.37-9.78-4.37-16.25 0-7.92 2.14-14.22 6.43-18.91 4.28-4.7 9.3-7.04 15.05-7.04 4.81 0 8.98 1.98 12.52 5.92 3.54 3.94 5.44 9.8 5.71 17.54Zm-12.49-3.4c0-5.45-.3-9.19-.89-11.22s-1.51-3.57-2.76-4.62a4.22 4.22 0 0 0-2.85-.92c-1.76 0-3.2.87-4.31 2.6-2 3-3 7.14-3 12.38v1.78h13.81Z" fill="#fff"/></svg>
