<svg xmlns="http://www.w3.org/2000/svg" viewBox="0 0 900 900"><circle cx="450" cy="450" r="450" fill="#231f20" stroke="#231f20" stroke-miterlimit="10"/><g fill="#fff"><path d="M384.52 303.05v2.03h-38.77v-2.03h2.46c2.15 0 3.88-.38 5.2-1.15a4.98 4.98 0 0 0 2.18-2.62c.4-.88.6-3.17.6-6.9v-48.77c0-3.8-.2-6.16-.6-7.11a5.48 5.48 0 0 0-2.43-2.5c-1.22-.7-2.87-1.06-4.95-1.06h-2.46v-2.02h38.77v2.02h-2.46c-2.15 0-3.88.39-5.2 1.15a5.23 5.23 0 0 0-2.24 2.63c-.4.87-.6 3.17-.6 6.89v48.78c0 3.79.2 6.16.63 7.1a5.64 5.64 0 0 0 2.46 2.5c1.22.7 2.87 1.06 4.95 1.06h2.46Zm70.88-72.13v20.07h-1.97c-1.17-4.63-2.46-7.96-3.89-9.98s-3.37-3.64-5.85-4.84c-1.38-.66-3.8-.99-7.27-.99h-5.52v57.2c0 3.8.2 6.17.62 7.12a5.64 5.64 0 0 0 2.47 2.49c1.22.7 2.88 1.06 5 1.06h2.46v2.03h-38.83v-2.03h2.46c2.15 0 3.89-.38 5.2-1.15a5.23 5.23 0 0 0 2.24-2.62c.4-.88.6-3.17.6-6.9v-57.2h-5.36c-5 0-8.62 1.06-10.88 3.18-3.17 2.95-5.18 7.16-6.02 12.63h-2.07v-20.07h66.6Zm11.97 34.73v-2.41c4.23-1.82 7.3-4.18 9.22-7.08s2.87-5.88 2.87-8.94c0-.59-.13-1.04-.39-1.37-.25-.3-.5-.44-.76-.44-.22 0-.55.13-.99.38a7.67 7.67 0 0 1-3.93.93 7.47 7.47 0 0 1-5.6-2.51 8.32 8.32 0 0 1-2.39-5.9c0-2.41.91-4.53 2.74-6.35a9.01 9.01 0 0 1 6.61-2.74c3.14 0 5.82 1.22 8.04 3.64 2.23 2.43 3.34 5.75 3.34 9.98 0 5.21-1.58 9.84-4.73 13.9-3.16 4.04-7.83 7.01-14.03 8.9Zm77.27-36.43.6 24.72H543c-1.05-6.2-3.65-11.18-7.79-14.95-4.14-3.78-8.61-5.66-13.42-5.66-3.72 0-6.67.99-8.84 2.98-2.17 1.98-3.25 4.27-3.25 6.86 0 1.64.38 3.1 1.15 4.37 1.05 1.72 2.75 3.41 5.08 5.09 1.72 1.2 5.67 3.34 11.87 6.4 8.68 4.26 14.53 8.3 17.56 12.08a20.45 20.45 0 0 1 4.48 13.02c0 6.2-2.42 11.53-7.25 16-4.83 4.46-10.96 6.7-18.4 6.7a29.4 29.4 0 0 1-6.62-.72 49.97 49.97 0 0 1-7.82-2.68 11.84 11.84 0 0 0-4.32-1.09c-.94 0-1.95.37-3 1.1a7.65 7.65 0 0 0-2.57 3.33h-2.03v-28h2.03c1.6 7.88 4.69 13.88 9.27 18.02 4.57 4.14 9.5 6.2 14.79 6.2 4.08 0 7.33-1.1 9.76-3.33 2.42-2.22 3.64-4.81 3.64-7.76 0-1.75-.47-3.45-1.4-5.09s-2.34-3.2-4.24-4.68c-1.9-1.47-5.25-3.4-10.06-5.77-6.74-3.31-11.6-6.14-14.55-8.47a26 26 0 0 1-6.8-7.82 19.4 19.4 0 0 1-2.38-9.52c0-5.9 2.17-10.94 6.5-15.1 4.34-4.15 9.81-6.23 16.41-6.23 2.4 0 4.74.3 7 .88 1.71.44 3.8 1.25 6.26 2.43 2.46 1.19 4.19 1.78 5.17 1.78.95 0 1.7-.3 2.24-.88.55-.58 1.06-1.98 1.53-4.2h1.64Zm-306.05 167.2v22.97c0 3.79.2 6.16.63 7.1a5.64 5.64 0 0 0 2.46 2.5c1.22.7 2.87 1.06 4.95 1.06h2.46v2.03H210.3v-2.03h2.46c2.15 0 3.89-.38 5.2-1.15a4.98 4.98 0 0 0 2.19-2.62c.4-.88.6-3.17.6-6.9v-48.77c0-3.8-.2-6.16-.6-7.11a5.48 5.48 0 0 0-2.44-2.5c-1.22-.7-2.87-1.06-4.95-1.06h-2.46v-2.02h38.78v2.02h-2.46c-2.16 0-3.89.39-5.2 1.15a5.23 5.23 0 0 0-2.24 2.63c-.4.87-.6 3.17-.6 6.89v21h26.2v-21c0-3.8-.2-6.16-.61-7.11a5.46 5.46 0 0 0-2.46-2.5c-1.24-.7-2.9-1.06-4.98-1.06h-2.4v-2.02h38.72v2.02h-2.41c-2.19 0-3.92.39-5.2 1.15a5.23 5.23 0 0 0-2.24 2.63c-.4.87-.6 3.17-.6 6.89v48.78c0 3.79.2 6.16.6 7.1.4.96 1.22 1.78 2.46 2.5 1.24.7 2.9 1.06 4.98 1.06h2.4v2.03h-38.71v-2.03h2.4c2.19 0 3.92-.38 5.2-1.15a5.23 5.23 0 0 0 2.24-2.62c.4-.88.6-3.17.6-6.9v-22.96h-26.2Zm97.4-39.54c11.8-.44 21.4 3 28.79 10.34s11.07 16.5 11.07 27.5c0 9.41-2.75 17.69-8.26 24.83-7.29 9.48-17.59 14.22-30.9 14.22-13.34 0-23.66-4.52-30.95-13.56-5.76-7.15-8.64-15.62-8.64-25.43 0-11.01 3.75-20.19 11.24-27.54 7.5-7.34 16.7-10.8 27.65-10.36Zm.65 3.5c-6.78 0-11.94 3.46-15.47 10.4-2.89 5.68-4.33 13.85-4.33 24.5 0 12.64 2.23 22 6.68 28.05 3.1 4.22 7.43 6.34 13.01 6.34 3.76 0 6.9-.91 9.4-2.74 3.22-2.33 5.71-6.06 7.5-11.18s2.68-11.8 2.68-20.04c0-9.8-.91-17.15-2.73-22.01-1.83-4.87-4.15-8.3-6.98-10.31-2.82-2-6.08-3.01-9.76-3.01Zm115.61-4.16v25.7h-2.13c-1.6-6.7-4.6-11.84-8.97-15.42a22.89 22.89 0 0 0-14.88-5.35 22 22 0 0 0-12.74 3.99 23.28 23.28 0 0 0-8.48 10.44 47.29 47.29 0 0 0-3.44 18.38c0 6.63.84 12.68 2.51 18.13 1.68 5.45 4.3 9.57 7.88 12.36 3.57 2.79 8.2 4.18 13.9 4.18a27.1 27.1 0 0 0 12.81-3.06C442.6 423.53 446.7 420 451 415v6.4c-4.15 4.34-8.48 7.48-12.99 9.43-4.5 1.95-9.76 2.93-15.77 2.93-7.92 0-14.94-1.59-21.09-4.76a33.63 33.63 0 0 1-14.21-13.67 38.17 38.17 0 0 1-5-18.98 39.3 39.3 0 0 1 5.54-20.12c3.7-6.34 8.7-11.27 14.99-14.77s12.97-5.25 20.04-5.25c5.21 0 10.72 1.13 16.52 3.4 3.35 1.3 5.48 1.96 6.4 1.96 1.16 0 2.17-.42 3.03-1.28.86-.86 1.41-2.22 1.67-4.08h2.13Zm50.42 30.08 26.09 32.65c3.68 4.6 6.85 7.71 9.51 9.35a11.66 11.66 0 0 0 6.13 1.75v2.03h-38.61v-2.03c2.44-.22 4.02-.6 4.73-1.15s1.07-1.22 1.07-2.02c0-1.53-1.68-4.41-5.04-8.64l-17-21.38-2.74 2.3v20.23c0 3.86.22 6.27.66 7.22a5.51 5.51 0 0 0 2.51 2.43c1.24.68 3.23 1.01 5.97 1.01v2.03h-37.41v-2.03H461c2.15 0 3.88-.38 5.2-1.15a4.98 4.98 0 0 0 2.18-2.62c.4-.88.6-3.17.6-6.9v-48.77c0-3.8-.2-6.16-.6-7.11a5.48 5.48 0 0 0-2.43-2.5c-1.22-.7-2.87-1.06-4.95-1.06h-2.46v-2.02h36.91v2.02c-2.51 0-4.43.37-5.74 1.1a5.25 5.25 0 0 0-2.24 2.57c-.44.9-.66 3.24-.66 7v23.07l27.51-22.25c3.83-3.1 5.74-5.58 5.74-7.44 0-1.39-.78-2.48-2.35-3.28-.8-.4-2.79-.66-5.96-.77v-2.02h28.93v2.02c-2.59.19-4.62.65-6.1 1.4-1.47.75-4.88 3.27-10.2 7.57l-21.7 17.4Z"/><path d="M571.3 362.18v30.2h1.48c4.7 0 8.11-1.48 10.23-4.44 2.11-2.95 3.46-7.3 4.04-13.07h2.08v38.83h-2.08c-.43-4.23-1.35-7.7-2.76-10.39-1.4-2.7-3.03-4.51-4.9-5.44s-4.55-1.4-8.09-1.4v20.9c0 4.08.18 6.58.52 7.49.35.9 1 1.66 1.94 2.24.95.58 2.48.87 4.6.87h4.43c6.93 0 12.48-1.6 16.65-4.8 4.17-3.22 7.17-8.1 9-14.66h2.02l-3.34 23.57h-64.09v-2.03h2.46c2.15 0 3.88-.38 5.2-1.15a4.98 4.98 0 0 0 2.18-2.62c.4-.88.6-3.17.6-6.9v-48.77c0-3.36-.09-5.42-.27-6.18a5.24 5.24 0 0 0-2.02-2.96c-1.39-1.02-3.28-1.53-5.69-1.53h-2.46v-2.02h62.07v21.93h-2.08c-1.06-5.36-2.54-9.2-4.45-11.54-1.92-2.33-4.63-4.05-8.13-5.14-2.04-.66-5.87-.99-11.48-.99h-7.66Zm121.46-4.26v2.02c-2.44.33-4.32 1.04-5.63 2.14-1.82 1.53-4.7 5.7-8.64 12.52l-16.08 26.85v17.94c0 3.83.2 6.2.6 7.13.4.93 1.2 1.75 2.38 2.47a9.14 9.14 0 0 0 4.73 1.06h4.16v2.02h-41.62v-2.02h3.89c2.18 0 3.91-.38 5.2-1.15a5.23 5.23 0 0 0 2.23-2.62c.4-.88.6-3.17.6-6.9v-14.87l-17.44-31.77c-3.46-6.27-5.9-9.96-7.33-11.08-1.42-1.1-3.32-1.68-5.69-1.72v-2.02h35.55v2.02h-1.58c-2.16 0-3.66.31-4.52.93-.85.62-1.28 1.28-1.28 1.97 0 1.31 1.46 4.61 4.37 9.9l13.4 24.55 13.35-22.36c3.31-5.47 4.97-9.1 4.97-10.89 0-.98-.47-1.8-1.42-2.46-1.24-.9-3.52-1.45-6.84-1.64v-2.02h22.64ZM435.3 483.88c11.8-.44 21.4 3 28.79 10.34s11.07 16.5 11.07 27.5c0 9.41-2.75 17.69-8.25 24.83-7.3 9.48-17.6 14.22-30.9 14.22-13.35 0-23.66-4.52-30.96-13.56-5.76-7.15-8.64-15.62-8.64-25.43 0-11.01 3.75-20.19 11.24-27.54 7.5-7.34 16.71-10.8 27.65-10.36Zm.65 3.5c-6.78 0-11.94 3.46-15.47 10.4-2.88 5.68-4.32 13.85-4.32 24.5 0 12.64 2.22 22 6.67 28.05 3.1 4.22 7.44 6.34 13.01 6.34 3.76 0 6.9-.91 9.41-2.74 3.2-2.33 5.7-6.06 7.5-11.18 1.78-5.12 2.67-11.8 2.67-20.04 0-9.8-.91-17.15-2.73-22.01-1.83-4.87-4.15-8.3-6.98-10.31-2.82-2-6.08-3.01-9.76-3.01Zm51.14 32.27v-2.41c4.22-1.82 7.3-4.18 9.21-7.08s2.87-5.88 2.87-8.94c0-.59-.13-1.04-.38-1.37-.26-.3-.51-.44-.77-.44-.22 0-.54.13-.98.38a7.67 7.67 0 0 1-3.94.93 7.47 7.47 0 0 1-5.6-2.51 8.32 8.32 0 0 1-2.38-5.9c0-2.41.9-4.53 2.73-6.35a9.01 9.01 0 0 1 6.62-2.74c3.13 0 5.81 1.22 8.04 3.64 2.22 2.43 3.33 5.75 3.33 9.98a22 22 0 0 1-4.73 13.9c-3.15 4.04-7.83 7.01-14.02 8.9Zm-220.8 90.57v25.7h-2.14c-1.6-6.7-4.59-11.84-8.97-15.42a22.89 22.89 0 0 0-14.87-5.35c-4.63 0-8.88 1.33-12.74 3.99a23.28 23.28 0 0 0-8.48 10.44 47.29 47.29 0 0 0-3.44 18.38c0 6.63.83 12.68 2.51 18.13 1.68 5.45 4.3 9.57 7.88 12.36 3.57 2.79 8.2 4.18 13.89 4.18 4.66 0 8.94-1.02 12.82-3.06 3.88-2.04 7.98-5.56 12.28-10.56v6.4c-4.16 4.34-8.49 7.48-12.99 9.43-4.5 1.95-9.76 2.93-15.78 2.93-7.91 0-14.94-1.59-21.08-4.76a33.63 33.63 0 0 1-14.22-13.67 38.17 38.17 0 0 1-5-18.98c0-7.07 1.85-13.78 5.55-20.12 3.7-6.34 8.7-11.27 14.98-14.77s12.97-5.25 20.05-5.25c5.2 0 10.71 1.13 16.51 3.4 3.36 1.3 5.49 1.96 6.4 1.96 1.17 0 2.18-.42 3.04-1.28.85-.86 1.4-2.22 1.66-4.08h2.14Zm74.48 49.82-2.79 26.04h-65.84v-2.03h2.46c2.15 0 3.88-.38 5.2-1.15a4.98 4.98 0 0 0 2.18-2.62c.4-.88.6-3.17.6-6.9v-48.77c0-3.8-.2-6.16-.6-7.11a5.48 5.48 0 0 0-2.43-2.5c-1.22-.7-2.87-1.06-4.95-1.06h-2.46v-2.02h39.54v2.02h-3.23c-2.15 0-3.88.39-5.2 1.15a5.23 5.23 0 0 0-2.24 2.63c-.4.87-.6 3.17-.6 6.89v47.25c0 3.79.22 6.2.66 7.24s1.3 1.82 2.57 2.33c.9.32 3.11.49 6.61.49h6.18c3.94 0 7.22-.7 9.85-2.08a18.34 18.34 0 0 0 6.8-6.56c1.92-3 3.73-7.4 5.45-13.24h2.24Zm44.9-49.16c11.81-.44 21.4 3 28.8 10.34s11.07 16.5 11.07 27.5c0 9.41-2.76 17.69-8.26 24.83-7.3 9.48-17.6 14.22-30.9 14.22-13.34 0-23.66-4.52-30.95-13.56-5.76-7.15-8.64-15.62-8.64-25.43 0-11.01 3.74-20.19 11.23-27.54 7.5-7.34 16.71-10.8 27.65-10.36Zm.65 3.5c-6.78 0-11.94 3.46-15.47 10.4-2.88 5.68-4.32 13.84-4.32 24.49 0 12.65 2.22 22 6.67 28.06 3.1 4.22 7.44 6.34 13.01 6.34 3.76 0 6.9-.91 9.41-2.74 3.2-2.33 5.7-6.06 7.5-11.18 1.78-5.12 2.67-11.8 2.67-20.04 0-9.8-.9-17.15-2.73-22.01-1.82-4.87-4.15-8.3-6.97-10.31a16.5 16.5 0 0 0-9.77-3.01Zm115.61-4.16v25.7h-2.13c-1.6-6.7-4.6-11.84-8.97-15.42a22.89 22.89 0 0 0-14.87-5.35c-4.63 0-8.88 1.33-12.75 3.99a23.28 23.28 0 0 0-8.47 10.44 47.29 47.29 0 0 0-3.45 18.38c0 6.63.84 12.68 2.52 18.13 1.68 5.45 4.3 9.57 7.87 12.36 3.58 2.79 8.2 4.18 13.9 4.18 4.66 0 8.94-1.02 12.82-3.06 3.88-2.04 7.97-5.56 12.28-10.56v6.4c-4.16 4.34-8.5 7.48-13 9.43-4.5 1.95-9.75 2.93-15.77 2.93-7.91 0-14.94-1.59-21.08-4.76a33.63 33.63 0 0 1-14.22-13.67 38.17 38.17 0 0 1-5-18.98c0-7.07 1.84-13.78 5.55-20.12 3.7-6.34 8.7-11.27 14.98-14.77s12.97-5.25 20.04-5.25c5.22 0 10.72 1.13 16.52 3.4 3.35 1.3 5.49 1.96 6.4 1.96 1.16 0 2.18-.42 3.03-1.28.86-.86 1.41-2.22 1.67-4.08h2.13Zm50.42 30.08 26.09 32.65c3.68 4.6 6.85 7.71 9.52 9.35a11.66 11.66 0 0 0 6.12 1.75v2.03h-38.6v-2.03c2.43-.22 4.01-.6 4.72-1.15s1.07-1.22 1.07-2.02c0-1.53-1.68-4.41-5.03-8.64l-17.01-21.38-2.73 2.3v20.23c0 3.86.21 6.27.65 7.22a5.51 5.51 0 0 0 2.52 2.43c1.24.68 3.22 1.01 5.96 1.01v2.03h-37.4v-2.03h2.45c2.15 0 3.89-.38 5.2-1.15a4.98 4.98 0 0 0 2.19-2.62c.4-.88.6-3.17.6-6.9v-48.77c0-3.8-.2-6.16-.6-7.11a5.48 5.48 0 0 0-2.44-2.5c-1.22-.7-2.87-1.06-4.95-1.06h-2.46v-2.02h36.92v2.02c-2.52 0-4.43.37-5.75 1.1a5.25 5.25 0 0 0-2.24 2.57c-.44.9-.65 3.24-.65 7v23.07l27.5-22.25c3.83-3.1 5.75-5.58 5.75-7.44 0-1.39-.79-2.48-2.36-3.28-.8-.4-2.79-.66-5.96-.77v-2.02h28.93v2.02c-2.59.19-4.62.65-6.1 1.4-1.47.75-4.87 3.27-10.2 7.57l-21.7 17.4Zm117.75-28.38v2.02c-2.45.33-4.32 1.04-5.64 2.14-1.82 1.53-4.7 5.7-8.64 12.52l-16.07 26.85v17.94c0 3.83.2 6.2.6 7.13.4.93 1.19 1.75 2.38 2.47a9.14 9.14 0 0 0 4.73 1.06h4.15v2.03H610v-2.03h3.88c2.19 0 3.92-.38 5.2-1.15a5.23 5.23 0 0 0 2.24-2.62c.4-.88.6-3.17.6-6.9v-14.87l-17.45-31.77c-3.46-6.27-5.9-9.96-7.33-11.07-1.42-1.12-3.31-1.69-5.68-1.73v-2.02H627v2.02h-1.58c-2.15 0-3.66.31-4.51.93-.86.62-1.29 1.28-1.29 1.97 0 1.31 1.46 4.61 4.38 9.9l13.4 24.55 13.34-22.36c3.31-5.47 4.97-9.1 4.97-10.89 0-.98-.47-1.8-1.42-2.46-1.24-.9-3.52-1.45-6.83-1.64v-2.02h22.64Zm18.8 50.04h-2.4a89.88 89.88 0 0 0-2.51-15.1l-2.85-11.92c-1.71-7.14-2.57-12.27-2.57-15.36 0-2.81.84-5.07 2.52-6.79a8.78 8.78 0 0 1 6.56-2.57 8.86 8.86 0 0 1 9.13 9.2c0 2.76-.9 7.94-2.73 15.52l-2.9 11.92a99.42 99.42 0 0 0-2.24 15.1Zm-1.14 7.82a8.5 8.5 0 0 1 6.26 2.6 8.6 8.6 0 0 1 2.6 6.31c0 2.45-.87 4.53-2.6 6.26-1.73 1.74-3.82 2.6-6.26 2.6s-4.53-.86-6.26-2.6c-1.73-1.73-2.6-3.81-2.6-6.26s.86-4.54 2.57-6.29a8.46 8.46 0 0 1 6.29-2.62Z"/></g></svg>
