<svg xmlns="http://www.w3.org/2000/svg" viewBox="0 0 900 900"><circle cx="450" cy="450" r="450" fill="#1c2759"/><path d="M248.49 285.17h-22.22l-2.65 6.12c-.86 2.04-1.3 3.73-1.3 5.06a4.2 4.2 0 0 0 2.14 3.9c.83.49 2.9.86 6.17 1.1v1.73H209.7v-1.72a9.36 9.36 0 0 0 5.56-2.8c1.46-1.54 3.25-4.7 5.39-9.5l22.5-50.18h.87l22.69 51.58c2.16 4.88 3.94 7.96 5.33 9.23 1.05.96 2.54 1.51 4.46 1.67v1.72h-30.43v-1.72h1.25c2.44 0 4.16-.34 5.15-1.02.68-.5 1.02-1.2 1.02-2.14 0-.55-.1-1.12-.28-1.71-.06-.28-.53-1.44-1.4-3.48l-3.33-7.84Zm-1.58-3.43-9.37-21.67-9.65 21.67h19.02Zm52.93-41.57v53.9c0 3.07.36 5.02 1.07 5.87.7.86 2.1 1.34 4.17 1.47v1.67h-23.42v-1.67c1.91-.07 3.34-.62 4.26-1.67.62-.72.93-2.6.93-5.66v-44.9c0-3.04-.35-4.98-1.06-5.83-.72-.85-2.1-1.33-4.13-1.46v-1.72h18.18Zm28.72 3.67v15.86h10.3v4.6h-10.3v26.76c0 2.5.11 4.12.34 4.85a3.5 3.5 0 0 0 1.23 1.76c.59.45 1.13.67 1.63.67 2 0 3.9-1.53 5.7-4.59l1.4 1.02c-2.51 5.94-6.58 8.9-12.2 8.9-2.76 0-5.09-.76-6.99-2.29a10.13 10.13 0 0 1-3.64-5.12c-.3-1.05-.46-3.9-.46-8.54V264.3h-5.66v-1.63a59.83 59.83 0 0 0 9.95-8.67 52.82 52.82 0 0 0 7.16-10.16h1.54Zm53.25 36h-23.8c.28 5.75 1.81 10.3 4.6 13.63 2.13 2.57 4.7 3.85 7.7 3.85a8.7 8.7 0 0 0 5.05-1.55c1.52-1.04 3.14-2.9 4.87-5.59l1.58 1.02c-2.35 4.8-4.95 8.19-7.8 10.18-2.84 2-6.13 3-9.87 3-6.44 0-11.3-2.48-14.61-7.43-2.66-3.99-4-8.93-4-14.84 0-7.24 1.96-13 5.87-17.28 3.92-4.28 8.5-6.43 13.76-6.43 4.39 0 8.2 1.8 11.43 5.4 3.23 3.61 4.97 8.95 5.22 16.04Zm-11.41-3.11c0-4.98-.27-8.4-.81-10.25s-1.39-3.27-2.53-4.23a3.85 3.85 0 0 0-2.6-.83c-1.6 0-2.92.79-3.94 2.36-1.83 2.76-2.74 6.53-2.74 11.32v1.63h12.62Zm36.93-17.03v9.84c2.87-4.49 5.4-7.46 7.56-8.93 2.16-1.47 4.25-2.2 6.26-2.2 1.73 0 3.11.53 4.15 1.6 1.04 1.06 1.55 2.57 1.55 4.52 0 2.07-.5 3.68-1.5 4.82a4.68 4.68 0 0 1-3.64 1.72 6.29 6.29 0 0 1-4.27-1.58 26.27 26.27 0 0 0-2.13-1.76 2.04 2.04 0 0 0-1.07-.28c-.9 0-1.75.34-2.55 1.02a9.61 9.61 0 0 0-2.88 4.5c-.99 3-1.48 6.3-1.48 9.93v9.97l.04 2.6c0 1.76.11 2.89.33 3.38.37.84.92 1.45 1.64 1.84.73.38 1.96.62 3.7.72v1.67H389.6v-1.67c1.88-.16 3.16-.68 3.82-1.56.67-.88 1-3.2 1-6.98v-23.98c0-2.48-.12-4.05-.37-4.73a3.7 3.7 0 0 0-1.35-1.9c-.58-.4-1.62-.68-3.1-.84v-1.72h17.72Zm43.97 0v5.62c2.23-2.42 4.36-4.17 6.4-5.27s4.24-1.65 6.6-1.65c2.8 0 5.14.79 7 2.35s3.09 3.5 3.7 5.82c.5 1.76.75 5.15.75 10.16v16.88c0 3.34.3 5.42.9 6.24.6.82 1.87 1.34 3.78 1.56v1.67H458.5v-1.67c1.64-.22 2.82-.9 3.53-2.05.5-.77.74-2.69.74-5.75v-19.3c0-3.55-.14-5.8-.42-6.72a4.12 4.12 0 0 0-1.41-2.16 3.54 3.54 0 0 0-2.2-.76c-2.66 0-5.14 1.9-7.43 5.7v23.24c0 3.25.3 5.3.9 6.17.61.87 1.73 1.41 3.37 1.63v1.67h-21.94v-1.67c1.82-.19 3.12-.78 3.9-1.77.52-.68.79-2.69.79-6.03v-24.49c0-3.28-.3-5.32-.9-6.12-.61-.8-1.87-1.33-3.79-1.58v-1.72h17.67Zm61.14 36.97c-5.29 4.67-10.03 7-14.24 7a8.4 8.4 0 0 1-6.17-2.43 8.23 8.23 0 0 1-2.46-6.1c0-3.3 1.43-6.28 4.27-8.93 2.85-2.64 9.05-6.16 18.6-10.55v-4.36c0-3.28-.17-5.34-.53-6.2a5 5 0 0 0-2.02-2.22 6.07 6.07 0 0 0-3.34-.95c-2 0-3.66.45-4.96 1.35-.8.55-1.2 1.2-1.2 1.94 0 .65.43 1.46 1.3 2.42 1.17 1.33 1.75 2.61 1.75 3.85 0 1.51-.56 2.8-1.69 3.87a6.19 6.19 0 0 1-4.43 1.6c-1.95 0-3.58-.59-4.9-1.76s-1.96-2.55-1.96-4.13c0-2.23.88-4.35 2.64-6.38s4.22-3.58 7.37-4.66a30.1 30.1 0 0 1 9.84-1.63c4.11 0 7.37.88 9.76 2.63 2.4 1.74 3.95 3.64 4.67 5.68.43 1.3.64 4.28.64 8.95v16.84c0 1.98.08 3.22.24 3.73.15.51.38.9.7 1.14.3.25.66.37 1.06.37.8 0 1.62-.57 2.46-1.72l1.39 1.12a16.93 16.93 0 0 1-4.8 4.98 10.4 10.4 0 0 1-5.64 1.56c-2.47 0-4.4-.58-5.8-1.74-1.39-1.16-2.24-2.92-2.55-5.27Zm0-3.38v-14.52c-3.74 2.2-6.52 4.54-8.35 7.05a8.58 8.58 0 0 0-1.8 5.06c0 1.42.5 2.67 1.52 3.75a4.2 4.2 0 0 0 3.25 1.25c1.55 0 3.34-.86 5.38-2.6Zm42.86-49.45v15.86h10.3v4.6h-10.3v26.76c0 2.5.12 4.12.36 4.85a3.5 3.5 0 0 0 1.23 1.76 2.7 2.7 0 0 0 1.62.67c2 0 3.91-1.53 5.7-4.59l1.4 1.02c-2.5 5.94-6.58 8.9-12.2 8.9-2.76 0-5.08-.76-6.98-2.29a10.13 10.13 0 0 1-3.65-5.12c-.3-1.05-.46-3.9-.46-8.54V264.3h-5.66v-1.63a59.83 59.83 0 0 0 9.95-8.67 52.82 52.82 0 0 0 7.17-10.16h1.53Zm33.46 15.86v34.38c0 3.06.35 5.01 1.06 5.86.71.85 2.1 1.34 4.18 1.47v1.67h-23.43v-1.67c1.92-.07 3.34-.62 4.27-1.67.62-.72.93-2.6.93-5.66v-25.33c0-3.06-.36-5.02-1.07-5.87-.71-.85-2.09-1.34-4.13-1.46v-1.72h18.19Zm-6.5-21.01c2.01 0 3.71.7 5.1 2.11 1.4 1.4 2.1 3.1 2.1 5.08s-.71 3.67-2.12 5.06-3.1 2.08-5.08 2.08-3.66-.7-5.05-2.08c-1.4-1.4-2.1-3.08-2.1-5.06s.7-3.67 2.1-5.08a6.85 6.85 0 0 1 5.05-2.11Zm37.62 65.68-14.6-33.63c-1.77-4.05-3.15-6.61-4.14-7.7a5.5 5.5 0 0 0-3.15-1.62v-1.72h23.05v1.72c-1.45 0-2.44.26-2.97.79a3.17 3.17 0 0 0-1.11 2.41c0 1.15.68 3.3 2.04 6.45l7.14 16.28 5.71-14.06c1.64-4.01 2.46-6.86 2.46-8.53 0-.96-.35-1.74-1.04-2.34-.7-.6-1.93-.94-3.7-1v-1.72h14.2v1.72c-1.36.19-2.47.7-3.34 1.53-.86.84-2.16 3.3-3.9 7.38l-14.47 34.04h-2.18Zm66.76-24.53h-23.8c.28 5.75 1.8 10.3 4.6 13.63 2.13 2.57 4.7 3.85 7.7 3.85 1.85 0 3.53-.51 5.05-1.55 1.51-1.04 3.14-2.9 4.87-5.59l1.58 1.02c-2.35 4.8-4.95 8.19-7.8 10.18-2.84 2-6.14 3-9.88 3-6.43 0-11.3-2.48-14.6-7.43-2.67-3.99-4-8.93-4-14.84 0-7.24 1.96-13 5.87-17.28 3.91-4.28 8.5-6.43 13.75-6.43 4.4 0 8.2 1.8 11.44 5.4 3.23 3.61 4.97 8.95 5.22 16.04Zm-11.41-3.11c0-4.98-.28-8.4-.82-10.25s-1.38-3.27-2.52-4.23a3.85 3.85 0 0 0-2.6-.83c-1.61 0-2.92.79-3.94 2.36-1.83 2.76-2.74 6.53-2.74 11.32v1.63h12.62Zm-429.9 88.07v25.83h1.81c2.79 0 5.06-.42 6.82-1.25a10.7 10.7 0 0 0 4.48-4.22c1.22-1.98 2.02-4.66 2.39-8.03h1.62v31.6h-1.62c-.59-5.98-2.19-9.91-4.8-11.81a14.72 14.72 0 0 0-8.89-2.86h-1.8v19.25c0 3.22.17 5.23.53 6.03.35.8 1.05 1.51 2.09 2.11 1.03.6 2.43.9 4.2.9h2.08v1.73h-32.89v-1.72h2.09a8.7 8.7 0 0 0 4.4-.98 4.23 4.23 0 0 0 1.86-2.22c.34-.74.51-2.7.51-5.85v-41.37c0-3.22-.17-5.23-.5-6.03a4.64 4.64 0 0 0-2.07-2.11 8.33 8.33 0 0 0-4.2-.9h-2.09v-1.73h53.07v18.05h-1.9c-.44-4.24-1.54-7.38-3.32-9.42s-4.35-3.48-7.72-4.31c-1.86-.47-5.29-.7-10.3-.7h-5.85Zm61.15 52.87c-5.3 4.67-10.04 7-14.25 7a8.4 8.4 0 0 1-6.16-2.43 8.23 8.23 0 0 1-2.46-6.1c0-3.3 1.42-6.28 4.26-8.93 2.85-2.64 9.05-6.16 18.6-10.55v-4.36c0-3.28-.17-5.34-.53-6.2a5 5 0 0 0-2.02-2.22 6.07 6.07 0 0 0-3.34-.95c-2 0-3.66.45-4.96 1.35-.8.55-1.2 1.2-1.2 1.94 0 .65.43 1.46 1.3 2.42 1.17 1.33 1.76 2.6 1.76 3.85 0 1.51-.57 2.8-1.7 3.87a6.19 6.19 0 0 1-4.43 1.6 7.07 7.07 0 0 1-4.9-1.76 5.38 5.38 0 0 1-1.96-4.13c0-2.23.88-4.35 2.64-6.38s4.22-3.58 7.38-4.66a30.1 30.1 0 0 1 9.83-1.62c4.11 0 7.37.87 9.77 2.62 2.4 1.74 3.95 3.64 4.66 5.68.43 1.3.65 4.28.65 8.95v16.84c0 1.98.07 3.22.23 3.73.15.51.39.9.7 1.14.3.25.66.37 1.06.37.8 0 1.63-.57 2.46-1.72l1.4 1.12a17.02 17.02 0 0 1-4.8 4.98 10.4 10.4 0 0 1-5.64 1.56c-2.48 0-4.41-.58-5.8-1.74-1.4-1.16-2.25-2.92-2.55-5.27Zm0-3.38v-14.52c-3.75 2.2-6.53 4.54-8.35 7.05a8.58 8.58 0 0 0-1.81 5.06c0 1.42.5 2.67 1.53 3.75a4.2 4.2 0 0 0 3.25 1.26c1.54 0 3.33-.87 5.38-2.6Zm61.04-1.39 1.44 1.1c-2.04 3.84-4.58 6.7-7.63 8.57a18.26 18.26 0 0 1-9.72 2.8c-5.78 0-10.4-2.18-13.87-6.54-3.46-4.36-5.2-9.6-5.2-15.72 0-5.9 1.58-11.1 4.74-15.59 3.8-5.4 9.04-8.11 15.72-8.11 4.49 0 8.05 1.12 10.7 3.38 2.64 2.26 3.96 4.78 3.96 7.56 0 1.76-.53 3.17-1.6 4.22a5.72 5.72 0 0 1-4.2 1.58 6.1 6.1 0 0 1-4.52-1.8c-1.19-1.21-1.92-3.36-2.2-6.46-.19-1.94-.64-3.3-1.35-4.08a3.3 3.3 0 0 0-2.5-1.16c-1.49 0-2.76.79-3.8 2.37-1.61 2.38-2.42 6.03-2.42 10.94 0 4.09.65 8 1.95 11.72s3.08 6.5 5.33 8.32a9.5 9.5 0 0 0 6.03 2c1.52 0 2.96-.36 4.32-1.07 1.36-.7 2.97-2.06 4.82-4.03Zm26.08-48.06v15.86h10.3v4.6h-10.3v26.76c0 2.5.11 4.12.34 4.85a3.5 3.5 0 0 0 1.23 1.76c.59.45 1.13.67 1.63.67 2 0 3.9-1.53 5.7-4.59l1.4 1.02c-2.51 5.94-6.58 8.9-12.2 8.9-2.76 0-5.09-.76-6.99-2.29a10.13 10.13 0 0 1-3.64-5.12c-.31-1.05-.46-3.9-.46-8.54V385.3h-5.66v-1.63a59.88 59.88 0 0 0 9.95-8.67 52.83 52.83 0 0 0 7.16-10.16h1.53Zm29.13 44.95c2.16 0 4 .76 5.5 2.27a7.5 7.5 0 0 1 2.25 5.47c0 2.14-.76 3.96-2.28 5.46a7.5 7.5 0 0 1-5.47 2.25 7.43 7.43 0 0 1-5.45-2.25 7.42 7.42 0 0 1-2.25-5.46 7.5 7.5 0 0 1 2.25-5.47 7.38 7.38 0 0 1 5.45-2.27Zm.04-30.34c2.14 0 3.96.75 5.46 2.25s2.25 3.32 2.25 5.45-.75 3.95-2.25 5.45-3.32 2.25-5.46 2.25-3.95-.75-5.45-2.25-2.25-3.31-2.25-5.45.75-3.95 2.25-5.45a7.42 7.42 0 0 1 5.45-2.25Zm69.36 16.15v17.44c0 3.4.2 5.54.62 6.42a4.57 4.57 0 0 0 2.23 2.11c1.07.53 3.02.79 5.87.79v1.72h-31.96v-1.72c2.9 0 4.88-.27 5.91-.81a4.73 4.73 0 0 0 2.18-2.11c.42-.87.63-3 .63-6.4V372.2c0-3.4-.21-5.54-.63-6.42a4.59 4.59 0 0 0-2.2-2.11c-1.05-.53-3.02-.79-5.9-.79v-1.72h27.42c9.03 0 15.51 1.61 19.44 4.83 3.93 3.22 5.9 7.24 5.9 12.06a15.4 15.4 0 0 1-3.81 10.48c-2.54 2.91-6.03 4.89-10.49 5.94-3 .74-8.07 1.11-15.21 1.11Zm0-30.8v27.18c1.02.06 1.8.09 2.32.09 3.77 0 6.68-1.12 8.72-3.36 2.04-2.25 3.06-5.72 3.06-10.42 0-4.67-1.02-8.08-3.06-10.25-2.04-2.16-5.09-3.25-9.14-3.25h-1.9Zm74.41 36.03h-23.8c.28 5.76 1.8 10.3 4.59 13.64 2.14 2.57 4.7 3.85 7.7 3.85 1.86 0 3.54-.51 5.06-1.55 1.51-1.04 3.14-2.9 4.87-5.59l1.58 1.02c-2.36 4.8-4.95 8.19-7.8 10.18-2.84 2-6.14 3-9.88 3-6.43 0-11.3-2.48-14.61-7.43-2.66-3.99-3.99-8.93-3.99-14.84 0-7.24 1.96-13 5.87-17.28 3.91-4.28 8.5-6.42 13.75-6.42 4.4 0 8.2 1.8 11.44 5.4 3.23 3.6 4.97 8.94 5.22 16.03Zm-11.42-3.1c0-4.98-.27-8.4-.8-10.25s-1.4-3.27-2.54-4.23a3.85 3.85 0 0 0-2.6-.83c-1.6 0-2.92.79-3.94 2.37-1.82 2.75-2.73 6.52-2.73 11.31v1.63h12.61Zm36.65-17.03v5.62c2.23-2.42 4.36-4.17 6.4-5.27s4.24-1.64 6.59-1.64c2.81 0 5.15.78 7 2.34 1.86 1.56 3.1 3.5 3.71 5.82.5 1.76.75 5.15.75 10.16v16.88c0 3.34.3 5.42.9 6.24.6.82 1.86 1.34 3.78 1.56v1.67h-21.94v-1.67c1.64-.22 2.81-.9 3.53-2.05.5-.77.74-2.69.74-5.75v-19.3c0-3.55-.14-5.8-.42-6.72a4.12 4.12 0 0 0-1.41-2.16 3.54 3.54 0 0 0-2.2-.76c-2.67 0-5.14 1.9-7.43 5.7v23.24c0 3.25.3 5.3.9 6.17.6.87 1.73 1.4 3.37 1.63v1.67H574.1v-1.67c1.82-.19 3.12-.78 3.9-1.77.52-.68.78-2.69.78-6.03v-24.49c0-3.28-.3-5.32-.9-6.12-.6-.8-1.86-1.33-3.78-1.58v-1.72h17.67Zm54.93 0v5.62c2.22-2.42 4.36-4.17 6.4-5.27s4.23-1.64 6.58-1.64c2.82 0 5.15.78 7 2.34 1.86 1.56 3.1 3.5 3.72 5.82.5 1.76.74 5.15.74 10.16v16.88c0 3.34.3 5.42.9 6.24.61.82 1.87 1.34 3.79 1.56v1.67h-21.94v-1.67c1.63-.22 2.81-.9 3.52-2.05.5-.77.74-2.69.74-5.75v-19.3c0-3.55-.14-5.8-.41-6.72a4.12 4.12 0 0 0-1.42-2.16 3.54 3.54 0 0 0-2.2-.76c-2.66 0-5.14 1.9-7.42 5.7v23.24c0 3.25.3 5.3.9 6.17.6.87 1.72 1.4 3.36 1.63v1.67h-21.94v-1.67c1.83-.19 3.13-.78 3.9-1.77.52-.68.79-2.69.79-6.03v-24.49c0-3.28-.3-5.32-.9-6.12-.6-.8-1.87-1.33-3.79-1.58v-1.72h17.68Zm-370.87 121v34.38c0 3.06.36 5.01 1.07 5.86.71.85 2.1 1.34 4.18 1.47v1.67h-23.43v-1.67c1.92-.07 3.34-.62 4.27-1.67.62-.72.93-2.6.93-5.66v-25.33c0-3.06-.36-5.02-1.07-5.87-.71-.85-2.09-1.34-4.13-1.46v-1.72h18.18Zm-6.49-21.01c2.01 0 3.71.7 5.1 2.11 1.4 1.4 2.1 3.1 2.1 5.08s-.71 3.66-2.12 5.06-3.1 2.08-5.08 2.08-3.66-.7-5.06-2.08c-1.39-1.4-2.08-3.08-2.08-5.06s.7-3.67 2.08-5.08a6.85 6.85 0 0 1 5.06-2.11Zm45.46 19.81.7 14.8h-1.58c-1.89-4.4-3.84-7.4-5.87-9-2.02-1.61-4.04-2.42-6.05-2.42-1.27 0-2.35.43-3.25 1.28a3.95 3.95 0 0 0-1.34 2.94c0 .84.3 1.64.93 2.42.98 1.27 3.75 3.44 8.3 6.51 4.54 3.08 7.54 5.7 8.97 7.84a12.68 12.68 0 0 1 2.16 7.22c0 2.4-.6 4.77-1.8 7.1a12.7 12.7 0 0 1-5.11 5.33 14.58 14.58 0 0 1-7.28 1.85c-2.08 0-4.84-.65-8.3-1.94a6.93 6.93 0 0 0-1.9-.51c-1.03 0-1.88.77-2.56 2.32h-1.53l-.74-15.59h1.57c1.4 4.08 3.3 7.14 5.73 9.18s4.73 3.07 6.9 3.07a5 5 0 0 0 3.63-1.37 4.44 4.44 0 0 0 1.42-3.32c0-1.48-.47-2.77-1.4-3.85-.92-1.08-3-2.72-6.2-4.92-4.74-3.27-7.8-5.78-9.2-7.51a13.08 13.08 0 0 1-3.06-8.4c0-3.34 1.16-6.36 3.46-9.07s5.64-4.05 10-4.05c2.35 0 4.62.57 6.82 1.71.83.47 1.51.7 2.04.7.55 0 1-.12 1.34-.35.34-.23.88-.89 1.62-1.97h1.58Zm61.42 38.17c-5.29 4.67-10.03 7-14.24 7a8.4 8.4 0 0 1-6.17-2.43 8.23 8.23 0 0 1-2.46-6.1c0-3.3 1.43-6.28 4.27-8.93 2.85-2.64 9.05-6.16 18.6-10.55v-4.36c0-3.28-.18-5.34-.53-6.2a5 5 0 0 0-2.02-2.22 6.07 6.07 0 0 0-3.34-.95c-2 0-3.66.45-4.96 1.35-.8.55-1.2 1.2-1.2 1.94 0 .65.43 1.46 1.3 2.42 1.17 1.33 1.75 2.6 1.75 3.85 0 1.51-.56 2.8-1.69 3.87a6.19 6.19 0 0 1-4.43 1.6 7.07 7.07 0 0 1-4.9-1.76 5.38 5.38 0 0 1-1.97-4.13c0-2.23.89-4.35 2.65-6.38s4.22-3.58 7.37-4.66a30.1 30.1 0 0 1 9.84-1.62c4.11 0 7.37.87 9.76 2.62 2.4 1.74 3.95 3.64 4.66 5.68.44 1.3.65 4.28.65 8.95v16.84c0 1.98.08 3.22.24 3.73.15.51.38.9.7 1.14.3.25.66.37 1.06.37.8 0 1.62-.57 2.46-1.72l1.39 1.12c-1.55 2.29-3.15 3.95-4.8 4.98a10.4 10.4 0 0 1-5.64 1.56c-2.47 0-4.4-.58-5.8-1.74-1.39-1.16-2.24-2.92-2.55-5.27Zm0-3.38v-14.52c-3.74 2.2-6.52 4.54-8.35 7.05a8.58 8.58 0 0 0-1.8 5.06c0 1.42.5 2.67 1.52 3.75a4.2 4.2 0 0 0 3.25 1.26c1.55 0 3.34-.87 5.38-2.6Zm79.33-33.08h14.61v5.1h-8.3a15.78 15.78 0 0 1 3.15 4.13 12.77 12.77 0 0 1 1.12 5.25c0 3.09-.86 5.77-2.58 8.04a17.08 17.08 0 0 1-7 5.34c-2.96 1.28-5.58 1.92-7.86 1.92-.19 0-2.05-.07-5.57-.23-1.4 0-2.56.46-3.5 1.37s-1.42 2-1.42 3.27a3.4 3.4 0 0 0 1.28 2.74c.85.71 2.23 1.06 4.15 1.06l8.02-.09c6.5 0 10.97.71 13.4 2.14 3.5 1.97 5.25 5.02 5.25 9.13 0 2.63-.8 5.02-2.41 7.17a14.15 14.15 0 0 1-6.36 4.76 38.75 38.75 0 0 1-13.77 2.27c-3.9 0-7.46-.38-10.67-1.14-3.22-.76-5.52-1.8-6.91-3.15-1.4-1.35-2.09-2.76-2.09-4.25 0-1.42.53-2.7 1.6-3.82 1.07-1.13 3.05-2.08 5.96-2.86-4.02-1.98-6.03-4.73-6.03-8.25 0-2.14.82-4.2 2.46-6.22 1.64-2 4.24-3.76 7.8-5.24-4.15-1.52-7.15-3.51-9-5.98a13.91 13.91 0 0 1-2.79-8.59c0-4.23 1.73-7.9 5.2-11.01 3.46-3.11 7.91-4.66 13.35-4.66 2.88 0 5.85.6 8.91 1.8Zm-10.76 49.27c-3.16 0-5.24.26-6.26.78-1.77.96-2.65 2.26-2.65 3.9 0 1.58.91 3 2.74 4.3 1.82 1.28 5.26 1.92 10.3 1.92 4.3 0 7.67-.58 10.13-1.72 2.46-1.14 3.69-2.75 3.69-4.82a2.8 2.8 0 0 0-.7-1.95 6.7 6.7 0 0 0-3.78-1.9c-1.68-.34-6.17-.51-13.47-.51Zm2.73-48.2c-1.79 0-3.3.9-4.54 2.71-1.24 1.81-1.86 5.56-1.86 11.25 0 4.61.61 7.77 1.84 9.49 1.22 1.72 2.66 2.57 4.33 2.57 1.86 0 3.4-.85 4.64-2.55 1.24-1.7 1.86-5 1.86-9.92 0-5.54-.7-9.31-2.09-11.32a4.74 4.74 0 0 0-4.18-2.23Zm47.78-1.58v9.84c2.88-4.49 5.4-7.46 7.57-8.93 2.16-1.47 4.25-2.2 6.26-2.2 1.73 0 3.11.53 4.15 1.6 1.04 1.06 1.55 2.57 1.55 4.52 0 2.07-.5 3.68-1.5 4.82a4.68 4.68 0 0 1-3.64 1.72 6.29 6.29 0 0 1-4.27-1.58 26.27 26.27 0 0 0-2.14-1.76 2.04 2.04 0 0 0-1.06-.28c-.9 0-1.75.34-2.55 1.02a9.62 9.62 0 0 0-2.88 4.5c-.99 3-1.48 6.3-1.48 9.93v9.97l.04 2.6c0 1.76.11 2.89.33 3.38.37.84.92 1.45 1.64 1.84.73.38 1.96.62 3.7.72v1.67h-23.43v-1.67c1.88-.16 3.16-.68 3.82-1.56.67-.88 1-3.2 1-6.98v-23.98c0-2.48-.12-4.05-.37-4.73a3.7 3.7 0 0 0-1.35-1.9c-.58-.4-1.62-.68-3.1-.84v-1.72h17.72Zm61.29 20.14h-23.8c.28 5.75 1.8 10.3 4.59 13.63 2.14 2.57 4.7 3.85 7.7 3.85 1.86 0 3.54-.51 5.06-1.55 1.51-1.04 3.14-2.9 4.87-5.59l1.58 1.02c-2.36 4.8-4.95 8.19-7.8 10.18-2.84 2-6.14 3-9.88 3-6.43 0-11.3-2.48-14.61-7.43-2.66-3.99-3.99-8.93-3.99-14.84 0-7.24 1.96-13 5.87-17.28 3.91-4.28 8.5-6.42 13.75-6.42 4.4 0 8.2 1.8 11.44 5.4 3.23 3.6 4.97 8.94 5.22 16.03Zm-11.42-3.11c0-4.98-.27-8.4-.8-10.25s-1.4-3.27-2.54-4.23a3.85 3.85 0 0 0-2.6-.83c-1.6 0-2.92.79-3.94 2.37-1.82 2.75-2.73 6.52-2.73 11.31v1.63h12.61Zm42.87 19.94c-5.29 4.67-10.04 7-14.24 7a8.4 8.4 0 0 1-6.17-2.43 8.23 8.23 0 0 1-2.46-6.1c0-3.3 1.42-6.28 4.27-8.93 2.84-2.64 9.04-6.16 18.6-10.55v-4.36c0-3.28-.18-5.34-.54-6.2a5 5 0 0 0-2.01-2.22 6.07 6.07 0 0 0-3.34-.95c-2.01 0-3.67.45-4.97 1.35-.8.55-1.2 1.2-1.2 1.94 0 .65.43 1.46 1.3 2.42 1.17 1.33 1.76 2.6 1.76 3.85 0 1.51-.57 2.8-1.7 3.87a6.19 6.19 0 0 1-4.42 1.6 7.07 7.07 0 0 1-4.9-1.76 5.38 5.38 0 0 1-1.97-4.13c0-2.23.88-4.35 2.64-6.38s4.23-3.58 7.38-4.66a30.1 30.1 0 0 1 9.83-1.62c4.12 0 7.37.87 9.77 2.62 2.4 1.74 3.95 3.64 4.66 5.68.43 1.3.65 4.28.65 8.95v16.84c0 1.98.08 3.22.23 3.73.16.51.39.9.7 1.14.3.25.66.37 1.06.37.8 0 1.63-.57 2.46-1.72l1.4 1.12c-1.55 2.29-3.15 3.95-4.8 4.98a10.4 10.4 0 0 1-5.64 1.56c-2.48 0-4.4-.58-5.8-1.74-1.4-1.16-2.24-2.92-2.55-5.27Zm0-3.38v-14.52c-3.74 2.2-6.53 4.54-8.35 7.05a8.58 8.58 0 0 0-1.81 5.06 5.3 5.3 0 0 0 1.53 3.75 4.2 4.2 0 0 0 3.25 1.26c1.54 0 3.34-.87 5.38-2.6Zm42.86-49.45v15.86h10.3v4.6h-10.3v26.76c0 2.5.12 4.12.35 4.85a3.5 3.5 0 0 0 1.23 1.76c.59.45 1.13.67 1.62.67 2.01 0 3.91-1.53 5.7-4.59l1.4 1.02c-2.5 5.94-6.57 8.9-12.2 8.9-2.75 0-5.08-.76-6.98-2.29a10.13 10.13 0 0 1-3.64-5.12c-.31-1.05-.47-3.9-.47-8.54V506.3h-5.66v-1.63a59.88 59.88 0 0 0 9.95-8.67 52.83 52.83 0 0 0 7.17-10.16h1.53ZM281.4 622.7v33.96c0 3.3.31 5.37.93 6.2.62.81 1.87 1.33 3.76 1.55v1.67H268.4v-5.8a22.31 22.31 0 0 1-6.21 5.4 14.3 14.3 0 0 1-6.96 1.7c-2.44 0-4.62-.76-6.52-2.26a10.97 10.97 0 0 1-3.82-5.26c-.66-2.01-.98-5.52-.98-10.53v-17.21c0-3.28-.3-5.32-.9-6.12-.6-.8-1.87-1.33-3.79-1.58v-1.72h17.68v29.64c0 3.1.15 5.1.44 5.99a3.64 3.64 0 0 0 3.6 2.74c1.1 0 2.11-.3 3-.89 1.25-.8 2.73-2.42 4.46-4.87v-23.19c0-3.28-.3-5.32-.9-6.12-.6-.8-1.87-1.33-3.78-1.58v-1.72h17.67Zm30.76 0v5.62c2.22-2.42 4.36-4.17 6.4-5.27s4.24-1.64 6.59-1.64c2.81 0 5.15.78 7 2.34 1.86 1.56 3.1 3.5 3.71 5.82.5 1.76.74 5.15.74 10.16v16.88c0 3.34.3 5.42.9 6.24.61.82 1.87 1.34 3.79 1.56v1.67h-21.94v-1.67c1.64-.22 2.81-.9 3.52-2.05.5-.77.75-2.69.75-5.75v-19.3c0-3.55-.14-5.8-.42-6.72a4.12 4.12 0 0 0-1.42-2.16 3.54 3.54 0 0 0-2.2-.76c-2.66 0-5.13 1.9-7.42 5.7v23.24c0 3.25.3 5.3.9 6.17.6.87 1.73 1.41 3.37 1.63v1.67h-21.95v-1.67c1.83-.19 3.13-.78 3.9-1.77.53-.68.79-2.69.79-6.03v-24.49c0-3.28-.3-5.32-.9-6.12-.6-.8-1.87-1.33-3.79-1.58v-1.72h17.68Zm54.14 0v34.38c0 3.06.35 5.01 1.06 5.86.71.86 2.1 1.34 4.17 1.47v1.67h-23.42v-1.67c1.92-.07 3.34-.62 4.27-1.67.62-.72.93-2.6.93-5.66v-25.33c0-3.06-.36-5.02-1.07-5.87-.71-.85-2.09-1.34-4.13-1.46v-1.72h18.18Zm-6.5-21.01c2 0 3.71.7 5.1 2.11 1.4 1.4 2.09 3.1 2.09 5.08s-.7 3.66-2.11 5.06-3.1 2.08-5.08 2.08-3.67-.7-5.06-2.08c-1.39-1.4-2.08-3.08-2.08-5.06s.7-3.67 2.08-5.08a6.85 6.85 0 0 1 5.06-2.11Zm37.62 65.68-14.61-33.63c-1.76-4.05-3.14-6.61-4.13-7.7a5.5 5.5 0 0 0-3.15-1.62v-1.72h23.05v1.72c-1.45 0-2.44.26-2.97.79a3.17 3.17 0 0 0-1.11 2.41c0 1.14.68 3.3 2.04 6.45l7.14 16.28 5.71-14.06c1.64-4.01 2.46-6.86 2.46-8.53 0-.96-.35-1.74-1.05-2.34-.7-.6-1.92-.94-3.68-1v-1.72h14.2v1.72a5.8 5.8 0 0 0-3.35 1.53c-.86.84-2.16 3.3-3.9 7.38l-14.47 34.04h-2.18Zm66.76-24.53h-23.8c.28 5.75 1.8 10.3 4.59 13.63 2.13 2.57 4.7 3.85 7.7 3.85 1.86 0 3.54-.51 5.06-1.55 1.51-1.04 3.14-2.9 4.87-5.59l1.58 1.02c-2.36 4.8-4.95 8.19-7.8 10.18-2.84 2-6.14 3-9.88 3-6.43 0-11.3-2.48-14.61-7.43-2.66-3.99-3.99-8.93-3.99-14.84 0-7.24 1.96-13 5.87-17.28 3.91-4.28 8.5-6.42 13.75-6.42 4.4 0 8.2 1.8 11.44 5.4 3.23 3.6 4.97 8.94 5.22 16.02Zm-11.42-3.11c0-4.98-.27-8.4-.8-10.25s-1.4-3.27-2.54-4.23a3.85 3.85 0 0 0-2.6-.83c-1.6 0-2.92.79-3.94 2.37-1.82 2.75-2.73 6.52-2.73 11.31v1.63h12.61Zm36.94-17.03v9.84c2.87-4.49 5.39-7.46 7.55-8.93 2.17-1.47 4.25-2.2 6.26-2.2 1.74 0 3.12.53 4.16 1.6 1.03 1.06 1.55 2.57 1.55 4.52 0 2.07-.5 3.68-1.5 4.82a4.68 4.68 0 0 1-3.65 1.72 6.29 6.29 0 0 1-4.27-1.58 26.27 26.27 0 0 0-2.13-1.76 2.04 2.04 0 0 0-1.07-.28c-.9 0-1.75.34-2.55 1.02a9.62 9.62 0 0 0-2.87 4.5c-1 3-1.49 6.3-1.49 9.93v9.97l.05 2.6c0 1.76.1 2.89.32 3.38.37.84.92 1.45 1.65 1.84.72.38 1.95.62 3.69.72v1.67h-23.43v-1.67c1.89-.16 3.16-.68 3.83-1.56.66-.88 1-3.2 1-6.98v-23.98c0-2.48-.13-4.05-.38-4.73-.3-.87-.75-1.5-1.34-1.9-.59-.4-1.63-.68-3.11-.84v-1.72h17.72Zm53.66-1.2.7 14.8h-1.58c-1.89-4.4-3.84-7.4-5.87-9-2.02-1.61-4.04-2.42-6.05-2.42-1.27 0-2.35.43-3.25 1.28a3.95 3.95 0 0 0-1.34 2.94c0 .84.3 1.64.92 2.42 1 1.27 3.76 3.44 8.3 6.51 4.55 3.08 7.55 5.7 8.98 7.84a12.68 12.68 0 0 1 2.16 7.22c0 2.4-.6 4.77-1.8 7.1a12.7 12.7 0 0 1-5.11 5.33 14.58 14.58 0 0 1-7.28 1.85c-2.08 0-4.84-.65-8.3-1.94a6.93 6.93 0 0 0-1.9-.51c-1.03 0-1.88.77-2.56 2.32h-1.53l-.74-15.59h1.57c1.4 4.08 3.3 7.14 5.73 9.18s4.73 3.07 6.9 3.07a5 5 0 0 0 3.63-1.37 4.44 4.44 0 0 0 1.42-3.32c0-1.48-.47-2.77-1.4-3.85-.92-1.08-3-2.72-6.21-4.92-4.73-3.27-7.8-5.78-9.19-7.51a13.08 13.08 0 0 1-3.06-8.4c0-3.34 1.16-6.36 3.46-9.07s5.64-4.05 10-4.05c2.35 0 4.62.57 6.81 1.71.84.47 1.52.7 2.05.7.55 0 1-.12 1.34-.35.34-.23.88-.89 1.62-1.97h1.58Zm28.58 1.2v34.38c0 3.06.35 5.01 1.07 5.86.7.86 2.1 1.34 4.17 1.47v1.67h-23.42v-1.67c1.91-.07 3.34-.62 4.26-1.67.62-.72.93-2.6.93-5.66v-25.33c0-3.06-.35-5.02-1.07-5.87-.7-.85-2.08-1.34-4.12-1.46v-1.72h18.18Zm-6.5-21.01c2.01 0 3.72.7 5.1 2.11 1.4 1.4 2.1 3.1 2.1 5.08s-.7 3.66-2.12 5.06-3.1 2.08-5.08 2.08-3.66-.7-5.05-2.08c-1.4-1.4-2.09-3.08-2.09-5.06s.7-3.67 2.09-5.08a6.85 6.85 0 0 1 5.05-2.11Zm35.26 5.15v15.86H611v4.6h-10.3v26.76c0 2.5.12 4.12.35 4.85a3.5 3.5 0 0 0 1.23 1.76c.59.45 1.13.67 1.62.67 2.01 0 3.91-1.53 5.7-4.59l1.4 1.02c-2.5 5.94-6.57 8.9-12.2 8.9-2.75 0-5.08-.76-6.98-2.29a10.13 10.13 0 0 1-3.64-5.12c-.31-1.06-.47-3.9-.47-8.54V627.3h-5.66v-1.63A59.88 59.88 0 0 0 592 617a52.83 52.83 0 0 0 7.17-10.16h1.53Zm36.42 61-14.01-32.15c-2.1-4.85-3.66-7.84-4.66-8.95s-2.22-1.89-3.64-2.32v-1.72h23.05v1.72c-1.52.06-2.58.36-3.2.88a2.41 2.41 0 0 0-.93 1.9c0 1.18.77 3.5 2.32 6.96l7.42 16.98 5.06-13.13c1.82-4.67 2.74-7.92 2.74-9.74a3.5 3.5 0 0 0-1.14-2.74c-.76-.68-2.1-1.05-4.01-1.11v-1.72h14.52v1.72a5.4 5.4 0 0 0-3.48 1.65c-.9.94-2.4 4.15-4.5 9.62l-12.39 32.15c-3.12 8.04-5.44 12.99-6.96 14.84a9.97 9.97 0 0 1-8.02 3.9c-2.57 0-4.65-.74-6.24-2.2a6.97 6.97 0 0 1-2.39-5.32c0-1.79.55-3.27 1.65-4.45a5.33 5.33 0 0 1 4.06-1.76c1.54 0 2.79.5 3.73 1.48.94 1 1.43 2.52 1.46 4.6.03 1.17.17 1.93.42 2.27.25.34.6.5 1.07.5.74 0 1.53-.44 2.36-1.34 1.24-1.3 2.7-4.26 4.36-8.9l1.35-3.62Z" fill="#c00"/></svg>
