<svg xmlns="http://www.w3.org/2000/svg" viewBox="0 0 900 900"><circle cx="450" cy="450" r="450" fill="#fff"/><path d="M214.54 514.65v-97.99h22.77v2.38h-2.55c-2.5 0-4.16.25-5.01.76s-1.5 1.27-1.93 2.27c-.43 1-.65 3.4-.65 7.22v73.12c0 3.63.08 5.7.23 6.23a4.93 4.93 0 0 0 1.9 3c.92.65 2.74.97 5.46.97h2.55v2.04h-22.77Zm51.23-74.15v12.01c3.51-5.47 6.59-9.1 9.23-10.9 2.65-1.8 5.2-2.69 7.65-2.69 2.11 0 3.8.65 5.07 1.95 1.26 1.3 1.9 3.15 1.9 5.53 0 2.53-.62 4.5-1.84 5.89a5.71 5.71 0 0 1-4.45 2.1c-2 0-3.74-.65-5.21-1.93-1.47-1.29-2.34-2-2.6-2.16a2.48 2.48 0 0 0-1.3-.34c-1.1 0-2.14.42-3.12 1.25a11.75 11.75 0 0 0-3.52 5.5 38.5 38.5 0 0 0-1.8 12.12V481l.05 3.18c0 2.15.13 3.53.4 4.13a4.5 4.5 0 0 0 2 2.24c.9.47 2.4.76 4.5.88v2.03h-28.6v-2.03c2.3-.2 3.87-.83 4.68-1.9.8-1.08 1.22-3.92 1.22-8.53v-29.28c0-3.02-.16-4.95-.46-5.78a4.56 4.56 0 0 0-1.64-2.32c-.72-.49-1.98-.83-3.8-1.02v-2.1h21.64Zm71.11 24.59h-29.05c.34 7.02 2.2 12.57 5.6 16.65 2.61 3.14 5.74 4.7 9.4 4.7 2.27 0 4.33-.63 6.18-1.9 1.85-1.26 3.83-3.54 5.95-6.82l1.92 1.24c-2.87 5.86-6.04 10-9.51 12.44a20.5 20.5 0 0 1-12.07 3.65c-7.85 0-13.8-3.02-17.84-9.06-3.25-4.87-4.87-10.91-4.87-18.13 0-8.83 2.39-15.86 7.17-21.1 4.77-5.22 10.37-7.84 16.8-7.84 5.35 0 10 2.2 13.95 6.6 3.95 4.4 6.07 10.92 6.37 19.57Zm-13.93-3.8c0-6.08-.33-10.25-.99-12.51-.66-2.27-1.69-3.99-3.09-5.16a4.7 4.7 0 0 0-3.17-1.02c-1.96 0-3.57.96-4.81 2.89-2.23 3.36-3.35 7.97-3.35 13.82v1.98h15.41Zm70.89-44.63v60.95c0 4.11.11 6.55.34 7.3.3 1.25.88 2.17 1.73 2.78.84.6 2.33.98 4.44 1.13v1.87l-22.37 4.36v-8.38c-2.68 3.25-5.07 5.45-7.17 6.62s-4.46 1.76-7.1 1.76c-6.76 0-12.1-3.02-16.03-9.06-3.18-4.91-4.76-10.93-4.76-18.07 0-5.7.98-10.8 2.94-15.32 1.97-4.51 4.66-7.92 8.07-10.22a19.35 19.35 0 0 1 11.02-3.46c2.53 0 4.78.5 6.74 1.47 1.96.99 4.06 2.7 6.29 5.16v-15.98c0-4.04-.17-6.47-.51-7.3a4.86 4.86 0 0 0-2.04-2.44c-.9-.53-2.6-.8-5.1-.8v-2.37h23.5Zm-15.86 35.91c-2.8-5.36-6.21-8.04-10.25-8.04-1.4 0-2.55.38-3.46 1.13-1.4 1.17-2.54 3.23-3.43 6.17-.88 2.95-1.33 7.46-1.33 13.54 0 6.68.5 11.63 1.48 14.84.98 3.21 2.32 5.53 4.02 6.97a5.44 5.44 0 0 0 3.57 1.07c3.32 0 6.45-2.6 9.4-7.81v-27.87Zm56.95 33.08c-6.45 5.7-12.25 8.55-17.39 8.55-3.02 0-5.53-.99-7.53-2.97-2-1.98-3-4.47-3-7.45 0-4.04 1.73-7.68 5.21-10.9 3.47-3.23 11.04-7.53 22.71-12.89v-5.32c0-4-.22-6.53-.65-7.57a6.1 6.1 0 0 0-2.46-2.71 7.4 7.4 0 0 0-4.08-1.17c-2.46 0-4.48.55-6.06 1.65-.98.68-1.47 1.47-1.47 2.38 0 .79.52 1.77 1.58 2.94 1.44 1.63 2.15 3.2 2.15 4.7 0 1.85-.69 3.43-2.06 4.73a7.55 7.55 0 0 1-5.41 1.96 8.63 8.63 0 0 1-5.98-2.16 6.57 6.57 0 0 1-2.4-5.04c0-2.72 1.07-5.31 3.22-7.79 2.16-2.47 5.16-4.37 9-5.69a36.74 36.74 0 0 1 12.02-1.98c5.02 0 9 1.07 11.92 3.2 2.93 2.13 4.82 4.45 5.7 6.94.52 1.58.79 5.23.79 10.93v20.56c0 2.42.09 3.94.28 4.56.19.62.47 1.09.85 1.39a2 2 0 0 0 1.3.45c.98 0 1.98-.7 3-2.1l1.7 1.36c-1.89 2.8-3.84 4.83-5.86 6.1a12.7 12.7 0 0 1-6.88 1.9c-3.02 0-5.38-.72-7.08-2.13s-2.74-3.56-3.12-6.43Zm0-4.14V463.8c-4.57 2.68-7.97 5.55-10.2 8.6a10.48 10.48 0 0 0-2.2 6.18c0 1.74.62 3.26 1.87 4.59a5.13 5.13 0 0 0 3.96 1.53c1.89 0 4.08-1.06 6.57-3.18Zm70.83-1.7 1.76 1.36c-2.5 4.69-5.6 8.17-9.32 10.45a22.3 22.3 0 0 1-11.87 3.43c-7.06 0-12.7-2.66-16.93-7.99-4.23-5.32-6.34-11.72-6.34-19.2 0-7.2 1.92-13.55 5.77-19.03 4.65-6.6 11.05-9.91 19.2-9.91 5.48 0 9.83 1.38 13.06 4.13 3.23 2.76 4.84 5.84 4.84 9.24a6.9 6.9 0 0 1-1.95 5.15 6.99 6.99 0 0 1-5.13 1.93 7.43 7.43 0 0 1-5.52-2.21c-1.45-1.47-2.35-4.1-2.69-7.87-.23-2.38-.77-4.04-1.64-4.99a4.04 4.04 0 0 0-3.06-1.42c-1.81 0-3.36.97-4.65 2.9-1.96 2.9-2.94 7.36-2.94 13.36 0 4.99.8 9.75 2.38 14.3 1.58 4.55 3.75 7.94 6.51 10.17a11.6 11.6 0 0 0 7.36 2.44c1.85 0 3.61-.44 5.27-1.3 1.66-.88 3.63-2.52 5.9-4.94Zm28.13-58.68v19.38h12.57v5.6h-12.57v32.68c0 3.06.14 5.04.42 5.92.28.9.78 1.6 1.5 2.16.72.54 1.38.82 1.98.82 2.46 0 4.78-1.87 6.97-5.61l1.7 1.25c-3.06 7.25-8.02 10.87-14.9 10.87-3.36 0-6.2-.93-8.52-2.8s-3.8-3.96-4.45-6.26c-.38-1.28-.56-4.76-.56-10.42v-28.6h-6.91v-1.99a73.3 73.3 0 0 0 12.15-10.6 64.48 64.48 0 0 0 8.75-12.4h1.87Zm61.31 43.96h-29.06c.34 7.02 2.21 12.57 5.61 16.65 2.6 3.14 5.74 4.7 9.4 4.7 2.27 0 4.33-.63 6.18-1.9 1.85-1.26 3.83-3.54 5.94-6.82l1.93 1.24c-2.87 5.86-6.04 10-9.52 12.44a20.5 20.5 0 0 1-12.06 3.65c-7.85 0-13.8-3.02-17.84-9.06-3.25-4.87-4.87-10.91-4.87-18.13 0-8.83 2.38-15.86 7.16-21.1 4.78-5.22 10.38-7.84 16.8-7.84 5.36 0 10.01 2.2 13.96 6.6 3.94 4.4 6.07 10.92 6.37 19.57Zm-13.93-3.8c0-6.08-.33-10.25-1-12.51-.66-2.27-1.68-3.99-3.08-5.16a4.7 4.7 0 0 0-3.17-1.02c-1.97 0-3.57.96-4.82 2.89-2.23 3.36-3.34 7.97-3.34 13.82v1.98h15.4Zm70.88-44.63v60.95c0 4.11.12 6.55.34 7.3.3 1.25.88 2.17 1.73 2.78.85.6 2.33.98 4.45 1.13v1.87l-22.38 4.36v-8.38c-2.68 3.25-5.07 5.45-7.16 6.62s-4.47 1.76-7.11 1.76c-6.76 0-12.1-3.02-16.03-9.06-3.17-4.91-4.76-10.93-4.76-18.07 0-5.7.98-10.8 2.95-15.32 1.96-4.51 4.65-7.92 8.07-10.22a19.35 19.35 0 0 1 11.02-3.46c2.53 0 4.77.5 6.74 1.47 1.96.99 4.06 2.7 6.28 5.16v-15.98c0-4.04-.17-6.47-.5-7.3a4.86 4.86 0 0 0-2.05-2.44c-.9-.53-2.6-.8-5.1-.8v-2.37h23.51Zm-15.86 35.91c-2.8-5.36-6.2-8.04-10.25-8.04-1.4 0-2.55.38-3.45 1.13-1.4 1.17-2.54 3.23-3.43 6.17-.89 2.95-1.33 7.46-1.33 13.54 0 6.68.49 11.63 1.47 14.84.98 3.21 2.32 5.53 4.02 6.97a5.44 5.44 0 0 0 3.57 1.07c3.32 0 6.46-2.6 9.4-7.81v-27.87Zm50.39-35.91v97.99H663.9v-2.15h2.55c2.49 0 4.16-.25 5-.74a4.6 4.6 0 0 0 1.93-2.27c.44-1.02.66-3.41.66-7.19v-73.18c0-3.62-.08-5.7-.23-6.23a5.04 5.04 0 0 0-1.9-2.97c-.92-.66-2.75-1-5.46-1h-2.55v-2.26h22.77Z" fill="#86b9f8"/></svg>
