<?xml version="1.0" encoding="utf-8"?>
<!-- Generator: Adobe Illustrator 26.5.0, SVG Export Plug-In . SVG Version: 6.00 Build 0)  -->
<svg version="1.1" id="Layer_1" xmlns="http://www.w3.org/2000/svg" xmlns:xlink="http://www.w3.org/1999/xlink" x="0px" y="0px"
	 viewBox="0 0 107.04 106.85" style="enable-background:new 0 0 107.04 106.85;" xml:space="preserve">
<style type="text/css">
	.st0{clip-path:url(#SVGID_00000181069273362068800370000002242397623854379699_);fill:#887976;}
	.st1{clip-path:url(#SVGID_00000181069273362068800370000002242397623854379699_);}
	.st2{fill:#081F40;}
	.st3{clip-path:url(#SVGID_00000111151743539503294940000004829181834066181818_);fill:#A51D31;}
	.st4{clip-path:url(#SVGID_00000111151743539503294940000004829181834066181818_);fill:#FFFFFF;}
	.st5{clip-path:url(#SVGID_00000069361665809362459230000012797818738158219929_);fill:#FFFFFF;}
	.st6{clip-path:url(#SVGID_00000069361665809362459230000012797818738158219929_);}
	.st7{fill:#0E2346;}
	.st8{clip-path:url(#SVGID_00000023258141965318721990000008764401068501911956_);fill:#643D18;}
	.st9{clip-path:url(#SVGID_00000023258141965318721990000008764401068501911956_);}
	.st10{fill:#FFFFFF;}
	.st11{clip-path:url(#SVGID_00000062164375572033397670000012108104503641088681_);fill:#1E2758;}
	.st12{clip-path:url(#SVGID_00000062164375572033397670000012108104503641088681_);}
	.st13{fill:#EB1C2D;}
	.st14{clip-path:url(#SVGID_00000060028260784739582870000012016004727847211452_);fill:#0D4E91;}
	.st15{clip-path:url(#SVGID_00000060028260784739582870000012016004727847211452_);}
	.st16{clip-path:url(#SVGID_00000128445933383048363490000004894768924747096968_);fill:#672A7A;}
	.st17{clip-path:url(#SVGID_00000128445933383048363490000004894768924747096968_);fill:#F9F186;}
	
		.st18{clip-path:url(#SVGID_00000128445933383048363490000004894768924747096968_);fill:none;stroke:#000000;stroke-width:1.069;stroke-miterlimit:10;}
	.st19{clip-path:url(#SVGID_00000128445933383048363490000004894768924747096968_);fill:#F5EC3B;}
	.st20{clip-path:url(#SVGID_00000018203065137505265370000007737879106596713151_);fill:#E77625;}
	.st21{clip-path:url(#SVGID_00000018203065137505265370000007737879106596713151_);}
	.st22{clip-path:url(#SVGID_00000092419604060886429920000005030004006100554626_);fill:#D8272D;}
	.st23{clip-path:url(#SVGID_00000092419604060886429920000005030004006100554626_);}
	.st24{clip-path:url(#SVGID_00000005978742116749591610000016640752205713750914_);fill:#00954C;}
	.st25{clip-path:url(#SVGID_00000005978742116749591610000016640752205713750914_);}
	.st26{clip-path:url(#SVGID_00000158712499354722014850000010640563425733549488_);fill:#42B4E4;}
	.st27{clip-path:url(#SVGID_00000158712499354722014850000010640563425733549488_);}
	.st28{clip-path:url(#SVGID_00000080915792590662349560000009067172282778523287_);}
</style>
<g>
	<defs>
		<ellipse id="SVGID_00000176751853869737228290000015109193917688006308_" cx="53.52" cy="53.43" rx="53.52" ry="53.43"/>
	</defs>
	<clipPath id="SVGID_00000127043175667845414170000010248715975813112470_">
		<use xlink:href="#SVGID_00000176751853869737228290000015109193917688006308_"  style="overflow:visible;"/>
	</clipPath>
	<path style="clip-path:url(#SVGID_00000127043175667845414170000010248715975813112470_);fill:#42B4E4;" d="M53.52,115.66
		c34.36,0,62.23-27.86,62.23-62.22c0-34.37-27.86-62.23-62.23-62.23S-8.7,19.07-8.7,53.44C-8.7,87.8,19.16,115.66,53.52,115.66"/>
	<g style="clip-path:url(#SVGID_00000127043175667845414170000010248715975813112470_);">
		<path class="st10" d="M30.94,44.47v0.3c-0.3,0.03-0.51,0.07-0.62,0.13c-0.11,0.06-0.17,0.19-0.17,0.39c0,0.05,0.01,0.12,0.02,0.19
			c0.01,0.07,0.03,0.15,0.05,0.22l1.53,4.37h0.03l1.43-3.66c0.01-0.02-0.05-0.21-0.17-0.56c-0.12-0.35-0.21-0.57-0.26-0.65
			c-0.09-0.15-0.2-0.25-0.31-0.31c-0.11-0.06-0.31-0.1-0.61-0.12v-0.3h3.9v0.3c-0.36,0.03-0.6,0.07-0.72,0.12s-0.18,0.16-0.18,0.33
			c0,0.04,0.01,0.12,0.04,0.24s0.07,0.28,0.14,0.48l1.43,4.02h-0.05l1.36-4.11c0.02-0.07,0.04-0.15,0.06-0.24
			c0.02-0.08,0.02-0.18,0.02-0.28c0-0.23-0.09-0.39-0.26-0.46c-0.11-0.05-0.31-0.08-0.6-0.1v-0.3h2.29v0.3
			c-0.19,0.03-0.34,0.08-0.45,0.15c-0.18,0.13-0.32,0.34-0.43,0.65l-2.5,7.53h-0.33l-2.1-5.86H33.4l-2.28,5.86h-0.35l-2.64-7.53
			c-0.11-0.33-0.23-0.53-0.34-0.62c-0.11-0.09-0.29-0.15-0.53-0.18v-0.3H30.94z"/>
		<path class="st10" d="M39.5,52.6c0.22-0.04,0.37-0.09,0.45-0.16c0.12-0.11,0.18-0.31,0.18-0.59v-3.67c0-0.25-0.04-0.43-0.13-0.52
			c-0.09-0.09-0.25-0.16-0.51-0.21v-0.3h2.39v4.74c0,0.27,0.04,0.45,0.12,0.52s0.23,0.14,0.46,0.18v0.3H39.5V52.6z M40.33,44.56
			c0.19-0.19,0.42-0.28,0.69-0.28c0.26,0,0.49,0.09,0.68,0.28c0.19,0.19,0.28,0.42,0.28,0.69c0,0.27-0.09,0.5-0.28,0.69
			c-0.19,0.19-0.42,0.28-0.68,0.28c-0.27,0-0.5-0.09-0.69-0.28c-0.19-0.19-0.28-0.42-0.28-0.69C40.05,44.98,40.15,44.75,40.33,44.56
			z"/>
		<path class="st10" d="M42.97,52.6c0.23-0.03,0.39-0.09,0.5-0.19c0.11-0.1,0.16-0.29,0.16-0.57v-3.67c0-0.25-0.04-0.43-0.13-0.53
			c-0.09-0.1-0.27-0.16-0.53-0.2v-0.3h2.36v0.9c0.2-0.3,0.45-0.55,0.76-0.75c0.31-0.2,0.65-0.29,1.02-0.29
			c0.54,0,0.95,0.14,1.25,0.41c0.29,0.28,0.44,0.76,0.44,1.46v3.02c0,0.28,0.05,0.46,0.14,0.54c0.1,0.08,0.25,0.14,0.48,0.16v0.3
			h-2.93v-0.3c0.22-0.04,0.38-0.11,0.46-0.18c0.08-0.08,0.12-0.25,0.12-0.52v-3.02c0-0.28-0.03-0.5-0.08-0.64
			c-0.1-0.26-0.29-0.38-0.58-0.38c-0.21,0-0.41,0.08-0.59,0.23s-0.32,0.31-0.42,0.47v3.34c0,0.27,0.04,0.45,0.12,0.52
			c0.08,0.08,0.23,0.14,0.46,0.18v0.3h-3V52.6z"/>
		<path class="st10" d="M49.91,52.6c0.23-0.03,0.39-0.09,0.5-0.19c0.11-0.1,0.16-0.29,0.16-0.57v-3.67c0-0.25-0.04-0.43-0.13-0.53
			c-0.09-0.1-0.27-0.16-0.53-0.2v-0.3h2.36v0.9c0.2-0.3,0.45-0.55,0.76-0.75c0.31-0.2,0.65-0.29,1.02-0.29
			c0.54,0,0.95,0.14,1.25,0.41c0.29,0.28,0.44,0.76,0.44,1.46v3.02c0,0.28,0.05,0.46,0.14,0.54c0.1,0.08,0.25,0.14,0.48,0.16v0.3
			h-2.93v-0.3c0.22-0.04,0.38-0.11,0.46-0.18c0.08-0.08,0.12-0.25,0.12-0.52v-3.02c0-0.28-0.03-0.5-0.08-0.64
			c-0.1-0.26-0.29-0.38-0.58-0.38c-0.21,0-0.41,0.08-0.59,0.23s-0.32,0.31-0.42,0.47v3.34c0,0.27,0.04,0.45,0.12,0.52
			c0.08,0.08,0.23,0.14,0.46,0.18v0.3h-3V52.6z"/>
		<path class="st10" d="M56.85,52.6c0.22-0.04,0.37-0.09,0.45-0.16c0.12-0.11,0.18-0.31,0.18-0.59v-3.67c0-0.25-0.04-0.43-0.13-0.52
			c-0.09-0.09-0.25-0.16-0.51-0.21v-0.3h2.39v4.74c0,0.27,0.04,0.45,0.12,0.52s0.23,0.14,0.46,0.18v0.3h-2.97V52.6z M57.68,44.56
			c0.19-0.19,0.42-0.28,0.69-0.28c0.26,0,0.49,0.09,0.68,0.28c0.19,0.19,0.28,0.42,0.28,0.69c0,0.27-0.09,0.5-0.28,0.69
			c-0.19,0.19-0.42,0.28-0.68,0.28c-0.27,0-0.5-0.09-0.69-0.28c-0.19-0.19-0.28-0.42-0.28-0.69C57.39,44.98,57.49,44.75,57.68,44.56
			z"/>
		<path class="st10" d="M60.31,52.6c0.23-0.03,0.39-0.09,0.5-0.19c0.11-0.1,0.16-0.29,0.16-0.57v-3.67c0-0.25-0.04-0.43-0.13-0.53
			c-0.09-0.1-0.27-0.16-0.53-0.2v-0.3h2.36v0.9c0.2-0.3,0.45-0.55,0.76-0.75c0.31-0.2,0.65-0.29,1.02-0.29
			c0.54,0,0.95,0.14,1.25,0.41c0.29,0.28,0.44,0.76,0.44,1.46v3.02c0,0.28,0.05,0.46,0.14,0.54c0.1,0.08,0.25,0.14,0.48,0.16v0.3
			h-2.93v-0.3c0.22-0.04,0.37-0.11,0.46-0.18c0.08-0.08,0.12-0.25,0.12-0.52v-3.02c0-0.28-0.03-0.5-0.08-0.64
			c-0.1-0.26-0.29-0.38-0.58-0.38c-0.21,0-0.41,0.08-0.59,0.23s-0.32,0.31-0.42,0.47v3.34c0,0.27,0.04,0.45,0.12,0.52
			c0.08,0.08,0.23,0.14,0.46,0.18v0.3h-3V52.6z"/>
		<path class="st10" d="M67.56,53.79c0.15-0.19,0.41-0.31,0.77-0.37v-0.08c-0.24-0.09-0.42-0.19-0.53-0.29
			c-0.19-0.17-0.29-0.41-0.29-0.7c0-0.35,0.15-0.65,0.46-0.9c0.31-0.25,0.61-0.42,0.9-0.52v-0.08c-0.42-0.17-0.76-0.41-1.02-0.73
			c-0.26-0.32-0.39-0.7-0.39-1.15c0-0.57,0.23-1.04,0.68-1.41c0.46-0.37,1.07-0.55,1.85-0.55c0.29,0,0.56,0.03,0.8,0.08
			s0.43,0.12,0.57,0.18H73v0.66h-1.01c0.16,0.16,0.29,0.34,0.38,0.55c0.09,0.21,0.13,0.44,0.13,0.69c0,0.78-0.37,1.31-1.12,1.6
			c-0.39,0.15-0.88,0.23-1.46,0.23c-0.13,0-0.21,0-0.25-0.01C69.63,51,69.58,51,69.5,51c-0.12,0.02-0.25,0.08-0.38,0.19
			c-0.14,0.11-0.21,0.25-0.21,0.41c0,0.13,0.03,0.22,0.1,0.29c0.07,0.07,0.16,0.11,0.29,0.13c0.06,0.01,0.19,0.01,0.39,0.02
			c0.2,0.01,0.35,0.01,0.46,0.01l0.81,0.01c0.46,0.01,0.84,0.08,1.16,0.2c0.6,0.24,0.9,0.68,0.9,1.31c0,0.81-0.45,1.37-1.34,1.68
			c-0.47,0.16-1.06,0.24-1.78,0.24c-0.58,0-1.09-0.06-1.51-0.17c-0.7-0.19-1.05-0.52-1.05-0.98C67.34,54.16,67.41,53.98,67.56,53.79
			z M68.84,54.87c0.27,0.15,0.67,0.22,1.19,0.22c0.46,0,0.84-0.04,1.14-0.11c0.56-0.14,0.85-0.39,0.85-0.76
			c0-0.22-0.08-0.38-0.24-0.49s-0.45-0.16-0.87-0.16h-2.05c-0.13,0.11-0.22,0.2-0.28,0.27c-0.1,0.13-0.15,0.28-0.15,0.43
			C68.43,54.52,68.57,54.72,68.84,54.87z M69.28,50.08c0.12,0.37,0.36,0.55,0.7,0.55c0.31,0,0.53-0.14,0.65-0.41
			c0.12-0.27,0.18-0.67,0.18-1.2c0-0.56-0.06-0.97-0.19-1.22c-0.12-0.26-0.34-0.38-0.64-0.38c-0.33,0-0.55,0.14-0.66,0.41
			c-0.11,0.27-0.17,0.67-0.17,1.2C69.16,49.5,69.2,49.85,69.28,50.08z"/>
		<path class="st10" d="M74.53,44.87c0.39-0.37,0.97-0.56,1.75-0.56s1.4,0.19,1.84,0.58s0.66,0.87,0.66,1.47
			c0,0.28-0.04,0.53-0.13,0.75c-0.16,0.4-0.47,0.75-0.92,1.05c-0.18,0.11-0.3,0.19-0.37,0.23c-0.06,0.04-0.2,0.12-0.39,0.25
			c-0.2,0.12-0.34,0.26-0.42,0.41c-0.08,0.15-0.14,0.47-0.16,0.96h-0.37L76,49.48c0-0.36,0.15-0.81,0.46-1.37s0.46-1.15,0.46-1.77
			c0-0.5-0.09-0.89-0.26-1.17s-0.46-0.41-0.84-0.41c-0.25,0-0.43,0.05-0.54,0.16s-0.16,0.22-0.16,0.34c0,0.05,0.01,0.09,0.02,0.13
			c0.02,0.03,0.05,0.08,0.09,0.13l0.09,0.1c0.09,0.11,0.16,0.22,0.2,0.31c0.04,0.09,0.06,0.21,0.06,0.35c0,0.23-0.08,0.42-0.23,0.55
			c-0.15,0.14-0.34,0.21-0.55,0.21c-0.23,0-0.42-0.08-0.59-0.25c-0.17-0.17-0.25-0.4-0.25-0.72C73.95,45.65,74.14,45.24,74.53,44.87
			z M75.47,51.28c0.21-0.21,0.45-0.31,0.75-0.31c0.29,0,0.54,0.1,0.74,0.31s0.31,0.45,0.31,0.75c0,0.29-0.1,0.54-0.31,0.75
			s-0.46,0.31-0.74,0.31c-0.29,0-0.54-0.1-0.75-0.31s-0.31-0.45-0.31-0.75C75.16,51.73,75.27,51.48,75.47,51.28z"/>
	</g>
	<g style="clip-path:url(#SVGID_00000127043175667845414170000010248715975813112470_);">
		<path class="st10" d="M8.9,55.73h7.51l0.01,2.52h-0.36c-0.12-0.9-0.46-1.51-1.01-1.83c-0.31-0.17-0.78-0.27-1.4-0.29v6.57
			c0,0.46,0.08,0.76,0.24,0.92s0.49,0.23,1,0.23v0.32h-4.45v-0.32c0.49,0,0.81-0.08,0.97-0.23c0.16-0.15,0.24-0.46,0.24-0.91v-6.57
			c-0.61,0.02-1.08,0.11-1.4,0.29c-0.6,0.33-0.93,0.93-1.01,1.83H8.88L8.9,55.73z"/>
		<path class="st10" d="M16.83,59.13c0.53-0.58,1.21-0.87,2.01-0.87c0.82,0,1.5,0.3,2.03,0.89c0.53,0.59,0.79,1.31,0.79,2.16
			c0,0.83-0.26,1.55-0.78,2.15c-0.52,0.6-1.2,0.9-2.03,0.9c-0.81,0-1.48-0.29-2.02-0.87c-0.53-0.58-0.8-1.31-0.8-2.17
			C16.03,60.43,16.29,59.71,16.83,59.13z M18,63.14c0.14,0.54,0.42,0.81,0.85,0.81c0.4,0,0.67-0.21,0.79-0.62
			c0.13-0.41,0.19-1.09,0.19-2.02c0-0.93-0.07-1.6-0.2-2.02c-0.13-0.42-0.39-0.62-0.78-0.62c-0.42,0-0.71,0.27-0.85,0.81
			c-0.09,0.36-0.14,0.97-0.14,1.83C17.86,62.18,17.91,62.79,18,63.14z"/>
		<path class="st10" d="M23.07,59.13c0.53-0.58,1.21-0.87,2.01-0.87c0.82,0,1.5,0.3,2.03,0.89c0.53,0.59,0.79,1.31,0.79,2.16
			c0,0.83-0.26,1.55-0.78,2.15c-0.52,0.6-1.2,0.9-2.03,0.9c-0.81,0-1.48-0.29-2.02-0.87c-0.53-0.58-0.8-1.31-0.8-2.17
			C22.27,60.43,22.53,59.71,23.07,59.13z M24.23,63.14c0.14,0.54,0.42,0.81,0.85,0.81c0.4,0,0.67-0.21,0.79-0.62
			c0.13-0.41,0.19-1.09,0.19-2.02c0-0.93-0.07-1.6-0.2-2.02c-0.13-0.42-0.39-0.62-0.78-0.62c-0.42,0-0.71,0.27-0.85,0.81
			c-0.09,0.36-0.14,0.97-0.14,1.83C24.1,62.18,24.14,62.79,24.23,63.14z"/>
		<path class="st10" d="M31.55,63.86c0.23-0.03,0.38-0.08,0.47-0.15c0.14-0.11,0.21-0.31,0.21-0.61v-3.67
			c0-0.26-0.05-0.44-0.14-0.53c-0.09-0.09-0.27-0.16-0.54-0.19v-0.3h2.36v0.9c0.21-0.27,0.41-0.48,0.6-0.63
			c0.36-0.27,0.76-0.41,1.21-0.41c0.5,0,0.89,0.12,1.16,0.35c0.15,0.13,0.3,0.35,0.44,0.66h0.08c0.24-0.29,0.46-0.51,0.68-0.65
			c0.34-0.24,0.71-0.36,1.12-0.36c0.44,0,0.83,0.14,1.16,0.42s0.5,0.72,0.5,1.33v3.14c0,0.29,0.05,0.47,0.14,0.55
			c0.09,0.08,0.26,0.13,0.49,0.16v0.3h-2.96v-0.3c0.23-0.03,0.39-0.09,0.48-0.17c0.09-0.08,0.13-0.26,0.13-0.54v-3.02
			c0-0.33-0.05-0.58-0.14-0.76s-0.28-0.27-0.54-0.27c-0.22,0-0.44,0.1-0.68,0.29c-0.24,0.2-0.36,0.33-0.36,0.41v3.34
			c0,0.27,0.04,0.45,0.12,0.52s0.23,0.14,0.46,0.18v0.3h-2.92v-0.3c0.22-0.03,0.38-0.08,0.47-0.16c0.09-0.08,0.14-0.26,0.14-0.54
			v-3.02c0-0.32-0.04-0.57-0.13-0.75c-0.09-0.18-0.27-0.27-0.55-0.27c-0.26,0-0.49,0.1-0.71,0.31s-0.33,0.34-0.33,0.39v3.34
			c0,0.27,0.04,0.45,0.12,0.52s0.23,0.14,0.46,0.18v0.3h-2.99V63.86z"/>
		<path class="st10" d="M42.87,61.66c0.54-0.33,1.39-0.66,2.54-1v-0.91c0-0.37-0.08-0.64-0.23-0.82s-0.43-0.27-0.83-0.27
			c-0.22,0-0.41,0.04-0.55,0.12c-0.14,0.08-0.22,0.19-0.22,0.31c0,0.05,0.01,0.09,0.02,0.12c0.02,0.03,0.04,0.07,0.07,0.1l0.07,0.09
			c0.06,0.07,0.1,0.14,0.14,0.23c0.03,0.08,0.05,0.17,0.05,0.26c0,0.24-0.08,0.42-0.23,0.54c-0.16,0.13-0.34,0.19-0.55,0.19
			c-0.24,0-0.44-0.07-0.61-0.21c-0.17-0.14-0.25-0.35-0.25-0.61c0-0.48,0.23-0.86,0.68-1.14c0.45-0.28,1-0.42,1.66-0.42
			c0.71,0,1.3,0.14,1.77,0.41c0.47,0.28,0.71,0.78,0.71,1.52v3.02c0,0.09,0.02,0.17,0.07,0.23c0.05,0.06,0.1,0.09,0.16,0.09
			c0.05,0,0.09-0.01,0.13-0.03c0.04-0.02,0.1-0.07,0.18-0.15l0.19,0.26c-0.24,0.28-0.51,0.48-0.81,0.6
			c-0.19,0.07-0.38,0.11-0.59,0.11c-0.37,0-0.64-0.11-0.81-0.32c-0.1-0.12-0.17-0.3-0.21-0.54c-0.34,0.35-0.73,0.59-1.17,0.73
			c-0.26,0.09-0.52,0.13-0.78,0.13c-0.34,0-0.66-0.11-0.96-0.33c-0.3-0.22-0.45-0.56-0.45-1.02C42.06,62.43,42.33,61.99,42.87,61.66
			z M45.04,63.27c0.1-0.07,0.21-0.19,0.35-0.34V61.1c-0.33,0.08-0.63,0.21-0.88,0.38c-0.43,0.3-0.64,0.68-0.64,1.14
			c0,0.27,0.06,0.48,0.19,0.62c0.12,0.14,0.26,0.21,0.42,0.21C44.68,63.45,44.87,63.39,45.04,63.27z"/>
		<path class="st10" d="M48.18,63.86c0.22-0.04,0.37-0.09,0.45-0.16c0.12-0.11,0.18-0.31,0.18-0.59v-3.67
			c0-0.25-0.04-0.43-0.13-0.52c-0.09-0.09-0.25-0.16-0.51-0.21v-0.3h2.39v4.74c0,0.27,0.04,0.45,0.12,0.52s0.23,0.14,0.46,0.18v0.3
			h-2.97V63.86z M49.01,55.82c0.19-0.19,0.42-0.28,0.69-0.28c0.26,0,0.49,0.09,0.68,0.28c0.19,0.19,0.28,0.42,0.28,0.69
			c0,0.27-0.09,0.5-0.28,0.69c-0.19,0.19-0.42,0.28-0.68,0.28c-0.27,0-0.5-0.09-0.69-0.28c-0.19-0.19-0.28-0.42-0.28-0.69
			C48.73,56.24,48.82,56.01,49.01,55.82z"/>
		<path class="st10" d="M51.65,63.86c0.23-0.03,0.39-0.09,0.5-0.19c0.11-0.1,0.16-0.29,0.16-0.57v-3.67c0-0.25-0.04-0.43-0.13-0.53
			c-0.09-0.1-0.27-0.16-0.53-0.2v-0.3h2.36v0.9c0.2-0.3,0.45-0.55,0.76-0.75c0.31-0.2,0.65-0.29,1.02-0.29
			c0.54,0,0.95,0.14,1.25,0.41c0.29,0.28,0.44,0.76,0.44,1.46v3.02c0,0.28,0.05,0.46,0.14,0.54c0.1,0.08,0.25,0.14,0.48,0.16v0.3
			h-2.93v-0.3c0.22-0.04,0.38-0.11,0.46-0.18c0.08-0.08,0.12-0.25,0.12-0.52v-3.02c0-0.28-0.03-0.5-0.08-0.64
			c-0.1-0.26-0.29-0.38-0.58-0.38c-0.21,0-0.41,0.08-0.59,0.23s-0.32,0.31-0.42,0.47v3.34c0,0.27,0.04,0.45,0.12,0.52
			c0.08,0.08,0.23,0.14,0.46,0.18v0.3h-3V63.86z"/>
		<path class="st10" d="M58.7,62.27h0.35c0.12,0.6,0.35,1.02,0.68,1.26c0.33,0.25,0.67,0.37,1.02,0.37c0.32,0,0.56-0.07,0.71-0.22
			c0.15-0.14,0.23-0.33,0.23-0.57c0-0.22-0.08-0.41-0.24-0.57c-0.09-0.08-0.23-0.18-0.43-0.27l-0.93-0.45
			c-0.49-0.24-0.84-0.5-1.05-0.78c-0.21-0.28-0.32-0.61-0.32-0.99c0-0.48,0.17-0.9,0.51-1.25c0.34-0.35,0.81-0.53,1.41-0.53
			c0.26,0,0.54,0.04,0.84,0.13c0.3,0.09,0.48,0.13,0.55,0.13c0.1,0,0.17-0.02,0.22-0.06c0.04-0.04,0.08-0.1,0.11-0.18h0.27v1.8
			h-0.32c-0.12-0.42-0.31-0.76-0.58-1.02c-0.27-0.26-0.58-0.38-0.94-0.38c-0.28,0-0.48,0.08-0.62,0.23s-0.2,0.32-0.2,0.5
			c0,0.15,0.06,0.29,0.18,0.44c0.12,0.15,0.34,0.3,0.67,0.46l0.68,0.33c0.42,0.2,0.73,0.4,0.93,0.59c0.33,0.33,0.49,0.72,0.49,1.2
			c0,0.46-0.17,0.89-0.5,1.29c-0.34,0.4-0.84,0.6-1.51,0.6c-0.17,0-0.33-0.02-0.5-0.05c-0.17-0.03-0.38-0.09-0.62-0.18l-0.21-0.07
			c-0.08-0.03-0.12-0.04-0.14-0.05c-0.02,0-0.04-0.01-0.07-0.01c-0.07,0-0.13,0.03-0.18,0.08s-0.11,0.15-0.17,0.28h-0.3V62.27z"/>
		<path class="st10" d="M63.44,58.97v-0.35c0.11-0.1,0.25-0.22,0.41-0.36c0.21-0.2,0.42-0.4,0.61-0.62
			c0.38-0.41,0.72-0.86,1.03-1.33h0.32v2.11h1.19v0.55H65.8v3.75c0,0.17,0.03,0.32,0.08,0.44c0.08,0.18,0.22,0.27,0.4,0.27
			c0.16,0,0.3-0.06,0.41-0.17c0.11-0.12,0.22-0.28,0.33-0.48l0.3,0.15c-0.15,0.34-0.32,0.62-0.52,0.83
			c-0.36,0.38-0.79,0.57-1.31,0.57c-0.29,0-0.55-0.05-0.77-0.16c-0.42-0.21-0.63-0.59-0.64-1.15v-4.04H63.44z"/>
		<path class="st10" d="M67.62,63.86c0.24-0.03,0.41-0.08,0.5-0.17c0.09-0.09,0.14-0.25,0.15-0.49l0.01-0.37v-3.39
			c0-0.26-0.04-0.44-0.13-0.53c-0.09-0.09-0.27-0.16-0.53-0.19v-0.3h2.36v0.98c0.26-0.35,0.53-0.62,0.79-0.82
			c0.26-0.2,0.56-0.3,0.9-0.3c0.26,0,0.49,0.08,0.69,0.25c0.21,0.17,0.31,0.41,0.31,0.72c0,0.24-0.07,0.44-0.22,0.6
			s-0.33,0.24-0.56,0.24c-0.26,0-0.49-0.12-0.69-0.37s-0.33-0.37-0.41-0.37c-0.17,0-0.33,0.1-0.5,0.31s-0.25,0.5-0.25,0.88v2.36
			c0,0.41,0.06,0.67,0.18,0.77c0.12,0.1,0.36,0.17,0.72,0.2v0.3h-3.32V63.86z"/>
		<path class="st10" d="M73.76,59.07c0.51-0.53,1.12-0.79,1.84-0.79c0.41,0,0.8,0.11,1.16,0.32c0.36,0.22,0.64,0.51,0.83,0.9
			c0.15,0.29,0.25,0.66,0.31,1.12c0.03,0.22,0.04,0.38,0.04,0.49h-3.19c0.03,0.5,0.11,0.93,0.24,1.3c0.24,0.69,0.67,1.03,1.29,1.03
			c0.29,0,0.57-0.09,0.83-0.27c0.16-0.11,0.36-0.29,0.59-0.55L78,62.78c-0.39,0.63-0.83,1.07-1.34,1.32
			c-0.33,0.16-0.71,0.24-1.13,0.24c-0.61,0-1.19-0.24-1.73-0.72c-0.54-0.48-0.8-1.25-0.8-2.32C72.99,60.34,73.25,59.6,73.76,59.07z
			 M76.41,60.64c-0.01-0.73-0.06-1.25-0.17-1.54c-0.11-0.29-0.32-0.44-0.64-0.44c-0.33,0-0.55,0.17-0.67,0.51s-0.19,0.83-0.2,1.47
			H76.41z"/>
		<path class="st10" d="M79.38,61.66c0.54-0.33,1.39-0.66,2.54-1v-0.91c0-0.37-0.08-0.64-0.23-0.82s-0.43-0.27-0.83-0.27
			c-0.22,0-0.41,0.04-0.55,0.12c-0.14,0.08-0.22,0.19-0.22,0.31c0,0.05,0.01,0.09,0.02,0.12c0.02,0.03,0.04,0.07,0.07,0.1l0.07,0.09
			c0.06,0.07,0.1,0.14,0.14,0.23c0.03,0.08,0.05,0.17,0.05,0.26c0,0.24-0.08,0.42-0.23,0.54c-0.16,0.13-0.34,0.19-0.55,0.19
			c-0.24,0-0.44-0.07-0.61-0.21c-0.17-0.14-0.25-0.35-0.25-0.61c0-0.48,0.23-0.86,0.68-1.14c0.45-0.28,1-0.42,1.66-0.42
			c0.71,0,1.3,0.14,1.77,0.41c0.47,0.28,0.71,0.78,0.71,1.52v3.02c0,0.09,0.02,0.17,0.07,0.23c0.05,0.06,0.1,0.09,0.16,0.09
			c0.05,0,0.09-0.01,0.13-0.03c0.04-0.02,0.1-0.07,0.18-0.15l0.19,0.26c-0.24,0.28-0.51,0.48-0.81,0.6
			c-0.19,0.07-0.38,0.11-0.59,0.11c-0.37,0-0.64-0.11-0.81-0.32c-0.1-0.12-0.17-0.3-0.21-0.54c-0.34,0.35-0.73,0.59-1.17,0.73
			c-0.26,0.09-0.52,0.13-0.78,0.13c-0.34,0-0.66-0.11-0.96-0.33c-0.3-0.22-0.45-0.56-0.45-1.02C78.57,62.43,78.84,61.99,79.38,61.66
			z M81.56,63.27c0.1-0.07,0.21-0.19,0.35-0.34V61.1c-0.33,0.08-0.63,0.21-0.88,0.38c-0.43,0.3-0.64,0.68-0.64,1.14
			c0,0.27,0.06,0.48,0.19,0.62c0.12,0.14,0.26,0.21,0.42,0.21C81.2,63.45,81.38,63.39,81.56,63.27z"/>
		<path class="st10" d="M84.7,63.86c0.23-0.03,0.38-0.08,0.47-0.15c0.14-0.11,0.21-0.31,0.21-0.61v-3.67c0-0.26-0.05-0.44-0.14-0.53
			c-0.09-0.09-0.27-0.16-0.54-0.19v-0.3h2.36v0.9c0.21-0.27,0.41-0.48,0.6-0.63c0.36-0.27,0.76-0.41,1.21-0.41
			c0.5,0,0.89,0.12,1.16,0.35c0.15,0.13,0.3,0.35,0.44,0.66h0.08c0.24-0.29,0.46-0.51,0.68-0.65c0.34-0.24,0.71-0.36,1.12-0.36
			c0.44,0,0.83,0.14,1.16,0.42s0.5,0.72,0.5,1.33v3.14c0,0.29,0.05,0.47,0.14,0.55c0.09,0.08,0.26,0.13,0.49,0.16v0.3h-2.96v-0.3
			c0.23-0.03,0.39-0.09,0.48-0.17c0.09-0.08,0.13-0.26,0.13-0.54v-3.02c0-0.33-0.05-0.58-0.14-0.76s-0.28-0.27-0.54-0.27
			c-0.22,0-0.44,0.1-0.68,0.29c-0.24,0.2-0.36,0.33-0.36,0.41v3.34c0,0.27,0.04,0.45,0.12,0.52s0.23,0.14,0.46,0.18v0.3h-2.92v-0.3
			c0.22-0.03,0.38-0.08,0.47-0.16c0.09-0.08,0.14-0.26,0.14-0.54v-3.02c0-0.32-0.04-0.57-0.13-0.75c-0.09-0.18-0.27-0.27-0.55-0.27
			c-0.26,0-0.49,0.1-0.71,0.31s-0.33,0.34-0.33,0.39v3.34c0,0.27,0.04,0.45,0.12,0.52s0.23,0.14,0.46,0.18v0.3H84.7V63.86z"/>
		<path class="st10" d="M96.19,62.54c0.21-0.21,0.45-0.31,0.75-0.31s0.54,0.1,0.75,0.31s0.31,0.45,0.31,0.75
			c0,0.29-0.1,0.54-0.31,0.75c-0.21,0.21-0.45,0.31-0.75,0.31s-0.54-0.1-0.75-0.31c-0.21-0.21-0.31-0.45-0.31-0.75
			C95.88,62.99,95.98,62.74,96.19,62.54z"/>
	</g>
</g>
</svg>
