<?xml version="1.0" encoding="utf-8"?>
<!-- Generator: Adobe Illustrator 26.5.0, SVG Export Plug-In . SVG Version: 6.00 Build 0)  -->
<svg version="1.1" id="Layer_1" xmlns="http://www.w3.org/2000/svg" xmlns:xlink="http://www.w3.org/1999/xlink" x="0px" y="0px"
	 viewBox="0 0 106.23 106.04" style="enable-background:new 0 0 106.23 106.04;" xml:space="preserve">
<style type="text/css">
	.st0{clip-path:url(#SVGID_00000003826089345573306450000017088872276951820978_);fill:#887976;}
	.st1{clip-path:url(#SVGID_00000003826089345573306450000017088872276951820978_);}
	.st2{fill:#081F40;}
	.st3{clip-path:url(#SVGID_00000160163149260618136060000017762661867604199870_);fill:#A51D31;}
	.st4{clip-path:url(#SVGID_00000160163149260618136060000017762661867604199870_);fill:#FFFFFF;}
	.st5{clip-path:url(#SVGID_00000097471593104293798350000014000293679715463604_);fill:#FFFFFF;}
	.st6{clip-path:url(#SVGID_00000097471593104293798350000014000293679715463604_);}
	.st7{fill:#0E2346;}
	.st8{clip-path:url(#SVGID_00000046327169302375150000000009132366772058972599_);fill:#643D18;}
	.st9{clip-path:url(#SVGID_00000046327169302375150000000009132366772058972599_);}
	.st10{fill:#FFFFFF;}
	.st11{clip-path:url(#SVGID_00000039114944461568243770000007284495834368029871_);fill:#1E2758;}
	.st12{clip-path:url(#SVGID_00000039114944461568243770000007284495834368029871_);}
	.st13{fill:#EB1C2D;}
	.st14{clip-path:url(#SVGID_00000142888408278788122260000004008436471307072655_);fill:#0D4E91;}
	.st15{clip-path:url(#SVGID_00000142888408278788122260000004008436471307072655_);}
	.st16{clip-path:url(#SVGID_00000176033845110365022890000006503916800058652848_);fill:#672A7A;}
	.st17{clip-path:url(#SVGID_00000176033845110365022890000006503916800058652848_);fill:#F9F186;}
	
		.st18{clip-path:url(#SVGID_00000176033845110365022890000006503916800058652848_);fill:none;stroke:#000000;stroke-width:1.069;stroke-miterlimit:10;}
	.st19{clip-path:url(#SVGID_00000176033845110365022890000006503916800058652848_);fill:#F5EC3B;}
	.st20{clip-path:url(#SVGID_00000098934960384943989960000001206549756607240839_);fill:#E77625;}
	.st21{clip-path:url(#SVGID_00000098934960384943989960000001206549756607240839_);}
	.st22{clip-path:url(#SVGID_00000032621095856218220560000010832834091903158973_);fill:#D8272D;}
	.st23{clip-path:url(#SVGID_00000032621095856218220560000010832834091903158973_);}
	.st24{clip-path:url(#SVGID_00000031898237247557991510000009869190412416661906_);fill:#00954C;}
	.st25{clip-path:url(#SVGID_00000031898237247557991510000009869190412416661906_);}
	.st26{clip-path:url(#SVGID_00000062892664861655550710000004825225534904390077_);fill:#42B4E4;}
	.st27{clip-path:url(#SVGID_00000062892664861655550710000004825225534904390077_);}
	.st28{clip-path:url(#SVGID_00000151501124825363154400000008576361777776743865_);}
</style>
<g>
	<defs>
		<ellipse id="SVGID_00000008128915399785804840000003954051849626380730_" cx="53.11" cy="53.02" rx="53.11" ry="53.02"/>
	</defs>
	<clipPath id="SVGID_00000067230373160263431790000001814444510698527128_">
		<use xlink:href="#SVGID_00000008128915399785804840000003954051849626380730_"  style="overflow:visible;"/>
	</clipPath>
	<path style="clip-path:url(#SVGID_00000067230373160263431790000001814444510698527128_);fill:#D8272D;" d="M53.11,115.24
		c34.36,0,62.23-27.86,62.23-62.22c0-34.37-27.86-62.23-62.23-62.23S-9.11,18.65-9.11,53.02C-9.11,87.38,18.75,115.24,53.11,115.24"
		/>
	<g style="clip-path:url(#SVGID_00000067230373160263431790000001814444510698527128_);">
		<path class="st10" d="M17.05,42.77c0.31-0.01,0.54-0.04,0.68-0.11c0.22-0.12,0.34-0.34,0.34-0.67v-5.38
			c0-0.33-0.11-0.55-0.32-0.66c-0.13-0.07-0.36-0.11-0.69-0.12v-0.28h3.88v0.28c-0.35,0.01-0.59,0.05-0.72,0.12
			c-0.22,0.11-0.33,0.33-0.33,0.66v5.38c0,0.31,0.09,0.52,0.26,0.62c0.17,0.11,0.43,0.16,0.78,0.16v0.28h-3.88V42.77z"/>
		<path class="st10" d="M22.15,38.86c0.33-0.23,0.58-0.43,0.75-0.6c0.3-0.3,0.46-0.59,0.46-0.86c0-0.07-0.02-0.13-0.05-0.18
			c-0.04-0.05-0.1-0.07-0.17-0.07c-0.12,0.02-0.2,0.03-0.24,0.03c-0.24,0-0.44-0.08-0.59-0.24c-0.16-0.16-0.23-0.37-0.23-0.62
			c0-0.28,0.08-0.5,0.25-0.68c0.17-0.17,0.39-0.26,0.68-0.26c0.31,0,0.58,0.11,0.79,0.34c0.22,0.23,0.32,0.54,0.32,0.94
			c0,0.57-0.22,1.1-0.66,1.57c-0.28,0.3-0.67,0.59-1.18,0.87L22.15,38.86z"/>
		<path class="st10" d="M27.85,37.93v0.27c-0.2,0.01-0.34,0.03-0.44,0.07c-0.1,0.04-0.15,0.11-0.15,0.23c0,0.03,0.01,0.08,0.04,0.16
			c0.03,0.08,0.05,0.13,0.06,0.17l0.86,2.13h0.04l0.77-1.9c0.04-0.09,0.07-0.18,0.09-0.28c0.02-0.09,0.04-0.17,0.04-0.22
			c0-0.16-0.05-0.25-0.16-0.3c-0.11-0.04-0.26-0.06-0.46-0.07v-0.27h1.68v0.27c-0.15,0.01-0.27,0.06-0.36,0.14s-0.19,0.24-0.28,0.46
			l-1.79,4.4h-0.28l-1.33-3.3c-0.09-0.23-0.19-0.45-0.27-0.65c-0.09-0.2-0.18-0.4-0.28-0.59c-0.1-0.2-0.18-0.32-0.24-0.37
			c-0.06-0.05-0.16-0.08-0.31-0.1v-0.27H27.85z"/>
		<path class="st10" d="M31.37,38.51c0.45-0.47,1-0.71,1.64-0.71c0.37,0,0.71,0.1,1.03,0.29c0.32,0.19,0.57,0.46,0.74,0.8
			c0.13,0.26,0.22,0.59,0.27,1c0.03,0.19,0.04,0.34,0.04,0.44h-2.84c0.03,0.44,0.1,0.83,0.22,1.16c0.22,0.61,0.6,0.92,1.15,0.92
			c0.26,0,0.51-0.08,0.74-0.24c0.14-0.1,0.32-0.26,0.53-0.49l0.25,0.16c-0.34,0.56-0.74,0.96-1.19,1.18
			c-0.29,0.14-0.63,0.21-1.01,0.21c-0.55,0-1.06-0.21-1.54-0.65c-0.48-0.43-0.72-1.12-0.72-2.06
			C30.69,39.65,30.91,38.98,31.37,38.51z M33.73,39.91c-0.01-0.65-0.06-1.11-0.15-1.37c-0.09-0.26-0.28-0.39-0.57-0.39
			c-0.29,0-0.49,0.15-0.6,0.45c-0.11,0.3-0.17,0.74-0.18,1.31H33.73z"/>
		<path class="st10" d="M38.6,43.84c0.13-0.17,0.36-0.28,0.69-0.33v-0.08c-0.22-0.08-0.37-0.17-0.47-0.25
			c-0.17-0.16-0.26-0.36-0.26-0.62c0-0.31,0.14-0.58,0.41-0.8c0.27-0.22,0.54-0.37,0.8-0.46v-0.08c-0.38-0.15-0.68-0.37-0.91-0.65
			c-0.23-0.28-0.35-0.62-0.35-1.02c0-0.51,0.2-0.92,0.61-1.25c0.4-0.33,0.95-0.49,1.64-0.49c0.26,0,0.5,0.02,0.72,0.08
			s0.39,0.1,0.5,0.16h1.46v0.59h-0.9c0.14,0.14,0.26,0.31,0.33,0.49c0.08,0.19,0.12,0.39,0.12,0.61c0,0.69-0.33,1.17-0.99,1.43
			c-0.35,0.14-0.78,0.21-1.3,0.21c-0.11,0-0.19,0-0.22-0.01c-0.03,0-0.09-0.01-0.15-0.01c-0.11,0.02-0.22,0.08-0.34,0.17
			c-0.12,0.1-0.18,0.22-0.18,0.36c0,0.11,0.03,0.2,0.09,0.26c0.06,0.06,0.15,0.1,0.25,0.11c0.05,0.01,0.17,0.01,0.35,0.02
			c0.18,0.01,0.31,0.01,0.41,0.01l0.72,0.01c0.41,0.01,0.75,0.07,1.03,0.18c0.53,0.22,0.8,0.61,0.8,1.17c0,0.72-0.4,1.22-1.19,1.49
			c-0.42,0.14-0.95,0.21-1.58,0.21c-0.52,0-0.97-0.05-1.34-0.15c-0.62-0.17-0.93-0.46-0.93-0.87C38.41,44.18,38.47,44.01,38.6,43.84
			z M39.75,44.8c0.24,0.13,0.6,0.2,1.06,0.2c0.41,0,0.75-0.03,1.02-0.1c0.5-0.12,0.75-0.35,0.75-0.68c0-0.19-0.07-0.34-0.21-0.43
			c-0.14-0.1-0.4-0.14-0.78-0.14h-1.82c-0.12,0.09-0.2,0.17-0.25,0.24c-0.09,0.12-0.13,0.25-0.13,0.38
			C39.38,44.49,39.5,44.67,39.75,44.8z M40.14,40.54c0.11,0.33,0.32,0.49,0.62,0.49c0.28,0,0.47-0.12,0.58-0.37
			c0.1-0.24,0.16-0.6,0.16-1.07c0-0.5-0.06-0.86-0.17-1.09c-0.11-0.23-0.3-0.34-0.57-0.34c-0.29,0-0.49,0.12-0.59,0.37
			s-0.15,0.6-0.15,1.07C40.03,40.02,40.06,40.34,40.14,40.54z"/>
		<path class="st10" d="M44.66,38.57c0.48-0.52,1.07-0.78,1.79-0.78c0.73,0,1.33,0.26,1.8,0.79c0.47,0.53,0.7,1.17,0.7,1.92
			c0,0.74-0.23,1.38-0.69,1.91c-0.46,0.53-1.07,0.8-1.81,0.8c-0.72,0-1.32-0.26-1.8-0.78s-0.71-1.16-0.71-1.93
			C43.95,39.73,44.19,39.09,44.66,38.57z M45.7,42.14c0.13,0.48,0.38,0.72,0.75,0.72c0.36,0,0.59-0.18,0.71-0.55
			c0.11-0.37,0.17-0.97,0.17-1.8c0-0.83-0.06-1.43-0.18-1.8c-0.12-0.37-0.35-0.56-0.69-0.56c-0.38,0-0.63,0.24-0.75,0.72
			c-0.08,0.32-0.12,0.87-0.12,1.63C45.58,41.28,45.62,41.83,45.7,42.14z"/>
		<path class="st10" d="M49.44,38.42v-0.31c0.1-0.09,0.22-0.2,0.36-0.32c0.19-0.18,0.37-0.36,0.54-0.55
			c0.34-0.37,0.64-0.77,0.92-1.19h0.28v1.88h1.06v0.49h-1.06v3.34c0,0.16,0.02,0.29,0.07,0.39c0.07,0.16,0.19,0.24,0.36,0.24
			c0.14,0,0.27-0.05,0.36-0.15s0.2-0.25,0.29-0.43l0.27,0.13c-0.13,0.3-0.29,0.55-0.47,0.74c-0.32,0.34-0.71,0.5-1.17,0.5
			c-0.26,0-0.49-0.05-0.68-0.15c-0.38-0.19-0.56-0.53-0.57-1.02v-3.6H49.44z"/>
		<path class="st10" d="M56.74,40.82c0.48-0.29,1.24-0.59,2.26-0.89v-0.81c0-0.33-0.07-0.57-0.21-0.73
			c-0.14-0.16-0.39-0.24-0.74-0.24c-0.2,0-0.36,0.04-0.49,0.11c-0.13,0.07-0.19,0.17-0.19,0.28c0,0.04,0.01,0.08,0.02,0.11
			c0.01,0.03,0.04,0.06,0.06,0.09l0.07,0.08c0.05,0.06,0.09,0.13,0.12,0.2c0.03,0.07,0.05,0.15,0.05,0.24
			c0,0.21-0.07,0.37-0.21,0.49c-0.14,0.11-0.3,0.17-0.49,0.17c-0.21,0-0.39-0.06-0.54-0.19c-0.15-0.13-0.22-0.31-0.22-0.55
			c0-0.43,0.2-0.76,0.6-1.01s0.9-0.37,1.48-0.37c0.63,0,1.16,0.12,1.58,0.36c0.42,0.25,0.63,0.7,0.63,1.36v2.69
			c0,0.08,0.02,0.15,0.06,0.2c0.04,0.06,0.09,0.08,0.14,0.08c0.04,0,0.08-0.01,0.12-0.02c0.03-0.02,0.09-0.06,0.16-0.13l0.17,0.23
			c-0.22,0.25-0.46,0.43-0.72,0.53c-0.17,0.07-0.34,0.1-0.53,0.1c-0.33,0-0.57-0.1-0.72-0.29c-0.09-0.11-0.15-0.27-0.19-0.48
			c-0.31,0.31-0.65,0.53-1.04,0.65c-0.24,0.08-0.47,0.12-0.69,0.12c-0.3,0-0.59-0.1-0.85-0.29c-0.26-0.19-0.4-0.5-0.4-0.9
			C56.02,41.51,56.26,41.12,56.74,40.82z M58.67,42.25c0.09-0.06,0.19-0.17,0.31-0.3v-1.63c-0.3,0.07-0.56,0.19-0.78,0.34
			c-0.38,0.26-0.57,0.6-0.57,1.01c0,0.24,0.05,0.43,0.17,0.55c0.11,0.13,0.23,0.19,0.37,0.19C58.35,42.41,58.52,42.36,58.67,42.25z"
			/>
		<path class="st10" d="M64.22,42.78c0.23-0.02,0.39-0.07,0.49-0.15c0.1-0.08,0.15-0.26,0.15-0.52V38.5h-0.64v-0.49h0.64V37.6
			c0-0.52,0.08-0.94,0.24-1.27c0.31-0.62,0.88-0.93,1.7-0.93c0.44,0,0.81,0.1,1.12,0.3s0.46,0.47,0.46,0.79
			c0,0.21-0.06,0.37-0.19,0.5c-0.13,0.13-0.3,0.19-0.51,0.19c-0.18,0-0.33-0.06-0.46-0.17s-0.19-0.25-0.19-0.42
			c0-0.12,0.04-0.25,0.12-0.39c0.08-0.14,0.12-0.22,0.12-0.25c0-0.09-0.03-0.15-0.1-0.17c-0.07-0.03-0.14-0.04-0.21-0.04
			c-0.18,0-0.32,0.05-0.42,0.16c-0.1,0.1-0.15,0.33-0.15,0.68v1.44h0.96v0.49H66.4v3.41c0,0.38,0.05,0.62,0.17,0.71
			c0.11,0.09,0.36,0.14,0.73,0.17v0.27h-3.09V42.78z"/>
		<path class="st10" d="M68.69,38.51c0.45-0.47,1-0.71,1.64-0.71c0.37,0,0.71,0.1,1.03,0.29c0.32,0.19,0.57,0.46,0.74,0.8
			c0.13,0.26,0.22,0.59,0.27,1c0.03,0.19,0.04,0.34,0.04,0.44h-2.84c0.03,0.44,0.1,0.83,0.22,1.16c0.22,0.61,0.6,0.92,1.15,0.92
			c0.26,0,0.51-0.08,0.74-0.24c0.14-0.1,0.32-0.26,0.53-0.49l0.25,0.16c-0.34,0.56-0.74,0.96-1.19,1.18
			c-0.29,0.14-0.63,0.21-1.01,0.21c-0.55,0-1.06-0.21-1.54-0.65c-0.48-0.43-0.72-1.12-0.72-2.06
			C68.01,39.65,68.23,38.98,68.69,38.51z M71.05,39.91c-0.01-0.65-0.06-1.11-0.15-1.37c-0.09-0.26-0.28-0.39-0.57-0.39
			c-0.29,0-0.49,0.15-0.6,0.45c-0.11,0.3-0.17,0.74-0.18,1.31H71.05z"/>
		<path class="st10" d="M75.65,37.93v0.27c-0.2,0.01-0.34,0.03-0.44,0.07c-0.1,0.04-0.15,0.11-0.15,0.23c0,0.03,0.01,0.08,0.04,0.16
			c0.03,0.08,0.05,0.13,0.06,0.17l0.86,2.13h0.04l0.77-1.9c0.04-0.09,0.07-0.18,0.09-0.28c0.02-0.09,0.04-0.17,0.04-0.22
			c0-0.16-0.05-0.25-0.16-0.3c-0.11-0.04-0.26-0.06-0.46-0.07v-0.27h1.68v0.27c-0.15,0.01-0.27,0.06-0.36,0.14s-0.19,0.24-0.28,0.46
			l-1.79,4.4h-0.28l-1.33-3.3c-0.09-0.23-0.19-0.45-0.27-0.65c-0.09-0.2-0.18-0.4-0.28-0.59c-0.1-0.2-0.18-0.32-0.24-0.37
			c-0.06-0.05-0.16-0.08-0.31-0.1v-0.27H75.65z"/>
		<path class="st10" d="M79.17,38.51c0.45-0.47,1-0.71,1.64-0.71c0.37,0,0.71,0.1,1.03,0.29c0.32,0.19,0.57,0.46,0.74,0.8
			c0.13,0.26,0.22,0.59,0.27,1c0.03,0.19,0.04,0.34,0.04,0.44h-2.84c0.03,0.44,0.1,0.83,0.22,1.16c0.22,0.61,0.6,0.92,1.15,0.92
			c0.26,0,0.51-0.08,0.74-0.24c0.14-0.1,0.32-0.26,0.53-0.49l0.25,0.16c-0.34,0.56-0.74,0.96-1.19,1.18
			c-0.29,0.14-0.63,0.21-1.01,0.21c-0.55,0-1.06-0.21-1.54-0.65c-0.48-0.43-0.72-1.12-0.72-2.06
			C78.49,39.65,78.72,38.98,79.17,38.51z M81.53,39.91c-0.01-0.65-0.06-1.11-0.15-1.37c-0.09-0.26-0.28-0.39-0.57-0.39
			c-0.29,0-0.49,0.15-0.6,0.45c-0.11,0.3-0.17,0.74-0.18,1.31H81.53z"/>
		<path class="st10" d="M83.38,42.78c0.21-0.03,0.36-0.08,0.45-0.15s0.13-0.22,0.14-0.44l0.01-0.33v-3.02
			c0-0.23-0.04-0.39-0.12-0.48c-0.08-0.08-0.24-0.14-0.47-0.17v-0.27h2.1v0.87c0.24-0.31,0.47-0.55,0.7-0.73
			c0.23-0.18,0.5-0.27,0.8-0.27c0.23,0,0.43,0.07,0.62,0.22c0.18,0.15,0.27,0.36,0.27,0.64c0,0.22-0.06,0.4-0.19,0.54
			s-0.3,0.21-0.5,0.21c-0.24,0-0.44-0.11-0.61-0.33s-0.29-0.33-0.36-0.33c-0.15,0-0.3,0.09-0.45,0.27s-0.23,0.44-0.23,0.78v2.1
			c0,0.37,0.05,0.6,0.16,0.69c0.11,0.09,0.32,0.15,0.64,0.18v0.27h-2.96V42.78z"/>
		<path class="st10" d="M88.05,44.81c0.34-0.23,0.59-0.43,0.76-0.61c0.3-0.3,0.45-0.58,0.45-0.85c0-0.08-0.02-0.14-0.05-0.18
			c-0.04-0.04-0.1-0.06-0.17-0.06c-0.04,0-0.08,0-0.14,0.01c-0.05,0.01-0.09,0.01-0.11,0.01c-0.22,0-0.41-0.08-0.57-0.23
			c-0.16-0.15-0.24-0.37-0.24-0.63c0-0.28,0.08-0.5,0.25-0.68c0.17-0.17,0.39-0.26,0.66-0.26c0.33,0,0.6,0.12,0.82,0.35
			c0.21,0.23,0.32,0.55,0.32,0.94c0,0.6-0.24,1.14-0.72,1.63c-0.26,0.26-0.63,0.53-1.12,0.81L88.05,44.81z"/>
	</g>
	<g style="clip-path:url(#SVGID_00000067230373160263431790000001814444510698527128_);">
		<path class="st10" d="M25.05,51.87c0.48-0.29,1.24-0.59,2.26-0.89v-0.81c0-0.33-0.07-0.57-0.21-0.73
			c-0.14-0.16-0.39-0.24-0.74-0.24c-0.2,0-0.36,0.04-0.49,0.11c-0.13,0.07-0.19,0.17-0.19,0.28c0,0.04,0.01,0.08,0.02,0.11
			c0.01,0.03,0.04,0.06,0.06,0.09l0.07,0.08c0.05,0.06,0.09,0.13,0.12,0.2S26,50.24,26,50.32c0,0.21-0.07,0.37-0.21,0.49
			c-0.14,0.11-0.3,0.17-0.49,0.17c-0.21,0-0.39-0.06-0.54-0.19c-0.15-0.13-0.22-0.31-0.22-0.55c0-0.43,0.2-0.76,0.6-1.01
			s0.9-0.37,1.48-0.37c0.63,0,1.16,0.12,1.58,0.36c0.42,0.25,0.63,0.7,0.63,1.36v2.69c0,0.08,0.02,0.15,0.06,0.2
			c0.04,0.06,0.09,0.08,0.14,0.08c0.04,0,0.08-0.01,0.12-0.02c0.03-0.02,0.09-0.06,0.16-0.13l0.17,0.23
			c-0.22,0.25-0.46,0.43-0.72,0.53c-0.17,0.07-0.34,0.1-0.53,0.1c-0.33,0-0.57-0.1-0.72-0.29c-0.09-0.11-0.15-0.27-0.19-0.48
			c-0.31,0.31-0.65,0.53-1.04,0.65c-0.24,0.08-0.47,0.12-0.69,0.12c-0.3,0-0.59-0.1-0.85-0.29c-0.26-0.19-0.4-0.5-0.4-0.91
			C24.33,52.56,24.57,52.17,25.05,51.87z M26.99,53.3c0.09-0.07,0.19-0.17,0.31-0.3v-1.62c-0.3,0.07-0.56,0.19-0.78,0.34
			c-0.38,0.26-0.57,0.6-0.57,1.01c0,0.24,0.05,0.43,0.17,0.55s0.23,0.19,0.37,0.19C26.66,53.47,26.83,53.41,26.99,53.3z"/>
		<path class="st10" d="M29.78,53.84c0.2-0.03,0.35-0.08,0.45-0.17c0.1-0.08,0.14-0.25,0.14-0.51V49.9c0-0.23-0.04-0.38-0.12-0.47
			c-0.08-0.09-0.24-0.15-0.47-0.17v-0.27h2.1v0.8c0.18-0.27,0.4-0.49,0.67-0.66c0.27-0.17,0.58-0.26,0.91-0.26
			c0.48,0,0.85,0.12,1.11,0.37c0.26,0.25,0.39,0.68,0.39,1.3v2.68c0,0.25,0.04,0.41,0.13,0.48s0.23,0.12,0.43,0.15v0.27h-2.61v-0.27
			c0.2-0.04,0.33-0.09,0.41-0.16c0.07-0.07,0.11-0.22,0.11-0.47v-2.69c0-0.25-0.03-0.44-0.08-0.57c-0.09-0.23-0.26-0.34-0.52-0.34
			c-0.19,0-0.37,0.07-0.53,0.21s-0.29,0.28-0.37,0.42v2.97c0,0.24,0.04,0.4,0.11,0.47c0.07,0.07,0.21,0.12,0.41,0.16v0.27h-2.67
			V53.84z"/>
		<path class="st10" d="M36.69,49.62c0.42-0.51,0.92-0.76,1.5-0.76c0.29,0,0.55,0.07,0.78,0.22c0.14,0.09,0.32,0.24,0.53,0.47v-2.03
			c0-0.28-0.05-0.46-0.16-0.52s-0.33-0.11-0.67-0.12V46.6h2.39v6.39c0,0.23,0.04,0.39,0.13,0.48c0.09,0.09,0.26,0.14,0.51,0.16v0.25
			c-0.62,0.06-1.02,0.11-1.2,0.14c-0.18,0.03-0.5,0.11-0.96,0.24v-0.73c-0.21,0.22-0.4,0.38-0.58,0.48
			c-0.27,0.17-0.57,0.25-0.89,0.25c-0.54,0-1.01-0.23-1.42-0.69s-0.6-1.08-0.6-1.87C36.06,50.82,36.27,50.13,36.69,49.62z
			 M39.22,53.31c0.19-0.21,0.29-0.36,0.29-0.45v-2.7c0-0.09-0.08-0.22-0.24-0.4c-0.16-0.18-0.38-0.27-0.65-0.27
			c-0.4,0-0.66,0.27-0.81,0.82c-0.08,0.29-0.11,0.71-0.11,1.24c0,0.57,0.04,1,0.11,1.29c0.13,0.52,0.39,0.79,0.77,0.79
			C38.81,53.63,39.03,53.52,39.22,53.31z"/>
		<path class="st10" d="M44.91,49.47v-0.31c0.1-0.09,0.22-0.2,0.36-0.32c0.19-0.18,0.37-0.36,0.54-0.55
			c0.34-0.37,0.64-0.76,0.92-1.19h0.28v1.88h1.06v0.49h-1.06v3.34c0,0.16,0.02,0.29,0.07,0.39c0.07,0.16,0.19,0.24,0.36,0.24
			c0.14,0,0.27-0.05,0.36-0.16c0.1-0.1,0.2-0.24,0.29-0.43L48.36,53c-0.13,0.3-0.29,0.55-0.47,0.74c-0.32,0.34-0.71,0.5-1.17,0.5
			c-0.26,0-0.49-0.05-0.68-0.15c-0.38-0.19-0.56-0.53-0.57-1.03v-3.6H44.91z"/>
		<path class="st10" d="M48.61,53.84c0.2-0.03,0.35-0.08,0.45-0.17c0.1-0.08,0.14-0.25,0.14-0.51v-5.66c0-0.22-0.04-0.38-0.12-0.47
			c-0.08-0.09-0.24-0.15-0.47-0.18V46.6h2.15v3.12c0.23-0.28,0.47-0.49,0.72-0.64c0.25-0.15,0.53-0.22,0.85-0.22
			c0.43,0,0.78,0.12,1.06,0.37c0.28,0.25,0.42,0.67,0.42,1.27v2.67c0,0.25,0.04,0.41,0.13,0.49c0.08,0.08,0.23,0.14,0.43,0.18v0.27
			h-2.61v-0.27c0.2-0.04,0.33-0.09,0.41-0.16c0.07-0.07,0.11-0.22,0.11-0.47v-2.69c0-0.25-0.03-0.44-0.08-0.57
			c-0.09-0.23-0.26-0.34-0.52-0.34c-0.19,0-0.39,0.09-0.59,0.27c-0.2,0.18-0.31,0.3-0.31,0.36v2.97c0,0.24,0.04,0.4,0.11,0.47
			c0.07,0.07,0.21,0.12,0.41,0.16v0.27h-2.67V53.84z"/>
		<path class="st10" d="M55.53,49.56c0.45-0.47,1-0.71,1.64-0.71c0.37,0,0.71,0.1,1.03,0.29s0.57,0.46,0.74,0.8
			c0.13,0.26,0.22,0.59,0.27,1c0.03,0.19,0.04,0.34,0.04,0.44h-2.84c0.03,0.45,0.1,0.83,0.22,1.16c0.22,0.61,0.6,0.92,1.15,0.92
			c0.26,0,0.51-0.08,0.74-0.24c0.14-0.1,0.32-0.26,0.53-0.49l0.25,0.16c-0.34,0.56-0.74,0.96-1.19,1.18
			c-0.29,0.14-0.63,0.21-1.01,0.21c-0.55,0-1.06-0.21-1.54-0.65c-0.48-0.43-0.72-1.12-0.72-2.06C54.85,50.7,55.08,50.04,55.53,49.56
			z M57.89,50.97c-0.01-0.65-0.06-1.11-0.15-1.37c-0.09-0.26-0.28-0.39-0.57-0.39c-0.29,0-0.49,0.15-0.6,0.45
			c-0.11,0.3-0.17,0.74-0.18,1.31H57.89z"/>
		<path class="st10" d="M63.27,49.62c0.48-0.52,1.07-0.78,1.79-0.78c0.73,0,1.33,0.26,1.8,0.79c0.47,0.53,0.7,1.17,0.7,1.92
			c0,0.74-0.23,1.38-0.69,1.91c-0.46,0.53-1.07,0.8-1.81,0.8c-0.72,0-1.32-0.26-1.8-0.78c-0.47-0.52-0.71-1.16-0.71-1.93
			C62.56,50.78,62.79,50.14,63.27,49.62z M64.31,53.19c0.13,0.48,0.38,0.72,0.75,0.72c0.36,0,0.59-0.18,0.71-0.55
			c0.11-0.37,0.17-0.97,0.17-1.8c0-0.83-0.06-1.43-0.18-1.8c-0.12-0.37-0.35-0.56-0.69-0.56c-0.38,0-0.63,0.24-0.75,0.72
			c-0.08,0.32-0.12,0.87-0.12,1.63C64.19,52.33,64.23,52.88,64.31,53.19z"/>
		<path class="st10" d="M68.05,53.84c0.2-0.03,0.35-0.08,0.45-0.17c0.1-0.08,0.14-0.25,0.14-0.51V49.9c0-0.23-0.04-0.38-0.12-0.47
			c-0.08-0.09-0.24-0.15-0.47-0.17v-0.27h2.1v0.8c0.18-0.27,0.4-0.49,0.67-0.66c0.27-0.17,0.58-0.26,0.91-0.26
			c0.48,0,0.85,0.12,1.11,0.37c0.26,0.25,0.39,0.68,0.39,1.3v2.68c0,0.25,0.04,0.41,0.13,0.48s0.23,0.12,0.43,0.15v0.27h-2.61v-0.27
			c0.2-0.04,0.33-0.09,0.41-0.16c0.07-0.07,0.11-0.22,0.11-0.47v-2.69c0-0.25-0.03-0.44-0.08-0.57c-0.09-0.23-0.26-0.34-0.52-0.34
			c-0.19,0-0.37,0.07-0.53,0.21s-0.29,0.28-0.37,0.42v2.97c0,0.24,0.04,0.4,0.11,0.47c0.07,0.07,0.21,0.12,0.41,0.16v0.27h-2.67
			V53.84z"/>
		<path class="st10" d="M74.22,53.84c0.2-0.05,0.33-0.11,0.42-0.19c0.08-0.08,0.12-0.24,0.12-0.49v-5.66c0-0.24-0.04-0.39-0.11-0.47
			c-0.08-0.07-0.22-0.13-0.42-0.18V46.6h2.1v6.57c0,0.25,0.04,0.41,0.12,0.48c0.08,0.08,0.22,0.14,0.42,0.19v0.27h-2.65V53.84z"/>
		<path class="st10" d="M77.36,54.97c0.16-0.12,0.34-0.18,0.56-0.18c0.19,0,0.34,0.05,0.46,0.16c0.12,0.1,0.18,0.23,0.18,0.37
			l-0.03,0.24c0,0.05,0.02,0.09,0.06,0.13s0.09,0.06,0.14,0.06c0.19,0,0.37-0.15,0.54-0.45c0.1-0.19,0.25-0.55,0.45-1.09l-1.32-3.25
			c-0.09-0.23-0.19-0.45-0.27-0.65c-0.09-0.2-0.18-0.4-0.28-0.59c-0.1-0.2-0.18-0.32-0.24-0.37c-0.06-0.05-0.16-0.08-0.31-0.1v-0.27
			h2.78v0.27c-0.17,0-0.32,0.02-0.43,0.06s-0.17,0.11-0.17,0.23c0,0.03,0.01,0.06,0.02,0.1s0.04,0.12,0.08,0.23l0.88,2.19h0.05
			l0.73-1.95c0.04-0.11,0.07-0.2,0.09-0.29c0.02-0.08,0.04-0.15,0.04-0.21c0-0.16-0.05-0.25-0.16-0.3c-0.1-0.04-0.26-0.06-0.46-0.07
			v-0.27h1.68v0.27c-0.14,0.01-0.26,0.05-0.36,0.12c-0.09,0.07-0.19,0.23-0.28,0.49l-1.66,4.43c-0.32,0.82-0.6,1.37-0.83,1.67
			c-0.23,0.29-0.6,0.44-1.09,0.44c-0.36,0-0.64-0.09-0.82-0.27c-0.19-0.18-0.28-0.38-0.28-0.59C77.13,55.28,77.21,55.09,77.36,54.97
			z"/>
	</g>
	<g style="clip-path:url(#SVGID_00000067230373160263431790000001814444510698527128_);">
		<path class="st10" d="M9.85,67.18c0.24-0.02,0.4-0.08,0.49-0.17s0.13-0.25,0.13-0.48v-5.58c0-0.23-0.04-0.39-0.12-0.47
			c-0.08-0.08-0.24-0.14-0.47-0.17v-0.27H12v0.73c0.15-0.25,0.3-0.44,0.44-0.56c0.26-0.21,0.59-0.31,1-0.31
			c0.58,0,1.07,0.22,1.45,0.66c0.39,0.44,0.58,1.09,0.58,1.96c0,0.81-0.21,1.47-0.62,2c-0.41,0.53-0.92,0.79-1.51,0.79
			c-0.3,0-0.59-0.09-0.86-0.27c-0.14-0.09-0.29-0.23-0.45-0.4v0.94c0,0.5,0.01,0.78,0.01,0.84c0.02,0.29,0.1,0.49,0.22,0.6
			s0.33,0.17,0.63,0.19v0.23H9.85V67.18z M13.72,63.9c0.08-0.29,0.11-0.71,0.11-1.26c0-0.64-0.06-1.14-0.17-1.52
			c-0.12-0.38-0.35-0.57-0.7-0.57c-0.24,0-0.45,0.1-0.64,0.31c-0.19,0.21-0.28,0.36-0.28,0.46v2.7c0,0.11,0.09,0.25,0.27,0.42
			c0.18,0.17,0.38,0.26,0.61,0.26C13.3,64.69,13.57,64.43,13.72,63.9z"/>
		<path class="st10" d="M16.03,64.89c0.21-0.03,0.36-0.08,0.45-0.15c0.08-0.08,0.13-0.22,0.14-0.44l0.01-0.33v-3.02
			c0-0.23-0.04-0.39-0.12-0.48c-0.08-0.08-0.24-0.14-0.47-0.17v-0.27h2.1v0.87c0.24-0.31,0.47-0.55,0.7-0.73
			c0.23-0.18,0.5-0.27,0.8-0.27c0.23,0,0.43,0.07,0.62,0.22c0.18,0.15,0.27,0.36,0.27,0.64c0,0.22-0.06,0.4-0.19,0.54
			c-0.13,0.14-0.3,0.21-0.5,0.21c-0.24,0-0.44-0.11-0.61-0.33c-0.17-0.22-0.29-0.33-0.36-0.33c-0.15,0-0.3,0.09-0.45,0.27
			s-0.23,0.44-0.23,0.79v2.1c0,0.37,0.05,0.6,0.16,0.69c0.11,0.09,0.32,0.15,0.64,0.18v0.27h-2.96V64.89z"/>
		<path class="st10" d="M21.5,60.62c0.45-0.47,1-0.71,1.64-0.71c0.37,0,0.71,0.1,1.03,0.29s0.57,0.46,0.74,0.8
			c0.13,0.26,0.22,0.59,0.27,1c0.03,0.19,0.04,0.34,0.04,0.44h-2.84c0.03,0.45,0.1,0.83,0.22,1.16c0.22,0.61,0.6,0.92,1.15,0.92
			c0.26,0,0.51-0.08,0.74-0.24c0.14-0.1,0.32-0.26,0.53-0.49l0.25,0.16c-0.34,0.56-0.74,0.96-1.19,1.18
			c-0.29,0.14-0.63,0.21-1.01,0.21c-0.55,0-1.06-0.21-1.54-0.65c-0.48-0.43-0.72-1.12-0.72-2.06C20.82,61.75,21.04,61.09,21.5,60.62
			z M23.86,62.02c-0.01-0.65-0.06-1.11-0.15-1.37c-0.09-0.26-0.28-0.39-0.57-0.39c-0.29,0-0.49,0.15-0.6,0.45
			c-0.11,0.3-0.17,0.74-0.18,1.31H23.86z"/>
		<path class="st10" d="M25.78,63.47h0.31C26.2,64,26.4,64.38,26.7,64.6c0.3,0.22,0.6,0.33,0.91,0.33c0.29,0,0.5-0.06,0.63-0.19
			c0.13-0.13,0.2-0.3,0.2-0.51c0-0.2-0.07-0.37-0.22-0.51c-0.08-0.08-0.21-0.16-0.38-0.24l-0.83-0.4c-0.43-0.21-0.74-0.44-0.93-0.69
			c-0.19-0.25-0.29-0.54-0.29-0.88c0-0.43,0.15-0.8,0.45-1.11c0.3-0.31,0.72-0.47,1.26-0.47c0.24,0,0.48,0.04,0.75,0.12
			c0.26,0.08,0.43,0.12,0.49,0.12c0.09,0,0.15-0.02,0.19-0.06s0.07-0.09,0.09-0.16h0.24v1.61h-0.28c-0.1-0.38-0.28-0.68-0.51-0.91
			s-0.52-0.34-0.83-0.34c-0.25,0-0.43,0.07-0.55,0.21s-0.18,0.29-0.18,0.44c0,0.13,0.05,0.26,0.16,0.39c0.1,0.13,0.3,0.27,0.6,0.41
			l0.61,0.29c0.38,0.18,0.65,0.36,0.83,0.53c0.29,0.29,0.43,0.65,0.43,1.07c0,0.41-0.15,0.8-0.45,1.15
			c-0.3,0.36-0.75,0.53-1.34,0.53c-0.15,0-0.3-0.02-0.45-0.05c-0.15-0.03-0.33-0.08-0.56-0.16l-0.19-0.07
			C26.48,65.01,26.44,65,26.43,65s-0.04-0.01-0.06-0.01c-0.06,0-0.12,0.02-0.16,0.07s-0.1,0.13-0.15,0.25h-0.27V63.47z"/>
		<path class="st10" d="M33.9,60.24c0.34,0.23,0.51,0.52,0.51,0.88c0,0.19-0.07,0.36-0.2,0.5c-0.14,0.14-0.31,0.21-0.52,0.21
			c-0.14,0-0.26-0.03-0.37-0.1c-0.2-0.12-0.3-0.33-0.3-0.63c0-0.03,0-0.08,0-0.14c0-0.06,0.01-0.13,0.01-0.2
			c0-0.2-0.05-0.33-0.14-0.4c-0.09-0.07-0.2-0.11-0.32-0.11c-0.34,0-0.59,0.19-0.73,0.57c-0.14,0.38-0.22,0.81-0.22,1.3
			c0,0.69,0.14,1.28,0.41,1.75c0.28,0.47,0.65,0.71,1.11,0.71c0.29,0,0.54-0.07,0.75-0.2c0.12-0.08,0.28-0.21,0.46-0.42l0.21,0.19
			c-0.36,0.5-0.79,0.85-1.27,1.04c-0.26,0.1-0.53,0.15-0.82,0.15c-0.71,0-1.29-0.25-1.75-0.76c-0.45-0.51-0.68-1.13-0.68-1.87
			c0-0.77,0.24-1.43,0.72-1.98c0.48-0.54,1.12-0.82,1.92-0.82C33.15,59.9,33.56,60.01,33.9,60.24z"/>
		<path class="st10" d="M34.95,64.89c0.21-0.03,0.36-0.08,0.45-0.15c0.08-0.08,0.13-0.22,0.14-0.44l0.01-0.33v-3.02
			c0-0.23-0.04-0.39-0.12-0.48c-0.08-0.08-0.24-0.14-0.47-0.17v-0.27h2.1v0.87c0.24-0.31,0.47-0.55,0.7-0.73
			c0.23-0.18,0.5-0.27,0.8-0.27c0.23,0,0.43,0.07,0.62,0.22c0.18,0.15,0.27,0.36,0.27,0.64c0,0.22-0.06,0.4-0.19,0.54
			c-0.13,0.14-0.3,0.21-0.5,0.21c-0.24,0-0.44-0.11-0.61-0.33c-0.17-0.22-0.29-0.33-0.36-0.33c-0.15,0-0.3,0.09-0.45,0.27
			s-0.23,0.44-0.23,0.79v2.1c0,0.37,0.05,0.6,0.16,0.69c0.11,0.09,0.32,0.15,0.64,0.18v0.27h-2.96V64.89z"/>
		<path class="st10" d="M39.86,64.89c0.2-0.03,0.33-0.08,0.4-0.15c0.11-0.1,0.16-0.27,0.16-0.53v-3.26c0-0.23-0.04-0.38-0.11-0.46
			s-0.23-0.14-0.45-0.18v-0.27h2.13v4.22c0,0.24,0.04,0.4,0.11,0.47c0.07,0.07,0.21,0.12,0.41,0.16v0.27h-2.65V64.89z M40.6,57.73
			c0.17-0.17,0.37-0.25,0.61-0.25c0.24,0,0.44,0.08,0.6,0.25s0.25,0.37,0.25,0.61c0,0.24-0.08,0.44-0.25,0.61
			c-0.17,0.17-0.37,0.25-0.6,0.25c-0.24,0-0.44-0.08-0.61-0.25c-0.17-0.17-0.25-0.37-0.25-0.61C40.35,58.1,40.43,57.9,40.6,57.73z"
			/>
		<path class="st10" d="M42.97,67.18c0.24-0.02,0.4-0.08,0.49-0.17s0.13-0.25,0.13-0.48v-5.58c0-0.23-0.04-0.39-0.12-0.47
			c-0.08-0.08-0.24-0.14-0.47-0.17v-0.27h2.12v0.73c0.15-0.25,0.3-0.44,0.44-0.56c0.26-0.21,0.59-0.31,1-0.31
			c0.58,0,1.07,0.22,1.45,0.66c0.39,0.44,0.58,1.09,0.58,1.96c0,0.81-0.21,1.47-0.62,2c-0.41,0.53-0.92,0.79-1.51,0.79
			c-0.3,0-0.59-0.09-0.86-0.27c-0.14-0.09-0.29-0.23-0.45-0.4v0.94c0,0.5,0.01,0.78,0.01,0.84c0.02,0.29,0.1,0.49,0.22,0.6
			s0.33,0.17,0.63,0.19v0.23h-3.04V67.18z M46.83,63.9c0.08-0.29,0.11-0.71,0.11-1.26c0-0.64-0.06-1.14-0.17-1.52
			c-0.12-0.38-0.35-0.57-0.7-0.57c-0.24,0-0.45,0.1-0.64,0.31c-0.19,0.21-0.28,0.36-0.28,0.46v2.7c0,0.11,0.09,0.25,0.27,0.42
			c0.18,0.17,0.38,0.26,0.61,0.26C46.42,64.69,46.69,64.43,46.83,63.9z"/>
		<path class="st10" d="M49.12,60.53v-0.31c0.1-0.09,0.22-0.2,0.36-0.32c0.19-0.18,0.37-0.36,0.54-0.55
			c0.34-0.37,0.64-0.76,0.92-1.19h0.28v1.88h1.06v0.49h-1.06v3.34c0,0.16,0.02,0.29,0.07,0.39c0.07,0.16,0.19,0.24,0.36,0.24
			c0.14,0,0.27-0.05,0.36-0.16c0.1-0.1,0.2-0.24,0.29-0.43l0.27,0.13c-0.13,0.3-0.29,0.55-0.47,0.74c-0.32,0.34-0.71,0.5-1.17,0.5
			c-0.26,0-0.49-0.05-0.68-0.15c-0.38-0.19-0.56-0.53-0.57-1.03v-3.6H49.12z"/>
		<path class="st10" d="M52.82,64.89c0.2-0.03,0.33-0.08,0.4-0.15c0.11-0.1,0.16-0.27,0.16-0.53v-3.26c0-0.23-0.04-0.38-0.11-0.46
			s-0.23-0.14-0.45-0.18v-0.27h2.13v4.22c0,0.24,0.04,0.4,0.11,0.47c0.07,0.07,0.21,0.12,0.41,0.16v0.27h-2.65V64.89z M53.56,57.73
			c0.17-0.17,0.37-0.25,0.61-0.25c0.24,0,0.44,0.08,0.6,0.25s0.25,0.37,0.25,0.61c0,0.24-0.08,0.44-0.25,0.61
			c-0.17,0.17-0.37,0.25-0.6,0.25c-0.24,0-0.44-0.08-0.61-0.25c-0.17-0.17-0.25-0.37-0.25-0.61C53.31,58.1,53.4,57.9,53.56,57.73z"
			/>
		<path class="st10" d="M56.69,60.67c0.48-0.52,1.07-0.78,1.79-0.78c0.73,0,1.33,0.26,1.8,0.79c0.47,0.53,0.7,1.17,0.7,1.92
			c0,0.74-0.23,1.38-0.69,1.91c-0.46,0.53-1.07,0.8-1.81,0.8c-0.72,0-1.32-0.26-1.8-0.78c-0.47-0.52-0.71-1.16-0.71-1.93
			C55.97,61.84,56.21,61.19,56.69,60.67z M57.73,64.24c0.13,0.48,0.38,0.72,0.75,0.72c0.36,0,0.59-0.18,0.71-0.55
			c0.11-0.37,0.17-0.97,0.17-1.8c0-0.83-0.06-1.43-0.18-1.8c-0.12-0.37-0.35-0.56-0.69-0.56c-0.38,0-0.63,0.24-0.75,0.72
			c-0.08,0.32-0.12,0.87-0.12,1.63C57.61,63.39,57.65,63.93,57.73,64.24z"/>
		<path class="st10" d="M61.46,64.89c0.2-0.03,0.35-0.08,0.45-0.17c0.1-0.08,0.14-0.25,0.14-0.51v-3.26c0-0.23-0.04-0.38-0.12-0.47
			c-0.08-0.09-0.24-0.15-0.47-0.17v-0.27h2.1v0.8c0.18-0.27,0.4-0.49,0.67-0.66c0.27-0.17,0.58-0.26,0.91-0.26
			c0.48,0,0.85,0.12,1.11,0.37c0.26,0.25,0.39,0.68,0.39,1.3v2.68c0,0.25,0.04,0.41,0.13,0.48s0.23,0.12,0.43,0.15v0.27H64.6v-0.27
			c0.2-0.04,0.33-0.09,0.41-0.16c0.07-0.07,0.11-0.22,0.11-0.47v-2.69c0-0.25-0.03-0.44-0.08-0.57c-0.09-0.23-0.26-0.34-0.52-0.34
			c-0.19,0-0.37,0.07-0.53,0.21s-0.29,0.28-0.37,0.42v2.97c0,0.24,0.04,0.4,0.11,0.47c0.07,0.07,0.21,0.12,0.41,0.16v0.27h-2.67
			V64.89z"/>
		<path class="st10" d="M70.42,64.89c0.2-0.03,0.33-0.08,0.4-0.15c0.11-0.1,0.16-0.27,0.16-0.53v-3.26c0-0.23-0.04-0.38-0.11-0.46
			s-0.23-0.14-0.45-0.18v-0.27h2.13v4.22c0,0.24,0.04,0.4,0.11,0.47c0.07,0.07,0.21,0.12,0.41,0.16v0.27h-2.65V64.89z M71.16,57.73
			c0.17-0.17,0.37-0.25,0.61-0.25c0.24,0,0.44,0.08,0.6,0.25s0.25,0.37,0.25,0.61c0,0.24-0.08,0.44-0.25,0.61
			c-0.17,0.17-0.37,0.25-0.6,0.25c-0.24,0-0.44-0.08-0.61-0.25c-0.17-0.17-0.25-0.37-0.25-0.61C70.91,58.1,70.99,57.9,71.16,57.73z"
			/>
		<path class="st10" d="M73.61,63.47h0.31c0.11,0.53,0.31,0.91,0.61,1.13c0.3,0.22,0.6,0.33,0.91,0.33c0.29,0,0.5-0.06,0.63-0.19
			c0.13-0.13,0.2-0.3,0.2-0.51c0-0.2-0.07-0.37-0.22-0.51c-0.08-0.08-0.21-0.16-0.38-0.24l-0.83-0.4c-0.43-0.21-0.74-0.44-0.93-0.69
			c-0.19-0.25-0.29-0.54-0.29-0.88c0-0.43,0.15-0.8,0.45-1.11c0.3-0.31,0.72-0.47,1.26-0.47c0.24,0,0.48,0.04,0.75,0.12
			c0.26,0.08,0.43,0.12,0.49,0.12c0.09,0,0.15-0.02,0.19-0.06s0.07-0.09,0.09-0.16h0.24v1.61h-0.28c-0.1-0.38-0.28-0.68-0.51-0.91
			s-0.52-0.34-0.83-0.34c-0.25,0-0.43,0.07-0.55,0.21s-0.18,0.29-0.18,0.44c0,0.13,0.05,0.26,0.16,0.39c0.1,0.13,0.3,0.27,0.6,0.41
			l0.61,0.29c0.38,0.18,0.65,0.36,0.83,0.53c0.29,0.29,0.43,0.65,0.43,1.07c0,0.41-0.15,0.8-0.45,1.15
			c-0.3,0.36-0.75,0.53-1.34,0.53c-0.15,0-0.3-0.02-0.45-0.05c-0.15-0.03-0.33-0.08-0.56-0.16l-0.19-0.07
			C74.31,65.01,74.27,65,74.25,65s-0.04-0.01-0.06-0.01c-0.06,0-0.12,0.02-0.16,0.07s-0.1,0.13-0.15,0.25h-0.27V63.47z"/>
		<path class="st10" d="M80.6,64.89c0.2-0.05,0.33-0.11,0.42-0.19c0.08-0.08,0.12-0.24,0.12-0.49v-5.66c0-0.24-0.04-0.39-0.11-0.47
			c-0.08-0.07-0.22-0.13-0.42-0.18v-0.27h2.1v6.57c0,0.25,0.04,0.41,0.12,0.48c0.08,0.08,0.22,0.14,0.42,0.19v0.27H80.6V64.89z"/>
		<path class="st10" d="M84.43,60.62c0.45-0.47,1-0.71,1.64-0.71c0.37,0,0.71,0.1,1.03,0.29s0.57,0.46,0.74,0.8
			c0.13,0.26,0.22,0.59,0.27,1c0.03,0.19,0.04,0.34,0.04,0.44h-2.84c0.03,0.45,0.1,0.83,0.22,1.16c0.22,0.61,0.6,0.92,1.15,0.92
			c0.26,0,0.51-0.08,0.74-0.24c0.14-0.1,0.32-0.26,0.53-0.49l0.25,0.16c-0.34,0.56-0.74,0.96-1.19,1.18
			c-0.29,0.14-0.63,0.21-1.01,0.21c-0.55,0-1.06-0.21-1.54-0.65c-0.48-0.43-0.72-1.12-0.72-2.06
			C83.75,61.75,83.98,61.09,84.43,60.62z M86.79,62.02c-0.01-0.65-0.06-1.11-0.15-1.37c-0.09-0.26-0.28-0.39-0.57-0.39
			c-0.29,0-0.49,0.15-0.6,0.45c-0.11,0.3-0.17,0.74-0.18,1.31H86.79z"/>
		<path class="st10" d="M88.72,63.47h0.31c0.11,0.53,0.31,0.91,0.61,1.13c0.3,0.22,0.6,0.33,0.91,0.33c0.29,0,0.5-0.06,0.63-0.19
			c0.13-0.13,0.2-0.3,0.2-0.51c0-0.2-0.07-0.37-0.22-0.51c-0.08-0.08-0.21-0.16-0.38-0.24l-0.83-0.4c-0.43-0.21-0.74-0.44-0.93-0.69
			c-0.19-0.25-0.29-0.54-0.29-0.88c0-0.43,0.15-0.8,0.45-1.11c0.3-0.31,0.72-0.47,1.26-0.47c0.24,0,0.48,0.04,0.75,0.12
			c0.26,0.08,0.43,0.12,0.49,0.12c0.09,0,0.15-0.02,0.19-0.06s0.07-0.09,0.09-0.16h0.24v1.61h-0.28c-0.1-0.38-0.28-0.68-0.51-0.91
			s-0.52-0.34-0.83-0.34c-0.25,0-0.43,0.07-0.55,0.21s-0.18,0.29-0.18,0.44c0,0.13,0.05,0.26,0.16,0.39c0.1,0.13,0.3,0.27,0.6,0.41
			l0.61,0.29c0.38,0.18,0.65,0.36,0.83,0.53c0.29,0.29,0.43,0.65,0.43,1.07c0,0.41-0.15,0.8-0.45,1.15
			c-0.3,0.36-0.75,0.53-1.34,0.53c-0.15,0-0.3-0.02-0.45-0.05c-0.15-0.03-0.33-0.08-0.56-0.16l-0.19-0.07
			C89.42,65.01,89.38,65,89.36,65s-0.04-0.01-0.06-0.01c-0.06,0-0.12,0.02-0.16,0.07s-0.1,0.13-0.15,0.25h-0.27V63.47z"/>
		<path class="st10" d="M93.04,63.47h0.31c0.11,0.53,0.31,0.91,0.61,1.13c0.3,0.22,0.6,0.33,0.91,0.33c0.29,0,0.5-0.06,0.63-0.19
			c0.13-0.13,0.2-0.3,0.2-0.51c0-0.2-0.07-0.37-0.22-0.51c-0.08-0.08-0.21-0.16-0.38-0.24l-0.83-0.4c-0.43-0.21-0.74-0.44-0.93-0.69
			c-0.19-0.25-0.29-0.54-0.29-0.88c0-0.43,0.15-0.8,0.45-1.11c0.3-0.31,0.72-0.47,1.26-0.47c0.24,0,0.48,0.04,0.75,0.12
			c0.26,0.08,0.43,0.12,0.49,0.12c0.09,0,0.15-0.02,0.19-0.06s0.07-0.09,0.09-0.16h0.24v1.61h-0.28c-0.1-0.38-0.28-0.68-0.51-0.91
			s-0.52-0.34-0.83-0.34c-0.25,0-0.43,0.07-0.55,0.21s-0.18,0.29-0.18,0.44c0,0.13,0.05,0.26,0.16,0.39c0.1,0.13,0.3,0.27,0.6,0.41
			l0.61,0.29c0.38,0.18,0.65,0.36,0.83,0.53c0.29,0.29,0.43,0.65,0.43,1.07c0,0.41-0.15,0.8-0.45,1.15
			c-0.3,0.36-0.75,0.53-1.34,0.53c-0.15,0-0.3-0.02-0.45-0.05c-0.15-0.03-0.33-0.08-0.56-0.16l-0.19-0.07
			C93.74,65.01,93.7,65,93.69,65s-0.04-0.01-0.06-0.01c-0.06,0-0.12,0.02-0.16,0.07s-0.1,0.13-0.15,0.25h-0.27V63.47z"/>
	</g>
	<g style="clip-path:url(#SVGID_00000067230373160263431790000001814444510698527128_);">
		<path class="st10" d="M39.79,68.81c0.47,0.17,0.74,0.26,0.79,0.26c0.14,0,0.25-0.05,0.34-0.16c0.08-0.11,0.14-0.22,0.16-0.34h0.31
			v2.6H41.1c-0.27-0.56-0.54-1.01-0.82-1.33c-0.52-0.6-1.11-0.9-1.77-0.9c-0.74,0-1.27,0.32-1.58,0.96
			c-0.31,0.64-0.47,1.5-0.47,2.58c0,0.79,0.09,1.45,0.28,1.96c0.34,0.96,0.98,1.44,1.91,1.44c0.57,0,1.1-0.16,1.59-0.48
			c0.28-0.18,0.61-0.48,1-0.88l0.33,0.27c-0.43,0.48-0.82,0.83-1.14,1.05c-0.59,0.39-1.24,0.58-1.95,0.58
			c-1.09,0-2.01-0.33-2.75-0.98c-0.82-0.72-1.23-1.69-1.23-2.91c0-1.21,0.39-2.19,1.18-2.93c0.74-0.7,1.64-1.05,2.71-1.05
			C38.84,68.56,39.31,68.64,39.79,68.81z"/>
		<path class="st10" d="M43.06,71.72c0.48-0.52,1.07-0.78,1.79-0.78c0.73,0,1.33,0.26,1.8,0.79c0.47,0.53,0.7,1.17,0.7,1.92
			c0,0.74-0.23,1.38-0.69,1.91c-0.46,0.53-1.07,0.8-1.81,0.8c-0.72,0-1.32-0.26-1.8-0.78c-0.47-0.52-0.71-1.16-0.71-1.93
			C42.35,72.89,42.59,72.24,43.06,71.72z M44.1,75.29c0.13,0.48,0.38,0.72,0.75,0.72c0.36,0,0.59-0.18,0.71-0.55
			c0.11-0.37,0.17-0.97,0.17-1.8c0-0.83-0.06-1.43-0.18-1.8c-0.12-0.37-0.35-0.56-0.69-0.56c-0.38,0-0.63,0.24-0.75,0.72
			c-0.08,0.32-0.12,0.87-0.12,1.63C43.98,74.44,44.02,74.98,44.1,75.29z"/>
		<path class="st10" d="M47.86,75.94c0.21-0.03,0.36-0.08,0.45-0.15c0.08-0.08,0.13-0.22,0.14-0.44l0.01-0.33V72
			c0-0.23-0.04-0.39-0.12-0.48c-0.08-0.08-0.24-0.14-0.47-0.17v-0.27h2.1v0.87c0.24-0.31,0.47-0.55,0.7-0.73
			c0.23-0.18,0.5-0.27,0.8-0.27c0.23,0,0.43,0.07,0.62,0.22c0.18,0.15,0.27,0.36,0.27,0.64c0,0.22-0.06,0.4-0.19,0.54
			c-0.13,0.14-0.3,0.21-0.5,0.21c-0.24,0-0.44-0.11-0.61-0.33c-0.17-0.22-0.29-0.33-0.36-0.33c-0.15,0-0.3,0.09-0.45,0.27
			s-0.23,0.44-0.23,0.79v2.1c0,0.37,0.05,0.6,0.16,0.69c0.11,0.09,0.32,0.15,0.64,0.18v0.27h-2.96V75.94z"/>
		<path class="st10" d="M52.77,75.94c0.2-0.03,0.35-0.08,0.45-0.17c0.1-0.08,0.14-0.25,0.14-0.51V72c0-0.23-0.04-0.38-0.12-0.47
			c-0.08-0.09-0.24-0.15-0.47-0.17v-0.27h2.1v0.8c0.18-0.27,0.4-0.49,0.67-0.66c0.27-0.17,0.58-0.26,0.91-0.26
			c0.48,0,0.85,0.12,1.11,0.37c0.26,0.25,0.39,0.68,0.39,1.3v2.68c0,0.25,0.04,0.41,0.13,0.48s0.23,0.12,0.43,0.15v0.27H55.9v-0.27
			c0.2-0.04,0.33-0.09,0.41-0.16c0.07-0.07,0.11-0.22,0.11-0.47v-2.69c0-0.25-0.03-0.44-0.08-0.57c-0.09-0.23-0.26-0.34-0.52-0.34
			c-0.19,0-0.37,0.07-0.53,0.21s-0.29,0.28-0.37,0.42v2.97c0,0.24,0.04,0.4,0.11,0.47c0.07,0.07,0.21,0.12,0.41,0.16v0.27h-2.67
			V75.94z"/>
		<path class="st10" d="M59.69,71.67c0.45-0.47,1-0.71,1.64-0.71c0.37,0,0.71,0.1,1.03,0.29s0.57,0.46,0.74,0.8
			c0.13,0.26,0.22,0.59,0.27,1c0.03,0.19,0.04,0.34,0.04,0.44h-2.84c0.03,0.45,0.1,0.83,0.22,1.16c0.22,0.61,0.6,0.92,1.15,0.92
			c0.26,0,0.51-0.08,0.74-0.24c0.14-0.1,0.32-0.26,0.53-0.49l0.25,0.16c-0.34,0.56-0.74,0.96-1.19,1.18
			c-0.29,0.14-0.63,0.21-1.01,0.21c-0.55,0-1.06-0.21-1.54-0.65c-0.48-0.43-0.72-1.12-0.72-2.06C59.01,72.8,59.24,72.14,59.69,71.67
			z M62.05,73.07c-0.01-0.65-0.06-1.11-0.15-1.37c-0.09-0.26-0.28-0.39-0.57-0.39c-0.29,0-0.49,0.15-0.6,0.45
			c-0.11,0.3-0.17,0.74-0.18,1.31H62.05z"/>
		<path class="st10" d="M63.88,75.94c0.2-0.05,0.33-0.11,0.42-0.19c0.08-0.08,0.12-0.24,0.12-0.49v-5.66c0-0.24-0.04-0.39-0.11-0.47
			c-0.08-0.07-0.22-0.13-0.42-0.18V68.7h2.1v6.57c0,0.25,0.04,0.41,0.12,0.48c0.08,0.08,0.22,0.14,0.42,0.19v0.27h-2.65V75.94z"/>
		<path class="st10" d="M66.96,75.94c0.2-0.05,0.33-0.11,0.42-0.19c0.08-0.08,0.12-0.24,0.12-0.49v-5.66c0-0.24-0.04-0.39-0.11-0.47
			c-0.08-0.07-0.22-0.13-0.42-0.18V68.7h2.1v6.57c0,0.25,0.04,0.41,0.12,0.48c0.08,0.08,0.22,0.14,0.42,0.19v0.27h-2.65V75.94z"/>
		<path class="st10" d="M71.03,74.76c0.18-0.18,0.4-0.27,0.66-0.27s0.48,0.09,0.66,0.27s0.27,0.4,0.27,0.66
			c0,0.26-0.09,0.48-0.27,0.67s-0.4,0.27-0.66,0.27s-0.48-0.09-0.66-0.27s-0.27-0.4-0.27-0.67C70.75,75.16,70.84,74.94,71.03,74.76z
			"/>
	</g>
</g>
</svg>
