<?xml version="1.0" encoding="utf-8"?>
<!-- Generator: Adobe Illustrator 26.5.0, SVG Export Plug-In . SVG Version: 6.00 Build 0)  -->
<svg version="1.1" id="Layer_1" xmlns="http://www.w3.org/2000/svg" xmlns:xlink="http://www.w3.org/1999/xlink" x="0px" y="0px"
	 viewBox="0 0 107.04 106.85" style="enable-background:new 0 0 107.04 106.85;" xml:space="preserve">
<style type="text/css">
	.st0{clip-path:url(#SVGID_00000083784519045337030870000010796501920314934675_);fill:#887976;}
	.st1{clip-path:url(#SVGID_00000083784519045337030870000010796501920314934675_);}
	.st2{fill:#081F40;}
	.st3{clip-path:url(#SVGID_00000031897498832330829000000017513669816854274490_);fill:#A51D31;}
	.st4{clip-path:url(#SVGID_00000031897498832330829000000017513669816854274490_);fill:#FFFFFF;}
	.st5{clip-path:url(#SVGID_00000164512233754228466880000001898469144238558610_);fill:#FFFFFF;}
	.st6{clip-path:url(#SVGID_00000164512233754228466880000001898469144238558610_);}
	.st7{fill:#0E2346;}
	.st8{clip-path:url(#SVGID_00000014604119363398564970000000782146663373385611_);fill:#643D18;}
	.st9{clip-path:url(#SVGID_00000014604119363398564970000000782146663373385611_);}
	.st10{fill:#FFFFFF;}
	.st11{clip-path:url(#SVGID_00000021096620264287298040000008392077084072760740_);fill:#1E2758;}
	.st12{clip-path:url(#SVGID_00000021096620264287298040000008392077084072760740_);}
	.st13{fill:#EB1C2D;}
	.st14{clip-path:url(#SVGID_00000180343932021626235650000003327394960151028111_);fill:#0D4E91;}
	.st15{clip-path:url(#SVGID_00000180343932021626235650000003327394960151028111_);}
	.st16{clip-path:url(#SVGID_00000142148654889101198730000001068384820771814283_);fill:#672A7A;}
	.st17{clip-path:url(#SVGID_00000142148654889101198730000001068384820771814283_);fill:#F9F186;}
	
		.st18{clip-path:url(#SVGID_00000142148654889101198730000001068384820771814283_);fill:none;stroke:#000000;stroke-width:1.069;stroke-miterlimit:10;}
	.st19{clip-path:url(#SVGID_00000142148654889101198730000001068384820771814283_);fill:#F5EC3B;}
	.st20{clip-path:url(#SVGID_00000150825523202077035370000015147794735489033620_);fill:#E77625;}
	.st21{clip-path:url(#SVGID_00000150825523202077035370000015147794735489033620_);}
	.st22{clip-path:url(#SVGID_00000067949737859671130260000015455122083181100435_);fill:#D8272D;}
	.st23{clip-path:url(#SVGID_00000067949737859671130260000015455122083181100435_);}
	.st24{clip-path:url(#SVGID_00000024681488804255297360000008496924939001934226_);fill:#00954C;}
	.st25{clip-path:url(#SVGID_00000024681488804255297360000008496924939001934226_);}
	.st26{clip-path:url(#SVGID_00000008864216108670308190000015346283389070213021_);fill:#42B4E4;}
	.st27{clip-path:url(#SVGID_00000008864216108670308190000015346283389070213021_);}
	.st28{clip-path:url(#SVGID_00000148656592975262880580000001196890808026522040_);}
</style>
<g>
	<defs>
		<path id="SVGID_00000006668829462403024480000002665754100325834912_" d="M107.04,53.43c0,29.49-23.98,53.43-53.52,53.43
			S0,82.92,0,53.43S23.98,0,53.52,0S107.04,23.93,107.04,53.43z"/>
	</defs>
	<clipPath id="SVGID_00000079445786547927633060000016584783414727167896_">
		<use xlink:href="#SVGID_00000006668829462403024480000002665754100325834912_"  style="overflow:visible;"/>
	</clipPath>
	<path style="clip-path:url(#SVGID_00000079445786547927633060000016584783414727167896_);fill:#00954C;" d="M53.52,115.66
		c34.36,0,62.23-27.86,62.23-62.22c0-34.37-27.86-62.23-62.23-62.23S-8.7,19.07-8.7,53.44C-8.7,87.8,19.16,115.66,53.52,115.66"/>
	<g style="clip-path:url(#SVGID_00000079445786547927633060000016584783414727167896_);">
		<path class="st10" d="M17.22,46.47v0.3c-0.3,0.03-0.51,0.07-0.62,0.13c-0.11,0.06-0.17,0.19-0.17,0.39c0,0.05,0.01,0.12,0.02,0.19
			s0.03,0.15,0.05,0.22l1.53,4.37h0.03l1.43-3.66c0.01-0.02-0.05-0.21-0.17-0.56c-0.12-0.35-0.21-0.57-0.26-0.65
			c-0.09-0.15-0.2-0.25-0.31-0.31c-0.11-0.06-0.31-0.1-0.61-0.12v-0.3h3.9v0.3c-0.36,0.03-0.6,0.07-0.72,0.12s-0.18,0.16-0.18,0.33
			c0,0.04,0.01,0.12,0.04,0.24s0.07,0.28,0.14,0.48l1.43,4.02H22.7l1.36-4.11c0.02-0.07,0.04-0.15,0.06-0.24
			c0.02-0.08,0.02-0.18,0.02-0.28c0-0.23-0.09-0.39-0.26-0.46c-0.11-0.05-0.31-0.08-0.6-0.1v-0.3h2.28v0.3
			c-0.19,0.03-0.34,0.08-0.44,0.15c-0.18,0.13-0.33,0.34-0.43,0.65l-2.5,7.53h-0.33l-2.1-5.86h-0.08l-2.28,5.86h-0.35l-2.64-7.53
			c-0.11-0.33-0.23-0.53-0.34-0.62s-0.29-0.15-0.53-0.18v-0.3H17.22z"/>
		<path class="st10" d="M26.2,49.87c0.53-0.58,1.21-0.87,2.01-0.87c0.82,0,1.5,0.3,2.03,0.89s0.79,1.31,0.79,2.16
			c0,0.83-0.26,1.55-0.78,2.15c-0.52,0.6-1.2,0.9-2.04,0.9c-0.81,0-1.48-0.29-2.02-0.87c-0.53-0.58-0.8-1.31-0.8-2.17
			C25.4,51.17,25.67,50.45,26.2,49.87z M27.37,53.88c0.14,0.54,0.42,0.81,0.85,0.81c0.4,0,0.67-0.21,0.79-0.62
			c0.13-0.41,0.19-1.09,0.19-2.02c0-0.93-0.07-1.6-0.2-2.02c-0.13-0.42-0.39-0.62-0.78-0.62c-0.42,0-0.7,0.27-0.85,0.81
			c-0.09,0.36-0.14,0.97-0.14,1.83C27.23,52.92,27.28,53.53,27.37,53.88z"/>
		<path class="st10" d="M31.59,54.6c0.24-0.03,0.41-0.08,0.5-0.17c0.09-0.09,0.14-0.25,0.15-0.49l0.01-0.37v-3.39
			c0-0.26-0.04-0.44-0.13-0.53c-0.09-0.09-0.27-0.16-0.53-0.19v-0.3h2.36v0.98c0.26-0.35,0.53-0.62,0.79-0.82
			c0.26-0.2,0.56-0.3,0.9-0.3c0.26,0,0.49,0.08,0.69,0.25c0.21,0.17,0.31,0.41,0.31,0.72c0,0.24-0.07,0.44-0.22,0.6
			s-0.33,0.24-0.56,0.24c-0.26,0-0.49-0.12-0.69-0.37s-0.33-0.37-0.41-0.37c-0.17,0-0.33,0.1-0.5,0.31s-0.25,0.5-0.25,0.88v2.36
			c0,0.41,0.06,0.67,0.18,0.77c0.12,0.1,0.36,0.17,0.72,0.2v0.3h-3.32V54.6z"/>
		<path class="st10" d="M37.22,53.01h0.35c0.12,0.6,0.35,1.02,0.68,1.26c0.33,0.25,0.67,0.37,1.02,0.37c0.32,0,0.56-0.07,0.71-0.22
			c0.15-0.14,0.23-0.33,0.23-0.57c0-0.22-0.08-0.41-0.24-0.57c-0.09-0.08-0.23-0.18-0.43-0.27l-0.93-0.45
			c-0.49-0.24-0.84-0.5-1.05-0.78c-0.22-0.28-0.32-0.61-0.32-0.99c0-0.48,0.17-0.9,0.51-1.25c0.34-0.35,0.81-0.53,1.41-0.53
			c0.26,0,0.54,0.04,0.84,0.13c0.3,0.09,0.48,0.13,0.55,0.13c0.1,0,0.17-0.02,0.22-0.06c0.04-0.04,0.08-0.1,0.11-0.18h0.27v1.8
			h-0.32c-0.12-0.42-0.31-0.76-0.58-1.02c-0.27-0.26-0.58-0.38-0.94-0.38c-0.28,0-0.48,0.08-0.62,0.23c-0.14,0.15-0.2,0.32-0.2,0.5
			c0,0.15,0.06,0.29,0.18,0.44c0.12,0.15,0.34,0.3,0.67,0.46l0.68,0.33c0.42,0.2,0.73,0.4,0.93,0.59c0.33,0.33,0.49,0.72,0.49,1.2
			c0,0.46-0.17,0.89-0.5,1.29c-0.33,0.4-0.84,0.6-1.51,0.6c-0.17,0-0.33-0.02-0.5-0.05s-0.38-0.09-0.62-0.18l-0.21-0.07
			c-0.08-0.03-0.12-0.04-0.14-0.05c-0.02,0-0.04-0.01-0.07-0.01c-0.07,0-0.13,0.03-0.18,0.08s-0.11,0.15-0.17,0.28h-0.3V53.01z"/>
		<path class="st10" d="M41.96,49.7v-0.35c0.11-0.1,0.25-0.22,0.41-0.36c0.21-0.2,0.42-0.4,0.61-0.62c0.38-0.41,0.72-0.86,1.03-1.33
			h0.32v2.11h1.19v0.55h-1.19v3.75c0,0.17,0.03,0.32,0.08,0.44c0.08,0.18,0.21,0.27,0.4,0.27c0.16,0,0.3-0.06,0.41-0.17
			c0.11-0.12,0.22-0.28,0.33-0.48l0.3,0.15c-0.15,0.34-0.32,0.62-0.52,0.83c-0.36,0.38-0.79,0.57-1.31,0.57
			c-0.29,0-0.55-0.05-0.77-0.16c-0.42-0.21-0.63-0.59-0.64-1.15V49.7H41.96z"/>
		<path class="st10" d="M49.26,54.58c0.33-0.02,0.57-0.06,0.71-0.14c0.23-0.13,0.35-0.38,0.35-0.74v-6.04c0-0.35-0.1-0.59-0.31-0.71
			c-0.13-0.07-0.37-0.13-0.74-0.16v-0.32h4.22v0.32c-0.37,0.02-0.62,0.07-0.76,0.14c-0.24,0.13-0.35,0.37-0.35,0.73v2.59h2.97v-2.59
			c0-0.36-0.11-0.6-0.33-0.73c-0.14-0.08-0.4-0.13-0.77-0.15v-0.32h4.25v0.32c-0.37,0.03-0.62,0.08-0.75,0.16
			c-0.22,0.12-0.34,0.37-0.34,0.72v6.04c0,0.37,0.12,0.61,0.37,0.74c0.14,0.08,0.38,0.12,0.71,0.13v0.32h-4.25v-0.32
			c0.36-0.01,0.61-0.06,0.76-0.15c0.23-0.13,0.35-0.37,0.35-0.73v-2.88h-2.97v2.88c0,0.37,0.13,0.62,0.38,0.75
			c0.15,0.07,0.39,0.12,0.74,0.13v0.32h-4.22V54.58z"/>
		<path class="st10" d="M59.86,52.4c0.54-0.33,1.39-0.66,2.54-1V50.5c0-0.37-0.08-0.64-0.23-0.82s-0.43-0.27-0.83-0.27
			c-0.22,0-0.41,0.04-0.55,0.12c-0.14,0.08-0.22,0.19-0.22,0.31c0,0.05,0.01,0.09,0.02,0.12c0.02,0.03,0.04,0.07,0.07,0.1l0.07,0.09
			c0.06,0.07,0.1,0.14,0.14,0.23c0.03,0.08,0.05,0.17,0.05,0.26c0,0.24-0.08,0.42-0.23,0.54s-0.34,0.19-0.54,0.19
			c-0.24,0-0.44-0.07-0.61-0.21c-0.17-0.14-0.25-0.35-0.25-0.61c0-0.48,0.23-0.86,0.68-1.14c0.45-0.28,1-0.42,1.66-0.42
			c0.71,0,1.3,0.14,1.77,0.41c0.47,0.28,0.71,0.78,0.71,1.52v3.02c0,0.09,0.02,0.17,0.07,0.23c0.05,0.06,0.1,0.09,0.16,0.09
			c0.05,0,0.09-0.01,0.13-0.03s0.1-0.07,0.18-0.15l0.19,0.26c-0.24,0.28-0.51,0.48-0.81,0.6c-0.19,0.07-0.38,0.11-0.59,0.11
			c-0.37,0-0.64-0.11-0.81-0.32c-0.1-0.12-0.17-0.3-0.21-0.54c-0.35,0.35-0.74,0.59-1.17,0.73c-0.26,0.09-0.52,0.13-0.78,0.13
			c-0.34,0-0.66-0.11-0.96-0.33c-0.3-0.22-0.44-0.56-0.44-1.02C59.05,53.17,59.32,52.73,59.86,52.4z M62.04,54.01
			c0.1-0.07,0.21-0.19,0.35-0.34v-1.83c-0.33,0.08-0.63,0.21-0.88,0.38c-0.43,0.3-0.64,0.68-0.64,1.14c0,0.27,0.06,0.48,0.19,0.62
			c0.12,0.14,0.26,0.21,0.42,0.21C61.67,54.19,61.86,54.13,62.04,54.01z"/>
		<path class="st10" d="M65.17,54.6c0.23-0.03,0.4-0.09,0.5-0.19s0.16-0.29,0.16-0.57v-3.67c0-0.25-0.04-0.43-0.13-0.53
			c-0.09-0.1-0.26-0.16-0.53-0.2v-0.3h2.36v0.9c0.2-0.3,0.45-0.55,0.76-0.75c0.31-0.2,0.65-0.29,1.02-0.29
			c0.54,0,0.95,0.14,1.25,0.41S71,50.19,71,50.88v3.02c0,0.28,0.05,0.46,0.14,0.54c0.1,0.08,0.25,0.14,0.48,0.16v0.3H68.7v-0.3
			c0.22-0.04,0.38-0.11,0.46-0.18c0.08-0.08,0.12-0.25,0.12-0.52v-3.02c0-0.28-0.03-0.5-0.08-0.64c-0.1-0.26-0.29-0.38-0.58-0.38
			c-0.22,0-0.41,0.08-0.59,0.23s-0.32,0.31-0.42,0.47v3.34c0,0.27,0.04,0.45,0.12,0.52c0.08,0.08,0.23,0.14,0.46,0.18v0.3h-3V54.6z"
			/>
		<path class="st10" d="M72.99,49.87C73.52,49.29,74.19,49,75,49c0.82,0,1.5,0.3,2.03,0.89s0.79,1.31,0.79,2.16
			c0,0.83-0.26,1.55-0.78,2.15c-0.52,0.6-1.2,0.9-2.04,0.9c-0.81,0-1.48-0.29-2.02-0.87c-0.53-0.58-0.8-1.31-0.8-2.17
			C72.19,51.17,72.45,50.45,72.99,49.87z M74.15,53.88c0.14,0.54,0.42,0.81,0.85,0.81c0.4,0,0.67-0.21,0.79-0.62
			c0.13-0.41,0.19-1.09,0.19-2.02c0-0.93-0.07-1.6-0.2-2.02c-0.13-0.42-0.39-0.62-0.78-0.62c-0.42,0-0.7,0.27-0.85,0.81
			c-0.09,0.36-0.14,0.97-0.14,1.83C74.02,52.92,74.06,53.53,74.15,53.88z"/>
		<path class="st10" d="M81.47,49.16v0.3c-0.22,0.01-0.39,0.03-0.5,0.07c-0.11,0.04-0.17,0.13-0.17,0.26c0,0.03,0.02,0.09,0.05,0.18
			c0.03,0.09,0.05,0.15,0.07,0.19l0.97,2.4h0.04l0.87-2.13c0.04-0.1,0.07-0.21,0.1-0.31c0.03-0.11,0.04-0.19,0.04-0.25
			c0-0.17-0.06-0.29-0.18-0.33s-0.29-0.07-0.51-0.08v-0.3h1.89v0.3c-0.17,0.01-0.3,0.07-0.41,0.16c-0.11,0.09-0.21,0.27-0.31,0.51
			l-2.01,4.95h-0.32l-1.5-3.7c-0.11-0.26-0.21-0.5-0.31-0.73s-0.2-0.45-0.31-0.67c-0.11-0.22-0.2-0.36-0.27-0.42
			c-0.06-0.06-0.18-0.09-0.35-0.11v-0.3H81.47z"/>
		<path class="st10" d="M85.43,49.8c0.51-0.53,1.13-0.79,1.85-0.79c0.41,0,0.8,0.11,1.16,0.32c0.36,0.22,0.64,0.51,0.84,0.9
			c0.15,0.29,0.25,0.66,0.3,1.12c0.03,0.22,0.04,0.38,0.04,0.49h-3.19c0.03,0.5,0.11,0.93,0.24,1.3c0.24,0.69,0.67,1.03,1.29,1.03
			c0.29,0,0.57-0.09,0.83-0.27c0.16-0.11,0.36-0.29,0.59-0.55l0.29,0.18c-0.39,0.63-0.83,1.07-1.34,1.32
			C88,55,87.62,55.08,87.19,55.08c-0.61,0-1.19-0.24-1.73-0.72c-0.54-0.48-0.81-1.25-0.81-2.32C84.66,51.08,84.92,50.34,85.43,49.8z
			 M88.08,51.38c-0.01-0.73-0.07-1.25-0.17-1.54c-0.11-0.29-0.32-0.44-0.64-0.44c-0.33,0-0.55,0.17-0.67,0.51
			c-0.12,0.34-0.19,0.83-0.21,1.47H88.08z"/>
		<path class="st10" d="M90.15,54.6c0.24-0.03,0.41-0.08,0.5-0.17c0.09-0.09,0.14-0.25,0.15-0.49l0.01-0.37v-3.39
			c0-0.26-0.04-0.44-0.13-0.53c-0.09-0.09-0.27-0.16-0.53-0.19v-0.3h2.36v0.98c0.26-0.35,0.53-0.62,0.79-0.82
			c0.26-0.2,0.56-0.3,0.9-0.3c0.26,0,0.49,0.08,0.69,0.25c0.21,0.17,0.31,0.41,0.31,0.72c0,0.24-0.07,0.44-0.22,0.6
			s-0.33,0.24-0.56,0.24c-0.26,0-0.49-0.12-0.69-0.37s-0.33-0.37-0.41-0.37c-0.17,0-0.33,0.1-0.5,0.31s-0.25,0.5-0.25,0.88v2.36
			c0,0.41,0.06,0.67,0.18,0.77c0.12,0.1,0.36,0.17,0.72,0.2v0.3h-3.32V54.6z"/>
	</g>
	<g style="clip-path:url(#SVGID_00000079445786547927633060000016584783414727167896_);">
		<path class="st10" d="M27.56,65.85c0.35-0.01,0.61-0.05,0.76-0.13c0.25-0.13,0.38-0.38,0.38-0.75v-6.04
			c0-0.37-0.12-0.61-0.36-0.74c-0.15-0.08-0.41-0.12-0.78-0.14v-0.32h4.36v0.32c-0.39,0.02-0.66,0.06-0.8,0.13
			c-0.24,0.12-0.37,0.37-0.37,0.74v6.04c0,0.35,0.1,0.58,0.29,0.7c0.19,0.12,0.49,0.18,0.88,0.18v0.32h-4.36V65.85z"/>
		<path class="st10" d="M36.37,61.07c0.51-0.53,1.13-0.79,1.85-0.79c0.41,0,0.8,0.11,1.16,0.32c0.36,0.22,0.64,0.51,0.84,0.9
			c0.15,0.29,0.25,0.66,0.3,1.12c0.03,0.22,0.04,0.38,0.04,0.49h-3.19c0.03,0.5,0.11,0.93,0.24,1.3c0.24,0.69,0.67,1.03,1.29,1.03
			c0.29,0,0.57-0.09,0.83-0.27c0.16-0.11,0.36-0.29,0.59-0.55l0.29,0.18c-0.39,0.63-0.83,1.07-1.34,1.32
			c-0.33,0.16-0.71,0.24-1.13,0.24c-0.61,0-1.19-0.24-1.73-0.72c-0.54-0.48-0.81-1.25-0.81-2.32C35.61,62.34,35.86,61.6,36.37,61.07
			z M39.03,62.64c-0.01-0.73-0.07-1.25-0.17-1.54c-0.11-0.29-0.32-0.44-0.64-0.44c-0.33,0-0.55,0.17-0.67,0.51
			c-0.12,0.34-0.19,0.83-0.21,1.47H39.03z"/>
		<path class="st10" d="M44.19,60.42v0.3c-0.22,0.01-0.39,0.03-0.5,0.07c-0.11,0.04-0.17,0.13-0.17,0.26c0,0.03,0.02,0.09,0.05,0.18
			c0.03,0.09,0.05,0.15,0.07,0.19l0.97,2.4h0.04l0.87-2.13c0.04-0.1,0.07-0.21,0.1-0.31c0.03-0.11,0.04-0.19,0.04-0.25
			c0-0.17-0.06-0.29-0.18-0.33s-0.29-0.07-0.51-0.08v-0.3h1.89v0.3c-0.17,0.01-0.3,0.07-0.41,0.16c-0.11,0.09-0.21,0.27-0.31,0.51
			l-2.01,4.95h-0.32l-1.5-3.7c-0.11-0.26-0.21-0.5-0.31-0.73s-0.2-0.45-0.31-0.67c-0.11-0.22-0.2-0.36-0.27-0.42
			c-0.06-0.06-0.18-0.09-0.35-0.11v-0.3H44.19z"/>
		<path class="st10" d="M48.15,61.07c0.51-0.53,1.13-0.79,1.85-0.79c0.41,0,0.8,0.11,1.16,0.32c0.36,0.22,0.64,0.51,0.84,0.9
			c0.15,0.29,0.25,0.66,0.3,1.12c0.03,0.22,0.04,0.38,0.04,0.49h-3.19c0.03,0.5,0.11,0.93,0.24,1.3c0.24,0.69,0.67,1.03,1.29,1.03
			c0.29,0,0.57-0.09,0.83-0.27c0.16-0.11,0.36-0.29,0.59-0.55l0.29,0.18c-0.39,0.63-0.83,1.07-1.34,1.32
			c-0.33,0.16-0.71,0.24-1.13,0.24c-0.61,0-1.19-0.24-1.73-0.72c-0.54-0.48-0.81-1.25-0.81-2.32C47.38,62.34,47.64,61.6,48.15,61.07
			z M50.8,62.64c-0.01-0.73-0.07-1.25-0.17-1.54c-0.11-0.29-0.32-0.44-0.64-0.44c-0.33,0-0.55,0.17-0.67,0.51
			c-0.12,0.34-0.19,0.83-0.21,1.47H50.8z"/>
		<path class="st10" d="M52.87,65.86c0.24-0.03,0.41-0.08,0.5-0.17c0.09-0.09,0.14-0.25,0.15-0.49l0.01-0.37v-3.39
			c0-0.26-0.04-0.44-0.13-0.53c-0.09-0.09-0.27-0.16-0.53-0.19v-0.3h2.36v0.98c0.26-0.35,0.53-0.62,0.79-0.82
			c0.26-0.2,0.56-0.3,0.9-0.3c0.26,0,0.49,0.08,0.69,0.25c0.21,0.17,0.31,0.41,0.31,0.72c0,0.24-0.07,0.44-0.22,0.6
			s-0.33,0.24-0.56,0.24c-0.26,0-0.49-0.12-0.69-0.37s-0.33-0.37-0.41-0.37c-0.17,0-0.33,0.1-0.5,0.31s-0.25,0.5-0.25,0.88v2.36
			c0,0.41,0.06,0.67,0.18,0.77c0.12,0.1,0.36,0.17,0.72,0.2v0.3h-3.32V65.86z"/>
		<path class="st10" d="M61.29,65.86c0.23-0.03,0.4-0.09,0.5-0.19s0.16-0.29,0.16-0.57v-6.35c0-0.25-0.04-0.42-0.13-0.52
			c-0.09-0.1-0.27-0.17-0.53-0.2v-0.3h2.41v3.51c0.26-0.31,0.52-0.55,0.81-0.72c0.28-0.17,0.6-0.25,0.95-0.25
			c0.48,0,0.88,0.14,1.19,0.42c0.31,0.28,0.47,0.75,0.47,1.42v3c0,0.28,0.05,0.46,0.14,0.55c0.1,0.09,0.25,0.16,0.48,0.2v0.3h-2.93
			v-0.3c0.22-0.04,0.38-0.11,0.46-0.18c0.08-0.08,0.12-0.25,0.12-0.52v-3.02c0-0.28-0.03-0.5-0.08-0.64
			c-0.1-0.26-0.29-0.38-0.58-0.38c-0.22,0-0.44,0.1-0.67,0.3c-0.23,0.2-0.34,0.33-0.34,0.41v3.34c0,0.27,0.04,0.45,0.12,0.52
			c0.08,0.08,0.23,0.14,0.46,0.18v0.3h-3V65.86z"/>
		<path class="st10" d="M69.16,63.66c0.54-0.33,1.39-0.66,2.54-1v-0.91c0-0.37-0.08-0.64-0.23-0.82s-0.43-0.27-0.83-0.27
			c-0.22,0-0.41,0.04-0.55,0.12c-0.14,0.08-0.22,0.19-0.22,0.31c0,0.05,0.01,0.09,0.02,0.12c0.02,0.03,0.04,0.07,0.07,0.1l0.07,0.09
			c0.06,0.07,0.1,0.14,0.14,0.23c0.03,0.08,0.05,0.17,0.05,0.26c0,0.24-0.08,0.42-0.23,0.54s-0.34,0.19-0.54,0.19
			c-0.24,0-0.44-0.07-0.61-0.21c-0.17-0.14-0.25-0.35-0.25-0.61c0-0.48,0.23-0.86,0.68-1.14c0.45-0.28,1-0.42,1.66-0.42
			c0.71,0,1.3,0.14,1.77,0.41c0.47,0.28,0.71,0.78,0.71,1.52v3.02c0,0.09,0.02,0.17,0.07,0.23c0.05,0.06,0.1,0.09,0.16,0.09
			c0.05,0,0.09-0.01,0.13-0.03s0.1-0.07,0.18-0.15l0.19,0.26c-0.24,0.28-0.51,0.48-0.81,0.6c-0.19,0.07-0.38,0.11-0.59,0.11
			c-0.37,0-0.64-0.11-0.81-0.32c-0.1-0.12-0.17-0.3-0.21-0.54c-0.35,0.35-0.74,0.59-1.17,0.73c-0.26,0.09-0.52,0.13-0.78,0.13
			c-0.34,0-0.66-0.11-0.96-0.33c-0.3-0.22-0.44-0.56-0.44-1.02C68.35,64.43,68.62,63.99,69.16,63.66z M71.33,65.27
			c0.1-0.07,0.21-0.19,0.35-0.34V63.1c-0.33,0.08-0.63,0.21-0.88,0.38c-0.43,0.3-0.64,0.68-0.64,1.14c0,0.27,0.06,0.48,0.19,0.62
			c0.12,0.14,0.26,0.21,0.42,0.21C70.97,65.45,71.16,65.39,71.33,65.27z"/>
		<path class="st10" d="M75.29,61.13c0.47-0.57,1.03-0.86,1.69-0.86c0.33,0,0.62,0.08,0.88,0.24c0.16,0.1,0.36,0.27,0.6,0.52v-2.29
			c0-0.32-0.06-0.51-0.18-0.59c-0.12-0.08-0.37-0.12-0.76-0.14v-0.3h2.69v7.18c0,0.26,0.05,0.44,0.15,0.54
			c0.1,0.1,0.29,0.16,0.57,0.18v0.29c-0.7,0.07-1.15,0.12-1.35,0.16c-0.2,0.03-0.56,0.12-1.07,0.26v-0.82
			c-0.24,0.24-0.45,0.42-0.65,0.54c-0.31,0.19-0.64,0.28-1,0.28c-0.61,0-1.14-0.26-1.59-0.77c-0.45-0.52-0.68-1.22-0.68-2.1
			C74.59,62.48,74.82,61.7,75.29,61.13z M78.13,65.27c0.21-0.24,0.32-0.41,0.32-0.51v-3.03c0-0.1-0.09-0.25-0.27-0.45
			c-0.18-0.2-0.43-0.3-0.73-0.3c-0.44,0-0.75,0.31-0.9,0.92c-0.09,0.33-0.13,0.79-0.13,1.39c0,0.64,0.04,1.13,0.12,1.45
			c0.15,0.59,0.44,0.88,0.87,0.88C77.68,65.63,77.92,65.51,78.13,65.27z"/>
	</g>
</g>
</svg>
