<?xml version="1.0" encoding="utf-8"?>
<!-- Generator: Adobe Illustrator 26.5.0, SVG Export Plug-In . SVG Version: 6.00 Build 0)  -->
<svg version="1.1" id="Layer_1" xmlns="http://www.w3.org/2000/svg" xmlns:xlink="http://www.w3.org/1999/xlink" x="0px" y="0px"
	 viewBox="0 0 106.66 106.48" style="enable-background:new 0 0 106.66 106.48;" xml:space="preserve">
<style type="text/css">
	.st0{clip-path:url(#SVGID_00000080894636592345868720000000027079864433032870_);fill:#887976;}
	.st1{clip-path:url(#SVGID_00000080894636592345868720000000027079864433032870_);}
	.st2{fill:#081F40;}
	.st3{clip-path:url(#SVGID_00000124841737701767035480000009356402434555219130_);fill:#A51D31;}
	.st4{clip-path:url(#SVGID_00000124841737701767035480000009356402434555219130_);fill:#FFFFFF;}
	.st5{clip-path:url(#SVGID_00000122716136186023852260000018212492607764550573_);fill:#FFFFFF;}
	.st6{clip-path:url(#SVGID_00000122716136186023852260000018212492607764550573_);}
	.st7{fill:#0E2346;}
	.st8{clip-path:url(#SVGID_00000163755523015194817540000014149606256590743463_);fill:#643D18;}
	.st9{clip-path:url(#SVGID_00000163755523015194817540000014149606256590743463_);}
	.st10{fill:#FFFFFF;}
	.st11{clip-path:url(#SVGID_00000085953488078042582160000015705098284770349186_);fill:#1E2758;}
	.st12{clip-path:url(#SVGID_00000085953488078042582160000015705098284770349186_);}
	.st13{fill:#EB1C2D;}
	.st14{clip-path:url(#SVGID_00000059285857490434721540000007197967429592561592_);fill:#0D4E91;}
	.st15{clip-path:url(#SVGID_00000059285857490434721540000007197967429592561592_);}
	.st16{clip-path:url(#SVGID_00000177450221383055199340000002894270773656575421_);fill:#672A7A;}
	.st17{clip-path:url(#SVGID_00000177450221383055199340000002894270773656575421_);fill:#F9F186;}
	
		.st18{clip-path:url(#SVGID_00000177450221383055199340000002894270773656575421_);fill:none;stroke:#000000;stroke-width:1.069;stroke-miterlimit:10;}
	.st19{clip-path:url(#SVGID_00000177450221383055199340000002894270773656575421_);fill:#F5EC3B;}
	.st20{clip-path:url(#SVGID_00000074438426174799512830000005121686416770194111_);fill:#E77625;}
	.st21{clip-path:url(#SVGID_00000074438426174799512830000005121686416770194111_);}
	.st22{clip-path:url(#SVGID_00000067943786681360618040000009749259559085258678_);fill:#D8272D;}
	.st23{clip-path:url(#SVGID_00000067943786681360618040000009749259559085258678_);}
	.st24{clip-path:url(#SVGID_00000150088725340868775410000011256029057228518552_);fill:#00954C;}
	.st25{clip-path:url(#SVGID_00000150088725340868775410000011256029057228518552_);}
	.st26{clip-path:url(#SVGID_00000173877715519718520660000011362637862860679588_);fill:#42B4E4;}
	.st27{clip-path:url(#SVGID_00000173877715519718520660000011362637862860679588_);}
	.st28{clip-path:url(#SVGID_00000175316714446901892270000013744621648962849450_);}
</style>
<g>
	<defs>
		<path id="SVGID_00000163043790257602570050000001494669346520478128_" d="M106.66,53.24c0,29.39-23.89,53.24-53.33,53.24
			S0,82.63,0,53.24S23.89,0,53.33,0S106.66,23.85,106.66,53.24z"/>
	</defs>
	<clipPath id="SVGID_00000144319005859661713630000011715007079377238432_">
		<use xlink:href="#SVGID_00000163043790257602570050000001494669346520478128_"  style="overflow:visible;"/>
	</clipPath>
	<path style="clip-path:url(#SVGID_00000144319005859661713630000011715007079377238432_);fill:#643D18;" d="M53.33,115.46
		c34.37,0,62.23-27.86,62.23-62.22c0-34.37-27.86-62.23-62.23-62.23S-8.9,18.87-8.9,53.24C-8.9,87.6,18.96,115.46,53.33,115.46"/>
	<g style="clip-path:url(#SVGID_00000144319005859661713630000011715007079377238432_);">
		<path class="st10" d="M12.32,48.29c0.38,0,0.63-0.07,0.74-0.2c0.11-0.13,0.17-0.33,0.17-0.59v-4.74c0-0.27-0.06-0.45-0.19-0.53
			c-0.13-0.08-0.36-0.14-0.69-0.17V41.8h2.51l1.96,4.62h0.08l1.95-4.62h2.51v0.25c-0.34,0.03-0.57,0.09-0.69,0.19
			c-0.12,0.1-0.19,0.34-0.19,0.72v4.41c0,0.37,0.06,0.61,0.19,0.72c0.12,0.11,0.35,0.18,0.69,0.19v0.25h-3.31v-0.25
			c0.3-0.01,0.52-0.06,0.67-0.15c0.15-0.09,0.22-0.28,0.22-0.59v-4.87h-0.07l-2.44,5.86h-0.27l-2.47-5.74h-0.04v4.51
			c0,0.33,0.06,0.58,0.19,0.73c0.12,0.15,0.4,0.24,0.82,0.25v0.25h-2.33V48.29z"/>
		<path class="st10" d="M21.8,49.33c0.14-0.11,0.31-0.16,0.5-0.16c0.17,0,0.31,0.05,0.42,0.14s0.16,0.21,0.16,0.34l-0.02,0.22
			c0,0.04,0.02,0.08,0.05,0.12s0.08,0.05,0.13,0.05c0.17,0,0.33-0.14,0.48-0.41c0.09-0.17,0.23-0.49,0.41-0.98l-1.18-2.92
			c-0.08-0.21-0.17-0.4-0.25-0.58s-0.16-0.36-0.25-0.53c-0.09-0.18-0.16-0.29-0.21-0.33c-0.05-0.05-0.15-0.08-0.28-0.09v-0.24h2.49
			v0.24c-0.16,0-0.28,0.02-0.38,0.05c-0.1,0.03-0.15,0.1-0.15,0.21c0,0.02,0.01,0.05,0.02,0.09c0.01,0.04,0.04,0.11,0.08,0.21
			l0.79,1.96h0.05l0.66-1.75c0.03-0.1,0.06-0.18,0.08-0.26c0.02-0.07,0.03-0.14,0.03-0.19c0-0.14-0.05-0.23-0.14-0.27
			c-0.09-0.04-0.23-0.06-0.41-0.06v-0.24h1.51v0.24c-0.13,0.01-0.24,0.04-0.32,0.1c-0.08,0.06-0.17,0.21-0.26,0.44l-1.49,3.98
			c-0.29,0.73-0.54,1.23-0.75,1.49c-0.21,0.26-0.54,0.39-0.98,0.39c-0.32,0-0.57-0.08-0.74-0.24s-0.25-0.34-0.25-0.53
			C21.59,49.6,21.66,49.43,21.8,49.33z"/>
		<path class="st10" d="M32.73,44.13c0.31,0.2,0.46,0.47,0.46,0.79c0,0.17-0.06,0.32-0.18,0.45c-0.12,0.13-0.28,0.19-0.46,0.19
			c-0.13,0-0.24-0.03-0.33-0.09c-0.18-0.1-0.27-0.29-0.27-0.56c0-0.03,0-0.07,0-0.13c0-0.06,0-0.12,0-0.18
			c0-0.18-0.04-0.29-0.12-0.36c-0.08-0.06-0.18-0.1-0.29-0.1c-0.31,0-0.53,0.17-0.66,0.51s-0.19,0.73-0.19,1.17
			c0,0.62,0.12,1.15,0.37,1.57s0.58,0.63,1,0.63c0.26,0,0.49-0.06,0.67-0.18c0.11-0.07,0.25-0.19,0.41-0.37l0.19,0.17
			c-0.32,0.45-0.7,0.76-1.14,0.93c-0.23,0.09-0.48,0.13-0.74,0.13c-0.64,0-1.16-0.23-1.57-0.69s-0.61-1.02-0.61-1.67
			c0-0.69,0.21-1.29,0.65-1.77c0.43-0.49,1-0.73,1.72-0.73C32.06,43.82,32.42,43.93,32.73,44.13z"/>
		<path class="st10" d="M33.65,48.3c0.18-0.02,0.32-0.07,0.4-0.15c0.09-0.08,0.13-0.23,0.13-0.46v-5.08c0-0.2-0.04-0.34-0.11-0.42
			c-0.07-0.08-0.21-0.13-0.42-0.16V41.8h1.93v2.8c0.2-0.25,0.42-0.44,0.65-0.57s0.48-0.2,0.76-0.2c0.38,0,0.7,0.11,0.95,0.33
			c0.25,0.22,0.37,0.6,0.37,1.14v2.4c0,0.22,0.04,0.37,0.11,0.44c0.08,0.07,0.2,0.12,0.38,0.16v0.24h-2.34V48.3
			c0.18-0.04,0.3-0.08,0.36-0.15c0.06-0.06,0.1-0.2,0.1-0.42v-2.41c0-0.23-0.02-0.4-0.07-0.51c-0.08-0.2-0.23-0.31-0.46-0.31
			c-0.17,0-0.35,0.08-0.53,0.24c-0.18,0.16-0.27,0.27-0.27,0.33v2.67c0,0.22,0.03,0.36,0.1,0.42c0.06,0.06,0.19,0.11,0.36,0.15v0.24
			h-2.4V48.3z"/>
		<path class="st10" d="M39.2,48.3c0.18-0.03,0.3-0.07,0.36-0.13c0.1-0.09,0.15-0.25,0.15-0.47v-2.93c0-0.2-0.03-0.34-0.1-0.41
			c-0.07-0.07-0.2-0.13-0.4-0.16v-0.24h1.91v3.79c0,0.22,0.03,0.36,0.1,0.42c0.06,0.06,0.19,0.11,0.36,0.15v0.24H39.2V48.3z
			 M39.86,41.88c0.15-0.15,0.33-0.23,0.55-0.23c0.21,0,0.39,0.08,0.54,0.23s0.23,0.33,0.23,0.55c0,0.21-0.08,0.4-0.23,0.55
			s-0.33,0.23-0.54,0.23c-0.21,0-0.4-0.08-0.55-0.23s-0.23-0.33-0.23-0.55C39.64,42.21,39.71,42.03,39.86,41.88z"/>
		<path class="st10" d="M41.97,48.3c0.18-0.04,0.3-0.1,0.37-0.17c0.07-0.07,0.11-0.21,0.11-0.44v-5.08c0-0.21-0.03-0.35-0.1-0.42
			c-0.07-0.07-0.19-0.12-0.38-0.16V41.8h1.89v5.9c0,0.22,0.04,0.37,0.11,0.43c0.07,0.07,0.2,0.12,0.38,0.17v0.24h-2.38V48.3z"/>
		<path class="st10" d="M45.39,44.52c0.38-0.46,0.83-0.68,1.35-0.68c0.26,0,0.5,0.06,0.7,0.19c0.13,0.08,0.29,0.22,0.48,0.42v-1.83
			c0-0.25-0.05-0.41-0.15-0.47c-0.1-0.06-0.3-0.1-0.6-0.11V41.8h2.15v5.74c0,0.21,0.04,0.35,0.12,0.43
			c0.08,0.08,0.23,0.13,0.46,0.15v0.23c-0.56,0.06-0.92,0.1-1.08,0.12c-0.16,0.03-0.45,0.1-0.86,0.21v-0.66
			c-0.19,0.19-0.36,0.34-0.52,0.43c-0.25,0.15-0.51,0.22-0.8,0.22c-0.49,0-0.91-0.21-1.27-0.62s-0.54-0.97-0.54-1.68
			C44.83,45.6,45.02,44.97,45.39,44.52z M47.67,47.83c0.17-0.19,0.26-0.33,0.26-0.4V45c0-0.08-0.07-0.2-0.22-0.36
			s-0.34-0.24-0.58-0.24c-0.35,0-0.6,0.25-0.72,0.74c-0.07,0.26-0.1,0.63-0.1,1.11c0,0.51,0.03,0.9,0.1,1.16
			c0.12,0.47,0.35,0.71,0.69,0.71C47.3,48.12,47.5,48.02,47.67,47.83z"/>
		<path class="st10" d="M52.2,49.15c0.11-0.12,0.26-0.18,0.46-0.18c0.15,0,0.28,0.05,0.41,0.14s0.18,0.23,0.18,0.39
			c0,0.11-0.04,0.23-0.12,0.36c-0.08,0.13-0.12,0.21-0.12,0.24c0,0.06,0.04,0.11,0.11,0.13c0.07,0.02,0.15,0.03,0.22,0.03
			c0.19,0,0.31-0.07,0.38-0.2c0.06-0.13,0.1-0.32,0.1-0.55v-4.75c0-0.21-0.04-0.36-0.13-0.44c-0.08-0.08-0.25-0.13-0.51-0.14v-0.24
			h2.01v4.57c0,0.42-0.04,0.75-0.11,0.99c-0.07,0.25-0.21,0.46-0.42,0.64c-0.13,0.11-0.31,0.21-0.54,0.29
			c-0.23,0.08-0.48,0.12-0.74,0.12c-0.26,0-0.51-0.05-0.75-0.16c-0.4-0.17-0.59-0.46-0.59-0.86C52.04,49.4,52.09,49.27,52.2,49.15z
			 M53.91,41.88c0.15-0.15,0.33-0.23,0.55-0.23c0.21,0,0.39,0.08,0.54,0.23c0.15,0.15,0.23,0.33,0.23,0.55
			c0,0.21-0.08,0.4-0.23,0.55c-0.15,0.15-0.33,0.23-0.54,0.23c-0.21,0-0.4-0.08-0.55-0.23s-0.23-0.33-0.23-0.55
			C53.69,42.21,53.76,42.03,53.91,41.88z"/>
		<path class="st10" d="M56.8,44.52c0.43-0.46,0.96-0.7,1.61-0.7c0.66,0,1.2,0.24,1.62,0.71c0.42,0.47,0.63,1.05,0.63,1.72
			c0,0.67-0.21,1.24-0.62,1.72c-0.42,0.48-0.96,0.72-1.63,0.72c-0.65,0-1.19-0.23-1.61-0.7c-0.43-0.47-0.64-1.04-0.64-1.74
			C56.16,45.56,56.37,44.98,56.8,44.52z M57.73,47.72c0.11,0.43,0.34,0.65,0.68,0.65c0.32,0,0.53-0.17,0.63-0.5s0.15-0.87,0.15-1.62
			c0-0.74-0.05-1.28-0.16-1.61s-0.31-0.5-0.62-0.5c-0.34,0-0.56,0.22-0.68,0.65c-0.07,0.29-0.11,0.78-0.11,1.47
			C57.62,46.96,57.66,47.44,57.73,47.72z"/>
		<path class="st10" d="M61.08,48.3c0.18-0.03,0.3-0.07,0.36-0.13c0.1-0.09,0.15-0.25,0.15-0.47v-2.93c0-0.2-0.03-0.34-0.1-0.41
			c-0.07-0.07-0.2-0.13-0.4-0.16v-0.24H63v3.79c0,0.22,0.03,0.36,0.1,0.42c0.06,0.06,0.19,0.11,0.36,0.15v0.24h-2.38V48.3z
			 M61.75,41.88c0.15-0.15,0.33-0.23,0.55-0.23c0.21,0,0.39,0.08,0.54,0.23s0.23,0.33,0.23,0.55c0,0.21-0.08,0.4-0.23,0.55
			s-0.33,0.23-0.54,0.23c-0.21,0-0.4-0.08-0.55-0.23s-0.23-0.33-0.23-0.55C61.52,42.21,61.6,42.03,61.75,41.88z"/>
		<path class="st10" d="M63.85,48.3c0.18-0.02,0.32-0.07,0.4-0.15c0.09-0.08,0.13-0.23,0.13-0.46v-2.93c0-0.2-0.04-0.34-0.1-0.42
			c-0.07-0.08-0.21-0.13-0.43-0.16v-0.24h1.89v0.72c0.16-0.24,0.36-0.44,0.61-0.6c0.24-0.16,0.52-0.24,0.82-0.24
			c0.43,0,0.76,0.11,1,0.33c0.23,0.22,0.35,0.61,0.35,1.16v2.41c0,0.22,0.04,0.37,0.11,0.43c0.08,0.06,0.2,0.11,0.38,0.13v0.24
			h-2.34V48.3c0.18-0.04,0.3-0.08,0.36-0.15c0.06-0.06,0.1-0.2,0.1-0.42v-2.41c0-0.23-0.02-0.4-0.07-0.51
			c-0.08-0.2-0.23-0.31-0.46-0.31c-0.17,0-0.33,0.06-0.47,0.19s-0.26,0.25-0.33,0.38v2.67c0,0.22,0.03,0.36,0.1,0.42
			c0.06,0.06,0.19,0.11,0.36,0.15v0.24h-2.4V48.3z"/>
		<path class="st10" d="M70.07,44.47c0.41-0.42,0.9-0.64,1.47-0.64c0.33,0,0.64,0.09,0.93,0.26c0.29,0.17,0.51,0.41,0.67,0.72
			c0.12,0.23,0.2,0.53,0.24,0.9c0.02,0.17,0.03,0.3,0.03,0.39h-2.55c0.02,0.4,0.09,0.74,0.2,1.04c0.19,0.55,0.54,0.82,1.03,0.82
			c0.23,0,0.46-0.07,0.66-0.22c0.13-0.09,0.28-0.24,0.47-0.44l0.23,0.14c-0.31,0.51-0.67,0.86-1.07,1.06
			c-0.26,0.13-0.57,0.19-0.91,0.19c-0.49,0-0.95-0.19-1.38-0.58c-0.43-0.39-0.64-1-0.64-1.85C69.46,45.49,69.66,44.89,70.07,44.47z
			 M72.19,45.73c-0.01-0.59-0.05-1-0.14-1.23c-0.08-0.23-0.25-0.35-0.51-0.35c-0.26,0-0.44,0.13-0.54,0.4
			c-0.1,0.27-0.15,0.66-0.16,1.18H72.19z"/>
		<path class="st10" d="M74.48,44.52c0.38-0.46,0.83-0.68,1.35-0.68c0.26,0,0.5,0.06,0.7,0.19c0.13,0.08,0.29,0.22,0.48,0.42v-1.83
			c0-0.25-0.05-0.41-0.15-0.47c-0.1-0.06-0.3-0.1-0.6-0.11V41.8h2.15v5.74c0,0.21,0.04,0.35,0.12,0.43
			c0.08,0.08,0.23,0.13,0.46,0.15v0.23c-0.56,0.06-0.92,0.1-1.08,0.12c-0.16,0.03-0.45,0.1-0.86,0.21v-0.66
			c-0.19,0.19-0.36,0.34-0.52,0.43c-0.25,0.15-0.51,0.22-0.8,0.22c-0.49,0-0.91-0.21-1.27-0.62s-0.54-0.97-0.54-1.68
			C73.91,45.6,74.1,44.97,74.48,44.52z M76.75,47.83c0.17-0.19,0.26-0.33,0.26-0.4V45c0-0.08-0.07-0.2-0.22-0.36
			s-0.34-0.24-0.58-0.24c-0.35,0-0.6,0.25-0.72,0.74c-0.07,0.26-0.1,0.63-0.1,1.11c0,0.51,0.03,0.9,0.1,1.16
			c0.12,0.47,0.35,0.71,0.69,0.71C76.39,48.12,76.58,48.02,76.75,47.83z"/>
		<path class="st10" d="M81.86,44.39v-0.28c0.09-0.08,0.2-0.18,0.33-0.29c0.17-0.16,0.33-0.32,0.49-0.49
			c0.3-0.33,0.58-0.69,0.82-1.07h0.25v1.68h0.95v0.44h-0.95v3c0,0.14,0.02,0.26,0.06,0.35c0.06,0.15,0.17,0.22,0.32,0.22
			c0.13,0,0.24-0.05,0.33-0.14c0.09-0.09,0.18-0.22,0.26-0.38l0.24,0.12c-0.12,0.27-0.26,0.5-0.42,0.67
			c-0.29,0.3-0.63,0.45-1.05,0.45c-0.23,0-0.44-0.04-0.61-0.13c-0.34-0.17-0.51-0.48-0.51-0.92v-3.23H81.86z"/>
		<path class="st10" d="M85.18,48.3c0.18-0.02,0.32-0.07,0.4-0.15c0.09-0.08,0.13-0.23,0.13-0.46v-5.08c0-0.2-0.04-0.34-0.11-0.42
			c-0.07-0.08-0.21-0.13-0.42-0.16V41.8h1.93v2.8c0.2-0.25,0.42-0.44,0.65-0.57s0.48-0.2,0.76-0.2c0.38,0,0.7,0.11,0.95,0.33
			c0.25,0.22,0.37,0.6,0.37,1.14v2.4c0,0.22,0.04,0.37,0.11,0.44c0.08,0.07,0.2,0.12,0.38,0.16v0.24h-2.34V48.3
			c0.18-0.04,0.3-0.08,0.36-0.15c0.06-0.06,0.1-0.2,0.1-0.42v-2.41c0-0.23-0.02-0.4-0.07-0.51c-0.08-0.2-0.23-0.31-0.46-0.31
			c-0.17,0-0.35,0.08-0.53,0.24c-0.18,0.16-0.27,0.27-0.27,0.33v2.67c0,0.22,0.03,0.36,0.1,0.42c0.06,0.06,0.19,0.11,0.36,0.15v0.24
			h-2.4V48.3z"/>
		<path class="st10" d="M91.39,44.47c0.41-0.42,0.9-0.64,1.47-0.64c0.33,0,0.64,0.09,0.93,0.26c0.29,0.17,0.51,0.41,0.67,0.72
			c0.12,0.23,0.2,0.53,0.24,0.9c0.02,0.17,0.03,0.3,0.03,0.39h-2.55c0.02,0.4,0.09,0.74,0.2,1.04c0.19,0.55,0.54,0.82,1.03,0.82
			c0.23,0,0.46-0.07,0.66-0.22c0.13-0.09,0.28-0.24,0.47-0.44l0.23,0.14c-0.31,0.51-0.67,0.86-1.07,1.06
			c-0.26,0.13-0.57,0.19-0.91,0.19c-0.49,0-0.95-0.19-1.38-0.58c-0.43-0.39-0.64-1-0.64-1.85C90.78,45.49,90.99,44.89,91.39,44.47z
			 M93.51,45.73c-0.01-0.59-0.05-1-0.14-1.23c-0.08-0.23-0.25-0.35-0.51-0.35c-0.26,0-0.44,0.13-0.54,0.4
			c-0.1,0.27-0.15,0.66-0.16,1.18H93.51z"/>
	</g>
	<g style="clip-path:url(#SVGID_00000144319005859661713630000011715007079377238432_);">
		<path class="st10" d="M7.84,57.29c0.27-0.01,0.46-0.05,0.58-0.11c0.2-0.1,0.3-0.3,0.3-0.59v-4.83c0-0.29-0.09-0.49-0.28-0.59
			c-0.11-0.06-0.31-0.1-0.6-0.12V50.8h3.08c0.59,0,1.09,0.07,1.48,0.2c0.74,0.26,1.11,0.72,1.11,1.4c0,0.41-0.15,0.74-0.45,0.98
			c-0.3,0.24-0.63,0.4-0.98,0.46v0.09c0.37,0.07,0.69,0.19,0.96,0.36c0.53,0.33,0.8,0.79,0.8,1.38c0,0.55-0.25,1-0.76,1.34
			c-0.51,0.34-1.19,0.51-2.04,0.51H7.84V57.29z M11.55,53.53c0.21-0.2,0.32-0.56,0.32-1.07c0-0.38-0.07-0.7-0.21-0.96
			c-0.14-0.26-0.4-0.39-0.8-0.39c-0.21,0-0.35,0.03-0.43,0.1s-0.12,0.2-0.12,0.38v2.24C10.93,53.83,11.34,53.73,11.55,53.53z
			 M10.39,57.01c0.08,0.14,0.24,0.21,0.47,0.21c0.47,0,0.8-0.13,0.99-0.38c0.19-0.26,0.29-0.62,0.29-1.1c0-0.71-0.21-1.18-0.63-1.41
			c-0.25-0.14-0.65-0.21-1.19-0.2v2.49C10.32,56.8,10.34,56.93,10.39,57.01z"/>
		<path class="st10" d="M14.51,57.3c0.19-0.02,0.32-0.07,0.4-0.14c0.07-0.07,0.12-0.2,0.12-0.39l0.01-0.29v-2.71
			c0-0.21-0.04-0.35-0.11-0.43c-0.07-0.08-0.21-0.13-0.42-0.15v-0.24h1.89v0.78c0.21-0.28,0.42-0.49,0.63-0.66
			c0.21-0.16,0.45-0.24,0.72-0.24c0.21,0,0.39,0.07,0.55,0.2c0.16,0.13,0.25,0.32,0.25,0.58c0,0.19-0.06,0.36-0.17,0.48
			c-0.12,0.13-0.27,0.19-0.45,0.19c-0.21,0-0.39-0.1-0.55-0.3c-0.15-0.2-0.26-0.3-0.32-0.3c-0.13,0-0.27,0.08-0.4,0.25
			c-0.14,0.16-0.2,0.4-0.2,0.7v1.89c0,0.33,0.05,0.53,0.14,0.62c0.1,0.08,0.29,0.14,0.57,0.16v0.24h-2.65V57.3z"/>
		<path class="st10" d="M19.45,53.52c0.43-0.46,0.96-0.7,1.61-0.7c0.66,0,1.2,0.24,1.62,0.71c0.42,0.47,0.63,1.05,0.63,1.72
			c0,0.67-0.21,1.24-0.62,1.72c-0.42,0.48-0.96,0.72-1.63,0.72c-0.65,0-1.19-0.23-1.61-0.7c-0.43-0.47-0.64-1.04-0.64-1.74
			C18.81,54.56,19.02,53.98,19.45,53.52z M20.38,56.72c0.11,0.43,0.34,0.65,0.68,0.65c0.32,0,0.53-0.17,0.63-0.5
			s0.15-0.87,0.15-1.62c0-0.74-0.05-1.28-0.16-1.61s-0.31-0.5-0.62-0.5c-0.34,0-0.56,0.22-0.68,0.65c-0.07,0.29-0.11,0.78-0.11,1.47
			C20.27,55.96,20.31,56.44,20.38,56.72z"/>
		<path class="st10" d="M25.95,52.95v0.24c-0.11,0.01-0.21,0.03-0.28,0.07s-0.11,0.11-0.11,0.23c0,0.04,0,0.08,0.01,0.11
			c0.01,0.04,0.03,0.09,0.06,0.17l0.77,1.95h0.03l0.64-1.64c0-0.02-0.03-0.12-0.08-0.3c-0.05-0.17-0.1-0.3-0.13-0.36
			c-0.05-0.09-0.1-0.15-0.15-0.17c-0.05-0.02-0.14-0.04-0.29-0.06v-0.24h2.33v0.24c-0.14,0.01-0.26,0.02-0.34,0.05
			c-0.09,0.03-0.13,0.09-0.13,0.17c0,0.05,0.01,0.11,0.02,0.17c0.01,0.06,0.03,0.15,0.07,0.26l0.6,1.79h-0.05l0.74-1.9
			c0.01-0.03,0.02-0.06,0.02-0.09c0.01-0.03,0.01-0.06,0.01-0.08c0-0.14-0.04-0.23-0.12-0.27c-0.08-0.04-0.2-0.07-0.36-0.08v-0.24
			h1.35v0.24c-0.12,0.02-0.21,0.06-0.28,0.12c-0.07,0.06-0.14,0.19-0.21,0.38l-1.55,3.99h-0.23l-1.03-3.08h-0.04l-1.19,3.08h-0.24
			l-1.47-3.73c-0.12-0.31-0.21-0.51-0.27-0.6c-0.06-0.09-0.16-0.14-0.29-0.17v-0.24H25.95z"/>
		<path class="st10" d="M30.94,57.3c0.18-0.02,0.32-0.07,0.4-0.15c0.09-0.08,0.13-0.23,0.13-0.46v-2.93c0-0.2-0.04-0.34-0.1-0.42
			c-0.07-0.08-0.21-0.13-0.43-0.16v-0.24h1.89v0.72c0.16-0.24,0.36-0.44,0.61-0.6c0.24-0.16,0.52-0.24,0.82-0.24
			c0.43,0,0.76,0.11,1,0.33c0.23,0.22,0.35,0.61,0.35,1.16v2.41c0,0.22,0.04,0.37,0.11,0.43c0.08,0.06,0.2,0.11,0.38,0.13v0.24
			h-2.34V57.3c0.18-0.04,0.3-0.08,0.36-0.15c0.06-0.06,0.1-0.2,0.1-0.42v-2.41c0-0.23-0.02-0.4-0.07-0.51
			c-0.08-0.2-0.23-0.31-0.46-0.31c-0.17,0-0.33,0.06-0.47,0.19s-0.26,0.25-0.33,0.38v2.67c0,0.22,0.03,0.36,0.1,0.42
			c0.06,0.06,0.19,0.11,0.36,0.15v0.24h-2.4V57.3z"/>
		<path class="st10" d="M38.97,57.29c0.27-0.01,0.46-0.05,0.58-0.11c0.2-0.1,0.3-0.3,0.3-0.59v-4.83c0-0.29-0.09-0.49-0.28-0.59
			c-0.11-0.06-0.31-0.1-0.6-0.12V50.8h3.08c0.59,0,1.09,0.07,1.48,0.2c0.74,0.26,1.11,0.72,1.11,1.4c0,0.41-0.15,0.74-0.45,0.98
			c-0.3,0.24-0.63,0.4-0.98,0.46v0.09c0.37,0.07,0.69,0.19,0.96,0.36c0.53,0.33,0.8,0.79,0.8,1.38c0,0.55-0.25,1-0.76,1.34
			c-0.51,0.34-1.19,0.51-2.04,0.51h-3.21V57.29z M42.68,53.53c0.21-0.2,0.32-0.56,0.32-1.07c0-0.38-0.07-0.7-0.21-0.96
			c-0.14-0.26-0.4-0.39-0.8-0.39c-0.21,0-0.35,0.03-0.43,0.1s-0.12,0.2-0.12,0.38v2.24C42.06,53.83,42.47,53.73,42.68,53.53z
			 M41.52,57.01c0.08,0.14,0.24,0.21,0.47,0.21c0.47,0,0.8-0.13,0.99-0.38c0.19-0.26,0.29-0.62,0.29-1.1c0-0.71-0.21-1.18-0.63-1.41
			c-0.25-0.14-0.65-0.21-1.19-0.2v2.49C41.44,56.8,41.47,56.93,41.52,57.01z"/>
		<path class="st10" d="M46.36,55.54c0.43-0.26,1.11-0.53,2.03-0.79v-0.73c0-0.3-0.06-0.51-0.19-0.65s-0.35-0.21-0.66-0.21
			c-0.18,0-0.33,0.03-0.44,0.1c-0.12,0.07-0.17,0.15-0.17,0.25c0,0.04,0.01,0.07,0.02,0.1c0.01,0.03,0.03,0.05,0.06,0.08l0.06,0.07
			c0.05,0.06,0.08,0.12,0.11,0.18c0.03,0.07,0.04,0.14,0.04,0.21c0,0.19-0.06,0.33-0.19,0.44c-0.12,0.1-0.27,0.15-0.44,0.15
			c-0.19,0-0.35-0.06-0.49-0.17s-0.2-0.28-0.2-0.49c0-0.38,0.18-0.68,0.54-0.91c0.36-0.22,0.8-0.33,1.33-0.33
			c0.56,0,1.04,0.11,1.42,0.33c0.38,0.22,0.56,0.63,0.56,1.22v2.42c0,0.07,0.02,0.13,0.06,0.18c0.04,0.05,0.08,0.08,0.12,0.08
			c0.04,0,0.07-0.01,0.1-0.02s0.08-0.05,0.14-0.12l0.15,0.21c-0.19,0.23-0.41,0.39-0.65,0.48c-0.15,0.06-0.31,0.09-0.47,0.09
			c-0.3,0-0.51-0.09-0.65-0.26c-0.08-0.1-0.13-0.24-0.17-0.43c-0.28,0.28-0.59,0.47-0.93,0.58c-0.21,0.07-0.42,0.11-0.62,0.11
			c-0.27,0-0.53-0.09-0.76-0.26s-0.36-0.44-0.36-0.81C45.71,56.16,45.93,55.81,46.36,55.54z M48.1,56.83
			c0.08-0.06,0.17-0.15,0.28-0.27v-1.46c-0.27,0.06-0.5,0.17-0.7,0.31c-0.34,0.24-0.51,0.54-0.51,0.91c0,0.22,0.05,0.38,0.15,0.5
			c0.1,0.11,0.21,0.17,0.33,0.17C47.81,56.97,47.96,56.92,48.1,56.83z"/>
		<path class="st10" d="M50.61,57.3c0.18-0.02,0.32-0.07,0.4-0.15c0.09-0.08,0.13-0.23,0.13-0.46v-2.93c0-0.2-0.04-0.34-0.1-0.42
			c-0.07-0.08-0.21-0.13-0.43-0.16v-0.24h1.89v0.72c0.16-0.24,0.36-0.44,0.61-0.6c0.24-0.16,0.52-0.24,0.82-0.24
			c0.43,0,0.76,0.11,1,0.33c0.23,0.22,0.35,0.61,0.35,1.16v2.41c0,0.22,0.04,0.37,0.11,0.43c0.08,0.06,0.2,0.11,0.38,0.13v0.24
			h-2.34V57.3c0.18-0.04,0.3-0.08,0.36-0.15c0.06-0.06,0.1-0.2,0.1-0.42v-2.41c0-0.23-0.02-0.4-0.07-0.51
			c-0.08-0.2-0.23-0.31-0.46-0.31c-0.17,0-0.33,0.06-0.47,0.19s-0.26,0.25-0.33,0.38v2.67c0,0.22,0.03,0.36,0.1,0.42
			c0.06,0.06,0.19,0.11,0.36,0.15v0.24h-2.4V57.3z"/>
		<path class="st10" d="M56.81,53.52c0.38-0.46,0.83-0.68,1.35-0.68c0.26,0,0.5,0.06,0.7,0.19c0.13,0.08,0.29,0.22,0.48,0.42v-1.83
			c0-0.25-0.05-0.41-0.15-0.47c-0.1-0.06-0.3-0.1-0.6-0.11V50.8h2.15v5.74c0,0.21,0.04,0.35,0.12,0.43
			c0.08,0.08,0.23,0.13,0.46,0.15v0.23c-0.56,0.06-0.92,0.1-1.08,0.12c-0.16,0.03-0.45,0.1-0.86,0.21v-0.66
			c-0.19,0.19-0.36,0.34-0.52,0.43c-0.25,0.15-0.51,0.22-0.8,0.22c-0.49,0-0.91-0.21-1.27-0.62s-0.54-0.97-0.54-1.68
			C56.24,54.6,56.43,53.97,56.81,53.52z M59.08,56.83c0.17-0.19,0.26-0.33,0.26-0.4V54c0-0.08-0.07-0.2-0.22-0.36
			s-0.34-0.24-0.58-0.24c-0.35,0-0.6,0.25-0.72,0.74c-0.07,0.26-0.1,0.63-0.1,1.11c0,0.51,0.03,0.9,0.1,1.16
			c0.12,0.47,0.35,0.71,0.69,0.71C58.72,57.12,58.91,57.02,59.08,56.83z"/>
		<path class="st10" d="M64.93,55.54c0.43-0.26,1.11-0.53,2.03-0.79v-0.73c0-0.3-0.06-0.51-0.19-0.65s-0.35-0.21-0.66-0.21
			c-0.18,0-0.33,0.03-0.44,0.1c-0.12,0.07-0.17,0.15-0.17,0.25c0,0.04,0.01,0.07,0.02,0.1c0.01,0.03,0.03,0.05,0.06,0.08l0.06,0.07
			c0.05,0.06,0.08,0.12,0.11,0.18c0.03,0.07,0.04,0.14,0.04,0.21c0,0.19-0.06,0.33-0.19,0.44c-0.12,0.1-0.27,0.15-0.44,0.15
			c-0.19,0-0.35-0.06-0.49-0.17s-0.2-0.28-0.2-0.49c0-0.38,0.18-0.68,0.54-0.91c0.36-0.22,0.8-0.33,1.33-0.33
			c0.56,0,1.04,0.11,1.42,0.33c0.38,0.22,0.56,0.63,0.56,1.22v2.42c0,0.07,0.02,0.13,0.06,0.18c0.04,0.05,0.08,0.08,0.12,0.08
			c0.04,0,0.07-0.01,0.1-0.02s0.08-0.05,0.14-0.12l0.15,0.21c-0.19,0.23-0.41,0.39-0.65,0.48c-0.15,0.06-0.31,0.09-0.47,0.09
			c-0.3,0-0.51-0.09-0.65-0.26c-0.08-0.1-0.13-0.24-0.17-0.43c-0.28,0.28-0.59,0.47-0.93,0.58c-0.21,0.07-0.42,0.11-0.62,0.11
			c-0.27,0-0.53-0.09-0.76-0.26s-0.36-0.44-0.36-0.81C64.28,56.16,64.5,55.81,64.93,55.54z M66.67,56.83
			c0.08-0.06,0.17-0.15,0.28-0.27v-1.46c-0.27,0.06-0.5,0.17-0.7,0.31c-0.34,0.24-0.51,0.54-0.51,0.91c0,0.22,0.05,0.38,0.15,0.5
			c0.1,0.11,0.21,0.17,0.33,0.17C66.38,56.97,66.53,56.92,66.67,56.83z"/>
		<path class="st10" d="M69.17,57.3c0.18-0.02,0.32-0.07,0.4-0.15c0.09-0.08,0.13-0.23,0.13-0.46v-2.93c0-0.2-0.04-0.34-0.1-0.42
			c-0.07-0.08-0.21-0.13-0.43-0.16v-0.24h1.89v0.72c0.16-0.24,0.36-0.44,0.61-0.6c0.24-0.16,0.52-0.24,0.82-0.24
			c0.43,0,0.76,0.11,1,0.33c0.23,0.22,0.35,0.61,0.35,1.16v2.41c0,0.22,0.04,0.37,0.11,0.43c0.08,0.06,0.2,0.11,0.38,0.13v0.24
			h-2.34V57.3c0.18-0.04,0.3-0.08,0.36-0.15c0.06-0.06,0.1-0.2,0.1-0.42v-2.41c0-0.23-0.02-0.4-0.07-0.51
			c-0.08-0.2-0.23-0.31-0.46-0.31c-0.17,0-0.33,0.06-0.47,0.19s-0.26,0.25-0.33,0.38v2.67c0,0.22,0.03,0.36,0.1,0.42
			c0.06,0.06,0.19,0.11,0.36,0.15v0.24h-2.4V57.3z"/>
		<path class="st10" d="M75.37,53.52c0.38-0.46,0.83-0.68,1.35-0.68c0.26,0,0.5,0.06,0.7,0.19c0.13,0.08,0.29,0.22,0.48,0.42v-1.83
			c0-0.25-0.05-0.41-0.15-0.47c-0.1-0.06-0.3-0.1-0.6-0.11V50.8h2.15v5.74c0,0.21,0.04,0.35,0.12,0.43
			c0.08,0.08,0.23,0.13,0.46,0.15v0.23c-0.56,0.06-0.92,0.1-1.08,0.12c-0.16,0.03-0.45,0.1-0.86,0.21v-0.66
			c-0.19,0.19-0.36,0.34-0.52,0.43c-0.25,0.15-0.51,0.22-0.8,0.22c-0.49,0-0.91-0.21-1.27-0.62s-0.54-0.97-0.54-1.68
			C74.81,54.6,75,53.97,75.37,53.52z M77.65,56.83c0.17-0.19,0.26-0.33,0.26-0.4V54c0-0.08-0.07-0.2-0.22-0.36s-0.34-0.24-0.58-0.24
			c-0.35,0-0.6,0.25-0.72,0.74c-0.07,0.26-0.1,0.63-0.1,1.11c0,0.51,0.03,0.9,0.1,1.16c0.12,0.47,0.35,0.71,0.69,0.71
			C77.28,57.12,77.48,57.02,77.65,56.83z"/>
		<path class="st10" d="M83.5,55.54c0.43-0.26,1.11-0.53,2.03-0.79v-0.73c0-0.3-0.06-0.51-0.19-0.65s-0.35-0.21-0.66-0.21
			c-0.18,0-0.33,0.03-0.44,0.1c-0.12,0.07-0.17,0.15-0.17,0.25c0,0.04,0.01,0.07,0.02,0.1c0.01,0.03,0.03,0.05,0.06,0.08l0.06,0.07
			c0.05,0.06,0.08,0.12,0.11,0.18c0.03,0.07,0.04,0.14,0.04,0.21c0,0.19-0.06,0.33-0.19,0.44c-0.12,0.1-0.27,0.15-0.44,0.15
			c-0.19,0-0.35-0.06-0.49-0.17s-0.2-0.28-0.2-0.49c0-0.38,0.18-0.68,0.54-0.91c0.36-0.22,0.8-0.33,1.33-0.33
			c0.56,0,1.04,0.11,1.42,0.33c0.38,0.22,0.56,0.63,0.56,1.22v2.42c0,0.07,0.02,0.13,0.06,0.18c0.04,0.05,0.08,0.08,0.12,0.08
			c0.04,0,0.07-0.01,0.1-0.02s0.08-0.05,0.14-0.12l0.15,0.21c-0.19,0.23-0.41,0.39-0.65,0.48c-0.15,0.06-0.31,0.09-0.47,0.09
			c-0.3,0-0.51-0.09-0.65-0.26c-0.08-0.1-0.13-0.24-0.17-0.43c-0.28,0.28-0.59,0.47-0.93,0.58c-0.21,0.07-0.42,0.11-0.62,0.11
			c-0.27,0-0.53-0.09-0.76-0.26s-0.36-0.44-0.36-0.81C82.85,56.16,83.07,55.81,83.5,55.54z M85.24,56.83
			c0.08-0.06,0.17-0.15,0.28-0.27v-1.46c-0.27,0.06-0.5,0.17-0.7,0.31c-0.34,0.24-0.51,0.54-0.51,0.91c0,0.22,0.05,0.38,0.15,0.5
			c0.1,0.11,0.21,0.17,0.33,0.17C84.94,56.97,85.1,56.92,85.24,56.83z"/>
		<path class="st10" d="M87.74,57.3c0.18-0.04,0.3-0.1,0.37-0.17c0.07-0.07,0.11-0.21,0.11-0.44v-5.08c0-0.21-0.03-0.35-0.1-0.42
			c-0.07-0.07-0.19-0.12-0.38-0.16V50.8h1.89v5.9c0,0.22,0.04,0.37,0.11,0.43c0.07,0.07,0.2,0.12,0.38,0.17v0.24h-2.38V57.3z"/>
		<path class="st10" d="M90.51,57.3c0.18-0.04,0.3-0.1,0.37-0.17c0.07-0.07,0.11-0.21,0.11-0.44v-5.08c0-0.21-0.03-0.35-0.1-0.42
			c-0.07-0.07-0.19-0.12-0.38-0.16V50.8h1.89v5.9c0,0.22,0.04,0.37,0.11,0.43c0.07,0.07,0.2,0.12,0.38,0.17v0.24h-2.38V57.3z"/>
		<path class="st10" d="M95.77,57.29c0.28-0.01,0.49-0.04,0.61-0.1c0.2-0.1,0.3-0.3,0.3-0.6v-4.83c0-0.29-0.1-0.49-0.29-0.59
			c-0.12-0.06-0.32-0.1-0.62-0.11V50.8h3.49v0.25c-0.31,0.01-0.53,0.05-0.64,0.11c-0.19,0.1-0.29,0.3-0.29,0.59v4.83
			c0,0.28,0.08,0.47,0.23,0.56c0.16,0.09,0.39,0.14,0.7,0.14v0.25h-3.49V57.29z"/>
	</g>
	<g style="clip-path:url(#SVGID_00000144319005859661713630000011715007079377238432_);">
		<path class="st10" d="M12.44,67.26c0.12-0.15,0.32-0.25,0.62-0.29v-0.07c-0.19-0.07-0.34-0.15-0.42-0.23
			c-0.16-0.14-0.23-0.33-0.23-0.56c0-0.28,0.12-0.52,0.37-0.72c0.24-0.2,0.48-0.34,0.72-0.41v-0.07c-0.34-0.14-0.61-0.33-0.82-0.58
			c-0.21-0.25-0.31-0.56-0.31-0.92c0-0.45,0.18-0.83,0.55-1.12c0.36-0.3,0.85-0.44,1.48-0.44c0.23,0,0.45,0.02,0.64,0.07
			c0.19,0.05,0.35,0.09,0.45,0.14h1.31v0.53h-0.81c0.13,0.13,0.23,0.27,0.3,0.44c0.07,0.17,0.1,0.35,0.1,0.55
			c0,0.62-0.3,1.05-0.89,1.28c-0.31,0.12-0.7,0.19-1.16,0.19c-0.1,0-0.17,0-0.2,0c-0.03,0-0.08,0-0.14,0
			c-0.1,0.02-0.2,0.07-0.31,0.16c-0.11,0.09-0.17,0.2-0.17,0.33c0,0.1,0.03,0.18,0.08,0.23s0.13,0.09,0.23,0.1
			c0.05,0.01,0.15,0.01,0.31,0.02s0.28,0.01,0.37,0.01l0.65,0.01c0.37,0.01,0.67,0.06,0.92,0.16c0.48,0.19,0.72,0.54,0.72,1.05
			c0,0.65-0.36,1.1-1.07,1.34c-0.38,0.13-0.85,0.19-1.42,0.19c-0.47,0-0.87-0.05-1.21-0.14c-0.56-0.15-0.84-0.41-0.84-0.78
			C12.27,67.55,12.32,67.41,12.44,67.26z M13.47,68.11c0.22,0.12,0.54,0.18,0.95,0.18c0.37,0,0.68-0.03,0.92-0.09
			c0.45-0.11,0.68-0.31,0.68-0.61c0-0.17-0.06-0.3-0.19-0.39c-0.13-0.09-0.36-0.13-0.7-0.13h-1.64c-0.1,0.08-0.18,0.16-0.22,0.21
			c-0.08,0.11-0.12,0.22-0.12,0.34C13.14,67.83,13.25,68,13.47,68.11z M13.82,64.29c0.1,0.29,0.28,0.44,0.56,0.44
			c0.25,0,0.42-0.11,0.52-0.33c0.09-0.22,0.14-0.54,0.14-0.96c0-0.45-0.05-0.77-0.15-0.98c-0.1-0.2-0.27-0.31-0.51-0.31
			c-0.26,0-0.44,0.11-0.53,0.33c-0.09,0.22-0.13,0.54-0.13,0.96C13.72,63.82,13.75,64.11,13.82,64.29z"/>
		<path class="st10" d="M17.88,62.52c0.43-0.46,0.96-0.7,1.61-0.7c0.66,0,1.2,0.24,1.62,0.71c0.42,0.47,0.63,1.05,0.63,1.72
			c0,0.67-0.21,1.24-0.62,1.72c-0.42,0.48-0.96,0.72-1.63,0.72c-0.65,0-1.19-0.23-1.61-0.7c-0.43-0.47-0.64-1.04-0.64-1.74
			C17.24,63.56,17.45,62.98,17.88,62.52z M18.81,65.72c0.11,0.43,0.34,0.65,0.68,0.65c0.32,0,0.53-0.17,0.63-0.5
			s0.15-0.87,0.15-1.62c0-0.74-0.05-1.28-0.16-1.61s-0.31-0.5-0.62-0.5c-0.34,0-0.56,0.22-0.68,0.65c-0.07,0.29-0.11,0.78-0.11,1.47
			C18.71,64.96,18.74,65.44,18.81,65.72z"/>
		<path class="st10" d="M22.17,62.39v-0.28c0.09-0.08,0.2-0.18,0.33-0.29c0.17-0.16,0.33-0.32,0.49-0.49
			c0.3-0.33,0.58-0.69,0.82-1.07h0.25v1.68h0.95v0.44h-0.95v3c0,0.14,0.02,0.26,0.06,0.35c0.06,0.15,0.17,0.22,0.32,0.22
			c0.13,0,0.24-0.05,0.33-0.14c0.09-0.09,0.18-0.22,0.26-0.38l0.24,0.12c-0.12,0.27-0.26,0.5-0.42,0.67
			c-0.29,0.3-0.63,0.45-1.05,0.45c-0.23,0-0.44-0.04-0.61-0.13c-0.34-0.17-0.51-0.48-0.51-0.92v-3.23H22.17z"/>
		<path class="st10" d="M30.19,61.95v0.24c-0.11,0.01-0.21,0.03-0.28,0.07s-0.11,0.11-0.11,0.23c0,0.04,0,0.08,0.01,0.11
			c0.01,0.04,0.03,0.09,0.06,0.17l0.77,1.95h0.03l0.64-1.64c0-0.02-0.03-0.12-0.08-0.3c-0.05-0.17-0.1-0.3-0.13-0.36
			c-0.05-0.09-0.1-0.15-0.15-0.17c-0.05-0.02-0.14-0.04-0.29-0.06v-0.24h2.33v0.24c-0.14,0.01-0.26,0.02-0.34,0.05
			c-0.09,0.03-0.13,0.09-0.13,0.17c0,0.05,0.01,0.11,0.02,0.17c0.01,0.06,0.03,0.15,0.07,0.26l0.6,1.79h-0.05l0.74-1.9
			c0.01-0.03,0.02-0.06,0.02-0.09c0.01-0.03,0.01-0.06,0.01-0.08c0-0.14-0.04-0.23-0.12-0.27c-0.08-0.04-0.2-0.07-0.36-0.08v-0.24
			h1.35v0.24c-0.12,0.02-0.21,0.06-0.28,0.12c-0.07,0.06-0.14,0.19-0.21,0.38l-1.55,3.99h-0.23l-1.03-3.08h-0.04l-1.19,3.08h-0.24
			l-1.47-3.73c-0.12-0.31-0.21-0.51-0.27-0.6c-0.06-0.09-0.16-0.14-0.29-0.17v-0.24H30.19z"/>
		<path class="st10" d="M35.92,64.54c0.43-0.26,1.11-0.53,2.03-0.79v-0.73c0-0.3-0.06-0.51-0.19-0.65s-0.35-0.21-0.66-0.21
			c-0.18,0-0.33,0.03-0.44,0.1c-0.12,0.07-0.17,0.15-0.17,0.25c0,0.04,0.01,0.07,0.02,0.1c0.01,0.03,0.03,0.05,0.06,0.08l0.06,0.07
			c0.05,0.06,0.08,0.12,0.11,0.18c0.03,0.07,0.04,0.14,0.04,0.21c0,0.19-0.06,0.33-0.19,0.44c-0.12,0.1-0.27,0.15-0.44,0.15
			c-0.19,0-0.35-0.06-0.49-0.17s-0.2-0.28-0.2-0.49c0-0.38,0.18-0.68,0.54-0.91c0.36-0.22,0.8-0.33,1.33-0.33
			c0.56,0,1.04,0.11,1.42,0.33c0.38,0.22,0.56,0.63,0.56,1.22v2.42c0,0.07,0.02,0.13,0.06,0.18c0.04,0.05,0.08,0.08,0.12,0.08
			c0.04,0,0.07-0.01,0.1-0.02s0.08-0.05,0.14-0.12l0.15,0.21c-0.19,0.23-0.41,0.39-0.65,0.48c-0.15,0.06-0.31,0.09-0.47,0.09
			c-0.3,0-0.51-0.09-0.65-0.26c-0.08-0.1-0.13-0.24-0.17-0.43c-0.28,0.28-0.59,0.47-0.93,0.58c-0.21,0.07-0.42,0.11-0.62,0.11
			c-0.27,0-0.53-0.09-0.76-0.26s-0.36-0.44-0.36-0.81C35.27,65.16,35.49,64.81,35.92,64.54z M37.66,65.83
			c0.08-0.06,0.17-0.15,0.28-0.27v-1.46c-0.27,0.06-0.5,0.17-0.7,0.31c-0.34,0.24-0.51,0.54-0.51,0.91c0,0.22,0.05,0.38,0.15,0.5
			c0.1,0.11,0.21,0.17,0.33,0.17C37.37,65.97,37.52,65.92,37.66,65.83z"/>
		<path class="st10" d="M40.26,65.03h0.28c0.1,0.48,0.28,0.81,0.54,1.01s0.54,0.29,0.82,0.29c0.26,0,0.44-0.06,0.56-0.17
			s0.18-0.27,0.18-0.46c0-0.18-0.06-0.33-0.19-0.46c-0.07-0.07-0.19-0.14-0.35-0.22l-0.74-0.36c-0.39-0.19-0.67-0.4-0.84-0.62
			c-0.17-0.22-0.26-0.49-0.26-0.79c0-0.39,0.13-0.72,0.4-1s0.65-0.42,1.13-0.42c0.21,0,0.44,0.03,0.67,0.1s0.38,0.1,0.44,0.1
			c0.08,0,0.14-0.02,0.17-0.05s0.06-0.08,0.09-0.14h0.22v1.44h-0.25c-0.09-0.34-0.25-0.61-0.46-0.81c-0.21-0.2-0.46-0.31-0.75-0.31
			c-0.22,0-0.39,0.06-0.49,0.19c-0.11,0.12-0.16,0.26-0.16,0.4c0,0.12,0.05,0.23,0.15,0.35c0.09,0.12,0.27,0.24,0.54,0.37l0.55,0.26
			c0.34,0.16,0.58,0.32,0.74,0.47c0.26,0.26,0.39,0.58,0.39,0.96c0,0.37-0.13,0.71-0.4,1.03c-0.27,0.32-0.67,0.48-1.2,0.48
			c-0.13,0-0.27-0.01-0.4-0.04c-0.13-0.03-0.3-0.08-0.5-0.14l-0.17-0.06c-0.06-0.02-0.1-0.04-0.11-0.04s-0.03,0-0.06,0
			c-0.06,0-0.1,0.02-0.14,0.07c-0.04,0.04-0.09,0.12-0.14,0.22h-0.24V65.03z"/>
		<path class="st10" d="M46.54,62.39v-0.28c0.09-0.08,0.2-0.18,0.33-0.29c0.17-0.16,0.33-0.32,0.49-0.49
			c0.3-0.33,0.58-0.69,0.82-1.07h0.25v1.68h0.95v0.44h-0.95v3c0,0.14,0.02,0.26,0.06,0.35c0.06,0.15,0.17,0.22,0.32,0.22
			c0.13,0,0.24-0.05,0.33-0.14c0.09-0.09,0.18-0.22,0.26-0.38l0.24,0.12c-0.12,0.27-0.26,0.5-0.42,0.67
			c-0.29,0.3-0.63,0.45-1.05,0.45c-0.23,0-0.44-0.04-0.61-0.13c-0.34-0.17-0.51-0.48-0.51-0.92v-3.23H46.54z"/>
		<path class="st10" d="M49.86,66.3c0.18-0.02,0.32-0.07,0.4-0.15c0.09-0.08,0.13-0.23,0.13-0.46v-5.08c0-0.2-0.04-0.34-0.11-0.42
			c-0.07-0.08-0.21-0.13-0.42-0.16V59.8h1.93v2.8c0.2-0.25,0.42-0.44,0.65-0.57s0.48-0.2,0.76-0.2c0.38,0,0.7,0.11,0.95,0.33
			c0.25,0.22,0.37,0.6,0.37,1.14v2.4c0,0.22,0.04,0.37,0.11,0.44c0.08,0.07,0.2,0.12,0.38,0.16v0.24h-2.34V66.3
			c0.18-0.04,0.3-0.08,0.36-0.15c0.06-0.06,0.1-0.2,0.1-0.42v-2.41c0-0.23-0.02-0.4-0.07-0.51c-0.08-0.2-0.23-0.31-0.46-0.31
			c-0.17,0-0.35,0.08-0.53,0.24c-0.18,0.16-0.27,0.27-0.27,0.33v2.67c0,0.22,0.03,0.36,0.1,0.42c0.06,0.06,0.19,0.11,0.36,0.15v0.24
			h-2.4V66.3z"/>
		<path class="st10" d="M55.4,66.3c0.18-0.03,0.3-0.07,0.36-0.13c0.1-0.09,0.15-0.25,0.15-0.47v-2.93c0-0.2-0.03-0.34-0.1-0.41
			c-0.07-0.07-0.2-0.13-0.4-0.16v-0.24h1.91v3.79c0,0.22,0.03,0.36,0.1,0.42c0.06,0.06,0.19,0.11,0.36,0.15v0.24H55.4V66.3z
			 M56.07,59.88c0.15-0.15,0.33-0.23,0.55-0.23c0.21,0,0.39,0.08,0.54,0.23s0.23,0.33,0.23,0.55c0,0.21-0.08,0.4-0.23,0.55
			s-0.33,0.23-0.54,0.23c-0.21,0-0.4-0.08-0.55-0.23s-0.23-0.33-0.23-0.55C55.84,60.21,55.92,60.03,56.07,59.88z"/>
		<path class="st10" d="M58.27,65.03h0.28c0.1,0.48,0.28,0.81,0.54,1.01s0.54,0.29,0.82,0.29c0.26,0,0.44-0.06,0.56-0.17
			s0.18-0.27,0.18-0.46c0-0.18-0.06-0.33-0.19-0.46c-0.07-0.07-0.19-0.14-0.35-0.22l-0.74-0.36c-0.39-0.19-0.67-0.4-0.84-0.62
			c-0.17-0.22-0.26-0.49-0.26-0.79c0-0.39,0.13-0.72,0.4-1s0.65-0.42,1.13-0.42c0.21,0,0.44,0.03,0.67,0.1s0.38,0.1,0.44,0.1
			c0.08,0,0.14-0.02,0.17-0.05s0.06-0.08,0.09-0.14h0.22v1.44h-0.25c-0.09-0.34-0.25-0.61-0.46-0.81c-0.21-0.2-0.46-0.31-0.75-0.31
			c-0.22,0-0.39,0.06-0.49,0.19c-0.11,0.12-0.16,0.26-0.16,0.4c0,0.12,0.05,0.23,0.15,0.35c0.09,0.12,0.27,0.24,0.54,0.37l0.55,0.26
			c0.34,0.16,0.58,0.32,0.74,0.47c0.26,0.26,0.39,0.58,0.39,0.96c0,0.37-0.13,0.71-0.4,1.03c-0.27,0.32-0.67,0.48-1.2,0.48
			c-0.13,0-0.27-0.01-0.4-0.04c-0.13-0.03-0.3-0.08-0.5-0.14l-0.17-0.06c-0.06-0.02-0.1-0.04-0.11-0.04s-0.03,0-0.06,0
			c-0.06,0-0.1,0.02-0.14,0.07c-0.04,0.04-0.09,0.12-0.14,0.22h-0.24V65.03z"/>
		<path class="st10" d="M66.48,59.8v2.58c0.16-0.15,0.3-0.27,0.43-0.34c0.24-0.14,0.51-0.21,0.79-0.21c0.56,0,1.01,0.22,1.36,0.66
			s0.51,0.98,0.51,1.62c0,0.82-0.22,1.46-0.65,1.91s-0.98,0.67-1.63,0.67c-0.27,0-0.5-0.05-0.71-0.16c-0.2-0.1-0.4-0.24-0.57-0.41
			l-0.78,0.56h-0.14v-6.06c0-0.21-0.04-0.35-0.11-0.42c-0.07-0.07-0.21-0.13-0.42-0.15V59.8H66.48z M66.59,66.02
			c0.12,0.23,0.31,0.34,0.58,0.34c0.34,0,0.58-0.18,0.72-0.54c0.14-0.36,0.21-0.87,0.21-1.53c0-0.52-0.06-0.97-0.19-1.35
			s-0.37-0.57-0.73-0.57c-0.21,0-0.39,0.08-0.51,0.24c-0.13,0.16-0.19,0.27-0.19,0.34v2.62C66.5,65.75,66.53,65.9,66.59,66.02z"/>
		<path class="st10" d="M71.97,61.95v3.38c0,0.2,0.02,0.35,0.07,0.44c0.08,0.17,0.25,0.25,0.5,0.25c0.16,0,0.31-0.05,0.47-0.15
			c0.09-0.06,0.2-0.15,0.33-0.28v-2.83c0-0.21-0.04-0.36-0.12-0.44c-0.08-0.08-0.25-0.13-0.5-0.14v-0.24h1.99v3.59
			c0,0.21,0.04,0.35,0.12,0.43c0.08,0.08,0.23,0.13,0.46,0.15v0.23c-0.62,0.06-1.01,0.1-1.17,0.13c-0.16,0.03-0.42,0.1-0.77,0.21
			v-0.66c-0.24,0.2-0.43,0.35-0.59,0.43c-0.27,0.15-0.56,0.22-0.85,0.22c-0.32,0-0.62-0.1-0.9-0.31c-0.28-0.2-0.42-0.57-0.42-1.09
			v-2.52c0-0.21-0.03-0.35-0.1-0.42c-0.07-0.07-0.2-0.12-0.39-0.16v-0.24H71.97z"/>
		<path class="st10" d="M75.63,62.39v-0.28c0.09-0.08,0.2-0.18,0.33-0.29c0.17-0.16,0.33-0.32,0.49-0.49
			c0.3-0.33,0.58-0.69,0.82-1.07h0.25v1.68h0.95v0.44h-0.95v3c0,0.14,0.02,0.26,0.06,0.35c0.06,0.15,0.17,0.22,0.32,0.22
			c0.13,0,0.24-0.05,0.33-0.14c0.09-0.09,0.18-0.22,0.26-0.38l0.24,0.12c-0.12,0.27-0.26,0.5-0.42,0.67
			c-0.29,0.3-0.63,0.45-1.05,0.45c-0.23,0-0.44-0.04-0.61-0.13c-0.34-0.17-0.51-0.48-0.51-0.92v-3.23H75.63z"/>
		<path class="st10" d="M78.96,62.39v-0.28c0.09-0.08,0.2-0.18,0.33-0.29c0.17-0.16,0.33-0.32,0.49-0.49
			c0.3-0.33,0.58-0.69,0.82-1.07h0.25v1.68h0.95v0.44h-0.95v3c0,0.14,0.02,0.26,0.06,0.35c0.06,0.15,0.17,0.22,0.32,0.22
			c0.13,0,0.24-0.05,0.33-0.14c0.09-0.09,0.18-0.22,0.26-0.38l0.24,0.12c-0.12,0.27-0.26,0.5-0.42,0.67
			c-0.29,0.3-0.63,0.45-1.05,0.45c-0.23,0-0.44-0.04-0.61-0.13c-0.34-0.17-0.51-0.48-0.51-0.92v-3.23H78.96z"/>
		<path class="st10" d="M82.97,62.52c0.43-0.46,0.96-0.7,1.61-0.7c0.66,0,1.2,0.24,1.62,0.71c0.42,0.47,0.63,1.05,0.63,1.72
			c0,0.67-0.21,1.24-0.62,1.72c-0.42,0.48-0.96,0.72-1.63,0.72c-0.65,0-1.19-0.23-1.61-0.7c-0.43-0.47-0.64-1.04-0.64-1.74
			C82.33,63.56,82.55,62.98,82.97,62.52z M83.91,65.72c0.11,0.43,0.34,0.65,0.68,0.65c0.32,0,0.53-0.17,0.63-0.5
			s0.15-0.87,0.15-1.62c0-0.74-0.05-1.28-0.16-1.61s-0.31-0.5-0.62-0.5c-0.34,0-0.56,0.22-0.68,0.65c-0.07,0.29-0.11,0.78-0.11,1.47
			C83.8,64.96,83.83,65.44,83.91,65.72z"/>
		<path class="st10" d="M87.26,66.3c0.18-0.02,0.32-0.07,0.4-0.15c0.09-0.08,0.13-0.23,0.13-0.46v-2.93c0-0.2-0.04-0.34-0.1-0.42
			c-0.07-0.08-0.21-0.13-0.43-0.16v-0.24h1.89v0.72c0.16-0.24,0.36-0.44,0.61-0.6c0.24-0.16,0.52-0.24,0.82-0.24
			c0.43,0,0.76,0.11,1,0.33c0.23,0.22,0.35,0.61,0.35,1.16v2.41c0,0.22,0.04,0.37,0.11,0.43c0.08,0.06,0.2,0.11,0.38,0.13v0.24
			h-2.34V66.3c0.18-0.04,0.3-0.08,0.36-0.15c0.06-0.06,0.1-0.2,0.1-0.42v-2.41c0-0.23-0.02-0.4-0.07-0.51
			c-0.08-0.2-0.23-0.31-0.46-0.31c-0.17,0-0.33,0.06-0.47,0.19s-0.26,0.25-0.33,0.38v2.67c0,0.22,0.03,0.36,0.1,0.42
			c0.06,0.06,0.19,0.11,0.36,0.15v0.24h-2.4V66.3z"/>
		<path class="st10" d="M93.68,65.24c0.16-0.16,0.36-0.25,0.6-0.25s0.43,0.08,0.6,0.25c0.16,0.16,0.25,0.36,0.25,0.6
			c0,0.23-0.08,0.43-0.25,0.6c-0.16,0.16-0.36,0.25-0.6,0.25s-0.43-0.08-0.6-0.25c-0.16-0.16-0.25-0.36-0.25-0.6
			C93.44,65.61,93.52,65.41,93.68,65.24z"/>
	</g>
</g>
</svg>
