<?xml version="1.0" encoding="utf-8"?>
<!-- Generator: Adobe Illustrator 26.5.0, SVG Export Plug-In . SVG Version: 6.00 Build 0)  -->
<svg version="1.1" id="Layer_1" xmlns="http://www.w3.org/2000/svg" xmlns:xlink="http://www.w3.org/1999/xlink" x="0px" y="0px"
	 viewBox="0 0 106.85 106.67" style="enable-background:new 0 0 106.85 106.67;" xml:space="preserve">
<style type="text/css">
	.st0{clip-path:url(#SVGID_00000054955024894500519900000008009267327521069236_);fill:#887976;}
	.st1{clip-path:url(#SVGID_00000054955024894500519900000008009267327521069236_);}
	.st2{fill:#081F40;}
	.st3{clip-path:url(#SVGID_00000005968333391110057270000010628822587343331249_);fill:#A51D31;}
	.st4{clip-path:url(#SVGID_00000005968333391110057270000010628822587343331249_);fill:#FFFFFF;}
	.st5{clip-path:url(#SVGID_00000042724257627129072300000013078280808881843374_);fill:#FFFFFF;}
	.st6{clip-path:url(#SVGID_00000042724257627129072300000013078280808881843374_);}
	.st7{fill:#0E2346;}
	.st8{clip-path:url(#SVGID_00000136383934928256727190000010895096497863668379_);fill:#643D18;}
	.st9{clip-path:url(#SVGID_00000136383934928256727190000010895096497863668379_);}
	.st10{fill:#FFFFFF;}
	.st11{clip-path:url(#SVGID_00000145018133704001572220000001655392211249022108_);fill:#1E2758;}
	.st12{clip-path:url(#SVGID_00000145018133704001572220000001655392211249022108_);}
	.st13{fill:#EB1C2D;}
	.st14{clip-path:url(#SVGID_00000140730777801256353420000003497989979241400994_);fill:#0D4E91;}
	.st15{clip-path:url(#SVGID_00000140730777801256353420000003497989979241400994_);}
	.st16{clip-path:url(#SVGID_00000106844194728228523090000012156722727921726107_);fill:#672A7A;}
	.st17{clip-path:url(#SVGID_00000106844194728228523090000012156722727921726107_);fill:#F9F186;}
	
		.st18{clip-path:url(#SVGID_00000106844194728228523090000012156722727921726107_);fill:none;stroke:#000000;stroke-width:1.069;stroke-miterlimit:10;}
	.st19{clip-path:url(#SVGID_00000106844194728228523090000012156722727921726107_);fill:#F5EC3B;}
	.st20{clip-path:url(#SVGID_00000070798328764715167260000012819566015098496941_);fill:#E77625;}
	.st21{clip-path:url(#SVGID_00000070798328764715167260000012819566015098496941_);}
	.st22{clip-path:url(#SVGID_00000083074335792770455670000012580043382204071834_);fill:#D8272D;}
	.st23{clip-path:url(#SVGID_00000083074335792770455670000012580043382204071834_);}
	.st24{clip-path:url(#SVGID_00000041268242156202271170000006939436378956605615_);fill:#00954C;}
	.st25{clip-path:url(#SVGID_00000041268242156202271170000006939436378956605615_);}
	.st26{clip-path:url(#SVGID_00000130638581594595785290000007151526691867731377_);fill:#42B4E4;}
	.st27{clip-path:url(#SVGID_00000130638581594595785290000007151526691867731377_);}
	.st28{clip-path:url(#SVGID_00000088847078687385927990000008337833736395230132_);}
</style>
<g>
	<defs>
		<path id="SVGID_00000111887939672896005660000004118685706748356769_" d="M106.85,53.33c0,29.44-23.93,53.33-53.43,53.33
			S0,82.77,0,53.33S23.94,0,53.43,0S106.85,23.89,106.85,53.33z"/>
	</defs>
	<clipPath id="SVGID_00000044864935501129987950000004312115421985230752_">
		<use xlink:href="#SVGID_00000111887939672896005660000004118685706748356769_"  style="overflow:visible;"/>
	</clipPath>
	<path style="clip-path:url(#SVGID_00000044864935501129987950000004312115421985230752_);fill:#A51D31;" d="M53.43,115.53
		c34.37,0,62.23-27.86,62.23-62.22c0-34.37-27.86-62.23-62.23-62.23C19.06-8.92-8.8,18.94-8.8,53.3
		C-8.8,87.67,19.06,115.53,53.43,115.53"/>
	<path style="clip-path:url(#SVGID_00000044864935501129987950000004312115421985230752_);fill:#FFFFFF;" d="M53.42,53.65
		c0.39-0.38,0.8-0.67,1.25-0.86c0.44-0.19,0.92-0.28,1.43-0.28c0.91,0,1.56,0.26,1.96,0.77c0.3,0.38,0.48,0.97,0.54,1.77
		c0.03,0.65,0.06,1.31,0.09,1.97c0.08,0.86,0.14,1.38,0.16,1.56c0.07,0.59,0.16,1.11,0.27,1.55c0.03,0.11,0.04,0.21,0.04,0.3
		c0,0.3-0.11,0.54-0.34,0.74c-0.23,0.19-0.49,0.29-0.79,0.29c-0.54,0-0.89-0.27-1.05-0.8c-0.13-0.43-0.24-1.04-0.35-1.82
		c-0.1-0.75-0.14-1.37-0.14-1.85c0-0.13,0.01-0.33,0.02-0.6c0.01-0.27,0.02-0.47,0.02-0.6c0-0.4-0.01-0.62-0.02-0.69
		c-0.05-0.29-0.19-0.44-0.41-0.44c-0.59,0-1.13,0.27-1.6,0.81c-0.24,0.27-0.58,0.79-1.01,1.55c0,1.93-0.09,3.09-0.28,3.48
		c-0.21,0.44-0.54,0.65-0.99,0.65c-0.3,0-0.56-0.1-0.79-0.3c-0.23-0.2-0.35-0.45-0.35-0.74c0-0.1,0.03-0.24,0.09-0.42
		c0.04-0.12,0.07-0.84,0.1-2.15c-0.03-1.07-0.02-2.85,0.02-5.34l0.02-0.26c0.03-0.63,0.05-1.05,0.05-1.26
		c0-0.17-0.03-0.41-0.08-0.73c-0.05-0.32-0.08-0.57-0.08-0.73c0-0.3,0.11-0.55,0.33-0.75c0.22-0.19,0.48-0.29,0.79-0.29
		c0.53,0,0.88,0.28,1.06,0.85c0.1,0.32,0.15,0.81,0.15,1.47c0,0.53-0.02,1.07-0.05,1.62C53.43,52.62,53.42,53.13,53.42,53.65"/>
</g>
</svg>
