<?xml version="1.0" encoding="utf-8"?>
<!-- Generator: Adobe Illustrator 26.5.0, SVG Export Plug-In . SVG Version: 6.00 Build 0)  -->
<svg version="1.1" id="Layer_1" xmlns="http://www.w3.org/2000/svg" xmlns:xlink="http://www.w3.org/1999/xlink" x="0px" y="0px"
	 viewBox="0 0 107.04 106.85" style="enable-background:new 0 0 107.04 106.85;" xml:space="preserve">
<style type="text/css">
	.st0{clip-path:url(#SVGID_00000113323842090202050170000010334580259332827788_);fill:#887976;}
	.st1{clip-path:url(#SVGID_00000113323842090202050170000010334580259332827788_);}
	.st2{fill:#081F40;}
	.st3{clip-path:url(#SVGID_00000034057087268730530590000007683694713471997601_);fill:#A51D31;}
	.st4{clip-path:url(#SVGID_00000034057087268730530590000007683694713471997601_);fill:#FFFFFF;}
	.st5{clip-path:url(#SVGID_00000012457602704841144020000015600089119796300168_);fill:#FFFFFF;}
	.st6{clip-path:url(#SVGID_00000012457602704841144020000015600089119796300168_);}
	.st7{fill:#0E2346;}
	.st8{clip-path:url(#SVGID_00000021829187905170925690000004554085567748857016_);fill:#643D18;}
	.st9{clip-path:url(#SVGID_00000021829187905170925690000004554085567748857016_);}
	.st10{fill:#FFFFFF;}
	.st11{clip-path:url(#SVGID_00000168825211534864738540000017820232158236891780_);fill:#1E2758;}
	.st12{clip-path:url(#SVGID_00000168825211534864738540000017820232158236891780_);}
	.st13{fill:#EB1C2D;}
	.st14{clip-path:url(#SVGID_00000004513310056296473200000001466651700958555784_);fill:#0D4E91;}
	.st15{clip-path:url(#SVGID_00000004513310056296473200000001466651700958555784_);}
	.st16{clip-path:url(#SVGID_00000134239139595333456870000015012365289123412925_);fill:#672A7A;}
	.st17{clip-path:url(#SVGID_00000134239139595333456870000015012365289123412925_);fill:#F9F186;}
	
		.st18{clip-path:url(#SVGID_00000134239139595333456870000015012365289123412925_);fill:none;stroke:#000000;stroke-width:1.069;stroke-miterlimit:10;}
	.st19{clip-path:url(#SVGID_00000134239139595333456870000015012365289123412925_);fill:#F5EC3B;}
	.st20{clip-path:url(#SVGID_00000086678070313456720150000014588854271679874966_);fill:#E77625;}
	.st21{clip-path:url(#SVGID_00000086678070313456720150000014588854271679874966_);}
	.st22{clip-path:url(#SVGID_00000129176913622987562800000000048139639167429286_);fill:#D8272D;}
	.st23{clip-path:url(#SVGID_00000129176913622987562800000000048139639167429286_);}
	.st24{clip-path:url(#SVGID_00000163045814823947519640000009567445944538520235_);fill:#00954C;}
	.st25{clip-path:url(#SVGID_00000163045814823947519640000009567445944538520235_);}
	.st26{clip-path:url(#SVGID_00000121974571622294591670000014578043268537914776_);fill:#42B4E4;}
	.st27{clip-path:url(#SVGID_00000121974571622294591670000014578043268537914776_);}
	.st28{clip-path:url(#SVGID_00000087401331328681304560000009150262108864359615_);}
</style>
<g>
	<defs>
		<ellipse id="SVGID_00000031169704138171724410000005384196315180315022_" cx="53.52" cy="53.43" rx="53.52" ry="53.43"/>
	</defs>
	<clipPath id="SVGID_00000133500206132010350770000013267605919976781492_">
		<use xlink:href="#SVGID_00000031169704138171724410000005384196315180315022_"  style="overflow:visible;"/>
	</clipPath>
	<path style="clip-path:url(#SVGID_00000133500206132010350770000013267605919976781492_);" d="M53.52,115.66
		c34.36,0,62.23-27.86,62.23-62.22c0-34.37-27.86-62.23-62.23-62.23S-8.7,19.06-8.7,53.43C-8.7,87.8,19.16,115.66,53.52,115.66"/>
	<g style="clip-path:url(#SVGID_00000133500206132010350770000013267605919976781492_);">
		<path class="st10" d="M8.76,47.37h6.27l0.01,2.1h-0.3c-0.1-0.75-0.38-1.26-0.84-1.53c-0.26-0.15-0.65-0.23-1.17-0.24v5.49
			c0,0.38,0.07,0.64,0.2,0.76c0.13,0.13,0.41,0.19,0.84,0.19v0.26h-3.71v-0.26c0.41,0,0.68-0.06,0.81-0.19
			c0.13-0.13,0.2-0.38,0.2-0.76V47.7c-0.51,0.01-0.9,0.09-1.17,0.24c-0.5,0.27-0.78,0.78-0.84,1.53h-0.3L8.76,47.37z"/>
		<path class="st10" d="M15.61,54.16c0.19-0.02,0.33-0.08,0.42-0.16s0.13-0.24,0.13-0.48v-5.31c0-0.21-0.04-0.35-0.11-0.44
			c-0.07-0.08-0.22-0.14-0.44-0.17v-0.25h2.01v2.93c0.21-0.26,0.44-0.46,0.67-0.6c0.24-0.14,0.5-0.21,0.8-0.21
			c0.4,0,0.73,0.12,0.99,0.35c0.26,0.23,0.39,0.63,0.39,1.19v2.5c0,0.23,0.04,0.39,0.12,0.46c0.08,0.07,0.21,0.13,0.4,0.17v0.25
			h-2.45v-0.25c0.19-0.04,0.31-0.09,0.38-0.15s0.1-0.21,0.1-0.44v-2.52c0-0.24-0.02-0.42-0.07-0.53c-0.08-0.21-0.24-0.32-0.48-0.32
			c-0.18,0-0.37,0.08-0.56,0.25c-0.19,0.17-0.29,0.28-0.29,0.34v2.79c0,0.23,0.03,0.37,0.1,0.44s0.2,0.12,0.38,0.15v0.25h-2.51
			V54.16z"/>
		<path class="st10" d="M22.1,50.15c0.43-0.44,0.94-0.66,1.54-0.66c0.34,0,0.67,0.09,0.97,0.27c0.3,0.18,0.54,0.43,0.7,0.75
			c0.12,0.24,0.21,0.55,0.25,0.94c0.02,0.18,0.04,0.32,0.04,0.41h-2.66c0.02,0.42,0.09,0.78,0.2,1.08c0.2,0.57,0.56,0.86,1.08,0.86
			c0.24,0,0.48-0.08,0.69-0.23c0.13-0.09,0.3-0.25,0.49-0.46l0.24,0.15c-0.32,0.53-0.7,0.9-1.12,1.1c-0.28,0.13-0.59,0.2-0.95,0.2
			c-0.51,0-0.99-0.2-1.44-0.61s-0.67-1.05-0.67-1.93C21.46,51.22,21.67,50.59,22.1,50.15z M24.31,51.47
			c-0.01-0.61-0.05-1.04-0.14-1.29s-0.27-0.37-0.53-0.37c-0.27,0-0.46,0.14-0.56,0.42s-0.16,0.69-0.17,1.23H24.31z"/>
		<path class="st10" d="M33.8,47.48c0.44,0.16,0.69,0.24,0.74,0.24c0.13,0,0.24-0.05,0.32-0.15c0.08-0.1,0.13-0.21,0.15-0.32h0.29
			v2.44h-0.26c-0.25-0.53-0.51-0.95-0.77-1.25c-0.49-0.56-1.04-0.84-1.66-0.84c-0.7,0-1.19,0.3-1.49,0.9
			c-0.29,0.6-0.44,1.41-0.44,2.42c0,0.75,0.09,1.36,0.26,1.84c0.32,0.9,0.92,1.35,1.79,1.35c0.54,0,1.03-0.15,1.49-0.45
			c0.26-0.17,0.58-0.45,0.93-0.83l0.31,0.25c-0.41,0.45-0.76,0.78-1.07,0.99c-0.55,0.36-1.16,0.54-1.83,0.54
			c-1.03,0-1.89-0.31-2.58-0.92c-0.77-0.67-1.15-1.58-1.15-2.73c0-1.13,0.37-2.05,1.1-2.75c0.69-0.66,1.54-0.99,2.54-0.99
			C32.92,47.24,33.36,47.32,33.8,47.48z"/>
		<path class="st10" d="M38.11,49.61v3.54c0,0.21,0.03,0.37,0.08,0.46c0.09,0.17,0.26,0.26,0.52,0.26c0.17,0,0.33-0.05,0.49-0.16
			c0.09-0.06,0.21-0.15,0.35-0.29v-2.96c0-0.22-0.04-0.37-0.13-0.46c-0.09-0.09-0.26-0.14-0.52-0.15v-0.25h2.08v3.75
			c0,0.22,0.04,0.36,0.12,0.45c0.08,0.08,0.24,0.13,0.48,0.15v0.24c-0.64,0.06-1.05,0.11-1.22,0.13c-0.17,0.03-0.44,0.1-0.81,0.22
			v-0.69c-0.25,0.21-0.45,0.36-0.62,0.45c-0.29,0.16-0.58,0.23-0.89,0.23c-0.33,0-0.65-0.11-0.94-0.32
			c-0.29-0.21-0.43-0.59-0.43-1.14v-2.63c0-0.22-0.04-0.37-0.11-0.44c-0.07-0.07-0.21-0.12-0.41-0.17v-0.25H38.11z"/>
		<path class="st10" d="M41.94,50.07v-0.29c0.09-0.08,0.21-0.18,0.34-0.3c0.18-0.17,0.35-0.34,0.51-0.51
			c0.32-0.35,0.6-0.72,0.86-1.11h0.26v1.76h0.99v0.46h-0.99v3.13c0,0.15,0.02,0.27,0.07,0.37c0.07,0.15,0.18,0.23,0.34,0.23
			c0.14,0,0.25-0.05,0.34-0.14c0.09-0.1,0.18-0.23,0.27-0.4l0.25,0.12c-0.12,0.28-0.27,0.52-0.44,0.7c-0.3,0.32-0.66,0.47-1.09,0.47
			c-0.24,0-0.46-0.05-0.64-0.14c-0.35-0.18-0.53-0.5-0.53-0.96v-3.38H41.94z"/>
		<path class="st10" d="M45.41,50.07v-0.29c0.09-0.08,0.21-0.18,0.34-0.3c0.18-0.17,0.35-0.34,0.51-0.51
			c0.32-0.35,0.6-0.72,0.86-1.11h0.26v1.76h0.99v0.46h-0.99v3.13c0,0.15,0.02,0.27,0.07,0.37c0.07,0.15,0.18,0.23,0.34,0.23
			c0.14,0,0.25-0.05,0.34-0.14c0.09-0.1,0.18-0.23,0.27-0.4l0.25,0.12c-0.12,0.28-0.27,0.52-0.44,0.7c-0.3,0.32-0.66,0.47-1.09,0.47
			c-0.24,0-0.46-0.05-0.64-0.14c-0.35-0.18-0.53-0.5-0.53-0.96v-3.38H45.41z"/>
		<path class="st10" d="M48.88,54.16c0.18-0.03,0.31-0.08,0.38-0.14c0.1-0.09,0.15-0.26,0.15-0.49v-3.06c0-0.21-0.04-0.36-0.11-0.43
			c-0.07-0.08-0.21-0.13-0.42-0.17v-0.25h2v3.96c0,0.23,0.03,0.37,0.1,0.44c0.07,0.06,0.2,0.12,0.38,0.15v0.25h-2.48V54.16z
			 M49.58,47.45c0.16-0.16,0.35-0.24,0.57-0.24c0.22,0,0.41,0.08,0.57,0.24c0.16,0.16,0.24,0.35,0.24,0.57s-0.08,0.42-0.24,0.57
			c-0.16,0.16-0.35,0.24-0.57,0.24c-0.22,0-0.42-0.08-0.57-0.24c-0.16-0.16-0.24-0.35-0.24-0.57S49.42,47.6,49.58,47.45z"/>
		<path class="st10" d="M51.77,54.16c0.19-0.02,0.33-0.08,0.42-0.16s0.13-0.24,0.13-0.48v-3.06c0-0.21-0.04-0.36-0.11-0.44
			c-0.07-0.08-0.22-0.14-0.45-0.16v-0.25h1.97v0.75c0.17-0.25,0.38-0.46,0.63-0.62s0.54-0.25,0.85-0.25c0.45,0,0.79,0.12,1.04,0.35
			c0.25,0.23,0.37,0.64,0.37,1.21v2.52c0,0.23,0.04,0.38,0.12,0.45c0.08,0.07,0.21,0.11,0.4,0.14v0.25h-2.45v-0.25
			c0.19-0.04,0.31-0.09,0.38-0.15s0.1-0.21,0.1-0.44v-2.52c0-0.24-0.02-0.42-0.07-0.53c-0.08-0.21-0.24-0.32-0.48-0.32
			c-0.18,0-0.34,0.07-0.5,0.2c-0.15,0.13-0.27,0.26-0.35,0.39v2.79c0,0.23,0.03,0.37,0.1,0.44s0.2,0.12,0.38,0.15v0.25h-2.51V54.16z
			"/>
		<path class="st10" d="M57.83,55.15c0.12-0.16,0.34-0.26,0.64-0.31v-0.07c-0.2-0.08-0.35-0.16-0.44-0.24
			c-0.16-0.15-0.24-0.34-0.24-0.58c0-0.29,0.13-0.54,0.38-0.75c0.26-0.21,0.51-0.35,0.75-0.43V52.7c-0.35-0.14-0.64-0.35-0.85-0.61
			s-0.33-0.58-0.33-0.96c0-0.48,0.19-0.87,0.57-1.18s0.89-0.46,1.54-0.46c0.24,0,0.47,0.02,0.67,0.07c0.2,0.05,0.36,0.1,0.47,0.15
			h1.37v0.55h-0.84c0.14,0.13,0.24,0.29,0.31,0.46c0.07,0.18,0.11,0.37,0.11,0.58c0,0.65-0.31,1.1-0.93,1.34
			c-0.33,0.13-0.73,0.19-1.22,0.19c-0.1,0-0.17,0-0.21,0c-0.03,0-0.08,0-0.14,0c-0.1,0.02-0.21,0.07-0.32,0.16
			c-0.12,0.09-0.17,0.21-0.17,0.34c0,0.1,0.03,0.19,0.09,0.24s0.14,0.09,0.24,0.11c0.05,0.01,0.16,0.01,0.33,0.02
			s0.29,0.01,0.39,0.01l0.68,0.01c0.38,0.01,0.71,0.06,0.97,0.17c0.5,0.2,0.75,0.57,0.75,1.09c0,0.68-0.37,1.14-1.12,1.4
			c-0.39,0.13-0.89,0.2-1.49,0.2c-0.49,0-0.91-0.05-1.26-0.14c-0.58-0.16-0.88-0.43-0.88-0.81C57.64,55.46,57.7,55.31,57.83,55.15z
			 M58.9,56.05c0.23,0.12,0.56,0.18,0.99,0.18c0.39,0,0.71-0.03,0.96-0.09c0.47-0.12,0.71-0.33,0.71-0.64c0-0.18-0.07-0.32-0.2-0.41
			c-0.13-0.09-0.38-0.13-0.73-0.13h-1.71c-0.11,0.09-0.19,0.16-0.23,0.22c-0.08,0.11-0.13,0.23-0.13,0.36
			C58.55,55.76,58.67,55.93,58.9,56.05z M59.26,52.06c0.1,0.3,0.3,0.46,0.58,0.46c0.26,0,0.44-0.11,0.54-0.34
			c0.1-0.23,0.15-0.56,0.15-1c0-0.47-0.05-0.81-0.15-1.02c-0.1-0.21-0.28-0.32-0.53-0.32c-0.27,0-0.46,0.11-0.55,0.34
			c-0.09,0.23-0.14,0.56-0.14,1C59.16,51.57,59.19,51.86,59.26,52.06z"/>
		<path class="st10" d="M65.38,54.41v-0.26c0.3-0.01,0.51-0.05,0.64-0.12c0.19-0.11,0.29-0.31,0.29-0.61v-5.05
			c0-0.3-0.1-0.51-0.3-0.61c-0.12-0.06-0.32-0.1-0.63-0.12v-0.26h6v2.1h-0.25c-0.13-0.67-0.36-1.13-0.67-1.38
			c-0.32-0.25-0.89-0.37-1.73-0.37c-0.32,0-0.52,0.03-0.61,0.1c-0.09,0.07-0.13,0.2-0.13,0.39v2.41c0.59,0.01,1-0.1,1.21-0.32
			c0.21-0.22,0.37-0.63,0.48-1.22h0.26v3.52h-0.26c-0.08-0.59-0.23-1.01-0.46-1.25c-0.23-0.24-0.64-0.36-1.23-0.36v2.52
			c0,0.22,0.06,0.37,0.17,0.45c0.11,0.08,0.35,0.12,0.7,0.12c0.67,0,1.21-0.13,1.63-0.39s0.79-0.74,1.12-1.45h0.29l-0.42,2.17H65.38
			z"/>
		<path class="st10" d="M73.01,50.2c0.39-0.48,0.86-0.71,1.41-0.71c0.27,0,0.52,0.07,0.73,0.2c0.13,0.08,0.3,0.23,0.5,0.44v-1.91
			c0-0.26-0.05-0.43-0.15-0.49s-0.31-0.1-0.63-0.12v-0.25h2.24v6c0,0.22,0.04,0.36,0.12,0.45c0.08,0.08,0.24,0.13,0.48,0.15v0.24
			c-0.58,0.06-0.96,0.1-1.13,0.13c-0.17,0.03-0.47,0.1-0.89,0.22v-0.69c-0.2,0.2-0.38,0.35-0.54,0.45
			c-0.26,0.16-0.54,0.23-0.83,0.23c-0.51,0-0.95-0.21-1.33-0.65s-0.56-1.02-0.56-1.75C72.43,51.33,72.62,50.68,73.01,50.2z
			 M75.39,53.66c0.18-0.2,0.27-0.34,0.27-0.42v-2.53c0-0.08-0.08-0.21-0.23-0.38s-0.36-0.25-0.61-0.25c-0.37,0-0.62,0.26-0.75,0.77
			c-0.07,0.28-0.11,0.66-0.11,1.17c0,0.54,0.03,0.94,0.1,1.21c0.13,0.49,0.37,0.74,0.72,0.74C75.01,53.96,75.21,53.86,75.39,53.66z"
			/>
		<path class="st10" d="M78.38,55.15c0.12-0.16,0.34-0.26,0.64-0.31v-0.07c-0.2-0.08-0.35-0.16-0.44-0.24
			c-0.16-0.15-0.24-0.34-0.24-0.58c0-0.29,0.13-0.54,0.38-0.75c0.26-0.21,0.51-0.35,0.75-0.43V52.7c-0.35-0.14-0.64-0.35-0.85-0.61
			s-0.33-0.58-0.33-0.96c0-0.48,0.19-0.87,0.57-1.18s0.89-0.46,1.54-0.46c0.24,0,0.47,0.02,0.67,0.07c0.2,0.05,0.36,0.1,0.47,0.15
			h1.37v0.55h-0.84c0.14,0.13,0.24,0.29,0.31,0.46c0.07,0.18,0.11,0.37,0.11,0.58c0,0.65-0.31,1.1-0.93,1.34
			c-0.33,0.13-0.73,0.19-1.22,0.19c-0.1,0-0.17,0-0.21,0c-0.03,0-0.08,0-0.14,0c-0.1,0.02-0.21,0.07-0.32,0.16
			c-0.12,0.09-0.17,0.21-0.17,0.34c0,0.1,0.03,0.19,0.09,0.24s0.14,0.09,0.24,0.11c0.05,0.01,0.16,0.01,0.33,0.02
			s0.29,0.01,0.39,0.01l0.68,0.01c0.38,0.01,0.71,0.06,0.97,0.17c0.5,0.2,0.75,0.57,0.75,1.09c0,0.68-0.37,1.14-1.12,1.4
			c-0.39,0.13-0.89,0.2-1.49,0.2c-0.49,0-0.91-0.05-1.26-0.14c-0.58-0.16-0.88-0.43-0.88-0.81C78.19,55.46,78.25,55.31,78.38,55.15z
			 M79.45,56.05c0.23,0.12,0.56,0.18,0.99,0.18c0.39,0,0.71-0.03,0.96-0.09c0.47-0.12,0.71-0.33,0.71-0.64
			c0-0.18-0.07-0.32-0.2-0.41c-0.13-0.09-0.38-0.13-0.73-0.13h-1.71c-0.11,0.09-0.19,0.16-0.23,0.22c-0.08,0.11-0.13,0.23-0.13,0.36
			C79.11,55.76,79.22,55.93,79.45,56.05z M79.82,52.06c0.1,0.3,0.3,0.46,0.58,0.46c0.26,0,0.44-0.11,0.54-0.34
			c0.1-0.23,0.15-0.56,0.15-1c0-0.47-0.05-0.81-0.15-1.02c-0.1-0.21-0.28-0.32-0.53-0.32c-0.27,0-0.46,0.11-0.55,0.34
			c-0.09,0.23-0.14,0.56-0.14,1C79.71,51.57,79.75,51.86,79.82,52.06z"/>
		<path class="st10" d="M84.03,50.15c0.43-0.44,0.94-0.66,1.54-0.66c0.34,0,0.67,0.09,0.97,0.27c0.3,0.18,0.54,0.43,0.7,0.75
			c0.12,0.24,0.21,0.55,0.25,0.94c0.02,0.18,0.04,0.32,0.04,0.41h-2.66c0.02,0.42,0.09,0.78,0.2,1.08c0.2,0.57,0.56,0.86,1.08,0.86
			c0.24,0,0.48-0.08,0.69-0.23c0.13-0.09,0.3-0.25,0.49-0.46l0.24,0.15c-0.32,0.53-0.7,0.9-1.12,1.1c-0.28,0.13-0.59,0.2-0.95,0.2
			c-0.51,0-0.99-0.2-1.44-0.61s-0.67-1.05-0.67-1.93C83.39,51.22,83.6,50.59,84.03,50.15z M86.25,51.47
			c-0.01-0.61-0.05-1.04-0.14-1.29s-0.27-0.37-0.53-0.37c-0.27,0-0.46,0.14-0.56,0.42s-0.16,0.69-0.17,1.23H86.25z"/>
		<path class="st10" d="M90.67,51.58c0.03-0.05,0.12-0.18,0.28-0.4l1.08-1.54l1.4-1.85l0.42-0.54h0.83v4.52h0.65v1.16h-0.65v1.49
			h-1.51v-1.49h-2.59v-1.18C90.61,51.68,90.63,51.63,90.67,51.58z M93.17,51.76v-2.89h-0.06l-2.04,2.79v0.1H93.17z"/>
		<path class="st10" d="M96.69,49.74c0.17-0.17,0.38-0.26,0.62-0.26c0.24,0,0.45,0.09,0.62,0.26s0.26,0.38,0.26,0.62
			c0,0.24-0.09,0.45-0.26,0.62c-0.17,0.17-0.38,0.26-0.62,0.26s-0.45-0.09-0.62-0.26c-0.17-0.17-0.26-0.38-0.26-0.62
			S96.52,49.92,96.69,49.74z M96.69,53.05c0.17-0.17,0.38-0.26,0.62-0.26s0.45,0.09,0.62,0.26s0.26,0.38,0.26,0.62
			s-0.09,0.45-0.26,0.62s-0.38,0.26-0.62,0.26s-0.45-0.09-0.62-0.26s-0.26-0.38-0.26-0.62S96.51,53.22,96.69,53.05z"/>
	</g>
	<g style="clip-path:url(#SVGID_00000133500206132010350770000013267605919976781492_);">
		<path class="st10" d="M16.09,64.51c0.28-0.01,0.48-0.05,0.61-0.11C16.9,64.29,17,64.08,17,63.78v-5.05c0-0.3-0.1-0.51-0.29-0.61
			c-0.12-0.06-0.32-0.1-0.63-0.12v-0.26h3.22c0.62,0,1.14,0.07,1.55,0.21c0.77,0.27,1.16,0.76,1.16,1.46c0,0.43-0.16,0.77-0.47,1.03
			c-0.31,0.25-0.65,0.41-1.02,0.48v0.1c0.39,0.07,0.72,0.2,1.01,0.38c0.56,0.35,0.83,0.83,0.83,1.45c0,0.58-0.27,1.04-0.8,1.4
			c-0.53,0.36-1.24,0.54-2.13,0.54h-3.35V64.51z M19.96,60.58c0.22-0.21,0.33-0.58,0.33-1.12c0-0.4-0.07-0.73-0.22-1
			c-0.14-0.27-0.42-0.41-0.83-0.41c-0.22,0-0.37,0.04-0.45,0.11c-0.08,0.07-0.13,0.21-0.13,0.39v2.34
			C19.31,60.89,19.74,60.79,19.96,60.58z M18.75,64.21c0.08,0.15,0.25,0.22,0.49,0.22c0.49,0,0.84-0.13,1.04-0.4s0.3-0.65,0.3-1.14
			c0-0.74-0.22-1.23-0.66-1.48c-0.26-0.15-0.68-0.22-1.25-0.21v2.6C18.67,63.99,18.7,64.13,18.75,64.21z"/>
		<path class="st10" d="M23.06,64.52c0.2-0.02,0.34-0.07,0.42-0.14s0.12-0.21,0.13-0.41l0.01-0.3v-2.83c0-0.22-0.04-0.37-0.11-0.45
			c-0.08-0.08-0.22-0.13-0.44-0.16v-0.25h1.97v0.82c0.22-0.29,0.44-0.52,0.66-0.69c0.22-0.17,0.47-0.25,0.75-0.25
			c0.21,0,0.41,0.07,0.58,0.21c0.17,0.14,0.26,0.34,0.26,0.6c0,0.2-0.06,0.37-0.18,0.5c-0.12,0.13-0.28,0.2-0.47,0.2
			c-0.22,0-0.41-0.1-0.57-0.31c-0.16-0.21-0.27-0.31-0.34-0.31c-0.14,0-0.28,0.09-0.42,0.26c-0.14,0.17-0.21,0.42-0.21,0.74v1.97
			c0,0.34,0.05,0.56,0.15,0.64c0.1,0.09,0.3,0.14,0.6,0.17v0.25h-2.77V64.52z"/>
		<path class="st10" d="M29.62,59.98v3.54c0,0.21,0.03,0.37,0.08,0.46c0.09,0.17,0.26,0.26,0.52,0.26c0.17,0,0.33-0.05,0.49-0.16
			c0.09-0.06,0.21-0.15,0.35-0.29v-2.96c0-0.22-0.04-0.37-0.13-0.46c-0.09-0.09-0.26-0.14-0.52-0.15v-0.25h2.08v3.75
			c0,0.22,0.04,0.36,0.12,0.45c0.08,0.08,0.24,0.13,0.48,0.15v0.24c-0.64,0.06-1.05,0.11-1.22,0.13c-0.17,0.03-0.44,0.1-0.81,0.22
			v-0.69c-0.25,0.21-0.45,0.36-0.62,0.45c-0.29,0.16-0.58,0.23-0.89,0.23c-0.33,0-0.65-0.11-0.94-0.32
			c-0.29-0.21-0.43-0.59-0.43-1.14v-2.63c0-0.22-0.04-0.37-0.11-0.44c-0.07-0.07-0.21-0.12-0.41-0.17v-0.25H29.62z"/>
		<path class="st10" d="M33.45,64.52c0.19-0.02,0.33-0.08,0.42-0.16s0.13-0.24,0.13-0.48v-3.06c0-0.21-0.04-0.36-0.11-0.44
			c-0.07-0.08-0.22-0.14-0.45-0.16v-0.25h1.97v0.75c0.17-0.25,0.38-0.46,0.63-0.62s0.54-0.25,0.85-0.25c0.45,0,0.79,0.12,1.04,0.35
			c0.25,0.23,0.37,0.64,0.37,1.21v2.52c0,0.23,0.04,0.38,0.12,0.45c0.08,0.07,0.21,0.11,0.4,0.14v0.25h-2.45v-0.25
			c0.19-0.04,0.31-0.09,0.38-0.15s0.1-0.21,0.1-0.44v-2.52c0-0.24-0.02-0.42-0.07-0.53c-0.08-0.21-0.24-0.32-0.48-0.32
			c-0.18,0-0.34,0.07-0.5,0.2c-0.15,0.13-0.27,0.26-0.35,0.39v2.79c0,0.23,0.03,0.37,0.1,0.44s0.2,0.12,0.38,0.15v0.25h-2.51V64.52z
			"/>
		<path class="st10" d="M39.98,60.57c0.45-0.49,1.01-0.73,1.68-0.73c0.69,0,1.25,0.25,1.69,0.74c0.44,0.5,0.66,1.1,0.66,1.8
			c0,0.7-0.22,1.29-0.65,1.79c-0.43,0.5-1,0.75-1.7,0.75c-0.68,0-1.24-0.24-1.68-0.73s-0.67-1.09-0.67-1.81
			C39.31,61.66,39.53,61.06,39.98,60.57z M40.95,63.92c0.12,0.45,0.35,0.68,0.71,0.68c0.33,0,0.56-0.17,0.66-0.52
			c0.1-0.35,0.16-0.91,0.16-1.69c0-0.78-0.05-1.34-0.17-1.69s-0.33-0.52-0.65-0.52c-0.35,0-0.59,0.23-0.71,0.68
			c-0.08,0.3-0.12,0.81-0.12,1.53C40.84,63.12,40.88,63.63,40.95,63.92z"/>
		<path class="st10" d="M45.19,60.85c0.31-0.22,0.55-0.41,0.71-0.56c0.29-0.29,0.43-0.55,0.43-0.8c0-0.07-0.02-0.12-0.05-0.17
			c-0.04-0.04-0.09-0.07-0.16-0.07c-0.12,0.02-0.19,0.03-0.22,0.03c-0.22,0-0.41-0.08-0.55-0.23c-0.15-0.15-0.22-0.34-0.22-0.58
			c0-0.26,0.08-0.47,0.23-0.64c0.16-0.16,0.37-0.24,0.64-0.24c0.29,0,0.54,0.11,0.75,0.32c0.2,0.21,0.3,0.51,0.3,0.88
			c0,0.54-0.21,1.03-0.62,1.48c-0.26,0.28-0.63,0.55-1.1,0.82L45.19,60.85z"/>
		<path class="st10" d="M47.65,63.2h0.29c0.1,0.5,0.29,0.85,0.57,1.06s0.56,0.31,0.85,0.31c0.27,0,0.46-0.06,0.59-0.18
			c0.13-0.12,0.19-0.28,0.19-0.48c0-0.19-0.07-0.35-0.2-0.48c-0.08-0.07-0.2-0.15-0.36-0.23l-0.77-0.38
			c-0.41-0.2-0.7-0.42-0.88-0.65c-0.18-0.23-0.27-0.51-0.27-0.83c0-0.4,0.14-0.75,0.42-1.04c0.28-0.29,0.67-0.44,1.18-0.44
			c0.22,0,0.45,0.04,0.7,0.11c0.25,0.07,0.4,0.11,0.46,0.11c0.08,0,0.14-0.02,0.18-0.05c0.04-0.04,0.06-0.09,0.09-0.15h0.23v1.51
			h-0.26c-0.1-0.35-0.26-0.64-0.48-0.85c-0.22-0.21-0.48-0.32-0.78-0.32c-0.23,0-0.4,0.06-0.52,0.19c-0.11,0.13-0.17,0.27-0.17,0.42
			c0,0.12,0.05,0.24,0.15,0.37c0.1,0.12,0.29,0.25,0.56,0.39l0.57,0.27c0.35,0.17,0.61,0.33,0.77,0.49c0.27,0.27,0.41,0.61,0.41,1
			c0,0.39-0.14,0.75-0.42,1.08c-0.28,0.33-0.7,0.5-1.26,0.5c-0.14,0-0.28-0.01-0.42-0.04c-0.14-0.03-0.31-0.08-0.52-0.15l-0.18-0.06
			c-0.06-0.02-0.1-0.04-0.12-0.04s-0.04,0-0.06,0c-0.06,0-0.11,0.02-0.15,0.07c-0.04,0.05-0.09,0.12-0.15,0.23h-0.25V63.2z"/>
		<path class="st10" d="M54.21,64.51c0.35-0.02,0.59-0.08,0.72-0.2s0.19-0.37,0.19-0.75v-4.61c0-0.4-0.08-0.66-0.23-0.78
			c-0.1-0.08-0.33-0.14-0.69-0.17v-0.26h3.35c0.7,0,1.26,0.07,1.69,0.22c0.83,0.29,1.25,0.83,1.25,1.59c0,0.57-0.22,1.01-0.66,1.34
			c-0.33,0.25-0.69,0.4-1.06,0.47L61,64.31c0.06,0.08,0.12,0.13,0.18,0.16s0.14,0.04,0.24,0.05v0.25h-2.17l-2.43-3.25h0v2.04
			c0,0.37,0.06,0.61,0.18,0.74s0.37,0.2,0.73,0.21v0.26h-3.52V64.51z M58.27,60.89c0.29-0.18,0.44-0.6,0.44-1.26
			c0-0.4-0.06-0.72-0.17-0.96c-0.19-0.4-0.55-0.59-1.06-0.59c-0.28,0-0.46,0.03-0.55,0.1c-0.09,0.07-0.13,0.18-0.13,0.34v2.65
			C57.49,61.17,57.98,61.07,58.27,60.89z"/>
		<path class="st10" d="M62.43,60.52c0.43-0.44,0.94-0.66,1.54-0.66c0.34,0,0.67,0.09,0.97,0.27c0.3,0.18,0.54,0.43,0.7,0.75
			c0.12,0.24,0.21,0.55,0.25,0.94c0.02,0.18,0.04,0.32,0.04,0.41h-2.66c0.02,0.42,0.09,0.78,0.2,1.08c0.2,0.57,0.56,0.86,1.08,0.86
			c0.24,0,0.48-0.08,0.69-0.23c0.13-0.09,0.3-0.25,0.49-0.46l0.24,0.15c-0.32,0.53-0.7,0.9-1.12,1.1c-0.28,0.13-0.59,0.2-0.95,0.2
			c-0.51,0-0.99-0.2-1.44-0.61s-0.67-1.05-0.67-1.93C61.79,61.58,62,60.96,62.43,60.52z M64.64,61.83
			c-0.01-0.61-0.05-1.04-0.14-1.29s-0.27-0.37-0.53-0.37c-0.27,0-0.46,0.14-0.56,0.42s-0.16,0.69-0.17,1.23H64.64z"/>
		<path class="st10" d="M68.96,59.98v0.25c-0.18,0.01-0.32,0.03-0.42,0.06c-0.09,0.03-0.14,0.11-0.14,0.22
			c0,0.03,0.01,0.08,0.04,0.15s0.04,0.13,0.06,0.16l0.81,2h0.03l0.72-1.78c0.03-0.08,0.06-0.17,0.08-0.26
			c0.02-0.09,0.03-0.16,0.03-0.21c0-0.15-0.05-0.24-0.15-0.28c-0.1-0.04-0.24-0.06-0.43-0.06v-0.25h1.58v0.25
			c-0.14,0.01-0.25,0.05-0.34,0.13c-0.09,0.08-0.17,0.22-0.26,0.43l-1.68,4.13h-0.26l-1.25-3.09c-0.09-0.22-0.17-0.42-0.26-0.61
			c-0.08-0.19-0.17-0.38-0.26-0.55c-0.09-0.18-0.17-0.3-0.22-0.35c-0.05-0.05-0.15-0.08-0.29-0.09v-0.25H68.96z"/>
		<path class="st10" d="M72.26,60.52c0.43-0.44,0.94-0.66,1.54-0.66c0.34,0,0.67,0.09,0.97,0.27c0.3,0.18,0.54,0.43,0.7,0.75
			c0.12,0.24,0.21,0.55,0.25,0.94c0.02,0.18,0.04,0.32,0.04,0.41H73.1c0.02,0.42,0.09,0.78,0.2,1.08c0.2,0.57,0.56,0.86,1.08,0.86
			c0.24,0,0.48-0.08,0.69-0.23c0.13-0.09,0.3-0.25,0.49-0.46l0.24,0.15c-0.32,0.53-0.7,0.9-1.12,1.1c-0.28,0.13-0.59,0.2-0.95,0.2
			c-0.51,0-0.99-0.2-1.44-0.61s-0.67-1.05-0.67-1.93C71.62,61.58,71.84,60.96,72.26,60.52z M74.48,61.83
			c-0.01-0.61-0.05-1.04-0.14-1.29s-0.27-0.37-0.53-0.37c-0.27,0-0.46,0.14-0.56,0.42s-0.16,0.69-0.17,1.23H74.48z"/>
		<path class="st10" d="M76.19,64.52c0.19-0.02,0.33-0.08,0.42-0.16s0.13-0.24,0.13-0.48v-3.06c0-0.21-0.04-0.36-0.11-0.44
			c-0.07-0.08-0.22-0.14-0.45-0.16v-0.25h1.97v0.75c0.17-0.25,0.38-0.46,0.63-0.62s0.54-0.25,0.85-0.25c0.45,0,0.79,0.12,1.04,0.35
			c0.25,0.23,0.37,0.64,0.37,1.21v2.52c0,0.23,0.04,0.38,0.12,0.45c0.08,0.07,0.21,0.11,0.4,0.14v0.25h-2.45v-0.25
			c0.19-0.04,0.31-0.09,0.38-0.15s0.1-0.21,0.1-0.44v-2.52c0-0.24-0.02-0.42-0.07-0.53c-0.08-0.21-0.24-0.32-0.48-0.32
			c-0.18,0-0.34,0.07-0.5,0.2c-0.15,0.13-0.27,0.26-0.35,0.39v2.79c0,0.23,0.03,0.37,0.1,0.44s0.2,0.12,0.38,0.15v0.25h-2.51V64.52z
			"/>
		<path class="st10" d="M82.24,65.52c0.12-0.16,0.34-0.26,0.64-0.31v-0.07c-0.2-0.08-0.35-0.16-0.44-0.24
			c-0.16-0.15-0.24-0.34-0.24-0.58c0-0.29,0.13-0.54,0.38-0.75c0.26-0.21,0.51-0.35,0.75-0.43v-0.07c-0.35-0.14-0.64-0.35-0.85-0.61
			s-0.33-0.58-0.33-0.96c0-0.48,0.19-0.87,0.57-1.18s0.89-0.46,1.54-0.46c0.24,0,0.47,0.02,0.67,0.07c0.2,0.05,0.36,0.1,0.47,0.15
			h1.37v0.55h-0.84c0.14,0.13,0.24,0.29,0.31,0.46c0.07,0.18,0.11,0.37,0.11,0.58c0,0.65-0.31,1.1-0.93,1.34
			c-0.33,0.13-0.73,0.19-1.22,0.19c-0.1,0-0.17,0-0.21,0c-0.03,0-0.08,0-0.14,0c-0.1,0.02-0.21,0.07-0.32,0.16
			c-0.12,0.09-0.17,0.21-0.17,0.34c0,0.1,0.03,0.19,0.09,0.24s0.14,0.09,0.24,0.11c0.05,0.01,0.16,0.01,0.33,0.02
			s0.29,0.01,0.39,0.01l0.68,0.01c0.38,0.01,0.71,0.06,0.97,0.17c0.5,0.2,0.75,0.57,0.75,1.09c0,0.68-0.37,1.14-1.12,1.4
			c-0.39,0.13-0.89,0.2-1.49,0.2c-0.49,0-0.91-0.05-1.26-0.14c-0.58-0.16-0.88-0.43-0.88-0.81C82.05,65.83,82.11,65.68,82.24,65.52z
			 M83.31,66.41c0.23,0.12,0.56,0.18,0.99,0.18c0.39,0,0.71-0.03,0.96-0.09c0.47-0.12,0.71-0.33,0.71-0.64
			c0-0.18-0.07-0.32-0.2-0.41c-0.13-0.09-0.38-0.13-0.73-0.13h-1.71c-0.11,0.09-0.19,0.16-0.23,0.22c-0.08,0.11-0.13,0.23-0.13,0.36
			C82.97,66.12,83.08,66.29,83.31,66.41z M83.67,62.42c0.1,0.3,0.3,0.46,0.58,0.46c0.26,0,0.44-0.11,0.54-0.34
			c0.1-0.23,0.15-0.56,0.15-1c0-0.47-0.05-0.81-0.15-1.02c-0.1-0.21-0.28-0.32-0.53-0.32c-0.27,0-0.46,0.11-0.55,0.34
			c-0.09,0.23-0.14,0.56-0.14,1C83.57,61.93,83.61,62.23,83.67,62.42z"/>
		<path class="st10" d="M87.89,60.52c0.43-0.44,0.94-0.66,1.54-0.66c0.34,0,0.67,0.09,0.97,0.27c0.3,0.18,0.54,0.43,0.7,0.75
			c0.12,0.24,0.21,0.55,0.25,0.94c0.02,0.18,0.04,0.32,0.04,0.41h-2.66c0.02,0.42,0.09,0.78,0.2,1.08c0.2,0.57,0.56,0.86,1.08,0.86
			c0.24,0,0.48-0.08,0.69-0.23c0.13-0.09,0.3-0.25,0.49-0.46l0.24,0.15c-0.32,0.53-0.7,0.9-1.12,1.1c-0.28,0.13-0.59,0.2-0.95,0.2
			c-0.51,0-0.99-0.2-1.44-0.61s-0.67-1.05-0.67-1.93C87.25,61.58,87.46,60.96,87.89,60.52z M90.1,61.83
			c-0.01-0.61-0.05-1.04-0.14-1.29s-0.27-0.37-0.53-0.37c-0.27,0-0.46,0.14-0.56,0.42s-0.16,0.69-0.17,1.23H90.1z"/>
	</g>
</g>
</svg>
