<?xml version="1.0" encoding="utf-8"?>
<!-- Generator: Adobe Illustrator 26.5.0, SVG Export Plug-In . SVG Version: 6.00 Build 0)  -->
<svg version="1.1" id="Layer_1" xmlns="http://www.w3.org/2000/svg" xmlns:xlink="http://www.w3.org/1999/xlink" x="0px" y="0px"
	 viewBox="0 0 107.44 107.26" style="enable-background:new 0 0 107.44 107.26;" xml:space="preserve">
<style type="text/css">
	.st0{clip-path:url(#SVGID_00000183953245651300010560000011439964572340731552_);fill:#887976;}
	.st1{clip-path:url(#SVGID_00000183953245651300010560000011439964572340731552_);}
	.st2{fill:#081F40;}
	.st3{clip-path:url(#SVGID_00000042733119033855267430000015582084760798702242_);fill:#A51D31;}
	.st4{clip-path:url(#SVGID_00000042733119033855267430000015582084760798702242_);fill:#FFFFFF;}
	.st5{clip-path:url(#SVGID_00000013195058207646561090000009451737667779409038_);fill:#FFFFFF;}
	.st6{clip-path:url(#SVGID_00000013195058207646561090000009451737667779409038_);}
	.st7{fill:#0E2346;}
	.st8{clip-path:url(#SVGID_00000079471644042207265320000004740724695570301877_);fill:#643D18;}
	.st9{clip-path:url(#SVGID_00000079471644042207265320000004740724695570301877_);}
	.st10{fill:#FFFFFF;}
	.st11{clip-path:url(#SVGID_00000104667265264624678140000011784087840231724940_);fill:#1E2758;}
	.st12{clip-path:url(#SVGID_00000104667265264624678140000011784087840231724940_);}
	.st13{fill:#EB1C2D;}
	.st14{clip-path:url(#SVGID_00000105412475841082109960000016283620614496174263_);fill:#0D4E91;}
	.st15{clip-path:url(#SVGID_00000105412475841082109960000016283620614496174263_);}
	.st16{clip-path:url(#SVGID_00000062888971279474946720000015033398065577389701_);fill:#672A7A;}
	.st17{clip-path:url(#SVGID_00000062888971279474946720000015033398065577389701_);fill:#F9F186;}
	
		.st18{clip-path:url(#SVGID_00000062888971279474946720000015033398065577389701_);fill:none;stroke:#000000;stroke-width:1.069;stroke-miterlimit:10;}
	.st19{clip-path:url(#SVGID_00000062888971279474946720000015033398065577389701_);fill:#F5EC3B;}
	.st20{clip-path:url(#SVGID_00000181069816051885005090000003719391849320746901_);fill:#E77625;}
	.st21{clip-path:url(#SVGID_00000181069816051885005090000003719391849320746901_);}
	.st22{clip-path:url(#SVGID_00000093161942849838965270000012695392276652440192_);fill:#D8272D;}
	.st23{clip-path:url(#SVGID_00000093161942849838965270000012695392276652440192_);}
	.st24{clip-path:url(#SVGID_00000011715139650489894260000000124428520151454339_);fill:#00954C;}
	.st25{clip-path:url(#SVGID_00000011715139650489894260000000124428520151454339_);}
	.st26{clip-path:url(#SVGID_00000093168475690175962890000016553828888447535022_);fill:#42B4E4;}
	.st27{clip-path:url(#SVGID_00000093168475690175962890000016553828888447535022_);}
	.st28{clip-path:url(#SVGID_00000179639042462258965160000005955641275910442661_);}
</style>
<g>
	<defs>
		<path id="SVGID_00000008867065744129854070000011478376712119214238_" d="M107.44,53.63c0,29.6-24.07,53.63-53.72,53.63
			S0,83.23,0,53.63S24.07,0,53.72,0S107.44,24.03,107.44,53.63z"/>
	</defs>
	<clipPath id="SVGID_00000011001149130969341710000018292003088257046147_">
		<use xlink:href="#SVGID_00000008867065744129854070000011478376712119214238_"  style="overflow:visible;"/>
	</clipPath>
	<path style="clip-path:url(#SVGID_00000011001149130969341710000018292003088257046147_);fill:#672A7A;" d="M53.72,115.86
		c34.37,0,62.23-27.86,62.23-62.22c0-34.37-27.86-62.23-62.23-62.23S-8.51,19.27-8.51,53.64C-8.51,88,19.35,115.86,53.72,115.86"/>
	<polyline style="clip-path:url(#SVGID_00000011001149130969341710000018292003088257046147_);fill:#F9F186;" points="85.8,36.23 
		64.04,36.23 64.04,11.89 45.98,11.89 45.98,36.23 24.21,36.23 24.21,53.25 45.98,53.25 45.98,96.86 64.04,96.86 64.04,53.25 
		85.8,53.25 85.8,36.23 	"/>
	
		<polygon style="clip-path:url(#SVGID_00000011001149130969341710000018292003088257046147_);fill:none;stroke:#000000;stroke-width:1.069;stroke-miterlimit:10;" points="
		85.8,36.23 64.04,36.23 64.04,11.89 45.98,11.89 45.98,36.23 24.21,36.23 24.21,53.25 45.98,53.25 45.98,96.86 64.04,96.86 
		64.04,53.25 85.8,53.25 	"/>
	<path style="clip-path:url(#SVGID_00000011001149130969341710000018292003088257046147_);fill:#F5EC3B;" d="M54.65,19.08
		c0,2-1.62,3.61-3.61,3.61s-3.61-1.62-3.61-3.61c0-2,1.62-3.61,3.61-3.61S54.65,17.08,54.65,19.08"/>
	
		<path style="clip-path:url(#SVGID_00000011001149130969341710000018292003088257046147_);fill:none;stroke:#000000;stroke-width:1.069;stroke-miterlimit:10;" d="
		M54.65,19.08c0,2-1.62,3.61-3.61,3.61s-3.61-1.62-3.61-3.61c0-2,1.62-3.61,3.61-3.61S54.65,17.08,54.65,19.08z"/>
	<path style="clip-path:url(#SVGID_00000011001149130969341710000018292003088257046147_);fill:#F5EC3B;" d="M54.53,52.27
		c0,2-1.62,3.61-3.61,3.61c-1.99,0-3.61-1.62-3.61-3.61c0-2,1.62-3.61,3.61-3.61C52.91,48.65,54.53,50.27,54.53,52.27"/>
	
		<path style="clip-path:url(#SVGID_00000011001149130969341710000018292003088257046147_);fill:none;stroke:#000000;stroke-width:1.069;stroke-miterlimit:10;" d="
		M54.53,52.27c0,2-1.62,3.61-3.61,3.61c-1.99,0-3.61-1.62-3.61-3.61c0-2,1.62-3.61,3.61-3.61C52.91,48.65,54.53,50.27,54.53,52.27z"
		/>
	<path style="clip-path:url(#SVGID_00000011001149130969341710000018292003088257046147_);fill:#F5EC3B;" d="M34.92,45.92
		c0,2-1.62,3.61-3.61,3.61s-3.61-1.62-3.61-3.61s1.62-3.61,3.61-3.61S34.92,43.92,34.92,45.92"/>
	
		<circle style="clip-path:url(#SVGID_00000011001149130969341710000018292003088257046147_);fill:none;stroke:#000000;stroke-width:1.069;stroke-miterlimit:10;" cx="31.31" cy="45.92" r="3.61"/>
	<path style="clip-path:url(#SVGID_00000011001149130969341710000018292003088257046147_);fill:#F5EC3B;" d="M83.5,43.59
		c0,2-1.62,3.61-3.61,3.61c-1.99,0-3.61-1.62-3.61-3.61c0-2,1.62-3.61,3.61-3.61C81.88,39.98,83.5,41.59,83.5,43.59"/>
	
		<circle style="clip-path:url(#SVGID_00000011001149130969341710000018292003088257046147_);fill:none;stroke:#000000;stroke-width:1.069;stroke-miterlimit:10;" cx="79.89" cy="43.59" r="3.61"/>
	<path style="clip-path:url(#SVGID_00000011001149130969341710000018292003088257046147_);fill:#F5EC3B;" d="M59.56,67.79
		c0,2-1.62,3.61-3.61,3.61s-3.61-1.62-3.61-3.61c0-2,1.62-3.61,3.61-3.61S59.56,65.79,59.56,67.79"/>
	
		<path style="clip-path:url(#SVGID_00000011001149130969341710000018292003088257046147_);fill:none;stroke:#000000;stroke-width:1.069;stroke-miterlimit:10;" d="
		M59.56,67.79c0,2-1.62,3.61-3.61,3.61s-3.61-1.62-3.61-3.61c0-2,1.62-3.61,3.61-3.61S59.56,65.79,59.56,67.79z"/>
	<path style="clip-path:url(#SVGID_00000011001149130969341710000018292003088257046147_);fill:#F5EC3B;" d="M55.85,86.77
		c0,2-1.62,3.61-3.61,3.61c-1.99,0-3.61-1.62-3.61-3.61c0-2,1.62-3.61,3.61-3.61C54.23,83.15,55.85,84.77,55.85,86.77"/>
	
		<circle style="clip-path:url(#SVGID_00000011001149130969341710000018292003088257046147_);fill:none;stroke:#000000;stroke-width:1.069;stroke-miterlimit:10;" cx="52.23" cy="86.77" r="3.61"/>
	<path style="clip-path:url(#SVGID_00000011001149130969341710000018292003088257046147_);fill:#F5EC3B;" d="M62.07,36.24
		c0,2-1.2,3.61-2.67,3.61c-1.48,0-2.67-1.62-2.67-3.61c0-2,1.2-3.61,2.67-3.61C60.88,32.62,62.07,34.24,62.07,36.24"/>
	
		<ellipse style="clip-path:url(#SVGID_00000011001149130969341710000018292003088257046147_);fill:none;stroke:#000000;stroke-width:1.069;stroke-miterlimit:10;" cx="59.4" cy="36.24" rx="2.67" ry="3.61"/>
	<path style="clip-path:url(#SVGID_00000011001149130969341710000018292003088257046147_);fill:#F5EC3B;" d="M45.67,40.58
		c0,1.2-1.03,2.17-2.3,2.17c-1.27,0-2.3-0.97-2.3-2.17s1.03-2.17,2.3-2.17C44.64,38.41,45.67,39.38,45.67,40.58"/>
	
		<path style="clip-path:url(#SVGID_00000011001149130969341710000018292003088257046147_);fill:none;stroke:#000000;stroke-width:1.069;stroke-miterlimit:10;" d="
		M45.67,40.58c0,1.2-1.03,2.17-2.3,2.17c-1.27,0-2.3-0.97-2.3-2.17s1.03-2.17,2.3-2.17C44.64,38.41,45.67,39.38,45.67,40.58z"/>
	<path style="clip-path:url(#SVGID_00000011001149130969341710000018292003088257046147_);fill:#F5EC3B;" d="M66.01,49.81
		c0,0.99-0.85,1.79-1.9,1.79c-1.05,0-1.9-0.8-1.9-1.79c0-0.99,0.85-1.79,1.9-1.79C65.16,48.02,66.01,48.82,66.01,49.81"/>
	
		<path style="clip-path:url(#SVGID_00000011001149130969341710000018292003088257046147_);fill:none;stroke:#000000;stroke-width:1.069;stroke-miterlimit:10;" d="
		M66.01,49.81c0,0.99-0.85,1.79-1.9,1.79c-1.05,0-1.9-0.8-1.9-1.79c0-0.99,0.85-1.79,1.9-1.79C65.16,48.02,66.01,48.82,66.01,49.81z
		"/>
	<path style="clip-path:url(#SVGID_00000011001149130969341710000018292003088257046147_);fill:#F5EC3B;" d="M63.75,92.93
		c0,1.06-0.9,1.91-2.02,1.91c-1.12,0-2.02-0.85-2.02-1.91c0-1.05,0.9-1.91,2.02-1.91C62.84,91.02,63.75,91.87,63.75,92.93"/>
	
		<path style="clip-path:url(#SVGID_00000011001149130969341710000018292003088257046147_);fill:none;stroke:#000000;stroke-width:1.069;stroke-miterlimit:10;" d="
		M63.75,92.93c0,1.06-0.9,1.91-2.02,1.91c-1.12,0-2.02-0.85-2.02-1.91c0-1.05,0.9-1.91,2.02-1.91
		C62.84,91.02,63.75,91.87,63.75,92.93z"/>
</g>
</svg>
