<?xml version="1.0" encoding="utf-8"?>
<!-- Generator: Adobe Illustrator 26.5.0, SVG Export Plug-In . SVG Version: 6.00 Build 0)  -->
<svg version="1.1" id="Layer_1" xmlns="http://www.w3.org/2000/svg" xmlns:xlink="http://www.w3.org/1999/xlink" x="0px" y="0px"
	 viewBox="0 0 106.26 106.08" style="enable-background:new 0 0 106.26 106.08;" xml:space="preserve">
<style type="text/css">
	.st0{clip-path:url(#SVGID_00000026866699464628312660000017319512615111297920_);fill:#887976;}
	.st1{clip-path:url(#SVGID_00000026866699464628312660000017319512615111297920_);}
	.st2{fill:#081F40;}
	.st3{clip-path:url(#SVGID_00000033353768447747936190000012857465981300296598_);fill:#A51D31;}
	.st4{clip-path:url(#SVGID_00000033353768447747936190000012857465981300296598_);fill:#FFFFFF;}
	.st5{clip-path:url(#SVGID_00000017514832032521324930000015296277230386264196_);fill:#FFFFFF;}
	.st6{clip-path:url(#SVGID_00000017514832032521324930000015296277230386264196_);}
	.st7{fill:#0E2346;}
	.st8{clip-path:url(#SVGID_00000008830825999196929480000005175247661911246745_);fill:#643D18;}
	.st9{clip-path:url(#SVGID_00000008830825999196929480000005175247661911246745_);}
	.st10{fill:#FFFFFF;}
	.st11{clip-path:url(#SVGID_00000070113411605731299280000001711254526800341690_);fill:#1E2758;}
	.st12{clip-path:url(#SVGID_00000070113411605731299280000001711254526800341690_);}
	.st13{fill:#EB1C2D;}
	.st14{clip-path:url(#SVGID_00000152971135859030718250000015101589742206397098_);fill:#0D4E91;}
	.st15{clip-path:url(#SVGID_00000152971135859030718250000015101589742206397098_);}
	.st16{clip-path:url(#SVGID_00000082346884286362227350000003585264364565951901_);fill:#672A7A;}
	.st17{clip-path:url(#SVGID_00000082346884286362227350000003585264364565951901_);fill:#F9F186;}
	
		.st18{clip-path:url(#SVGID_00000082346884286362227350000003585264364565951901_);fill:none;stroke:#000000;stroke-width:1.069;stroke-miterlimit:10;}
	.st19{clip-path:url(#SVGID_00000082346884286362227350000003585264364565951901_);fill:#F5EC3B;}
	.st20{clip-path:url(#SVGID_00000148649300420188119080000013104345145444033173_);fill:#E77625;}
	.st21{clip-path:url(#SVGID_00000148649300420188119080000013104345145444033173_);}
	.st22{clip-path:url(#SVGID_00000103233430194060535980000018031654514740878468_);fill:#D8272D;}
	.st23{clip-path:url(#SVGID_00000103233430194060535980000018031654514740878468_);}
	.st24{clip-path:url(#SVGID_00000165949494710299958630000013668276950431964051_);fill:#00954C;}
	.st25{clip-path:url(#SVGID_00000165949494710299958630000013668276950431964051_);}
	.st26{clip-path:url(#SVGID_00000060028257605043274180000013781804677598435457_);fill:#42B4E4;}
	.st27{clip-path:url(#SVGID_00000060028257605043274180000013781804677598435457_);}
	.st28{clip-path:url(#SVGID_00000000914470701808875490000016313984687046063541_);}
</style>
<g>
	<defs>
		<path id="SVGID_00000022547224770633370420000012485343656344817820_" d="M106.26,53.04c0,29.28-23.8,53.04-53.13,53.04
			S0,82.32,0,53.04S23.8,0,53.13,0S106.26,23.76,106.26,53.04z"/>
	</defs>
	<clipPath id="SVGID_00000098195686955393819540000000901765794897834144_">
		<use xlink:href="#SVGID_00000022547224770633370420000012485343656344817820_"  style="overflow:visible;"/>
	</clipPath>
	<path style="clip-path:url(#SVGID_00000098195686955393819540000000901765794897834144_);fill:#1E2758;" d="M53.13,115.26
		c34.36,0,62.23-27.86,62.23-62.22c0-34.37-27.86-62.23-62.23-62.23S-9.09,18.67-9.09,53.04C-9.09,87.4,18.77,115.26,53.13,115.26"
		/>
	<g style="clip-path:url(#SVGID_00000098195686955393819540000000901765794897834144_);">
		<path class="st13" d="M35.85,40.69v0.36c-0.51,0.04-0.85,0.13-1.02,0.27c-0.18,0.14-0.26,0.49-0.26,1.03v6.15
			c0,1.01-0.27,1.8-0.82,2.36c-0.55,0.57-1.33,0.85-2.33,0.85c-0.71,0-1.27-0.19-1.7-0.57c-0.43-0.38-0.64-0.79-0.64-1.23
			c0-0.35,0.1-0.63,0.31-0.83c0.21-0.2,0.45-0.3,0.73-0.3c0.28,0,0.51,0.1,0.69,0.29c0.18,0.19,0.27,0.43,0.27,0.7
			c0,0.23-0.06,0.45-0.17,0.66c-0.11,0.21-0.17,0.33-0.17,0.37c0,0.14,0.05,0.24,0.16,0.32c0.11,0.07,0.24,0.11,0.4,0.11
			c0.43,0,0.71-0.14,0.86-0.42c0.08-0.17,0.12-0.45,0.12-0.84v-7.93c0-0.43-0.14-0.71-0.42-0.85c-0.17-0.08-0.51-0.13-1.01-0.15
			v-0.36H35.85z"/>
		<path class="st13" d="M37.38,44.58c0.61-0.66,1.38-1,2.3-1c0.94,0,1.71,0.34,2.32,1.02c0.6,0.68,0.9,1.5,0.9,2.47
			c0,0.95-0.3,1.77-0.89,2.46c-0.59,0.69-1.37,1.03-2.33,1.03c-0.93,0-1.7-0.33-2.31-1c-0.61-0.67-0.91-1.49-0.91-2.48
			C36.46,46.07,36.77,45.24,37.38,44.58z M38.71,49.16c0.16,0.62,0.48,0.93,0.97,0.93c0.46,0,0.76-0.24,0.91-0.71
			c0.14-0.47,0.22-1.24,0.22-2.31c0-1.06-0.08-1.83-0.23-2.31c-0.15-0.48-0.45-0.71-0.89-0.71c-0.48,0-0.81,0.31-0.97,0.93
			c-0.11,0.41-0.16,1.11-0.16,2.1C38.56,48.06,38.61,48.76,38.71,49.16z"/>
		<path class="st13" d="M43.51,49.99c0.25-0.04,0.42-0.1,0.52-0.19c0.14-0.13,0.21-0.35,0.21-0.68v-4.19c0-0.29-0.05-0.49-0.15-0.59
			c-0.1-0.1-0.29-0.18-0.58-0.24v-0.34h2.74v5.42c0,0.31,0.05,0.51,0.14,0.6c0.09,0.09,0.27,0.16,0.52,0.21v0.34h-3.4V49.99z
			 M44.46,40.8c0.22-0.22,0.48-0.32,0.78-0.32c0.3,0,0.56,0.11,0.78,0.32c0.22,0.22,0.32,0.48,0.32,0.78c0,0.31-0.11,0.57-0.32,0.78
			c-0.22,0.22-0.48,0.32-0.78,0.32c-0.31,0-0.57-0.11-0.78-0.32c-0.22-0.22-0.32-0.48-0.32-0.78C44.14,41.28,44.25,41.02,44.46,40.8
			z"/>
		<path class="st13" d="M47.48,49.99c0.26-0.03,0.45-0.1,0.58-0.21c0.12-0.11,0.18-0.33,0.18-0.65v-4.19c0-0.29-0.05-0.49-0.15-0.6
			c-0.1-0.11-0.3-0.19-0.61-0.23v-0.34h2.7v1.02c0.23-0.34,0.52-0.63,0.87-0.85s0.74-0.34,1.17-0.34c0.61,0,1.09,0.16,1.42,0.47
			c0.34,0.32,0.5,0.87,0.5,1.66v3.45c0,0.32,0.05,0.53,0.16,0.62c0.11,0.09,0.29,0.16,0.55,0.19v0.34H51.5v-0.34
			c0.25-0.05,0.43-0.12,0.52-0.21c0.09-0.09,0.14-0.29,0.14-0.6v-3.45c0-0.32-0.03-0.57-0.1-0.73c-0.11-0.29-0.33-0.44-0.66-0.44
			c-0.25,0-0.47,0.09-0.68,0.27c-0.21,0.18-0.37,0.36-0.48,0.54v3.82c0,0.31,0.05,0.51,0.14,0.6c0.09,0.09,0.27,0.16,0.52,0.21v0.34
			h-3.43V49.99z"/>
		<path class="st13" d="M58.98,44.39v-0.4c0.13-0.12,0.28-0.25,0.47-0.41c0.25-0.23,0.48-0.46,0.7-0.7
			c0.43-0.47,0.82-0.98,1.18-1.53h0.36v2.41h1.36v0.63h-1.36v4.29c0,0.2,0.03,0.37,0.09,0.5c0.09,0.21,0.25,0.31,0.46,0.31
			c0.19,0,0.34-0.07,0.47-0.2s0.25-0.31,0.38-0.55l0.34,0.17c-0.17,0.39-0.37,0.71-0.6,0.95c-0.41,0.43-0.91,0.65-1.5,0.65
			c-0.33,0-0.63-0.06-0.88-0.19c-0.48-0.24-0.72-0.68-0.73-1.32v-4.62H58.98z"/>
		<path class="st13" d="M63.73,49.99c0.26-0.03,0.45-0.1,0.58-0.21c0.12-0.11,0.18-0.33,0.18-0.65v-7.26c0-0.29-0.05-0.49-0.15-0.6
			c-0.1-0.11-0.3-0.19-0.61-0.23v-0.34h2.76v4.01c0.29-0.35,0.6-0.63,0.92-0.82c0.32-0.19,0.69-0.29,1.09-0.29
			c0.55,0,1,0.16,1.36,0.48c0.36,0.32,0.54,0.86,0.54,1.63v3.43c0,0.32,0.05,0.53,0.16,0.63c0.11,0.1,0.29,0.18,0.55,0.23v0.34
			h-3.35v-0.34c0.25-0.05,0.43-0.12,0.52-0.21c0.09-0.09,0.14-0.29,0.14-0.6v-3.45c0-0.32-0.03-0.57-0.1-0.73
			c-0.11-0.29-0.33-0.44-0.66-0.44c-0.25,0-0.5,0.11-0.76,0.34s-0.39,0.38-0.39,0.47v3.82c0,0.31,0.05,0.51,0.14,0.6
			c0.09,0.09,0.27,0.16,0.52,0.21v0.34h-3.43V49.99z"/>
		<path class="st13" d="M72.62,44.51c0.58-0.61,1.29-0.91,2.11-0.91c0.47,0,0.91,0.12,1.33,0.37s0.73,0.59,0.96,1.02
			c0.17,0.33,0.28,0.76,0.35,1.28c0.03,0.25,0.05,0.43,0.05,0.56h-3.64c0.03,0.57,0.13,1.07,0.28,1.48
			c0.28,0.78,0.77,1.18,1.47,1.18c0.33,0,0.65-0.1,0.95-0.31c0.18-0.12,0.41-0.34,0.68-0.63l0.33,0.2
			c-0.44,0.72-0.95,1.23-1.53,1.51c-0.38,0.18-0.81,0.27-1.3,0.27c-0.7,0-1.36-0.28-1.97-0.83c-0.61-0.55-0.92-1.43-0.92-2.65
			C71.74,45.96,72.04,45.11,72.62,44.51z M75.65,46.31c-0.01-0.84-0.07-1.43-0.2-1.76s-0.36-0.5-0.73-0.5
			c-0.37,0-0.63,0.19-0.77,0.58c-0.14,0.39-0.21,0.95-0.23,1.69H75.65z"/>
	</g>
	<g style="clip-path:url(#SVGID_00000098195686955393819540000000901765794897834144_);">
		<path class="st13" d="M10.02,62.85c0.47-0.03,0.78-0.13,0.94-0.3c0.16-0.16,0.24-0.5,0.24-1.01v-6.31c0-0.54-0.08-0.87-0.24-1.02
			c-0.16-0.14-0.48-0.24-0.94-0.29v-0.36h4.59c1.22,0,2.14,0.2,2.78,0.59c0.63,0.4,0.95,1.07,0.95,2.03c0,0.47-0.12,0.91-0.37,1.32
			c-0.25,0.41-0.66,0.74-1.23,0.99c-0.43,0.18-0.86,0.28-1.3,0.32s-1.07,0.06-1.92,0.06v2.66c0,0.52,0.09,0.87,0.26,1.03
			c0.18,0.16,0.51,0.25,0.99,0.27v0.36h-4.75V62.85z M15.22,58.1c0.45-0.29,0.68-0.91,0.68-1.86c0-0.65-0.11-1.17-0.33-1.57
			c-0.22-0.4-0.64-0.6-1.25-0.6c-0.28,0-0.49,0.03-0.61,0.1c-0.12,0.07-0.18,0.2-0.18,0.39v3.83C14.37,58.38,14.94,58.28,15.22,58.1
			z"/>
		<path class="st13" d="M19.7,57.38c0.58-0.61,1.29-0.91,2.11-0.91c0.47,0,0.91,0.12,1.33,0.37s0.73,0.59,0.96,1.02
			c0.17,0.33,0.28,0.76,0.35,1.28c0.03,0.25,0.05,0.43,0.05,0.56h-3.64c0.03,0.57,0.13,1.07,0.28,1.48
			c0.28,0.78,0.77,1.18,1.47,1.18c0.33,0,0.65-0.1,0.95-0.31c0.18-0.12,0.41-0.34,0.68-0.63l0.33,0.2
			c-0.44,0.72-0.95,1.23-1.53,1.51c-0.38,0.18-0.81,0.27-1.3,0.27c-0.7,0-1.36-0.28-1.97-0.83c-0.61-0.55-0.92-1.43-0.92-2.65
			C18.82,58.84,19.11,57.99,19.7,57.38z M22.73,59.18c-0.01-0.84-0.07-1.43-0.2-1.76s-0.36-0.5-0.73-0.5
			c-0.37,0-0.63,0.19-0.77,0.58c-0.14,0.39-0.21,0.95-0.23,1.69H22.73z"/>
		<path class="st13" d="M25.07,62.87c0.26-0.03,0.45-0.1,0.58-0.21c0.12-0.11,0.18-0.33,0.18-0.65v-4.19c0-0.29-0.05-0.49-0.15-0.6
			c-0.1-0.11-0.3-0.19-0.61-0.23v-0.34h2.7v1.02c0.23-0.34,0.52-0.63,0.87-0.85s0.74-0.34,1.17-0.34c0.61,0,1.09,0.16,1.42,0.47
			c0.34,0.32,0.5,0.87,0.5,1.66v3.45c0,0.32,0.05,0.53,0.16,0.62c0.11,0.09,0.29,0.16,0.55,0.19v0.34H29.1v-0.34
			c0.25-0.05,0.43-0.12,0.52-0.21c0.09-0.09,0.14-0.29,0.14-0.6v-3.45c0-0.32-0.03-0.57-0.1-0.73c-0.11-0.29-0.33-0.44-0.66-0.44
			c-0.25,0-0.47,0.09-0.68,0.27c-0.21,0.18-0.37,0.36-0.48,0.54v3.82c0,0.31,0.05,0.51,0.14,0.6c0.09,0.09,0.27,0.16,0.52,0.21v0.34
			h-3.43V62.87z"/>
		<path class="st13" d="M33,62.87c0.26-0.03,0.45-0.1,0.58-0.21c0.12-0.11,0.18-0.33,0.18-0.65v-4.19c0-0.29-0.05-0.49-0.15-0.6
			c-0.1-0.11-0.3-0.19-0.61-0.23v-0.34h2.7v1.02c0.23-0.34,0.52-0.63,0.87-0.85s0.74-0.34,1.17-0.34c0.61,0,1.09,0.16,1.42,0.47
			c0.34,0.32,0.5,0.87,0.5,1.66v3.45c0,0.32,0.05,0.53,0.16,0.62c0.11,0.09,0.29,0.16,0.55,0.19v0.34h-3.35v-0.34
			c0.25-0.05,0.43-0.12,0.52-0.21c0.09-0.09,0.14-0.29,0.14-0.6v-3.45c0-0.32-0.03-0.57-0.1-0.73c-0.11-0.29-0.33-0.44-0.66-0.44
			c-0.25,0-0.47,0.09-0.68,0.27c-0.21,0.18-0.37,0.36-0.48,0.54v3.82c0,0.31,0.05,0.51,0.14,0.6c0.09,0.09,0.27,0.16,0.52,0.21v0.34
			H33V62.87z"/>
		<path class="st13" d="M45.81,54.88c0.35-0.56,0.96-1.07,1.84-1.52l0.17,0.31c-0.45,0.32-0.78,0.59-0.99,0.81
			c-0.38,0.38-0.56,0.74-0.56,1.07c0,0.1,0.03,0.18,0.08,0.24c0.06,0.06,0.13,0.09,0.24,0.09c0.18-0.02,0.3-0.03,0.36-0.03
			c0.28,0,0.52,0.11,0.7,0.32c0.18,0.22,0.28,0.49,0.28,0.83c0,0.3-0.1,0.57-0.31,0.8c-0.21,0.23-0.5,0.35-0.9,0.35
			c-0.43,0-0.78-0.16-1.03-0.48s-0.39-0.73-0.39-1.22C45.29,55.96,45.46,55.43,45.81,54.88z"/>
		<path class="st13" d="M49.98,62.87c0.72,0,1.19-0.1,1.39-0.3c0.2-0.2,0.31-0.57,0.31-1.12v-5.5c0-0.35-0.04-0.6-0.12-0.75
			c-0.08-0.15-0.23-0.22-0.45-0.22c-0.12,0-0.29,0.04-0.54,0.12c-0.15,0.05-0.36,0.12-0.63,0.22v-0.36l3.6-1.55h0.25v8.13
			c0,0.52,0.08,0.87,0.25,1.06c0.17,0.19,0.59,0.28,1.28,0.28v0.34h-5.35V62.87z"/>
		<path class="st13" d="M56.71,61.46c0.16-0.17,0.37-0.25,0.64-0.25c0.34,0,0.81,0.21,1.39,0.62s1.03,0.62,1.35,0.62
			c0.38,0,0.7-0.13,0.97-0.4c0.27-0.26,0.41-0.62,0.41-1.07c0-0.46-0.16-0.85-0.47-1.17s-0.66-0.57-1.05-0.75
			c-0.42-0.19-0.89-0.33-1.42-0.42c-0.34-0.06-0.89-0.11-1.65-0.16l1.39-4.92h4.59l-0.61,1.82h-3.95l-0.33,1.16
			c1.11,0.03,2,0.19,2.69,0.48c1.29,0.54,1.94,1.5,1.94,2.87c0,1-0.38,1.83-1.16,2.48c-0.77,0.65-1.74,0.97-2.9,0.97
			c-0.59,0-1.08-0.12-1.47-0.35c-0.39-0.23-0.59-0.54-0.59-0.92C56.47,61.83,56.55,61.63,56.71,61.46z"/>
		<path class="st13" d="M74.17,53.72c0.61,0.22,0.95,0.33,1.02,0.33c0.18,0,0.33-0.07,0.44-0.21s0.18-0.29,0.21-0.44h0.4v3.34h-0.36
			c-0.34-0.72-0.69-1.3-1.05-1.71c-0.67-0.77-1.42-1.16-2.27-1.16c-0.96,0-1.63,0.41-2.04,1.24s-0.6,1.93-0.6,3.32
			c0,1.02,0.12,1.86,0.35,2.52c0.44,1.24,1.26,1.85,2.46,1.85c0.73,0,1.42-0.2,2.05-0.61c0.36-0.24,0.79-0.62,1.28-1.14l0.42,0.35
			c-0.56,0.62-1.05,1.07-1.47,1.35c-0.75,0.5-1.59,0.75-2.51,0.75c-1.41,0-2.59-0.42-3.54-1.25c-1.05-0.92-1.58-2.17-1.58-3.73
			c0-1.55,0.5-2.81,1.51-3.77c0.95-0.9,2.11-1.35,3.48-1.35C72.96,53.39,73.57,53.5,74.17,53.72z"/>
		<path class="st13" d="M77.38,62.87c0.25-0.06,0.43-0.14,0.53-0.24c0.1-0.1,0.16-0.31,0.16-0.62v-7.26c0-0.3-0.05-0.5-0.15-0.6
			s-0.28-0.17-0.54-0.23v-0.34h2.7V62c0,0.32,0.05,0.52,0.15,0.62c0.1,0.1,0.28,0.18,0.54,0.24v0.34h-3.4V62.87z"/>
		<path class="st13" d="M84.04,56.64v4.84c0,0.29,0.04,0.5,0.1,0.63c0.12,0.24,0.36,0.36,0.72,0.36c0.23,0,0.45-0.07,0.67-0.22
			c0.12-0.08,0.28-0.21,0.47-0.4v-4.05c0-0.3-0.06-0.51-0.18-0.63c-0.12-0.12-0.36-0.19-0.71-0.2v-0.34h2.84v5.14
			c0,0.29,0.06,0.5,0.17,0.61s0.33,0.18,0.65,0.21v0.33c-0.88,0.08-1.44,0.15-1.67,0.18c-0.23,0.04-0.6,0.14-1.1,0.3v-0.94
			c-0.34,0.29-0.62,0.5-0.84,0.62c-0.39,0.21-0.8,0.32-1.22,0.32c-0.46,0-0.89-0.15-1.29-0.44c-0.4-0.29-0.6-0.81-0.6-1.56v-3.6
			c0-0.3-0.05-0.5-0.15-0.6s-0.29-0.17-0.56-0.23v-0.34H84.04z"/>
		<path class="st13" d="M92.05,53.57v3.69c0.22-0.22,0.43-0.38,0.62-0.49c0.35-0.2,0.72-0.3,1.13-0.3c0.8,0,1.45,0.31,1.94,0.94
			c0.49,0.63,0.73,1.4,0.73,2.31c0,1.18-0.31,2.09-0.94,2.73c-0.62,0.64-1.4,0.96-2.33,0.96c-0.38,0-0.72-0.07-1.01-0.22
			c-0.29-0.15-0.57-0.34-0.82-0.59l-1.12,0.81h-0.2v-8.67c0-0.3-0.05-0.5-0.16-0.61s-0.31-0.18-0.6-0.22v-0.34H92.05z M92.21,62.46
			c0.17,0.33,0.45,0.49,0.84,0.49c0.49,0,0.83-0.26,1.03-0.77s0.3-1.25,0.3-2.19c0-0.75-0.09-1.39-0.27-1.93
			c-0.18-0.54-0.53-0.81-1.05-0.81c-0.31,0-0.55,0.11-0.73,0.34s-0.28,0.39-0.28,0.48v3.75C92.07,62.08,92.12,62.3,92.21,62.46z"/>
	</g>
</g>
</svg>
