<?xml version="1.0" encoding="utf-8"?>
<!-- Generator: Adobe Illustrator 26.5.0, SVG Export Plug-In . SVG Version: 6.00 Build 0)  -->
<svg version="1.1" id="Layer_1" xmlns="http://www.w3.org/2000/svg" xmlns:xlink="http://www.w3.org/1999/xlink" x="0px" y="0px"
	 viewBox="0 0 107.44 107.26" style="enable-background:new 0 0 107.44 107.26;" xml:space="preserve">
<style type="text/css">
	.st0{clip-path:url(#SVGID_00000063603946147833601050000008788796072863679151_);fill:#887976;}
	.st1{clip-path:url(#SVGID_00000063603946147833601050000008788796072863679151_);}
	.st2{fill:#081F40;}
	.st3{clip-path:url(#SVGID_00000128448534645790474450000009735447752728261807_);fill:#A51D31;}
	.st4{clip-path:url(#SVGID_00000128448534645790474450000009735447752728261807_);fill:#FFFFFF;}
	.st5{clip-path:url(#SVGID_00000065055025132557583980000012125489634092232371_);fill:#FFFFFF;}
	.st6{clip-path:url(#SVGID_00000065055025132557583980000012125489634092232371_);}
	.st7{fill:#0E2346;}
	.st8{clip-path:url(#SVGID_00000079457153662739447840000016341450554282105738_);fill:#643D18;}
	.st9{clip-path:url(#SVGID_00000079457153662739447840000016341450554282105738_);}
	.st10{fill:#FFFFFF;}
	.st11{clip-path:url(#SVGID_00000151514101605260180210000012832275310144560014_);fill:#1E2758;}
	.st12{clip-path:url(#SVGID_00000151514101605260180210000012832275310144560014_);}
	.st13{fill:#EB1C2D;}
	.st14{clip-path:url(#SVGID_00000037679738480328411550000006451258491759519897_);fill:#0D4E91;}
	.st15{clip-path:url(#SVGID_00000037679738480328411550000006451258491759519897_);}
	.st16{clip-path:url(#SVGID_00000029748713398984092050000004364178471437147548_);fill:#672A7A;}
	.st17{clip-path:url(#SVGID_00000029748713398984092050000004364178471437147548_);fill:#F9F186;}
	
		.st18{clip-path:url(#SVGID_00000029748713398984092050000004364178471437147548_);fill:none;stroke:#000000;stroke-width:1.069;stroke-miterlimit:10;}
	.st19{clip-path:url(#SVGID_00000029748713398984092050000004364178471437147548_);fill:#F5EC3B;}
	.st20{clip-path:url(#SVGID_00000078733208783449598160000000440679084018290826_);fill:#E77625;}
	.st21{clip-path:url(#SVGID_00000078733208783449598160000000440679084018290826_);}
	.st22{clip-path:url(#SVGID_00000098188986355532346230000013935215260070470045_);fill:#D8272D;}
	.st23{clip-path:url(#SVGID_00000098188986355532346230000013935215260070470045_);}
	.st24{clip-path:url(#SVGID_00000175300907205553156230000003588482182669909389_);fill:#00954C;}
	.st25{clip-path:url(#SVGID_00000175300907205553156230000003588482182669909389_);}
	.st26{clip-path:url(#SVGID_00000039812743996461354800000000055536690467290530_);fill:#42B4E4;}
	.st27{clip-path:url(#SVGID_00000039812743996461354800000000055536690467290530_);}
	.st28{clip-path:url(#SVGID_00000115473620491419726870000006216011286715170209_);}
</style>
<g>
	<defs>
		<path id="SVGID_00000128476413606591785910000011984817037828870573_" d="M107.44,53.63c0,29.6-24.07,53.63-53.72,53.63
			C24.07,107.26,0,83.23,0,53.63S24.07,0,53.72,0C83.38,0,107.44,24.03,107.44,53.63z"/>
	</defs>
	<clipPath id="SVGID_00000017492333528808586520000016805453014161933191_">
		<use xlink:href="#SVGID_00000128476413606591785910000011984817037828870573_"  style="overflow:visible;"/>
	</clipPath>
	<path style="clip-path:url(#SVGID_00000017492333528808586520000016805453014161933191_);fill:#E77625;" d="M53.72,115.86
		c34.36,0,62.23-27.86,62.23-62.22c0-34.37-27.86-62.23-62.23-62.23S-8.51,19.27-8.51,53.64C-8.51,88,19.35,115.86,53.72,115.86"/>
	<g style="clip-path:url(#SVGID_00000017492333528808586520000016805453014161933191_);">
		<path d="M11.31,46.56c0.33-0.01,0.57-0.05,0.71-0.12c0.24-0.12,0.35-0.36,0.35-0.7v-5.67c0-0.34-0.11-0.58-0.34-0.69
			c-0.14-0.07-0.38-0.12-0.73-0.13v-0.3h4.09v0.3c-0.37,0.02-0.62,0.06-0.75,0.12c-0.23,0.12-0.34,0.35-0.34,0.7v5.67
			c0,0.33,0.09,0.55,0.27,0.66c0.18,0.11,0.46,0.17,0.82,0.17v0.3h-4.09V46.56z"/>
		<path d="M15.84,46.58c0.24-0.02,0.41-0.07,0.52-0.16c0.1-0.09,0.16-0.27,0.16-0.55v-3.81h-0.67v-0.51h0.67v-0.43
			c0-0.54,0.09-0.99,0.26-1.34c0.32-0.66,0.92-0.98,1.79-0.98c0.46,0,0.86,0.11,1.18,0.32c0.32,0.21,0.48,0.49,0.48,0.84
			c0,0.22-0.07,0.39-0.2,0.53c-0.13,0.13-0.32,0.2-0.54,0.2c-0.19,0-0.35-0.06-0.48-0.18c-0.13-0.12-0.2-0.27-0.2-0.44
			c0-0.13,0.04-0.27,0.13-0.41c0.09-0.14,0.13-0.23,0.13-0.26c0-0.1-0.03-0.16-0.1-0.18c-0.07-0.03-0.14-0.04-0.22-0.04
			c-0.19,0-0.34,0.06-0.44,0.17c-0.1,0.11-0.15,0.35-0.15,0.71v1.52h1.02v0.51h-1.02v3.6c0,0.4,0.06,0.65,0.17,0.74
			c0.12,0.09,0.37,0.15,0.77,0.18v0.28h-3.25V46.58z"/>
		<path d="M22.69,46.58c0.21-0.03,0.35-0.09,0.42-0.15c0.11-0.1,0.17-0.29,0.17-0.55v-3.44c0-0.24-0.04-0.4-0.12-0.49
			s-0.24-0.15-0.47-0.19v-0.28h2.25v4.45c0,0.26,0.04,0.42,0.11,0.49c0.08,0.07,0.22,0.13,0.43,0.17v0.28h-2.79V46.58z M23.47,39.04
			c0.18-0.18,0.39-0.27,0.64-0.27c0.25,0,0.46,0.09,0.64,0.27c0.18,0.18,0.27,0.39,0.27,0.64c0,0.25-0.09,0.47-0.27,0.64
			c-0.18,0.18-0.39,0.27-0.64,0.27c-0.25,0-0.47-0.09-0.64-0.27c-0.18-0.18-0.27-0.39-0.27-0.64
			C23.21,39.43,23.29,39.22,23.47,39.04z"/>
		<path d="M25.94,41.99v-0.33c0.1-0.1,0.23-0.21,0.38-0.34c0.2-0.19,0.39-0.38,0.57-0.58c0.35-0.39,0.68-0.81,0.97-1.25h0.3v1.98
			h1.11v0.51h-1.11v3.52c0,0.16,0.02,0.3,0.07,0.41c0.08,0.17,0.2,0.26,0.38,0.26c0.15,0,0.28-0.05,0.38-0.16
			c0.1-0.11,0.21-0.26,0.31-0.45l0.28,0.14c-0.14,0.32-0.3,0.58-0.49,0.78c-0.33,0.35-0.74,0.53-1.23,0.53
			c-0.27,0-0.51-0.05-0.72-0.15c-0.4-0.2-0.59-0.56-0.6-1.08v-3.8H25.94z"/>
		<path d="M30.67,42.45c0.35-0.24,0.62-0.46,0.79-0.63c0.32-0.32,0.48-0.62,0.48-0.9c0-0.08-0.02-0.14-0.06-0.19
			c-0.04-0.05-0.1-0.07-0.18-0.07c-0.13,0.02-0.21,0.03-0.25,0.03c-0.25,0-0.46-0.08-0.62-0.25s-0.25-0.39-0.25-0.65
			c0-0.29,0.09-0.53,0.26-0.71c0.17-0.18,0.41-0.27,0.71-0.27c0.33,0,0.61,0.12,0.84,0.36c0.23,0.24,0.34,0.57,0.34,0.99
			c0,0.61-0.23,1.16-0.7,1.66c-0.3,0.32-0.71,0.62-1.24,0.92L30.67,42.45z"/>
		<path d="M33.43,45.09h0.33c0.11,0.56,0.33,0.96,0.64,1.19s0.63,0.35,0.96,0.35c0.3,0,0.52-0.07,0.66-0.2
			c0.14-0.13,0.21-0.31,0.21-0.53c0-0.21-0.08-0.39-0.23-0.54c-0.08-0.08-0.22-0.17-0.41-0.26l-0.87-0.42
			c-0.46-0.22-0.79-0.47-0.98-0.73c-0.2-0.26-0.3-0.57-0.3-0.93c0-0.45,0.16-0.84,0.47-1.17s0.76-0.49,1.33-0.49
			c0.25,0,0.51,0.04,0.79,0.12s0.45,0.12,0.52,0.12c0.09,0,0.16-0.02,0.2-0.06s0.07-0.1,0.1-0.17h0.26v1.69h-0.3
			c-0.11-0.4-0.29-0.71-0.54-0.95c-0.25-0.24-0.54-0.36-0.88-0.36c-0.26,0-0.45,0.07-0.58,0.22s-0.19,0.3-0.19,0.47
			c0,0.14,0.06,0.27,0.17,0.41c0.11,0.14,0.32,0.29,0.63,0.43l0.64,0.31c0.4,0.19,0.69,0.38,0.87,0.55c0.3,0.3,0.46,0.68,0.46,1.13
			c0,0.43-0.16,0.84-0.47,1.21c-0.31,0.38-0.79,0.56-1.42,0.56c-0.16,0-0.31-0.02-0.47-0.05s-0.35-0.09-0.59-0.17l-0.2-0.07
			c-0.07-0.03-0.12-0.04-0.13-0.05c-0.02,0-0.04-0.01-0.07-0.01c-0.07,0-0.12,0.03-0.17,0.08c-0.05,0.05-0.1,0.14-0.16,0.26h-0.28
			V45.09z"/>
		<path d="M41.62,42.14c0.5-0.54,1.13-0.82,1.89-0.82c0.77,0,1.41,0.28,1.9,0.83c0.49,0.56,0.74,1.23,0.74,2.02
			c0,0.78-0.24,1.45-0.73,2.02c-0.49,0.56-1.12,0.84-1.91,0.84c-0.76,0-1.39-0.27-1.89-0.82c-0.5-0.55-0.75-1.23-0.75-2.04
			C40.87,43.36,41.12,42.68,41.62,42.14z M42.72,45.9c0.13,0.51,0.4,0.76,0.79,0.76c0.38,0,0.62-0.19,0.74-0.58s0.18-1.02,0.18-1.9
			c0-0.87-0.06-1.5-0.19-1.89s-0.37-0.59-0.73-0.59c-0.4,0-0.66,0.25-0.79,0.76c-0.09,0.34-0.13,0.91-0.13,1.72
			C42.59,45,42.63,45.57,42.72,45.9z"/>
		<path d="M46.68,46.58c0.22-0.03,0.38-0.08,0.47-0.16c0.09-0.08,0.13-0.23,0.14-0.46l0.01-0.34v-3.18c0-0.25-0.04-0.41-0.13-0.5
			s-0.25-0.15-0.5-0.18v-0.28h2.22v0.92c0.25-0.32,0.49-0.58,0.74-0.77c0.24-0.19,0.53-0.29,0.85-0.29c0.24,0,0.46,0.08,0.65,0.23
			c0.19,0.15,0.29,0.38,0.29,0.68c0,0.23-0.07,0.42-0.2,0.57c-0.14,0.15-0.31,0.22-0.53,0.22c-0.25,0-0.46-0.12-0.64-0.35
			c-0.18-0.23-0.31-0.35-0.38-0.35c-0.16,0-0.31,0.1-0.47,0.29s-0.24,0.47-0.24,0.83v2.22c0,0.39,0.06,0.63,0.17,0.72
			s0.34,0.16,0.67,0.19v0.28h-3.12V46.58z"/>
		<path d="M52.72,44.51c0.51-0.31,1.3-0.62,2.38-0.93v-0.85c0-0.35-0.07-0.6-0.22-0.77c-0.15-0.17-0.41-0.25-0.78-0.25
			c-0.21,0-0.38,0.04-0.52,0.12c-0.14,0.08-0.2,0.18-0.2,0.29c0,0.05,0.01,0.08,0.02,0.11c0.01,0.03,0.04,0.06,0.07,0.1l0.07,0.08
			c0.05,0.06,0.1,0.14,0.13,0.21s0.05,0.16,0.05,0.25c0,0.22-0.07,0.39-0.22,0.51c-0.15,0.12-0.32,0.18-0.51,0.18
			c-0.22,0-0.42-0.07-0.57-0.2c-0.16-0.13-0.24-0.33-0.24-0.58c0-0.45,0.21-0.8,0.63-1.07c0.42-0.26,0.94-0.39,1.56-0.39
			c0.66,0,1.22,0.13,1.66,0.38c0.44,0.26,0.66,0.74,0.66,1.43v2.83c0,0.08,0.02,0.16,0.07,0.21c0.04,0.06,0.09,0.09,0.15,0.09
			c0.05,0,0.09-0.01,0.12-0.03c0.04-0.02,0.09-0.06,0.17-0.14l0.18,0.25c-0.23,0.27-0.48,0.45-0.76,0.56
			c-0.18,0.07-0.36,0.1-0.55,0.1c-0.35,0-0.6-0.1-0.76-0.3c-0.09-0.11-0.16-0.28-0.2-0.51c-0.32,0.32-0.69,0.55-1.1,0.69
			c-0.25,0.08-0.49,0.13-0.73,0.13c-0.32,0-0.62-0.1-0.9-0.31s-0.42-0.52-0.42-0.95C51.96,45.24,52.22,44.82,52.72,44.51z
			 M54.77,46.02c0.09-0.07,0.2-0.18,0.33-0.32v-1.71c-0.31,0.08-0.59,0.2-0.82,0.36c-0.4,0.28-0.6,0.63-0.6,1.07
			c0,0.26,0.06,0.45,0.17,0.58c0.12,0.13,0.25,0.2,0.39,0.2C54.42,46.19,54.6,46.14,54.77,46.02z"/>
		<path d="M57.71,46.58c0.21-0.03,0.37-0.08,0.47-0.17c0.1-0.09,0.15-0.27,0.15-0.54v-3.44c0-0.24-0.04-0.4-0.12-0.5
			s-0.25-0.15-0.5-0.18v-0.28h2.22v0.84c0.19-0.28,0.42-0.52,0.71-0.7c0.29-0.19,0.61-0.28,0.96-0.28c0.5,0,0.89,0.13,1.17,0.39
			c0.28,0.26,0.42,0.71,0.42,1.37v2.83c0,0.26,0.04,0.43,0.13,0.51s0.24,0.13,0.45,0.15v0.28h-2.75v-0.28
			c0.21-0.04,0.35-0.1,0.43-0.17c0.08-0.07,0.11-0.24,0.11-0.49v-2.84c0-0.27-0.03-0.47-0.08-0.6c-0.09-0.24-0.27-0.36-0.54-0.36
			c-0.2,0-0.39,0.07-0.56,0.22c-0.17,0.15-0.3,0.29-0.39,0.44v3.13c0,0.26,0.04,0.42,0.11,0.49c0.08,0.07,0.22,0.13,0.43,0.17v0.28
			h-2.82V46.58z"/>
		<path d="M64.51,47.7c0.14-0.18,0.38-0.29,0.72-0.35v-0.08C65,47.19,64.84,47.1,64.74,47c-0.18-0.16-0.27-0.38-0.27-0.66
			c0-0.33,0.14-0.61,0.43-0.84s0.57-0.39,0.84-0.49v-0.08c-0.4-0.16-0.72-0.39-0.96-0.69c-0.24-0.3-0.37-0.66-0.37-1.08
			c0-0.53,0.21-0.97,0.64-1.32c0.43-0.35,1-0.52,1.73-0.52c0.27,0,0.53,0.03,0.75,0.08c0.23,0.05,0.41,0.11,0.53,0.17h1.54v0.62
			h-0.95c0.15,0.15,0.27,0.32,0.35,0.52c0.08,0.2,0.12,0.41,0.12,0.65c0,0.73-0.35,1.23-1.05,1.5c-0.37,0.14-0.82,0.22-1.37,0.22
			c-0.12,0-0.2,0-0.23-0.01c-0.04,0-0.09,0-0.16,0c-0.11,0.02-0.23,0.08-0.36,0.18c-0.13,0.11-0.19,0.23-0.19,0.38
			c0,0.12,0.03,0.21,0.1,0.27s0.15,0.1,0.27,0.12c0.06,0.01,0.18,0.01,0.37,0.02c0.19,0.01,0.33,0.01,0.43,0.01l0.76,0.01
			c0.43,0.01,0.79,0.07,1.09,0.19c0.56,0.23,0.84,0.64,0.84,1.23c0,0.76-0.42,1.29-1.26,1.57c-0.44,0.15-1,0.22-1.67,0.22
			c-0.55,0-1.02-0.05-1.42-0.16c-0.66-0.18-0.98-0.48-0.98-0.92C64.3,48.05,64.37,47.88,64.51,47.7z M65.72,48.71
			c0.26,0.14,0.63,0.21,1.12,0.21c0.43,0,0.79-0.04,1.07-0.1c0.53-0.13,0.79-0.37,0.79-0.72c0-0.2-0.08-0.35-0.23-0.46
			c-0.15-0.1-0.42-0.15-0.82-0.15h-1.92c-0.12,0.1-0.21,0.18-0.26,0.25c-0.09,0.13-0.14,0.26-0.14,0.4
			C65.33,48.38,65.46,48.57,65.72,48.71z M66.13,44.22c0.11,0.34,0.33,0.51,0.66,0.51c0.29,0,0.5-0.13,0.61-0.39
			c0.11-0.26,0.17-0.63,0.17-1.13c0-0.53-0.06-0.91-0.17-1.15c-0.12-0.24-0.32-0.36-0.6-0.36c-0.31,0-0.51,0.13-0.62,0.39
			c-0.1,0.26-0.15,0.63-0.15,1.12C66.01,43.67,66.05,44,66.13,44.22z"/>
		<path d="M70.86,42.08c0.48-0.5,1.06-0.75,1.73-0.75c0.39,0,0.75,0.1,1.09,0.3c0.34,0.2,0.6,0.48,0.78,0.84
			c0.14,0.27,0.23,0.62,0.29,1.05c0.03,0.2,0.04,0.36,0.04,0.46H71.8c0.03,0.47,0.1,0.88,0.23,1.22c0.23,0.64,0.63,0.97,1.21,0.97
			c0.27,0,0.53-0.09,0.78-0.26c0.15-0.1,0.33-0.28,0.56-0.52l0.27,0.17c-0.36,0.59-0.78,1.01-1.26,1.24
			c-0.31,0.15-0.66,0.22-1.06,0.22c-0.58,0-1.12-0.23-1.62-0.68c-0.5-0.45-0.76-1.18-0.76-2.17C70.14,43.28,70.38,42.58,70.86,42.08
			z M73.35,43.56c-0.01-0.69-0.06-1.17-0.16-1.45s-0.3-0.41-0.6-0.41c-0.31,0-0.52,0.16-0.63,0.47c-0.11,0.32-0.18,0.78-0.19,1.38
			H73.35z"/>
		<path d="M79.07,44.51c0.51-0.31,1.3-0.62,2.38-0.93v-0.85c0-0.35-0.07-0.6-0.22-0.77c-0.15-0.17-0.41-0.25-0.78-0.25
			c-0.21,0-0.38,0.04-0.52,0.12c-0.14,0.08-0.2,0.18-0.2,0.29c0,0.05,0.01,0.08,0.02,0.11c0.01,0.03,0.04,0.06,0.07,0.1l0.07,0.08
			c0.05,0.06,0.1,0.14,0.13,0.21s0.05,0.16,0.05,0.25c0,0.22-0.07,0.39-0.22,0.51s-0.32,0.18-0.51,0.18c-0.22,0-0.42-0.07-0.57-0.2
			c-0.16-0.13-0.24-0.33-0.24-0.58c0-0.45,0.21-0.8,0.63-1.07c0.42-0.26,0.94-0.39,1.56-0.39c0.66,0,1.22,0.13,1.66,0.38
			c0.44,0.26,0.66,0.74,0.66,1.43v2.83c0,0.08,0.02,0.16,0.07,0.21c0.04,0.06,0.09,0.09,0.15,0.09c0.05,0,0.09-0.01,0.12-0.03
			c0.04-0.02,0.09-0.06,0.17-0.14l0.18,0.25c-0.23,0.27-0.48,0.45-0.76,0.56c-0.18,0.07-0.36,0.1-0.55,0.1c-0.35,0-0.6-0.1-0.76-0.3
			c-0.09-0.11-0.16-0.28-0.2-0.51c-0.32,0.32-0.69,0.55-1.1,0.69c-0.25,0.08-0.49,0.13-0.73,0.13c-0.32,0-0.62-0.1-0.9-0.31
			s-0.42-0.52-0.42-0.95C78.31,45.24,78.56,44.82,79.07,44.51z M81.11,46.02c0.09-0.07,0.2-0.18,0.33-0.32v-1.71
			c-0.31,0.08-0.59,0.2-0.82,0.36c-0.4,0.28-0.6,0.63-0.6,1.07c0,0.26,0.06,0.45,0.17,0.58c0.12,0.13,0.25,0.2,0.39,0.2
			C80.77,46.19,80.94,46.14,81.11,46.02z"/>
		<path d="M84.05,46.58c0.21-0.03,0.37-0.08,0.47-0.17c0.1-0.09,0.15-0.27,0.15-0.54v-3.44c0-0.24-0.04-0.4-0.12-0.5
			s-0.25-0.15-0.5-0.18v-0.28h2.22v0.84c0.19-0.28,0.42-0.52,0.71-0.7c0.29-0.19,0.61-0.28,0.96-0.28c0.5,0,0.89,0.13,1.17,0.39
			c0.28,0.26,0.42,0.71,0.42,1.37v2.83c0,0.26,0.04,0.43,0.13,0.51s0.24,0.13,0.45,0.15v0.28h-2.75v-0.28
			c0.21-0.04,0.35-0.1,0.43-0.17c0.08-0.07,0.11-0.24,0.11-0.49v-2.84c0-0.27-0.03-0.47-0.08-0.6c-0.09-0.24-0.27-0.36-0.54-0.36
			c-0.2,0-0.39,0.07-0.56,0.22c-0.17,0.15-0.3,0.29-0.39,0.44v3.13c0,0.26,0.04,0.42,0.11,0.49c0.08,0.07,0.22,0.13,0.43,0.17v0.28
			h-2.82V46.58z"/>
		<path d="M91.33,42.14c0.44-0.54,0.97-0.8,1.59-0.8c0.31,0,0.58,0.08,0.82,0.23c0.15,0.09,0.33,0.26,0.56,0.49v-2.14
			c0-0.3-0.06-0.48-0.17-0.55s-0.35-0.11-0.71-0.13v-0.28h2.52v6.74c0,0.24,0.05,0.41,0.14,0.5c0.09,0.09,0.27,0.15,0.54,0.17v0.27
			c-0.66,0.06-1.08,0.11-1.27,0.15s-0.53,0.12-1.01,0.25v-0.77c-0.22,0.23-0.42,0.4-0.61,0.51c-0.29,0.18-0.6,0.26-0.94,0.26
			c-0.57,0-1.07-0.24-1.49-0.73c-0.42-0.48-0.63-1.14-0.63-1.97C90.67,43.4,90.89,42.67,91.33,42.14z M94,46.03
			c0.2-0.22,0.3-0.38,0.3-0.47v-2.85c0-0.1-0.09-0.24-0.26-0.42C93.87,42.1,93.64,42,93.36,42c-0.42,0-0.7,0.29-0.85,0.86
			c-0.08,0.31-0.12,0.75-0.12,1.31c0,0.6,0.04,1.06,0.11,1.36c0.14,0.55,0.41,0.83,0.81,0.83C93.57,46.36,93.8,46.25,94,46.03z"/>
	</g>
	<g style="clip-path:url(#SVGID_00000017492333528808586520000016805453014161933191_);">
		<path d="M10.86,57.15c0.24-0.02,0.41-0.07,0.52-0.16c0.1-0.09,0.16-0.27,0.16-0.55v-3.81h-0.67v-0.51h0.67v-0.43
			c0-0.54,0.09-0.99,0.26-1.34c0.32-0.66,0.92-0.98,1.79-0.98c0.46,0,0.86,0.11,1.18,0.32c0.32,0.21,0.48,0.49,0.48,0.84
			c0,0.22-0.07,0.39-0.2,0.53c-0.13,0.13-0.32,0.2-0.54,0.2c-0.19,0-0.35-0.06-0.48-0.18s-0.2-0.27-0.2-0.44
			c0-0.13,0.04-0.27,0.13-0.41c0.09-0.14,0.13-0.23,0.13-0.26c0-0.1-0.03-0.16-0.1-0.18c-0.07-0.03-0.14-0.04-0.22-0.04
			c-0.19,0-0.34,0.05-0.44,0.17c-0.1,0.11-0.15,0.35-0.15,0.71v1.51h1.02v0.51h-1.02v3.6c0,0.4,0.06,0.65,0.17,0.74
			c0.12,0.09,0.37,0.15,0.77,0.18v0.28h-3.25V57.15z"/>
		<path d="M14.81,57.15c0.22-0.03,0.38-0.08,0.47-0.16c0.09-0.08,0.13-0.23,0.14-0.46l0.01-0.34V53c0-0.25-0.04-0.41-0.13-0.5
			c-0.08-0.09-0.25-0.15-0.5-0.18v-0.28h2.22v0.92c0.25-0.32,0.49-0.58,0.74-0.77c0.24-0.19,0.53-0.29,0.85-0.29
			c0.24,0,0.46,0.08,0.65,0.23c0.19,0.15,0.29,0.38,0.29,0.68c0,0.23-0.07,0.42-0.2,0.57c-0.14,0.15-0.31,0.22-0.53,0.22
			c-0.25,0-0.46-0.12-0.64-0.35s-0.31-0.35-0.38-0.35c-0.16,0-0.31,0.1-0.47,0.29s-0.24,0.47-0.24,0.83v2.22
			c0,0.39,0.06,0.63,0.17,0.72s0.34,0.16,0.67,0.19v0.28h-3.12V57.15z"/>
		<path d="M20.6,52.71c0.5-0.54,1.13-0.82,1.89-0.82c0.77,0,1.41,0.28,1.9,0.83c0.49,0.56,0.74,1.23,0.74,2.02
			c0,0.78-0.24,1.45-0.73,2.02c-0.49,0.56-1.12,0.84-1.91,0.84c-0.76,0-1.39-0.27-1.89-0.82c-0.5-0.55-0.75-1.23-0.75-2.04
			C19.85,53.93,20.1,53.25,20.6,52.71z M21.7,56.47c0.13,0.51,0.4,0.76,0.79,0.76c0.38,0,0.62-0.19,0.74-0.58s0.18-1.02,0.18-1.9
			c0-0.87-0.06-1.5-0.19-1.89s-0.37-0.59-0.73-0.59c-0.4,0-0.66,0.25-0.79,0.76c-0.09,0.34-0.13,0.91-0.13,1.72
			C21.57,55.57,21.62,56.14,21.7,56.47z"/>
		<path d="M25.64,57.15c0.21-0.03,0.36-0.07,0.44-0.14c0.13-0.1,0.19-0.29,0.19-0.57V53c0-0.25-0.04-0.41-0.13-0.5
			c-0.09-0.09-0.25-0.15-0.5-0.18v-0.28h2.22v0.84c0.19-0.25,0.38-0.45,0.57-0.59c0.34-0.25,0.72-0.38,1.13-0.38
			c0.47,0,0.83,0.11,1.09,0.33c0.15,0.12,0.28,0.33,0.41,0.62h0.08c0.22-0.27,0.43-0.47,0.63-0.61c0.32-0.22,0.67-0.34,1.05-0.34
			c0.41,0,0.77,0.13,1.09,0.39s0.47,0.68,0.47,1.25v2.94c0,0.27,0.04,0.44,0.13,0.52s0.24,0.12,0.46,0.15v0.28H32.2v-0.28
			c0.21-0.03,0.36-0.08,0.45-0.16c0.08-0.07,0.12-0.24,0.12-0.51v-2.84c0-0.3-0.04-0.54-0.13-0.71c-0.09-0.17-0.26-0.25-0.51-0.25
			c-0.2,0-0.42,0.09-0.64,0.28s-0.33,0.31-0.33,0.39v3.13c0,0.26,0.04,0.42,0.11,0.49c0.08,0.07,0.22,0.13,0.43,0.17v0.28h-2.74
			v-0.28c0.21-0.03,0.35-0.08,0.44-0.15c0.09-0.07,0.13-0.25,0.13-0.51v-2.84c0-0.3-0.04-0.53-0.13-0.7
			c-0.08-0.17-0.26-0.26-0.52-0.26c-0.24,0-0.46,0.1-0.67,0.29c-0.21,0.2-0.31,0.32-0.31,0.37v3.13c0,0.26,0.04,0.42,0.11,0.49
			c0.07,0.07,0.21,0.13,0.43,0.17v0.28h-2.8V57.15z"/>
		<path d="M38.32,57.13c0.43-0.01,0.71-0.09,0.84-0.25s0.19-0.38,0.19-0.68v-5.54c-0.36-0.4-0.58-0.64-0.66-0.71
			s-0.2-0.12-0.34-0.13v-0.3h2.48l4.03,4.89h0.06v-3.44c0-0.4-0.07-0.68-0.22-0.85c-0.14-0.17-0.43-0.27-0.86-0.31v-0.3h2.52v0.3
			c-0.37,0.06-0.61,0.14-0.74,0.25c-0.12,0.1-0.19,0.33-0.19,0.69v6.9h-0.33l-5.15-6.26h-0.08v4.59c0,0.36,0.05,0.62,0.15,0.76
			c0.16,0.24,0.48,0.37,0.96,0.39v0.3h-2.65V57.13z"/>
		<path d="M47.56,52.65c0.48-0.5,1.06-0.75,1.73-0.75c0.39,0,0.75,0.1,1.09,0.3s0.6,0.48,0.78,0.84c0.14,0.27,0.23,0.62,0.29,1.05
			c0.03,0.2,0.04,0.36,0.04,0.46H48.5c0.03,0.47,0.1,0.88,0.23,1.22c0.23,0.64,0.63,0.97,1.21,0.97c0.27,0,0.53-0.09,0.78-0.26
			c0.15-0.1,0.33-0.28,0.56-0.52l0.27,0.17c-0.36,0.59-0.78,1.01-1.26,1.24c-0.31,0.15-0.66,0.22-1.06,0.22
			c-0.58,0-1.12-0.23-1.62-0.68c-0.5-0.45-0.76-1.18-0.76-2.17C46.84,53.85,47.08,53.15,47.56,52.65z M50.05,54.13
			c-0.01-0.69-0.06-1.17-0.16-1.45s-0.3-0.41-0.6-0.41c-0.31,0-0.52,0.16-0.63,0.47c-0.11,0.32-0.18,0.78-0.19,1.38H50.05z"/>
		<path d="M54.57,52.04v0.28c-0.13,0.01-0.24,0.04-0.33,0.08s-0.13,0.13-0.13,0.27c0,0.05,0.01,0.09,0.02,0.13
			c0.01,0.04,0.03,0.11,0.07,0.2l0.91,2.29h0.04l0.75-1.93c0-0.03-0.03-0.14-0.09-0.35c-0.06-0.21-0.11-0.35-0.15-0.43
			c-0.06-0.11-0.12-0.17-0.17-0.2c-0.06-0.03-0.17-0.05-0.34-0.07v-0.28h2.74v0.28c-0.17,0.01-0.3,0.03-0.4,0.06
			c-0.1,0.04-0.15,0.1-0.15,0.2c0,0.06,0.01,0.12,0.02,0.2c0.01,0.08,0.04,0.18,0.08,0.3l0.7,2.1h-0.06l0.87-2.24
			c0.01-0.04,0.02-0.07,0.03-0.11c0.01-0.03,0.01-0.07,0.01-0.1c0-0.17-0.05-0.27-0.15-0.32c-0.1-0.05-0.24-0.08-0.43-0.1v-0.28
			h1.59v0.28c-0.14,0.03-0.25,0.08-0.33,0.15s-0.16,0.22-0.25,0.44l-1.82,4.69h-0.27l-1.21-3.62h-0.05l-1.4,3.62h-0.29l-1.73-4.38
			c-0.14-0.36-0.25-0.6-0.32-0.7c-0.07-0.1-0.18-0.17-0.34-0.2v-0.28H54.57z"/>
		<path d="M68.77,49.52v0.3c-0.42,0.03-0.7,0.1-0.84,0.22c-0.14,0.12-0.22,0.4-0.22,0.85v5.05c0,0.83-0.22,1.48-0.67,1.94
			c-0.45,0.47-1.09,0.7-1.91,0.7c-0.58,0-1.05-0.16-1.4-0.47s-0.53-0.65-0.53-1.01c0-0.29,0.08-0.52,0.25-0.68
			c0.17-0.16,0.37-0.25,0.6-0.25s0.42,0.08,0.57,0.24s0.22,0.35,0.22,0.57c0,0.19-0.05,0.37-0.14,0.54
			c-0.09,0.17-0.14,0.27-0.14,0.3c0,0.11,0.04,0.2,0.13,0.26c0.09,0.06,0.2,0.09,0.33,0.09c0.35,0,0.58-0.11,0.7-0.34
			c0.06-0.14,0.1-0.37,0.1-0.69v-6.51c0-0.35-0.12-0.58-0.35-0.7c-0.14-0.07-0.42-0.11-0.83-0.12v-0.3H68.77z"/>
		<path d="M69.99,52.65c0.48-0.5,1.06-0.75,1.73-0.75c0.39,0,0.75,0.1,1.09,0.3s0.6,0.48,0.78,0.84c0.14,0.27,0.23,0.62,0.29,1.05
			c0.03,0.2,0.04,0.36,0.04,0.46h-2.99c0.03,0.47,0.1,0.88,0.23,1.22c0.23,0.64,0.63,0.97,1.21,0.97c0.27,0,0.53-0.09,0.78-0.26
			c0.15-0.1,0.33-0.28,0.56-0.52l0.27,0.17c-0.36,0.59-0.78,1.01-1.26,1.24c-0.31,0.15-0.66,0.22-1.06,0.22
			c-0.58,0-1.12-0.23-1.62-0.68c-0.5-0.45-0.76-1.18-0.76-2.17C69.28,53.85,69.52,53.15,69.99,52.65z M72.48,54.13
			c-0.01-0.69-0.06-1.17-0.16-1.45s-0.3-0.41-0.6-0.41c-0.31,0-0.52,0.16-0.63,0.47c-0.11,0.32-0.18,0.78-0.19,1.38H72.48z"/>
		<path d="M74.43,57.15c0.22-0.03,0.38-0.08,0.47-0.16c0.09-0.08,0.13-0.23,0.14-0.46l0.01-0.34V53c0-0.25-0.04-0.41-0.13-0.5
			c-0.08-0.09-0.25-0.15-0.5-0.18v-0.28h2.22v0.92c0.25-0.32,0.49-0.58,0.74-0.77c0.24-0.19,0.53-0.29,0.85-0.29
			c0.24,0,0.46,0.08,0.65,0.23c0.19,0.15,0.29,0.38,0.29,0.68c0,0.23-0.07,0.42-0.2,0.57c-0.14,0.15-0.31,0.22-0.53,0.22
			c-0.25,0-0.46-0.12-0.64-0.35s-0.31-0.35-0.38-0.35c-0.16,0-0.31,0.1-0.47,0.29s-0.24,0.47-0.24,0.83v2.22
			c0,0.39,0.06,0.63,0.17,0.72s0.34,0.16,0.67,0.19v0.28h-3.12V57.15z"/>
		<path d="M79.71,55.66h0.33c0.11,0.56,0.33,0.96,0.64,1.19s0.63,0.35,0.96,0.35c0.3,0,0.52-0.07,0.66-0.2
			c0.14-0.13,0.21-0.31,0.21-0.53c0-0.21-0.08-0.39-0.23-0.54c-0.08-0.08-0.22-0.17-0.41-0.26l-0.87-0.42
			c-0.46-0.22-0.79-0.47-0.98-0.73c-0.2-0.26-0.3-0.57-0.3-0.93c0-0.45,0.16-0.84,0.47-1.17c0.32-0.33,0.76-0.49,1.33-0.49
			c0.25,0,0.51,0.04,0.79,0.12s0.45,0.12,0.52,0.12c0.09,0,0.16-0.02,0.2-0.06s0.07-0.1,0.1-0.17h0.26v1.69h-0.3
			c-0.11-0.4-0.29-0.71-0.54-0.95s-0.54-0.36-0.88-0.36c-0.26,0-0.45,0.07-0.58,0.22c-0.13,0.15-0.19,0.3-0.19,0.47
			c0,0.14,0.06,0.27,0.17,0.41c0.11,0.14,0.32,0.29,0.63,0.43l0.64,0.31c0.4,0.19,0.69,0.38,0.87,0.55c0.3,0.3,0.46,0.68,0.46,1.13
			c0,0.43-0.16,0.84-0.47,1.21c-0.31,0.38-0.79,0.56-1.42,0.56c-0.16,0-0.31-0.02-0.47-0.05s-0.35-0.09-0.59-0.17l-0.2-0.07
			c-0.07-0.03-0.12-0.04-0.13-0.05c-0.02,0-0.04-0.01-0.07-0.01c-0.07,0-0.12,0.03-0.17,0.08c-0.05,0.05-0.1,0.14-0.16,0.26h-0.28
			V55.66z"/>
		<path d="M84.94,52.65c0.48-0.5,1.06-0.75,1.73-0.75c0.39,0,0.75,0.1,1.09,0.3s0.6,0.48,0.78,0.84c0.14,0.27,0.23,0.62,0.29,1.05
			c0.03,0.2,0.04,0.36,0.04,0.46h-2.99c0.03,0.47,0.1,0.88,0.23,1.22c0.23,0.64,0.63,0.97,1.21,0.97c0.27,0,0.53-0.09,0.78-0.26
			c0.15-0.1,0.33-0.28,0.56-0.52l0.27,0.17c-0.36,0.59-0.78,1.01-1.26,1.24C87.36,57.52,87,57.6,86.6,57.6
			c-0.58,0-1.12-0.23-1.62-0.68c-0.5-0.45-0.76-1.18-0.76-2.17C84.23,53.85,84.47,53.15,84.94,52.65z M87.43,54.13
			c-0.01-0.69-0.06-1.17-0.16-1.45s-0.3-0.41-0.6-0.41c-0.31,0-0.52,0.16-0.63,0.47c-0.11,0.32-0.18,0.78-0.19,1.38H87.43z"/>
		<path d="M89.41,58.35c0.16-0.13,0.36-0.19,0.59-0.19c0.2,0,0.36,0.06,0.49,0.17s0.19,0.24,0.19,0.39l-0.03,0.26
			c0,0.05,0.02,0.1,0.06,0.14s0.09,0.06,0.15,0.06c0.2,0,0.39-0.16,0.57-0.48c0.11-0.2,0.27-0.58,0.48-1.15l-1.39-3.43
			c-0.1-0.24-0.2-0.47-0.29-0.69c-0.09-0.21-0.19-0.42-0.29-0.62c-0.11-0.21-0.19-0.34-0.25-0.39c-0.06-0.05-0.17-0.09-0.33-0.1
			v-0.28h2.93v0.28c-0.18,0-0.33,0.03-0.45,0.06s-0.17,0.12-0.17,0.25c0,0.03,0.01,0.06,0.02,0.11s0.04,0.13,0.09,0.25l0.93,2.3
			h0.06l0.77-2.06c0.04-0.11,0.07-0.21,0.09-0.3c0.02-0.08,0.04-0.16,0.04-0.23c0-0.16-0.05-0.27-0.16-0.31s-0.27-0.07-0.48-0.07
			v-0.28h1.77v0.28c-0.15,0.01-0.28,0.05-0.38,0.12c-0.1,0.07-0.2,0.24-0.3,0.51l-1.75,4.67c-0.34,0.86-0.63,1.45-0.88,1.75
			s-0.63,0.46-1.15,0.46c-0.38,0-0.67-0.09-0.87-0.28c-0.2-0.19-0.3-0.4-0.3-0.62C89.17,58.67,89.25,58.48,89.41,58.35z"/>
		<path d="M95.4,59.29c0.35-0.24,0.62-0.46,0.8-0.64c0.32-0.32,0.47-0.62,0.47-0.9c0-0.08-0.02-0.15-0.06-0.19
			c-0.04-0.05-0.1-0.07-0.18-0.07c-0.04,0-0.09,0-0.14,0.01c-0.06,0.01-0.1,0.01-0.12,0.01c-0.23,0-0.43-0.08-0.6-0.25
			c-0.17-0.16-0.25-0.38-0.25-0.66c0-0.29,0.09-0.53,0.27-0.71c0.18-0.18,0.41-0.27,0.7-0.27c0.35,0,0.64,0.12,0.86,0.37
			c0.22,0.25,0.33,0.57,0.33,0.99c0,0.63-0.25,1.2-0.75,1.71c-0.27,0.27-0.67,0.56-1.18,0.86L95.4,59.29z"/>
	</g>
	<g style="clip-path:url(#SVGID_00000017492333528808586520000016805453014161933191_);">
		<path d="M18.07,67.72c0.21-0.03,0.35-0.09,0.42-0.15c0.11-0.1,0.17-0.29,0.17-0.55v-3.44c0-0.24-0.04-0.4-0.12-0.49
			c-0.08-0.09-0.24-0.15-0.47-0.19v-0.28h2.25v4.45c0,0.26,0.04,0.42,0.11,0.49c0.08,0.07,0.22,0.13,0.43,0.17V68h-2.79V67.72z
			 M18.85,60.18c0.18-0.18,0.39-0.27,0.64-0.27c0.25,0,0.46,0.09,0.64,0.27c0.18,0.18,0.27,0.39,0.27,0.64
			c0,0.25-0.09,0.47-0.27,0.64c-0.18,0.18-0.39,0.27-0.64,0.27c-0.25,0-0.47-0.09-0.64-0.27c-0.18-0.18-0.27-0.39-0.27-0.64
			C18.59,60.57,18.68,60.35,18.85,60.18z"/>
		<path d="M21.33,63.12V62.8c0.1-0.1,0.23-0.21,0.38-0.34c0.2-0.19,0.39-0.38,0.57-0.58c0.35-0.39,0.68-0.81,0.97-1.25h0.3v1.98
			h1.11v0.51h-1.11v3.52c0,0.16,0.02,0.3,0.07,0.41c0.08,0.17,0.2,0.26,0.38,0.26c0.15,0,0.28-0.05,0.38-0.16
			c0.1-0.11,0.21-0.26,0.31-0.45l0.28,0.14c-0.14,0.32-0.3,0.58-0.49,0.78c-0.33,0.35-0.74,0.53-1.23,0.53
			c-0.27,0-0.51-0.05-0.72-0.15c-0.4-0.2-0.59-0.56-0.6-1.08v-3.8H21.33z"/>
		<path d="M26.05,63.59c0.35-0.24,0.62-0.46,0.79-0.63c0.32-0.32,0.48-0.62,0.48-0.9c0-0.08-0.02-0.14-0.06-0.19
			c-0.04-0.05-0.1-0.07-0.18-0.07c-0.13,0.02-0.21,0.03-0.25,0.03c-0.25,0-0.46-0.08-0.62-0.25c-0.16-0.17-0.25-0.39-0.25-0.65
			c0-0.29,0.09-0.53,0.26-0.71c0.17-0.18,0.41-0.27,0.71-0.27c0.33,0,0.61,0.12,0.84,0.36s0.34,0.57,0.34,0.99
			c0,0.61-0.23,1.16-0.7,1.66c-0.3,0.32-0.71,0.62-1.24,0.92L26.05,63.59z"/>
		<path d="M28.81,66.23h0.33c0.11,0.56,0.33,0.96,0.64,1.19s0.63,0.35,0.96,0.35c0.3,0,0.52-0.07,0.66-0.2
			c0.14-0.13,0.21-0.31,0.21-0.53c0-0.21-0.08-0.39-0.23-0.54c-0.08-0.08-0.22-0.17-0.41-0.26l-0.87-0.42
			c-0.46-0.22-0.79-0.47-0.98-0.73c-0.2-0.26-0.3-0.57-0.3-0.93c0-0.45,0.16-0.84,0.47-1.17c0.32-0.33,0.76-0.49,1.33-0.49
			c0.25,0,0.51,0.04,0.79,0.12s0.45,0.12,0.52,0.12c0.09,0,0.16-0.02,0.2-0.06s0.07-0.1,0.1-0.17h0.26v1.69h-0.3
			c-0.11-0.4-0.29-0.71-0.54-0.95s-0.54-0.36-0.88-0.36c-0.26,0-0.45,0.07-0.58,0.22c-0.13,0.15-0.19,0.3-0.19,0.47
			c0,0.14,0.06,0.27,0.17,0.41c0.11,0.14,0.32,0.29,0.63,0.43l0.64,0.31c0.4,0.19,0.69,0.38,0.87,0.55c0.3,0.3,0.46,0.68,0.46,1.13
			c0,0.43-0.16,0.84-0.47,1.21c-0.31,0.38-0.79,0.56-1.42,0.56c-0.16,0-0.31-0.02-0.47-0.05s-0.35-0.09-0.59-0.17l-0.2-0.07
			c-0.07-0.03-0.12-0.04-0.13-0.05c-0.02,0-0.04-0.01-0.07-0.01c-0.07,0-0.12,0.03-0.17,0.08c-0.05,0.05-0.1,0.14-0.16,0.26h-0.28
			V66.23z"/>
		<path d="M36.21,70.13c0.25-0.03,0.42-0.08,0.51-0.17c0.09-0.09,0.14-0.26,0.14-0.51v-5.88c0-0.25-0.04-0.41-0.13-0.5
			c-0.09-0.09-0.25-0.15-0.49-0.18v-0.28h2.24v0.77c0.16-0.27,0.32-0.46,0.47-0.59c0.27-0.22,0.62-0.33,1.05-0.33
			c0.61,0,1.12,0.23,1.53,0.69s0.61,1.15,0.61,2.06c0,0.85-0.22,1.55-0.66,2.11s-0.97,0.84-1.59,0.84c-0.32,0-0.62-0.09-0.91-0.28
			c-0.15-0.1-0.31-0.24-0.47-0.42v0.99c0,0.53,0.01,0.82,0.01,0.89c0.03,0.31,0.11,0.52,0.24,0.63c0.13,0.11,0.35,0.18,0.66,0.2
			v0.24h-3.2V70.13z M40.28,66.67c0.08-0.31,0.12-0.75,0.12-1.33c0-0.67-0.06-1.21-0.18-1.6s-0.37-0.6-0.74-0.6
			c-0.25,0-0.48,0.11-0.67,0.33c-0.2,0.22-0.3,0.38-0.3,0.48v2.85c0,0.11,0.09,0.26,0.28,0.44c0.19,0.18,0.4,0.27,0.64,0.27
			C39.84,67.51,40.13,67.23,40.28,66.67z"/>
		<path d="M42.72,67.72c0.22-0.03,0.38-0.08,0.47-0.16c0.09-0.08,0.13-0.23,0.14-0.46l0.01-0.34v-3.18c0-0.25-0.04-0.41-0.13-0.5
			c-0.08-0.09-0.25-0.15-0.5-0.18v-0.28h2.22v0.92c0.25-0.32,0.49-0.58,0.74-0.77c0.24-0.19,0.53-0.29,0.85-0.29
			c0.24,0,0.46,0.08,0.65,0.23c0.19,0.15,0.29,0.38,0.29,0.68c0,0.23-0.07,0.42-0.2,0.57c-0.14,0.15-0.31,0.22-0.53,0.22
			c-0.25,0-0.46-0.12-0.64-0.35s-0.31-0.35-0.38-0.35c-0.16,0-0.31,0.1-0.47,0.29S45,64.23,45,64.59v2.22
			c0,0.39,0.06,0.63,0.17,0.72s0.34,0.16,0.67,0.19V68h-3.12V67.72z"/>
		<path d="M48.52,63.28c0.5-0.54,1.13-0.82,1.89-0.82c0.77,0,1.41,0.28,1.9,0.83c0.49,0.56,0.74,1.23,0.74,2.02
			c0,0.78-0.24,1.45-0.73,2.02c-0.49,0.56-1.12,0.84-1.91,0.84c-0.76,0-1.39-0.27-1.89-0.82c-0.5-0.55-0.75-1.23-0.75-2.04
			C47.76,64.5,48.01,63.82,48.52,63.28z M49.61,67.04c0.13,0.51,0.4,0.76,0.79,0.76c0.38,0,0.62-0.19,0.74-0.58s0.18-1.02,0.18-1.9
			c0-0.87-0.06-1.5-0.19-1.89s-0.37-0.59-0.73-0.59c-0.4,0-0.66,0.25-0.79,0.76c-0.09,0.34-0.13,0.91-0.13,1.72
			C49.49,66.14,49.53,66.71,49.61,67.04z"/>
		<path d="M55.83,60.09v3.03c0.18-0.18,0.35-0.31,0.51-0.4c0.29-0.16,0.59-0.24,0.93-0.24c0.66,0,1.19,0.26,1.59,0.77
			s0.6,1.15,0.6,1.9c0,0.97-0.26,1.71-0.77,2.24c-0.51,0.52-1.15,0.79-1.91,0.79c-0.31,0-0.59-0.06-0.83-0.18s-0.46-0.28-0.67-0.48
			l-0.92,0.66h-0.17v-7.12c0-0.25-0.04-0.41-0.13-0.5c-0.09-0.09-0.25-0.15-0.49-0.18v-0.28H55.83z M55.95,67.39
			c0.14,0.27,0.37,0.4,0.69,0.4c0.4,0,0.68-0.21,0.85-0.63s0.25-1.02,0.25-1.8c0-0.61-0.07-1.14-0.22-1.58s-0.43-0.66-0.86-0.66
			c-0.25,0-0.45,0.09-0.6,0.28c-0.15,0.19-0.23,0.32-0.23,0.4v3.08C55.84,67.07,55.88,67.25,55.95,67.39z"/>
		<path d="M60.93,65.65c0.51-0.31,1.3-0.62,2.38-0.93v-0.85c0-0.35-0.07-0.6-0.22-0.77s-0.41-0.25-0.78-0.25
			c-0.21,0-0.38,0.04-0.52,0.12c-0.14,0.08-0.2,0.18-0.2,0.29c0,0.05,0.01,0.08,0.02,0.11c0.01,0.03,0.04,0.06,0.07,0.1l0.07,0.08
			c0.05,0.07,0.1,0.14,0.13,0.21s0.05,0.16,0.05,0.25c0,0.22-0.07,0.39-0.22,0.51s-0.32,0.18-0.51,0.18c-0.22,0-0.42-0.07-0.57-0.2
			c-0.16-0.13-0.24-0.33-0.24-0.58c0-0.45,0.21-0.8,0.63-1.07c0.42-0.26,0.94-0.39,1.56-0.39c0.66,0,1.22,0.13,1.66,0.38
			c0.44,0.26,0.66,0.74,0.66,1.43v2.83c0,0.08,0.02,0.16,0.07,0.21c0.04,0.06,0.09,0.09,0.15,0.09c0.05,0,0.09-0.01,0.12-0.03
			c0.04-0.02,0.09-0.06,0.17-0.14l0.18,0.25c-0.23,0.27-0.48,0.45-0.76,0.56c-0.18,0.07-0.36,0.1-0.55,0.1c-0.35,0-0.6-0.1-0.76-0.3
			c-0.09-0.11-0.16-0.28-0.2-0.51c-0.32,0.32-0.69,0.55-1.1,0.69c-0.25,0.08-0.49,0.13-0.73,0.13c-0.32,0-0.62-0.1-0.9-0.31
			s-0.42-0.52-0.42-0.95C60.17,66.38,60.42,65.96,60.93,65.65z M62.97,67.16c0.09-0.07,0.2-0.18,0.33-0.32v-1.71
			c-0.31,0.08-0.59,0.2-0.82,0.36c-0.4,0.28-0.6,0.63-0.6,1.07c0,0.26,0.06,0.45,0.17,0.58c0.12,0.13,0.25,0.2,0.39,0.2
			C62.63,67.33,62.81,67.27,62.97,67.16z"/>
		<path d="M68.19,60.09v3.03c0.18-0.18,0.35-0.31,0.51-0.4c0.29-0.16,0.59-0.24,0.93-0.24c0.66,0,1.19,0.26,1.59,0.77
			s0.6,1.15,0.6,1.9c0,0.97-0.26,1.71-0.77,2.24c-0.51,0.52-1.15,0.79-1.91,0.79c-0.31,0-0.59-0.06-0.83-0.18s-0.46-0.28-0.67-0.48
			l-0.92,0.66h-0.17v-7.12c0-0.25-0.04-0.41-0.13-0.5c-0.09-0.09-0.25-0.15-0.49-0.18v-0.28H68.19z M68.32,67.39
			c0.14,0.27,0.37,0.4,0.69,0.4c0.4,0,0.68-0.21,0.85-0.63s0.25-1.02,0.25-1.8c0-0.61-0.07-1.14-0.22-1.58s-0.43-0.66-0.86-0.66
			c-0.25,0-0.45,0.09-0.6,0.28c-0.15,0.19-0.23,0.32-0.23,0.4v3.08C68.21,67.07,68.25,67.25,68.32,67.39z"/>
		<path d="M72.43,67.72c0.21-0.05,0.35-0.12,0.44-0.2s0.13-0.25,0.13-0.51v-5.96c0-0.25-0.04-0.41-0.12-0.49s-0.23-0.14-0.45-0.19
			v-0.28h2.22v6.92c0,0.26,0.04,0.43,0.12,0.51s0.23,0.15,0.45,0.2V68h-2.79V67.72z"/>
		<path d="M75.74,68.92c0.16-0.13,0.36-0.19,0.59-0.19c0.2,0,0.36,0.06,0.49,0.17s0.19,0.24,0.19,0.39l-0.03,0.26
			c0,0.05,0.02,0.1,0.06,0.14s0.09,0.06,0.15,0.06c0.2,0,0.39-0.16,0.57-0.48c0.11-0.2,0.27-0.58,0.48-1.15l-1.39-3.43
			c-0.1-0.24-0.2-0.47-0.29-0.69c-0.09-0.21-0.19-0.42-0.29-0.62c-0.11-0.21-0.19-0.34-0.25-0.39c-0.06-0.05-0.17-0.09-0.33-0.1
			v-0.28h2.93v0.28c-0.18,0-0.33,0.03-0.45,0.06s-0.17,0.12-0.17,0.25c0,0.03,0.01,0.06,0.02,0.11s0.04,0.13,0.09,0.25l0.93,2.3
			h0.06l0.77-2.06c0.04-0.11,0.07-0.21,0.09-0.3c0.02-0.08,0.04-0.16,0.04-0.23c0-0.16-0.05-0.27-0.16-0.31s-0.27-0.07-0.48-0.07
			v-0.28h1.77v0.28c-0.15,0.01-0.28,0.05-0.38,0.12c-0.1,0.07-0.2,0.24-0.3,0.51l-1.75,4.67c-0.34,0.86-0.63,1.45-0.88,1.75
			s-0.63,0.46-1.15,0.46c-0.38,0-0.67-0.09-0.87-0.28c-0.2-0.19-0.3-0.4-0.3-0.62C75.49,69.24,75.57,69.05,75.74,68.92z"/>
		<path d="M85.33,65.65c0.51-0.31,1.3-0.62,2.38-0.93v-0.85c0-0.35-0.07-0.6-0.22-0.77s-0.41-0.25-0.78-0.25
			c-0.21,0-0.38,0.04-0.52,0.12c-0.14,0.08-0.2,0.18-0.2,0.29c0,0.05,0.01,0.08,0.02,0.11c0.01,0.03,0.04,0.06,0.07,0.1l0.07,0.08
			c0.05,0.07,0.1,0.14,0.13,0.21s0.05,0.16,0.05,0.25c0,0.22-0.07,0.39-0.22,0.51s-0.32,0.18-0.51,0.18c-0.22,0-0.42-0.07-0.57-0.2
			c-0.16-0.13-0.24-0.33-0.24-0.58c0-0.45,0.21-0.8,0.63-1.07c0.42-0.26,0.94-0.39,1.56-0.39c0.66,0,1.22,0.13,1.66,0.38
			c0.44,0.26,0.66,0.74,0.66,1.43v2.83c0,0.08,0.02,0.16,0.07,0.21c0.04,0.06,0.09,0.09,0.15,0.09c0.05,0,0.09-0.01,0.12-0.03
			c0.04-0.02,0.09-0.06,0.17-0.14l0.18,0.25c-0.23,0.27-0.48,0.45-0.76,0.56c-0.18,0.07-0.36,0.1-0.55,0.1c-0.35,0-0.6-0.1-0.76-0.3
			c-0.09-0.11-0.16-0.28-0.2-0.51c-0.32,0.32-0.69,0.55-1.1,0.69c-0.25,0.08-0.49,0.13-0.73,0.13c-0.32,0-0.62-0.1-0.9-0.31
			s-0.42-0.52-0.42-0.95C84.57,66.38,84.82,65.96,85.33,65.65z M87.37,67.16c0.09-0.07,0.2-0.18,0.33-0.32v-1.71
			c-0.31,0.08-0.59,0.2-0.82,0.36c-0.4,0.28-0.6,0.63-0.6,1.07c0,0.26,0.06,0.45,0.17,0.58c0.12,0.13,0.25,0.2,0.39,0.2
			C87.03,67.33,87.21,67.27,87.37,67.16z"/>
	</g>
	<g style="clip-path:url(#SVGID_00000017492333528808586520000016805453014161933191_);">
		<path d="M26.49,73.84c0.44-0.54,0.97-0.8,1.59-0.8c0.31,0,0.58,0.08,0.82,0.23c0.15,0.09,0.33,0.26,0.56,0.49v-2.14
			c0-0.3-0.06-0.48-0.17-0.55c-0.11-0.07-0.35-0.12-0.71-0.13v-0.28h2.52v6.74c0,0.24,0.05,0.41,0.14,0.5
			c0.09,0.09,0.27,0.15,0.54,0.17v0.27c-0.66,0.06-1.08,0.11-1.27,0.15s-0.53,0.12-1.01,0.25v-0.77c-0.22,0.23-0.42,0.4-0.61,0.51
			c-0.29,0.18-0.6,0.26-0.94,0.26c-0.57,0-1.07-0.24-1.49-0.73c-0.42-0.48-0.63-1.14-0.63-1.97C25.83,75.11,26.05,74.38,26.49,73.84
			z M29.16,77.73c0.2-0.22,0.3-0.38,0.3-0.47v-2.85c0-0.09-0.09-0.24-0.26-0.42c-0.17-0.19-0.4-0.28-0.68-0.28
			c-0.42,0-0.7,0.29-0.85,0.86c-0.08,0.31-0.12,0.75-0.12,1.31c0,0.6,0.04,1.06,0.11,1.36c0.14,0.55,0.41,0.83,0.81,0.83
			C28.73,78.07,28.96,77.96,29.16,77.73z"/>
		<path d="M33.05,73.85c0.5-0.54,1.13-0.82,1.89-0.82c0.77,0,1.41,0.28,1.9,0.83c0.49,0.56,0.74,1.23,0.74,2.02
			c0,0.78-0.24,1.45-0.73,2.02c-0.49,0.56-1.12,0.84-1.91,0.84c-0.76,0-1.39-0.27-1.89-0.82c-0.5-0.55-0.75-1.23-0.75-2.04
			C32.3,75.07,32.55,74.39,33.05,73.85z M34.15,77.61c0.13,0.51,0.4,0.76,0.79,0.76c0.38,0,0.62-0.19,0.74-0.58s0.18-1.02,0.18-1.9
			c0-0.87-0.06-1.5-0.19-1.89s-0.37-0.59-0.73-0.59c-0.4,0-0.66,0.25-0.79,0.76c-0.09,0.34-0.13,0.91-0.13,1.72
			C34.02,76.71,34.07,77.28,34.15,77.61z"/>
		<path d="M40.3,73.18v3.97c0,0.24,0.03,0.41,0.09,0.52c0.1,0.19,0.29,0.29,0.59,0.29c0.19,0,0.37-0.06,0.55-0.18
			c0.1-0.06,0.23-0.17,0.39-0.33v-3.32c0-0.25-0.05-0.42-0.15-0.52c-0.1-0.1-0.29-0.15-0.59-0.17v-0.28h2.33v4.22
			c0,0.24,0.05,0.41,0.14,0.5c0.09,0.09,0.27,0.15,0.54,0.17v0.27c-0.72,0.07-1.18,0.12-1.37,0.15c-0.19,0.03-0.49,0.11-0.91,0.24
			v-0.77c-0.28,0.24-0.51,0.41-0.69,0.51c-0.32,0.18-0.65,0.26-1,0.26c-0.38,0-0.73-0.12-1.05-0.36s-0.49-0.67-0.49-1.28v-2.96
			c0-0.25-0.04-0.41-0.12-0.49s-0.23-0.14-0.46-0.19v-0.28H40.3z"/>
		<path d="M48.71,73.39c0.36,0.24,0.54,0.55,0.54,0.93c0,0.2-0.07,0.38-0.21,0.53s-0.33,0.22-0.55,0.22c-0.15,0-0.28-0.03-0.39-0.1
			c-0.21-0.12-0.31-0.34-0.31-0.66c0-0.03,0-0.08,0.01-0.15s0.01-0.14,0.01-0.21c0-0.21-0.05-0.35-0.14-0.42
			c-0.1-0.08-0.21-0.11-0.34-0.11c-0.36,0-0.62,0.2-0.77,0.6c-0.15,0.4-0.23,0.85-0.23,1.37c0,0.73,0.15,1.35,0.43,1.84
			c0.29,0.5,0.68,0.74,1.17,0.74c0.31,0,0.57-0.07,0.79-0.21c0.13-0.08,0.29-0.23,0.48-0.44l0.22,0.2
			c-0.38,0.53-0.83,0.89-1.34,1.09c-0.27,0.1-0.56,0.15-0.86,0.15c-0.75,0-1.37-0.27-1.84-0.81c-0.48-0.54-0.71-1.19-0.71-1.97
			c0-0.82,0.25-1.51,0.76-2.08c0.5-0.57,1.18-0.86,2.02-0.86C47.92,73.03,48.35,73.15,48.71,73.39z"/>
		<path d="M49.8,78.29c0.21-0.03,0.37-0.08,0.47-0.17c0.1-0.09,0.15-0.27,0.15-0.54v-5.96c0-0.23-0.04-0.4-0.13-0.49
			c-0.08-0.09-0.25-0.16-0.5-0.19v-0.28h2.26v3.29c0.24-0.29,0.49-0.51,0.76-0.67s0.56-0.24,0.9-0.24c0.45,0,0.82,0.13,1.12,0.39
			c0.29,0.26,0.44,0.71,0.44,1.33v2.81c0,0.26,0.04,0.44,0.13,0.52s0.24,0.15,0.45,0.19v0.28H53.1v-0.28
			c0.21-0.04,0.35-0.1,0.43-0.17c0.08-0.07,0.11-0.24,0.11-0.49v-2.84c0-0.27-0.03-0.47-0.08-0.6c-0.09-0.24-0.27-0.36-0.54-0.36
			c-0.2,0-0.41,0.09-0.63,0.28c-0.22,0.19-0.32,0.31-0.32,0.38v3.13c0,0.26,0.04,0.42,0.11,0.49c0.08,0.07,0.22,0.13,0.43,0.17v0.28
			H49.8V78.29z"/>
		<path d="M57.1,73.79c0.48-0.5,1.06-0.75,1.73-0.75c0.39,0,0.75,0.1,1.09,0.3s0.6,0.48,0.78,0.84c0.14,0.27,0.23,0.62,0.29,1.05
			c0.03,0.2,0.04,0.36,0.04,0.46h-2.99c0.03,0.47,0.1,0.88,0.23,1.22c0.23,0.64,0.63,0.97,1.21,0.97c0.27,0,0.53-0.09,0.78-0.26
			c0.15-0.1,0.33-0.28,0.56-0.52l0.27,0.17c-0.36,0.59-0.78,1.01-1.26,1.24c-0.31,0.15-0.66,0.22-1.06,0.22
			c-0.58,0-1.12-0.23-1.62-0.68c-0.5-0.45-0.76-1.18-0.76-2.17C56.38,74.98,56.62,74.28,57.1,73.79z M59.59,75.26
			c-0.01-0.69-0.06-1.17-0.16-1.45s-0.3-0.41-0.6-0.41c-0.31,0-0.52,0.16-0.63,0.47c-0.11,0.32-0.18,0.78-0.19,1.38H59.59z"/>
		<path d="M63.78,70.66v3.03c0.18-0.18,0.35-0.31,0.51-0.4c0.29-0.16,0.59-0.24,0.93-0.24c0.66,0,1.19,0.26,1.59,0.77
			s0.6,1.15,0.6,1.9c0,0.97-0.26,1.71-0.77,2.24c-0.51,0.52-1.15,0.79-1.91,0.79c-0.31,0-0.59-0.06-0.83-0.18s-0.46-0.28-0.67-0.48
			l-0.92,0.66h-0.17v-7.12c0-0.25-0.04-0.41-0.13-0.5c-0.09-0.09-0.25-0.15-0.49-0.18v-0.28H63.78z M63.91,77.96
			c0.14,0.27,0.37,0.4,0.69,0.4c0.4,0,0.68-0.21,0.85-0.63s0.25-1.02,0.25-1.8c0-0.61-0.07-1.14-0.22-1.58s-0.43-0.66-0.86-0.66
			c-0.25,0-0.45,0.09-0.6,0.28c-0.15,0.19-0.23,0.32-0.23,0.4v3.08C63.8,77.64,63.84,77.82,63.91,77.96z"/>
		<path d="M68.89,76.22c0.51-0.31,1.3-0.62,2.38-0.93v-0.85c0-0.35-0.07-0.6-0.22-0.77s-0.41-0.25-0.78-0.25
			c-0.21,0-0.38,0.04-0.52,0.12c-0.14,0.08-0.2,0.18-0.2,0.29c0,0.05,0.01,0.08,0.02,0.11c0.01,0.03,0.04,0.06,0.07,0.1l0.07,0.08
			c0.05,0.07,0.1,0.14,0.13,0.21s0.05,0.16,0.05,0.25c0,0.22-0.07,0.39-0.22,0.51s-0.32,0.18-0.51,0.18c-0.22,0-0.42-0.07-0.57-0.2
			c-0.16-0.13-0.24-0.33-0.24-0.58c0-0.45,0.21-0.8,0.63-1.07c0.42-0.26,0.94-0.39,1.56-0.39c0.66,0,1.22,0.13,1.66,0.38
			c0.44,0.26,0.66,0.74,0.66,1.43v2.83c0,0.08,0.02,0.16,0.07,0.21c0.04,0.06,0.09,0.09,0.15,0.09c0.05,0,0.09-0.01,0.12-0.03
			c0.04-0.02,0.09-0.06,0.17-0.14l0.18,0.25c-0.23,0.27-0.48,0.45-0.76,0.56c-0.18,0.07-0.36,0.1-0.55,0.1c-0.35,0-0.6-0.1-0.76-0.3
			c-0.09-0.11-0.16-0.28-0.2-0.51c-0.32,0.32-0.69,0.55-1.1,0.69c-0.25,0.08-0.49,0.13-0.73,0.13c-0.32,0-0.62-0.1-0.9-0.31
			s-0.42-0.52-0.42-0.95C68.13,76.95,68.38,76.53,68.89,76.22z M70.93,77.73c0.09-0.07,0.2-0.18,0.33-0.32v-1.71
			c-0.31,0.08-0.59,0.2-0.82,0.36c-0.4,0.28-0.6,0.63-0.6,1.07c0,0.26,0.06,0.45,0.17,0.58c0.12,0.13,0.25,0.2,0.39,0.2
			C70.59,77.9,70.76,77.84,70.93,77.73z"/>
		<path d="M74.16,79.41c0.14-0.18,0.38-0.29,0.72-0.35v-0.08c-0.23-0.09-0.39-0.18-0.5-0.27c-0.18-0.16-0.27-0.38-0.27-0.66
			c0-0.33,0.14-0.61,0.43-0.84s0.57-0.39,0.84-0.49v-0.08c-0.4-0.16-0.72-0.39-0.96-0.69c-0.24-0.3-0.37-0.66-0.37-1.08
			c0-0.53,0.21-0.97,0.64-1.32s1-0.52,1.73-0.52c0.27,0,0.53,0.03,0.75,0.08c0.23,0.05,0.41,0.11,0.53,0.17h1.54v0.62h-0.95
			c0.15,0.15,0.27,0.32,0.35,0.52s0.12,0.41,0.12,0.65c0,0.73-0.35,1.23-1.05,1.5c-0.37,0.14-0.82,0.22-1.37,0.22
			c-0.12,0-0.2,0-0.23-0.01c-0.04,0-0.09,0-0.16,0c-0.11,0.02-0.23,0.08-0.36,0.18c-0.13,0.11-0.19,0.23-0.19,0.38
			c0,0.12,0.03,0.21,0.1,0.27s0.15,0.1,0.27,0.12c0.06,0.01,0.18,0.01,0.37,0.02c0.19,0.01,0.33,0.01,0.43,0.01l0.76,0.01
			c0.43,0.01,0.79,0.07,1.09,0.19c0.56,0.23,0.84,0.64,0.84,1.23c0,0.76-0.42,1.29-1.26,1.57c-0.44,0.15-1,0.22-1.67,0.22
			c-0.55,0-1.02-0.05-1.42-0.16c-0.66-0.18-0.98-0.48-0.98-0.92C73.95,79.76,74.02,79.58,74.16,79.41z M75.37,80.41
			c0.26,0.14,0.63,0.21,1.12,0.21c0.43,0,0.79-0.04,1.07-0.1c0.53-0.13,0.79-0.37,0.79-0.72c0-0.2-0.08-0.35-0.23-0.46
			c-0.15-0.1-0.42-0.15-0.82-0.15h-1.92c-0.12,0.1-0.21,0.18-0.26,0.25c-0.09,0.13-0.14,0.26-0.14,0.4
			C74.98,80.09,75.11,80.28,75.37,80.41z M75.78,75.93c0.11,0.34,0.33,0.51,0.66,0.51c0.29,0,0.5-0.13,0.61-0.39
			c0.11-0.26,0.17-0.63,0.17-1.13c0-0.53-0.06-0.91-0.17-1.15s-0.32-0.36-0.6-0.36c-0.31,0-0.51,0.13-0.62,0.39
			c-0.1,0.26-0.15,0.63-0.15,1.12C75.66,75.38,75.7,75.71,75.78,75.93z"/>
		<path d="M80.76,77.05c0.19-0.19,0.43-0.29,0.7-0.29s0.51,0.1,0.7,0.29s0.29,0.43,0.29,0.7s-0.1,0.51-0.29,0.7s-0.43,0.29-0.7,0.29
			s-0.51-0.1-0.7-0.29s-0.29-0.43-0.29-0.7S80.56,77.24,80.76,77.05z"/>
	</g>
</g>
</svg>
