<?xml version="1.0" encoding="utf-8"?>
<!-- Generator: Adobe Illustrator 26.5.0, SVG Export Plug-In . SVG Version: 6.00 Build 0)  -->
<svg version="1.1" id="Layer_1" xmlns="http://www.w3.org/2000/svg" xmlns:xlink="http://www.w3.org/1999/xlink" x="0px" y="0px"
	 viewBox="0 0 106.66 106.48" style="enable-background:new 0 0 106.66 106.48;" xml:space="preserve">
<style type="text/css">
	.st0{clip-path:url(#SVGID_00000145743556246710346250000002773650528093971351_);fill:#887976;}
	.st1{clip-path:url(#SVGID_00000145743556246710346250000002773650528093971351_);}
	.st2{fill:#081F40;}
	.st3{clip-path:url(#SVGID_00000159449080011658068380000014126834872087230394_);fill:#A51D31;}
	.st4{clip-path:url(#SVGID_00000159449080011658068380000014126834872087230394_);fill:#FFFFFF;}
	.st5{clip-path:url(#SVGID_00000021116887496154161210000014475437366045695894_);fill:#FFFFFF;}
	.st6{clip-path:url(#SVGID_00000021116887496154161210000014475437366045695894_);}
	.st7{fill:#0E2346;}
	.st8{clip-path:url(#SVGID_00000047742865481717820950000006003425542049531816_);fill:#643D18;}
	.st9{clip-path:url(#SVGID_00000047742865481717820950000006003425542049531816_);}
	.st10{fill:#FFFFFF;}
	.st11{clip-path:url(#SVGID_00000122695302284720684010000000633376407655046323_);fill:#1E2758;}
	.st12{clip-path:url(#SVGID_00000122695302284720684010000000633376407655046323_);}
	.st13{fill:#EB1C2D;}
	.st14{clip-path:url(#SVGID_00000123423948923438656850000015367870058905094552_);fill:#0D4E91;}
	.st15{clip-path:url(#SVGID_00000123423948923438656850000015367870058905094552_);}
	.st16{clip-path:url(#SVGID_00000110463834043448716090000005543336064772316045_);fill:#672A7A;}
	.st17{clip-path:url(#SVGID_00000110463834043448716090000005543336064772316045_);fill:#F9F186;}
	
		.st18{clip-path:url(#SVGID_00000110463834043448716090000005543336064772316045_);fill:none;stroke:#000000;stroke-width:1.069;stroke-miterlimit:10;}
	.st19{clip-path:url(#SVGID_00000110463834043448716090000005543336064772316045_);fill:#F5EC3B;}
	.st20{clip-path:url(#SVGID_00000144331727949326190260000012901965052461285786_);fill:#E77625;}
	.st21{clip-path:url(#SVGID_00000144331727949326190260000012901965052461285786_);}
	.st22{clip-path:url(#SVGID_00000135651047385524563970000004122259261534646927_);fill:#D8272D;}
	.st23{clip-path:url(#SVGID_00000135651047385524563970000004122259261534646927_);}
	.st24{clip-path:url(#SVGID_00000034781285925336399620000015035934049270751387_);fill:#00954C;}
	.st25{clip-path:url(#SVGID_00000034781285925336399620000015035934049270751387_);}
	.st26{clip-path:url(#SVGID_00000096739355486314599050000004310475359470164643_);fill:#42B4E4;}
	.st27{clip-path:url(#SVGID_00000096739355486314599050000004310475359470164643_);}
	.st28{clip-path:url(#SVGID_00000144302188296103613600000003366883050022749581_);}
</style>
<g>
	<defs>
		<ellipse id="SVGID_00000023269076753181003230000008086262575027748266_" cx="53.33" cy="53.24" rx="53.33" ry="53.24"/>
	</defs>
	<clipPath id="SVGID_00000169551060780624329470000015252998928424397476_">
		<use xlink:href="#SVGID_00000023269076753181003230000008086262575027748266_"  style="overflow:visible;"/>
	</clipPath>
	<path style="clip-path:url(#SVGID_00000169551060780624329470000015252998928424397476_);fill:#FFFFFF;" d="M53.34,115.46
		c34.36,0,62.23-27.86,62.23-62.22c0-34.37-27.86-62.23-62.23-62.23S-8.89,18.87-8.89,53.24C-8.89,87.6,18.97,115.46,53.34,115.46"
		/>
	<g style="clip-path:url(#SVGID_00000169551060780624329470000015252998928424397476_);">
		<path class="st7" d="M10.84,41.08h12.69l0.02,4.25h-0.61c-0.2-1.52-0.77-2.55-1.71-3.09c-0.53-0.3-1.32-0.46-2.37-0.48v11.1
			c0,0.78,0.14,1.29,0.41,1.54c0.27,0.25,0.83,0.38,1.69,0.38v0.54h-7.51v-0.54c0.82,0,1.37-0.13,1.64-0.39
			c0.27-0.26,0.41-0.77,0.41-1.54v-11.1c-1.03,0.03-1.82,0.19-2.37,0.48c-1.01,0.55-1.58,1.58-1.71,3.09h-0.61L10.84,41.08z"/>
		<path class="st7" d="M24.68,54.82c0.38-0.05,0.67-0.15,0.85-0.31s0.27-0.48,0.27-0.96V42.81c0-0.42-0.08-0.72-0.23-0.89
			c-0.15-0.17-0.45-0.28-0.89-0.34v-0.5h4.08v5.93c0.43-0.52,0.89-0.92,1.36-1.21c0.48-0.28,1.01-0.43,1.61-0.43
			c0.81,0,1.48,0.23,2.01,0.7c0.53,0.47,0.79,1.27,0.79,2.4v5.06c0,0.47,0.08,0.78,0.24,0.93c0.16,0.15,0.43,0.26,0.81,0.34v0.5
			h-4.95v-0.5c0.38-0.08,0.63-0.18,0.77-0.31c0.14-0.13,0.21-0.43,0.21-0.88v-5.1c0-0.48-0.05-0.84-0.14-1.08
			c-0.17-0.43-0.49-0.65-0.98-0.65c-0.36,0-0.74,0.17-1.13,0.5s-0.58,0.57-0.58,0.69v5.64c0,0.46,0.07,0.75,0.21,0.88
			c0.14,0.13,0.39,0.23,0.77,0.31v0.5h-5.07V54.82z"/>
		<path class="st7" d="M36.4,54.82c0.37-0.06,0.62-0.15,0.76-0.28c0.21-0.19,0.31-0.52,0.31-1v-6.19c0-0.43-0.07-0.72-0.22-0.88
			c-0.14-0.16-0.43-0.27-0.85-0.35v-0.5h4.04v8.01c0,0.46,0.07,0.75,0.21,0.88c0.14,0.13,0.39,0.23,0.77,0.31v0.5H36.4V54.82z
			 M37.8,41.24c0.32-0.32,0.71-0.48,1.16-0.48c0.45,0,0.83,0.16,1.15,0.48c0.32,0.32,0.48,0.71,0.48,1.16
			c0,0.45-0.16,0.84-0.48,1.16c-0.32,0.32-0.7,0.48-1.15,0.48c-0.45,0-0.84-0.16-1.16-0.48c-0.32-0.32-0.48-0.7-0.48-1.16
			C37.33,41.95,37.49,41.56,37.8,41.24z"/>
		<path class="st7" d="M42.26,54.82c0.38-0.05,0.67-0.15,0.85-0.31s0.27-0.48,0.27-0.96v-6.19c0-0.43-0.07-0.73-0.22-0.89
			s-0.45-0.28-0.9-0.33v-0.5h3.99v1.51c0.34-0.51,0.76-0.93,1.28-1.26c0.52-0.33,1.09-0.5,1.72-0.5c0.91,0,1.61,0.23,2.1,0.7
			c0.5,0.47,0.75,1.29,0.75,2.46v5.09c0,0.47,0.08,0.78,0.24,0.92c0.16,0.14,0.43,0.23,0.81,0.28v0.5H48.2v-0.5
			c0.38-0.08,0.63-0.18,0.77-0.31c0.14-0.13,0.21-0.43,0.21-0.88v-5.1c0-0.48-0.05-0.84-0.14-1.08c-0.17-0.43-0.49-0.65-0.98-0.65
			c-0.36,0-0.7,0.13-1,0.4c-0.3,0.26-0.54,0.53-0.7,0.8v5.64c0,0.46,0.07,0.75,0.21,0.88c0.14,0.13,0.39,0.23,0.77,0.31v0.5h-5.07
			V54.82z"/>
		<path class="st7" d="M53.98,54.82c0.37-0.09,0.63-0.21,0.79-0.35c0.15-0.15,0.23-0.46,0.23-0.92V42.8c0-0.45-0.07-0.74-0.22-0.88
			c-0.14-0.14-0.41-0.25-0.8-0.34v-0.5h3.95v9.08l2.68-2.69c0.16-0.16,0.27-0.31,0.34-0.45c0.07-0.14,0.1-0.25,0.1-0.33
			c0-0.21-0.09-0.35-0.28-0.42c-0.19-0.07-0.51-0.12-0.96-0.16v-0.48h4.52v0.48c-0.43,0.06-0.78,0.13-1.03,0.23
			c-0.45,0.18-0.89,0.48-1.32,0.91l-1.64,1.66l4.08,5.61c0.08,0.12,0.16,0.19,0.24,0.23c0.08,0.04,0.17,0.07,0.3,0.09v0.5h-4.92
			v-0.5c0.3-0.01,0.52-0.05,0.66-0.11c0.14-0.06,0.21-0.16,0.21-0.29c0-0.07-0.03-0.16-0.09-0.28c-0.06-0.12-0.2-0.34-0.43-0.66
			l-2-2.83l-0.46,0.51v2.39c0,0.47,0.06,0.79,0.17,0.95c0.12,0.16,0.42,0.27,0.9,0.33v0.5h-5.02V54.82z"/>
		<path class="st7" d="M72.35,46.82c0.79-0.96,1.74-1.45,2.86-1.45c0.56,0,1.05,0.14,1.48,0.41c0.27,0.16,0.6,0.46,1.01,0.88v-3.86
			c0-0.53-0.1-0.86-0.31-0.99c-0.21-0.13-0.63-0.21-1.28-0.23v-0.5h4.54v12.13c0,0.44,0.08,0.74,0.25,0.9
			c0.17,0.17,0.49,0.27,0.97,0.31v0.48c-1.18,0.12-1.94,0.2-2.29,0.26c-0.34,0.06-0.95,0.21-1.81,0.45v-1.39
			c-0.4,0.41-0.76,0.72-1.09,0.92c-0.52,0.32-1.08,0.47-1.69,0.47c-1.03,0-1.92-0.44-2.69-1.31c-0.76-0.87-1.14-2.05-1.14-3.55
			C71.16,49.1,71.56,47.78,72.35,46.82z M77.15,53.82c0.36-0.4,0.54-0.69,0.54-0.85v-5.12c0-0.17-0.15-0.43-0.46-0.76
			c-0.31-0.34-0.72-0.5-1.23-0.5c-0.75,0-1.26,0.52-1.53,1.55c-0.14,0.56-0.22,1.34-0.22,2.36c0,1.08,0.07,1.9,0.21,2.45
			c0.25,0.99,0.74,1.49,1.47,1.49C76.38,54.43,76.79,54.23,77.15,53.82z"/>
		<path class="st7" d="M84.16,46.82c0.9-0.98,2.04-1.47,3.4-1.47c1.39,0,2.53,0.5,3.42,1.5c0.89,1,1.33,2.22,1.33,3.64
			c0,1.41-0.44,2.62-1.32,3.63s-2.02,1.52-3.44,1.52c-1.37,0-2.51-0.49-3.41-1.48c-0.9-0.98-1.35-2.21-1.35-3.67
			C82.81,49.03,83.26,47.81,84.16,46.82z M86.13,53.59c0.24,0.91,0.72,1.37,1.43,1.37c0.68,0,1.12-0.35,1.34-1.05
			s0.32-1.84,0.32-3.42c0-1.57-0.11-2.71-0.33-3.41c-0.22-0.7-0.66-1.05-1.31-1.05c-0.71,0-1.19,0.46-1.43,1.37
			c-0.16,0.61-0.24,1.64-0.24,3.1C85.91,51.97,85.98,53,86.13,53.59z"/>
		<path class="st7" d="M95.08,52.58c0.35-0.35,0.77-0.52,1.26-0.52c0.49,0,0.91,0.17,1.26,0.52c0.35,0.35,0.52,0.77,0.52,1.26
			c0,0.49-0.17,0.91-0.52,1.26c-0.35,0.35-0.77,0.52-1.26,0.52c-0.49,0-0.92-0.17-1.26-0.52c-0.35-0.35-0.52-0.77-0.52-1.26
			C94.56,53.35,94.73,52.93,95.08,52.58z"/>
	</g>
	<g style="clip-path:url(#SVGID_00000169551060780624329470000015252998928424397476_);">
		<path class="st7" d="M26.84,58.64v0.51c-0.51,0.05-0.86,0.12-1.04,0.22c-0.19,0.1-0.28,0.32-0.28,0.66c0,0.09,0.01,0.19,0.03,0.31
			c0.02,0.12,0.05,0.25,0.09,0.38l2.58,7.38h0.04l2.41-6.17c0.01-0.03-0.08-0.35-0.29-0.94s-0.36-0.96-0.44-1.1
			c-0.16-0.25-0.33-0.42-0.52-0.53c-0.19-0.1-0.53-0.17-1.02-0.21v-0.51h6.59v0.51c-0.6,0.05-1.01,0.11-1.21,0.2
			c-0.2,0.08-0.3,0.27-0.3,0.56c0,0.07,0.02,0.2,0.07,0.4c0.04,0.2,0.12,0.47,0.23,0.81l2.42,6.79H36.1l2.3-6.94
			c0.04-0.12,0.08-0.26,0.1-0.4c0.03-0.14,0.04-0.3,0.04-0.47c0-0.39-0.15-0.65-0.44-0.78c-0.18-0.08-0.52-0.14-1.02-0.17v-0.51
			h3.86v0.51c-0.32,0.05-0.57,0.13-0.75,0.25c-0.31,0.21-0.55,0.58-0.72,1.1l-4.22,12.73h-0.56l-3.54-9.89h-0.14l-3.86,9.89h-0.59
			l-4.46-12.73c-0.19-0.55-0.38-0.9-0.58-1.05c-0.19-0.15-0.49-0.25-0.9-0.3v-0.51H26.84z"/>
		<path class="st7" d="M41.95,64.28c0.86-0.9,1.9-1.34,3.12-1.34c0.69,0,1.35,0.18,1.96,0.55s1.08,0.87,1.41,1.51
			c0.25,0.49,0.42,1.12,0.51,1.89c0.05,0.36,0.07,0.64,0.07,0.83h-5.38c0.05,0.84,0.19,1.57,0.41,2.19
			c0.41,1.16,1.14,1.74,2.18,1.74c0.5,0,0.96-0.15,1.4-0.46c0.27-0.19,0.6-0.5,1-0.94l0.48,0.3c-0.65,1.07-1.41,1.81-2.27,2.23
			c-0.56,0.27-1.2,0.4-1.92,0.4c-1.04,0-2.01-0.41-2.92-1.22c-0.91-0.82-1.36-2.12-1.36-3.91C40.65,66.43,41.09,65.17,41.95,64.28z
			 M46.43,66.94c-0.01-1.24-0.11-2.11-0.29-2.6c-0.18-0.49-0.54-0.74-1.07-0.74c-0.55,0-0.93,0.28-1.13,0.85s-0.32,1.4-0.35,2.49
			H46.43z"/>
		<path class="st7" d="M59.25,58.64v5.45c0.33-0.32,0.63-0.56,0.92-0.72c0.51-0.29,1.07-0.44,1.67-0.44c1.19,0,2.14,0.46,2.87,1.39
			s1.09,2.06,1.09,3.42c0,1.74-0.46,3.09-1.38,4.03c-0.92,0.94-2.07,1.42-3.44,1.42c-0.56,0-1.06-0.11-1.49-0.33
			c-0.43-0.22-0.84-0.51-1.21-0.86l-1.66,1.19h-0.3V60.37c0-0.44-0.08-0.74-0.24-0.9s-0.45-0.26-0.88-0.33v-0.5H59.25z M59.48,71.78
			c0.25,0.48,0.66,0.72,1.24,0.72c0.72,0,1.23-0.38,1.53-1.14c0.3-0.76,0.45-1.84,0.45-3.23c0-1.11-0.13-2.06-0.4-2.85
			c-0.26-0.8-0.78-1.2-1.55-1.2c-0.45,0-0.81,0.17-1.08,0.5c-0.27,0.33-0.41,0.57-0.41,0.72v5.54
			C59.28,71.22,59.35,71.54,59.48,71.78z"/>
		<path class="st7" d="M66.88,72.38c0.37-0.06,0.62-0.15,0.76-0.28c0.21-0.19,0.31-0.52,0.31-1v-6.19c0-0.43-0.07-0.72-0.22-0.88
			c-0.14-0.16-0.43-0.27-0.85-0.35v-0.5h4.04v8.01c0,0.46,0.07,0.75,0.21,0.88c0.14,0.13,0.39,0.23,0.77,0.31v0.5h-5.02V72.38z
			 M68.28,58.8c0.32-0.32,0.71-0.48,1.16-0.48c0.45,0,0.83,0.16,1.15,0.48c0.32,0.32,0.48,0.71,0.48,1.16
			c0,0.45-0.16,0.84-0.48,1.16c-0.32,0.32-0.7,0.48-1.15,0.48c-0.45,0-0.84-0.16-1.16-0.48c-0.32-0.32-0.48-0.7-0.48-1.16
			C67.8,59.51,67.96,59.12,68.28,58.8z"/>
		<path class="st7" d="M73.25,74.39c0.25-0.32,0.68-0.53,1.3-0.62v-0.14c-0.41-0.16-0.71-0.32-0.9-0.48
			c-0.33-0.29-0.49-0.69-0.49-1.18c0-0.59,0.26-1.09,0.78-1.51c0.52-0.42,1.02-0.71,1.52-0.87v-0.14c-0.71-0.29-1.29-0.7-1.73-1.23
			c-0.44-0.54-0.66-1.18-0.66-1.94c0-0.96,0.38-1.75,1.15-2.38c0.77-0.62,1.81-0.94,3.12-0.94c0.49,0,0.95,0.05,1.36,0.14
			c0.41,0.1,0.73,0.2,0.96,0.3h2.78v1.12h-1.71c0.27,0.27,0.49,0.58,0.63,0.94c0.15,0.36,0.22,0.74,0.22,1.16
			c0,1.32-0.63,2.22-1.88,2.71c-0.66,0.26-1.48,0.39-2.46,0.39c-0.21,0-0.35,0-0.42-0.01s-0.16-0.01-0.29-0.01
			c-0.21,0.03-0.42,0.14-0.65,0.33c-0.23,0.19-0.35,0.42-0.35,0.69c0,0.21,0.06,0.38,0.17,0.49c0.12,0.12,0.28,0.19,0.48,0.22
			c0.1,0.01,0.32,0.03,0.66,0.04c0.34,0.01,0.6,0.02,0.78,0.02L79,71.48c0.78,0.01,1.43,0.13,1.96,0.34
			c1.01,0.41,1.51,1.15,1.51,2.21c0,1.37-0.75,2.32-2.26,2.83c-0.8,0.27-1.8,0.4-3,0.4c-0.99,0-1.84-0.1-2.55-0.29
			c-1.18-0.32-1.77-0.87-1.77-1.65C72.87,75.02,73,74.71,73.25,74.39z M75.42,76.21c0.46,0.25,1.13,0.37,2.01,0.37
			c0.78,0,1.43-0.06,1.93-0.19c0.95-0.23,1.43-0.66,1.43-1.29c0-0.37-0.14-0.64-0.41-0.82c-0.27-0.18-0.76-0.27-1.48-0.27h-3.46
			c-0.22,0.18-0.38,0.33-0.47,0.45c-0.17,0.23-0.26,0.47-0.26,0.72C74.73,75.62,74.96,75.96,75.42,76.21z M76.16,68.13
			c0.21,0.62,0.6,0.93,1.18,0.93c0.53,0,0.89-0.23,1.09-0.69c0.2-0.46,0.3-1.14,0.3-2.03c0-0.95-0.1-1.64-0.31-2.07
			c-0.21-0.43-0.57-0.65-1.08-0.65c-0.56,0-0.93,0.23-1.11,0.69c-0.18,0.46-0.28,1.14-0.28,2.02
			C75.95,67.14,76.02,67.74,76.16,68.13z"/>
		<path class="st7" d="M85.12,70.14c0.35-0.35,0.77-0.52,1.26-0.52c0.49,0,0.91,0.17,1.26,0.52c0.35,0.35,0.52,0.77,0.52,1.26
			c0,0.49-0.17,0.91-0.52,1.26c-0.35,0.35-0.77,0.52-1.26,0.52c-0.49,0-0.92-0.17-1.26-0.52c-0.35-0.35-0.52-0.77-0.52-1.26
			C84.61,70.91,84.78,70.49,85.12,70.14z"/>
	</g>
</g>
</svg>
