<?xml version="1.0" encoding="utf-8"?>
<!-- Generator: Adobe Illustrator 26.5.0, SVG Export Plug-In . SVG Version: 6.00 Build 0)  -->
<svg version="1.1" id="Layer_1" xmlns="http://www.w3.org/2000/svg" xmlns:xlink="http://www.w3.org/1999/xlink" x="0px" y="0px"
	 viewBox="0 0 107.07 106.88" style="enable-background:new 0 0 107.07 106.88;" xml:space="preserve">
<style type="text/css">
	.st0{clip-path:url(#SVGID_00000093141338780021791780000015099033472618678461_);fill:#887976;}
	.st1{clip-path:url(#SVGID_00000093141338780021791780000015099033472618678461_);}
	.st2{fill:#081F40;}
	.st3{clip-path:url(#SVGID_00000044152260515712824710000004556181776005193132_);fill:#A51D31;}
	.st4{clip-path:url(#SVGID_00000044152260515712824710000004556181776005193132_);fill:#FFFFFF;}
	.st5{clip-path:url(#SVGID_00000141456858929431671810000001791566413404276148_);fill:#FFFFFF;}
	.st6{clip-path:url(#SVGID_00000141456858929431671810000001791566413404276148_);}
	.st7{fill:#0E2346;}
	.st8{clip-path:url(#SVGID_00000000192119055681192470000010148822713859866768_);fill:#643D18;}
	.st9{clip-path:url(#SVGID_00000000192119055681192470000010148822713859866768_);}
	.st10{fill:#FFFFFF;}
	.st11{clip-path:url(#SVGID_00000065753058325826872690000014992394143020250754_);fill:#1E2758;}
	.st12{clip-path:url(#SVGID_00000065753058325826872690000014992394143020250754_);}
	.st13{fill:#EB1C2D;}
	.st14{clip-path:url(#SVGID_00000008841585301769976080000003791358907499383431_);fill:#0D4E91;}
	.st15{clip-path:url(#SVGID_00000008841585301769976080000003791358907499383431_);}
	.st16{clip-path:url(#SVGID_00000029020004156751534730000016712479583152844946_);fill:#672A7A;}
	.st17{clip-path:url(#SVGID_00000029020004156751534730000016712479583152844946_);fill:#F9F186;}
	
		.st18{clip-path:url(#SVGID_00000029020004156751534730000016712479583152844946_);fill:none;stroke:#000000;stroke-width:1.069;stroke-miterlimit:10;}
	.st19{clip-path:url(#SVGID_00000029020004156751534730000016712479583152844946_);fill:#F5EC3B;}
	.st20{clip-path:url(#SVGID_00000073721742970176853230000015333730966661605310_);fill:#E77625;}
	.st21{clip-path:url(#SVGID_00000073721742970176853230000015333730966661605310_);}
	.st22{clip-path:url(#SVGID_00000021115830356234738310000010371300822155176635_);fill:#D8272D;}
	.st23{clip-path:url(#SVGID_00000021115830356234738310000010371300822155176635_);}
	.st24{clip-path:url(#SVGID_00000038385086880244356640000007636365572842993079_);fill:#00954C;}
	.st25{clip-path:url(#SVGID_00000038385086880244356640000007636365572842993079_);}
	.st26{clip-path:url(#SVGID_00000035495123268682721320000011953795714681623937_);fill:#42B4E4;}
	.st27{clip-path:url(#SVGID_00000035495123268682721320000011953795714681623937_);}
	.st28{clip-path:url(#SVGID_00000103962125810764139750000009759085067091611281_);}
</style>
<g>
	<defs>
		<path id="SVGID_00000003795365064358763480000012454896829217863571_" d="M107.07,53.44c0,29.5-23.98,53.44-53.53,53.44
			C23.98,106.88,0,82.94,0,53.44S23.98,0,53.53,0C83.08,0,107.07,23.94,107.07,53.44z"/>
	</defs>
	<clipPath id="SVGID_00000122690321732732908780000003743231269472764079_">
		<use xlink:href="#SVGID_00000003795365064358763480000012454896829217863571_"  style="overflow:visible;"/>
	</clipPath>
	<path style="clip-path:url(#SVGID_00000122690321732732908780000003743231269472764079_);fill:#0D4E91;" d="M53.53,115.67
		c34.36,0,62.23-27.86,62.23-62.22c0-34.37-27.86-62.23-62.23-62.23S-8.7,19.08-8.7,53.45C-8.7,87.81,19.16,115.67,53.53,115.67"/>
	<g style="clip-path:url(#SVGID_00000122690321732732908780000003743231269472764079_);">
		<path class="st10" d="M8.53,56.39h0.44c0.24,1.14,0.63,1.96,1.17,2.48c0.54,0.52,1.16,0.77,1.86,0.77c0.68,0,1.16-0.18,1.45-0.53
			c0.29-0.35,0.43-0.73,0.43-1.12c0-0.46-0.15-0.83-0.45-1.12c-0.2-0.19-0.6-0.43-1.2-0.74l-0.97-0.49
			c-0.96-0.49-1.64-0.97-2.04-1.44c-0.4-0.48-0.59-1.06-0.59-1.76c0-0.74,0.26-1.44,0.79-2.08s1.33-0.97,2.41-0.97
			c0.55,0,1.08,0.08,1.6,0.25s0.81,0.25,0.88,0.25c0.17,0,0.28-0.05,0.34-0.15c0.06-0.1,0.11-0.22,0.15-0.38h0.45v3.31h-0.42
			c-0.2-0.77-0.55-1.43-1.05-1.98c-0.5-0.56-1.11-0.83-1.83-0.83c-0.5,0-0.9,0.14-1.19,0.42c-0.29,0.28-0.44,0.62-0.44,1.02
			c0,0.48,0.14,0.84,0.41,1.08c0.27,0.24,0.87,0.6,1.81,1.07l1.12,0.56c0.5,0.25,0.9,0.53,1.2,0.84c0.56,0.57,0.83,1.27,0.83,2.09
			c0,0.77-0.3,1.49-0.9,2.17c-0.6,0.68-1.55,1.02-2.87,1.02c-0.3,0-0.61-0.03-0.92-0.09c-0.31-0.06-0.62-0.14-0.92-0.26L9.8,59.7
			c-0.07-0.02-0.13-0.04-0.2-0.05s-0.12-0.02-0.16-0.02c-0.16,0-0.26,0.05-0.32,0.14c-0.06,0.09-0.11,0.22-0.15,0.39H8.53V56.39z"/>
		<path class="st10" d="M17.83,56.89c0.66-0.4,1.69-0.81,3.1-1.21v-1.11c0-0.45-0.09-0.78-0.29-1c-0.19-0.22-0.53-0.32-1.01-0.32
			c-0.27,0-0.5,0.05-0.67,0.15s-0.26,0.23-0.26,0.38c0,0.06,0.01,0.11,0.03,0.15c0.02,0.04,0.05,0.08,0.09,0.13l0.09,0.1
			c0.07,0.08,0.12,0.18,0.17,0.28s0.06,0.21,0.06,0.32c0,0.29-0.1,0.51-0.29,0.67c-0.19,0.16-0.41,0.23-0.67,0.23
			c-0.29,0-0.54-0.09-0.75-0.26c-0.21-0.17-0.31-0.42-0.31-0.75c0-0.58,0.27-1.04,0.82-1.39s1.23-0.51,2.03-0.51
			c0.86,0,1.58,0.17,2.16,0.5c0.58,0.34,0.86,0.96,0.86,1.86v3.69c0,0.11,0.03,0.2,0.08,0.28c0.06,0.08,0.12,0.12,0.19,0.12
			c0.06,0,0.11-0.01,0.16-0.03c0.05-0.02,0.12-0.08,0.22-0.18l0.23,0.32c-0.3,0.35-0.63,0.59-0.99,0.73
			c-0.23,0.09-0.47,0.13-0.72,0.13c-0.45,0-0.78-0.13-0.99-0.39c-0.12-0.15-0.21-0.37-0.26-0.66c-0.42,0.42-0.9,0.72-1.43,0.89
			c-0.32,0.11-0.64,0.16-0.95,0.16c-0.42,0-0.81-0.13-1.17-0.4c-0.36-0.27-0.54-0.68-0.54-1.24C16.84,57.84,17.17,57.29,17.83,56.89
			z M20.49,58.85c0.12-0.09,0.26-0.23,0.42-0.42v-2.23c-0.41,0.1-0.76,0.26-1.07,0.47c-0.52,0.36-0.78,0.82-0.78,1.39
			c0,0.33,0.08,0.58,0.23,0.76c0.15,0.17,0.32,0.26,0.51,0.26C20.04,59.07,20.27,59,20.49,58.85z"/>
		<path class="st10" d="M28.12,52.94v0.36c-0.27,0.01-0.47,0.04-0.61,0.09c-0.14,0.05-0.2,0.16-0.2,0.32c0,0.04,0.02,0.11,0.06,0.22
			c0.04,0.11,0.07,0.19,0.08,0.23l1.18,2.92h0.05l1.06-2.6c0.05-0.12,0.09-0.25,0.12-0.38c0.03-0.13,0.05-0.23,0.05-0.3
			c0-0.21-0.07-0.35-0.21-0.41s-0.35-0.09-0.62-0.09v-0.36h2.3v0.36c-0.2,0.02-0.37,0.08-0.5,0.2s-0.25,0.33-0.38,0.63l-2.45,6.03
			h-0.39l-1.83-4.51c-0.13-0.32-0.25-0.61-0.38-0.89s-0.25-0.55-0.38-0.81c-0.14-0.27-0.25-0.44-0.33-0.51
			c-0.08-0.07-0.22-0.11-0.43-0.13v-0.36H28.12z"/>
		<path class="st10" d="M32.94,53.73c0.62-0.65,1.37-0.97,2.25-0.97c0.5,0,0.97,0.13,1.41,0.39s0.78,0.63,1.02,1.09
			c0.18,0.35,0.3,0.81,0.37,1.37c0.03,0.26,0.05,0.46,0.05,0.6h-3.89c0.03,0.61,0.13,1.14,0.3,1.58c0.3,0.84,0.82,1.26,1.57,1.26
			c0.36,0,0.7-0.11,1.01-0.33c0.19-0.13,0.43-0.36,0.72-0.68l0.35,0.22c-0.47,0.77-1.02,1.31-1.64,1.61
			c-0.4,0.19-0.86,0.29-1.38,0.29c-0.75,0-1.45-0.29-2.11-0.88c-0.65-0.59-0.98-1.53-0.98-2.82C32.01,55.28,32.32,54.37,32.94,53.73
			z M36.18,55.65c-0.01-0.9-0.08-1.52-0.21-1.88c-0.13-0.36-0.39-0.54-0.78-0.54c-0.4,0-0.67,0.21-0.82,0.62
			c-0.15,0.41-0.23,1.01-0.25,1.8H36.18z"/>
		<path class="st10" d="M42.48,53.6v-0.42c0.13-0.12,0.3-0.27,0.5-0.44c0.26-0.24,0.51-0.49,0.74-0.75
			c0.46-0.51,0.88-1.05,1.25-1.63h0.39v2.57h1.45v0.67h-1.45v4.58c0,0.21,0.03,0.39,0.1,0.53c0.1,0.22,0.26,0.33,0.49,0.33
			c0.2,0,0.36-0.07,0.5-0.21s0.27-0.34,0.4-0.58l0.36,0.18c-0.18,0.42-0.39,0.76-0.64,1.02c-0.44,0.46-0.97,0.69-1.6,0.69
			c-0.36,0-0.67-0.07-0.94-0.2c-0.51-0.26-0.77-0.73-0.78-1.4V53.6H42.48z"/>
		<path class="st10" d="M47.54,59.58c0.28-0.03,0.48-0.11,0.61-0.23c0.13-0.12,0.2-0.35,0.2-0.69v-7.75c0-0.3-0.05-0.52-0.16-0.64
			c-0.11-0.12-0.32-0.2-0.65-0.24v-0.36h2.94v4.28c0.31-0.38,0.64-0.67,0.98-0.87c0.34-0.21,0.73-0.31,1.16-0.31
			c0.58,0,1.07,0.17,1.45,0.51c0.38,0.34,0.57,0.92,0.57,1.73v3.66c0,0.34,0.06,0.57,0.17,0.67s0.31,0.19,0.58,0.25v0.36h-3.57
			v-0.36c0.27-0.05,0.46-0.13,0.56-0.22c0.1-0.09,0.15-0.31,0.15-0.64v-3.69c0-0.35-0.04-0.61-0.1-0.78
			c-0.12-0.31-0.35-0.47-0.71-0.47c-0.26,0-0.53,0.12-0.81,0.36s-0.42,0.41-0.42,0.5v4.07c0,0.33,0.05,0.54,0.15,0.64
			c0.1,0.09,0.29,0.17,0.56,0.22v0.36h-3.66V59.58z"/>
		<path class="st10" d="M57.03,53.73c0.62-0.65,1.37-0.97,2.25-0.97c0.5,0,0.97,0.13,1.41,0.39s0.78,0.63,1.02,1.09
			c0.18,0.35,0.3,0.81,0.37,1.37c0.03,0.26,0.05,0.46,0.05,0.6h-3.89c0.03,0.61,0.13,1.14,0.3,1.58c0.3,0.84,0.82,1.26,1.57,1.26
			c0.36,0,0.7-0.11,1.01-0.33c0.19-0.13,0.43-0.36,0.72-0.68l0.35,0.22c-0.47,0.77-1.02,1.31-1.64,1.61
			c-0.4,0.19-0.86,0.29-1.38,0.29c-0.75,0-1.45-0.29-2.11-0.88c-0.65-0.59-0.98-1.53-0.98-2.82C56.1,55.28,56.41,54.37,57.03,53.73z
			 M60.27,55.65c-0.01-0.9-0.08-1.52-0.21-1.88c-0.13-0.36-0.39-0.54-0.78-0.54c-0.4,0-0.67,0.21-0.82,0.62
			c-0.15,0.41-0.23,1.01-0.25,1.8H60.27z"/>
		<path class="st10" d="M71.09,49.66v0.39c-0.53,0.03-0.86,0.07-1.01,0.12c-0.15,0.05-0.22,0.15-0.22,0.31
			c0,0.07,0.01,0.15,0.04,0.23s0.09,0.23,0.19,0.44l2.01,3.66h0.02l1.63-2.67c0.1-0.16,0.21-0.36,0.33-0.6
			c0.17-0.36,0.26-0.63,0.26-0.8c0-0.27-0.11-0.45-0.32-0.54c-0.14-0.06-0.46-0.11-0.95-0.14v-0.39h3.34v0.39
			c-0.24,0.04-0.44,0.1-0.58,0.16c-0.18,0.09-0.34,0.24-0.46,0.43l-2.9,4.73v2.8c0,0.58,0.1,0.95,0.29,1.12
			c0.2,0.17,0.57,0.26,1.11,0.27v0.39h-5.28v-0.39c0.56-0.02,0.94-0.11,1.12-0.29s0.28-0.54,0.28-1.1v-2.24l-2.78-5.05
			c-0.18-0.33-0.41-0.56-0.68-0.7c-0.18-0.08-0.36-0.13-0.54-0.13v-0.39H71.09z"/>
		<path class="st10" d="M76.46,56.89c0.66-0.4,1.69-0.81,3.1-1.21v-1.11c0-0.45-0.09-0.78-0.29-1c-0.19-0.22-0.53-0.32-1.01-0.32
			c-0.27,0-0.5,0.05-0.67,0.15s-0.26,0.23-0.26,0.38c0,0.06,0.01,0.11,0.03,0.15c0.02,0.04,0.05,0.08,0.09,0.13l0.09,0.1
			c0.07,0.08,0.12,0.18,0.17,0.28s0.06,0.21,0.06,0.32c0,0.29-0.1,0.51-0.29,0.67c-0.19,0.16-0.41,0.23-0.67,0.23
			c-0.29,0-0.54-0.09-0.75-0.26c-0.21-0.17-0.31-0.42-0.31-0.75c0-0.58,0.27-1.04,0.82-1.39s1.23-0.51,2.03-0.51
			c0.86,0,1.58,0.17,2.16,0.5c0.58,0.34,0.86,0.96,0.86,1.86v3.69c0,0.11,0.03,0.2,0.08,0.28c0.06,0.08,0.12,0.12,0.19,0.12
			c0.06,0,0.11-0.01,0.16-0.03c0.05-0.02,0.12-0.08,0.22-0.18l0.23,0.32c-0.3,0.35-0.63,0.59-0.99,0.73
			c-0.23,0.09-0.47,0.13-0.72,0.13c-0.45,0-0.78-0.13-0.99-0.39c-0.12-0.15-0.21-0.37-0.26-0.66c-0.42,0.42-0.9,0.72-1.43,0.89
			c-0.32,0.11-0.64,0.16-0.95,0.16c-0.42,0-0.81-0.13-1.17-0.4c-0.36-0.27-0.54-0.68-0.54-1.24C75.48,57.84,75.8,57.29,76.46,56.89z
			 M79.12,58.85c0.12-0.09,0.26-0.23,0.42-0.42v-2.23c-0.41,0.1-0.76,0.26-1.07,0.47c-0.52,0.36-0.78,0.82-0.78,1.39
			c0,0.33,0.08,0.58,0.23,0.76c0.15,0.17,0.32,0.26,0.51,0.26C78.67,59.07,78.9,59,79.12,58.85z"/>
		<path class="st10" d="M82.94,59.58c0.27-0.06,0.46-0.15,0.57-0.26c0.11-0.11,0.17-0.33,0.17-0.67v-7.75
			c0-0.32-0.05-0.54-0.16-0.64c-0.1-0.1-0.3-0.18-0.58-0.25v-0.36h2.88v9c0,0.34,0.05,0.56,0.16,0.66c0.11,0.1,0.3,0.19,0.58,0.26
			v0.36h-3.63V59.58z"/>
		<path class="st10" d="M88.19,53.73c0.62-0.65,1.37-0.97,2.25-0.97c0.5,0,0.97,0.13,1.41,0.39s0.78,0.63,1.02,1.09
			c0.18,0.35,0.3,0.81,0.37,1.37c0.03,0.26,0.05,0.46,0.05,0.6h-3.89c0.03,0.61,0.13,1.14,0.3,1.58c0.3,0.84,0.82,1.26,1.57,1.26
			c0.36,0,0.7-0.11,1.01-0.33c0.19-0.13,0.43-0.36,0.72-0.68l0.35,0.22c-0.47,0.77-1.02,1.31-1.64,1.61
			c-0.4,0.19-0.86,0.29-1.38,0.29c-0.75,0-1.45-0.29-2.11-0.88c-0.65-0.59-0.98-1.53-0.98-2.82C87.26,55.28,87.57,54.37,88.19,53.73
			z M91.43,55.65c-0.01-0.9-0.08-1.52-0.21-1.88c-0.13-0.36-0.39-0.54-0.78-0.54c-0.4,0-0.67,0.21-0.82,0.62
			c-0.15,0.41-0.23,1.01-0.25,1.8H91.43z"/>
		<path class="st10" d="M94.07,57.64h0.42c0.15,0.73,0.43,1.24,0.83,1.54c0.41,0.3,0.82,0.45,1.25,0.45c0.39,0,0.68-0.09,0.86-0.26
			c0.18-0.18,0.28-0.41,0.28-0.69c0-0.27-0.1-0.51-0.3-0.7c-0.11-0.1-0.28-0.22-0.53-0.33l-1.13-0.55
			c-0.59-0.29-1.02-0.61-1.28-0.95c-0.26-0.34-0.39-0.75-0.39-1.21c0-0.59,0.21-1.1,0.62-1.53c0.41-0.43,0.99-0.64,1.72-0.64
			c0.32,0,0.66,0.05,1.03,0.16c0.36,0.11,0.59,0.16,0.68,0.16c0.12,0,0.21-0.03,0.26-0.08c0.05-0.05,0.1-0.12,0.13-0.22h0.33v2.2
			h-0.39c-0.14-0.52-0.38-0.93-0.71-1.24s-0.71-0.47-1.14-0.47c-0.34,0-0.59,0.09-0.75,0.28c-0.17,0.19-0.25,0.39-0.25,0.61
			c0,0.18,0.07,0.36,0.22,0.54c0.14,0.18,0.42,0.37,0.82,0.56l0.83,0.4c0.51,0.25,0.89,0.49,1.13,0.72c0.4,0.4,0.59,0.88,0.59,1.46
			c0,0.56-0.21,1.09-0.61,1.58c-0.41,0.49-1.02,0.73-1.84,0.73c-0.2,0-0.41-0.02-0.61-0.06c-0.21-0.04-0.46-0.12-0.76-0.22
			l-0.26-0.09c-0.09-0.03-0.15-0.05-0.17-0.06s-0.05-0.01-0.08-0.01c-0.08,0-0.16,0.03-0.22,0.1c-0.06,0.07-0.13,0.18-0.21,0.34
			h-0.36V57.64z"/>
	</g>
</g>
</svg>
