<?xml version="1.0" encoding="UTF-8"?><svg id="a" xmlns="http://www.w3.org/2000/svg" viewBox="0 0 109 109"><path d="M108.4995,54.5c0,29.823-24.178,54-54,54S.5005,84.323,.5005,54.5,24.6755,.5,54.4995,.5s54,24.177,54,54" fill="#794400"/><path d="M27.7695,33.592v.254c-.174,.014-.32,.061-.439,.1429-.118,.084-.224,.209-.316,.377-.027,.056-.171,.41-.431,1.063l-2.913,7.672h-.268l-2.304-5.9919-2.536,5.9919h-.254l-3.057-7.589c-.311-.764-.528-1.225-.652-1.385-.123-.16-.331-.254-.624-.2809v-.254h4.031v.254c-.324,.009-.54,.059-.647,.147-.107,.089-.161,.201-.161,.332,0,.174,.111,.5421,.336,1.104l1.823,4.512,1.46-3.525-.384-.987c-.21-.539-.372-.8979-.486-1.079-.114-.181-.246-.31-.395-.388-.148-.077-.366-.116-.654-.116v-.254h4.504v.254c-.315,.0049-.542,.029-.679,.075-.095,.032-.172,.086-.226,.161-.055,.075-.082,.161-.082,.257,0,.106,.102,.428,.308,.967l1.694,4.401,1.514-3.983c.16-.411,.259-.693,.295-.843,.037-.151,.055-.29,.055-.418,0-.187-.064-.335-.192-.442-.127-.108-.373-.166-.733-.175v-.254h2.413" fill="#fff"/><path d="M33.7955,39.453h-3.517c.041,.851,.268,1.523,.679,2.016,.315,.38,.694,.569,1.137,.569,.275,0,.524-.077,.747-.229,.225-.153,.464-.429,.721-.826l.233,.15c-.347,.709-.732,1.21-1.152,1.505-.421,.295-.907,.442-1.46,.442-.951,0-1.671-.366-2.16-1.096-.393-.59-.589-1.322-.589-2.195,0-1.069,.289-1.92,.867-2.553,.579-.633,1.255-.95,2.033-.95,.649,0,1.212,.267,1.689,.799,.478,.532,.735,1.322,.772,2.368m-1.687-.459c0-.736-.04-1.241-.12-1.515-.079-.274-.204-.482-.373-.623-.096-.083-.224-.124-.384-.124-.238,0-.433,.117-.583,.349-.269,.408-.404,.965-.404,1.673v.24h1.864Z" fill="#fff"/><path d="M35.4135,37.946v-.302c.53-.229,.915-.525,1.155-.888,.239-.363,.359-.737,.359-1.121,0-.073-.015-.13-.047-.171-.033-.037-.065-.056-.096-.056-.028,0-.069,.017-.124,.049-.132,.077-.297,.116-.493,.116-.27,0-.504-.105-.704-.315-.198-.21-.297-.457-.297-.74,0-.302,.114-.567,.342-.795,.229-.229,.505-.343,.83-.343,.393,0,.729,.151,1.007,.455,.28,.305,.419,.722,.419,1.251,0,.654-.198,1.235-.593,1.742-.395,.507-.982,.88-1.758,1.118" fill="#fff"/><path d="M41.9325,36.479v1.453c.425-.663,.798-1.103,1.117-1.32,.321-.217,.629-.326,.926-.326,.256,0,.461,.079,.613,.237,.154,.158,.231,.381,.231,.669,0,.305-.075,.544-.224,.713-.148,.168-.327,.252-.538,.252-.242,0-.452-.077-.631-.232-.177-.155-.283-.242-.314-.261-.046-.027-.099-.041-.158-.041-.133,0-.258,.05-.377,.151-.188,.155-.329,.377-.425,.665-.147,.443-.22,.932-.22,1.467v1.474l.007,.384c0,.261,.017,.428,.048,.5,.055,.124,.136,.2141,.244,.2711,.107,.0569,.288,.092,.545,.107v.246h-3.463v-.246c.279-.024,.468-.1,.567-.231,.097-.13,.147-.473,.147-1.031v-3.544c0-.366-.019-.599-.056-.7-.045-.127-.111-.221-.198-.28-.087-.06-.24-.101-.46-.124v-.253h2.619" fill="#fff"/><path d="M50.9335,39.453h-3.516c.041,.851,.267,1.523,.678,2.016,.316,.38,.695,.569,1.138,.569,.274,0,.523-.077,.747-.229,.225-.153,.464-.429,.721-.826l.232,.15c-.346,.709-.731,1.21-1.151,1.505-.421,.295-.907,.442-1.46,.442-.951,0-1.671-.366-2.16-1.096-.393-.59-.589-1.322-.589-2.195,0-1.069,.289-1.92,.867-2.553s1.255-.95,2.032-.95c.65,0,1.212,.267,1.69,.799,.477,.532,.735,1.322,.771,2.368m-1.686-.459c0-.736-.04-1.241-.12-1.515-.08-.274-.205-.482-.373-.623-.096-.083-.224-.124-.384-.124-.239,0-.433,.117-.583,.349-.27,.408-.405,.965-.405,1.673v.24h1.865Z" fill="#fff"/><path d="M58.6105,38.418v2.88c0,.475,.028,.773,.081,.891,.052,.119,.154,.222,.308,.312,.152,.089,.36,.134,.619,.134h.309v.253h-4.86v-.253h.309c.27,0,.486-.049,.65-.145,.12-.063,.211-.173,.274-.329,.051-.109,.076-.397,.076-.863v-6.115c0-.476-.025-.773-.076-.892-.049-.118-.15-.222-.305-.311-.152-.09-.359-.134-.619-.134h-.309v-.254h4.86v.254h-.309c-.269,0-.486,.048-.65,.143-.119,.065-.213,.174-.281,.33-.051,.11-.077,.397-.077,.864v2.632h3.286v-2.632c0-.476-.026-.773-.077-.892-.05-.118-.152-.222-.308-.311-.154-.09-.363-.134-.623-.134h-.303v-.254h4.854v.254h-.301c-.276,0-.492,.048-.653,.143-.117,.065-.21,.174-.279,.33-.051,.11-.076,.397-.076,.864v6.115c0,.475,.025,.773,.076,.891,.049,.119,.153,.222,.307,.312,.156,.089,.363,.134,.625,.134h.301v.253h-4.854v-.253h.303c.273,0,.49-.049,.65-.145,.119-.063,.213-.173,.281-.329,.051-.109,.077-.397,.077-.863v-2.88h-3.286" fill="#fff"/><path d="M69.5915,41.942c-.781,.69-1.482,1.036-2.104,1.036-.367,0-.67-.12-.912-.361-.242-.24-.363-.54-.363-.901,0-.489,.209-.929,.631-1.32,.42-.391,1.336-.91,2.748-1.56v-.643c0-.485-.025-.79-.078-.916-.053-.125-.153-.236-.299-.329-.147-.093-.311-.14-.494-.14-.297,0-.541,.065-.733,.198-.119,.082-.177,.179-.177,.288,0,.096,.062,.215,.191,.357,.174,.196,.26,.386,.26,.569,0,.224-.084,.414-.25,.572-.166,.157-.385,.237-.654,.237-.29,0-.53-.087-.723-.261-.195-.174-.293-.377-.293-.611,0-.329,.131-.642,.391-.942,.261-.299,.625-.528,1.091-.688,.465-.161,.95-.241,1.453-.241,.608,0,1.088,.129,1.442,.388,.355,.258,.584,.538,.689,.84,.065,.191,.096,.633,.096,1.322v2.489c0,.292,.012,.477,.035,.552,.024,.075,.057,.131,.104,.168,.045,.0359,.097,.055,.156,.055,.119,0,.24-.085,.363-.254l.207,.165c-.228,.338-.465,.584-.711,.736-.244,.154-.521,.231-.832,.231-.365,0-.652-.086-.857-.258-.205-.171-.332-.431-.377-.778m0-.5v-2.146c-.553,.324-.965,.672-1.234,1.042-.178,.247-.268,.496-.268,.747,0,.21,.076,.396,.227,.556,.115,.123,.275,.184,.48,.184,.229,0,.494-.127,.795-.383Z" fill="#fff"/><path d="M75.5995,42.237v2.385c0,.329,.025,.554,.078,.672,.053,.119,.133,.206,.244,.261,.109,.055,.324,.082,.643,.082v.254h-3.653v-.254c.283-.009,.492-.089,.631-.239,.09-.106,.137-.378,.137-.817v-6.766c0-.452-.053-.742-.158-.867-.106-.125-.309-.198-.61-.216v-.253h2.688v.843c.222-.33,.451-.567,.685-.713,.332-.215,.696-.323,1.09-.323,.471,0,.899,.149,1.285,.446,.385,.298,.68,.708,.881,1.23,.201,.524,.301,1.087,.301,1.691,0,.648-.104,1.242-.311,1.778-.209,.537-.509,.946-.906,1.227-.394,.282-.834,.422-1.318,.422-.354,0-.682-.078-.989-.233-.228-.119-.468-.322-.718-.61m0-.693c.392,.558,.812,.837,1.26,.837,.248,0,.451-.131,.611-.391,.236-.383,.355-1.115,.355-2.194,0-1.105-.129-1.862-.39-2.268-.174-.27-.407-.406-.7-.406-.46,0-.839,.334-1.136,1.001v3.421Z" fill="#fff"/><path d="M83.4075,42.237v2.385c0,.329,.026,.554,.078,.672,.053,.119,.133,.206,.245,.261,.109,.055,.324,.082,.642,.082v.254h-3.652v-.254c.283-.009,.492-.089,.631-.239,.09-.106,.136-.378,.136-.817v-6.766c0-.452-.052-.742-.158-.867-.105-.125-.308-.198-.609-.216v-.253h2.687v.843c.223-.33,.452-.567,.686-.713,.332-.215,.695-.323,1.09-.323,.47,0,.898,.149,1.285,.446,.385,.298,.68,.708,.881,1.23,.201,.524,.301,1.087,.301,1.691,0,.648-.104,1.242-.311,1.778-.209,.537-.51,.946-.906,1.227-.395,.282-.834,.422-1.319,.422-.353,0-.681-.078-.988-.233-.228-.119-.469-.322-.719-.61m0-.693c.393,.558,.813,.837,1.26,.837,.248,0,.451-.131,.611-.391,.237-.383,.356-1.115,.356-2.194,0-1.105-.129-1.862-.391-2.268-.174-.27-.406-.406-.699-.406-.461,0-.84,.334-1.137,1.001v3.421Z" fill="#fff"/><path d="M91.5485,43.149l-2.07-4.751c-.311-.718-.541-1.159-.69-1.324-.148-.164-.328-.278-.539-.342v-.253h3.408v.253c-.224,.009-.382,.052-.472,.131-.092,.077-.137,.17-.137,.28,0,.174,.113,.516,.342,1.028l1.097,2.51,.747-1.941c.269-.689,.404-1.169,.404-1.439,0-.169-.055-.304-.168-.404-.111-.101-.309-.156-.592-.165v-.253h2.145v.253c-.209,.023-.381,.104-.514,.243-.133,.139-.354,.614-.664,1.423l-1.832,4.751c-.461,1.188-.803,1.92-1.028,2.193-.316,.385-.71,.576-1.185,.576-.381,0-.688-.108-.922-.325-.236-.218-.353-.4789-.353-.785,0-.266,.08-.485,.242-.658,.162-.174,.363-.261,.601-.261,.229,0,.412,.073,.551,.22,.139,.146,.211,.3719,.217,.678,.004,.174,.025,.286,.06,.336,.038,.05,.09,.075,.159,.075,.109,0,.226-.066,.349-.199,.184-.191,.399-.63,.645-1.315l.199-.535" fill="#fff"/><path d="M44.2625,58.022c-.782,.69-1.483,1.036-2.104,1.036-.366,0-.67-.12-.912-.36-.242-.241-.364-.541-.364-.902,0-.489,.21-.929,.631-1.32,.42-.391,1.337-.91,2.749-1.56v-.643c0-.485-.026-.79-.079-.916-.053-.125-.152-.236-.298-.329-.146-.093-.311-.14-.494-.14-.297,0-.541,.065-.733,.198-.119,.082-.178,.179-.178,.288,0,.096,.064,.215,.192,.357,.173,.196,.26,.386,.26,.569,0,.224-.084,.414-.25,.572-.167,.158-.385,.237-.655,.237-.288,0-.529-.087-.723-.261s-.292-.377-.292-.61c0-.33,.131-.643,.391-.943,.261-.299,.624-.528,1.091-.688,.466-.16,.95-.241,1.453-.241,.607,0,1.089,.129,1.442,.388,.355,.258,.584,.538,.69,.84,.063,.191,.095,.633,.095,1.322v2.49c0,.2921,.012,.476,.035,.551,.023,.075,.057,.131,.103,.168,.045,.0359,.098,.055,.157,.055,.119,0,.241-.085,.364-.254l.206,.165c-.229,.338-.465,.584-.71,.736-.244,.154-.522,.231-.833,.231-.366,0-.652-.086-.857-.258-.206-.171-.332-.431-.377-.778m0-.5v-2.146c-.553,.324-.965,.672-1.234,1.042-.178,.247-.268,.496-.268,.747,0,.21,.077,.396,.227,.556,.114,.123,.274,.185,.479,.185,.229,0,.495-.128,.796-.384Z" fill="#fff"/><path d="M50.4065,52.559v.829c.329-.357,.644-.616,.946-.778,.302-.162,.626-.244,.974-.244,.415,0,.761,.116,1.035,.346,.273,.232,.457,.519,.548,.861,.073,.26,.11,.761,.11,1.501v2.496c0,.494,.044,.8,.133,.921,.09,.122,.275,.199,.56,.231v.246h-3.244v-.246c.243-.032,.416-.133,.522-.302,.072-.114,.109-.398,.109-.85v-2.852c0-.525-.02-.857-.061-.994-.041-.137-.112-.243-.209-.318-.099-.077-.207-.114-.326-.114-.393,0-.759,.281-1.097,.843v3.435c0,.48,.045,.784,.134,.912,.089,.1281,.255,.208,.497,.2401v.246h-3.243v-.246c.269-.028,.461-.114,.576-.261,.078-.1,.116-.397,.116-.891v-3.62c0-.484-.044-.786-.133-.905-.09-.119-.275-.196-.559-.233v-.253h2.612" fill="#fff"/><path d="M61.8275,49.672v7.377c0,.498,.014,.793,.041,.884,.035,.151,.106,.263,.209,.336,.102,.073,.282,.119,.537,.137v.226l-2.707,.528v-1.014c-.324,.392-.613,.66-.867,.802-.254,.141-.541,.212-.861,.212-.819,0-1.465-.366-1.94-1.096-.384-.595-.576-1.324-.576-2.188,0-.689,.119-1.307,.358-1.854,.236-.546,.562-.958,.976-1.238,.412-.278,.858-.418,1.332-.418,.307,0,.578,.06,.817,.179,.238,.118,.492,.326,.761,.623v-1.932c0-.49-.021-.785-.062-.885-.055-.133-.137-.231-.246-.295-.11-.064-.317-.096-.617-.096v-.288h2.845m-1.92,4.347c-.338-.65-.752-.974-1.242-.974-.168,0-.308,.046-.418,.137-.168,.141-.306,.391-.414,.748-.107,.356-.162,.902-.162,1.638,0,.809,.061,1.408,.18,1.796s.281,.669,.486,.843c.105,.087,.248,.13,.432,.13,.402,0,.781-.315,1.138-.945v-3.373Z" fill="#fff"/><path d="M28.9685,66.113v.252c-.173,.014-.32,.063-.439,.145-.118,.082-.224,.208-.316,.377-.027,.055-.17,.409-.431,1.062l-2.913,7.671h-.268l-2.304-5.991-2.536,5.991h-.254l-3.057-7.589c-.311-.762-.528-1.2241-.652-1.384-.123-.16-.331-.254-.624-.282v-.252h4.032v.252c-.325,.01-.54,.059-.648,.148-.107,.09-.161,.2-.161,.3329,0,.174,.111,.541,.336,1.103l1.823,4.511,1.46-3.523-.384-.988c-.21-.539-.372-.899-.486-1.08-.114-.179-.246-.309-.394-.386-.149-.078-.367-.118-.655-.118v-.252h4.504v.252c-.315,.005-.542,.031-.679,.077-.095,.031-.171,.085-.226,.161-.055,.075-.082,.161-.082,.257,0,.105,.102,.426,.308,.966l1.694,4.401,1.514-3.983c.161-.411,.259-.692,.295-.843,.038-.151,.055-.29,.055-.418,0-.188-.063-.335-.191-.443-.128-.107-.373-.165-.734-.175v-.252h2.413" fill="#fff"/><path d="M34.9945,71.974h-3.517c.041,.849,.268,1.521,.679,2.015,.315,.379,.694,.569,1.138,.569,.274,0,.523-.076,.747-.23,.224-.153,.464-.428,.72-.826l.233,.152c-.347,.708-.732,1.21-1.152,1.504-.42,.294-.907,.442-1.46,.442-.951,0-1.67-.365-2.16-1.097-.392-.59-.589-1.32-.589-2.193,0-1.07,.289-1.921,.868-2.554,.578-.633,1.254-.95,2.032-.95,.649,0,1.212,.267,1.689,.799,.478,.533,.736,1.322,.772,2.369m-1.687-.46c0-.735-.04-1.24-.12-1.515-.079-.274-.204-.482-.373-.624-.096-.082-.224-.123-.384-.123-.238,0-.432,.116-.583,.35-.269,.406-.404,.964-.404,1.673v.239h1.864Z" fill="#fff"/><path d="M44.6805,69.67l3.271,4.093c.461,.576,.858,.967,1.192,1.172,.242,.146,.498,.22,.768,.22v.253h-4.84v-.253c.307-.028,.504-.076,.593-.144,.09-.069,.133-.153,.133-.254,0-.192-.209-.553-.63-1.0829l-2.132-2.681-.343,.288v2.537c0,.484,.027,.786,.082,.905,.056,.119,.16,.221,.315,.305,.156,.085,.406,.127,.749,.127v.253h-4.69v-.253h.309c.269,0,.486-.048,.651-.144,.118-.064,.21-.174,.274-.329,.05-.11,.076-.399,.076-.864v-6.116c0-.474-.026-.772-.076-.89-.05-.119-.152-.223-.305-.313-.154-.089-.36-.134-.62-.134h-.309v-.252h4.627v.252c-.315,0-.555,.046-.72,.138-.118,.064-.212,.171-.281,.322-.055,.115-.082,.407-.082,.877v2.894l3.448-2.79c.481-.389,.72-.699,.72-.933,0-.174-.098-.31-.294-.411-.101-.051-.35-.083-.748-.097v-.252h3.627v.252c-.324,.024-.579,.083-.765,.175-.184,.094-.611,.41-1.278,.95l-2.722,2.18" fill="#fff"/><path d="M52.8455,68.998v.829c.329-.356,.645-.615,.947-.777,.301-.162,.626-.244,.973-.244,.416,0,.761,.116,1.035,.347,.273,.23,.457,.517,.549,.86,.072,.261,.109,.761,.109,1.501v2.496c0,.493,.045,.801,.133,.922,.09,.121,.275,.197,.56,.229v.2469h-3.243v-.2469c.242-.032,.416-.132,.521-.301,.073-.115,.11-.398,.11-.85v-2.853c0-.525-.021-.856-.062-.994-.041-.136-.111-.243-.209-.318s-.207-.113-.326-.113c-.393,0-.759,.281-1.097,.843v3.435c0,.479,.045,.783,.134,.9109,.089,.1281,.255,.208,.497,.2401v.2469h-3.243v-.2469c.27-.027,.462-.114,.576-.26,.078-.101,.116-.398,.116-.891v-3.62c0-.484-.044-.786-.132-.905-.09-.119-.276-.197-.56-.233v-.254h2.612" fill="#fff"/><path d="M61.0585,68.806c.558,0,1.076,.144,1.556,.433,.481,.288,.844,.696,1.094,1.226,.248,.53,.373,1.111,.373,1.741,0,.91-.23,1.671-.691,2.283-.559,.741-1.328,1.111-2.311,1.111-.965,0-1.707-.338-2.228-1.015-.522-.676-.782-1.46-.782-2.351,0-.918,.266-1.719,.799-2.403,.532-.683,1.262-1.025,2.19-1.025m.027,.487c-.232,0-.432,.088-.6,.264-.166,.176-.275,.523-.328,1.0421-.052,.5179-.08,1.24-.08,2.163,0,.489,.033,.946,.098,1.371,.049,.324,.156,.571,.322,.74,.164,.169,.352,.254,.561,.254,.207,0,.377-.057,.515-.172,.178-.155,.297-.372,.356-.65,.092-.435,.137-1.313,.137-2.633,0-.777-.043-1.3101-.129-1.6-.088-.291-.215-.502-.385-.635-.119-.096-.274-.144-.467-.144Z" fill="#fff"/><path d="M71.3255,75.6l-1.754-4.702-1.72,4.702h-.358l-1.707-4.648c-.256-.709-.472-1.17-.65-1.384-.115-.147-.289-.252-.522-.316v-.254h3.237v.254c-.221,0-.371,.032-.453,.096-.082,.064-.123,.137-.123,.22,0,.077,.072,.31,.218,.699l.94,2.502,.904-2.502-.068-.165c-.137-.343-.256-.561-.36-.654-.103-.094-.261-.16-.476-.196v-.254h3.283v.254c-.256,.014-.418,.049-.486,.107-.069,.056-.104,.137-.104,.243,0,.1,.066,.322,.199,.665l.907,2.502,.822-2.304c.119-.329,.178-.553,.178-.672,0-.178-.043-.308-.131-.39-.086-.082-.256-.132-.506-.151v-.254h1.898v.254c-.211,.028-.377,.1021-.5,.223-.125,.121-.285,.465-.48,1.031l-1.797,5.094h-.391" fill="#fff"/><path d="M83.1635,75.155v.253h-4.861v-.253h.308c.27,0,.487-.048,.653-.144,.117-.064,.209-.174,.273-.329,.051-.11,.076-.399,.076-.864v-6.116c0-.474-.025-.772-.076-.89-.051-.119-.152-.223-.304-.313-.155-.089-.362-.134-.622-.134h-.308v-.252h4.861v.252h-.308c-.27,0-.487,.049-.653,.145-.119,.063-.211,.174-.281,.329-.049,.109-.074,.3979-.074,.863v6.116c0,.475,.025,.772,.078,.891,.053,.118,.156,.223,.309,.312,.154,.089,.359,.134,.621,.134h.308" fill="#fff"/><path d="M86.5285,66.654v2.344h1.522v.679h-1.522v3.956c0,.37,.018,.608,.051,.716,.035,.107,.096,.194,.182,.261,.088,.066,.168,.099,.24,.099,.297,0,.578-.226,.844-.678l.205,.15c-.369,.8781-.971,1.316-1.803,1.316-.406,0-.75-.113-1.031-.339-.281-.226-.461-.479-.539-.757-.045-.156-.068-.577-.068-1.262v-3.462h-.836v-.24c.576-.406,1.066-.834,1.47-1.281,.405-.449,.758-.949,1.059-1.502h.226" fill="#fff"/></svg>