<?xml version="1.0" encoding="UTF-8"?><svg id="a" xmlns="http://www.w3.org/2000/svg" viewBox="0 0 109 109"><path d="M108.5005,54.5c0,29.825-24.178,54-54,54S.4995,84.325,.4995,54.5,24.6755,.5,54.5005,.5s54,24.178,54,54" fill="#13b5ea"/><path d="M27.7575,40.268v3.152h-.261c-.197-.822-.563-1.453-1.1-1.891-.537-.438-1.146-.658-1.824-.658-.569,0-1.09,.164-1.565,.49-.472,.327-.82,.754-1.039,1.282-.281,.675-.422,1.427-.422,2.253,0,.814,.102,1.556,.309,2.224,.205,.668,.527,1.173,.966,1.516,.437,.342,1.006,.513,1.704,.513,.572,0,1.096-.124,1.572-.375,.477-.251,.979-.682,1.506-1.295v.785c-.51,.532-1.041,.918-1.593,1.157-.552,.24-1.197,.359-1.936,.359-.969,0-1.831-.195-2.585-.583-.754-.39-1.335-.949-1.744-1.678-.41-.729-.614-1.505-.614-2.327,0-.868,.227-1.691,.681-2.469,.453-.778,1.066-1.382,1.838-1.812,.771-.428,1.59-.643,2.458-.643,.64,0,1.315,.139,2.026,.416,.411,.161,.673,.241,.785,.241,.143,0,.266-.053,.371-.158,.106-.105,.174-.272,.206-.499h.261" fill="#fff"/><path d="M31.8745,43.112c.546,0,1.053,.14,1.524,.423,.469,.282,.826,.681,1.069,1.201,.243,.518,.366,1.087,.366,1.703,0,.89-.226,1.635-.677,2.234-.546,.725-1.3,1.086-2.262,1.086-.942,0-1.67-.33-2.18-.992-.509-.662-.764-1.429-.764-2.301,0-.899,.26-1.682,.782-2.351,.519-.668,1.234-1.003,2.142-1.003m.028,.476c-.229,0-.424,.086-.588,.259-.162,.172-.27,.512-.321,1.02-.052,.506-.078,1.212-.078,2.116,0,.478,.032,.926,.094,1.342,.049,.317,.155,.558,.317,.723,.16,.166,.343,.248,.548,.248,.202,0,.37-.055,.504-.167,.174-.152,.291-.364,.349-.636,.089-.426,.134-1.285,.134-2.578,0-.759-.042-1.282-.127-1.565-.086-.284-.211-.491-.376-.621-.116-.094-.269-.141-.456-.141Z" fill="#fff"/><path d="M38.2835,40.476v7.795c0,.442,.05,.725,.154,.848,.103,.124,.303,.194,.603,.211v.242h-3.387v-.242c.277-.008,.482-.089,.617-.241,.089-.103,.134-.376,.134-.818v-6.493c0-.44-.051-.72-.155-.842-.102-.124-.3-.194-.596-.212v-.248h2.63" fill="#fff"/><path d="M45.7425,43.3v4.91c0,.479,.045,.777,.134,.896,.089,.118,.271,.193,.543,.224v.242h-2.554v-.838c-.301,.357-.6,.618-.901,.781-.299,.163-.633,.244-1.006,.244-.353,0-.667-.108-.941-.325-.275-.217-.46-.471-.554-.761-.094-.291-.141-.799-.141-1.522v-2.49c0-.473-.043-.768-.131-.885-.087-.116-.27-.193-.547-.228v-.248h2.557v4.286c0,.448,.021,.736,.064,.866,.041,.129,.108,.228,.2,.294,.092,.068,.199,.102,.32,.102,.16,0,.305-.043,.435-.128,.179-.116,.394-.351,.645-.704v-3.355c0-.473-.045-.768-.131-.885-.088-.116-.27-.193-.547-.228v-.248h2.555" fill="#fff"/><path d="M49.9285,43.3v.825c.343-.376,.664-.638,.957-.788,.293-.15,.613-.225,.963-.225,.402,0,.738,.093,1.011,.282,.274,.187,.483,.474,.631,.858,.358-.402,.701-.692,1.029-.872,.329-.178,.672-.268,1.032-.268,.433,0,.777,.099,1.035,.299,.258,.199,.435,.452,.537,.757,.1,.307,.15,.795,.15,1.466v2.569c0,.484,.045,.783,.131,.899,.088,.117,.27,.192,.547,.228v.242h-3.24v-.242c.256-.022,.443-.121,.564-.294,.08-.122,.119-.399,.119-.833v-2.696c0-.559-.021-.915-.066-1.067-.045-.152-.115-.265-.211-.339-.096-.073-.209-.11-.338-.11-.193,0-.386,.07-.584,.212-.197,.14-.396,.351-.597,.633v3.367c0,.452,.039,.736,.113,.852,.103,.166,.301,.258,.592,.275v.242h-3.246v-.242c.173-.008,.31-.052,.41-.13,.101-.079,.17-.172,.203-.283,.033-.109,.049-.347,.049-.714v-2.696c0-.568-.022-.924-.067-1.067-.045-.143-.119-.255-.224-.335-.106-.08-.219-.121-.338-.121-.18,0-.342,.047-.49,.141-.211,.139-.434,.375-.672,.711v3.367c0,.443,.045,.735,.131,.875,.087,.142,.269,.225,.546,.252v.242h-3.232v-.242c.263-.027,.451-.111,.562-.254,.077-.099,.115-.389,.115-.873v-3.542c0-.473-.044-.768-.131-.885-.088-.116-.269-.193-.546-.228v-.248h2.555" fill="#fff"/><path d="M61.0195,40.476v3.454c.528-.545,1.106-.818,1.731-.818,.43,0,.834,.127,1.213,.38,.381,.252,.678,.611,.892,1.076,.215,.465,.323,1.002,.323,1.61,0,.684-.137,1.306-.409,1.864-.273,.56-.638,.986-1.093,1.279-.457,.292-.977,.438-1.563,.438-.34,0-.642-.053-.906-.16-.264-.107-.523-.282-.777-.523l-1.041,.677h-.229v-7.975c0-.364-.014-.587-.047-.671-.045-.125-.115-.219-.211-.279-.095-.061-.258-.095-.486-.104v-.248h2.603m0,4.052v2.79c0,.568,.014,.93,.041,1.087,.043,.263,.151,.477,.321,.64,.172,.163,.387,.245,.652,.245,.227,0,.422-.064,.586-.195,.164-.129,.299-.386,.408-.77,.112-.385,.166-1.079,.166-2.08,0-.961-.121-1.622-.363-1.979-.174-.26-.408-.39-.703-.39-.387,0-.754,.217-1.108,.652Z" fill="#fff"/><path d="M68.6805,43.3v4.971c0,.442,.05,.725,.154,.848,.103,.124,.305,.194,.603,.211v.242h-3.386v-.242c.277-.008,.482-.089,.617-.241,.088-.103,.133-.376,.133-.818v-3.663c0-.443-.051-.726-.153-.849-.103-.123-.302-.193-.597-.211v-.248h2.629m-.94-3.039c.291,0,.537,.102,.738,.305,.202,.204,.303,.449,.303,.735s-.103,.529-.304,.731c-.206,.201-.45,.302-.737,.302-.285,0-.529-.101-.73-.302-.201-.202-.301-.445-.301-.731s.1-.531,.301-.735c.201-.203,.445-.305,.73-.305Z" fill="#fff"/><path d="M73.5515,48.646c-.766,.676-1.451,1.014-2.059,1.014-.359,0-.656-.119-.892-.353-.239-.235-.356-.528-.356-.882,0-.478,.205-.909,.617-1.292,.41-.382,1.309-.89,2.69-1.526v-.63c0-.474-.026-.773-.078-.896-.051-.123-.149-.23-.291-.322-.143-.091-.305-.137-.483-.137-.291,0-.529,.065-.719,.195-.117,.08-.173,.174-.173,.281,0,.094,.062,.21,.187,.349,.17,.192,.256,.379,.256,.557,0,.219-.082,.406-.246,.56-.162,.154-.377,.231-.641,.231-.281,0-.517-.085-.707-.255-.189-.17-.285-.369-.285-.597,0-.322,.127-.629,.381-.922,.256-.293,.611-.518,1.068-.674,.455-.157,.93-.235,1.422-.235,.594,0,1.065,.127,1.412,.38,.346,.252,.571,.526,.674,.821,.063,.187,.094,.619,.094,1.294v2.435c0,.286,.012,.467,.033,.54,.023,.075,.057,.129,.102,.164,.043,.037,.095,.054,.154,.054,.115,0,.234-.083,.355-.248l.202,.161c-.225,.331-.456,.572-.696,.721-.238,.15-.51,.226-.814,.226-.358,0-.637-.084-.838-.252-.201-.168-.324-.422-.369-.762m0-.489v-2.1c-.541,.317-.944,.657-1.207,1.02-.174,.241-.262,.485-.262,.73,0,.206,.074,.388,.221,.544,.111,.12,.269,.182,.468,.182,.225,0,.485-.126,.78-.376Z" fill="#fff"/><path d="M77.2215,51.98v-.295c.519-.224,.896-.513,1.131-.869,.234-.356,.351-.719,.351-1.09,0-.076-.016-.134-.047-.174-.031-.036-.062-.054-.094-.054-.027,0-.066,.016-.121,.047-.129,.076-.291,.115-.482,.115-.264,0-.494-.104-.688-.309-.195-.206-.293-.447-.293-.725,0-.295,.114-.554,.336-.778,.225-.224,.495-.335,.813-.335,.385,0,.713,.148,.986,.445,.272,.298,.408,.706,.408,1.225,0,.64-.193,1.207-.58,1.704-.386,.496-.959,.86-1.72,1.093" fill="#fff"/><path d="M87.1525,48.646c-.765,.676-1.451,1.014-2.058,1.014-.36,0-.657-.119-.893-.353-.238-.235-.355-.528-.355-.882,0-.478,.205-.909,.617-1.292,.41-.382,1.308-.89,2.689-1.526v-.63c0-.474-.025-.773-.078-.896-.051-.123-.148-.23-.291-.322-.142-.091-.305-.137-.482-.137-.291,0-.53,.065-.719,.195-.117,.08-.174,.174-.174,.281,0,.094,.063,.21,.188,.349,.17,.192,.256,.379,.256,.557,0,.219-.083,.406-.247,.56-.162,.154-.377,.231-.64,.231-.281,0-.518-.085-.707-.255-.19-.17-.285-.369-.285-.597,0-.322,.127-.629,.38-.922,.256-.293,.612-.518,1.069-.674,.455-.157,.93-.235,1.422-.235,.593,0,1.064,.127,1.412,.38,.346,.252,.57,.526,.674,.821,.062,.187,.093,.619,.093,1.294v2.435c0,.286,.012,.467,.034,.54,.023,.075,.056,.129,.101,.164,.043,.037,.096,.054,.154,.054,.118,0,.237-.083,.356-.248l.201,.161c-.225,.331-.455,.572-.693,.721-.241,.15-.512,.226-.817,.226-.357,0-.636-.084-.838-.252-.201-.168-.326-.422-.369-.762m0-.489v-2.1c-.541,.317-.943,.657-1.207,1.02-.174,.241-.261,.485-.261,.73,0,.206,.074,.388,.22,.544,.112,.12,.268,.182,.469,.182,.225,0,.484-.126,.779-.376Z" fill="#fff"/><path d="M11.5075,57.203v3.736h.262c.402,0,.731-.06,.986-.181,.256-.121,.471-.324,.648-.61,.177-.286,.292-.673,.345-1.16h.236v4.567h-.236c-.084-.863-.316-1.432-.694-1.707-.378-.274-.806-.412-1.285-.412h-.262v2.784c0,.465,.027,.755,.078,.871,.051,.117,.153,.219,.302,.307,.15,.086,.352,.13,.607,.13h.302v.248h-4.756v-.248h.301c.265,0,.477-.047,.639-.141,.115-.062,.205-.17,.268-.322,.048-.108,.074-.39,.074-.845v-5.983c0-.466-.026-.757-.074-.873-.049-.116-.149-.218-.299-.305-.151-.088-.352-.132-.608-.132h-.301v-.247h7.674v2.609h-.275c-.063-.613-.223-1.066-.48-1.362-.256-.295-.629-.503-1.117-.623-.268-.067-.764-.101-1.489-.101h-.846" fill="#fff"/><path d="M19.1485,59.503v1.422c.415-.647,.78-1.078,1.093-1.291,.313-.212,.615-.318,.905-.318,.251,0,.451,.077,.601,.231,.149,.156,.225,.373,.225,.655,0,.299-.074,.533-.219,.697-.145,.166-.32,.248-.526,.248-.237,0-.442-.076-.618-.228-.174-.152-.277-.236-.307-.255-.045-.027-.097-.041-.155-.041-.13,0-.253,.05-.368,.149-.184,.151-.323,.368-.416,.65-.144,.434-.215,.912-.215,1.436v1.442l.006,.375c0,.256,.016,.418,.047,.49,.053,.121,.132,.209,.239,.265,.104,.057,.282,.091,.533,.105v.241h-3.389v-.241c.274-.023,.458-.097,.554-.225,.096-.129,.145-.465,.145-1.01v-3.469c0-.357-.018-.585-.055-.683-.043-.124-.108-.216-.193-.276-.085-.057-.235-.097-.451-.12v-.249h2.564" fill="#fff"/><path d="M27.9555,62.415h-3.441c.04,.832,.262,1.49,.664,1.972,.309,.372,.679,.558,1.113,.558,.269,0,.512-.076,.732-.226,.219-.149,.453-.419,.705-.808l.227,.148c-.339,.692-.715,1.184-1.127,1.473-.412,.288-.887,.431-1.428,.431-.931,0-1.635-.357-2.113-1.072-.385-.577-.577-1.293-.577-2.147,0-1.046,.283-1.879,.848-2.499,.566-.62,1.229-.929,1.988-.929,.636,0,1.187,.261,1.655,.782,.466,.521,.718,1.294,.754,2.317m-1.651-.45c0-.72-.039-1.214-.117-1.482-.077-.269-.199-.471-.365-.611-.094-.08-.219-.12-.375-.12-.234,0-.424,.115-.571,.342-.263,.398-.396,.944-.396,1.637v.234h1.824Z" fill="#fff"/><path d="M34.0525,62.415h-3.441c.041,.832,.262,1.49,.664,1.972,.308,.372,.68,.558,1.113,.558,.27,0,.513-.076,.732-.226,.219-.149,.454-.419,.705-.808l.227,.148c-.339,.692-.716,1.184-1.127,1.473-.411,.288-.886,.431-1.427,.431-.932,0-1.635-.357-2.115-1.072-.384-.577-.576-1.293-.576-2.147,0-1.046,.283-1.879,.849-2.499s1.228-.929,1.988-.929c.636,0,1.186,.261,1.653,.782,.468,.521,.72,1.294,.755,2.317m-1.65-.45c0-.72-.039-1.214-.117-1.482-.079-.269-.2-.471-.366-.611-.093-.08-.218-.12-.375-.12-.233,0-.423,.115-.57,.342-.264,.398-.396,.944-.396,1.637v.234h1.824Z" fill="#fff"/><path d="M37.9925,65.776v-.248h.3c.265,0,.466-.041,.608-.125,.14-.082,.244-.195,.311-.338,.04-.094,.06-.375,.06-.845v-5.983c0-.466-.023-.757-.072-.873s-.151-.218-.299-.305c-.151-.088-.353-.132-.608-.132h-.3v-.247h4.071c1.087,0,1.961,.148,2.623,.442,.81,.364,1.423,.91,1.841,1.644,.418,.733,.627,1.563,.627,2.488,0,.64-.104,1.229-.309,1.768-.205,.539-.472,.984-.798,1.336-.327,.349-.703,.633-1.13,.845-.427,.211-.95,.376-1.566,.493-.273,.053-.703,.08-1.288,.08h-4.071m3.466-8.579v7.095c0,.377,.019,.608,.054,.693,.036,.084,.097,.149,.182,.194,.12,.067,.294,.1,.522,.1,.748,0,1.318-.254,1.711-.765,.537-.687,.806-1.757,.806-3.206,0-1.167-.184-2.099-.551-2.796-.29-.547-.664-.918-1.12-1.114-.322-.139-.857-.206-1.604-.201Z" fill="#fff"/><path d="M50.7275,59.503v1.422c.416-.647,.781-1.078,1.093-1.291,.313-.212,.615-.318,.907-.318,.25,0,.451,.077,.599,.231,.151,.156,.227,.373,.227,.655,0,.299-.075,.533-.221,.697-.145,.166-.318,.248-.525,.248-.237,0-.444-.076-.618-.228-.173-.152-.277-.236-.308-.255-.045-.027-.096-.041-.154-.041-.129,0-.252,.05-.37,.149-.183,.151-.322,.368-.416,.65-.142,.434-.214,.912-.214,1.436v1.442l.007,.375c0,.256,.016,.418,.047,.49,.053,.121,.133,.209,.238,.265,.104,.057,.282,.091,.534,.105v.241h-3.389v-.241c.273-.023,.457-.097,.555-.225,.095-.129,.144-.465,.144-1.01v-3.469c0-.357-.019-.585-.054-.683-.045-.124-.11-.216-.194-.276-.086-.057-.237-.097-.451-.12v-.249h2.563" fill="#fff"/><path d="M60.2795,59.503v4.911c0,.479,.045,.777,.135,.896,.088,.118,.27,.192,.543,.225v.241h-2.557v-.839c-.298,.358-.597,.619-.898,.781-.299,.164-.635,.245-1.006,.245-.353,0-.668-.108-.941-.325-.276-.217-.461-.47-.555-.761-.094-.291-.141-.799-.141-1.522v-2.488c0-.475-.043-.771-.131-.887-.087-.116-.269-.192-.546-.228v-.249h2.556v4.287c0,.448,.02,.736,.063,.866,.043,.13,.109,.227,.201,.295,.092,.066,.197,.1,.32,.1,.16,0,.305-.042,.436-.128,.177-.115,.392-.35,.642-.703v-3.353c0-.475-.043-.771-.131-.887-.085-.116-.269-.192-.544-.228v-.249h2.554" fill="#fff"/><path d="M65.8875,59.578h2.113v.738h-1.201c.22,.219,.373,.419,.457,.596,.107,.242,.162,.495,.162,.758,0,.448-.125,.836-.373,1.164-.248,.329-.586,.586-1.014,.772-.428,.186-.804,.278-1.137,.278-.027,0-.294-.012-.804-.033-.201,0-.369,.065-.506,.197-.137,.132-.205,.29-.205,.474,0,.161,.06,.293,.183,.395,.123,.103,.325,.155,.602,.155l1.16-.014c.94,0,1.586,.103,1.938,.309,.506,.287,.759,.726,.759,1.321,0,.38-.117,.725-.349,1.037-.233,.31-.539,.539-.92,.687-.576,.219-1.24,.329-1.992,.329-.563,0-1.076-.054-1.543-.164-.463-.11-.797-.262-.998-.457-.201-.194-.303-.399-.303-.614,0-.205,.078-.389,.232-.553,.155-.164,.442-.301,.862-.413-.582-.287-.873-.684-.873-1.194,0-.308,.119-.608,.355-.898,.238-.29,.613-.543,1.129-.758-.602-.219-1.033-.508-1.303-.866-.267-.357-.402-.771-.402-1.242,0-.611,.252-1.142,.752-1.592,.5-.45,1.144-.674,1.932-.674,.416,0,.845,.087,1.287,.262m-1.555,7.124c-.457,0-.76,.037-.906,.114-.256,.138-.383,.326-.383,.563,0,.228,.133,.435,.396,.62,.264,.187,.76,.279,1.491,.279,.621,0,1.109-.082,1.464-.249,.356-.164,.534-.398,.534-.698,0-.11-.035-.204-.102-.281-.119-.134-.303-.225-.547-.274-.242-.05-.892-.074-1.947-.074Zm.395-6.97c-.26,0-.479,.131-.657,.392-.179,.262-.269,.804-.269,1.627,0,.667,.09,1.123,.265,1.372,.176,.248,.385,.372,.627,.372,.27,0,.492-.124,.672-.369,.178-.246,.268-.724,.268-1.435,0-.801-.102-1.347-.303-1.637-.143-.214-.344-.322-.603-.322Z" fill="#fff"/><path d="M80.1295,56.68l-5.346,8.586h1.731c.818,0,1.392-.052,1.716-.154,.534-.161,.993-.458,1.375-.889,.387-.431,.653-1.01,.799-1.734h.262l-.369,3.287h-8.33l5.353-8.6h-1.349c-.524,0-.868,.016-1.034,.048-.312,.057-.607,.173-.882,.345-.274,.172-.502,.401-.684,.686-.18,.287-.322,.65-.426,1.088h-.248l.248-2.663h7.184" fill="#fff"/><path d="M84.0685,59.316c.545,0,1.053,.14,1.524,.423,.468,.282,.824,.682,1.068,1.2,.244,.519,.365,1.087,.365,1.705,0,.89-.224,1.634-.675,2.233-.547,.725-1.301,1.086-2.262,1.086-.944,0-1.67-.331-2.18-.992-.51-.662-.765-1.43-.765-2.301,0-.899,.261-1.682,.781-2.351,.521-.668,1.236-1.003,2.144-1.003m.026,.476c-.227,0-.422,.086-.586,.258s-.27,.512-.323,1.021c-.05,.507-.078,1.213-.078,2.115,0,.479,.034,.927,.096,1.342,.049,.317,.154,.56,.315,.724,.162,.166,.343,.248,.55,.248,.201,0,.369-.054,.504-.168,.174-.151,.289-.363,.348-.636,.09-.425,.135-1.285,.135-2.576,0-.761-.043-1.283-.127-1.566-.086-.284-.211-.49-.377-.62-.116-.094-.268-.142-.457-.142Z" fill="#fff"/><path d="M90.5685,59.503v.813c.325-.35,.631-.603,.928-.762,.293-.158,.611-.238,.951-.238,.406,0,.746,.113,1.014,.339,.267,.225,.447,.506,.537,.842,.07,.254,.105,.744,.105,1.468v2.443c0,.483,.045,.783,.131,.902,.088,.118,.27,.192,.549,.225v.241h-3.176v-.241c.239-.033,.409-.13,.512-.296,.07-.111,.108-.389,.108-.831v-2.79c0-.515-.02-.839-.061-.973-.039-.134-.109-.239-.205-.312-.096-.075-.201-.111-.318-.111-.385,0-.745,.275-1.075,.824v3.362c0,.469,.045,.766,.133,.892,.086,.124,.248,.202,.484,.235v.241h-3.171v-.241c.263-.028,.449-.113,.562-.256,.076-.098,.113-.388,.113-.871v-3.541c0-.475-.043-.771-.13-.887-.088-.116-.27-.192-.545-.228v-.249h2.554" fill="#fff"/><path d="M100.9595,62.415h-3.44c.041,.832,.262,1.49,.665,1.972,.308,.372,.679,.558,1.113,.558,.267,0,.512-.076,.73-.226,.219-.149,.455-.419,.705-.808l.227,.148c-.338,.692-.715,1.184-1.125,1.473-.412,.288-.889,.431-1.43,.431-.931,0-1.635-.357-2.113-1.072-.385-.577-.576-1.293-.576-2.147,0-1.046,.283-1.879,.849-2.499,.565-.62,1.227-.929,1.987-.929,.636,0,1.187,.261,1.654,.782,.467,.521,.721,1.294,.754,2.317m-1.649-.45c0-.72-.041-1.214-.119-1.482-.076-.269-.199-.471-.365-.611-.094-.08-.217-.12-.375-.12-.232,0-.424,.115-.57,.342-.264,.398-.397,.944-.397,1.637v.234h1.826Z" fill="#fff"/></svg>