<?xml version="1.0" encoding="UTF-8"?><svg id="a" xmlns="http://www.w3.org/2000/svg" viewBox="0 0 109 109"><path d="M108.5,54.5c0,29.823-24.177,54-54,54S.5,84.323,.5,54.5,24.677,.5,54.5,.5s54,24.176,54,54" fill="#ee3224" fill-rule="evenodd"/><path d="M20.118,64.109c14.435,3.839,28.543,8.815,43.04,13.568,4.737,1.553,9.381,4.096,14.393,4.301,.211-4.12-.213-8.368,5.76-11.321,.121,4.186,.552,8.436,.904,12.67-.85,1.331-2.795,2.44-4.543,3.59-1.672-.441-.877-2.484-1.324-3.737-1.289,.079-2.715,.847-4.002,.924-18.041-5.697-35.778-12.889-53.831-18.526-.542-.574-.078-.942-.397-1.469" fill="#fff" fill-rule="evenodd"/><path d="M33.628,22.084v.304c-.209,.016-.385,.074-.528,.174-.142,.099-.269,.25-.38,.452-.032,.067-.205,.492-.518,1.278l-3.502,9.221h-.322l-2.768-7.203-3.048,7.203h-.306l-3.675-9.123c-.374-.917-.635-1.47-.783-1.664-.148-.192-.398-.305-.75-.338v-.304h4.846v.304c-.391,.012-.651,.071-.78,.178-.128,.107-.193,.24-.193,.398,0,.209,.134,.653,.404,1.328l2.192,5.422,1.754-4.236-.461-1.186c-.252-.648-.447-1.081-.584-1.298-.138-.217-.296-.372-.475-.465-.178-.094-.439-.141-.786-.141v-.304h5.413v.304c-.379,.006-.65,.035-.815,.091-.116,.038-.206,.103-.273,.194-.065,.09-.098,.194-.098,.309,0,.127,.124,.514,.371,1.162l2.036,5.289,1.82-4.787c.192-.494,.311-.832,.354-1.014,.045-.181,.066-.348,.066-.502,0-.225-.076-.402-.23-.532-.154-.129-.449-.198-.881-.21v-.304h2.9" fill="#fff"/><path d="M37.491,22.084v4.457c.424-.445,.811-.758,1.163-.943,.351-.184,.717-.276,1.097-.276,.483,0,.895,.138,1.238,.412,.344,.275,.573,.598,.686,.969,.112,.37,.168,.995,.168,1.874v3.008c0,.587,.055,.954,.165,1.1,.11,.145,.332,.236,.668,.276v.296h-3.907v-.296c.275-.04,.482-.149,.619-.331,.099-.142,.148-.491,.148-1.045v-3.437c0-.637-.025-1.036-.074-1.199-.05-.162-.135-.288-.252-.379-.118-.09-.25-.135-.4-.135-.219,0-.434,.075-.642,.226-.209,.151-.434,.417-.677,.796v4.128c0,.549,.042,.892,.124,1.03,.105,.186,.32,.303,.644,.346v.296h-3.906v-.296c.323-.034,.554-.137,.691-.313,.094-.121,.141-.476,.141-1.063v-7.829c0-.583-.053-.944-.16-1.086-.108-.145-.331-.238-.672-.282v-.304h3.138" fill="#fff"/><path d="M50.257,29.128h-4.227c.049,1.023,.321,1.831,.815,2.424,.379,.455,.835,.684,1.367,.684,.33,0,.629-.093,.899-.276,.269-.185,.558-.515,.867-.994l.279,.182c-.418,.852-.881,1.454-1.385,1.809-.506,.353-1.09,.531-1.755,.531-1.143,0-2.008-.44-2.596-1.318-.472-.709-.707-1.588-.707-2.637,0-1.285,.347-2.309,1.042-3.071,.694-.759,1.508-1.14,2.442-1.14,.781,0,1.457,.32,2.031,.96,.575,.639,.883,1.589,.928,2.846m-2.027-.551c0-.885-.049-1.491-.145-1.822-.096-.329-.246-.579-.449-.75-.115-.098-.269-.148-.461-.148-.287,0-.52,.141-.701,.42-.324,.49-.486,1.16-.486,2.012v.288h2.242Z" fill="#fff"/><path d="M54.418,25.552v1.747c.51-.796,.959-1.325,1.342-1.587,.385-.259,.756-.39,1.113-.39,.307,0,.555,.095,.737,.285,.185,.189,.277,.457,.277,.803,0,.368-.09,.654-.268,.857-.179,.203-.394,.305-.648,.305-.291,0-.543-.094-.758-.281-.213-.186-.34-.291-.377-.313-.056-.033-.119-.049-.191-.049-.158,0-.309,.06-.453,.181-.225,.186-.395,.453-.51,.8-.176,.533-.264,1.12-.264,1.763v1.772l.008,.461c0,.312,.02,.514,.057,.601,.066,.149,.164,.257,.295,.327,.127,.068,.345,.11,.654,.127v.296h-4.162v-.296c.336-.028,.562-.12,.679-.276,.118-.157,.178-.57,.178-1.24v-4.26c0-.44-.021-.721-.066-.842-.055-.152-.135-.265-.239-.338-.105-.071-.289-.121-.552-.148v-.305h3.148" fill="#fff"/><path d="M65.237,29.128h-4.227c.049,1.023,.322,1.831,.816,2.424,.379,.455,.834,.684,1.368,.684,.33,0,.628-.093,.898-.276,.27-.185,.557-.515,.865-.994l.28,.182c-.416,.852-.879,1.454-1.383,1.809-.506,.353-1.092,.531-1.756,.531-1.143,0-2.008-.44-2.596-1.318-.472-.709-.709-1.588-.709-2.637,0-1.285,.348-2.309,1.043-3.071,.695-.759,1.508-1.14,2.444-1.14,.779,0,1.455,.32,2.029,.96,.574,.639,.885,1.589,.928,2.846m-2.028-.551c0-.885-.047-1.491-.144-1.822-.094-.329-.244-.579-.448-.75-.115-.098-.269-.148-.462-.148-.286,0-.52,.141-.7,.42-.324,.49-.486,1.16-.486,2.012v.288h2.24Z" fill="#fff"/><path d="M73.617,25.552v1.014c.422-.461,.815-.783,1.174-.968,.36-.184,.754-.276,1.182-.276,.494,0,.91,.115,1.246,.346,.334,.23,.592,.582,.773,1.054,.44-.494,.862-.85,1.264-1.07,.404-.221,.826-.33,1.266-.33,.533,0,.957,.123,1.273,.367,.317,.244,.535,.555,.66,.931,.123,.376,.186,.976,.186,1.8v3.156c0,.594,.053,.962,.16,1.104,.107,.144,.33,.238,.672,.281v.296h-3.981v-.296c.313-.028,.545-.149,.692-.363,.099-.148,.148-.489,.148-1.022v-3.313c0-.685-.027-1.123-.082-1.31-.054-.186-.14-.325-.26-.416-.119-.09-.257-.135-.416-.135-.236,0-.474,.086-.716,.259-.243,.173-.487,.432-.733,.778v4.137c0,.554,.047,.904,.139,1.047,.127,.203,.369,.316,.724,.338v.296h-3.986v-.296c.213-.011,.383-.065,.506-.161,.125-.096,.207-.211,.248-.346,.041-.134,.061-.427,.061-.878v-3.313c0-.697-.028-1.134-.082-1.31-.055-.175-.147-.313-.276-.412-.129-.098-.267-.148-.416-.148-.221,0-.42,.058-.601,.173-.26,.17-.534,.462-.825,.873v4.137c0,.544,.053,.902,.161,1.076,.107,.173,.33,.275,.671,.309v.296h-3.97v-.296c.322-.034,.552-.137,.691-.313,.094-.121,.141-.478,.141-1.072v-4.35c0-.583-.055-.945-.162-1.089-.108-.142-.33-.235-.67-.28v-.305h3.138" fill="#fff"/><path d="M87.778,33.571l-2.491-5.711c-.373-.862-.65-1.393-.828-1.591-.178-.197-.392-.335-.646-.412v-.305h4.095v.305c-.269,.012-.459,.064-.568,.157-.111,.093-.164,.206-.164,.337,0,.209,.137,.621,.41,1.236l1.32,3.016,.897-2.331c.324-.829,.486-1.406,.486-1.731,0-.204-.066-.365-.201-.486-.135-.121-.373-.186-.713-.198v-.305h2.578v.305c-.252,.027-.459,.125-.617,.293s-.426,.737-.799,1.71l-2.201,5.711c-.553,1.428-.965,2.307-1.236,2.636-.379,.463-.854,.693-1.424,.693-.457,0-.826-.131-1.109-.392-.282-.26-.424-.576-.424-.944,0-.318,.097-.582,.291-.791,.195-.208,.435-.312,.722-.312,.276,0,.497,.087,.665,.263,.166,.176,.251,.447,.257,.816,.006,.209,.032,.342,.075,.403,.044,.06,.107,.091,.189,.091,.133,0,.273-.079,.42-.239,.221-.231,.478-.758,.775-1.582l.241-.642" fill="#fff"/><path d="M28.982,41.88v4.458c.423-.444,.81-.758,1.162-.943,.351-.184,.717-.276,1.096-.276,.483,0,.896,.138,1.24,.412,.342,.275,.572,.597,.684,.969,.113,.371,.169,.996,.169,1.875v3.007c0,.588,.055,.954,.164,1.1,.112,.145,.332,.237,.668,.275v.297h-3.906v-.297c.275-.038,.481-.148,.619-.329,.098-.142,.148-.491,.148-1.046v-3.437c0-.637-.025-1.036-.075-1.199-.049-.161-.133-.287-.251-.378-.119-.091-.252-.136-.4-.136-.219,0-.434,.075-.643,.227-.209,.15-.433,.416-.675,.794v4.129c0,.549,.041,.893,.123,1.03,.105,.187,.32,.302,.643,.345v.297h-3.906v-.297c.323-.033,.556-.136,.692-.312,.094-.121,.14-.475,.14-1.063v-7.829c0-.582-.053-.944-.159-1.087-.109-.143-.332-.236-.673-.281v-.305h3.14" fill="#fff"/><path d="M38.854,45.119c.671,0,1.294,.174,1.871,.519,.576,.346,1.014,.838,1.313,1.475,.299,.638,.45,1.336,.45,2.094,0,1.092-.277,2.007-.833,2.744-.669,.889-1.595,1.334-2.777,1.334-1.158,0-2.052-.407-2.678-1.219-.627-.813-.939-1.756-.939-2.827,0-1.105,.32-2.067,.96-2.888,.64-.821,1.517-1.232,2.633-1.232m.032,.586c-.279,0-.52,.105-.721,.316-.2,.212-.332,.629-.394,1.253-.065,.623-.096,1.49-.096,2.601,0,.587,.039,1.136,.117,1.647,.059,.39,.189,.687,.387,.89,.197,.203,.422,.304,.675,.304,.247,0,.453-.068,.618-.206,.215-.186,.357-.447,.43-.782,.108-.522,.164-1.577,.164-3.164,0-.935-.053-1.576-.157-1.924-.105-.349-.258-.603-.461-.763-.144-.115-.33-.172-.562-.172Z" fill="#fff"/><path d="M50.218,48.926h-4.228c.05,1.022,.322,1.829,.816,2.423,.38,.455,.836,.684,1.367,.684,.33,0,.631-.092,.898-.276,.27-.185,.559-.515,.868-.994l.279,.182c-.418,.851-.879,1.455-1.385,1.808-.506,.355-1.09,.532-1.754,.532-1.144,0-2.008-.44-2.597-1.319-.471-.709-.707-1.587-.707-2.636,0-1.285,.347-2.309,1.042-3.07,.695-.76,1.508-1.141,2.442-1.141,.781,0,1.457,.32,2.031,.961,.574,.639,.885,1.589,.928,2.846m-2.027-.551c0-.885-.049-1.493-.145-1.823-.096-.329-.246-.579-.449-.749-.114-.098-.268-.148-.461-.148-.286,0-.52,.14-.7,.42-.324,.489-.487,1.159-.487,2.011v.289h2.242Z" fill="#fff"/><path d="M55.971,45.136l.123,2.628h-.279c-.336-.78-.684-1.313-1.043-1.598-.36-.286-.719-.429-1.075-.429-.226,0-.417,.075-.578,.227-.16,.151-.238,.325-.238,.523,0,.148,.055,.291,.164,.429,.176,.224,.668,.611,1.477,1.158,.806,.546,1.338,1.01,1.593,1.392,.256,.381,.383,.809,.383,1.282,0,.427-.107,.847-.32,1.259-.215,.413-.518,.729-.908,.95-.391,.218-.821,.328-1.293,.328-.367,0-.86-.115-1.475-.346-.166-.061-.279-.09-.338-.09-.181,0-.332,.137-.453,.411h-.273l-.131-2.768h.281c.246,.724,.586,1.269,1.018,1.631,.429,.363,.838,.545,1.222,.545,.264,0,.479-.082,.647-.245,.168-.161,.252-.357,.252-.587,0-.264-.082-.493-.246-.685-.166-.192-.534-.483-1.106-.873-.84-.583-1.385-1.028-1.631-1.335-.363-.451-.544-.948-.544-1.492,0-.593,.205-1.13,.615-1.612,.408-.48,1-.72,1.773-.72,.418,0,.822,.101,1.213,.304,.148,.082,.27,.125,.361,.125,.1,0,.18-.021,.241-.062,.06-.041,.156-.158,.289-.35h.279" fill="#fff"/><path d="M66.174,51.918c-.941,.83-1.783,1.244-2.529,1.244-.442,0-.807-.145-1.098-.434-.291-.287-.435-.648-.435-1.083,0-.587,.251-1.116,.757-1.587,.504-.469,1.608-1.094,3.305-1.874v-.774c0-.582-.033-.949-.096-1.1-.062-.151-.183-.283-.357-.396-.176-.112-.375-.168-.594-.168-.357,0-.65,.079-.883,.238-.142,.1-.213,.215-.213,.346,0,.116,.077,.258,.231,.429,.209,.237,.312,.465,.312,.684,0,.269-.101,.498-.3,.687-.2,.19-.463,.286-.787,.286-.346,0-.637-.105-.87-.314-.232-.209-.349-.453-.349-.733,0-.397,.156-.774,.469-1.133,.312-.359,.75-.636,1.31-.828,.561-.194,1.143-.289,1.748-.289,.729,0,1.309,.156,1.733,.467,.425,.309,.703,.646,.83,1.008,.076,.231,.113,.761,.113,1.59v2.991c0,.352,.016,.574,.043,.664,.027,.09,.068,.158,.123,.202,.055,.045,.117,.066,.189,.066,.143,0,.289-.102,.438-.305l.246,.198c-.273,.406-.559,.702-.854,.885-.293,.185-.625,.277-1,.277-.439,0-.783-.104-1.029-.309-.248-.207-.4-.517-.453-.935m0-.602v-2.58c-.666,.391-1.16,.809-1.484,1.253-.213,.298-.323,.597-.323,.897,0,.254,.092,.477,.274,.668,.137,.149,.33,.223,.576,.223,.275,0,.594-.153,.957-.461Z" fill="#fff"/><path d="M73.416,42.532v2.818h1.828v.816h-1.828v4.754c0,.445,.02,.732,.061,.861,.043,.13,.115,.234,.219,.313,.103,.079,.201,.12,.289,.12,.355,0,.695-.271,1.013-.816l.246,.182c-.445,1.054-1.166,1.582-2.166,1.582-.49,0-.902-.137-1.24-.409-.338-.271-.555-.575-.648-.91-.053-.187-.082-.692-.082-1.515v-4.162h-1.004v-.289c.691-.489,1.281-1.002,1.767-1.54,.487-.539,.91-1.14,1.272-1.805h.273" fill="#fff"/><path d="M79.315,49.412h-.338c-.012-.61,.017-1.065,.086-1.367,.068-.303,.248-.719,.535-1.249,.289-.531,.478-.957,.568-1.277,.092-.322,.137-.719,.137-1.191,0-.731-.143-1.27-.428-1.616-.285-.345-.625-.519-1.013-.519-.297,0-.547,.08-.75,.24-.155,.12-.233,.247-.233,.379,0,.088,.055,.225,.158,.412,.237,.423,.354,.782,.354,1.08,0,.268-.092,.494-.276,.675-.185,.181-.414,.273-.687,.273-.309,0-.566-.11-.775-.327-.209-.216-.313-.504-.313-.861,0-.648,.279-1.217,.84-1.705,.56-.489,1.344-.733,2.348-.733,1.066,0,1.878,.253,2.435,.761,.559,.509,.836,1.122,.836,1.842,0,.523-.143,1.005-.428,1.446-.285,.443-.838,.933-1.656,1.471-.549,.363-.91,.686-1.084,.969-.172,.283-.279,.715-.316,1.297m-.092,1.203c.369,0,.682,.129,.939,.388,.26,.258,.389,.571,.389,.94,0,.367-.129,.682-.389,.942-.257,.261-.57,.392-.939,.392-.367,0-.682-.131-.94-.392-.257-.26-.386-.575-.386-.942,0-.369,.129-.682,.386-.94,.258-.259,.573-.388,.94-.388Z" fill="#fff"/></svg>