<?xml version="1.0" encoding="UTF-8"?><svg id="a" xmlns="http://www.w3.org/2000/svg" viewBox="0 0 109 109"><path d="M108.5,54.4995c0,29.823-24.175,54.001-54,54.001S.5,84.3225,.5,54.4995,24.678,.4995,54.5,.4995s54,24.177,54,54" fill="#00a160" fill-rule="evenodd"/><path d="M26.377,33.7255v2.515h-.247c-.146-.58-.308-.997-.486-1.251-.179-.253-.423-.456-.734-.606-.173-.082-.478-.124-.912-.124h-.692v7.171c0,.475,.026,.772,.079,.891,.052,.12,.155,.223,.309,.312,.152,.09,.361,.134,.627,.134h.308v.254h-4.867v-.254h.308c.27,0,.487-.048,.651-.144,.119-.064,.213-.174,.281-.329,.051-.109,.075-.397,.075-.864v-7.171h-.671c-.626,0-1.081,.133-1.365,.398-.397,.371-.648,.898-.754,1.583h-.26v-2.515h8.35" fill="#fff"/><path d="M29.976,33.7255v3.709c.351-.37,.674-.632,.967-.785,.292-.154,.596-.23,.912-.23,.401,0,.745,.114,1.0309,.343,.285,.228,.476,.497,.569,.806,.094,.307,.141,.828,.141,1.559v2.502c0,.489,.045,.794,.137,.915,.092,.121,.276,.198,.555,.23v.247h-3.25v-.247c.229-.032,.401-.123,.515-.275,.082-.118,.123-.408,.123-.87v-2.858c0-.531-.02-.864-.061-.998-.041-.135-.112-.241-.209-.316-.099-.075-.209-.113-.333-.113-.183,0-.362,.063-.535,.188-.173,.126-.361,.347-.562,.663v3.434c0,.457,.034,.743,.102,.857,.087,.156,.266,.251,.536,.288v.247h-3.25v-.247c.269-.028,.461-.115,.576-.26,.078-.101,.116-.396,.116-.885v-6.513c0-.484-.044-.786-.133-.905-.09-.118-.275-.196-.559-.232v-.254h2.612" fill="#fff"/><path d="M40.595,39.5865h-3.517c.041,.85,.268,1.522,.679,2.016,.316,.379,.694,.569,1.138,.569,.274,0,.523-.077,.747-.23,.225-.153,.464-.428,.721-.827l.232,.152c-.347,.708-.731,1.21-1.151,1.505-.421,.295-.908,.442-1.46,.442-.951,0-1.671-.366-2.16-1.098-.393-.588-.589-1.32-.589-2.193,0-1.069,.289-1.921,.8669-2.554,.578-.632,1.255-.949,2.032-.949,.649,0,1.212,.266,1.69,.799,.477,.532,.735,1.321,.771,2.368m-1.687-.459c0-.736-.04-1.241-.12-1.515-.079-.275-.204-.482-.373-.625-.095-.082-.223-.123-.383-.123-.239,0-.433,.117-.583,.35-.27,.407-.405,.965-.405,1.673v.24h1.864Z" fill="#fff"/><path d="M47.8,43.2135l-2.159-4.971c-.261-.598-.465-.977-.61-1.137-.106-.119-.261-.2-.467-.241v-.253h3.407v.253c-.215,0-.36,.039-.438,.117-.11,.1-.165,.219-.165,.356,0,.17,.1,.487,.301,.953l1.057,2.406,.843-2.077c.242-.593,.363-1.014,.363-1.261,0-.142-.052-.257-.154-.346-.103-.089-.285-.139-.545-.148v-.253h2.097v.253c-.201,.028-.3651,.103-.493,.227-.128,.123-.32,.486-.576,1.09l-2.139,5.032h-.322" fill="#fff"/><path d="M54.867,36.4195c.557,0,1.076,.144,1.556,.432,.48,.288,.844,.697,1.093,1.227,.249,.531,.374,1.111,.374,1.742,0,.909-.231,1.669-.692,2.282-.558,.74-1.329,1.111-2.311,1.111-.964,0-1.707-.339-2.228-1.015s-.782-1.461-.782-2.351c0-.919,.267-1.72,.799-2.403,.532-.683,1.263-1.025,2.191-1.025m.027,.486c-.233,0-.433,.088-.6,.264-.1671,.177-.276,.524-.329,1.042-.053,.52-.079,1.24-.079,2.163,0,.489,.032,.946,.097,1.371,.05,.325,.157,.572,.322,.741,.164,.169,.352,.253,.562,.253,.206,0,.376-.056,.514-.17,.178-.156,.297-.374,.357-.652,.09-.434,.136-1.311,.136-2.633,0-.776-.043-1.31-.13-1.6-.086-.29-.214-.502-.383-.634-.119-.097-.275-.145-.467-.145Z" fill="#fff"/><path d="M61.394,36.6115v5.08c0,.452,.052,.741,.157,.867,.106,.126,.311,.198,.617,.216v.247h-3.462v-.247c.2841-.009,.494-.091,.631-.246,.091-.106,.137-.385,.137-.837v-3.744c0-.452-.053-.741-.157-.867-.106-.125-.309-.197-.611-.216v-.253h2.688m-.96-3.106c.297,0,.548,.105,.754,.313,.206,.208,.308,.458,.308,.75,0,.293-.104,.542-.311,.748-.2079,.205-.459,.307-.751,.307-.293,0-.542-.102-.747-.307-.206-.206-.309-.455-.309-.748,0-.292,.103-.542,.309-.75,.205-.208,.454-.313,.747-.313Z" fill="#fff"/><path d="M68.065,41.3685l.212,.165c-.302,.567-.678,.989-1.128,1.265s-.929,.415-1.436,.415c-.854,0-1.538-.322-2.05-.967-.511-.644-.767-1.419-.767-2.324,0-.873,.232-1.641,.699-2.304,.562-.799,1.336-1.199,2.323-1.199,.663,0,1.19,.167,1.58,.5,.392,.334,.587,.706,.587,1.117,0,.261-.079,.469-.236,.624-.158,.156-.365,.234-.621,.234-.27,0-.492-.089-.668-.268-.176-.178-.285-.496-.326-.953-.028-.287-.094-.488-.199-.603-.105-.114-.228-.171-.37-.171-.219,0-.407,.116-.562,.349-.237,.353-.357,.892-.357,1.618,0,.604,.0959,1.181,.288,1.731,.192,.551,.455,.961,.789,1.231,.251,.197,.548,.294,.891,.294,.224,0,.437-.052,.638-.157,.2-.105,.438-.304,.713-.597" fill="#fff"/><path d="M74.397,39.5865h-3.517c.041,.85,.268,1.522,.679,2.016,.315,.379,.694,.569,1.138,.569,.274,0,.523-.077,.747-.23,.224-.153,.464-.428,.72-.827l.233,.152c-.347,.708-.732,1.21-1.152,1.505-.42,.295-.907,.442-1.46,.442-.951,0-1.67-.366-2.16-1.098-.392-.588-.589-1.32-.589-2.193,0-1.069,.289-1.921,.868-2.554,.578-.632,1.254-.949,2.032-.949,.649,0,1.212,.266,1.689,.799,.478,.532,.736,1.321,.772,2.368m-1.687-.459c0-.736-.04-1.241-.12-1.515-.079-.275-.204-.482-.373-.625-.096-.082-.224-.123-.384-.123-.238,0-.432,.117-.583,.35-.269,.407-.404,.965-.404,1.673v.24h1.864Z" fill="#fff"/><path d="M81.7321,36.4195c.557,0,1.076,.144,1.556,.432,.48,.288,.844,.697,1.093,1.227,.249,.531,.374,1.111,.374,1.742,0,.909-.23,1.669-.692,2.282-.558,.74-1.328,1.111-2.311,1.111-.964,0-1.707-.339-2.227-1.015-.522-.676-.783-1.461-.783-2.351,0-.919,.267-1.72,.799-2.403,.533-.683,1.263-1.025,2.191-1.025m.027,.486c-.232,0-.433,.088-.6,.264-.1671,.177-.276,.524-.329,1.042-.052,.52-.079,1.24-.079,2.163,0,.489,.032,.946,.097,1.371,.05,.325,.157,.572,.322,.741,.164,.169,.352,.253,.562,.253,.206,0,.377-.056,.514-.17,.178-.156,.297-.374,.357-.652,.091-.434,.137-1.311,.137-2.633,0-.776-.043-1.31-.13-1.6-.087-.29-.215-.502-.384-.634-.119-.097-.275-.145-.467-.145Z" fill="#fff"/><path d="M88.54,37.2825v4.45c0,.429,.045,.699,.137,.809,.147,.169,.416,.246,.809,.233v.247h-3.778v-.247c.288-.004,.493-.037,.615-.1,.121-.062,.204-.146,.25-.257,.045-.109,.068-.338,.068-.685v-4.45h-.933v-.671h.933v-.473l-.007-.322c0-.659,.241-1.207,.724-1.646,.481-.438,1.134-.658,1.957-.658,.561,0,.978,.105,1.251,.315,.271,.21,.408,.444,.408,.7,0,.206-.085,.383-.254,.535-.169,.15-.394,.225-.672,.225-.237,0-.426-.061-.565-.184-.14-.123-.209-.261-.209-.411,0-.041,.013-.126,.041-.254,.017-.078,.027-.151,.027-.22,0-.096-.027-.166-.082-.212-.073-.069-.162-.103-.2679-.103-.132,0-.243,.055-.333,.165-.088,.109-.132,.285-.132,.527l.013,1.2v.816h.946v.671h-.946" fill="#fff"/><path d="M19.032,52.4995c.557,0,1.076,.144,1.556,.432,.48,.288,.844,.697,1.093,1.227,.249,.531,.374,1.111,.374,1.742,0,.909-.23,1.67-.692,2.282-.558,.74-1.329,1.111-2.311,1.111-.964,0-1.707-.339-2.227-1.015-.522-.676-.783-1.46-.783-2.351,0-.919,.267-1.72,.799-2.403,.532-.683,1.263-1.025,2.191-1.025m.027,.487c-.233,0-.433,.087-.6,.263-.167,.177-.276,.524-.329,1.042-.053,.52-.079,1.24-.079,2.163,0,.49,.032,.947,.097,1.371,.05,.326,.157,.572,.322,.741,.164,.17,.352,.254,.562,.254,.206,0,.376-.057,.514-.171,.178-.156,.297-.373,.357-.652,.09-.434,.136-1.311,.136-2.633,0-.776-.043-1.31-.13-1.6-.086-.29-.214-.502-.383-.634-.119-.097-.275-.144-.467-.144Z" fill="#fff"/><path d="M25.69,52.6915v.83c.329-.357,.644-.617,.946-.779,.302-.162,.626-.243,.974-.243,.415,0,.76,.115,1.035,.346,.273,.231,.457,.517,.548,.86,.073,.261,.11,.761,.11,1.502v2.495c0,.493,.044,.801,.133,.922,.09,.121,.275,.198,.559,.23v.247h-3.243v-.247c.242-.032,.416-.132,.522-.302,.072-.114,.109-.398,.109-.85v-2.851c0-.527-.02-.858-.061-.994-.041-.138-.112-.245-.209-.32-.099-.075-.207-.113-.327-.113-.392,0-.758,.281-1.096,.844v3.434c0,.48,.045,.785,.134,.912,.088,.128,.254,.208,.497,.24v.247h-3.244v-.247c.27-.028,.462-.115,.577-.26,.078-.101,.116-.399,.116-.892v-3.62c0-.484-.044-.786-.133-.904-.09-.119-.275-.196-.56-.233v-.254h2.613" fill="#fff"/><path d="M36.308,55.6665h-3.517c.041,.85,.268,1.522,.679,2.016,.315,.379,.694,.569,1.138,.569,.274,0,.523-.077,.747-.23,.224-.153,.464-.428,.72-.826l.233,.151c-.347,.708-.732,1.21-1.151,1.505-.421,.295-.908,.442-1.46,.442-.952,0-1.671-.366-2.161-1.098-.392-.588-.588-1.32-.588-2.193,0-1.069,.289-1.921,.8669-2.554,.578-.632,1.255-.949,2.032-.949,.649,0,1.212,.266,1.689,.799,.478,.532,.736,1.321,.772,2.368m-1.687-.459c0-.736-.04-1.241-.12-1.515-.079-.275-.204-.482-.373-.624-.095-.082-.223-.123-.384-.123-.238,0-.432,.116-.583,.349-.269,.407-.404,.965-.404,1.673v.24h1.864Z" fill="#fff"/><path d="M45.852,57.4485l.212,.165c-.302,.567-.678,.989-1.128,1.265s-.929,.415-1.436,.415c-.854,0-1.538-.322-2.05-.967-.511-.644-.767-1.419-.767-2.324,0-.873,.232-1.64,.699-2.304,.562-.799,1.336-1.199,2.323-1.199,.663,0,1.19,.167,1.58,.5,.392,.334,.587,.706,.587,1.117,0,.261-.079,.469-.236,.624-.158,.156-.365,.234-.621,.234-.27,0-.492-.089-.668-.268-.176-.178-.285-.496-.326-.953-.028-.287-.094-.488-.198-.602-.106-.115-.229-.172-.371-.172-.219,0-.407,.116-.562,.349-.237,.353-.357,.892-.357,1.618,0,.604,.0959,1.181,.2889,1.731,.191,.551,.454,.961,.788,1.231,.251,.197,.548,.294,.891,.294,.224,0,.437-.051,.638-.157,.2-.105,.438-.304,.713-.597" fill="#fff"/><path d="M49.512,52.6915v1.454c.425-.663,.798-1.103,1.117-1.321,.321-.216,.629-.325,.926-.325,.256,0,.461,.078,.613,.237,.154,.157,.231,.38,.231,.667,0,.307-.075,.544-.224,.713-.148,.17-.327,.254-.538,.254-.242,0-.452-.077-.631-.232-.178-.156-.283-.242-.314-.261-.046-.027-.099-.041-.159-.041-.132,0-.257,.05-.376,.151-.188,.155-.33,.376-.425,.665-.147,.443-.22,.932-.22,1.466v1.475l.007,.384c0,.26,.016,.426,.048,.5,.054,.124,.135,.214,.244,.27,.106,.058,.288,.093,.545,.107v.247h-3.463v-.247c.279-.023,.468-.1,.566-.23,.098-.13,.1479-.473,.1479-1.031v-3.545c0-.365-.019-.599-.056-.699-.045-.128-.111-.222-.198-.281-.087-.059-.24-.1-.46-.123v-.254h2.619" fill="#fff"/><path d="M55.899,59.3625l-2.071-4.751c-.31-.718-.541-1.159-.689-1.324-.148-.164-.327-.278-.538-.342v-.254h3.407v.254c-.224,.008-.382,.052-.473,.129-.091,.079-.136,.172-.136,.282,0,.173,.113,.516,.342,1.028l1.097,2.51,.7469-1.941c.27-.69,.405-1.17,.405-1.439,0-.169-.056-.304-.168-.404-.113-.101-.31-.157-.593-.165v-.254h2.145v.254c-.21,.023-.382,.104-.513,.243-.133,.139-.355,.614-.665,1.423l-1.831,4.751c-.461,1.188-.804,1.918-1.029,2.193-.315,.384-.71,.576-1.185,.576-.38,0-.687-.108-.922-.326-.236-.217-.354-.479-.354-.784,0-.266,.081-.486,.243-.659,.163-.173,.363-.26,.601-.26,.229,0,.412,.073,.552,.219,.138,.146,.211,.373,.216,.679,.004,.173,.025,.285,.061,.336,.036,.05,.089,.075,.157,.075,.111,0,.227-.066,.35-.199,.184-.191,.398-.631,.645-1.316l.199-.534" fill="#fff"/><path d="M62.5081,52.6915v5.08c0,.452,.052,.741,.157,.867,.106,.126,.311,.198,.618,.216v.247h-3.462v-.247c.283-.009,.493-.091,.63-.246,.091-.106,.137-.385,.137-.837v-3.743c0-.453-.053-.742-.157-.868-.106-.125-.309-.197-.61-.215v-.254h2.687m-.96-3.106c.297,0,.548,.105,.754,.313,.206,.208,.309,.458,.309,.75,0,.293-.105,.542-.312,.748-.2079,.205-.459,.307-.751,.307-.293,0-.542-.102-.747-.307-.206-.206-.309-.455-.309-.748,0-.292,.103-.542,.309-.75,.205-.208,.454-.313,.747-.313Z" fill="#fff"/><path d="M66.483,52.6915v.83c.329-.357,.644-.617,.946-.779,.302-.162,.626-.243,.974-.243,.415,0,.76,.115,1.035,.346,.273,.231,.457,.517,.548,.86,.073,.261,.11,.761,.11,1.502v2.495c0,.493,.044,.801,.133,.922,.09,.121,.275,.198,.559,.23v.247h-3.243v-.247c.242-.032,.416-.132,.522-.302,.072-.114,.109-.398,.109-.85v-2.851c0-.527-.02-.858-.061-.994-.041-.138-.112-.245-.209-.32-.099-.075-.207-.113-.327-.113-.392,0-.758,.281-1.096,.844v3.434c0,.48,.045,.785,.134,.912,.088,.128,.254,.208,.497,.24v.247h-3.244v-.247c.27-.028,.462-.115,.577-.26,.078-.101,.116-.399,.116-.892v-3.62c0-.484-.044-.786-.133-.904-.09-.119-.275-.196-.56-.233v-.254h2.613" fill="#fff"/><path d="M75.785,52.7675h2.161v.754h-1.228c.224,.223,.38,.426,.466,.609,.11,.247,.165,.506,.165,.775,0,.457-.127,.854-.381,1.19-.253,.336-.599,.599-1.035,.788-.437,.189-.823,.284-1.162,.284-.028,0-.301-.011-.822-.034-.207,0-.378,.067-.518,.202-.14,.135-.209,.296-.209,.484,0,.165,.062,.299,.188,.404,.126,.105,.331,.158,.614,.158l1.186-.014c.96,0,1.62,.106,1.981,.316,.516,.292,.775,.742,.775,1.35,0,.388-.119,.742-.356,1.059-.239,.318-.551,.552-.94,.703-.59,.224-1.268,.336-2.036,.336-.576,0-1.101-.057-1.577-.168-.475-.112-.8149-.268-1.022-.467-.205-.198-.307-.407-.307-.627,0-.21,.078-.398,.236-.565,.157-.167,.451-.308,.881-.422-.595-.292-.892-.699-.892-1.22,0-.315,.1219-.622,.364-.919s.626-.555,1.152-.774c-.613-.224-1.056-.519-1.33-.885-.274-.365-.411-.788-.411-1.268,0-.626,.256-1.168,.767-1.628,.512-.459,1.17-.689,1.975-.689,.425,0,.863,.089,1.315,.268m-1.589,7.28c-.467,0-.776,.038-.926,.116-.261,.142-.391,.334-.391,.576,0,.233,.135,.445,.404,.634,.27,.19,.778,.284,1.523,.284,.635,0,1.134-.084,1.497-.253,.363-.168,.545-.407,.545-.712,0-.115-.034-.211-.103-.289-.123-.137-.309-.231-.558-.281-.249-.051-.913-.075-1.991-.075Zm.404-7.123c-.266,0-.489,.134-.672,.401s-.274,.822-.274,1.662c0,.681,.09,1.149,.27,1.403,.181,.253,.395,.38,.642,.38,.274,0,.503-.125,.685-.377,.183-.251,.275-.74,.275-1.467,0-.818-.104-1.376-.309-1.673-.146-.22-.352-.329-.617-.329Z" fill="#fff"/><path d="M84.593,52.6915v5.08c0,.452,.052,.741,.157,.867,.106,.126,.311,.198,.617,.216v.247h-3.461v-.247c.283-.009,.493-.091,.63-.246,.091-.106,.137-.385,.137-.837v-3.743c0-.453-.053-.742-.157-.868-.106-.125-.309-.197-.61-.215v-.254h2.687m-.96-3.106c.297,0,.548,.105,.754,.313,.206,.208,.309,.458,.309,.75,0,.293-.105,.542-.312,.748-.2079,.205-.459,.307-.751,.307-.293,0-.542-.102-.747-.307-.206-.206-.309-.455-.309-.748,0-.292,.103-.542,.309-.75,.205-.208,.454-.313,.747-.313Z" fill="#fff"/><path d="M88.652,52.6915v.83c.329-.357,.644-.617,.946-.779,.302-.162,.626-.243,.974-.243,.415,0,.76,.115,1.035,.346,.273,.231,.457,.517,.548,.86,.073,.261,.11,.761,.11,1.502v2.495c0,.493,.044,.801,.133,.922,.09,.121,.275,.198,.559,.23v.247h-3.243v-.247c.242-.032,.416-.132,.522-.302,.072-.114,.109-.398,.109-.85v-2.851c0-.527-.02-.858-.062-.994-.041-.138-.111-.245-.208-.32-.099-.075-.2079-.113-.327-.113-.392,0-.758,.281-1.096,.844v3.434c0,.48,.045,.785,.133,.912,.089,.128,.255,.208,.498,.24v.247h-3.244v-.247c.27-.028,.462-.115,.577-.26,.078-.101,.116-.399,.116-.892v-3.62c0-.484-.044-.786-.133-.904-.09-.119-.275-.196-.56-.233v-.254h2.613" fill="#fff"/><path d="M13.332,66.5465v2.345h1.522v.679h-1.522v3.956c0,.37,.017,.609,.051,.715,.035,.108,.096,.195,.182,.261,.087,.067,.167,.1,.24,.1,.297,0,.578-.227,.844-.679l.205,.15c-.37,.878-.971,1.317-1.803,1.317-.407,0-.751-.113-1.032-.339-.28-.227-.46-.479-.538-.758-.045-.155-.069-.576-.069-1.262v-3.461h-.836v-.24c.576-.407,1.066-.834,1.471-1.282,.404-.448,.757-.948,1.059-1.502h.226" fill="#fff"/><path d="M18.083,66.0055v3.709c.352-.37,.674-.632,.967-.785,.292-.153,.597-.23,.912-.23,.402,0,.745,.115,1.031,.343,.286,.229,.476,.497,.57,.806,.094,.307,.14,.828,.14,1.559v2.502c0,.49,.045,.794,.137,.915,.092,.121,.277,.199,.556,.23v.247h-3.25v-.247c.228-.031,.4-.123,.514-.275,.082-.118,.123-.408,.123-.87v-2.858c0-.53-.02-.863-.061-.998-.041-.135-.111-.24-.209-.316-.099-.075-.209-.113-.333-.113-.183,0-.361,.064-.534,.189-.174,.126-.362,.346-.563,.662v3.434c0,.457,.034,.744,.103,.857,.087,.156,.265,.252,.535,.288v.247h-3.25v-.247c.27-.027,.462-.114,.576-.26,.078-.1,.116-.395,.116-.885v-6.512c0-.485-.044-.786-.132-.906-.09-.118-.276-.196-.56-.232v-.254h2.612" fill="#fff"/><path d="M28.701,71.8665h-3.516c.041,.85,.267,1.522,.679,2.016,.315,.379,.694,.569,1.137,.569,.275,0,.524-.077,.7469-.23,.225-.152,.4641-.428,.721-.826l.232,.151c-.3459,.708-.731,1.21-1.151,1.505-.421,.295-.907,.442-1.46,.442-.951,0-1.671-.366-2.16-1.097-.393-.589-.589-1.321-.589-2.194,0-1.069,.289-1.921,.867-2.553,.578-.633,1.255-.95,2.033-.95,.649,0,1.211,.266,1.689,.799,.478,.532,.735,1.322,.771,2.368m-1.686-.459c0-.736-.04-1.241-.12-1.515-.079-.275-.204-.482-.373-.624-.096-.082-.224-.123-.384-.123-.238,0-.433,.116-.583,.349-.27,.408-.404,.965-.404,1.673v.24h1.864Z" fill="#fff"/><path d="M39.229,75.4935l-1.755-4.703-1.721,4.703h-.356l-1.707-4.648c-.256-.708-.474-1.17-.652-1.385-.114-.146-.288-.251-.521-.315v-.254h3.236v.254c-.22,0-.37,.032-.453,.095-.082,.065-.123,.138-.123,.22,0,.078,.073,.311,.22,.699l.938,2.502,.906-2.502-.069-.164c-.137-.342-.257-.561-.36-.655-.103-.094-.262-.158-.477-.195v-.254h3.284v.254c-.255,.013-.418,.049-.486,.106-.069,.057-.103,.138-.103,.243,0,.101,.066,.323,.199,.665l.905,2.502,.822-2.302c.119-.33,.178-.554,.178-.672,0-.179-.043-.309-.13-.392-.087-.082-.256-.132-.507-.15v-.254h1.899v.254c-.21,.027-.377,.101-.5,.222-.124,.121-.284,.465-.481,1.033l-1.796,5.093h-.39" fill="#fff"/><path d="M45.543,68.8915v5.08c0,.452,.052,.741,.157,.867,.106,.126,.311,.198,.618,.216v.247h-3.462v-.247c.283-.009,.493-.091,.631-.246,.09-.106,.136-.385,.136-.837v-3.743c0-.452-.052-.741-.157-.867-.105-.125-.308-.198-.61-.216v-.254h2.687m-.96-3.106c.297,0,.548,.105,.754,.313,.206,.208,.309,.458,.309,.75,0,.293-.105,.542-.312,.748-.2079,.205-.459,.307-.751,.307-.293,0-.542-.102-.747-.307-.206-.206-.308-.455-.308-.748,0-.292,.102-.542,.308-.75,.205-.208,.454-.313,.747-.313Z" fill="#fff"/><path d="M49.493,66.0055v7.966c0,.452,.052,.741,.158,.867,.105,.126,.31,.198,.617,.216v.247h-3.462v-.247c.283-.009,.493-.091,.631-.246,.091-.106,.137-.385,.137-.837v-6.636c0-.448-.053-.734-.158-.86-.105-.126-.308-.198-.61-.216v-.254h2.687" fill="#fff"/><path d="M57.158,66.0055v7.376c0,.499,.014,.793,.042,.885,.036,.15,.105,.262,.208,.336,.103,.073,.283,.119,.539,.136v.227l-2.708,.528v-1.014c-.325,.392-.614,.66-.868,.801-.254,.142-.541,.213-.86,.213-.818,0-1.465-.366-1.94-1.097-.384-.594-.576-1.324-.576-2.187,0-.69,.119-1.308,.357-1.854,.237-.546,.562-.959,.976-1.238,.414-.278,.859-.418,1.333-.418,.307,0,.579,.06,.817,.178,.237,.119,.491,.327,.761,.624v-1.933c0-.489-.021-.784-.062-.884-.055-.133-.138-.231-.247-.295-.109-.064-.315-.096-.617-.096v-.288h2.845m-1.919,4.347c-.338-.65-.752-.974-1.242-.974-.169,0-.308,.046-.418,.137-.169,.141-.307,.39-.415,.747-.107,.356-.161,.903-.161,1.639,0,.808,.06,1.408,.179,1.795,.119,.389,.281,.67,.486,.844,.106,.087,.249,.13,.433,.13,.401,0,.781-.315,1.138-.946v-3.372Z" fill="#fff"/><path d="M64.038,71.8665h-3.516c.041,.85,.267,1.522,.678,2.016,.316,.379,.695,.569,1.138,.569,.275,0,.524-.077,.7469-.23,.225-.152,.4641-.428,.721-.826l.232,.151c-.3459,.708-.731,1.21-1.151,1.505-.421,.295-.907,.442-1.46,.442-.951,0-1.671-.366-2.16-1.097-.393-.589-.589-1.321-.589-2.194,0-1.069,.289-1.921,.867-2.553,.578-.633,1.255-.95,2.032-.95,.65,0,1.212,.266,1.69,.799,.4771,.532,.735,1.322,.771,2.368m-1.686-.459c0-.736-.04-1.241-.12-1.515-.079-.275-.204-.482-.373-.624-.096-.082-.224-.123-.384-.123-.238,0-.433,.116-.583,.349-.27,.408-.404,.965-.404,1.673v.24h1.864Z" fill="#fff"/><path d="M67.5,68.8915v1.454c.425-.663,.798-1.103,1.117-1.32,.321-.217,.629-.326,.926-.326,.256,0,.461,.079,.614,.237,.153,.157,.23,.381,.23,.668,0,.306-.075,.544-.224,.713-.148,.17-.327,.253-.538,.253-.242,0-.452-.077-.631-.232-.177-.156-.283-.242-.314-.261-.046-.027-.099-.041-.158-.041-.133,0-.258,.05-.377,.151-.188,.155-.329,.377-.425,.665-.146,.443-.22,.932-.22,1.467v1.474l.007,.384c0,.26,.017,.427,.048,.5,.055,.124,.136,.214,.244,.27,.107,.058,.288,.093,.545,.107v.247h-3.463v-.247c.279-.023,.468-.1,.567-.23,.097-.129,.147-.473,.147-1.031v-3.545c0-.365-.019-.598-.056-.699-.045-.128-.111-.222-.198-.281-.087-.059-.24-.1-.46-.123v-.254h2.619" fill="#fff"/><path d="M73.691,68.8915v.83c.329-.357,.644-.616,.946-.778,.302-.163,.626-.244,.974-.244,.415,0,.76,.116,1.035,.346,.273,.232,.457,.518,.548,.86,.073,.261,.11,.761,.11,1.502v2.496c0,.493,.044,.8,.133,.921,.09,.121,.275,.199,.559,.23v.247h-3.243v-.247c.242-.031,.416-.132,.522-.302,.072-.114,.109-.397,.109-.849v-2.852c0-.526-.02-.857-.061-.994-.041-.138-.112-.244-.209-.32-.099-.075-.207-.113-.327-.113-.392,0-.758,.281-1.096,.844v3.435c0,.479,.045,.784,.134,.912,.088,.128,.254,.208,.497,.239v.247h-3.244v-.247c.27-.027,.462-.114,.577-.26,.078-.1,.116-.398,.116-.891v-3.621c0-.484-.044-.786-.133-.904-.09-.119-.275-.196-.56-.233v-.254h2.613" fill="#fff"/><path d="M84.31,71.8665h-3.517c.041,.85,.268,1.522,.679,2.016,.315,.379,.694,.569,1.138,.569,.274,0,.523-.077,.747-.23,.224-.152,.464-.428,.72-.826l.233,.151c-.347,.708-.732,1.21-1.152,1.505-.42,.295-.907,.442-1.459,.442-.952,0-1.671-.366-2.161-1.097-.392-.589-.588-1.321-.588-2.194,0-1.069,.289-1.921,.8669-2.553,.578-.633,1.255-.95,2.032-.95,.649,0,1.212,.266,1.689,.799,.478,.532,.736,1.322,.772,2.368m-1.687-.459c0-.736-.04-1.241-.12-1.515-.079-.275-.204-.482-.373-.624-.096-.082-.223-.123-.384-.123-.238,0-.432,.116-.583,.349-.269,.408-.404,.965-.404,1.673v.24h1.864Z" fill="#fff"/><path d="M89.065,68.7135l.102,2.187h-.232c-.279-.649-.568-1.092-.867-1.33-.3-.238-.598-.357-.895-.357-.187,0-.348,.064-.48,.189-.133,.126-.199,.271-.199,.435,0,.123,.045,.242,.137,.357,.147,.187,.556,.508,1.228,.962,.672,.456,1.113,.842,1.326,1.16,.213,.317,.318,.672,.318,1.065,0,.356-.089,.706-.266,1.049-.179,.343-.43,.606-.755,.789-.324,.183-.683,.274-1.076,.274-.306,0-.715-.096-1.227-.288-.138-.051-.231-.076-.281-.076-.151,0-.277,.115-.377,.344h-.227l-.109-2.304h.233c.205,.604,.488,1.056,.847,1.358,.358,.301,.697,.452,1.018,.452,.219,0,.398-.068,.538-.202,.139-.135,.209-.298,.209-.491,0-.219-.069-.409-.205-.569-.138-.159-.444-.401-.919-.727-.7-.484-1.152-.854-1.358-1.11-.3019-.375-.452-.788-.452-1.241,0-.493,.17-.94,.511-1.34,.34-.399,.833-.6,1.476-.6,.348,0,.684,.084,1.008,.253,.124,.07,.225,.104,.302,.104,.082,0,.148-.018,.199-.052,.05-.034,.13-.131,.2401-.291h.233" fill="#fff"/><path d="M94.557,68.7135l.102,2.187h-.232c-.279-.649-.568-1.092-.867-1.33-.3-.238-.598-.357-.895-.357-.187,0-.347,.064-.48,.189-.133,.126-.198,.271-.198,.435,0,.123,.045,.242,.136,.357,.147,.187,.556,.508,1.228,.962,.672,.456,1.113,.842,1.326,1.16,.213,.317,.318,.672,.318,1.065,0,.356-.088,.706-.266,1.049-.179,.343-.43,.606-.755,.789-.324,.183-.683,.274-1.076,.274-.306,0-.715-.096-1.227-.288-.138-.051-.231-.076-.281-.076-.15,0-.276,.115-.377,.344h-.227l-.109-2.304h.233c.206,.604,.488,1.056,.847,1.358,.359,.301,.697,.452,1.018,.452,.219,0,.398-.068,.538-.202,.139-.135,.209-.298,.209-.491,0-.219-.069-.409-.205-.569-.138-.159-.444-.401-.919-.727-.699-.484-1.152-.854-1.358-1.11-.301-.375-.452-.788-.452-1.241,0-.493,.17-.94,.511-1.34,.34-.399,.833-.6,1.476-.6,.348,0,.684,.084,1.008,.253,.124,.07,.225,.104,.302,.104,.082,0,.148-.018,.199-.052,.05-.034,.13-.131,.241-.291h.232" fill="#fff"/><path d="M97.28,73.1905c.32,0,.59,.112,.812,.336,.222,.223,.332,.493,.332,.808,0,.316-.111,.584-.336,.806-.223,.222-.493,.333-.808,.333-.316,0-.584-.111-.806-.333-.222-.222-.332-.49-.332-.806,0-.315,.11-.585,.332-.808,.222-.224,.4901-.336,.806-.336" fill="#fff"/></svg>