<?xml version="1.0" encoding="UTF-8"?><svg id="a" xmlns="http://www.w3.org/2000/svg" viewBox="0 0 109 109"><path d="M108.4995,54.5c0,29.824-24.177,54-54,54S.5005,84.324,.5005,54.5,24.6765,.5,54.4995,.5s54,24.177,54,54" fill="#b30738"/><path d="M51.0805,29.351v2.991h-.294c-.173-.689-.367-1.185-.578-1.487-.213-.301-.503-.5421-.872-.721-.207-.098-.569-.147-1.085-.147h-.823v8.527c0,.566,.031,.9189,.094,1.06,.061,.141,.184,.264,.367,.371,.182,.105,.43,.159,.746,.159h.366v.302h-5.787v-.302h.365c.323,0,.58-.058,.775-.171,.142-.076,.254-.207,.335-.392,.06-.13,.09-.473,.09-1.027v-8.527h-.8c-.744,0-1.284,.157-1.622,.472-.473,.441-.771,1.069-.897,1.8831h-.309v-2.991h9.929" fill="#fff"/><path d="M55.3605,29.351v4.41c.418-.44,.801-.751,1.15-.9319,.347-.183,.709-.275,1.084-.275,.478,0,.886,.137,1.226,.408,.34,.2729,.566,.591,.678,.9579,.111,.368,.167,.986,.167,1.855v2.975c0,.582,.053,.945,.163,1.088,.108,.145,.328,.236,.66,.274v.294h-3.864v-.294c.271-.038,.475-.147,.611-.326,.098-.141,.147-.487,.147-1.036v-3.399c0-.63-.025-1.025-.074-1.186-.048-.161-.131-.286-.248-.374-.117-.09-.249-.135-.396-.135-.217,0-.43,.074-.635,.223-.207,.151-.43,.412-.669,.787v4.084c0,.544,.04,.883,.122,1.02,.104,.185,.316,.299,.636,.342v.294h-3.865v-.294c.32-.033,.549-.136,.686-.31,.092-.12,.137-.47,.137-1.052v-7.744c0-.576-.051-.934-.158-1.076-.106-.141-.327-.234-.665-.277v-.302h3.107" fill="#fff"/><path d="M67.9885,36.321h-4.183c.049,1.011,.319,1.81,.808,2.397,.375,.451,.825,.676,1.353,.676,.326,0,.623-.091,.888-.272,.267-.183,.552-.51,.857-.983l.277,.18c-.413,.842-.87,1.438-1.369,1.789-.501,.35-1.079,.525-1.736,.525-1.131,0-1.988-.434-2.57-1.303-.467-.702-.7-1.571-.7-2.61,0-1.271,.344-2.283,1.031-3.036,.688-.753,1.492-1.13,2.417-1.13,.773,0,1.442,.318,2.009,.95,.568,.634,.875,1.573,.918,2.817m-2.006-.546c0-.875-.048-1.476-.142-1.802-.095-.326-.244-.573-.445-.741-.113-.099-.265-.1479-.456-.1479-.283,0-.514,.139-.693,.416-.32,.484-.481,1.147-.481,1.9901v.285h2.217Z" fill="#fff"/><path d="M21.6645,56.416h-3.905l-.465,1.076c-.152,.358-.227,.655-.227,.888,0,.31,.124,.538,.375,.685,.146,.087,.507,.152,1.084,.196v.301h-3.677v-.301c.397-.06,.723-.225,.978-.494,.256-.268,.571-.824,.946-1.667l3.954-8.82h.155l3.986,9.064c.38,.86,.694,1.4,.937,1.623,.184,.168,.446,.267,.783,.2939v.301h-5.348v-.301h.221c.429,0,.731-.06,.904-.179,.121-.087,.179-.212,.179-.375,0-.099-.015-.2-.049-.302-.009-.049-.092-.253-.244-.613l-.587-1.376m-.277-.604l-1.647-3.807-1.696,3.807h3.343Z" fill="#fff"/><path d="M30.3855,51.94v.986c.392-.424,.767-.732,1.126-.925,.358-.193,.744-.29,1.157-.29,.494,0,.905,.138,1.232,.413,.325,.274,.543,.615,.651,1.0229,.087,.3101,.131,.9041,.131,1.7841v2.968c0,.587,.053,.952,.158,1.097,.107,.1429,.327,.235,.665,.2729v.293h-3.856v-.293c.288-.038,.495-.158,.62-.359,.086-.136,.13-.473,.13-1.011v-3.392c0-.624-.025-1.018-.074-1.181-.048-.163-.131-.289-.248-.379-.117-.09-.246-.135-.387-.135-.467,0-.903,.335-1.305,1.003v4.084c0,.571,.054,.933,.159,1.084,.106,.152,.304,.248,.592,.2859v.293h-3.857v-.293c.321-.033,.549-.136,.685-.311,.093-.119,.139-.472,.139-1.059v-4.304c0-.576-.053-.934-.158-1.077-.108-.141-.329-.233-.666-.276v-.302h3.106" fill="#fff"/><path d="M39.5815,49.152v2.788h1.81v.808h-1.81v4.703c0,.44,.02,.724,.061,.852,.042,.127,.113,.231,.216,.309,.103,.079,.198,.119,.286,.119,.352,0,.687-.27,1.003-.808l.244,.18c-.441,1.043-1.154,1.565-2.144,1.565-.484,0-.893-.134-1.227-.403-.334-.269-.547-.5699-.64-.901-.054-.185-.082-.685-.082-1.5v-4.116h-.994v-.287c.685-.483,1.268-.991,1.749-1.524,.481-.532,.9-1.127,1.259-1.785h.269" fill="#fff"/><path d="M45.0925,51.94v6.041c0,.538,.062,.882,.187,1.03,.125,.151,.369,.236,.734,.258v.293h-4.117v-.293c.337-.011,.587-.1089,.75-.2939,.108-.125,.163-.4561,.163-.994v-4.451c0-.538-.064-.882-.188-1.031-.125-.15-.366-.236-.725-.257v-.302h3.196m-1.142-3.693c.353,0,.652,.124,.897,.371,.245,.247,.366,.545,.366,.893s-.124,.644-.37,.888c-.247,.245-.546,.367-.893,.367-.348,0-.644-.122-.888-.367-.245-.244-.367-.54-.367-.888s.122-.646,.367-.893c.244-.2469,.54-.371,.888-.371Z" fill="#fff"/><rect x="46.6625" y="54.883" width="4.754" height="1.687" fill="#fff"/><path d="M59.6635,48.255l.089,3.685h-.333c-.159-.924-.546-1.667-1.162-2.23-.618-.562-1.284-.843-2.001-.843-.555,0-.994,.148-1.318,.444-.322,.296-.485,.637-.485,1.0229,0,.245,.058,.461,.172,.652,.158,.256,.41,.509,.759,.759,.254,.179,.843,.497,1.768,.953,1.293,.635,2.165,1.237,2.616,1.801,.446,.566,.669,1.213,.669,1.941,0,.924-.36,1.719-1.08,2.384-.72,.666-1.635,.999-2.743,.999-.349,0-.677-.035-.987-.106-.309-.071-.698-.204-1.166-.399-.26-.109-.475-.163-.643-.163-.142,0-.292,.054-.449,.163-.158,.108-.286,.273-.383,.497h-.302v-4.174h.302c.239,1.174,.699,2.069,1.382,2.686,.682,.617,1.417,.925,2.206,.925,.608,0,1.092-.166,1.455-.497,.36-.332,.542-.717,.542-1.158,0-.261-.069-.513-.208-.758-.14-.245-.35-.477-.632-.697-.283-.22-.782-.506-1.5-.859-1.006-.495-1.728-.916-2.17-1.264-.44-.348-.778-.736-1.014-1.166-.236-.429-.355-.902-.355-1.419,0-.88,.324-1.63,.971-2.25,.646-.619,1.462-.929,2.446-.929,.358,0,.706,.044,1.043,.13,.255,.066,.566,.187,.934,.364,.367,.176,.623,.264,.769,.264,.142,0,.253-.044,.335-.13,.081-.087,.157-.296,.229-.628h.244" fill="#fff"/><path d="M65.2635,51.711c.664,0,1.28,.171,1.851,.514,.57,.343,1.004,.829,1.3,1.459,.296,.631,.444,1.321,.444,2.071,0,1.081-.273,1.987-.823,2.715-.663,.88-1.579,1.321-2.747,1.321-1.147,0-2.03-.403-2.65-1.208-.62-.803-.929-1.735-.929-2.795,0-1.093,.316-2.045,.95-2.858,.633-.812,1.501-1.219,2.604-1.219m.033,.58c-.277,0-.515,.104-.713,.313s-.329,.623-.392,1.239c-.062,.617-.094,1.475-.094,2.573,0,.581,.038,1.125,.116,1.63,.058,.386,.186,.679,.382,.88s.418,.302,.668,.302c.246,0,.449-.068,.612-.204,.212-.185,.353-.442,.424-.775,.108-.516,.163-1.559,.163-3.129,0-.924-.051-1.559-.155-1.904-.103-.345-.255-.596-.456-.755-.142-.113-.327-.17-.555-.17Z" fill="#fff"/><path d="M76.1705,57.597l.252,.195c-.359,.675-.806,1.176-1.341,1.505-.535,.329-1.105,.494-1.707,.494-1.017,0-1.829-.384-2.438-1.15-.608-.767-.913-1.687-.913-2.764,0-1.038,.277-1.951,.832-2.739,.667-.95,1.588-1.427,2.762-1.427,.789,0,1.415,.199,1.879,.595,.466,.398,.698,.841,.698,1.329,0,.31-.094,.558-.281,.742-.188,.185-.434,.278-.738,.278-.321,0-.585-.107-.794-.319-.209-.212-.34-.588-.389-1.132-.032-.343-.111-.582-.235-.718-.125-.136-.272-.204-.441-.204-.261,0-.483,.139-.668,.416-.282,.419-.425,1.06-.425,1.925,0,.716,.115,1.403,.343,2.057,.228,.655,.54,1.143,.938,1.464,.298,.233,.652,.351,1.06,.351,.266,0,.519-.063,.758-.188,.238-.125,.521-.362,.848-.71" fill="#fff"/><path d="M80.3365,51.94v6.041c0,.538,.061,.882,.186,1.03,.125,.151,.369,.236,.735,.258v.293h-4.118v-.293c.337-.011,.587-.1089,.75-.2939,.109-.125,.163-.4561,.163-.994v-4.451c0-.538-.062-.882-.187-1.031-.125-.15-.367-.236-.726-.257v-.302h3.197m-1.142-3.693c.353,0,.651,.124,.897,.371,.245,.247,.366,.545,.366,.893s-.124,.644-.37,.888c-.247,.245-.546,.367-.893,.367-.349,0-.644-.122-.889-.367-.245-.244-.367-.54-.367-.888s.122-.646,.367-.893c.245-.2469,.54-.371,.889-.371Z" fill="#fff"/><path d="M86.1545,58.437c-.93,.821-1.764,1.231-2.502,1.231-.435,0-.797-.142-1.085-.428-.288-.285-.432-.642-.432-1.072,0-.582,.25-1.104,.75-1.57,.5-.464,1.59-1.082,3.269-1.854v-.766c0-.576-.031-.938-.094-1.089-.062-.148-.181-.279-.354-.39-.174-.112-.37-.167-.587-.167-.354,0-.644,.078-.872,.236-.142,.098-.212,.212-.212,.342,0,.114,.075,.256,.227,.423,.207,.235,.311,.46,.311,.677,0,.267-.101,.493-.298,.681-.198,.187-.458,.281-.779,.281-.342,0-.629-.102-.86-.309-.23-.206-.346-.449-.346-.726,0-.392,.155-.765,.464-1.121,.31-.356,.742-.628,1.298-.818,.553-.191,1.129-.287,1.727-.287,.723,0,1.295,.155,1.716,.461,.421,.308,.694,.64,.819,.999,.075,.228,.114,.752,.114,1.573v2.96c0,.347,.014,.566,.04,.656,.029,.09,.069,.156,.124,.199,.053,.044,.116,.065,.187,.065,.142,0,.285-.1,.432-.301l.245,.196c-.272,.402-.553,.694-.845,.876-.29,.183-.619,.273-.99,.273-.435,0-.775-.102-1.019-.305-.245-.204-.394-.513-.448-.926m0-.595v-2.551c-.658,.385-1.147,.798-1.468,1.239-.211,.294-.318,.59-.318,.887,0,.251,.091,.471,.269,.662,.136,.146,.327,.219,.571,.219,.271,0,.588-.151,.946-.456Z" fill="#fff"/><path d="M93.2285,48.508v9.473c0,.538,.063,.882,.188,1.03,.125,.151,.369,.236,.734,.258v.293h-4.117v-.293c.337-.011,.586-.109,.75-.294,.108-.125,.163-.456,.163-.994v-7.892c0-.532-.063-.873-.187-1.022-.125-.151-.368-.235-.726-.258v-.301h3.195" fill="#fff"/><path d="M27.7245,68.343l5.454,6.856v-4.753c0-.663-.095-1.112-.285-1.345-.262-.315-.699-.467-1.313-.457v-.301h3.653v.301c-.468,.061-.782,.138-.943,.232-.16,.096-.285,.25-.375,.465-.089,.215-.134,.583-.134,1.105v9.204h-.278l-7.474-9.204v7.027c0,.636,.144,1.066,.436,1.288,.29,.223,.623,.335,.999,.335h.26v.301h-3.921v-.301c.608-.006,1.032-.131,1.272-.376,.239-.244,.359-.66,.359-1.247v-7.802l-.237-.293c-.234-.2939-.44-.486-.621-.579-.178-.092-.436-.143-.773-.155v-.301h3.921" fill="#fff"/><path d="M42.5755,75.313h-4.181c.049,1.011,.318,1.81,.806,2.396,.375,.452,.827,.677,1.353,.677,.327,0,.623-.091,.889-.272,.267-.183,.551-.511,.857-.983l.276,.179c-.412,.843-.87,1.439-1.369,1.79-.501,.35-1.079,.525-1.736,.525-1.131,0-1.987-.435-2.568-1.304-.467-.701-.701-1.571-.701-2.609,0-1.271,.344-2.283,1.031-3.037,.687-.752,1.493-1.129,2.417-1.129,.772,0,1.441,.318,2.008,.951,.569,.632,.875,1.572,.918,2.816m-2.005-.547c0-.875-.048-1.475-.143-1.801-.094-.326-.243-.573-.443-.742-.115-.098-.267-.146-.457-.146-.284,0-.515,.138-.694,.416-.32,.483-.48,1.146-.48,1.989v.284h2.217Z" fill="#fff"/><path d="M46.5545,68.987v2.788h1.809v.8069h-1.809v4.704c0,.44,.019,.724,.06,.852,.042,.127,.114,.231,.216,.309,.104,.079,.199,.119,.285,.119,.354,0,.688-.27,1.004-.808l.244,.18c-.44,1.043-1.155,1.565-2.144,1.565-.484,0-.893-.134-1.228-.403-.333-.269-.546-.5699-.639-.901-.054-.185-.081-.685-.081-1.5v-4.117h-.994v-.2859c.683-.483,1.266-.991,1.749-1.524,.48-.532,.899-1.127,1.258-1.785h.27" fill="#fff"/><path d="M56.5135,79.625l-2.086-5.591-2.047,5.591h-.424l-2.03-5.527c-.305-.843-.563-1.3911-.774-1.646-.136-.174-.343-.299-.621-.375v-.302h3.849v.302c-.262,0-.44,.038-.539,.114-.098,.076-.146,.162-.146,.261,0,.091,.086,.37,.261,.831l1.116,2.975,1.077-2.975-.082-.196c-.162-.407-.305-.667-.428-.778-.122-.112-.312-.189-.567-.232v-.302h3.905v.302c-.303,.015-.497,.058-.578,.126-.082,.068-.123,.165-.123,.29,0,.119,.079,.382,.237,.79l1.077,2.975,.977-2.739c.142-.391,.212-.657,.212-.799,0-.212-.052-.3669-.154-.464-.104-.098-.305-.158-.604-.179v-.302h2.258v.302c-.25,.032-.448,.12-.595,.264-.147,.144-.338,.554-.571,1.227l-2.136,6.057h-.464" fill="#fff"/><path d="M64.6405,71.546c.663,0,1.281,.171,1.852,.514,.57,.343,1.003,.829,1.3,1.459,.296,.631,.444,1.321,.444,2.071,0,1.081-.274,1.987-.823,2.715-.663,.88-1.579,1.32-2.748,1.32-1.146,0-2.03-.402-2.649-1.207-.62-.803-.93-1.735-.93-2.795,0-1.093,.317-2.045,.95-2.858,.633-.812,1.502-1.219,2.604-1.219m.034,.579c-.277,0-.515,.105-.713,.314-.2,.209-.329,.623-.392,1.239-.062,.617-.094,1.475-.094,2.572,0,.582,.038,1.125,.115,1.631,.059,.385,.187,.679,.383,.88,.195,.201,.418,.302,.667,.302,.245,0,.449-.068,.613-.204,.212-.185,.353-.443,.424-.775,.108-.516,.163-1.559,.163-3.13,0-.923-.052-1.558-.156-1.903-.102-.345-.255-.596-.456-.755-.141-.113-.326-.171-.554-.171Z" fill="#fff"/><path d="M72.5905,71.775v1.728c.504-.788,.949-1.311,1.328-1.569,.381-.258,.748-.388,1.101-.388,.304,0,.548,.094,.729,.282,.182,.187,.274,.453,.274,.795,0,.364-.089,.647-.265,.847-.177,.201-.39,.302-.64,.302-.288,0-.538-.093-.751-.277-.211-.185-.336-.288-.374-.31-.054-.032-.117-.049-.188-.049-.158,0-.306,.06-.448,.18-.222,.184-.391,.448-.505,.79-.174,.527-.261,1.108-.261,1.745v1.752l.007,.457c0,.31,.021,.509,.058,.595,.064,.147,.161,.255,.29,.322,.127,.068,.343,.11,.648,.127v.293h-4.118v-.293c.332-.027,.556-.118,.673-.2729,.116-.156,.176-.565,.176-1.228v-4.214c0-.434-.022-.712-.066-.832-.053-.151-.132-.263-.236-.334-.103-.07-.286-.119-.547-.146v-.302h3.115" fill="#fff"/><path d="M79.9355,68.343v7.272l1.77-1.737c.364-.353,.591-.608,.68-.766,.09-.157,.134-.31,.134-.456,0-.148-.058-.27-.178-.367-.12-.098-.353-.169-.702-.212v-.302h3.416v.302c-.326,.015-.611,.093-.856,.232-.244,.139-.723,.556-1.435,1.251l-.831,.815,1.793,2.625c.724,1.066,1.152,1.664,1.288,1.793,.185,.185,.419,.289,.702,.311v.293h-3.939v-.293c.175,0,.301-.033,.38-.099,.079-.064,.119-.135,.119-.212,0-.124-.115-.355-.343-.692l-1.508-2.209-.49,.481v1.37c0,.581,.055,.943,.163,1.088,.11,.143,.332,.235,.669,.273v.293h-3.937v-.293c.32-.033,.549-.136,.684-.311,.093-.119,.139-.469,.139-1.05v-7.745c0-.577-.053-.9351-.159-1.076-.106-.142-.328-.234-.664-.278v-.301h3.105" fill="#fff"/></svg>