<?xml version="1.0" encoding="UTF-8"?><svg id="a" xmlns="http://www.w3.org/2000/svg" viewBox="0 0 109 109"><path d="M108.5005,54.4995c0,29.824-24.178,54-54,54S.4995,84.3235,.4995,54.4995,24.6765,.5005,54.5005,.5005s54,24.176,54,53.999" fill="#231f20"/><g><path d="M26.541,32.7256c.458-.0215,.7705-.1074,.9375-.2568s.251-.4756,.251-.9775v-5.9814c0-.5215-.0986-.8604-.2969-1.0186-.1318-.1045-.4297-.1768-.8916-.2168v-.3428h4.3516c.9023,0,1.6328,.0947,2.1914,.2832,1.083,.3838,1.625,1.0723,1.625,2.0674,0,.7344-.2842,1.3135-.8506,1.7363-.4336,.3164-.8926,.5195-1.377,.6074l2.874,3.8496c.0742,.1055,.1533,.1748,.2373,.207,.084,.0332,.1875,.0547,.3105,.0635v.3232h-2.8213l-3.1543-4.2256h-.0059v2.6475c0,.4756,.0791,.7959,.2373,.9609s.4756,.2559,.9512,.2734v.3438h-4.5693v-.3438Zm5.2793-4.6904c.3799-.2354,.5703-.7803,.5703-1.6348,0-.5234-.0723-.9375-.2178-1.2412-.251-.5146-.708-.7725-1.373-.7725-.3613,0-.5977,.0449-.71,.1357-.1123,.0898-.168,.2383-.168,.4453v3.4404c.8848-.0137,1.5176-.1377,1.8984-.373Z" fill="#fff"/><path d="M40.876,23.9316v.3428c-.5244,.0176-.874,.0986-1.0498,.2432-.1768,.1445-.2646,.4746-.2646,.9922v4.5303c0,.6885,.082,1.2197,.2441,1.5947,.2949,.6963,.8613,1.0449,1.6973,1.0449,1.0391,0,1.7412-.3857,2.1064-1.1562,.2021-.4229,.3037-1.0156,.3037-1.7783v-4.1367c0-.4844-.0889-.8174-.2676-1-.1777-.1826-.5273-.2939-1.0469-.334v-.3428h2.9717v.3428c-.4316,.084-.7168,.1865-.8555,.3076s-.208,.3994-.208,.835v4.3242c0,1.1494-.2773,2.0361-.8311,2.6611-.5547,.625-1.4268,.9375-2.6152,.9375-1.5537,0-2.6172-.4648-3.1895-1.3945-.3037-.4932-.4551-1.1299-.4551-1.9092v-4.5264c0-.5088-.0674-.8281-.2012-.959-.1348-.1318-.4375-.2236-.9082-.2764v-.3428h4.5693Z" fill="#fff"/><path d="M46.0713,32.7256c.3652-.0127,.627-.0615,.7861-.1445,.2686-.1416,.4023-.4102,.4023-.8057v-6.5498c0-.3936-.125-.6582-.376-.7939-.1504-.083-.4209-.1348-.8125-.1572v-.3428h4.1797c.8057,0,1.4746,.0918,2.0068,.2773,1.0039,.3477,1.5059,.9814,1.5059,1.9014,0,.5586-.2041,1.002-.6113,1.3301s-.8477,.5361-1.3232,.624v.126c.502,.0967,.9375,.2598,1.3066,.4883,.7227,.4492,1.083,1.0742,1.083,1.875,0,.748-.3457,1.3545-1.0361,1.8193-.6914,.4639-1.6113,.6963-2.7598,.6963h-4.3516v-.3438Zm5.0312-5.1035c.2861-.2725,.4297-.7568,.4297-1.4521,0-.5156-.0938-.9492-.2812-1.3008-.1865-.3525-.5469-.5283-1.0791-.5283-.2822,0-.4775,.0469-.5879,.1416s-.165,.2656-.165,.5117v3.0371c.8359,0,1.3975-.1357,1.6836-.4092Zm-1.5781,4.7207c.1104,.1943,.3213,.291,.6338,.291,.6387,0,1.0859-.1738,1.3438-.5215s.3867-.8428,.3867-1.4863c0-.959-.2842-1.5977-.8525-1.9141-.3428-.1943-.8818-.2842-1.6172-.2715v3.3809c.0039,.2383,.04,.4121,.1055,.5215Z" fill="#fff"/><path d="M55.0908,32.7256c.3652-.0127,.627-.0615,.7861-.1445,.2686-.1416,.4023-.4102,.4023-.8057v-6.5498c0-.3936-.125-.6582-.376-.7939-.1504-.083-.4209-.1348-.8125-.1572v-.3428h4.1797c.8057,0,1.4746,.0918,2.0068,.2773,1.0039,.3477,1.5059,.9814,1.5059,1.9014,0,.5586-.2041,1.002-.6113,1.3301s-.8477,.5361-1.3232,.624v.126c.502,.0967,.9375,.2598,1.3066,.4883,.7227,.4492,1.083,1.0742,1.083,1.875,0,.748-.3457,1.3545-1.0361,1.8193-.6914,.4639-1.6113,.6963-2.7598,.6963h-4.3516v-.3438Zm5.0312-5.1035c.2861-.2725,.4297-.7568,.4297-1.4521,0-.5156-.0938-.9492-.2812-1.3008-.1865-.3525-.5469-.5283-1.0791-.5283-.2822,0-.4775,.0469-.5879,.1416s-.165,.2656-.165,.5117v3.0371c.8359,0,1.3975-.1357,1.6836-.4092Zm-1.5781,4.7207c.1104,.1943,.3213,.291,.6338,.291,.6387,0,1.0859-.1738,1.3438-.5215s.3867-.8428,.3867-1.4863c0-.959-.2842-1.5977-.8525-1.9141-.3428-.1943-.8818-.2842-1.6172-.2715v3.3809c.0039,.2383,.04,.4121,.1055,.5215Z" fill="#fff"/><path d="M64.1104,33.0693v-.3438c.3877-.0127,.6621-.0654,.8252-.1582,.251-.1406,.377-.4043,.377-.792v-6.5498c0-.3936-.1299-.6582-.3896-.7939-.1504-.083-.4209-.1348-.8125-.1572v-.3428h7.791v2.7266h-.3301c-.1719-.8711-.4629-1.4678-.875-1.7891-.4111-.3213-1.1611-.4824-2.248-.4824-.4141,0-.6768,.043-.7891,.1289s-.168,.2568-.168,.5117v3.1299c.7705,.0088,1.292-.1309,1.5645-.4199,.2734-.2881,.4824-.8154,.627-1.5811h.3438v4.5693h-.3438c-.0967-.7705-.293-1.3125-.5908-1.6279-.2969-.3145-.8301-.4717-1.6006-.4717v3.2744c0,.2861,.0732,.4814,.2207,.585s.4502,.1553,.9082,.1553c.8623,0,1.5674-.168,2.1123-.502,.5459-.335,1.0303-.9619,1.4531-1.8818h.376l-.5479,2.8125h-7.9033Z" fill="#fff"/><path d="M73.1289,32.7256c.458-.0215,.7705-.1074,.9375-.2568s.251-.4756,.251-.9775v-5.9814c0-.5215-.0986-.8604-.2969-1.0186-.1318-.1045-.4297-.1768-.8916-.2168v-.3428h4.3516c.9023,0,1.6328,.0947,2.1914,.2832,1.083,.3838,1.625,1.0723,1.625,2.0674,0,.7344-.2842,1.3135-.8506,1.7363-.4336,.3164-.8926,.5195-1.377,.6074l2.874,3.8496c.0742,.1055,.1533,.1748,.2373,.207,.084,.0332,.1875,.0547,.3105,.0635v.3232h-2.8213l-3.1543-4.2256h-.0059v2.6475c0,.4756,.0791,.7959,.2373,.9609s.4756,.2559,.9512,.2734v.3438h-4.5693v-.3438Zm5.2793-4.6904c.3799-.2354,.5703-.7803,.5703-1.6348,0-.5234-.0723-.9375-.2178-1.2412-.251-.5146-.708-.7725-1.373-.7725-.3613,0-.5977,.0449-.71,.1357-.1123,.0898-.168,.2383-.168,.4453v3.4404c.8848-.0137,1.5176-.1377,1.8984-.373Z" fill="#fff"/></g><g><path d="M31.8027,48.9521c.4443-.0303,.7432-.124,.8945-.2803,.1523-.1562,.2285-.4746,.2285-.9541v-5.9814c0-.5088-.0771-.8291-.2314-.9629-.1543-.1328-.4512-.2236-.8916-.2725v-.3428h4.3516c1.1533,0,2.0303,.1865,2.6309,.5605s.9014,1.0176,.9014,1.9287c0,.4443-.1182,.8613-.3535,1.251s-.624,.7031-1.165,.9404c-.4092,.168-.8193,.2686-1.2285,.3037s-1.0166,.0527-1.8223,.0527v2.5225c0,.498,.084,.8232,.251,.9775s.4795,.2393,.9375,.2568v.3438h-4.5029v-.3438Zm4.9258-4.5029c.4268-.2725,.6406-.8604,.6406-1.7627,0-.6162-.1035-1.1133-.3105-1.4922-.207-.3779-.6035-.5674-1.1885-.5674-.2686,0-.4609,.0312-.5781,.0957-.1162,.0635-.1748,.1875-.1748,.373v3.6309c.8057-.0127,1.3428-.1055,1.6113-.2773Z" fill="#fff"/><path d="M44.6318,40.1582v.3428c-.5244,.0176-.874,.0986-1.0498,.2432-.1768,.1445-.2646,.4746-.2646,.9922v4.5303c0,.6885,.082,1.2197,.2441,1.5947,.2949,.6963,.8613,1.0449,1.6973,1.0449,1.0391,0,1.7412-.3857,2.1064-1.1562,.2021-.4229,.3037-1.0156,.3037-1.7783v-4.1367c0-.4844-.0889-.8174-.2676-1-.1777-.1826-.5273-.2939-1.0469-.334v-.3428h2.9717v.3428c-.4316,.084-.7168,.1865-.8555,.3076s-.208,.3994-.208,.835v4.3242c0,1.1494-.2773,2.0361-.8311,2.6611-.5547,.625-1.4268,.9375-2.6152,.9375-1.5537,0-2.6172-.4648-3.1895-1.3945-.3037-.4932-.4551-1.1299-.4551-1.9092v-4.5264c0-.5088-.0674-.8281-.2012-.959-.1348-.1318-.4375-.2236-.9082-.2764v-.3428h4.5693Z" fill="#fff"/><path d="M56.5498,40.2998c.5762,.209,.8975,.3135,.9639,.3135,.1719,0,.3096-.0654,.4131-.1982,.1025-.1318,.168-.2705,.1943-.416h.376v3.1631h-.3428c-.3252-.6865-.6572-1.2285-.9961-1.624-.6328-.7305-1.3496-1.0967-2.1494-1.0967-.9062,0-1.5488,.3906-1.9297,1.1719-.3799,.7822-.5703,1.8301-.5703,3.1465,0,.9688,.1123,1.7656,.3369,2.3906,.417,1.1709,1.1934,1.7559,2.3281,1.7559,.6943,0,1.3408-.1934,1.9385-.5811,.3428-.2246,.7471-.583,1.2139-1.0762l.4023,.3301c-.5283,.5898-.9922,1.0166-1.3936,1.2812-.7129,.4707-1.5049,.7061-2.377,.7061-1.333,0-2.4512-.3955-3.3535-1.1885-.999-.876-1.499-2.0557-1.499-3.5391,0-1.4697,.4775-2.6602,1.4326-3.5713,.8984-.8545,1.999-1.2812,3.3018-1.2812,.5635,0,1.1328,.1045,1.71,.3135Z" fill="#fff"/><path d="M59.7119,48.9521c.3672-.0127,.6279-.0615,.7832-.1445,.2617-.1416,.3916-.4102,.3916-.8057v-6.5498c0-.3896-.1191-.6514-.3584-.7871-.1465-.083-.418-.1377-.8164-.1641v-.3428h4.5752v.3428c-.4668,.04-.7812,.127-.9443,.2627-.1621,.1357-.2441,.46-.2441,.9727v2.8984l2.9092-2.9482c.2021-.2012,.334-.3457,.3926-.4307,.0596-.0859,.0898-.1904,.0898-.3135,0-.1709-.0781-.2812-.2344-.3291s-.458-.0859-.9053-.1123v-.3428h3.915v.3428c-.7002,.0576-1.2793,.2559-1.7393,.5947s-1.3311,1.1641-2.6123,2.4746l4.126,5.1055c.0889,.1094,.1758,.1787,.2617,.208,.0859,.0283,.2188,.0508,.3994,.0684v.3438h-4.5361v-.3438c.4102-.0039,.6895-.0215,.8389-.0527,.1494-.0303,.2246-.1074,.2246-.2305,0-.0576-.0244-.1309-.0723-.2217-.0488-.0898-.1348-.2119-.2578-.3662l-2.457-3.0713-.3428,.3447v2.6475c0,.3916,.1309,.6582,.3916,.7988,.1514,.084,.4121,.1338,.7842,.1514v.3438h-4.5625v-.3438Z" fill="#fff"/><path d="M70.3691,46.1396h.3896c.2148,1.0107,.5625,1.7451,1.042,2.2041,.4805,.459,1.0303,.6885,1.6494,.6885,.6025,0,1.0312-.1582,1.2852-.4727,.2539-.3154,.3809-.6465,.3809-.9951,0-.4053-.1328-.7354-.3975-.9902-.1758-.168-.5312-.3857-1.0664-.6543l-.8613-.4365c-.8545-.4316-1.458-.8584-1.8096-1.2822-.3506-.4229-.5264-.9443-.5264-1.5654,0-.6611,.2324-1.2773,.6973-1.8496,.4658-.5732,1.1787-.8594,2.1396-.8594,.4893,0,.9619,.0752,1.4189,.2246s.7178,.2246,.7822,.2246c.1475,0,.249-.043,.3057-.1289,.0557-.0859,.1016-.1992,.1357-.3398h.4033v2.9443h-.377c-.1758-.6816-.4873-1.2695-.9326-1.7627s-.9863-.7393-1.623-.7393c-.4473,0-.8008,.124-1.0615,.373-.2598,.249-.3906,.5518-.3906,.9082,0,.4277,.1221,.7471,.3662,.959,.2393,.2158,.7764,.5322,1.6104,.9512l.998,.502c.4453,.2246,.7998,.4736,1.0645,.7461,.4941,.5107,.7412,1.1309,.7412,1.8613,0,.6816-.2646,1.3252-.7949,1.9297s-1.3809,.9072-2.5498,.9072c-.2686,0-.54-.0254-.8145-.0762-.2754-.0508-.5469-.1289-.8154-.2344l-.2598-.0986c-.0605-.0176-.1191-.0322-.1758-.043-.0557-.0107-.1035-.0166-.1426-.0166-.1387,0-.2334,.041-.2861,.1221-.0518,.082-.0967,.1973-.1357,.3467h-.3896v-3.3477Z" fill="#fff"/></g><g><path d="M40.0957,65.1787c.3262-.0215,.5879-.1689,.7861-.4424,.127-.1709,.3105-.5498,.5479-1.1348l3.0039-7.4023h.377l3.0166,7.1045c.3389,.7969,.5928,1.3105,.7598,1.542s.4053,.3428,.7129,.333v.3438h-4.377v-.3438c.4395-.0176,.7295-.0547,.8682-.1123,.1387-.0566,.208-.2021,.208-.4355,0-.1055-.0361-.2656-.1064-.4814-.0439-.1279-.1035-.2822-.1777-.4629l-.3447-.8184h-3.0352c-.1982,.5371-.3262,.8867-.3838,1.0498-.1191,.3477-.1787,.6006-.1787,.7598,0,.1934,.1299,.334,.3896,.4219,.1543,.0488,.3857,.0752,.6934,.0791v.3438h-2.7598v-.3438Zm5.0762-2.8457l-1.3008-3.1289h-.1133l-1.2207,3.1289h2.6348Z" fill="#fff"/><path d="M49.835,65.1787c.502-.0127,.8252-.1084,.9707-.2871,.1455-.1777,.2178-.4414,.2178-.7891v-6.4043c-.4141-.4619-.6689-.7334-.7656-.8154-.0967-.0811-.2295-.1328-.3965-.1553v-.3428h2.8652l4.6484,5.6494h.0664v-3.9727c0-.458-.083-.7842-.25-.9805-.166-.1963-.499-.3135-.998-.3535v-.3428h2.9053v.3428c-.4229,.0703-.7051,.1641-.8486,.2822-.1426,.1182-.2148,.3828-.2148,.7939v7.9697h-.376l-5.9492-7.2295h-.0918v5.3018c0,.416,.0566,.71,.1709,.8818,.1807,.2793,.5508,.4297,1.1094,.4512v.3438h-3.0635v-.3438Z" fill="#fff"/><path d="M59.5664,65.1787c.3389-.0215,.584-.0703,.7334-.1445,.2637-.1367,.3955-.3857,.3955-.7461v-6.6689c0-.3477-.125-.5898-.376-.7266-.1455-.0791-.3965-.1338-.7529-.165v-.3428h4.1338c1.668,0,2.9404,.4443,3.8164,1.333,.7959,.8105,1.1943,1.8975,1.1943,3.2617,0,1.2236-.4004,2.2607-1.2012,3.1104-.9023,.9551-2.126,1.4326-3.6709,1.4326h-4.2725v-.3438Zm3.4697-.2969c.0908,.123,.2832,.1846,.5781,.1846,.8008,0,1.459-.2822,1.9736-.8477,.5156-.5654,.7725-1.6523,.7725-3.2588,0-.9551-.1387-1.7764-.415-2.4629-.4492-1.1045-1.207-1.6572-2.2715-1.6572-.3525,0-.5811,.0752-.6865,.2246-.0713,.0967-.1064,.2842-.1064,.5615v6.6553c.0137,.2773,.0654,.4775,.1553,.6006Z" fill="#fff"/></g><g><path d="M25.0684,81.4062c.3701-.0127,.6338-.0615,.792-.1445,.2686-.1416,.4033-.4102,.4033-.8066v-6.5488c0-.3936-.1279-.6582-.3828-.7939-.1504-.083-.4209-.1348-.8125-.1572v-.3428h4.7275v.3428c-.5498,.0176-.917,.0947-1.0996,.2305s-.2734,.4707-.2734,1.0049v6.3906c0,.2988,.0781,.4971,.2344,.5947,.1562,.0967,.4609,.1455,.9141,.1455,.8145,0,1.498-.1797,2.0508-.5391,.5518-.3584,1.0283-1.0566,1.4287-2.0957h.3965l-.5479,3.0635h-7.8311v-.3438Z" fill="#fff"/><path d="M34.0615,81.4062c.3828-.0088,.6582-.0547,.8252-.1387,.2734-.1406,.4092-.4111,.4092-.8115v-6.5498c0-.3984-.1299-.665-.3887-.7998-.1592-.083-.4404-.1338-.8457-.1514v-.3428h4.7275v.3428c-.4229,.0176-.7129,.0654-.8711,.1445-.2646,.1357-.3965,.4043-.3965,.8066v6.5498c0,.3789,.1055,.6318,.3164,.7588,.2119,.1279,.5283,.1914,.9512,.1914v.3438h-4.7275v-.3438Z" fill="#fff"/><path d="M47.748,73.7275c.9287,.9023,1.3936,2.0645,1.3936,3.4863,0,1.5674-.5527,2.8066-1.6572,3.7178-.4229,.3691-1.0146,.6758-1.7764,.917,.1934,.4844,.5049,.8818,.9346,1.1924,.4287,.3105,.8984,.4648,1.4092,.4648,.1768,0,.3252-.0117,.4463-.0361s.2754-.0645,.4648-.1221l.0791,.3301c-.4531,.1855-.9521,.3174-1.498,.3965-.3477,.0527-.665,.0791-.9512,.0791-.7617,0-1.5068-.1895-2.2354-.5674-.7285-.3789-1.2334-.9268-1.5146-1.6445-.0352-.0928-.0615-.1475-.0791-.165s-.082-.0439-.1914-.0791c-.5723-.207-1.1143-.541-1.625-1.0039-.9375-.9111-1.4062-2.0527-1.4062-3.4268,0-1.3906,.4385-2.542,1.3145-3.4531,.8975-.9375,2.0615-1.4062,3.4922-1.4062,1.3652,0,2.498,.4404,3.4004,1.3203Zm-1.3145,6.0352c.2031-.6514,.3047-1.501,.3047-2.5488,0-1.4395-.2148-2.5244-.6445-3.2549s-1.0127-1.0957-1.749-1.0957c-1.0225,0-1.7236,.6094-2.1025,1.8281-.1982,.6475-.2979,1.4883-.2979,2.5225,0,1.0518,.1016,1.9014,.3047,2.5488,.374,1.2012,1.0732,1.8027,2.0957,1.8027,1.0137,0,1.71-.6016,2.0889-1.8027Z" fill="#fff"/><path d="M54.4111,72.6123v.3428c-.5244,.0176-.874,.0986-1.0498,.2432-.1768,.1445-.2646,.4746-.2646,.9922v4.5303c0,.6885,.082,1.2197,.2441,1.5947,.2949,.6963,.8613,1.0449,1.6973,1.0449,1.0391,0,1.7412-.3857,2.1064-1.1562,.2021-.4229,.3037-1.0156,.3037-1.7783v-4.1367c0-.4844-.0889-.8174-.2676-1-.1777-.1826-.5273-.2939-1.0469-.334v-.3428h2.9717v.3428c-.4316,.084-.7168,.1865-.8555,.3076s-.208,.3994-.208,.835v4.3242c0,1.1494-.2773,2.0361-.8311,2.6611-.5547,.625-1.4268,.9375-2.6152,.9375-1.5537,0-2.6172-.4648-3.1895-1.3945-.3037-.4932-.4551-1.1299-.4551-1.9092v-4.5264c0-.5088-.0674-.8281-.2012-.959-.1348-.1318-.4375-.2236-.9082-.2764v-.3428h4.5693Z" fill="#fff"/><path d="M68.0312,73.7275c.9287,.9023,1.3936,2.0645,1.3936,3.4863s-.4648,2.584-1.3936,3.4863c-.9062,.8809-2.04,1.3203-3.4004,1.3203-1.4434,0-2.6211-.4814-3.5322-1.4453-.8496-.9072-1.2744-2.0029-1.2744-3.2891,0-1.417,.4443-2.5811,1.334-3.4922,.8975-.9248,2.0557-1.3867,3.4727-1.3867,1.3652,0,2.498,.4404,3.4004,1.3203Zm-1.3145,6.0352c.2031-.6514,.3047-1.501,.3047-2.5488,0-1.4395-.2148-2.5244-.6445-3.2549s-1.0127-1.0957-1.749-1.0957c-1.0225,0-1.7236,.6094-2.1025,1.8281-.1982,.6475-.2979,1.4883-.2979,2.5225,0,1.0518,.1016,1.9014,.3047,2.5488,.374,1.2012,1.0732,1.8027,2.0957,1.8027,1.0137,0,1.71-.6016,2.0889-1.8027Z" fill="#fff"/><path d="M70.125,81.4062c.458-.0215,.7705-.1074,.9375-.2568s.251-.4756,.251-.9775v-5.9814c0-.5215-.0986-.8604-.2969-1.0186-.1318-.1045-.4297-.1768-.8916-.2168v-.3428h4.3516c.9023,0,1.6328,.0947,2.1914,.2832,1.083,.3838,1.625,1.0723,1.625,2.0674,0,.7344-.2842,1.3135-.8506,1.7363-.4336,.3164-.8926,.5195-1.377,.6074l2.874,3.8496c.0742,.1055,.1533,.1748,.2373,.207,.084,.0332,.1875,.0547,.3105,.0635v.3232h-2.8213l-3.1543-4.2256h-.0059v2.6475c0,.4756,.0791,.7959,.2373,.9609s.4756,.2559,.9512,.2734v.3438h-4.5693v-.3438Zm5.2793-4.6904c.3799-.2354,.5703-.7803,.5703-1.6348,0-.5234-.0723-.9375-.2178-1.2412-.251-.5146-.708-.7725-1.373-.7725-.3613,0-.5977,.0449-.71,.1357-.1123,.0898-.168,.2383-.168,.4453v3.4404c.8848-.0137,1.5176-.1377,1.8984-.373Z" fill="#fff"/><path d="M81.0879,72.7207c.2266-.209,.4941-.3135,.8027-.3135,.2988,0,.5645,.1035,.7949,.3105,.2314,.207,.3467,.5479,.3467,1.0234,0,.1494-.0361,.375-.1084,.6768-.0732,.3018-.2041,.7959-.3926,1.4824-.1152,.4131-.1934,.7578-.2344,1.0332-.042,.2754-.1094,.8281-.2021,1.6602h-.3896c-.127-1.0469-.2129-1.6943-.2568-1.9414-.0439-.2461-.1318-.5918-.2646-1.0361-.167-.5684-.2744-.9463-.3232-1.1357-.0752-.2949-.1123-.5264-.1123-.6934,0-.502,.1133-.8574,.3398-1.0664Zm-.0068,7.2695c.2227-.2217,.4922-.333,.8096-.333,.3164,0,.5859,.1113,.8086,.333,.2227,.2227,.333,.4922,.333,.8086,0,.3174-.1104,.5869-.333,.8096-.2227,.2217-.4922,.333-.8086,.333-.3174,0-.5869-.1113-.8096-.333-.2217-.2227-.333-.4922-.333-.8096,0-.3164,.1113-.5859,.333-.8086Z" fill="#fff"/></g></svg>