<?xml version="1.0" encoding="UTF-8"?><svg id="a" xmlns="http://www.w3.org/2000/svg" viewBox="0 0 109 109"><path d="M108.5,54.5c0,29.823-24.177,54-54,54S.5,84.323,.5,54.5,24.677,.5,54.5,.5s54,24.176,54,54" fill="#00467f" fill-rule="evenodd"/><path d="M23.09,39.813v.279h-5.334v-.279h.339c.295,0,.533-.052,.714-.157,.129-.07,.231-.191,.299-.361,.057-.121,.084-.438,.084-.949v-6.712c0-.52-.027-.847-.084-.977-.053-.13-.165-.244-.333-.343-.169-.098-.396-.146-.68-.146h-.339v-.279h5.334v.279h-.339c-.296,0-.533,.052-.715,.158-.131,.07-.232,.191-.309,.361-.054,.12-.083,.437-.083,.947v6.712c0,.522,.03,.848,.088,.979,.058,.13,.17,.244,.339,.342,.168,.097,.394,.146,.68,.146h.339" fill="#ef3e42"/><path d="M26.785,30.483v2.574h1.67v.745h-1.67v4.342c0,.406,.019,.668,.056,.785,.039,.119,.105,.213,.199,.286,.096,.074,.184,.11,.264,.11,.326,0,.634-.249,.925-.745l.226,.165c-.406,.964-1.065,1.445-1.979,1.445-.446,0-.824-.125-1.131-.372-.309-.249-.506-.526-.592-.832-.049-.17-.075-.632-.075-1.385v-3.799h-.917v-.264c.631-.446,1.169-.915,1.614-1.407,.443-.491,.831-1.04,1.162-1.648h.248" fill="#ef3e42"/><path d="M30.019,34.667v-.331c.582-.251,1.005-.576,1.269-.975,.263-.398,.395-.808,.395-1.23,0-.08-.018-.143-.053-.188-.035-.039-.071-.06-.106-.06-.029,0-.074,.018-.134,.053-.146,.086-.328,.127-.542,.127-.296,0-.553-.114-.772-.346-.218-.23-.327-.501-.327-.812,0-.331,.125-.622,.377-.872,.25-.252,.553-.377,.909-.377,.432,0,.801,.168,1.107,.501,.305,.333,.459,.791,.459,1.373,0,.717-.217,1.354-.652,1.911-.432,.557-1.077,.965-1.93,1.226" fill="#ef3e42"/><path d="M38.703,32.862l.112,2.399h-.255c-.306-.713-.624-1.199-.952-1.459s-.655-.391-.981-.391c-.206,0-.382,.068-.527,.206-.146,.139-.218,.298-.218,.478,0,.136,.05,.266,.15,.392,.161,.206,.61,.559,1.348,1.057,.736,.499,1.221,.922,1.455,1.272,.233,.349,.349,.738,.349,1.169,0,.392-.097,.774-.292,1.151-.197,.376-.471,.664-.829,.867-.356,.2-.75,.299-1.181,.299-.336,0-.784-.104-1.346-.316-.152-.055-.255-.082-.309-.082-.166,0-.303,.125-.414,.376h-.248l-.12-2.527h.255c.226,.661,.535,1.159,.93,1.488,.393,.331,.765,.498,1.117,.498,.24,0,.437-.074,.591-.222,.152-.148,.228-.328,.228-.539,0-.24-.075-.448-.224-.624-.152-.177-.487-.442-1.009-.798-.768-.531-1.264-.937-1.49-1.218-.331-.412-.495-.867-.495-1.363,0-.541,.185-1.032,.56-1.47,.372-.439,.913-.659,1.62-.659,.381,0,.75,.093,1.106,.279,.136,.075,.247,.113,.332,.113,.089,0,.162-.019,.218-.057,.055-.038,.143-.144,.264-.319h.255" fill="#ef3e42"/><path d="M50.042,37.188h-3.604l-.429,.993c-.141,.331-.209,.605-.209,.82,0,.287,.114,.497,.345,.632,.135,.08,.468,.141,1,.18v.279h-3.393v-.279c.366-.054,.668-.206,.903-.455,.237-.248,.527-.761,.872-1.538l3.651-8.142h.142l3.679,8.367c.352,.794,.641,1.292,.865,1.498,.171,.155,.412,.246,.723,.27v.279h-4.936v-.279h.204c.395,0,.674-.054,.834-.164,.112-.081,.166-.197,.166-.347,0-.09-.015-.183-.046-.278-.008-.046-.084-.234-.225-.565l-.542-1.271m-.256-.557l-1.519-3.514-1.565,3.514h3.084Z" fill="#ef3e42"/><path d="M57.802,29.889v8.743c0,.497,.057,.814,.174,.952,.115,.138,.34,.216,.676,.237v.271h-3.799v-.271c.311-.01,.541-.101,.692-.272,.099-.114,.151-.42,.151-.917v-7.282c0-.492-.058-.807-.174-.944-.115-.139-.338-.218-.669-.238v-.279h2.949" fill="#ef3e42"/><path d="M66.258,40.302l-1.927-5.161-1.888,5.161h-.39l-1.874-5.1c-.281-.779-.52-1.284-.715-1.52-.125-.161-.317-.277-.572-.346v-.279h3.551v.279c-.241,0-.406,.035-.497,.105-.091,.07-.135,.149-.135,.241,0,.084,.081,.341,.242,.767l1.029,2.746,.994-2.746-.075-.181c-.15-.376-.282-.615-.396-.718-.112-.103-.287-.175-.523-.214v-.279h3.605v.279c-.281,.014-.459,.053-.534,.117-.077,.061-.114,.15-.114,.266,0,.111,.073,.354,.219,.73l.994,2.746,.902-2.528c.13-.362,.195-.607,.195-.738,0-.195-.047-.339-.143-.428-.095-.09-.28-.145-.556-.165v-.279h2.083v.279c-.229,.03-.413,.111-.548,.244-.136,.133-.312,.51-.527,1.132l-1.971,5.59h-.429" fill="#ef3e42"/><path d="M74.325,39.054c-.858,.757-1.628,1.136-2.309,1.136-.402,0-.736-.132-1.001-.395-.266-.263-.399-.593-.399-.99,0-.536,.231-1.019,.693-1.448,.46-.429,1.467-.999,3.016-1.712v-.707c0-.532-.029-.866-.086-1.004-.058-.138-.168-.259-.328-.361-.16-.104-.342-.154-.542-.154-.325,0-.593,.072-.805,.217-.13,.09-.194,.196-.194,.316,0,.106,.069,.235,.209,.391,.19,.216,.286,.424,.286,.625,0,.246-.091,.455-.273,.628-.185,.174-.423,.259-.72,.259-.316,0-.581-.094-.793-.285-.213-.19-.321-.413-.321-.67,0-.361,.143-.706,.429-1.034,.287-.329,.685-.581,1.197-.756,.511-.177,1.043-.264,1.595-.264,.667,0,1.195,.143,1.582,.425,.39,.284,.642,.591,.758,.922,.071,.211,.105,.694,.105,1.452v2.732c0,.321,.012,.522,.037,.605,.027,.084,.063,.145,.114,.185,.049,.04,.108,.059,.173,.059,.131,0,.264-.092,.398-.277l.227,.18c-.251,.372-.511,.641-.779,.809-.269,.168-.574,.252-.915,.252-.401,0-.714-.095-.94-.282-.226-.189-.365-.473-.414-.854m0-.549v-2.356c-.607,.357-1.058,.737-1.353,1.144-.196,.271-.295,.544-.295,.82,0,.231,.084,.434,.249,.609,.125,.135,.3,.204,.525,.204,.252,0,.543-.14,.874-.421Z" fill="#ef3e42"/><path d="M81.329,40.379l-2.273-5.215c-.34-.787-.593-1.272-.756-1.452-.162-.181-.36-.307-.591-.376v-.279h3.74v.279c-.246,.009-.419,.057-.518,.142-.102,.086-.152,.189-.152,.309,0,.19,.125,.567,.376,1.129l1.205,2.753,.82-2.128c.296-.759,.444-1.285,.444-1.581,0-.186-.062-.334-.185-.445-.124-.11-.339-.17-.651-.179v-.279h2.355v.279c-.23,.024-.418,.114-.564,.266-.145,.154-.389,.674-.729,1.562l-2.01,5.215c-.506,1.302-.882,2.105-1.128,2.407-.347,.421-.779,.632-1.302,.632-.417,0-.753-.12-1.012-.358-.257-.238-.388-.525-.388-.861,0-.291,.09-.532,.267-.723,.179-.189,.398-.285,.658-.285,.252,0,.454,.079,.607,.24,.152,.16,.231,.409,.236,.744,.005,.192,.029,.315,.069,.37,.04,.055,.097,.083,.171,.083,.122,0,.25-.073,.384-.218,.202-.211,.438-.693,.708-1.445l.219-.586" fill="#ef3e42"/><path d="M90.299,32.862l.112,2.399h-.255c-.306-.713-.624-1.199-.951-1.459-.33-.26-.656-.391-.982-.391-.206,0-.382,.068-.529,.206-.144,.139-.216,.298-.216,.478,0,.136,.049,.266,.15,.392,.16,.206,.61,.559,1.347,1.057,.738,.499,1.222,.922,1.456,1.272,.233,.349,.349,.738,.349,1.169,0,.392-.097,.774-.293,1.151-.195,.376-.471,.664-.829,.867-.355,.2-.748,.299-1.181,.299-.334,0-.785-.104-1.346-.316-.151-.055-.253-.082-.308-.082-.165,0-.304,.125-.415,.376h-.248l-.12-2.527h.257c.224,.661,.535,1.159,.929,1.488,.393,.331,.765,.498,1.117,.498,.241,0,.436-.074,.59-.222s.23-.328,.23-.539c0-.24-.075-.448-.226-.624-.151-.177-.486-.442-1.008-.798-.768-.531-1.264-.937-1.49-1.218-.332-.412-.497-.867-.497-1.363,0-.541,.188-1.032,.561-1.47,.374-.439,.915-.659,1.621-.659,.382,0,.75,.093,1.106,.279,.136,.075,.246,.113,.33,.113,.091,0,.164-.019,.219-.057,.056-.038,.143-.144,.264-.319h.256" fill="#ef3e42"/><path d="M33.64,47.304l.083,3.402h-.309c-.146-.854-.504-1.54-1.072-2.059-.57-.518-1.185-.778-1.847-.778-.511,0-.917,.137-1.216,.41-.298,.273-.448,.589-.448,.944,0,.227,.054,.427,.159,.603,.146,.235,.378,.468,.7,.699,.236,.165,.78,.459,1.632,.88,1.195,.587,1.999,1.142,2.414,1.663,.412,.522,.618,1.118,.618,1.79,0,.854-.332,1.587-.997,2.201-.665,.615-1.508,.922-2.532,.922-.321,0-.624-.032-.91-.098-.285-.065-.645-.187-1.075-.369-.24-.099-.439-.149-.595-.149-.13,0-.269,.05-.414,.149-.146,.102-.264,.253-.354,.459h-.278v-3.851h.278c.222,1.083,.646,1.909,1.276,2.478,.63,.57,1.307,.855,2.036,.855,.562,0,1.009-.154,1.343-.459,.333-.307,.5-.662,.5-1.069,0-.241-.065-.473-.192-.7-.129-.226-.322-.44-.583-.642-.261-.204-.722-.468-1.384-.795-.928-.456-1.595-.844-2.003-1.166-.406-.321-.717-.68-.935-1.076-.219-.396-.329-.833-.329-1.309,0-.813,.3-1.504,.896-2.077,.597-.572,1.349-.858,2.257-.858,.331,0,.653,.041,.963,.12,.237,.061,.523,.173,.862,.335,.338,.164,.576,.246,.711,.246,.13,0,.233-.041,.308-.121,.076-.08,.146-.273,.211-.58h.226" fill="#ef3e42"/><path d="M38.365,47.538v4.07c.386-.406,.74-.692,1.062-.86,.32-.169,.654-.253,1-.253,.44,0,.818,.126,1.132,.376,.313,.251,.522,.545,.625,.884,.103,.338,.155,.91,.155,1.711v2.748c0,.537,.049,.871,.149,1.003,.101,.133,.304,.217,.61,.252v.272h-3.567v-.272c.251-.035,.44-.134,.566-.3,.088-.13,.134-.45,.134-.955v-3.139c0-.58-.022-.946-.068-1.094-.045-.148-.122-.265-.229-.347-.108-.082-.23-.124-.365-.124-.2,0-.396,.07-.586,.206-.191,.139-.397,.381-.618,.728v3.77c0,.501,.038,.814,.112,.94,.096,.17,.292,.275,.588,.315v.272h-3.567v-.272c.296-.03,.507-.125,.633-.286,.086-.11,.127-.432,.127-.969v-7.149c0-.531-.048-.862-.146-.993-.098-.131-.302-.216-.614-.256v-.278h2.867" fill="#ef3e42"/><path d="M46.808,50.706v5.575c0,.496,.057,.813,.172,.952,.116,.138,.341,.216,.677,.236v.272h-3.799v-.272c.311-.009,.541-.1,.693-.271,.099-.114,.149-.421,.149-.917v-4.108c0-.497-.057-.814-.172-.952-.115-.138-.339-.216-.67-.237v-.278h2.95m-1.053-3.409c.325,0,.601,.114,.827,.341,.226,.229,.339,.505,.339,.825,0,.322-.115,.595-.342,.82-.229,.226-.504,.339-.824,.339-.321,0-.596-.113-.821-.339-.225-.225-.338-.498-.338-.82,0-.32,.113-.596,.338-.825,.225-.227,.5-.341,.821-.341Z" fill="#ef3e42"/><path d="M51.165,48.132v2.574h1.67v.745h-1.67v4.341c0,.407,.019,.669,.056,.786,.039,.118,.104,.214,.199,.286,.095,.073,.183,.109,.264,.109,.326,0,.633-.249,.925-.745l.226,.165c-.406,.964-1.066,1.446-1.979,1.446-.447,0-.824-.124-1.133-.373-.307-.249-.504-.526-.59-.832-.05-.169-.075-.631-.075-1.384v-3.799h-.918v-.264c.631-.446,1.169-.916,1.615-1.406,.443-.492,.83-1.041,1.162-1.649h.248" fill="#ef3e42"/><path d="M56.295,48.132v2.574h1.67v.745h-1.67v4.341c0,.407,.018,.669,.056,.786,.039,.118,.105,.214,.2,.286,.095,.073,.182,.109,.263,.109,.326,0,.635-.249,.926-.745l.225,.165c-.406,.964-1.065,1.446-1.978,1.446-.447,0-.824-.124-1.133-.373-.308-.249-.505-.526-.591-.832-.049-.169-.076-.631-.076-1.384v-3.799h-.916v-.264c.631-.446,1.169-.916,1.614-1.406,.443-.492,.831-1.041,1.162-1.649h.248" fill="#ef3e42"/><path d="M61.74,58.027l-2.272-5.214c-.341-.788-.593-1.272-.756-1.453-.163-.181-.36-.307-.592-.376v-.278h3.74v.278c-.246,.01-.419,.058-.518,.143-.101,.086-.151,.188-.151,.308,0,.191,.124,.568,.376,1.129l1.204,2.753,.821-2.128c.295-.758,.443-1.284,.443-1.581,0-.185-.06-.334-.184-.444-.124-.111-.339-.17-.651-.18v-.278h2.355v.278c-.231,.024-.419,.113-.564,.267-.145,.153-.389,.673-.729,1.562l-2.01,5.214c-.506,1.303-.883,2.105-1.129,2.407-.347,.421-.779,.632-1.301,.632-.418,0-.754-.12-1.012-.357-.258-.239-.388-.526-.388-.862,0-.291,.09-.532,.267-.722s.397-.285,.659-.285c.251,0,.453,.079,.605,.24,.152,.161,.232,.409,.237,.745,.005,.19,.029,.313,.069,.368,.039,.056,.097,.082,.172,.082,.121,0,.249-.071,.382-.217,.203-.211,.439-.692,.709-1.445l.218-.586" fill="#ef3e42"/><path d="M72.862,50.706v5.575c0,.496,.057,.813,.173,.952,.115,.138,.341,.216,.677,.236v.272h-3.799v-.272c.311-.009,.541-.1,.692-.271,.1-.114,.15-.421,.15-.917v-4.108c0-.497-.058-.814-.172-.952-.116-.138-.339-.216-.67-.237v-.278h2.949m-1.053-3.409c.326,0,.602,.114,.828,.341,.225,.229,.339,.505,.339,.825,0,.322-.116,.595-.342,.82-.23,.226-.504,.339-.825,.339-.322,0-.595-.113-.82-.339-.225-.225-.339-.498-.339-.82,0-.32,.114-.596,.339-.825,.225-.227,.498-.341,.82-.341Z" fill="#ef3e42"/><path d="M77.271,50.706v.909c.362-.391,.707-.675,1.038-.853,.332-.177,.687-.267,1.069-.267,.455,0,.835,.127,1.137,.38,.299,.253,.501,.568,.6,.944,.081,.286,.121,.835,.121,1.647v2.74c0,.541,.048,.879,.146,1.011,.098,.133,.302,.217,.615,.252v.272h-3.56v-.272c.266-.035,.456-.145,.572-.331,.08-.125,.12-.436,.12-.932v-3.131c0-.576-.023-.94-.067-1.091-.044-.15-.122-.268-.23-.35-.107-.082-.227-.124-.358-.124-.43,0-.832,.309-1.203,.926v3.77c0,.526,.049,.859,.147,1,.098,.14,.279,.228,.545,.263v.272h-3.559v-.272c.296-.03,.507-.125,.632-.286,.086-.11,.128-.436,.128-.977v-3.973c0-.532-.049-.863-.146-.994-.099-.13-.302-.216-.614-.255v-.278h2.867" fill="#ef3e42"/><path d="M17.13,71.426v2.83c0,.552,.033,.9,.101,1.042,.068,.143,.188,.257,.362,.343,.172,.085,.489,.127,.951,.127v.28h-5.184v-.28c.471,0,.79-.043,.959-.132,.168-.088,.286-.201,.354-.341,.067-.14,.101-.487,.101-1.039v-6.622c0-.55-.034-.897-.101-1.041-.068-.143-.187-.257-.357-.341-.172-.086-.49-.129-.956-.129v-.279h4.447c1.463,0,2.516,.261,3.152,.784,.638,.521,.956,1.172,.956,1.956,0,.662-.205,1.228-.617,1.699-.411,.472-.978,.793-1.699,.964-.488,.12-1.311,.179-2.469,.179m0-4.996v4.41c.165,.01,.29,.015,.375,.015,.613,0,1.084-.182,1.416-.545,.33-.364,.496-.928,.496-1.689,0-.758-.166-1.312-.496-1.662-.332-.352-.825-.529-1.483-.529h-.308Z" fill="#ef3e42"/><path d="M25.728,65.844v4.071c.386-.407,.741-.693,1.062-.862,.319-.168,.654-.253,1-.253,.441,0,.818,.127,1.133,.377,.312,.252,.522,.545,.625,.884,.102,.339,.154,.91,.154,1.712v2.747c0,.537,.049,.871,.149,1.004,.101,.133,.304,.217,.61,.252v.272h-3.567v-.272c.251-.035,.441-.135,.566-.301,.089-.13,.135-.449,.135-.955v-3.139c0-.581-.024-.946-.069-1.094-.044-.148-.122-.263-.228-.346-.109-.082-.23-.124-.365-.124-.201,0-.397,.069-.586,.207-.192,.138-.397,.38-.619,.727v3.769c0,.502,.039,.815,.113,.94,.095,.171,.292,.277,.588,.316v.272h-3.568v-.272c.296-.03,.507-.126,.632-.286,.087-.11,.129-.433,.129-.97v-7.148c0-.532-.049-.863-.146-.993-.099-.131-.302-.216-.615-.256v-.279h2.867" fill="#ef3e42"/><path d="M34.171,69.011v5.577c0,.496,.057,.813,.174,.951,.114,.138,.339,.217,.675,.237v.272h-3.798v-.272c.311-.01,.541-.101,.692-.271,.1-.115,.149-.421,.149-.917v-4.109c0-.496-.057-.813-.171-.951-.116-.139-.339-.217-.67-.237v-.28h2.949m-1.053-3.408c.325,0,.602,.114,.827,.342,.226,.228,.339,.504,.339,.824,0,.322-.115,.595-.342,.821-.228,.226-.504,.338-.824,.338-.321,0-.596-.112-.82-.338-.227-.226-.339-.499-.339-.821,0-.32,.112-.596,.339-.824,.224-.228,.499-.342,.82-.342Z" fill="#ef3e42"/><path d="M38.506,65.844v8.744c0,.496,.056,.813,.172,.951s.34,.217,.677,.237v.272h-3.799v-.272c.31-.01,.542-.101,.692-.271,.1-.115,.15-.421,.15-.917v-7.284c0-.492-.057-.806-.172-.944-.116-.138-.339-.217-.67-.237v-.279h2.95" fill="#ef3e42"/><path d="M43.869,75.008c-.858,.758-1.628,1.136-2.31,1.136-.402,0-.735-.132-1-.394-.266-.263-.4-.593-.4-.99,0-.536,.232-1.019,.693-1.448,.46-.429,1.467-.999,3.017-1.712v-.707c0-.532-.029-.866-.087-1.004-.057-.138-.167-.258-.327-.361-.161-.104-.342-.155-.542-.155-.326,0-.594,.073-.805,.218-.131,.09-.196,.196-.196,.316,0,.106,.07,.235,.211,.391,.19,.216,.286,.424,.286,.625,0,.246-.092,.456-.274,.628-.184,.173-.424,.259-.719,.259-.316,0-.581-.094-.794-.285-.213-.19-.32-.414-.32-.67,0-.361,.143-.706,.429-1.034,.286-.329,.685-.581,1.197-.756,.511-.177,1.043-.265,1.595-.265,.666,0,1.195,.144,1.582,.426,.39,.284,.641,.591,.757,.922,.07,.211,.106,.694,.106,1.452v2.732c0,.321,.012,.522,.037,.605,.025,.084,.063,.145,.114,.185,.049,.04,.107,.059,.172,.059,.131,0,.264-.092,.398-.277l.228,.18c-.252,.372-.511,.641-.779,.809-.27,.168-.574,.251-.915,.251-.402,0-.715-.094-.941-.281-.225-.189-.364-.473-.413-.855m0-.548v-2.356c-.607,.358-1.06,.737-1.355,1.144-.195,.271-.293,.544-.293,.82,0,.231,.084,.434,.248,.609,.126,.135,.301,.204,.526,.204,.251,0,.542-.14,.874-.421Z" fill="#ef3e42"/><path d="M54.577,65.844v8.096c0,.547,.016,.87,.045,.972,.04,.164,.116,.287,.229,.368,.113,.08,.31,.13,.591,.149v.249l-2.971,.579v-1.113c-.357,.432-.674,.726-.953,.881-.278,.155-.593,.232-.944,.232-.898,0-1.607-.401-2.129-1.204-.422-.651-.632-1.452-.632-2.399,0-.758,.13-1.437,.392-2.035,.261-.6,.616-1.053,1.071-1.359,.454-.306,.943-.46,1.463-.46,.337,0,.634,.066,.896,.197,.26,.131,.539,.359,.836,.684v-2.121c0-.538-.023-.86-.068-.97-.06-.146-.151-.254-.271-.324-.12-.071-.347-.106-.678-.106v-.316h3.123m-2.106,4.77c-.371-.711-.826-1.068-1.364-1.068-.184,0-.339,.049-.458,.151-.185,.155-.338,.429-.455,.819-.118,.392-.177,.991-.177,1.799,0,.888,.065,1.545,.197,1.972,.13,.426,.307,.735,.533,.926,.115,.093,.273,.142,.475,.142,.44,0,.857-.347,1.249-1.039v-3.702Z" fill="#ef3e42"/><path d="M62.267,72.278h-3.861c.046,.932,.294,1.67,.746,2.212,.346,.416,.762,.624,1.249,.624,.301,0,.574-.084,.82-.252s.508-.471,.791-.907l.255,.166c-.38,.777-.803,1.328-1.264,1.652-.462,.322-.996,.484-1.603,.484-1.044,0-1.833-.401-2.37-1.204-.43-.647-.646-1.448-.646-2.407,0-1.174,.317-2.108,.951-2.803,.635-.694,1.378-1.043,2.23-1.043,.713,0,1.33,.293,1.856,.877,.523,.585,.806,1.452,.846,2.601m-1.852-.505c0-.808-.044-1.361-.131-1.662-.087-.302-.225-.53-.409-.686-.107-.089-.246-.134-.422-.134-.261,0-.475,.128-.64,.383-.295,.447-.443,1.058-.443,1.836v.263h2.045Z" fill="#ef3e42"/><path d="M65.777,65.844v8.744c0,.496,.057,.813,.173,.951s.341,.217,.678,.237v.272h-3.799v-.272c.31-.01,.541-.101,.691-.271,.1-.115,.151-.421,.151-.917v-7.284c0-.492-.058-.806-.173-.944-.116-.138-.339-.217-.669-.237v-.279h2.948" fill="#ef3e42"/><path d="M70.074,75.333v2.618c0,.361,.028,.606,.087,.737,.057,.13,.147,.225,.268,.286,.12,.06,.355,.09,.706,.09v.279h-4.01v-.279c.31-.011,.541-.097,.692-.264,.1-.115,.15-.413,.15-.894v-7.427c0-.496-.057-.813-.172-.951-.116-.139-.339-.217-.67-.237v-.28h2.949v.927c.246-.361,.497-.623,.753-.784,.365-.234,.765-.354,1.195-.354,.518,0,.988,.165,1.412,.491,.423,.325,.746,.775,.967,1.35,.221,.574,.33,1.193,.33,1.854,0,.713-.115,1.364-.341,1.953-.228,.59-.56,1.039-.994,1.348-.434,.307-.917,.461-1.448,.461-.387,0-.748-.084-1.083-.255-.252-.13-.514-.354-.791-.669m0-.76c.432,.611,.894,.917,1.384,.917,.271,0,.495-.143,.671-.429,.261-.421,.39-1.223,.39-2.407,0-1.215-.142-2.044-.428-2.491-.192-.295-.448-.444-.768-.444-.507,0-.922,.367-1.249,1.099v3.755Z" fill="#ef3e42"/><path d="M78.795,65.844v4.071c.387-.407,.739-.693,1.06-.862,.322-.168,.656-.253,1.002-.253,.441,0,.818,.127,1.131,.377,.314,.252,.523,.545,.626,.884,.103,.339,.154,.91,.154,1.712v2.747c0,.537,.049,.871,.151,1.004,.1,.133,.303,.217,.609,.252v.272h-3.566v-.272c.25-.035,.438-.135,.564-.301,.09-.13,.135-.449,.135-.955v-3.139c0-.581-.022-.946-.067-1.094-.045-.148-.122-.263-.23-.346-.108-.082-.229-.124-.366-.124-.2,0-.396,.069-.586,.207s-.396,.38-.617,.727v3.769c0,.502,.037,.815,.112,.94,.096,.171,.292,.277,.588,.316v.272h-3.566v-.272c.295-.03,.505-.126,.63-.286,.086-.11,.129-.433,.129-.97v-7.148c0-.532-.048-.863-.146-.993-.099-.131-.303-.216-.613-.256v-.279h2.866" fill="#ef3e42"/><path d="M87.238,69.011v5.577c0,.496,.057,.813,.172,.951,.116,.138,.341,.217,.678,.237v.272h-3.8v-.272c.311-.01,.541-.101,.692-.271,.1-.115,.151-.421,.151-.917v-4.109c0-.496-.059-.813-.173-.951-.116-.139-.339-.217-.67-.237v-.28h2.95m-1.054-3.408c.327,0,.601,.114,.827,.342,.227,.228,.339,.504,.339,.824,0,.322-.114,.595-.342,.821s-.504,.338-.824,.338c-.322,0-.594-.112-.821-.338-.225-.226-.337-.499-.337-.821,0-.32,.112-.596,.337-.824,.227-.228,.499-.342,.821-.342Z" fill="#ef3e42"/><path d="M92.593,75.008c-.858,.758-1.628,1.136-2.31,1.136-.401,0-.734-.132-1.001-.394-.265-.263-.398-.593-.398-.99,0-.536,.23-1.019,.692-1.448,.461-.429,1.468-.999,3.017-1.712v-.707c0-.532-.029-.866-.086-1.004-.059-.138-.167-.258-.327-.361-.161-.104-.342-.155-.542-.155-.327,0-.594,.073-.805,.218-.132,.09-.195,.196-.195,.316,0,.106,.069,.235,.209,.391,.191,.216,.287,.424,.287,.625,0,.246-.093,.456-.275,.628-.183,.173-.424,.259-.719,.259-.317,0-.581-.094-.792-.285-.214-.19-.322-.414-.322-.67,0-.361,.144-.706,.429-1.034,.286-.329,.685-.581,1.197-.756,.511-.177,1.043-.265,1.595-.265,.667,0,1.195,.144,1.583,.426,.389,.284,.642,.591,.758,.922,.068,.211,.104,.694,.104,1.452v2.732c0,.321,.012,.522,.037,.605,.026,.084,.064,.145,.114,.185,.05,.04,.108,.059,.173,.059,.13,0,.263-.092,.399-.277l.226,.18c-.25,.372-.51,.641-.78,.809-.267,.168-.572,.251-.914,.251-.4,0-.715-.094-.94-.281-.226-.189-.364-.473-.414-.855m0-.548v-2.356c-.608,.358-1.058,.737-1.354,1.144-.195,.271-.295,.544-.295,.82,0,.231,.084,.434,.25,.609,.125,.135,.301,.204,.526,.204,.251,0,.543-.14,.873-.421Z" fill="#ef3e42"/></svg>