<?xml version="1.0" encoding="UTF-8"?><svg id="a" xmlns="http://www.w3.org/2000/svg" viewBox="0 0 109 109"><path d="M110.4545,54.5005c0,29.823-24.176,53.999-53.999,53.999S2.4545,84.3235,2.4545,54.5005,26.6315,.5005,56.4555,.5005s53.999,24.176,53.999,54" fill="#f58426" fill-rule="evenodd"/><path d="M11.9155,50.1675v-.218h.266c.233,0,.411-.037,.535-.11s.216-.172,.274-.298c.037-.083,.054-.331,.054-.745v-5.275c0-.409-.021-.666-.065-.768-.043-.103-.131-.192-.263-.269s-.31-.115-.535-.115h-.266v-.219h3.589c.957,0,1.729,.13,2.312,.39,.714,.319,1.254,.802,1.622,1.448,.369,.646,.554,1.378,.554,2.194,0,.564-.091,1.083-.273,1.558-.181,.476-.416,.867-.703,1.177-.288,.309-.619,.557-.996,.745-.377,.186-.837,.332-1.381,.434-.24,.047-.618,.071-1.135,.071h-3.589m3.057-7.562v6.255c0,.331,.016,.534,.047,.609,.031,.076,.085,.132,.16,.171,.106,.06,.26,.089,.461,.089,.658,0,1.16-.224,1.507-.674,.473-.606,.711-1.548,.711-2.826,0-1.028-.162-1.85-.486-2.465-.255-.481-.586-.808-.987-.982-.284-.122-.756-.181-1.413-.177Z" fill="#231f20"/><path d="M23.4675,44.4735c.481,0,.928,.124,1.342,.372,.414,.249,.728,.602,.943,1.059s.323,.958,.323,1.502c0,.784-.199,1.44-.598,1.969-.48,.638-1.145,.958-1.992,.958-.832,0-1.472-.292-1.922-.875-.449-.583-.674-1.26-.674-2.029,0-.792,.23-1.482,.689-2.072,.459-.589,1.089-.884,1.889-.884m.024,.42c-.201,0-.373,.076-.518,.228-.143,.151-.238,.451-.284,.898-.045,.447-.067,1.07-.067,1.866,0,.421,.027,.816,.083,1.182,.043,.28,.136,.493,.278,.639,.141,.145,.303,.219,.484,.219,.177,0,.325-.049,.444-.148,.153-.135,.256-.321,.308-.561,.078-.375,.117-1.132,.117-2.271,0-.67-.036-1.131-.112-1.381-.075-.25-.185-.432-.331-.547-.102-.083-.237-.124-.402-.124Z" fill="#231f20"/><path d="M29.2095,44.6395v.715c.283-.307,.556-.531,.815-.671,.261-.139,.54-.21,.84-.21,.359,0,.656,.1,.893,.299,.236,.199,.394,.446,.472,.742,.064,.225,.096,.657,.096,1.294v2.153c0,.425,.037,.691,.114,.795,.078,.104,.238,.17,.483,.199v.212h-2.797v-.212c.209-.029,.358-.115,.449-.261,.063-.099,.095-.343,.095-.733v-2.459c0-.453-.018-.74-.053-.858-.036-.118-.097-.21-.18-.275-.085-.065-.179-.098-.282-.098-.339,0-.654,.243-.945,.728v2.962c0,.414,.038,.675,.115,.786,.076,.11,.22,.179,.429,.208v.212h-2.798v-.212c.233-.025,.399-.099,.497-.226,.067-.087,.101-.343,.101-.768v-3.121c0-.418-.038-.679-.115-.782-.078-.102-.237-.169-.483-.2v-.219h2.254" fill="#231f20"/><path d="M34.3885,45.9045v-.26c.457-.197,.789-.453,.996-.765,.206-.314,.31-.636,.31-.967,0-.064-.013-.112-.041-.148-.028-.032-.056-.048-.082-.048-.025,0-.06,.014-.108,.042-.113,.067-.256,.1-.426,.1-.232,0-.433-.09-.605-.271-.172-.182-.258-.395-.258-.639,0-.261,.099-.488,.296-.686,.197-.197,.436-.296,.715-.296,.34,0,.63,.131,.869,.394,.241,.262,.361,.621,.361,1.078,0,.565-.171,1.065-.511,1.502-.34,.439-.847,.76-1.516,.964" fill="#231f20"/><path d="M39.9115,42.6175v2.022h1.312v.585h-1.312v3.411c0,.32,.014,.526,.044,.619,.03,.092,.082,.168,.156,.224,.075,.058,.144,.086,.207,.086,.256,0,.499-.195,.728-.586l.177,.131c-.319,.757-.837,1.135-1.555,1.135-.351,0-.648-.098-.89-.292-.242-.196-.396-.413-.464-.654-.039-.134-.059-.497-.059-1.088v-2.986h-.721v-.207c.496-.35,.919-.719,1.269-1.105,.348-.387,.652-.818,.913-1.295h.195" fill="#231f20"/><path d="M47.6385,46.5375v2.222c0,.434,.026,.707,.08,.82,.053,.112,.148,.202,.283,.268,.136,.068,.385,.102,.748,.102v.218h-4.074v-.218c.371,0,.622-.035,.754-.105,.133-.068,.226-.158,.278-.268,.053-.11,.08-.383,.08-.817v-5.203c0-.432-.027-.706-.08-.818-.052-.112-.146-.202-.28-.269-.135-.067-.385-.1-.752-.1v-.219h3.495c1.151,0,1.977,.205,2.477,.614,.501,.411,.751,.923,.751,1.537,0,.521-.161,.967-.485,1.337-.323,.37-.768,.622-1.336,.756-.382,.096-1.029,.143-1.939,.143m0-3.926v3.465c.129,.008,.228,.012,.295,.012,.481,0,.851-.143,1.112-.429,.26-.286,.39-.729,.39-1.327,0-.596-.13-1.032-.39-1.307-.261-.276-.648-.414-1.165-.414h-.242Z" fill="#231f20"/><path d="M57.4515,44.6395v4.327c0,.422,.04,.686,.119,.79,.078,.104,.238,.17,.478,.199v.212h-2.252v-.739c-.265,.316-.528,.545-.792,.689-.264,.143-.56,.216-.888,.216-.312,0-.587-.096-.83-.287-.242-.192-.405-.415-.487-.671-.084-.256-.125-.703-.125-1.342v-2.193c0-.418-.038-.679-.116-.782-.077-.102-.237-.169-.481-.2v-.219h2.253v3.778c0,.394,.018,.648,.056,.762,.037,.115,.096,.202,.177,.261,.08,.059,.174,.089,.281,.089,.142,0,.27-.038,.384-.113,.158-.102,.347-.309,.568-.62v-2.956c0-.418-.038-.679-.115-.782-.077-.102-.238-.169-.482-.2v-.219h2.252" fill="#231f20"/><path d="M61.1405,44.6395v.727c.304-.331,.585-.563,.843-.694,.258-.132,.541-.199,.848-.199,.355,0,.653,.083,.893,.248,.24,.166,.426,.418,.556,.757,.315-.354,.618-.61,.907-.768,.29-.158,.593-.237,.908-.237,.383,0,.687,.088,.913,.263,.228,.176,.385,.398,.474,.669,.088,.27,.133,.7,.133,1.292v2.264c0,.425,.039,.69,.115,.792,.077,.103,.237,.17,.481,.202v.212h-2.855v-.212c.224-.021,.391-.108,.497-.261,.07-.106,.105-.351,.105-.733v-2.376c0-.494-.018-.807-.058-.941-.04-.135-.102-.233-.187-.299-.085-.065-.183-.097-.298-.097-.169,0-.34,.062-.514,.186-.174,.124-.349,.311-.527,.559v2.968c0,.398,.035,.648,.101,.751,.091,.145,.264,.226,.52,.243v.212h-2.861v-.212c.153-.009,.275-.047,.363-.116,.089-.069,.148-.152,.178-.248,.029-.097,.044-.307,.044-.63v-2.376c0-.501-.019-.815-.059-.941-.039-.126-.106-.224-.199-.296-.092-.071-.191-.106-.297-.106-.159,0-.302,.041-.432,.124-.186,.122-.383,.331-.592,.627v2.968c0,.39,.039,.647,.115,.771,.077,.125,.239,.198,.483,.223v.212h-2.85v-.212c.232-.025,.398-.099,.496-.226,.068-.087,.102-.343,.102-.768v-3.121c0-.418-.039-.679-.117-.782-.077-.102-.237-.169-.481-.2v-.219h2.252" fill="#231f20"/><path d="M70.9165,49.6055v2.058c0,.284,.021,.477,.067,.579,.045,.102,.116,.178,.21,.225,.095,.047,.281,.071,.556,.071v.219h-3.151v-.219c.244-.008,.425-.076,.544-.207,.079-.091,.118-.325,.118-.703v-5.836c0-.39-.045-.64-.136-.748-.091-.109-.266-.17-.526-.186v-.219h2.318v.727c.192-.283,.39-.488,.591-.615,.287-.185,.6-.278,.94-.278,.406,0,.776,.128,1.109,.385,.332,.256,.586,.609,.758,1.061,.174,.451,.261,.937,.261,1.458,0,.559-.09,1.071-.268,1.534-.18,.463-.44,.815-.782,1.058-.34,.243-.719,.364-1.137,.364-.304,0-.588-.068-.852-.201-.197-.103-.404-.278-.62-.527m0-.597c.338,.481,.701,.721,1.087,.721,.213,0,.389-.112,.526-.337,.205-.331,.308-.962,.308-1.891,0-.954-.112-1.607-.337-1.957-.15-.233-.352-.35-.604-.35-.398,0-.724,.288-.98,.864v2.95Z" fill="#231f20"/><path d="M86.4835,41.9665v2.827h-.218c-.265-.773-.66-1.361-1.189-1.762-.529-.402-1.105-.604-1.732-.604-.599,0-1.098,.169-1.496,.506-.398,.337-.681,.807-.846,1.41-.166,.604-.248,1.222-.248,1.857,0,.768,.09,1.442,.272,2.022,.181,.579,.473,1.005,.878,1.277,.404,.272,.884,.408,1.44,.408,.193,0,.391-.021,.594-.063,.203-.041,.411-.1,.624-.179v-1.668c0-.315-.023-.519-.065-.612-.043-.092-.133-.176-.269-.252-.136-.074-.301-.111-.494-.111h-.207v-.22h3.896v.22c-.296,.02-.501,.06-.618,.121-.116,.061-.206,.162-.269,.305-.036,.074-.053,.258-.053,.549v1.668c-.512,.228-1.045,.4-1.6,.516-.553,.117-1.127,.175-1.722,.175-.761,0-1.393-.103-1.896-.31s-.945-.479-1.329-.816c-.386-.338-.686-.717-.902-1.139-.277-.543-.414-1.152-.414-1.826,0-1.207,.423-2.225,1.271-3.057,.847-.831,1.913-1.247,3.198-1.247,.398,0,.757,.031,1.076,.094,.173,.032,.455,.121,.843,.269,.389,.148,.617,.222,.69,.222,.109,0,.212-.04,.306-.121,.095-.081,.182-.234,.261-.459h.218" fill="#231f20"/><path d="M91.0065,49.3515c-.674,.595-1.279,.893-1.814,.893-.317,0-.578-.104-.787-.311s-.314-.466-.314-.777c0-.422,.182-.801,.545-1.139,.361-.337,1.152-.784,2.37-1.344v-.556c0-.417-.022-.681-.068-.789-.045-.109-.131-.203-.257-.284-.126-.08-.268-.121-.426-.121-.256,0-.467,.057-.633,.171-.102,.071-.153,.154-.153,.248,0,.083,.055,.186,.165,.308,.151,.169,.226,.333,.226,.49,0,.194-.072,.359-.216,.494-.145,.136-.333,.205-.565,.205-.249,0-.457-.076-.624-.225-.167-.15-.251-.325-.251-.526,0-.285,.113-.555,.336-.814,.225-.258,.539-.456,.941-.594,.402-.137,.82-.207,1.254-.207,.523,0,.938,.112,1.244,.334,.306,.223,.503,.464,.594,.725,.055,.165,.083,.546,.083,1.141v2.146c0,.252,.009,.411,.029,.476,.02,.065,.05,.113,.09,.145,.038,.031,.084,.047,.135,.047,.103,0,.208-.073,.313-.219l.178,.142c-.197,.292-.401,.504-.613,.636-.209,.132-.449,.198-.717,.198-.316,0-.563-.074-.74-.222-.177-.147-.286-.371-.325-.671m0-.431v-1.851c-.477,.28-.832,.579-1.064,.898-.154,.213-.231,.428-.231,.645,0,.182,.066,.341,.196,.479,.098,.106,.236,.16,.413,.16,.197,0,.426-.111,.686-.331Z" fill="#231f20"/><path d="M97.5035,44.4855l.089,1.886h-.201c-.24-.56-.489-.942-.747-1.147-.259-.205-.516-.307-.772-.307-.162,0-.299,.054-.415,.163-.114,.108-.17,.233-.17,.375,0,.106,.039,.209,.118,.307,.126,.162,.479,.439,1.058,.831s.96,.725,1.144,.999c.183,.274,.274,.581,.274,.919,0,.308-.076,.61-.229,.905-.155,.296-.37,.522-.652,.68-.279,.158-.587,.237-.927,.237-.264,0-.617-.083-1.058-.249-.119-.043-.2-.065-.243-.065-.129,0-.238,.099-.325,.296h-.196l-.093-1.986h.201c.177,.519,.42,.91,.73,1.17,.309,.26,.601,.39,.877,.39,.19,0,.344-.058,.464-.174,.121-.117,.181-.257,.181-.423,0-.189-.059-.353-.177-.491-.119-.138-.383-.346-.793-.626-.603-.418-.992-.738-1.17-.959-.261-.323-.391-.679-.391-1.07,0-.425,.147-.81,.441-1.155,.293-.345,.719-.518,1.273-.518,.3,0,.59,.074,.869,.219,.108,.059,.195,.089,.261,.089,.071,0,.128-.015,.172-.045,.043-.029,.111-.113,.207-.251h.2" fill="#231f20"/><path d="M98.9655,52.2905v-.26c.458-.198,.789-.452,.997-.767,.207-.313,.31-.632,.31-.96,0-.067-.014-.119-.041-.154-.027-.031-.055-.047-.083-.047-.024,0-.059,.014-.106,.041-.115,.068-.256,.101-.426,.101-.233,0-.435-.091-.606-.272-.172-.181-.258-.394-.258-.638,0-.261,.099-.49,.296-.686,.198-.197,.436-.296,.716-.296,.339,0,.628,.131,.869,.393,.24,.263,.361,.622,.361,1.079,0,.563-.171,1.064-.511,1.502-.342,.437-.847,.759-1.518,.964" fill="#231f20"/><path d="M30.7495,60.8195v2.223c0,.433,.027,.707,.08,.819,.053,.112,.148,.202,.284,.269,.135,.067,.385,.1,.747,.1v.219h-4.073v-.219c.37,0,.621-.034,.754-.103,.132-.069,.225-.159,.277-.269,.054-.11,.08-.383,.08-.816v-5.203c0-.433-.026-.706-.08-.819-.052-.112-.146-.202-.28-.269-.135-.067-.385-.101-.751-.101v-.218h3.494c1.151,0,1.977,.205,2.477,.615,.502,.41,.752,.922,.752,1.537,0,.52-.162,.966-.486,1.336-.323,.371-.768,.623-1.336,.756-.381,.095-1.029,.143-1.939,.143m0-3.926v3.464c.13,.009,.228,.013,.296,.013,.48,0,.851-.144,1.111-.429,.261-.286,.39-.728,.39-1.327,0-.596-.129-1.031-.39-1.307-.26-.276-.648-.414-1.165-.414h-.242Z" fill="#231f20"/><path d="M40.5865,58.9225v4.327c0,.422,.04,.684,.119,.789,.078,.104,.239,.171,.479,.198v.213h-2.252v-.739c-.265,.315-.529,.545-.793,.689-.264,.144-.56,.216-.887,.216-.312,0-.588-.096-.83-.287-.243-.192-.405-.415-.488-.671-.083-.257-.125-.703-.125-1.342v-2.193c0-.418-.037-.679-.115-.781-.077-.103-.238-.169-.482-.202v-.217h2.253v3.777c0,.394,.018,.648,.057,.763,.037,.114,.095,.201,.176,.259,.081,.06,.175,.089,.282,.089,.141,0,.269-.037,.383-.112,.159-.102,.348-.31,.569-.62v-2.956c0-.418-.039-.679-.117-.781-.076-.103-.237-.169-.481-.202v-.217h2.252" fill="#231f20"/><path d="M44.2775,58.9225v.726c.303-.331,.584-.562,.842-.694,.259-.133,.542-.198,.848-.198,.356,0,.653,.083,.894,.248,.239,.166,.425,.418,.556,.756,.314-.354,.617-.61,.907-.768,.289-.157,.592-.236,.907-.236,.383,0,.687,.087,.913,.262,.228,.176,.385,.399,.474,.669,.088,.27,.133,.7,.133,1.292v2.264c0,.426,.039,.69,.115,.792,.077,.103,.238,.17,.482,.201v.213h-2.856v-.213c.224-.02,.39-.106,.497-.26,.07-.106,.106-.35,.106-.733v-2.377c0-.492-.019-.806-.059-.941-.039-.133-.101-.232-.186-.297-.085-.066-.184-.098-.299-.098-.17,0-.34,.062-.514,.186-.173,.125-.349,.311-.527,.559v2.968c0,.398,.034,.648,.101,.751,.091,.145,.265,.226,.521,.242v.213h-2.862v-.213c.153-.008,.275-.046,.363-.115,.089-.069,.149-.152,.178-.248,.029-.097,.044-.307,.044-.63v-2.377c0-.5-.019-.814-.059-.941-.04-.125-.105-.223-.198-.294-.092-.072-.192-.107-.299-.107-.158,0-.3,.041-.431,.124-.186,.122-.383,.331-.591,.627v2.968c0,.39,.038,.647,.115,.771,.076,.124,.238,.199,.482,.222v.213h-2.85v-.213c.233-.023,.399-.098,.496-.225,.068-.086,.102-.342,.102-.768v-3.121c0-.418-.039-.679-.116-.781-.078-.103-.237-.169-.482-.202v-.217h2.253" fill="#231f20"/><path d="M54.0525,63.8875v2.058c0,.284,.022,.477,.067,.579,.046,.103,.116,.178,.211,.226,.094,.047,.28,.07,.555,.07v.219h-3.15v-.219c.244-.008,.424-.076,.544-.207,.078-.091,.117-.325,.117-.703v-5.836c0-.39-.045-.64-.135-.748-.092-.109-.267-.17-.526-.187v-.217h2.317v.726c.192-.283,.39-.488,.591-.615,.287-.185,.601-.277,.94-.277,.407,0,.776,.127,1.109,.383,.333,.257,.586,.611,.759,1.062,.173,.451,.26,.937,.26,1.458,0,.559-.09,1.071-.268,1.533-.179,.464-.44,.816-.781,1.06-.341,.241-.72,.363-1.137,.363-.305,0-.588-.067-.852-.201-.197-.103-.404-.279-.621-.527m0-.597c.339,.481,.701,.721,1.087,.721,.214,0,.389-.112,.526-.336,.205-.332,.308-.962,.308-1.892,0-.954-.111-1.607-.337-1.957-.149-.233-.351-.35-.602-.35-.399,0-.726,.288-.982,.864v2.95Z" fill="#231f20"/><path d="M64.6415,56.8935v3.293h.231c.355,0,.645-.053,.87-.159,.224-.107,.414-.286,.57-.539,.155-.251,.258-.593,.305-1.022h.207v4.026h-.207c-.076-.761-.28-1.262-.613-1.504-.333-.243-.71-.364-1.132-.364h-.231v2.454c0,.409,.023,.666,.068,.768,.046,.102,.134,.192,.267,.269,.132,.077,.31,.115,.534,.115h.267v.219h-4.192v-.219h.266c.232,0,.42-.041,.561-.124,.103-.055,.182-.149,.238-.283,.043-.095,.064-.344,.064-.745v-5.275c0-.409-.021-.666-.064-.768-.044-.103-.132-.192-.264-.269-.133-.077-.31-.116-.535-.116h-.266v-.218h6.764v2.3h-.242c-.056-.54-.196-.94-.423-1.2-.227-.261-.556-.444-.985-.551-.237-.058-.674-.088-1.312-.088h-.746" fill="#231f20"/><path d="M71.2395,58.9225v4.38c0,.39,.045,.64,.136,.748,.091,.109,.267,.17,.532,.186v.213h-2.986v-.213c.245-.008,.426-.079,.545-.213,.078-.09,.117-.331,.117-.721v-3.228c0-.39-.045-.64-.136-.748-.091-.109-.265-.17-.526-.187v-.217h2.318m-.828-2.679c.256,0,.473,.089,.65,.268,.178,.18,.266,.396,.266,.648,0,.253-.09,.468-.268,.644-.179,.178-.396,.267-.648,.267-.253,0-.468-.089-.645-.267-.177-.176-.265-.391-.265-.644,0-.252,.088-.468,.265-.648,.177-.179,.392-.268,.645-.268Z" fill="#231f20"/><path d="M75.9765,58.7675l.089,1.886h-.201c-.241-.56-.49-.941-.747-1.146-.259-.206-.516-.308-.772-.308-.162,0-.3,.054-.415,.163-.114,.107-.171,.233-.171,.375,0,.106,.039,.209,.118,.308,.126,.161,.48,.438,1.059,.83s.96,.725,1.144,1c.183,.273,.274,.58,.274,.919,0,.307-.076,.609-.23,.904-.154,.296-.37,.522-.651,.681-.279,.157-.588,.236-.928,.236-.263,0-.616-.083-1.057-.249-.119-.043-.2-.065-.244-.065-.128,0-.238,.099-.325,.296h-.195l-.094-1.986h.201c.177,.52,.42,.91,.731,1.17,.309,.26,.601,.391,.877,.391,.189,0,.344-.059,.464-.175,.121-.116,.18-.257,.18-.423,0-.189-.058-.353-.176-.49-.119-.139-.383-.348-.793-.627-.603-.418-.992-.738-1.17-.958-.261-.324-.391-.68-.391-1.071,0-.425,.147-.81,.441-1.155,.293-.346,.718-.517,1.273-.517,.3,0,.59,.073,.869,.218,.108,.059,.194,.089,.261,.089,.07,0,.128-.015,.172-.045,.043-.029,.111-.113,.207-.251h.2" fill="#231f20"/><path d="M79.4125,56.8995v2.023h1.312v.585h-1.312v3.411c0,.319,.014,.525,.043,.618,.031,.093,.083,.168,.157,.224,.075,.057,.144,.086,.207,.086,.257,0,.499-.195,.728-.586l.177,.131c-.319,.756-.837,1.135-1.555,1.135-.351,0-.647-.098-.89-.293-.241-.195-.397-.413-.464-.653-.039-.134-.059-.496-.059-1.088v-2.985h-.721v-.207c.496-.351,.919-.72,1.268-1.106,.349-.387,.653-.818,.913-1.295h.196" fill="#231f20"/><path d="M84.7455,58.7675l.088,1.886h-.201c-.24-.56-.49-.941-.747-1.146-.259-.206-.515-.308-.771-.308-.162,0-.301,.054-.415,.163-.115,.107-.171,.233-.171,.375,0,.106,.039,.209,.118,.308,.126,.161,.479,.438,1.058,.83,.58,.392,.96,.725,1.144,1,.184,.273,.274,.58,.274,.919,0,.307-.076,.609-.229,.904-.154,.296-.371,.522-.651,.681-.28,.157-.589,.236-.928,.236-.264,0-.616-.083-1.058-.249-.119-.043-.2-.065-.243-.065-.13,0-.238,.099-.325,.296h-.195l-.094-1.986h.201c.177,.52,.42,.91,.73,1.17,.309,.26,.601,.391,.877,.391,.19,0,.344-.059,.464-.175,.121-.116,.181-.257,.181-.423,0-.189-.059-.353-.177-.49-.119-.139-.383-.348-.793-.627-.602-.418-.993-.738-1.171-.958-.259-.324-.389-.68-.389-1.071,0-.425,.146-.81,.44-1.155,.293-.346,.719-.517,1.274-.517,.299,0,.589,.073,.869,.218,.107,.059,.194,.089,.26,.089,.071,0,.128-.015,.172-.045,.043-.029,.112-.113,.207-.251h.201" fill="#231f20"/></svg>