<?xml version="1.0" encoding="UTF-8"?><svg id="a" xmlns="http://www.w3.org/2000/svg" viewBox="0 0 109 109"><path d="M31.464,41.113l.077,3.17h-.287c-.136-.795-.469-1.435-1-1.918-.531-.484-1.105-.726-1.722-.726-.476,0-.854,.127-1.133,.382-.277,.255-.417,.548-.417,.88,0,.211,.049,.3979,.147,.562,.136,.22,.353,.436,.653,.652,.22,.154,.726,.428,1.522,.82,1.113,.547,1.864,1.065,2.251,1.55,.384,.487,.576,1.044,.576,1.67,0,.796-.31,1.479-.93,2.051-.619,.574-1.407,.86-2.36,.86-.3,0-.583-.029-.85-.091-.265-.061-.6-.175-1.003-.344-.224-.093-.408-.139-.553-.139-.122,0-.251,.046-.386,.139-.136,.095-.246,.236-.33,.428h-.259v-3.591h.259c.206,1.01,.602,1.78,1.19,2.311,.586,.53,1.219,.797,1.897,.797,.524,0,.94-.143,1.252-.429,.311-.285,.466-.617,.466-.996,0-.224-.059-.441-.178-.652-.12-.211-.301-.411-.544-.599-.243-.191-.673-.436-1.291-.741-.865-.425-1.487-.787-1.866-1.087-.379-.299-.67-.634-.873-1.003-.204-.369-.305-.777-.305-1.22,0-.758,.279-1.403,.835-1.937,.555-.532,1.257-.799,2.104-.799,.308,0,.608,.038,.898,.112,.219,.056,.487,.161,.803,.313,.315,.151,.537,.227,.663,.227,.122,0,.217-.038,.287-.112,.07-.075,.136-.255,.197-.54h.21" fill="#ef3e42"/><path d="M38.746,47.328h-3.599c.042,.869,.274,1.557,.695,2.063,.322,.387,.71,.581,1.164,.581,.281,0,.535-.078,.764-.235,.23-.157,.475-.439,.738-.845l.238,.1541c-.355,.725-.749,1.239-1.179,1.54-.43,.302-.928,.452-1.493,.452-.974,0-1.71-.374-2.211-1.122-.402-.604-.602-1.351-.602-2.244,0-1.094,.295-1.966,.887-2.613,.592-.647,1.284-.973,2.079-.973,.665,0,1.24,.273,1.729,.818,.489,.545,.752,1.353,.79,2.424m-1.726-.471c0-.752-.042-1.269-.123-1.549-.081-.281-.209-.494-.382-.639-.098-.084-.229-.126-.392-.126-.245,0-.443,.119-.597,.358-.276,.415-.414,.986-.414,1.712v.244h1.908Z" fill="#ef3e42"/><path d="M43.186,49.874c-.8,.706-1.517,1.06-2.153,1.06-.375,0-.686-.124-.933-.37-.248-.244-.372-.552-.372-.922,0-.499,.215-.95,.645-1.35,.43-.399,1.368-.931,2.813-1.596v-.659c0-.496-.027-.808-.081-.936-.054-.129-.156-.241-.305-.337-.149-.0959-.318-.144-.506-.144-.303,0-.553,.068-.75,.204-.122,.084-.182,.181-.182,.294,0,.098,.066,.219,.196,.364,.178,.202,.267,.396,.267,.583,0,.229-.086,.425-.256,.585-.171,.162-.394,.242-.67,.242-.295,0-.542-.087-.739-.2661-.199-.177-.3-.3849-.3-.624,0-.337,.135-.659,.4-.964,.267-.307,.639-.5421,1.117-.7061,.476-.1639,.972-.246,1.486-.246,.622,0,1.115,.133,1.476,.397,.363,.265,.598,.551,.706,.859,.064,.197,.098,.648,.098,1.354v2.547c0,.299,.012,.487,.034,.564,.025,.078,.059,.135,.106,.172,.047,.038,.1,.056,.161,.056,.122,0,.246-.086,.372-.259l.211,.168c-.234,.347-.476,.597-.726,.754s-.534,.236-.853,.236c-.374,0-.666-.0891-.876-.264-.211-.175-.34-.44-.386-.796m0-.512v-2.196c-.566,.332-.987,.687-1.263,1.066-.182,.253-.274,.508-.274,.765,0,.215,.078,.404,.232,.568,.117,.126,.281,.19,.491,.19,.234,0,.505-.131,.814-.393Z" fill="#ef3e42"/><path d="M64.126,41.33v.26c-.178,.013-.328,.063-.45,.147-.121,.084-.23,.213-.323,.386-.028,.056-.174,.4189-.441,1.087l-2.98,7.849h-.275l-2.357-6.13-2.596,6.13h-.259l-3.129-7.765c-.318-.78-.54-1.253-.667-1.417-.126-.164-.338-.26-.638-.287v-.26h4.125v.26c-.331,.01-.553,.059-.662,.15-.111,.092-.164,.205-.164,.341,0,.178,.113,.553,.342,1.129l1.867,4.616,1.493-3.606-.392-1.01c-.215-.551-.382-.921-.498-1.105-.117-.184-.252-.317-.403-.396-.153-.08-.376-.119-.671-.119v-.26h4.609v.26c-.323,.005-.554,.03-.694,.077-.099,.033-.177,.087-.232,.165-.056,.077-.085,.165-.085,.263,0,.108,.106,.437,.317,.989l1.732,4.503,1.55-4.075c.164-.421,.265-.709,.302-.863,.038-.154,.056-.298,.056-.428,0-.192-.065-.343-.196-.453-.131-.109-.382-.168-.751-.178v-.26h2.47" fill="#ef3e42"/><path d="M67.686,44.086c.57,0,1.1,.148,1.591,.443,.492,.295,.865,.713,1.119,1.256,.255,.542,.383,1.136,.383,1.781,0,.931-.236,1.71-.709,2.336-.571,.758-1.359,1.136-2.364,1.136-.986,0-1.747-.346-2.279-1.038-.533-.691-.801-1.494-.801-2.406,0-.94,.273-1.759,.818-2.4579,.544-.7,1.291-1.05,2.242-1.05m.027,.499c-.237,0-.442,.09-.614,.27-.17,.18-.282,.536-.336,1.066-.054,.531-.081,1.269-.081,2.213,0,.501,.033,.969,.099,1.403,.051,.332,.161,.585,.33,.758,.167,.173,.36,.2599,.575,.2599,.211,0,.384-.059,.526-.176,.182-.159,.303-.381,.364-.666,.094-.444,.14-1.343,.14-2.694,0-.795-.043-1.341-.133-1.638-.089-.296-.22-.513-.392-.649-.123-.098-.281-.147-.478-.147Z" fill="#ef3e42"/><path d="M74.372,41.33v8.151c0,.463,.053,.759,.161,.888,.107,.128,.318,.201,.631,.22v.2531h-3.542v-.2531c.29-.009,.505-.093,.646-.252,.092-.107,.139-.393,.139-.856v-6.789c0-.459-.054-.753-.161-.881-.107-.129-.315-.203-.624-.221v-.26h2.75" fill="#ef3e42"/><path d="M78.629,44.971v4.552c0,.44,.045,.716,.139,.828,.15,.173,.426,.253,.827,.238v.253h-3.864v-.253c.294-.005,.504-.038,.628-.101,.124-.064,.209-.151,.256-.263s.069-.346,.069-.702v-4.552h-.953v-.688h.953v-.483l-.007-.33c0-.674,.247-1.235,.742-1.684,.492-.449,1.159-.673,2.002-.673,.574,0,1.001,.108,1.279,.322,.278,.215,.418,.454,.418,.716,0,.211-.087,.393-.259,.548-.174,.153-.403,.231-.688,.231-.244,0-.435-.063-.579-.19-.142-.126-.213-.266-.213-.421,0-.042,.014-.1281,.042-.259,.018-.08,.028-.155,.028-.225,0-.098-.028-.171-.085-.218-.074-.07-.165-.105-.273-.105-.135,0-.249,.056-.34,.169-.092,.112-.136,.292-.136,.54l.014,1.228v.834h.966v.688h-.966" fill="#ef3e42"/><path d="M80.767,53.361v-.309c.543-.234,.938-.537,1.183-.909,.246-.371,.367-.751,.367-1.14,0-.079-.016-.14-.048-.181-.033-.038-.065-.056-.098-.056-.028,0-.071,.015-.125,.049-.137,.078-.306,.119-.507,.119-.276,0-.516-.108-.718-.323-.204-.215-.306-.468-.306-.758,0-.309,.116-.579,.351-.814,.233-.233,.516-.35,.849-.35,.402,0,.745,.155,1.031,.465,.286,.312,.428,.739,.428,1.282,0,.668-.203,1.261-.607,1.781-.404,.519-1.004,.901-1.8,1.144" fill="#ef3e42"/><path d="M17.221,57.935l.077,3.171h-.287c-.136-.796-.47-1.436-1-1.919-.531-.485-1.104-.726-1.722-.726-.477,0-.855,.127-1.133,.382s-.418,.549-.418,.88c0,.21,.05,.399,.148,.563,.136,.219,.353,.436,.652,.651,.22,.154,.727,.427,1.522,.821,1.114,.547,1.864,1.063,2.251,1.55,.384,.486,.576,1.043,.576,1.67,0,.795-.31,1.478-.929,2.0519-.62,.572-1.407,.858-2.361,.858-.299,0-.582-.03-.849-.091-.266-.06-.6-.175-1.003-.343-.224-.094-.409-.14-.553-.14-.123,0-.251,.046-.386,.14-.136,.093-.246,.236-.33,.427h-.26v-3.592h.26c.206,1.011,.601,1.782,1.189,2.313,.587,.53,1.219,.796,1.898,.796,.523,0,.94-.144,1.252-.428,.31-.2859,.466-.6169,.466-.9969,0-.224-.06-.441-.179-.652-.12-.211-.3-.41-.543-.6-.244-.189-.674-.435-1.291-.74-.865-.426-1.487-.788-1.867-1.087-.378-.298-.669-.634-.872-1.003-.204-.369-.306-.776-.306-1.221,0-.757,.279-1.402,.835-1.935,.556-.534,1.258-.8,2.105-.8,.308,0,.607,.038,.897,.112,.22,.055,.488,.159,.804,.312,.315,.151,.536,.227,.662,.227,.122,0,.218-.037,.288-.111,.07-.074,.136-.254,.197-.54h.21" fill="#ef3e42"/><path d="M24.502,64.151h-3.599c.042,.869,.274,1.556,.695,2.062,.323,.387,.711,.581,1.164,.581,.281,0,.536-.078,.765-.235,.229-.156,.474-.438,.737-.846l.238,.157c-.355,.724-.749,1.236-1.178,1.539-.431,.3-.929,.452-1.494,.452-.973,0-1.71-.375-2.21-1.122-.402-.604-.603-1.3521-.603-2.244,0-1.096,.296-1.967,.887-2.615,.592-.647,1.284-.971,2.08-.971,.664,0,1.24,.273,1.728,.817,.489,.546,.753,1.353,.79,2.425m-1.726-.471c0-.753-.041-1.27-.123-1.551-.081-.28-.209-.493-.381-.637-.099-.085-.229-.128-.393-.128-.244,0-.443,.12-.597,.358-.276,.417-.413,.987-.413,1.713v.245h1.907Z" fill="#ef3e42"/><path d="M28.943,66.696c-.8,.706-1.518,1.059-2.153,1.059-.375,0-.686-.122-.933-.368-.249-.2451-.372-.553-.372-.922,0-.5,.214-.951,.645-1.351,.43-.401,1.368-.932,2.813-1.596v-.658c0-.496-.027-.809-.081-.938-.054-.129-.156-.24-.305-.336-.15-.095-.319-.144-.505-.144-.304,0-.554,.068-.751,.204-.122,.084-.181,.183-.181,.294,0,.098,.064,.221,.195,.365,.178,.2,.267,.396,.267,.582,0,.229-.086,.424-.256,.586-.171,.162-.395,.242-.671,.242-.294,0-.541-.0891-.739-.2661-.199-.178-.299-.386-.299-.626,0-.335,.135-.657,.4-.963,.267-.307,.638-.541,1.116-.705,.477-.1639,.973-.246,1.487-.246,.622,0,1.114,.131,1.476,.396,.363,.266,.597,.551,.705,.859,.065,.198,.098,.648,.098,1.354v2.547c0,.3,.012,.487,.036,.564,.024,.077,.059,.135,.106,.1721,.045,.037,.099,.0569,.16,.0569,.122,0,.246-.088,.372-.2599l.211,.168c-.234,.346-.475,.598-.727,.754-.25,.157-.533,.235-.852,.235-.373,0-.667-.088-.876-.263-.211-.175-.34-.441-.386-.796m0-.511v-2.196c-.567,.332-.987,.687-1.263,1.066-.182,.252-.274,.507-.274,.764,0,.217,.078,.4041,.232,.5681,.117,.126,.281,.19,.49,.19,.234,0,.506-.131,.815-.392Z" fill="#ef3e42"/><path d="M49.881,58.153v.259c-.178,.014-.327,.063-.45,.1461-.12,.085-.228,.214-.322,.386-.028,.057-.175,.42-.442,1.088l-2.98,7.849h-.274l-2.358-6.131-2.595,6.131h-.26l-3.128-7.764c-.318-.781-.54-1.253-.666-1.417s-.339-.26-.639-.288v-.259h4.125v.259c-.332,.0081-.552,.059-.663,.151-.11,.092-.164,.204-.164,.34,0,.177,.113,.554,.343,1.129l1.866,4.616,1.494-3.606-.393-1.0099c-.215-.552-.381-.92-.497-1.105-.118-.184-.253-.316-.405-.397-.151-.078-.374-.118-.669-.118v-.259h4.609v.259c-.323,.004-.555,.031-.695,.077-.098,.033-.176,.088-.232,.166-.056,.076-.084,.164-.084,.261,0,.108,.105,.438,.316,.99l1.732,4.503,1.55-4.076c.164-.42,.265-.708,.302-.862,.039-.155,.057-.297,.057-.428,0-.191-.065-.343-.197-.453-.131-.109-.381-.17-.75-.178v-.259h2.469" fill="#ef3e42"/><path d="M53.442,60.909c.571,0,1.101,.148,1.592,.441,.492,.296,.864,.714,1.119,1.256,.255,.543,.382,1.137,.382,1.782,0,.931-.235,1.708-.708,2.336-.571,.758-1.359,1.137-2.364,1.137-.986,0-1.747-.346-2.28-1.038-.534-.693-.8-1.494-.8-2.407,0-.939,.272-1.758,.818-2.459,.544-.699,1.291-1.048,2.241-1.048m.028,.498c-.237,0-.442,.09-.613,.27s-.284,.536-.337,1.066c-.054,.531-.081,1.269-.081,2.213,0,.501,.033,.968,.099,1.404,.05,.332,.161,.584,.329,.757,.168,.172,.36,.258,.575,.258,.211,0,.385-.057,.527-.173,.182-.161,.303-.381,.364-.667,.093-.445,.14-1.342,.14-2.695,0-.794-.044-1.341-.133-1.636-.089-.298-.22-.514-.392-.65-.123-.098-.281-.147-.478-.147Z" fill="#ef3e42"/><path d="M60.127,58.153v8.15c0,.463,.054,.759,.162,.887,.108,.13,.318,.203,.632,.223v.25h-3.543v-.25c.289-.011,.505-.095,.645-.254,.093-.108,.14-.393,.14-.856v-6.789c0-.46-.054-.7531-.161-.881-.107-.129-.315-.203-.624-.221v-.259h2.749" fill="#ef3e42"/><path d="M64.385,61.793v4.551c0,.44,.046,.717,.14,.828,.15,.174,.425,.254,.828,.241v.25h-3.865v-.25c.293-.006,.503-.04,.627-.103,.124-.063,.209-.151,.256-.265,.047-.111,.07-.345,.07-.701v-4.551h-.953v-.687h.953v-.484l-.007-.331c0-.673,.247-1.234,.741-1.682,.492-.45,1.159-.674,2.002-.674,.574,0,1.001,.108,1.28,.321,.278,.217,.417,.454,.417,.716,0,.212-.086,.394-.26,.548-.171,.154-.402,.231-.686,.231-.243,0-.436-.062-.578-.189-.145-.126-.215-.267-.215-.421,0-.042,.015-.129,.042-.26,.018-.079,.027-.154,.027-.224,0-.099-.027-.17-.083-.217-.075-.0699-.166-.106-.274-.106-.136,0-.248,.057-.34,.168-.092,.113-.136,.293-.136,.541l.014,1.228v.835h.968v.687h-.968" fill="#ef3e42"/><path d="M78.502,64.325l-.359,3.338h-8.445v-.258h.316c.276,0,.497-.049,.666-.147,.121-.066,.215-.178,.28-.338,.052-.111,.078-.407,.078-.882v-6.258c0-.487-.026-.791-.078-.912-.051-.121-.155-.2271-.311-.32-.157-.092-.369-.136-.635-.136h-.316v-.259h5.071v.259h-.414c-.275,0-.497,.049-.666,.146-.122,.066-.217,.179-.288,.3391-.051,.111-.076,.404-.076,.883v6.06c0,.487,.027,.797,.084,.93,.055,.133,.165,.232,.329,.298,.117,.042,.399,.063,.849,.063h.792c.505,0,.927-.09,1.264-.267,.337-.178,.627-.457,.873-.841,.245-.384,.478-.95,.697-1.698h.289" fill="#ef3e42"/><path d="M82.59,60.909c.571,0,1.102,.148,1.593,.441,.49,.296,.863,.714,1.118,1.256,.254,.543,.383,1.137,.383,1.782,0,.931-.236,1.708-.709,2.336-.57,.758-1.358,1.137-2.363,1.137-.986,0-1.747-.346-2.28-1.038-.534-.693-.8-1.494-.8-2.407,0-.939,.272-1.758,.816-2.459,.545-.699,1.293-1.048,2.242-1.048m.029,.498c-.239,0-.444,.09-.615,.27-.169,.18-.282,.536-.336,1.066-.054,.531-.08,1.269-.08,2.213,0,.501,.033,.968,.097,1.404,.052,.332,.162,.584,.33,.757,.169,.172,.361,.258,.575,.258,.21,0,.386-.057,.527-.173,.181-.161,.304-.381,.365-.667,.092-.445,.14-1.342,.14-2.695,0-.794-.044-1.341-.133-1.636-.089-.298-.22-.514-.394-.65-.121-.098-.28-.147-.476-.147Z" fill="#ef3e42"/><path d="M90.754,60.922l.105,2.239h-.238c-.285-.664-.581-1.118-.887-1.362-.308-.243-.611-.365-.915-.365-.192,0-.356,.065-.492,.193-.136,.129-.202,.278-.202,.447,0,.126,.046,.248,.139,.364,.15,.191,.569,.521,1.256,.986,.687,.465,1.14,.86,1.358,1.186,.217,.324,.325,.687,.325,1.09,0,.365-.091,.722-.273,1.074-.183,.349-.44,.619-.772,.806-.332,.188-.698,.281-1.102,.281-.312,0-.731-.099-1.255-.295-.141-.051-.236-.077-.288-.077-.153,0-.282,.117-.384,.35h-.233l-.111-2.356h.238c.21,.617,.498,1.08,.867,1.389,.366,.308,.713,.461,1.04,.461,.226,0,.408-.067,.551-.205,.143-.137,.214-.305,.214-.502,0-.225-.07-.419-.21-.583-.141-.164-.453-.4109-.94-.743-.715-.495-1.178-.874-1.389-1.136-.309-.383-.462-.807-.462-1.27,0-.505,.173-.962,.521-1.372,.349-.408,.853-.613,1.511-.613,.356,0,.699,.087,1.031,.259,.128,.071,.231,.106,.309,.106,.085,0,.153-.018,.204-.053,.052-.035,.133-.135,.246-.299h.238" fill="#ef3e42"/><path d="M97.784,64.151h-3.599c.043,.869,.275,1.556,.695,2.062,.323,.387,.71,.581,1.164,.581,.281,0,.536-.078,.764-.235,.23-.156,.475-.438,.738-.846l.238,.157c-.355,.724-.749,1.236-1.179,1.539-.431,.3-.928,.452-1.493,.452-.974,0-1.71-.375-2.21-1.122-.402-.604-.604-1.3521-.604-2.244,0-1.096,.296-1.967,.888-2.615,.592-.647,1.284-.971,2.079-.971,.665,0,1.24,.273,1.73,.817,.488,.546,.752,1.353,.789,2.425m-1.726-.471c0-.753-.041-1.27-.123-1.551-.08-.28-.209-.493-.382-.637-.097-.085-.228-.128-.392-.128-.244,0-.444,.12-.597,.358-.276,.417-.414,.987-.414,1.713v.245h1.908Z" fill="#ef3e42"/><circle cx="54.5" cy="54.5" r="54" fill="none" stroke="#231f20"/></svg>