<?xml version="1.0" encoding="UTF-8"?><svg id="a" xmlns="http://www.w3.org/2000/svg" viewBox="0 0 109 109"><path d="M108.4995,54.5c0,29.823-24.177,54-54,54S.5005,84.323,.5005,54.5,24.6755,.5,54.4995,.5s54,24.177,54,54Z" fill="#fff" stroke="#231f20"/><path d="M18.2995,38.115l.084,3.508h-.316c-.15-.879-.52-1.586-1.107-2.122-.586-.535-1.221-.803-1.905-.803-.528,0-.946,.141-1.253,.422-.307,.282-.463,.607-.463,.974,0,.234,.056,.44,.164,.622,.151,.243,.389,.484,.721,.722,.243,.17,.805,.473,1.685,.907,1.232,.606,2.061,1.178,2.49,1.716,.425,.537,.637,1.153,.637,1.846,0,.88-.343,1.637-1.029,2.271-.685,.634-1.556,.951-2.611,.951-.332,0-.644-.034-.939-.101-.294-.067-.663-.194-1.111-.381-.247-.103-.451-.155-.612-.155-.135,0-.276,.052-.427,.155-.15,.104-.272,.262-.365,.474h-.287v-3.974h.287c.228,1.118,.666,1.97,1.316,2.557,.65,.588,1.349,.881,2.101,.881,.579,0,1.039-.157,1.384-.473,.344-.315,.517-.683,.517-1.102,0-.248-.066-.489-.199-.722-.133-.232-.332-.453-.601-.663-.27-.209-.746-.483-1.428-.82-.958-.47-1.646-.871-2.066-1.203-.418-.33-.741-.7-.964-1.109-.225-.409-.338-.858-.338-1.351,0-.838,.307-1.552,.924-2.141,.615-.591,1.391-.886,2.329-.886,.339,0,.671,.042,.992,.125,.244,.062,.54,.177,.889,.345,.349,.168,.592,.252,.732,.252,.135,0,.241-.04,.318-.123,.077-.083,.151-.283,.219-.599h.232" fill="#13b5ea"/><path d="M23.6305,41.407c.633,0,1.219,.162,1.763,.488,.544,.326,.955,.79,1.238,1.39,.281,.601,.422,1.257,.422,1.972,0,1.029-.26,1.89-.782,2.583-.633,.838-1.504,1.258-2.616,1.258-1.092,0-1.933-.383-2.523-1.149s-.884-1.653-.884-2.662c0-1.04,.3-1.946,.904-2.72,.601-.773,1.429-1.16,2.478-1.16m.032,.55c-.264,0-.49,.1-.679,.299-.189,.2-.313,.592-.372,1.179-.06,.589-.091,1.405-.091,2.45,0,.553,.038,1.071,.111,1.552,.055,.368,.177,.646,.365,.838,.186,.192,.398,.287,.634,.287,.235,0,.427-.064,.584-.194,.202-.175,.336-.421,.403-.737,.103-.492,.155-1.485,.155-2.98,0-.879-.049-1.4839-.146-1.812-.1-.329-.244-.569-.436-.718-.135-.11-.31-.164-.528-.164Z" fill="#13b5ea"/><path d="M42.5915,38.115v3.711h-.285c-.347-1.014-.867-1.786-1.561-2.313-.695-.527-1.451-.792-2.273-.792-.787,0-1.442,.222-1.964,.664-.523,.442-.893,1.059-1.11,1.851-.219,.791-.327,1.604-.327,2.437,0,1.008,.12,1.893,.358,2.653,.237,.761,.621,1.321,1.153,1.678,.53,.357,1.161,.535,1.89,.535,.252,0,.513-.027,.779-.082,.267-.054,.539-.133,.82-.237v-2.188c0-.414-.029-.682-.086-.803-.058-.122-.175-.231-.355-.33-.176-.098-.393-.148-.647-.148h-.273v-.286h5.115v.286c-.387,.027-.656,.08-.809,.159-.152,.081-.272,.214-.353,.401-.047,.098-.072,.338-.072,.721v2.188c-.672,.301-1.371,.528-2.098,.681-.728,.152-1.482,.228-2.262,.228-.999,0-1.829-.136-2.487-.408-.661-.272-1.243-.629-1.747-1.071-.504-.442-.901-.94-1.183-1.493-.363-.715-.544-1.514-.544-2.399,0-1.583,.557-2.921,1.669-4.013,1.112-1.091,2.512-1.637,4.199-1.637,.522,0,.993,.042,1.41,.125,.229,.041,.598,.158,1.109,.352,.509,.194,.809,.291,.904,.291,.144,0,.278-.053,.402-.159,.124-.106,.24-.307,.343-.602h.285" fill="#13b5ea"/><path d="M47.7885,41.407c.632,0,1.218,.162,1.762,.488,.544,.326,.955,.79,1.239,1.39,.28,.601,.421,1.257,.421,1.972,0,1.029-.26,1.89-.782,2.583-.633,.838-1.504,1.258-2.616,1.258-1.093,0-1.933-.383-2.523-1.149s-.884-1.653-.884-2.662c0-1.04,.301-1.946,.904-2.72,.602-.773,1.428-1.16,2.479-1.16m.031,.55c-.264,0-.489,.1-.679,.299-.188,.2-.312,.592-.372,1.179-.059,.589-.091,1.405-.091,2.45,0,.553,.038,1.071,.112,1.552,.054,.368,.176,.646,.364,.838,.185,.192,.398,.287,.635,.287,.234,0,.426-.064,.584-.194,.201-.175,.336-.421,.402-.737,.103-.492,.154-1.485,.154-2.98,0-.879-.048-1.4839-.145-1.812-.1-.329-.243-.569-.436-.718-.135-.11-.309-.164-.528-.164Z" fill="#13b5ea"/><path d="M55.6375,49.098l-2.445-5.627c-.294-.678-.526-1.107-.69-1.288-.12-.135-.296-.226-.529-.272v-.288h3.857v.288c-.244,0-.408,.044-.495,.131-.125,.1151-.186,.249-.186,.4041,0,.192,.112,.552,.34,1.079l1.196,2.724,.953-2.351c.275-.673,.411-1.149,.411-1.429,0-.16-.056-.291-.173-.391-.116-.101-.322-.157-.618-.167v-.288h2.375v.288c-.228,.031-.414,.116-.557,.256-.146,.14-.363,.551-.653,1.234l-2.421,5.697h-.365" fill="#13b5ea"/><path d="M66.4885,44.992h-3.983c.046,.962,.303,1.723,.77,2.282,.355,.429,.785,.645,1.287,.645,.312,0,.592-.088,.847-.262,.254-.172,.523-.483,.815-.935l.264,.172c-.394,.802-.829,1.369-1.305,1.703-.475,.334-1.026,.501-1.652,.501-1.076,0-1.893-.414-2.446-1.242-.444-.667-.667-1.495-.667-2.4839,0-1.21,.327-2.174,.982-2.8911,.654-.7159,1.422-1.074,2.302-1.074,.734,0,1.371,.3,1.912,.904,.54,.603,.832,1.496,.874,2.681m-1.911-.52c0-.833-.044-1.405-.135-1.715-.091-.311-.232-.545-.422-.707-.108-.093-.255-.139-.435-.139-.27,0-.49,.131-.66,.396-.304,.461-.458,1.092-.458,1.893v.272h2.11Z" fill="#13b5ea"/><path d="M70.2955,41.623v1.647c.482-.751,.905-1.249,1.265-1.495,.362-.245,.712-.368,1.048-.368,.29,0,.522,.088,.694,.267,.175,.178,.261,.4319,.261,.756,0,.348-.084,.616-.252,.808s-.371,.287-.61,.287c-.274,0-.511-.087-.714-.263-.201-.177-.32-.274-.357-.295-.05-.031-.11-.047-.178-.047-.151,0-.292,.057-.427,.171-.212,.175-.371,.426-.48,.753-.166,.501-.25,1.055-.25,1.66v1.67l.009,.434c0,.294,.018,.483,.053,.566,.062,.141,.155,.242,.276,.306,.122,.066,.327,.105,.618,.121v.28h-3.921v-.28c.316-.026,.531-.113,.641-.26,.111-.147,.168-.536,.168-1.167v-4.014c0-.413-.022-.677-.064-.792-.051-.144-.126-.251-.223-.318-.1-.066-.272-.113-.522-.139v-.288h2.965" fill="#13b5ea"/><path d="M77.3045,41.623v.94c.372-.404,.731-.698,1.071-.881,.342-.184,.71-.275,1.103-.275,.469,0,.86,.13,1.172,.391,.31,.262,.518,.586,.619,.974,.084,.295,.126,.862,.126,1.7v2.825c0,.559,.049,.907,.15,1.044,.102,.137,.313,.225,.633,.26v.28h-3.671v-.28c.275-.035,.471-.15,.591-.342,.082-.129,.124-.45,.124-.962v-3.228c0-.596-.024-.971-.071-1.125-.046-.157-.126-.277-.236-.362-.111-.085-.235-.128-.37-.128-.444,0-.858,.318-1.241,.955v3.888c0,.543,.052,.888,.151,1.033,.102,.145,.29,.236,.564,.2711v.28h-3.673v-.28c.305-.031,.524-.13,.653-.294,.087-.114,.132-.451,.132-1.01v-4.098c0-.548-.05-.89-.15-1.024-.102-.135-.312-.222-.635-.264v-.288h2.958" fill="#13b5ea"/><path d="M86.6035,41.407c.63,0,1.218,.162,1.762,.488,.542,.326,.955,.79,1.236,1.39,.283,.601,.425,1.257,.425,1.972,0,1.029-.262,1.89-.785,2.583-.63,.838-1.504,1.258-2.616,1.258-1.09,0-1.933-.383-2.521-1.149-.591-.766-.887-1.653-.887-2.662,0-1.04,.303-1.946,.905-2.72,.603-.773,1.43-1.16,2.481-1.16m.03,.55c-.262,0-.49,.1-.678,.299-.191,.2-.314,.592-.374,1.179-.06,.589-.088,1.405-.088,2.45,0,.553,.035,1.071,.108,1.552,.058,.368,.179,.646,.364,.838,.187,.192,.399,.287,.638,.287,.232,0,.427-.064,.581-.194,.201-.175,.336-.421,.404-.737,.103-.492,.156-1.485,.156-2.98,0-.879-.049-1.4839-.149-1.812-.096-.329-.243-.569-.433-.718-.135-.11-.312-.164-.529-.164Z" fill="#13b5ea"/><path d="M94.0745,41.623v1.647c.482-.751,.905-1.249,1.265-1.495,.363-.245,.712-.368,1.048-.368,.289,0,.522,.088,.695,.267,.174,.178,.26,.4319,.26,.756,0,.348-.084,.616-.252,.808s-.372,.287-.61,.287c-.274,0-.511-.087-.714-.263-.201-.177-.321-.274-.356-.295-.051-.031-.111-.047-.179-.047-.15,0-.292,.057-.427,.171-.213,.175-.372,.426-.48,.753-.166,.501-.25,1.055-.25,1.66v1.67l.01,.434c0,.294,.017,.483,.052,.566,.062,.141,.155,.242,.277,.306,.121,.066,.327,.105,.617,.121v.28h-3.921v-.28c.316-.026,.531-.113,.642-.26,.11-.147,.168-.536,.168-1.167v-4.014c0-.413-.023-.677-.065-.792-.051-.144-.126-.251-.224-.318-.098-.066-.271-.113-.521-.139v-.288h2.965" fill="#13b5ea"/><path d="M28.8745,56.726v3.649h-.304c-.228-.951-.651-1.682-1.274-2.189-.619-.507-1.324-.76-2.109-.76-.659,0-1.26,.189-1.809,.567-.547,.377-.951,.871-1.203,1.481-.327,.782-.488,1.651-.488,2.608,0,.942,.117,1.801,.356,2.573,.239,.774,.61,1.358,1.119,1.755,.507,.395,1.163,.594,1.97,.594,.663,0,1.269-.145,1.82-.436,.55-.289,1.132-.789,1.742-1.498v.908c-.59,.616-1.202,1.063-1.842,1.339-.639,.277-1.387,.416-2.24,.416-1.123,0-2.12-.225-2.991-.676-.873-.45-1.546-1.096-2.019-1.94-.474-.844-.71-1.741-.71-2.693,0-1.004,.263-1.955,.787-2.856,.527-.9,1.234-1.599,2.127-2.096,.894-.496,1.84-.746,2.844-.746,.741,0,1.521,.16,2.346,.482,.475,.186,.778,.28,.907,.28,.166,0,.309-.061,.431-.184,.122-.121,.201-.313,.236-.578h.304" fill="#13b5ea"/><path d="M37.2225,60.235v5.681c0,.554,.052,.899,.155,1.037,.104,.137,.315,.225,.628,.26v.279h-2.956v-.971c-.347,.414-.692,.717-1.039,.905-.347,.189-.734,.284-1.166,.284-.409,0-.771-.126-1.09-.377-.318-.251-.53-.544-.638-.882-.112-.336-.164-.922-.164-1.76v-2.881c0-.549-.051-.89-.153-1.023-.099-.135-.311-.223-.632-.265v-.287h2.959v4.96c0,.518,.024,.851,.073,1.001,.048,.149,.126,.263,.231,.342,.107,.077,.231,.116,.369,.116,.187,0,.355-.05,.505-.148,.208-.134,.455-.407,.745-.815v-3.881c0-.549-.05-.89-.15-1.023-.102-.135-.313-.223-.633-.265v-.287h2.956" fill="#13b5ea"/><path d="M41.8645,66.7549v2.7c0,.373,.029,.627,.089,.762,.059,.134,.152,.232,.276,.294,.124,.063,.367,.093,.73,.093v.288h-4.137v-.288c.32-.0099,.558-.1,.714-.272,.103-.117,.154-.426,.154-.923v-7.661c0-.512-.06-.838-.177-.981-.119-.142-.349-.224-.691-.245v-.287h3.042v.955c.254-.3719,.513-.641,.776-.8069,.378-.243,.789-.3651,1.234-.3651,.533,0,1.019,.168,1.455,.504,.437,.337,.769,.801,.997,1.394,.228,.592,.343,1.23,.343,1.914,0,.733-.12,1.404-.354,2.013-.234,.608-.577,1.071-1.023,1.389-.45,.319-.947,.478-1.496,.478-.397,0-.771-.089-1.116-.265-.259-.1349-.531-.364-.816-.69m0-.785c.444,.631,.922,.948,1.429,.948,.278,0,.508-.149,.689-.444,.27-.433,.405-1.261,.405-2.4821,0-1.253-.148-2.1089-.442-2.5699-.197-.3051-.462-.457-.792-.457-.524,0-.953,.378-1.289,1.132v3.873Z" fill="#13b5ea"/><path d="M57.1065,67.205v.287h-5.502v-.287h.35c.304,0,.55-.055,.736-.162,.135-.074,.238-.198,.31-.373,.057-.124,.085-.451,.085-.979v-6.922c0-.539-.028-.875-.085-1.009-.056-.135-.171-.252-.345-.353-.173-.103-.407-.151-.701-.151h-.35v-.287h5.502v.287h-.35c-.305,0-.55,.053-.736,.162-.135,.073-.241,.197-.318,.373-.058,.123-.087,.449-.087,.978v6.922c0,.538,.031,.875,.091,1.0099,.059,.135,.174,.252,.349,.3521,.173,.101,.407,.152,.701,.152h.35" fill="#13b5ea"/><path d="M61.6875,67.4919v-.287h.348c.306,0,.539-.048,.703-.145,.163-.094,.282-.224,.36-.39,.046-.109,.071-.435,.071-.979v-6.922c0-.539-.029-.875-.086-1.009-.056-.135-.173-.252-.345-.353-.173-.103-.407-.151-.703-.151h-.348v-.287h4.71c1.258,0,2.269,.1689,3.036,.511,.935,.418,1.645,1.053,2.129,1.902,.484,.848,.726,1.808,.726,2.879,0,.741-.119,1.42-.357,2.045-.238,.623-.546,1.139-.924,1.544-.378,.408-.813,.734-1.306,.978-.495,.246-1.1,.436-1.814,.571-.316,.062-.811,.093-1.49,.093h-4.71m4.011-9.928v8.213c0,.435,.022,.701,.062,.799,.042,.1,.113,.174,.21,.225,.14,.078,.341,.117,.606,.117,.865,0,1.523-.295,1.979-.885,.621-.797,.931-2.033,.931-3.709,0-1.352-.212-2.431-.637-3.238-.336-.631-.767-1.06-1.296-1.287-.371-.161-.99-.239-1.855-.235Z" fill="#13b5ea"/><path d="M76.2285,60.235v5.751c0,.512,.06,.84,.179,.983,.119,.142,.351,.224,.699,.244v.279h-3.921v-.279c.32-.01,.56-.104,.714-.28,.104-.119,.155-.435,.155-.947v-4.238c0-.512-.059-.838-.177-.981-.119-.142-.349-.224-.692-.245v-.287h3.043m-1.086-3.516c.336,0,.619,.119,.854,.354,.232,.235,.349,.519,.349,.849,0,.332-.12,.613-.354,.847-.235,.233-.52,.348-.849,.348-.332,0-.614-.115-.847-.348-.232-.234-.349-.515-.349-.847,0-.33,.117-.614,.349-.849,.233-.235,.515-.354,.847-.354Z" fill="#13b5ea"/><path d="M84.9145,56.969v8.349c0,.566,.015,.899,.046,1.002,.042,.17,.12,.297,.237,.381,.117,.082,.32,.135,.609,.154v.256l-3.066,.599v-1.149c-.367,.445-.695,.747-.982,.908-.288,.16-.613,.241-.973,.241-.926,0-1.658-.415-2.198-1.243-.433-.672-.65-1.498-.65-2.475,0-.781,.133-1.482,.402-2.1,.27-.618,.637-1.086,1.106-1.4,.469-.316,.973-.474,1.511-.474,.346,0,.654,.068,.923,.201,.268,.135,.555,.371,.861,.707v-2.19c0-.553-.023-.886-.069-1-.062-.15-.157-.261-.281-.334-.124-.072-.355-.107-.698-.107v-.326h3.222m-2.174,4.919c-.383-.734-.852-1.101-1.405-1.101-.192,0-.349,.052-.472,.154-.193,.16-.35,.443-.472,.846-.121,.404-.181,1.023-.181,1.855,0,.916,.067,1.594,.202,2.034,.134,.439,.318,.757,.549,.955,.121,.098,.284,.146,.492,.146,.453,0,.884-.356,1.287-1.07v-3.819Z" fill="#13b5ea"/><path d="M88.9895,64.069h-.343c-.035-.589-.155-1.304-.356-2.141l-.405-1.693c-.243-1.015-.365-1.7401-.365-2.181,0-.398,.12-.718,.358-.962,.24-.244,.549-.366,.931-.366,.374,0,.682,.123,.929,.369,.246,.247,.367,.559,.367,.936,0,.393-.128,1.129-.387,2.204l-.411,1.693c-.146,.6-.252,1.313-.318,2.141m-.164,1.11c.347,0,.643,.124,.888,.368,.247,.247,.37,.545,.37,.896,0,.348-.123,.645-.37,.89-.245,.245-.541,.369-.888,.369s-.644-.124-.889-.369-.367-.542-.367-.89c0-.3459,.122-.642,.365-.891,.24-.249,.539-.373,.891-.373Z" fill="#13b5ea"/></svg>