<?xml version="1.0" encoding="UTF-8"?><svg id="a" xmlns="http://www.w3.org/2000/svg" viewBox="0 0 109 109"><path d="M108.5,54.5c0,29.823-24.176,54-54,54S.5,84.323,.5,54.5,24.678,.5,54.5,.5s54,24.176,54,54" fill="#00467f" fill-rule="evenodd"/><path d="M19.736,32.626l.065,2.778h-.25c-.119-.697-.41-1.256-.876-1.681-.465-.424-.967-.635-1.509-.635-.417,0-.747,.11-.992,.334-.241,.223-.364,.481-.364,.771,0,.184,.044,.348,.128,.492,.119,.192,.309,.384,.571,.571,.194,.135,.638,.375,1.333,.719,.977,.479,1.634,.931,1.973,1.358,.337,.425,.503,.912,.503,1.461,0,.696-.271,1.295-.813,1.798-.542,.501-1.232,.752-2.067,.752-.262,0-.511-.026-.743-.08-.234-.053-.527-.153-.879-.301-.197-.082-.358-.123-.486-.123-.106,0-.219,.041-.337,.123-.119,.082-.215,.207-.29,.375h-.226v-3.146h.226c.18,.885,.528,1.559,1.042,2.024,.513,.466,1.068,.698,1.661,.698,.46,0,.825-.125,1.097-.375,.273-.249,.408-.541,.408-.872,0-.196-.05-.387-.155-.572-.106-.184-.264-.358-.476-.524-.214-.166-.589-.382-1.131-.649-.759-.372-1.303-.69-1.634-.952-.333-.262-.588-.555-.766-.878-.177-.324-.266-.68-.266-1.069,0-.663,.243-1.229,.732-1.696,.484-.467,1.1-.701,1.842-.701,.269,0,.533,.034,.785,.1,.192,.049,.429,.139,.705,.272s.469,.199,.579,.199c.108,0,.193-.031,.252-.097,.063-.066,.119-.223,.173-.474h.185" fill="#fff"/><path d="M23.655,32.818v5.479l1.334-1.309c.275-.266,.445-.458,.512-.577,.069-.119,.103-.233,.103-.344s-.045-.203-.135-.276c-.09-.075-.266-.127-.529-.16v-.227h2.574v.227c-.245,.012-.461,.07-.645,.175-.184,.104-.546,.419-1.082,.943l-.626,.614,1.351,1.978c.546,.803,.868,1.253,.971,1.353,.139,.138,.316,.216,.529,.232v.222h-2.968v-.222c.132,0,.227-.024,.285-.073,.061-.049,.09-.103,.09-.159,0-.095-.086-.269-.258-.523l-1.137-1.665-.369,.362v1.033c0,.438,.042,.711,.124,.819s.251,.178,.503,.206v.222h-2.966v-.222c.242-.024,.414-.103,.516-.232,.07-.091,.105-.355,.105-.793v-5.836c0-.435-.04-.705-.121-.812-.079-.105-.247-.176-.5-.208v-.227h2.339" fill="#fff"/><path d="M33.639,35.404v4.497c0,.438,.042,.711,.124,.819,.081,.108,.247,.178,.497,.206v.222h-2.341v-.769c-.274,.328-.547,.567-.823,.716-.274,.149-.581,.225-.922,.225-.324,0-.609-.1-.862-.298-.253-.2-.421-.431-.507-.699-.086-.265-.128-.73-.128-1.393v-2.279c0-.435-.041-.705-.121-.811-.079-.107-.247-.176-.5-.209v-.227h2.34v3.925c0,.409,.02,.674,.058,.793,.039,.118,.101,.208,.186,.27,.082,.061,.179,.092,.291,.092,.146,0,.28-.039,.399-.118,.162-.105,.361-.321,.589-.644v-3.071c0-.435-.04-.705-.119-.811-.08-.107-.247-.176-.501-.209v-.227h2.34" fill="#fff"/><path d="M37.339,32.818v7.137c0,.406,.046,.664,.14,.778,.094,.113,.278,.177,.554,.193v.222h-3.103v-.222c.254-.008,.443-.081,.565-.221,.081-.094,.123-.344,.123-.75v-5.946c0-.401-.047-.658-.141-.771-.095-.113-.277-.177-.547-.193v-.227h2.409" fill="#fff"/><path d="M40.871,32.818v7.137c0,.406,.046,.664,.141,.778,.094,.113,.279,.177,.554,.193v.222h-3.103v-.222c.253-.008,.442-.081,.565-.221,.082-.094,.123-.344,.123-.75v-5.946c0-.401-.048-.658-.142-.771-.093-.113-.276-.177-.546-.193v-.227h2.408" fill="#fff"/><path d="M52.041,36.165h2.556v.24c-.287,.041-.513,.125-.678,.255-.163,.128-.375,.429-.639,.9-.261,.471-.629,.997-1.104,1.578,.418,.378,.759,.64,1.021,.787,.182,.103,.364,.154,.54,.154,.301,0,.576-.199,.824-.596l.25,.134c-.335,.661-.694,1.129-1.074,1.408-.291,.209-.623,.313-.997,.313-.318,0-.623-.069-.912-.206-.289-.137-.638-.394-1.052-.771-.513,.344-.995,.593-1.445,.746-.451,.154-.92,.231-1.406,.231-.778,0-1.397-.211-1.855-.633-.459-.422-.689-.918-.689-1.486,0-.614,.22-1.149,.657-1.604,.439-.455,1.076-.847,1.91-1.179-.106-.267-.184-.527-.24-.781-.053-.253-.078-.5-.078-.737,0-.655,.231-1.201,.691-1.637,.46-.437,1.048-.655,1.766-.655,.577,0,1.034,.145,1.373,.434,.337,.289,.506,.626,.506,1.011,0,.462-.173,.859-.519,1.188-.345,.33-.893,.632-1.642,.906,.462,.816,1.139,1.694,2.033,2.635,.602-.675,.902-1.254,.902-1.737,0-.173-.058-.32-.177-.44-.119-.121-.293-.193-.522-.218v-.24m-3.919,.663c-.329,.14-.56,.287-.695,.443-.192,.23-.29,.485-.29,.768,0,.385,.112,.767,.336,1.149,.223,.381,.492,.675,.807,.885,.317,.208,.631,.313,.947,.313,.155,0,.331-.034,.525-.102,.195-.068,.406-.169,.635-.304-.986-1.012-1.741-2.062-2.265-3.152Zm1.473-1.031c.43-.16,.72-.331,.866-.514,.148-.182,.221-.402,.221-.66,0-.458-.12-.845-.36-1.161-.162-.209-.358-.313-.592-.313-.193,0-.357,.076-.494,.227-.138,.152-.206,.357-.206,.614,0,.202,.034,.416,.099,.646,.065,.229,.222,.616,.466,1.161Z" fill="#fff"/><path d="M64.024,36.731c.791,.183,1.345,.407,1.666,.669,.458,.374,.686,.856,.686,1.45,0,.627-.251,1.144-.755,1.555-.618,.495-1.517,.743-2.696,.743h-4.233v-.228c.385,0,.646-.036,.783-.107,.138-.072,.234-.165,.289-.28,.056-.115,.083-.397,.083-.848v-5.405c0-.451-.027-.735-.083-.852-.055-.116-.153-.209-.293-.279-.139-.071-.399-.104-.779-.104v-.227h3.993c.954,0,1.63,.085,2.027,.254,.398,.169,.71,.424,.941,.762,.229,.338,.344,.696,.344,1.078,0,.401-.146,.759-.437,1.073-.291,.313-.802,.561-1.536,.746m-2.237,.313v2.672l-.005,.307c0,.221,.055,.388,.168,.501,.114,.113,.281,.17,.502,.17,.327,0,.63-.075,.907-.219,.274-.146,.487-.357,.635-.633,.147-.276,.221-.585,.221-.925,0-.389-.091-.738-.27-1.047-.182-.309-.429-.525-.744-.648-.315-.122-.787-.182-1.414-.178Zm0-.479c.582,0,1.011-.066,1.287-.198,.278-.129,.49-.315,.636-.551,.149-.239,.222-.541,.222-.91,0-.37-.073-.67-.218-.907-.144-.235-.353-.415-.625-.537-.268-.122-.703-.182-1.302-.179v3.282Z" fill="#fff"/><path d="M69.952,35.232c.5,0,.963,.129,1.396,.386,.428,.258,.756,.625,.977,1.101,.224,.475,.335,.995,.335,1.56,0,.814-.205,1.497-.619,2.044-.5,.665-1.189,.997-2.07,.997-.864,0-1.531-.304-1.996-.91-.469-.606-.701-1.308-.701-2.107,0-.823,.238-1.54,.715-2.153,.476-.612,1.132-.918,1.963-.918m.024,.435c-.208,0-.388,.079-.536,.237-.151,.158-.249,.469-.295,.933-.048,.466-.072,1.112-.072,1.94,0,.437,.03,.847,.086,1.228,.046,.291,.141,.512,.289,.662,.147,.154,.316,.229,.504,.229,.185,0,.337-.051,.461-.154,.159-.139,.266-.334,.32-.584,.082-.389,.122-1.175,.122-2.359,0-.695-.038-1.175-.117-1.434-.078-.26-.193-.45-.342-.568-.109-.087-.247-.13-.42-.13Z" fill="#fff"/><path d="M75.881,35.404v.744c.295-.321,.577-.553,.848-.699,.271-.144,.56-.217,.872-.217,.371,0,.682,.103,.928,.309,.246,.208,.41,.464,.491,.772,.065,.233,.098,.681,.098,1.345v2.237c0,.441,.04,.717,.12,.825,.081,.108,.247,.178,.501,.206v.222h-2.906v-.222c.216-.028,.372-.118,.467-.271,.064-.102,.098-.355,.098-.76v-2.556c0-.472-.019-.768-.056-.892-.036-.123-.099-.218-.187-.285-.087-.067-.184-.101-.292-.101-.352,0-.679,.252-.982,.756v3.078c0,.428,.04,.702,.119,.816,.08,.115,.229,.187,.446,.215v.222h-2.907v-.222c.242-.024,.414-.103,.517-.232,.069-.091,.104-.358,.104-.799v-3.244c0-.435-.039-.705-.119-.811-.081-.107-.247-.176-.502-.209v-.227h2.342" fill="#fff"/><path d="M85.397,38.07h-3.151c.036,.761,.24,1.363,.608,1.805,.282,.34,.623,.511,1.019,.511,.246,0,.469-.069,.669-.206,.201-.137,.415-.384,.647-.741l.208,.136c-.311,.634-.656,1.084-1.033,1.348-.376,.265-.813,.397-1.307,.397-.854,0-1.498-.329-1.936-.984-.353-.527-.529-1.183-.529-1.966,0-.958,.261-1.72,.778-2.288,.519-.567,1.125-.85,1.821-.85,.582,0,1.086,.238,1.514,.715,.428,.478,.659,1.184,.692,2.123m-1.512-.412c0-.66-.035-1.112-.106-1.358-.072-.246-.183-.431-.335-.559-.086-.074-.202-.11-.345-.11-.212,0-.388,.104-.522,.313-.241,.365-.362,.865-.362,1.5v.214h1.67Z" fill="#fff"/><path d="M88.499,35.404v1.302c.381-.594,.714-.988,1.001-1.182,.286-.196,.563-.292,.83-.292,.229,0,.412,.07,.549,.212,.138,.14,.207,.34,.207,.598,0,.275-.067,.488-.201,.639-.132,.152-.293,.227-.481,.227-.218,0-.406-.069-.567-.208-.159-.14-.252-.216-.281-.234-.041-.024-.088-.036-.142-.036-.119,0-.23,.045-.339,.135-.166,.139-.294,.337-.38,.595-.13,.398-.196,.836-.196,1.315v1.321l.005,.344c0,.233,.015,.383,.044,.448,.048,.111,.121,.192,.218,.242,.096,.052,.259,.084,.489,.096v.222h-3.103v-.222c.251-.021,.419-.089,.506-.206,.088-.116,.132-.424,.132-.924v-3.177c0-.327-.016-.536-.049-.626-.04-.115-.098-.199-.177-.252-.077-.052-.214-.089-.412-.11v-.227h2.347" fill="#fff"/><path d="M95.267,35.244l.091,1.959h-.206c-.251-.581-.511-.978-.779-1.192-.269-.212-.535-.318-.802-.318-.166,0-.311,.056-.43,.169-.119,.112-.178,.242-.178,.389,0,.111,.04,.217,.123,.32,.132,.167,.498,.456,1.1,.863,.602,.407,.998,.754,1.188,1.038,.191,.284,.286,.603,.286,.955,0,.319-.081,.633-.24,.939-.159,.308-.385,.544-.676,.708-.291,.164-.611,.246-.964,.246-.273,0-.641-.086-1.099-.258-.122-.046-.207-.069-.253-.069-.133,0-.247,.104-.336,.309h-.204l-.099-2.064h.211c.183,.54,.436,.945,.758,1.215,.32,.271,.624,.406,.912,.406,.195,0,.357-.061,.482-.181,.126-.121,.188-.268,.188-.44,0-.197-.062-.367-.185-.51s-.397-.36-.824-.651c-.626-.434-1.031-.766-1.216-.995-.271-.337-.404-.706-.404-1.112,0-.442,.152-.842,.457-1.201,.305-.358,.747-.537,1.322-.537,.314,0,.614,.075,.905,.226,.11,.063,.201,.093,.269,.093,.075,0,.134-.016,.18-.046,.044-.031,.115-.118,.214-.261h.209" fill="#fff"/><path d="M55.152,68.587c.808-.447,2.226-1.099,4.253-1.958,.098-.05,.36-.161,.784-.335,.72-.734,1.316-1.283,1.789-1.65,.472-.367,.814-.551,1.027-.551,.26,0,.453,.081,.576,.242,.125,.162,.188,.411,.188,.746,0,.287-.043,.69-.131,1.213,.535,.671,.803,1.168,.803,1.491,0,.275-.077,.484-.225,.626-.148,.143-.373,.213-.672,.213-.148,0-.375-.077-.68-.232-.304-.155-.693-.383-1.166-.681-1.144,.212-2.785,.853-4.923,1.921,.273,.162,.472,.279,.597,.355,.746,.422,1.666,.989,2.76,1.697,.137,.087,.447,.273,.932,.559,2.263,.261,3.394,.833,3.394,1.716,0,.571-.607,.957-1.828,1.155-.57,.698-1.043,1.045-1.416,1.045-.449,0-.883-.584-1.307-1.753-.037-.124-.105-.303-.203-.54-1.742-1.429-3.308-2.511-4.701-3.246-1.703,.958-3.283,2.102-4.736,3.433-.199,1.405-.623,2.106-1.27,2.106-.41,0-.883-.397-1.418-1.193-1.267,0-1.9-.348-1.9-1.044,0-.51,.234-.88,.709-1.11,.471-.229,1.465-.457,2.982-.68,1.137-.834,2.485-1.666,4.045-2.5-2.095-1.045-3.804-1.684-5.125-1.921-.312,.274-.597,.479-.859,.616-.26,.136-.504,.204-.727,.204-.324,0-.568-.068-.738-.204-.168-.137-.252-.336-.252-.597,0-.237,.274-.715,.822-1.436-.125-.51-.187-.895-.187-1.156,0-.374,.076-.65,.224-.83,.149-.18,.366-.272,.653-.272,.285,0,.66,.188,1.119,.561,.459,.373,1.014,.939,1.66,1.697,1.43,.51,3.147,1.274,5.147,2.293m2.22-8.131l-.373,.951c-.47,.163-1.109,.243-1.914,.243-.396,0-.756-.022-1.078-.065-.322-.045-.6-.103-.836-.178l-.375-.951-2.623-1.25-.242-1.566c-.037-.299-.307-.882-.803-1.753-.385-.646-.578-1.685-.578-3.114,0-1.666,.604-3.016,1.811-4.047,1.205-1.033,2.777-1.549,4.716-1.549,1.94,0,3.512,.516,4.719,1.549,1.205,1.031,1.809,2.381,1.809,4.047,0,1.429-.397,2.828-1.194,4.196-.074,.149-.136,.372-.185,.671l-.242,1.566-2.612,1.25Zm-6.564-4.644c0,1.194,.517,1.791,1.556,1.791,1.051,0,1.577-.641,1.577-1.921,0-1.057-.508-1.585-1.52-1.585-.539,0-.941,.142-1.211,.428-.269,.287-.402,.716-.402,1.287Zm7.795,5.074l-.467,1.846-1.137,.988c-.199,.387-.463,.674-.791,.867s-.715,.289-1.16,.289c-.893,0-1.543-.385-1.953-1.156l-1.145-.988-.466-1.846,.673-.168c.075,.187,.131,.329,.168,.428,.286,.66,.598,1.095,.94,1.306,.342,.211,.91,.317,1.705,.317,.894,0,1.512-.1,1.853-.299,.342-.198,.655-.64,.94-1.324,.039-.099,.094-.241,.168-.428l.672,.168Zm-3.506-3.564c-.225,.375-.455,.704-.692,.99-.296,.336-.447,.596-.447,.783,0,.199,.061,.349,.178,.447,.117,.1,.289,.15,.514,.15,.134,0,.285-.05,.447-.15,.16,.1,.31,.15,.447,.15,.461,0,.69-.205,.69-.616,0-.174-.149-.428-.448-.764-.248-.299-.478-.628-.689-.99Zm1.23-1.51c0,1.194,.524,1.791,1.567,1.791,1.045,0,1.566-.641,1.566-1.921,0-.534-.127-.933-.383-1.194-.254-.26-.636-.391-1.146-.391-1.068,0-1.604,.572-1.604,1.715Z" fill="#fff"/></svg>